<?xml version="1.0" standalone="no"?>
<!DOCTYPE svg PUBLIC "-//W3C//DTD SVG 1.1//EN" "http://www.w3.org/Graphics/SVG/1.1/DTD/svg11.dtd" >
<svg xmlns="http://www.w3.org/2000/svg">
<metadata></metadata>
<defs>
<font id="antykwapoltawskiegottfbold" horiz-adv-x="425" >
<font-face units-per-em="1000" ascent="800" descent="-200" />
<missing-glyph horiz-adv-x="333" />
<glyph unicode=" "  horiz-adv-x="333" />
<glyph unicode="&#x09;" horiz-adv-x="333" />
<glyph unicode="&#xa0;" horiz-adv-x="333" />
<glyph unicode="!" horiz-adv-x="238" d="M203 700h-168q10 -45 18 -89t14 -89l33 -250h38l33 250q6 45 14 89t18 89zM187 40v56l-40 40h-56l-40 -40v-56l40 -40h56z" />
<glyph unicode="&#x22;" horiz-adv-x="410" d="M161 600v67l-58 33l-58 -33v-67l46 -163h24zM365 600v67l-58 33l-58 -33v-67l46 -163h24z" />
<glyph unicode="#" horiz-adv-x="623" d="M588 176v51h-179l41 151h138v51h-125l48 176h-53l-47 -176h-132l47 176h-52l-47 -176h-192v-51h178l-40 -151h-138v-51h124l-47 -176h52l48 176h131l-47 -176h53l47 176h192zM397 378l-40 -151h-132l41 151h131z" />
<glyph unicode="$" horiz-adv-x="597" d="M544 179q0 42 -19 76t-50 60.5t-71.5 46t-82.5 32.5l-3 1v187q26 -3 49.5 -14t41 -28.5t28 -40.5t10.5 -49h32v120q-75 40 -161 45v85h-38v-85q-39 -3 -74.5 -18t-62 -39t-42 -56t-15.5 -70q0 -36 16 -66t42.5 -54t60.5 -41.5t71 -28.5l4 -1l-1 -223q-35 2 -67 11.5 t-56.5 26t-39.5 40t-15 54.5h-32v-120q100 -42 211 -45v-105h38v105q45 3 85.5 17.5t72 40t50 60t18.5 76.5zM280 406q-18 6 -35 13.5t-30 17t-20.5 23t-7.5 31.5q0 36 27.5 60.5t65.5 30.5v-176zM443 121q0 -23 -10.5 -41t-27.5 -31t-39.5 -21t-47.5 -10l-1 212 q24 -8 47 -17t40.5 -22t28 -30t10.5 -40z" />
<glyph unicode="%" horiz-adv-x="776" d="M670 700h-62l-502 -700h62zM383 535q0 37 -13.5 70t-37 57.5t-55.5 39t-68 14.5t-68 -14.5t-55.5 -39t-37 -57.5t-13.5 -70t13.5 -70t37 -57.5t55.5 -39t68 -14.5t68 14.5t55.5 39t37 57.5t13.5 70zM741 165q0 37 -13.5 70t-37 57.5t-55.5 39t-68 14.5q-37 0 -68.5 -14.5 t-55 -39t-37 -57.5t-13.5 -70t13.5 -70t37 -57.5t55 -39t68.5 -14.5q36 0 68 14.5t55.5 39t37 57.5t13.5 70zM269 535q0 -28 -0.5 -53.5t-5.5 -45.5t-17.5 -32t-36.5 -12t-36.5 12t-17.5 32t-5.5 45.5t-0.5 53.5t0.5 53.5t5.5 45.5t17.5 32t36.5 12t36.5 -12t17.5 -32 t5.5 -45.5t0.5 -53.5zM627 165q0 -28 -0.5 -53.5t-5.5 -45.5t-17.5 -32t-36.5 -12t-36.5 12t-17.5 32t-5.5 45.5t-0.5 53.5t0.5 53.5t5.5 45.5t17.5 32t36.5 12t36.5 -12t17.5 -32t5.5 -45.5t0.5 -53.5z" />
<glyph unicode="&#x26;" horiz-adv-x="665" d="M630 0v38h-59q-41 10 -79 27q53 61 53 168h57v38h-231v-38q21 0 39.5 -8t32 -22t20.5 -32.5t5 -39.5q-3 -26 -17 -46q-26 15 -50.5 33t-46.5 40q-75 73 -111 168q6 5 12.5 9.5t13.5 8.5q42 25 92 43t93 39.5t72 52t29 81.5q0 45 -16 75t-45.5 48t-70.5 25.5t-90 7.5 q-47 0 -89 -16t-74.5 -44.5t-52 -67t-22.5 -84.5q-3 -47 12.5 -89.5t41.5 -81.5q-47 -26 -80.5 -66t-33.5 -92q0 -43 19.5 -78.5t52.5 -60.5t76 -38.5t90 -13.5q116 0 184 49q27 -18 54 -33h119zM421 57q-29 -19 -68 -27t-80 -8q-26 0 -46.5 13t-34.5 34.5t-21 49t-7 56.5 q0 26 8 50.5t22 46.5q49 -62 105.5 -116t121.5 -99zM440 560q0 -39 -18.5 -68t-48.5 -51t-68 -39.5t-77 -33.5q-8 32 -13 64t-5 65q0 34 7.5 66.5t23 58t38.5 41t54 15.5q23 0 42.5 -9.5t34 -26t22.5 -37.5t8 -45z" />
<glyph unicode="'" horiz-adv-x="206" d="M161 600v67l-58 33l-58 -33v-67l46 -163h24z" />
<glyph unicode="(" horiz-adv-x="331" d="M296 -250v38q-62 106 -93.5 223t-31.5 239t31.5 239t93.5 223v38h-19q-57 -45 -102 -101.5t-76 -120.5t-47.5 -134.5t-16.5 -143.5t16.5 -143.5t47.5 -134.5t76 -120.5t102 -101.5h19z" />
<glyph unicode=")" horiz-adv-x="331" d="M296 250q0 73 -16.5 143.5t-47.5 134.5t-76 120.5t-102 101.5h-19v-38q62 -106 93.5 -223t31.5 -239t-31.5 -239t-93.5 -223v-38h19q57 45 102 101.5t76 120.5t47.5 134.5t16.5 143.5z" />
<glyph unicode="*" horiz-adv-x="544" d="M234 597l-26 45h-53l-26 -45l26 -45l96 -93l15 9zM117 485h-53l-26 -45l26 -45h53l128 36v18zM155 328l-26 -45l26 -45h53l26 45l32 129l-15 9zM310 283l26 -45h53l26 45l-26 45l-96 93l-15 -9zM427 395h53l26 45l-26 45h-53l-128 -36v-18zM389 552l26 45l-26 45h-53 l-26 -45l-32 -129l15 -9z" />
<glyph unicode="+" horiz-adv-x="495" d="M460 225v50h-187v188h-51v-188h-187v-50h187v-188h51v188h187z" />
<glyph unicode="," horiz-adv-x="276" d="M206 40v56l-40 40h-56l-40 -40v-56l40 -40h45q-8 -38 -30 -71t-55 -56l19 -33q54 31 85.5 84t31.5 116z" />
<glyph unicode="-" horiz-adv-x="350" d="M315 199v51h-280v-51h280z" />
<glyph unicode="." horiz-adv-x="276" d="M206 40v56l-40 40h-56l-40 -40v-56l40 -40h56z" />
<glyph unicode="/" horiz-adv-x="283" d="M248 700h-52l-161 -820h52z" />
<glyph unicode="0" horiz-adv-x="527" d="M491 303q0 60 -15 117.5t-44 102t-71.5 71.5t-97.5 27t-97.5 -27t-71.5 -71.5t-44 -102t-15 -117.5q0 -61 15 -118.5t44 -102t71.5 -71.5t97.5 -27t97.5 27t71.5 71.5t44 102t15 118.5zM339 303q0 -47 -1 -97t-8.5 -91t-23 -67t-43.5 -26q-29 0 -44 26t-22.5 67t-8.5 91 t-1 97t1 96.5t8.5 90.5t22.5 67t44 26q28 0 43.5 -26t23 -67t8.5 -90.5t1 -96.5z" />
<glyph unicode="1" horiz-adv-x="527" d="M414 0v38h-66q-20 69 -20 140v249q0 96 20 194q-60 -8 -120.5 -12t-121.5 -4v-38h66q20 -69 20 -140v-249q0 -71 -20 -140h-66v-38h308z" />
<glyph unicode="2" horiz-adv-x="527" d="M477 457q0 37 -16.5 67t-44 51.5t-64 33.5t-75.5 12q-38 0 -72 -12.5t-59.5 -35t-41 -53t-15.5 -66.5q0 -19 10 -41h136q-16 33 -22 71q-7 42 9.5 70.5t54.5 28.5q16 0 28.5 -8.5t20.5 -22.5t12 -32t4 -36q0 -51 -12 -92t-34 -77.5t-53 -69.5t-68 -67l-111 -102v-76h360 l38 140h-38q-3 -13 -12.5 -21t-22 -12.5t-27 -6t-29.5 -2.5l-204 -14l78 59q45 33 92.5 65.5t87 69.5t65 80.5t25.5 98.5z" />
<glyph unicode="3" horiz-adv-x="527" d="M361 339q42 18 69 51.5t27 79.5q0 34 -16.5 62t-43.5 48t-62 30.5t-72 10.5q-32 0 -62 -8t-55.5 -22.5t-43.5 -35.5t-26 -47h113q0 39 18 57t56 18q21 0 34.5 -9t22 -24.5t12 -36t3.5 -43.5q0 -24 -3.5 -44.5t-12 -35.5t-22 -24t-34.5 -9h-113v-38h113q25 0 40.5 -12 t23 -32.5t10 -47.5t2.5 -57t-2.5 -56.5t-10 -47t-23 -32.5t-40.5 -12q-60 0 -89 25.5t-29 84.5h-105q8 -34 29.5 -61t51.5 -46.5t66.5 -30t75.5 -10.5q45 0 86 13.5t72.5 38t50.5 58.5t19 76q0 60 -36.5 103.5t-93.5 65.5z" />
<glyph unicode="4" horiz-adv-x="527" d="M498 216v57h-128v192q0 35 4.5 70.5t15.5 69.5h-68l-292 -313v-76h204v-38q0 -71 -20 -140h-70v-38h316v38h-70q-11 34 -15.5 69.5t-4.5 70.5v38h128zM234 273h-170l170 182v-182z" />
<glyph unicode="5" horiz-adv-x="527" d="M476 178q0 42 -17 77.5t-46.5 61.5t-68 41t-81.5 15q-44 0 -79 -29l7 103h183q29 0 48.5 19.5t19.5 48.5v106h-38q0 -22 -21 -30t-47 -8h-174l-21 -324h38q3 32 27.5 54t56.5 22q26 0 39 -13t18 -35t4.5 -50.5t-0.5 -58.5t0.5 -58t-4.5 -50t-18 -35t-39 -13 q-60 0 -91 21.5t-31 77.5h-107q0 -37 20 -63t52 -42.5t73.5 -24t83.5 -7.5q43 0 81.5 14.5t68 40.5t46.5 61.5t17 77.5z" />
<glyph unicode="6" horiz-adv-x="527" d="M483 196q0 44 -17.5 82.5t-47.5 67t-69.5 45t-84.5 16.5q-37 0 -65 -23.5t-35 -59.5q0 49 12.5 96t36.5 83t58.5 58t79.5 22q49 0 89 -26l21 32q-50 32 -110 32q-45 0 -87 -11t-80 -34q-41 -26 -70.5 -63t-48.5 -80.5t-27.5 -92.5t-8.5 -98q0 -63 32 -117.5t83 -93.5 q26 -20 56.5 -33.5t63.5 -13.5q45 0 84.5 16.5t69.5 45t47.5 67t17.5 83.5zM331 196q0 -34 0.5 -65.5t-5 -55.5t-19.5 -38.5t-43 -14.5t-43.5 14.5t-19.5 38.5t-4.5 55.5t0.5 65.5q0 33 -0.5 64.5t4.5 55.5t19.5 38.5t43.5 14.5t43 -14.5t19.5 -38.5t5 -55.5t-0.5 -64.5z " />
<glyph unicode="7" horiz-adv-x="527" d="M479 529v76h-401l-30 -212h38q2 13 3 26.5t4 24.5t9 18t18 7h266l-179 -236q-12 -17 -26.5 -36t-26.5 -38t-20 -35.5t-8 -27.5v-56l40 -40h57l39 40v56q-24 25 -34 56.5t9 57.5z" />
<glyph unicode="8" horiz-adv-x="527" d="M161 361q-55 -24 -90 -70.5t-35 -107.5q0 -43 18.5 -79.5t50 -63t72.5 -41.5t86 -15t86.5 15t73 41.5t50 63t18.5 79.5q0 61 -35 107.5t-90 70.5q32 19 52 49t20 68q0 32 -14.5 58.5t-38.5 45t-56 29t-66 10.5t-65.5 -10.5t-56 -29t-39 -45t-14.5 -58.5q0 -38 20.5 -68 t52.5 -49zM317 478q0 -21 -1.5 -40t-7 -33.5t-16.5 -23t-29 -8.5t-28.5 8.5t-16 23t-7 33.5t-1.5 40t1.5 40t7 33.5t16 23t28.5 8.5t29 -8.5t16.5 -23t7 -33.5t1.5 -40zM339 183q0 -32 -1.5 -61t-9 -51.5t-23 -35.5t-42.5 -13t-42.5 13t-22.5 35.5t-8.5 51.5t-1.5 61t1.5 61 t8.5 51.5t22.5 36t42.5 13.5t42.5 -13.5t23 -36t9 -51.5t1.5 -61z" />
<glyph unicode="9" horiz-adv-x="527" d="M499 363q0 63 -32 117.5t-83 93.5q-26 20 -56.5 33.5t-63.5 13.5q-45 0 -85 -16.5t-69.5 -45t-47 -67t-17.5 -83.5q0 -44 17.5 -82.5t47 -67t69.5 -45t85 -16.5q37 0 65 23.5t35 59.5q0 -50 -12.5 -96.5t-36.5 -82.5t-59 -58t-80 -22q-48 0 -89 26l-20 -32 q50 -32 109 -32q45 0 87.5 11t80.5 34q41 26 70.5 63t48 80.5t27.5 92t9 98.5zM331 409q0 -33 0.5 -64.5t-5 -55.5t-19.5 -38.5t-43 -14.5t-43.5 14.5t-19.5 38.5t-4.5 55.5t0.5 64.5q0 34 -0.5 65.5t4.5 55.5t19.5 38.5t43.5 14.5t43 -14.5t19.5 -38.5t5 -55.5t-0.5 -65.5z " />
<glyph unicode=":" horiz-adv-x="276" d="M206 40v56l-40 40h-56l-40 -40v-56l40 -40h56zM206 344v56l-40 40h-56l-40 -40v-56l40 -40h56z" />
<glyph unicode=";" horiz-adv-x="276" d="M206 40v56l-40 40h-56l-40 -40v-56l40 -40h45q-8 -38 -30 -71t-55 -56l19 -33q54 31 85.5 84t31.5 116zM206 344v56l-40 40h-56l-40 -40v-56l40 -40h56z" />
<glyph unicode="&#x3c;" horiz-adv-x="495" d="M460 -50v60l-378 240l378 240v60l-425 -270v-60z" />
<glyph unicode="=" horiz-adv-x="495" d="M460 326v51h-425v-51h425zM460 123v51h-425v-51h425z" />
<glyph unicode="&#x3e;" horiz-adv-x="495" d="M460 220v60l-425 270v-60l378 -240l-378 -240v-60z" />
<glyph unicode="?" horiz-adv-x="453" d="M418 560q0 35 -18 61t-48 43.5t-68 26.5t-77 9q-23 0 -47 -0.5t-46 -5.5t-39.5 -15.5t-28.5 -30.5q-8 -14 -9.5 -31t-1.5 -34h102q0 32 20 55.5t50 23.5q18 0 31.5 -8.5t23.5 -23t15 -33t5 -37.5q0 -25 -17 -44t-32 -39q-25 -32 -35 -71.5t-10 -80.5v-94h38v94 q0 28 14 48.5t35.5 37t46.5 31.5t46.5 31.5t35.5 37t14 49.5zM275 40v56l-40 40h-56l-40 -40v-56l40 -40h56z" />
<glyph unicode="@" horiz-adv-x="770" d="M735 350q0 72 -27.5 136t-75 111.5t-111.5 75t-136 27.5t-136 -27.5t-111.5 -75t-75 -111.5t-27.5 -136t27.5 -136t75 -111.5t111.5 -75t136 -27.5q73 0 136 27.5t111 75.5l-26 26q-43 -42 -99.5 -66.5t-121.5 -24.5t-121.5 24.5t-99 67t-67 99t-24.5 121.5 q0 64 24.5 121t67 99.5t99 67t121.5 24.5q64 0 121 -24.5t99.5 -67t67 -99.5t24.5 -121q0 -32 -9.5 -62t-27 -53t-42 -36.5t-54.5 -13.5q-17 0 -27 15t-10 34v192q0 64 18 126h-134q2 -8 3.5 -14.5t3.5 -14.5q-14 20 -34.5 31.5t-46.5 11.5q-39 0 -73.5 -21.5t-60 -55 t-40.5 -75.5t-15 -84q0 -40 14.5 -75.5t40 -62.5t60 -42.5t74.5 -15.5q26 0 45 13.5t31 36.5q12 -28 40.5 -39t73.5 -11q43 0 81 17t66.5 46.5t44.5 69t16 83.5zM404 312q0 -25 -1 -50.5t-6 -46.5t-16 -34t-31 -13q-37 0 -51 40.5t-14 121.5q0 25 4.5 60t13.5 66.5t22 53.5 t31 22q25 0 36.5 -23t11.5 -52v-145z" />
<glyph unicode="A" horiz-adv-x="790" d="M755 0v38h-44q-48 67 -78 140l-158 382q-29 69 -38 140h-83q-10 -71 -38 -140l-159 -382q-15 -38 -35 -72.5t-43 -67.5h-44v-38h169v38h-44q10 71 38 140l39 93h178l38 -93q28 -67 39 -140h-44v-38h307zM399 309h-146l73 177z" />
<glyph unicode="B" horiz-adv-x="685" d="M650 194q0 36 -13.5 67t-37.5 55t-55.5 40.5t-67.5 24.5q51 20 84.5 59t33.5 93q0 37 -17 68t-45.5 53t-65.5 34t-77 12h-354v-38h70q20 -69 20 -140v-344q0 -71 -20 -140h-70v-38h379q46 0 88.5 14t75.5 39.5t52.5 61.5t19.5 79zM442 525q0 -28 -4 -53t-13.5 -43.5 t-25.5 -29.5t-41 -11h-67v134q0 71 20 140h47q25 0 41 -11t25.5 -29.5t13.5 -43.5t4 -53zM480 194q0 -33 -7 -61.5t-21 -49.5t-36.5 -33t-52.5 -12h-52q-20 69 -20 140v172h72q30 0 52.5 -12t36.5 -33t21 -49.5t7 -61.5z" />
<glyph unicode="C" horiz-adv-x="722" d="M687 35v140h-38q0 -37 -18 -65.5t-48 -48.5t-68.5 -30.5t-78.5 -10.5q-56 0 -99.5 28t-73 74.5t-45 105.5t-15.5 122t15.5 122t45 105.5t73 74.5t99.5 28q40 0 78.5 -10.5t68.5 -30.5t48 -48.5t18 -65.5h38v140q-120 53 -251 53q-83 0 -158.5 -27.5t-133 -76.5 t-91.5 -116.5t-34 -147.5t34 -147.5t91.5 -116.5t133 -76.5t158.5 -27.5q131 0 251 53z" />
<glyph unicode="D" horiz-adv-x="786" d="M769 350q0 73 -29.5 137t-79.5 111.5t-116.5 74.5t-141.5 27h-367v-38h70q20 -69 20 -140v-344q0 -71 -20 -140h-70v-38h367q75 0 141.5 27t116.5 74.5t79.5 111t29.5 137.5zM585 350q0 -59 -14.5 -115.5t-42.5 -100t-69.5 -70t-94.5 -26.5h-53q-20 69 -20 140v344 q0 71 20 140h53q53 0 94.5 -26.5t69.5 -70t42.5 -100t14.5 -115.5z" />
<glyph unicode="E" horiz-adv-x="668" d="M633 0v175h-38q0 -29 -11 -53.5t-30.5 -43.5t-45 -29.5t-53.5 -10.5h-144q-20 69 -20 140v172h95q31 0 53.5 -22t22.5 -54v-13h38v216h-38v-13q0 -32 -22.5 -54t-53.5 -22h-95v134q0 71 20 140h77q29 0 54.5 -10.5t44.5 -29.5t30 -44t11 -53h38v175h-531v-38h70 q20 -69 20 -140v-344q0 -71 -20 -140h-70v-38h598z" />
<glyph unicode="F" horiz-adv-x="611" d="M576 525v175h-541v-38h70q20 -69 20 -140v-344q0 -71 -20 -140h-70v-38h346v38h-70q-20 69 -20 140v172h104q32 0 54 -22t22 -54v-13h38v216h-38v-13q0 -32 -22 -54t-54 -22h-104v134q0 71 20 140h87q28 0 53.5 -10.5t45 -29.5t30.5 -44t11 -53h38z" />
<glyph unicode="G" horiz-adv-x="807" d="M772 254v38h-306v-38h70v-203q-47 -31 -104 -31q-56 0 -99 28t-72.5 74.5t-44.5 105.5t-15 122t15 122t44.5 105.5t72.5 74.5t99 28q37 0 70.5 -11.5t59.5 -31.5t41.5 -49t15.5 -63h38v140q-106 53 -225 53q-83 0 -158 -27.5t-132 -77t-91 -117t-34 -146.5q0 -80 34 -147 t91 -116.5t132 -77t158 -27.5q76 0 145 22.5t125 64.5v185h70z" />
<glyph unicode="H" horiz-adv-x="854" d="M819 0v38h-70q-20 69 -20 140v344q0 71 20 140h70v38h-346v-38h70q20 -69 20 -140v-134h-272v134q0 71 20 140h70v38h-346v-38h70q20 -69 20 -140v-344q0 -71 -20 -140h-70v-38h346v38h-70q-20 69 -20 140v172h272v-172q0 -71 -20 -140h-70v-38h346z" />
<glyph unicode="I" horiz-adv-x="416" d="M381 0v38h-70q-20 69 -20 140v344q0 71 20 140h70v38h-346v-38h70q20 -69 20 -140v-344q0 -71 -20 -140h-70v-38h346z" />
<glyph unicode="J" horiz-adv-x="543" d="M508 662v38h-346v-38h70q20 -69 20 -140v-449q0 -20 -8.5 -36.5t-25.5 -16.5q-18 0 -26.5 16.5t-8.5 36.5v52h-166q0 -38 15.5 -65.5t42.5 -44.5t64 -25t79 -8t78.5 8t63.5 25t42.5 44.5t15.5 65.5v397q0 71 20 140h70z" />
<glyph unicode="K" horiz-adv-x="776" d="M741 -18v38h-38q-17 0 -25.5 10t-12.5 26t-4.5 35.5t-1.5 38.5l-8 108q-3 38 -21 69t-46 53.5t-65 37.5t-77 22q38 23 65 59q15 21 25.5 44.5t20.5 47.5q7 17 16 33.5t21 29t26.5 20.5t32.5 8h35v38h-211v-38h53l-17 -73q-5 -23 -12 -45t-21 -42q-26 -39 -68 -57.5 t-89 -18.5h-28v96q0 71 20 140h70v38h-346v-38h70q20 -69 20 -140v-344q0 -71 -20 -140h-70v-38h346v38h-70q-20 69 -20 140v210h83q24 0 43.5 -11.5t33.5 -30t22 -43t10 -50.5l10 -136q2 -28 13.5 -52.5t30 -43t42.5 -29t51 -10.5h111z" />
<glyph unicode="L" horiz-adv-x="651" d="M616 0v175h-38q0 -29 -11 -53.5t-30.5 -43.5t-45 -29.5t-53.5 -10.5h-127q-20 69 -20 140v344q0 71 20 140h70v38h-346v-38h70q20 -69 20 -140v-344q0 -71 -20 -140h-70v-38h581z" />
<glyph unicode="M" horiz-adv-x="910" d="M875 0v38h-70q-20 69 -20 140v344q0 71 20 140h70v38h-276q-4 -36 -12.5 -71t-21.5 -69l-105 -273l-104 273q-25 67 -33 140h-288v-38h70q20 -69 20 -140v-344q0 -71 -20 -140h-70v-38h218v38h-70q-20 69 -20 140v344q0 17 1 33.5t3 33.5l172 -449q25 -67 33 -140h38 q4 36 12.5 71t21.5 69l171 444q2 -15 3 -30.5t1 -31.5v-344q0 -71 -20 -140h-70v-38h346z" />
<glyph unicode="N" horiz-adv-x="834" d="M799 662v38h-218v-38h70q20 -69 20 -140v-300l-242 338q-47 67 -80 140h-314v-38h70q20 -69 20 -140v-344q0 -71 -20 -140h-70v-38h218v38h-70q-20 69 -20 140v344q0 55 12 108l451 -630h83v522q0 35 4.5 70.5t15.5 69.5h70z" />
<glyph unicode="O" horiz-adv-x="815" d="M798 350q0 78 -31.5 145t-84.5 116.5t-124.5 78t-150.5 28.5t-150 -28.5t-124 -78t-84.5 -116.5t-31.5 -145t31.5 -145t84.5 -116.5t124 -78t150 -28.5t150.5 28.5t124.5 78t84.5 116.5t31.5 145zM614 350q0 -61 -12 -120.5t-37.5 -106t-64.5 -75t-93 -28.5t-92.5 28.5 t-64 75t-37.5 106t-12 120.5t12 120.5t37.5 106t64 75t92.5 28.5t93 -28.5t64.5 -75t37.5 -106t12 -120.5z" />
<glyph unicode="P" horiz-adv-x="635" d="M600 497q0 40 -12.5 77t-35.5 65t-55 44.5t-70 16.5h-392v-38h70q20 -69 20 -140v-344q0 -71 -20 -140h-70v-38h346v38h-70q-20 69 -20 140v115h136q38 0 70 16.5t55 45t35.5 65t12.5 77.5zM448 497q0 -35 -5 -65t-17.5 -52.5t-32.5 -35.5t-50 -13h-52v191q0 71 20 140 h32q30 0 50 -13t32.5 -35.5t17.5 -52.5t5 -64z" />
<glyph unicode="Q" horiz-adv-x="815" d="M798 350q0 78 -31.5 145t-84.5 116.5t-124.5 78t-150.5 28.5t-150 -28.5t-124 -78t-84.5 -116.5t-31.5 -145q0 -74 28 -138t76 -112.5t112.5 -79.5t138.5 -37q17 -11 31.5 -28t27.5 -34q10 -15 22 -29t25 -25t28.5 -18t33.5 -7h166q49 0 85 34v38h-19q-36 -34 -85 -34 q-20 0 -37 8t-33 20t-31 25.5t-31 25.5q-15 11 -31 18.5t-33 12.5q65 13 121 46t97.5 80.5t65 107t23.5 126.5zM614 350q0 -61 -12 -120.5t-37.5 -106t-64.5 -75t-93 -28.5t-92.5 28.5t-64 75t-37.5 106t-12 120.5t12 120.5t37.5 106t64 75t92.5 28.5t93 -28.5t64.5 -75 t37.5 -106t12 -120.5z" />
<glyph unicode="R" horiz-adv-x="768" d="M733 -18v38h-38q-16 0 -25.5 9t-15.5 23t-9 31.5t-4 34.5l-9 111q-5 54 -41 87t-90 50q47 20 77 62.5t30 96.5q0 37 -14.5 69t-39.5 55.5t-58 37t-70 13.5h-391v-38h70q20 -69 20 -140v-344q0 -71 -20 -140h-70v-38h346v38h-70q-20 69 -20 140v172h38q27 0 50.5 -9.5 t42 -26t30.5 -39t14 -48.5l10 -122q2 -27 14.5 -49.5t32.5 -39t45.5 -25.5t53.5 -9h111zM456 525q0 -59 -26 -98t-79 -39h-60v134q0 71 20 140h40q27 0 46.5 -10.5t32.5 -29t19.5 -43.5t6.5 -54z" />
<glyph unicode="S" horiz-adv-x="606" d="M589 209q0 49 -22 88.5t-58.5 70.5t-83 53.5t-95.5 37.5q-27 8 -55 17t-50.5 21.5t-37 30.5t-14.5 44q0 24 10.5 44t28.5 34t41.5 22t49.5 8q34 0 65.5 -11.5t55.5 -32.5t38 -49.5t14 -61.5h38v140q-98 53 -211 53q-49 0 -94 -16t-79 -44.5t-54.5 -67.5t-20.5 -86 q0 -42 18.5 -77t49 -63t70.5 -48t83 -33q34 -10 68.5 -21t62.5 -27t46 -38.5t18 -55.5q0 -29 -14.5 -51.5t-38 -38t-53.5 -23.5t-62 -8q-43 0 -84.5 9.5t-73.5 29t-52 48.5t-20 68h-38v-140q129 -53 268 -53q55 0 107 16t91.5 45.5t63.5 71.5t24 94z" />
<glyph unicode="T" horiz-adv-x="734" d="M699 525v175h-664v-175h38q0 28 11 53t30 44t44.5 29.5t54.5 10.5h51q20 -69 20 -140v-344q0 -71 -20 -140h-70v-38h346v38h-70q-11 34 -15.5 69.5t-4.5 70.5v344q0 35 4.5 70.5t15.5 69.5h51q28 0 53.5 -10.5t45 -29.5t30.5 -44t11 -53h38z" />
<glyph unicode="U" horiz-adv-x="803" d="M768 662v38h-218v-38h70q20 -69 20 -140v-344q0 -36 -16.5 -64.5t-44 -49t-63 -31.5t-73.5 -11q-71 0 -111.5 42t-40.5 114v344q0 71 20 140h70v38h-346v-38h70q20 -69 20 -140v-344q0 -52 21.5 -89t58.5 -60t87.5 -34t109.5 -11q58 0 108.5 11t87.5 34t58.5 60t21.5 89 v344q0 71 20 140h70z" />
<glyph unicode="V" horiz-adv-x="803" d="M768 662v38h-220v-38h70q-6 -73 -30 -140l-119 -334l-118 334q-24 67 -30 140h70v38h-356v-38h70q42 -64 70 -140l122 -344q15 -44 26 -88t17 -90h123q6 46 17 90t26 88l122 344q28 76 70 140h70z" />
<glyph unicode="W" horiz-adv-x="1243" d="M1208 662v38h-221v-38h70q-4 -71 -29 -140l-119 -334l-118 334q-24 67 -30 140h70v38h-356v-38h70q33 -50 55 -102q-3 -10 -6 -19.5t-6 -18.5l-119 -334l-118 334q-24 67 -30 140h70v38h-356v-38h70q42 -64 70 -140l122 -344q15 -44 26 -88t17 -90h123q6 46 17 90t26 88 l115 325l116 -325q15 -44 26 -88t17 -90h123q6 46 17 90t26 88l122 344q28 76 70 140h70z" />
<glyph unicode="X" horiz-adv-x="806" d="M771 0v38h-70q-31 32 -58 67t-51 73l-143 271l46 73q24 38 51 73t58 67h70v38h-225v-38h70q-27 -75 -69 -140l-22 -35l-18 35q-42 65 -69 140h70v38h-376v-38h70q31 -32 58 -67t51 -73l107 -204l-88 -140q-24 -38 -51 -73t-58 -67h-70v-38h225v38h-70q27 73 68 140 l65 102l54 -102q41 -67 68 -140h-70v-38h377z" />
<glyph unicode="Y" horiz-adv-x="806" d="M771 662v38h-237v-38h70q0 -19 -3 -38t-11 -36q-8 -20 -22.5 -37.5t-28.5 -34.5q-47 -59 -72 -135l-6 22t-7 22q-20 57 -50.5 108.5t-62.5 102.5q-6 8 -2 17t14 9h70v38h-388v-38h47q90 -67 152 -163q39 -60 62.5 -127t23.5 -139v-55q0 -71 -20 -140h-70v-38h346v38h-70 q-11 34 -15.5 69.5t-4.5 70.5v55q0 57 16 110.5t42 104.5q66 125 174 214h53z" />
<glyph unicode="Z" horiz-adv-x="691" d="M656 0v175h-38q0 -29 -11 -53.5t-30 -43.5t-44.5 -29.5t-54.5 -10.5h-198q5 7 9 13.5t7 14.5l247 494q23 48 75 64v76h-545v-175h38q0 28 11 53t30 44t44.5 29.5t54.5 10.5h161q-5 -7 -9 -13.5t-8 -14.5l-247 -494q-16 -32 -47 -49.5t-66 -14.5v-76h621z" />
<glyph unicode="[" horiz-adv-x="266" d="M231 -250v38h-105v924h105v38h-196v-1000h196z" />
<glyph unicode="\" horiz-adv-x="283" d="M248 -120l-161 820h-52l161 -820h52z" />
<glyph unicode="]" horiz-adv-x="266" d="M231 -250v1000h-196v-38h105v-924h-105v-38h196z" />
<glyph unicode="^" horiz-adv-x="420" d="M392 350l-154 350h-56l-154 -350h55l127 287l127 -287h55z" />
<glyph unicode="_" horiz-adv-x="420" d="M420 -120v51h-420v-51h420z" />
<glyph unicode="`" d="M302 535q-31 33 -47 74.5t-16 86.5h-116v-34l117 -127h62z" />
<glyph unicode="a" horiz-adv-x="555" d="M520 0v38q-23 0 -43.5 6t-20.5 26v238q0 35 -17 62.5t-44.5 46.5t-63.5 29t-74 10q-37 0 -72.5 -7.5t-63.5 -23t-45 -39t-17 -56.5h136q0 34 16 61t46 27q28 0 45.5 -21.5t17.5 -50.5v-102q-43 38 -101 38q-38 0 -74 -10t-64 -29t-45 -47t-17 -63t17 -62.5t45 -47 t64 -29.5t74 -10q67 0 116 43q17 -15 44.5 -21t56.5 -6h84zM320 63q-12 -20 -32 -30.5t-43 -10.5q-18 0 -32 9.5t-23.5 25.5t-14 35.5t-4.5 40.5t4.5 41t14 35.5t23.5 25t32 9.5q23 0 42 -10t33 -28v-143z" />
<glyph unicode="b" horiz-adv-x="634" d="M599 220q0 55 -17 98.5t-48.5 74t-76 47t-99.5 16.5q-36 0 -68 -15t-55 -42v123q0 96 20 194q-55 -8 -109.5 -12t-110.5 -4v-38h44q20 -69 20 -140v-344q0 -71 -20 -140h-44v-38q54 0 107 -4t106 -12l-8 44q23 -20 53 -32t65 -12q55 0 99.5 16.5t76 47t48.5 74t17 98.5z M447 220q0 -40 -3.5 -76t-14 -63t-31 -43t-54.5 -16q-22 0 -42 8t-35 21.5t-23.5 32.5t-8.5 40v238q14 26 40 41t55 15q35 0 58 -16t36 -43t18 -63t5 -76z" />
<glyph unicode="c" horiz-adv-x="544" d="M509 60v70h-38q0 -29 -15.5 -49t-40 -33.5t-56 -19.5t-63.5 -6q-35 0 -56 16t-33 43t-16 63t-4 76t4 76t16 63t33 43t56 16q36 0 60 -27t24 -64h91v93q-83 36 -175 36q-53 0 -100 -18t-83 -49.5t-57 -74.5t-21 -94t21 -94t57 -74.5t83 -49.5t100 -18q59 0 113.5 19.5 t99.5 56.5z" />
<glyph unicode="d" horiz-adv-x="625" d="M590 0v38h-44q-20 69 -20 140v344q0 96 20 194q-55 -8 -109.5 -12t-110.5 -4v-38h44q20 -69 20 -140l-1 -123q-22 27 -53 42t-66 15q-54 0 -97.5 -16.5t-74 -47t-47 -74.5t-16.5 -98t16.5 -98t47 -74.5t74 -47t97.5 -16.5q34 0 63.5 12t51.5 33l-8 -45q54 8 106.5 12 t106.5 4zM389 124q0 -20 -7 -38.5t-19 -32.5t-29 -22.5t-37 -8.5q-35 0 -56.5 16t-33.5 43t-16 63t-4 76q0 39 2.5 75t12 63.5t29 43.5t53.5 16q32 0 59.5 -15t45.5 -41v-238z" />
<glyph unicode="e" horiz-adv-x="554" d="M535 250q0 46 -21 84t-55.5 65t-79.5 42t-94 15q-51 0 -96.5 -18t-79.5 -50t-54 -75t-20 -93t20 -93t54 -75t79.5 -50t96.5 -18q65 0 125 22.5t109 65.5v38h-19q-39 -38 -89 -58t-104 -20q-31 0 -53.5 16.5t-37.5 43t-22 60t-7 68.5v30h348zM383 288h-194q2 28 7.5 51.5 t16.5 41t28.5 27.5t43.5 10q25 0 43.5 -10t30.5 -27.5t18 -41t6 -51.5z" />
<glyph unicode="f" horiz-adv-x="363" d="M409 613q0 25 -12.5 44.5t-33.5 32.5t-47.5 19.5t-54.5 6.5q-40 0 -70 -20.5t-50.5 -53.5t-31 -76t-10.5 -88v-38h-64v-38h64v-224q0 -71 -20 -140h-44v-38h293v38h-73q-20 69 -20 140v224h93v38h-93q0 22 -2.5 43.5t-5.5 42.5q-3 22 -5.5 43.5t-2.5 43.5q0 24 10.5 44.5 t31.5 20.5t28 -21t7 -44h113z" />
<glyph unicode="g" horiz-adv-x="570" d="M535 -89q0 45 -19 70.5t-53 38t-79.5 15.5t-98.5 3q-63 0 -93 27.5t-30 89.5q11 -32 38 -51t60 -19q44 0 84.5 13.5t72 38t50 58.5t18.5 76t-19.5 76.5t-52.5 59.5q59 -6 122 -18v51h-183q-46 16 -92 16q-112 0 -168.5 -61t-56.5 -175q0 -113 66 -166.5t184 -53.5 q55 0 89 -19.5t34 -69.5q0 -21 -10.5 -38t-28 -28t-39.5 -17t-45 -6q-24 0 -48.5 2.5t-44 9.5t-31.5 20t-12 34q0 26 20 43h33v38h-167v-42q0 -40 22 -67t57.5 -44t80 -24.5t90.5 -7.5q45 0 89.5 5.5t80.5 19.5t58 38.5t22 63.5zM333 271q0 -30 -2 -56.5t-9.5 -47t-22 -32.5 t-39.5 -12t-39.5 12t-22 32.5t-9.5 47t-2 56.5q0 29 2 55.5t9.5 47t22 32.5t39.5 12t39.5 -12t22 -32.5t9.5 -47t2 -55.5z" />
<glyph unicode="h" horiz-adv-x="640" d="M605 0v38h-44q-11 34 -15.5 69.5t-4.5 70.5v199q-23 40 -65 59.5t-88 19.5t-86.5 -20.5t-66.5 -58.5v145q0 96 20 194q-55 -8 -109.5 -12t-110.5 -4v-38h44q20 -69 20 -140v-344q0 -71 -20 -140h-44v-38h264v38h-44q-20 69 -20 140v134q8 17 19.5 32t25.5 28t30.5 22 t36.5 9q23 0 40.5 -13.5t17.5 -34.5v-177q0 -71 -20 -140h-44v-38h264z" />
<glyph unicode="i" horiz-adv-x="334" d="M299 0v38h-44q-20 69 -20 140v84q0 96 20 194q-55 -8 -109.5 -12t-110.5 -4v-38h44q20 -69 20 -140v-84q0 -71 -20 -140h-44v-38h264zM235 558v56l-40 40h-56l-40 -40v-56l40 -40h56z" />
<glyph unicode="j" horiz-adv-x="334" d="M299 402v38h-264v-38h44q20 -69 20 -140v-359q0 -18 -0.5 -37t-4.5 -34t-12 -24.5t-24 -9.5q-17 0 -19 18.5t-2 38.5h-68q0 -18 4.5 -35t13.5 -30.5t21.5 -21.5t28.5 -8q44 0 80.5 20t62.5 53t40.5 76.5t14.5 90.5v262q0 71 20 140h44zM235 558v56l-40 40h-56l-40 -40 v-56l40 -40h56z" />
<glyph unicode="k" horiz-adv-x="609" d="M574 0v38h-38q-17 0 -26.5 10t-14 25.5t-6 35t-2.5 38.5q-3 32 -16 55t-34.5 38t-50 23t-61.5 10q16 14 29.5 28.5t27.5 30.5q26 31 52.5 50.5t66.5 19.5h22v38h-196v-38h44q0 -19 -10.5 -34.5t-23.5 -29.5q-21 -23 -45.5 -43.5t-56.5 -20.5v248q0 96 20 194 q-55 -8 -109.5 -12t-110.5 -4v-38h44q20 -69 20 -140v-344q0 -71 -20 -140h-44v-38h264v38h-44q-20 69 -20 140v58h68q15 0 24 -8.5t14 -22t7 -30.5t3 -33q0 -12 2 -24l4 -24q4 -18 10.5 -34.5t16.5 -30t23.5 -21.5t30.5 -8h136z" />
<glyph unicode="l" horiz-adv-x="334" d="M299 0v38h-44q-20 69 -20 140v344q0 96 20 194q-55 -8 -109.5 -12t-110.5 -4v-38h44q20 -69 20 -140v-344q0 -71 -20 -140h-44v-38h264z" />
<glyph unicode="m" horiz-adv-x="920" d="M883 0v38h-44q-20 69 -20 140v199q-23 38 -62 58.5t-84 20.5t-83.5 -21t-62.5 -58q-23 38 -62 58.5t-84 20.5t-83.5 -21t-62.5 -58l20 79q-55 -8 -109.5 -12t-110.5 -4v-38h44q20 -69 20 -140v-84q0 -71 -20 -140h-44v-38h264v38h-44q-20 69 -20 140v130q16 36 44 65 q13 13 28.5 22.5t34.5 9.5q20 0 34.5 -15t14.5 -35v-177q0 -71 -20 -140h-44v-38h264v38h-44q-20 69 -20 140v130q16 36 44 65q13 13 28.5 22.5t34.5 9.5q20 0 34.5 -15t14.5 -35v-177q0 -71 -20 -140h-44v-38h264z" />
<glyph unicode="n" horiz-adv-x="627" d="M592 0v38h-44q-11 34 -15.5 69.5t-4.5 70.5v199q-23 38 -62.5 58.5t-84.5 20.5t-83.5 -21t-62.5 -58l20 79q-55 -8 -109.5 -12t-110.5 -4v-38h44q20 -69 20 -140v-84q0 -71 -20 -140h-44v-38h264v38h-44q-20 69 -20 140v130q16 36 44 65q14 13 29.5 22.5t33.5 9.5 q20 0 35 -14.5t15 -35.5v-177q0 -71 -20 -140h-44v-38h264z" />
<glyph unicode="o" horiz-adv-x="592" d="M557 220q0 51 -21 94t-57 74.5t-83.5 49.5t-99.5 18q-53 0 -100 -18t-83 -49.5t-57 -74.5t-21 -94t21 -94t57 -74.5t83 -49.5t100 -18q52 0 99.5 18t83.5 49.5t57 74.5t21 94zM405 220q0 -40 -4 -76t-16 -63t-33.5 -43t-55.5 -16q-35 0 -56 16t-33 43t-16 63t-4 76t4 76 t16 63t33 43t56 16q34 0 55.5 -16t33.5 -43t16 -63t4 -76z" />
<glyph unicode="p" horiz-adv-x="625" d="M590 220q0 54 -16.5 98t-47 74.5t-74 47t-97.5 16.5q-41 0 -75.5 -17.5t-55.5 -46.5q2 17 4.5 32.5t6.5 31.5q-50 -8 -99.5 -12t-100.5 -4v-38h44q20 -69 20 -140v-300q0 -71 -20 -140h-44v-38h264v38h-44q-20 69 -20 140l1 79q22 -27 53 -42t66 -15q54 0 97.5 16.5 t74 47t47 74.5t16.5 98zM438 220q0 -40 -4.5 -76t-16.5 -63t-33.5 -43t-55.5 -16q-29 0 -53.5 15t-38.5 41v238q0 21 8.5 40t23 32.5t33.5 21.5t41 8q34 0 53 -16t28.5 -43.5t12 -63.5t2.5 -75z" />
<glyph unicode="q" horiz-adv-x="634" d="M599 -216v38h-44q-11 34 -15.5 69.5t-4.5 70.5v300q0 35 4.5 70.5t15.5 69.5h44v38q-51 0 -100.5 4t-99.5 12q3 -16 6 -31t5 -31q-23 29 -58 45.5t-76 16.5q-55 0 -99.5 -16.5t-76 -47t-48.5 -74t-17 -98.5t17 -98.5t48.5 -74t76 -47t99.5 -16.5q35 0 67.5 15t55.5 42 v-79q0 -71 -20 -140h-44v-38h264zM399 78q-19 -26 -48 -41t-61 -15q-34 0 -54.5 16t-31 43t-14 63t-3.5 76t5 76t18 63t35.5 43t57.5 16q20 0 37.5 -8t30.5 -22t20.5 -32.5t7.5 -39.5v-238z" />
<glyph unicode="r" horiz-adv-x="484" d="M465 330v22q0 22 -9.5 41t-25 33t-36.5 22t-44 8q-16 0 -34 -6.5t-34 -18t-28.5 -25.5t-18.5 -29l20 79q-55 -8 -109.5 -12t-110.5 -4v-38h44q20 -69 20 -140v-84q0 -71 -20 -140h-44v-38h286v38h-66q-20 69 -20 140v44q0 32 4 63.5t14.5 57t28.5 41t46 15.5 q10 0 15 -6.5t7 -16.5t1.5 -22t-0.5 -24h114z" />
<glyph unicode="s" horiz-adv-x="461" d="M442 147q0 35 -17 62t-45 46.5t-63 32.5t-72 20q-17 3 -34 5.5t-31 8t-23 14.5t-9 24q0 29 25.5 43.5t57.5 14.5q23 0 44.5 -6.5t38 -18t26.5 -28.5t10 -38h38v93q-74 36 -157 36q-34 0 -64.5 -11t-54 -30.5t-37.5 -46t-14 -58.5q0 -30 12.5 -55t34 -44.5t49.5 -32.5 t59 -19q21 -4 43.5 -8t41 -11t30 -19t11.5 -32q0 -18 -10 -30.5t-25.5 -21t-35.5 -12t-40 -3.5q-31 0 -59.5 8.5t-50.5 24.5t-35 38.5t-13 50.5h-38v-124q93 -36 196 -36q41 0 79 11.5t67.5 32.5t47 51t17.5 68z" />
<glyph unicode="t" horiz-adv-x="363" d="M328 10v38h-19q-22 -10 -43 -10q-25 0 -38 23t-13 51v290h113v38h-113v123h-68q0 -32 -19 -57t-49 -25v-41h-44v-38h44v-330q0 -25 10.5 -41.5t29 -27t43.5 -15t53 -4.5q59 0 113 26z" />
<glyph unicode="u" horiz-adv-x="640" d="M605 0v38h-44q-11 34 -15.5 69.5t-4.5 70.5v84q0 49 4.5 97.5t15.5 96.5q-55 -8 -110 -12t-110 -4v-38h44q20 -69 20 -140v-134q-17 -33 -45 -60q-14 -13 -31 -22t-37 -9q-23 0 -40 13.5t-17 34.5v177q0 96 20 194q-55 -8 -109.5 -12t-110.5 -4v-38h44q20 -69 20 -140 v-199q23 -40 64.5 -59.5t88.5 -19.5q45 0 85.5 20.5t67.5 58.5l-20 -79q54 8 109 12t111 4z" />
<glyph unicode="v" horiz-adv-x="630" d="M595 402v38h-185v-38h59q-7 -36 -17.5 -71t-25.5 -69l-57 -126l-57 126q-16 34 -26.5 69t-17.5 71h59v38h-292v-38h44q50 -65 83 -140l38 -84q20 -43 35 -87.5t26 -90.5h108q11 46 26 90.5t34 87.5l38 84q35 76 84 140h44z" />
<glyph unicode="w" horiz-adv-x="886" d="M851 402v38h-197v-38h44q49 -63 60 -140q7 -45 1.5 -88t-22.5 -76.5t-45 -54.5t-67 -21q-24 0 -45 9.5t-21 31.5v199q0 96 20 194q-55 -8 -109.5 -12t-110.5 -4v-38h44q20 -69 20 -140v-138q-16 -31 -45 -55q-17 -13 -36 -21t-40 -8q-25 0 -46 11t-21 34v177q0 96 20 194 q-55 -8 -109.5 -12t-110.5 -4v-38h44q20 -69 20 -140v-199q24 -42 68.5 -60.5t93.5 -18.5q48 0 90.5 20.5t71.5 58.5v-63h136q31 -16 66 -16q48 0 85.5 23.5t62.5 62.5t34.5 89t2.5 103q-11 74 19 140h22z" />
<glyph unicode="x" horiz-adv-x="657" d="M622 0v38h-44q-36 32 -68.5 67t-61.5 73l-66 83q59 75 131 141h66v38h-198v-38h44q-30 -58 -67 -109q-18 26 -35 53t-31 56h44v38h-301v-38h44q35 -32 67.5 -67t62.5 -73l63 -80q-32 -41 -65 -76.5t-68 -67.5h-66v-38h198v38h-44q29 57 69 112q40 -55 69 -112h-44v-38 h301z" />
<glyph unicode="y" horiz-adv-x="606" d="M571 456q-55 -8 -110 -12t-110 -4v-38h44q20 -69 20 -140v-128q-18 -34 -46 -57q-15 -14 -33 -22t-38 -8q-24 0 -43.5 12t-19.5 34v169q0 96 20 194q-55 -8 -109.5 -12t-110.5 -4v-38h44q20 -69 20 -140v-191q13 -23 32.5 -38.5t42.5 -25.5q-27 -11 -52 -24t-44.5 -29.5 t-31 -37.5t-11.5 -48q0 -28 15 -48.5t39 -33.5t55 -19.5t63 -6.5q70 0 132.5 25.5t109.5 69.5t74.5 104t27.5 129v174q0 49 4.5 97.5t15.5 96.5zM415 71q0 -35 1 -71.5t-4.5 -69t-20 -59t-44.5 -41.5q-67 -32 -140 -32q-32 0 -56.5 19.5t-24.5 50.5q0 43 24 78t63 50 q19 -4 44 -4q47 0 88 20.5t70 58.5z" />
<glyph unicode="z" horiz-adv-x="499" d="M464 0v140h-38q0 -24 -12 -43t-31.5 -32t-44.5 -20t-52 -7h-55l4 6l144 291q10 20 27.5 32.5t38.5 15.5v57h-391v-140h38q0 24 12 43t31.5 32t44.5 20t52 7h29q-2 -4 -4 -6l-144 -291q-11 -23 -32 -35.5t-46 -12.5v-57h429z" />
<glyph unicode="{" horiz-adv-x="342" d="M307 -250v38q-23 0 -39.5 11.5t-28 31t-17 43.5t-5.5 50v171q0 51 -27.5 92t-71.5 63q44 22 71.5 63t27.5 92v171q0 25 5.5 49.5t17 44t28 31t39.5 11.5v38q-37 0 -69.5 -13.5t-57 -37t-39 -55.5t-14.5 -68v-171q0 -26 -6 -50t-17.5 -43.5t-28.5 -31t-40 -11.5v-38 q23 0 40 -11.5t28.5 -31t17.5 -44t6 -49.5v-171q0 -36 14.5 -68t39 -55.5t57 -37t69.5 -13.5z" />
<glyph unicode="|" horiz-adv-x="527" d="M289 0v700h-51v-700h51z" />
<glyph unicode="}" horiz-adv-x="342" d="M307 231v38q-23 0 -39.5 11.5t-28 31t-17 43.5t-5.5 50v171q0 37 -14.5 68.5t-39.5 55t-58 37t-70 13.5v-38q23 0 40 -11.5t28.5 -31t17.5 -44t6 -49.5v-171q0 -51 27 -92t71 -63q-44 -22 -71 -63t-27 -92v-171q0 -26 -6 -50t-17.5 -43.5t-28.5 -31t-40 -11.5v-38 q37 0 70 13.5t58 37t39.5 55t14.5 68.5v171q0 25 5.5 49.5t17 44t28 31t39.5 11.5z" />
<glyph unicode="~" horiz-adv-x="410" d="M375 308h-38q-30 -12 -64 -12q-35 0 -68 6t-68 6q-20 0 -38.5 -6.5t-32.5 -18.5t-22.5 -28t-8.5 -35h38q30 12 64 12q35 0 68 -6t68 -6q20 0 38.5 6.5t32.5 18.5t22.5 28t8.5 35z" />
<glyph horiz-adv-x="1033" d="M998 0v175h-38q0 -29 -11 -53.5t-30 -43.5t-44.5 -29.5t-54.5 -10.5h-143q-11 34 -15.5 69.5t-4.5 70.5v172h94q32 0 54 -22t22 -54v-13h38v216h-38v-13q0 -32 -22 -54t-54 -22h-94v134q0 35 4.5 70.5t15.5 69.5h77q28 0 53.5 -10.5t45 -29.5t30.5 -44t11 -53h38v175 h-386q-57 18 -121 18q-79 0 -150 -28.5t-124 -78t-84.5 -116.5t-31.5 -145t31.5 -145t84.5 -116.5t124 -78t150 -28.5q64 0 121 18h452zM491 178q0 -28 -1.5 -56t-7.5 -50.5t-19.5 -37t-37.5 -14.5q-54 0 -92.5 28.5t-64 75t-37.5 106t-12 120.5t12 120.5t37.5 106t64 75 t92.5 28.5q24 0 37.5 -14.5t19.5 -37t7.5 -50.5t1.5 -56v-344z" />
<glyph horiz-adv-x="971" d="M936 250q0 46 -20.5 84t-55 65t-80 42t-94.5 15q-57 0 -106.5 -22.5t-84.5 -61.5q-36 39 -88 61.5t-111 22.5q-53 0 -100 -18t-83 -49.5t-57 -74.5t-21 -94t21 -94t57 -74.5t83 -49.5t100 -18q59 0 111 22.5t88 61.5q35 -39 84.5 -61.5t106.5 -22.5q65 0 125.5 22.5 t108.5 65.5v38h-19q-38 -38 -88 -58t-104 -20q-31 0 -53.5 16.5t-37.5 43t-22 60t-7 68.5v30h347zM405 220q0 -40 -4 -76t-16 -63t-33.5 -43t-55.5 -16q-35 0 -56 16t-33 43t-16 63t-4 76t4 76t16 63t33 43t56 16q34 0 55.5 -16t33.5 -43t16 -63t4 -76zM784 288h-193 q2 28 7.5 51.5t16 41t28 27.5t43.5 10q51 0 74.5 -37t23.5 -93z" />
<glyph unicode="&#xa1;" horiz-adv-x="238" d="M35 -124h168q-10 45 -18 89t-14 89l-33 250h-38l-33 -250q-6 -45 -14 -89t-18 -89zM187 480v56l-40 40h-56l-40 -40v-56l40 -40h56z" />
<glyph unicode="&#xa2;" horiz-adv-x="453" d="M35 16q0 -35 18 -61t47.5 -43.5t67.5 -26.5t77 -9q23 0 47 0.5t46 5.5t39.5 15.5t28.5 30.5q8 14 9.5 31t1.5 34h-102q0 -32 -19.5 -55.5t-50.5 -23.5q-18 0 -31.5 8.5t-23 23t-14.5 32.5t-5 38q0 25 16.5 44t31.5 39q25 32 35 71.5t10 80.5v94h-38v-94q0 -28 -14 -48.5 t-35.5 -37t-46 -31.5t-46 -31.5t-35.5 -37.5t-14 -49zM313 480v56l-40 40h-56l-40 -40v-56l40 -40h56z" />
<glyph unicode="&#xa4;" horiz-adv-x="495" d="M416 118l-41 40q14 20 21.5 43t7.5 49t-7.5 49t-21.5 43l41 40l-36 36l-41 -41q-41 30 -91 30q-51 0 -92 -30l-41 41l-36 -36l41 -40q-14 -20 -21.5 -43t-7.5 -49t7.5 -49t21.5 -43l-41 -40l36 -36l41 41q41 -30 92 -30q50 0 91 30l41 -41zM354 250q0 -22 -8.5 -41.5 t-23 -33.5t-33.5 -22.5t-41 -8.5t-41.5 8.5t-34 22.5t-23 33.5t-8.5 41.5t8.5 41.5t23 33.5t34 22.5t41.5 8.5t41 -8.5t33.5 -22.5t23 -33.5t8.5 -41.5z" />
<glyph unicode="&#xa6;" horiz-adv-x="675" d="M677 606l-36 36l-108 -108q-40 33 -89.5 52t-105.5 19q-63 0 -118 -23.5t-96.5 -64.5t-65 -96t-23.5 -118q0 -57 19 -106.5t52 -89.5l-108 -108l36 -36l108 108q40 -33 89.5 -52t106.5 -19q63 0 118 23.5t96 65t64.5 96.5t23.5 118q0 56 -19 105.5t-52 89.5zM589 303 q0 -53 -19.5 -98.5t-53.5 -80t-80 -54t-98 -19.5q-46 0 -86.5 15t-73.5 41l355 355q26 -33 41 -73.5t15 -85.5zM497 498l-355 -355q-26 33 -41 73.5t-15 86.5q0 52 19.5 98t54 80t80 53.5t98.5 19.5q45 0 85.5 -15t73.5 -41z" />
<glyph unicode="&#xa7;" horiz-adv-x="529" d="M494 140q0 38 -13 73t-33 67q-35 57 -82 103t-101 84q-17 11 -33 23.5t-29.5 26.5t-21.5 30t-8 36q0 22 12 37q56 42 125 42q33 0 50.5 -29t17.5 -65h116q0 35 -14 60t-39 41t-58.5 23.5t-72.5 7.5h-12t-13 -1q-36 -4 -69 -16.5t-56 -33.5q-58 -44 -91.5 -115.5 t-33.5 -153.5q0 -38 13 -73t33 -67q35 -57 82 -103t102 -84q16 -11 32.5 -23.5t29.5 -26.5t21 -30.5t8 -35.5q0 -22 -12 -37q-56 -42 -125 -42q-33 0 -50.5 29t-17.5 65h-116q0 -35 14 -60t39 -41t58.5 -23.5t72.5 -7.5h12q7 0 13 1q36 4 69 16.5t56 33.5q58 44 91.5 115.5 t33.5 153.5zM417 140q20 -40 17 -82.5t-23 -80.5q-3 48 -26 90.5t-54 80.5q-35 42 -73.5 79t-78.5 74q-19 17 -37 36.5t-30 42.5q-20 40 -17 82.5t23 80.5q3 -48 26 -90.5t54 -80.5q35 -42 73.5 -79t78.5 -74q19 -17 37 -36.5t30 -42.5z" />
<glyph unicode="&#xa8;" d="M146 558v56l-40 40h-56l-40 -40v-56l40 -40h56zM416 558v56l-40 40h-56l-40 -40v-56l40 -40h56z" />
<glyph unicode="&#xa9;" horiz-adv-x="770" d="M735 350q0 72 -27.5 136t-75 111.5t-111.5 75t-136 27.5t-136 -27.5t-111.5 -75t-75 -111.5t-27.5 -136t27.5 -136t75 -111.5t111.5 -75t136 -27.5t136 27.5t111.5 75t75 111.5t27.5 136zM684 350q0 -62 -23.5 -116.5t-64 -95t-95 -64t-116.5 -23.5t-116.5 23.5t-95 64 t-64 95t-23.5 116.5t23.5 116.5t64 95t95 64t116.5 23.5t116.5 -23.5t95 -64t64 -95t23.5 -116.5zM551 155v87h-24q0 -23 -11 -41t-29.5 -30.5t-42.5 -19t-49 -6.5q-35 0 -62 17.5t-45 46t-27.5 65.5t-9.5 76t9.5 76t27.5 65.5t45 46t62 17.5q25 0 49 -6.5t42.5 -19 t29.5 -30.5t11 -41h24v87q-74 33 -156 33q-51 0 -98 -17t-82.5 -47.5t-56.5 -72.5t-21 -91q0 -50 21 -91.5t56.5 -72t82.5 -47.5t98 -17q82 0 156 33z" />
<glyph unicode="&#xaa;" horiz-adv-x="1148" d="M1113 0v175h-38q0 -29 -11 -53.5t-30.5 -43.5t-45 -29.5t-53.5 -10.5h-144q-20 69 -20 140v172h95q32 0 54 -22t22 -54v-13h38v216h-38v-13q0 -32 -22 -54t-54 -22h-95v134q0 71 20 140h77q29 0 54.5 -10.5t44.5 -29.5t30 -44t11 -53h38v175h-642v-38h58 q-10 -26 -21 -51.5t-25 -50.5l-213 -382q-42 -75 -98 -140h-70v-38h223v38h-70q11 37 25.5 72t32.5 68l52 93h307v-93q0 -71 -20 -140h-70v-38h598zM605 309h-285l139 251q16 28 35.5 53.5t42.5 48.5h48q20 -69 20 -140v-213z" />
<glyph unicode="&#xab;" horiz-adv-x="453" d="M255 25l-93 195l93 195l-29 25l-191 -220l191 -220zM408 25l-93 195l93 195l-28 25l-192 -220l192 -220z" />
<glyph unicode="&#xac;" horiz-adv-x="834" d="M799 662v38h-218v-38h70q20 -69 20 -140v-300l-242 338q-47 67 -80 140h-314v-38h70q20 -69 20 -140v-344q0 -71 -20 -140h-70v-38h218v38h-70q-20 69 -20 140v344q0 55 12 108l451 -630h83v522q0 35 4.5 70.5t15.5 69.5h70zM542 921h-38q-17 -12 -37 -12q-26 0 -50 6 t-50 6q-17 0 -30.5 -7.5t-23.5 -19.5t-15.5 -28t-5.5 -33h38q16 12 37 12q26 0 50 -6t50 -6q16 0 30 7.5t24 19.5t15.5 28t5.5 33z" />
<glyph unicode="&#xae;" horiz-adv-x="770" d="M735 350q0 72 -27.5 136t-75 111.5t-111.5 75t-136 27.5t-136 -27.5t-111.5 -75t-75 -111.5t-27.5 -136t27.5 -136t75 -111.5t111.5 -75t136 -27.5t136 27.5t111.5 75t75 111.5t27.5 136zM684 350q0 -62 -23.5 -116.5t-64 -95t-95 -64t-116.5 -23.5t-116.5 23.5t-95 64 t-64 95t-23.5 116.5t23.5 116.5t64 95t95 64t116.5 23.5t116.5 -23.5t95 -64t64 -95t23.5 -116.5zM601 127v24h-23q-20 0 -25.5 19.5t-7.5 41.5l-6 68q-3 34 -25.5 54t-55.5 31q29 13 47.5 39.5t18.5 59.5q0 23 -9 43t-24.5 34.5t-36 23t-43.5 8.5h-242v-24h43 q6 -21 9.5 -42.5t3.5 -44.5v-213q0 -22 -3.5 -44t-9.5 -43h-43v-23h214v23h-43q-6 21 -9.5 43t-3.5 44v107h24q33 0 57.5 -22t27.5 -54l6 -77q3 -33 29.5 -54.5t61.5 -21.5h68zM429 464q0 -36 -15.5 -60.5t-49.5 -24.5h-37v83q0 23 3.5 44.5t9.5 42.5h24q34 0 49.5 -24 t15.5 -61z" />
<glyph unicode="&#xb0;" horiz-adv-x="458" d="M388 495v132l-93 93h-132l-93 -93v-132l93 -93h132zM350 511l-71 -71h-100l-71 71v100l71 71h100l71 -71v-100z" />
<glyph unicode="&#xb1;" horiz-adv-x="495" d="M460 225v50h-187v188h-51v-188h-187v-50h187v-73h51v73h187zM460 0v51h-425v-51h425z" />
<glyph unicode="&#xb4;" d="M302 662v34h-116q0 -45 -16.5 -86.5t-46.5 -74.5h62z" />
<glyph unicode="&#xb6;" horiz-adv-x="506" d="M471 0v38h-70q-20 69 -20 140v344q0 71 20 140h70v38h-243q-39 0 -74 -13.5t-61.5 -36.5t-42 -55.5t-15.5 -69.5q0 -38 15.5 -70t42 -55t61.5 -36.5t74 -13.5v-172q0 -71 -20 -140h-70v-38h333zM330 38h-51v624h51v-624z" />
<glyph unicode="&#xb7;" horiz-adv-x="276" d="M206 221v79l-68 39l-68 -39v-79l68 -39z" />
<glyph unicode="&#x2219;" horiz-adv-x="276" d="M206 221v79l-68 39l-68 -39v-79l68 -39z" />
<glyph unicode="&#xb8;" d="M371 -110q0 16 -7.5 29t-20 22t-28.5 14t-34 5q-17 0 -35 -1.5t-35 -3.5l24 61h-41l-38 -96l35 -14q21 16 45 16q17 0 31 -8t14 -24q-1 -21 -22.5 -26.5t-45.5 -5.5q-73 0 -140 16l-9 -37q76 -17 149 -17q28 0 56 2t50.5 9t37 21t14.5 38z" />
<glyph unicode="&#xba;" horiz-adv-x="886" d="M851 250q0 46 -20.5 84t-55 65t-80 42t-94.5 15q-48 0 -90 -15.5t-76 -44.5q-28 29 -71 44.5t-91 15.5q-37 0 -72.5 -7.5t-63.5 -23t-45 -39t-17 -56.5h136q0 34 16 61t46 27q28 0 45.5 -21.5t17.5 -50.5v-102q-43 38 -101 38q-38 0 -74 -10t-64 -29t-45 -47t-17 -63 t17 -62.5t45 -47t64 -29.5t74 -10q51 0 95 26.5t67 74.5q34 -47 87.5 -74t116.5 -27q66 0 126 22.5t108 65.5v38h-19q-38 -38 -88 -58t-104 -20q-31 0 -53.5 16.5t-37.5 43t-22 60t-7 68.5v30h347zM336 63q-12 -20 -32 -30.5t-43 -10.5q-18 0 -32 9.5t-23.5 25.5t-14 35.5 t-4.5 40.5t4.5 41t14 35.5t23.5 25t32 9.5q23 0 42 -10t33 -28v-143zM699 288h-193q2 28 7.5 51.5t16 41t28 27.5t43.5 10q51 0 74.5 -37t23.5 -93z" />
<glyph unicode="&#xbb;" horiz-adv-x="453" d="M264 220l-191 220l-29 -25l93 -195l-93 -195l29 -25zM418 220l-192 220l-28 -25l92 -195l-92 -195l28 -25z" />
<glyph unicode="&#xbc;" horiz-adv-x="627" d="M592 0v38h-44q-11 34 -15.5 69.5t-4.5 70.5v199q-23 38 -62.5 58.5t-84.5 20.5t-83.5 -21t-62.5 -58l20 79q-55 -8 -109.5 -12t-110.5 -4v-38h44q20 -69 20 -140v-84q0 -71 -20 -140h-44v-38h264v38h-44q-20 69 -20 140v130q16 36 44 65q14 13 29.5 22.5t33.5 9.5 q20 0 35 -14.5t15 -35.5v-177q0 -71 -20 -140h-44v-38h264zM438 680h-38q-17 -12 -37 -12q-26 0 -50 6t-50 6q-17 0 -30.5 -7.5t-23.5 -19.5t-15.5 -28t-5.5 -33h38q16 12 37 12q26 0 50 -6t50 -6q16 0 30 7.5t24 19.5t15.5 28t5.5 33z" />
<glyph unicode="&#xc0;" horiz-adv-x="790" d="M755 0v38h-44q-48 67 -78 140l-158 382q-29 69 -38 140h-83q-10 -71 -38 -140l-159 -382q-15 -38 -35 -72.5t-43 -67.5h-44v-38h169v38h-44q10 71 38 140l39 93h178l38 -93q28 -67 39 -140h-44v-38h307zM399 309h-146l73 177zM485 776q-31 33 -47 74.5t-16 86.5h-116v-34 l117 -127h62z" />
<glyph unicode="&#xc1;" horiz-adv-x="790" d="M755 0v38h-44q-48 67 -78 140l-158 382q-29 69 -38 140h-83q-10 -71 -38 -140l-159 -382q-15 -38 -35 -72.5t-43 -67.5h-44v-38h169v38h-44q10 71 38 140l39 93h178l38 -93q28 -67 39 -140h-44v-38h307zM399 309h-146l73 177zM485 903v34h-116q0 -45 -16.5 -86.5 t-46.5 -74.5h62z" />
<glyph unicode="&#xc2;" horiz-adv-x="790" d="M755 0v38h-44q-48 67 -78 140l-158 382q-29 69 -38 140h-83q-10 -71 -38 -140l-159 -382q-15 -38 -35 -72.5t-43 -67.5h-44v-38h169v38h-44q10 71 38 140l39 93h178l38 -93q28 -67 39 -140h-44v-38h307zM399 309h-146l73 177zM545 776l-82 126h-136l-82 -126h45l67 102 l66 -102h122z" />
<glyph unicode="&#xc3;" horiz-adv-x="790" d="M755 0v38h-44q-48 67 -78 140l-158 382q-29 69 -38 140h-83q-10 -71 -38 -140l-159 -382q-15 -38 -35 -72.5t-43 -67.5h-44v-38h169v38h-44q10 71 38 140l39 93h178l38 -93q28 -67 39 -140h-44v-38h307zM399 309h-146l73 177zM520 921h-38q-17 -12 -37 -12q-26 0 -50 6 t-50 6q-17 0 -30.5 -7.5t-23.5 -19.5t-15.5 -28t-5.5 -33h38q16 12 37 12q26 0 50 -6t50 -6q16 0 30 7.5t24 19.5t15.5 28t5.5 33z" />
<glyph unicode="&#xc4;" horiz-adv-x="790" d="M755 0v38h-44q-48 67 -78 140l-158 382q-29 69 -38 140h-83q-10 -71 -38 -140l-159 -382q-15 -38 -35 -72.5t-43 -67.5h-44v-38h169v38h-44q10 71 38 140l39 93h178l38 -93q28 -67 39 -140h-44v-38h307zM399 309h-146l73 177zM328 799v56l-40 40h-56l-40 -40v-56l40 -40 h56zM598 799v56l-40 40h-56l-40 -40v-56l40 -40h56z" />
<glyph unicode="&#xc5;" horiz-adv-x="790" d="M755 0v38h-44q-48 67 -78 140l-158 382q-29 69 -38 140h-83q-10 -71 -38 -140l-159 -382q-15 -38 -35 -72.5t-43 -67.5h-44v-38h169v38h-44q10 71 38 140l39 93h178l38 -93q28 -67 39 -140h-44v-38h307zM399 309h-146l73 177zM501 838v88l-62 62h-88l-62 -62v-88l62 -62 h88zM463 854l-40 -40h-56l-40 40v56l40 40h56l40 -40v-56z" />
<glyph unicode="&#xc7;" horiz-adv-x="738" d="M703 35v140h-38q0 -37 -18 -65.5t-48 -48.5t-68.5 -30.5t-78.5 -10.5q-56 0 -99.5 28t-73 74.5t-45 105.5t-15.5 122t15.5 122t45 105.5t73 74.5t99.5 28q40 0 78.5 -10.5t68.5 -30.5t48 -48.5t18 -65.5h38v140q-120 53 -251 53q-83 0 -158.5 -27.5t-133 -76.5 t-91.5 -116.5t-34 -147.5q0 -76 31 -141t83.5 -113.5t122.5 -78t148 -34.5l-25 -63l36 -14q19 16 44 16q17 0 31.5 -8t13.5 -24q0 -21 -22 -26.5t-46 -5.5q-35 0 -70 4t-69 12l-9 -37q37 -8 73.5 -12.5t74.5 -4.5q28 0 56.5 2t51 9t37 21t14.5 38q0 16 -7.5 29t-20 22 t-29 14t-33.5 5q-18 0 -36 -1.5t-35 -3.5l11 27q125 2 242 53z" />
<glyph unicode="&#xc8;" horiz-adv-x="668" d="M633 0v175h-38q0 -29 -11 -53.5t-30.5 -43.5t-45 -29.5t-53.5 -10.5h-144q-20 69 -20 140v172h95q31 0 53.5 -22t22.5 -54v-13h38v216h-38v-13q0 -32 -22.5 -54t-53.5 -22h-95v134q0 71 20 140h77q29 0 54.5 -10.5t44.5 -29.5t30 -44t11 -53h38v175h-531v-38h70 q20 -69 20 -140v-344q0 -71 -20 -140h-70v-38h598zM424 776q-31 33 -47 74.5t-16 86.5h-116v-34l117 -127h62z" />
<glyph unicode="&#xc9;" horiz-adv-x="668" d="M633 0v175h-38q0 -29 -11 -53.5t-30.5 -43.5t-45 -29.5t-53.5 -10.5h-144q-20 69 -20 140v172h95q31 0 53.5 -22t22.5 -54v-13h38v216h-38v-13q0 -32 -22.5 -54t-53.5 -22h-95v134q0 71 20 140h77q29 0 54.5 -10.5t44.5 -29.5t30 -44t11 -53h38v175h-531v-38h70 q20 -69 20 -140v-344q0 -71 -20 -140h-70v-38h598zM424 903v34h-116q0 -45 -16.5 -86.5t-46.5 -74.5h62z" />
<glyph unicode="&#xcb;" horiz-adv-x="668" d="M633 0v175h-38q0 -29 -11 -53.5t-30.5 -43.5t-45 -29.5t-53.5 -10.5h-144q-20 69 -20 140v172h95q31 0 53.5 -22t22.5 -54v-13h38v216h-38v-13q0 -32 -22.5 -54t-53.5 -22h-95v134q0 71 20 140h77q29 0 54.5 -10.5t44.5 -29.5t30 -44t11 -53h38v175h-531v-38h70 q20 -69 20 -140v-344q0 -71 -20 -140h-70v-38h598zM267 799v56l-40 40h-56l-40 -40v-56l40 -40h56zM537 799v56l-40 40h-56l-40 -40v-56l40 -40h56z" />
<glyph unicode="&#xcc;" horiz-adv-x="416" d="M381 0v38h-70q-20 69 -20 140v344q0 71 20 140h70v38h-346v-38h70q20 -69 20 -140v-344q0 -71 -20 -140h-70v-38h346zM298 776q-31 33 -47 74.5t-16 86.5h-116v-34l117 -127h62z" />
<glyph unicode="&#xcd;" horiz-adv-x="416" d="M381 0v38h-70q-20 69 -20 140v344q0 71 20 140h70v38h-346v-38h70q20 -69 20 -140v-344q0 -71 -20 -140h-70v-38h346zM298 903v34h-116q0 -45 -16.5 -86.5t-46.5 -74.5h62z" />
<glyph unicode="&#xce;" horiz-adv-x="416" d="M381 0v38h-70q-20 69 -20 140v344q0 71 20 140h70v38h-346v-38h70q20 -69 20 -140v-344q0 -71 -20 -140h-70v-38h346zM358 776l-82 126h-136l-82 -126h45l67 102l66 -102h122z" />
<glyph unicode="&#xcf;" horiz-adv-x="416" d="M381 0v38h-70q-20 69 -20 140v344q0 71 20 140h70v38h-346v-38h70q20 -69 20 -140v-344q0 -71 -20 -140h-70v-38h346zM141 799v56l-40 40h-56l-40 -40v-56l40 -40h56zM411 799v56l-40 40h-56l-40 -40v-56l40 -40h56z" />
<glyph unicode="&#xd0;" horiz-adv-x="786" d="M769 350q0 73 -29.5 137t-79.5 111.5t-116.5 74.5t-141.5 27h-367v-38h70q20 -69 20 -140v-172h-90v-38h90v-134q0 -71 -20 -140h-70v-38h367q75 0 141.5 27t116.5 74.5t79.5 111t29.5 137.5zM585 350q0 -59 -14.5 -115.5t-42.5 -100t-69.5 -70t-94.5 -26.5h-53 q-20 69 -20 140v134h173v38h-173v172q0 71 20 140h53q53 0 94.5 -26.5t69.5 -70t42.5 -100t14.5 -115.5z" />
<glyph unicode="&#xd2;" horiz-adv-x="815" d="M798 350q0 78 -31.5 145t-84.5 116.5t-124.5 78t-150.5 28.5t-150 -28.5t-124 -78t-84.5 -116.5t-31.5 -145t31.5 -145t84.5 -116.5t124 -78t150 -28.5t150.5 28.5t124.5 78t84.5 116.5t31.5 145zM614 350q0 -61 -12 -120.5t-37.5 -106t-64.5 -75t-93 -28.5t-92.5 28.5 t-64 75t-37.5 106t-12 120.5t12 120.5t37.5 106t64 75t92.5 28.5t93 -28.5t64.5 -75t37.5 -106t12 -120.5zM497 776q-31 33 -47 74.5t-16 86.5h-116v-34l117 -127h62z" />
<glyph unicode="&#xd3;" horiz-adv-x="815" d="M798 350q0 78 -31.5 145t-84.5 116.5t-124.5 78t-150.5 28.5t-150 -28.5t-124 -78t-84.5 -116.5t-31.5 -145t31.5 -145t84.5 -116.5t124 -78t150 -28.5t150.5 28.5t124.5 78t84.5 116.5t31.5 145zM614 350q0 -61 -12 -120.5t-37.5 -106t-64.5 -75t-93 -28.5t-92.5 28.5 t-64 75t-37.5 106t-12 120.5t12 120.5t37.5 106t64 75t92.5 28.5t93 -28.5t64.5 -75t37.5 -106t12 -120.5zM497 903v34h-116q0 -45 -16.5 -86.5t-46.5 -74.5h62z" />
<glyph unicode="&#xd4;" horiz-adv-x="815" d="M798 350q0 78 -31.5 145t-84.5 116.5t-124.5 78t-150.5 28.5t-150 -28.5t-124 -78t-84.5 -116.5t-31.5 -145t31.5 -145t84.5 -116.5t124 -78t150 -28.5t150.5 28.5t124.5 78t84.5 116.5t31.5 145zM614 350q0 -61 -12 -120.5t-37.5 -106t-64.5 -75t-93 -28.5t-92.5 28.5 t-64 75t-37.5 106t-12 120.5t12 120.5t37.5 106t64 75t92.5 28.5t93 -28.5t64.5 -75t37.5 -106t12 -120.5zM557 776l-82 126h-136l-82 -126h45l67 102l66 -102h122z" />
<glyph unicode="&#xd5;" horiz-adv-x="815" d="M798 350q0 78 -31.5 145t-84.5 116.5t-124.5 78t-150.5 28.5t-150 -28.5t-124 -78t-84.5 -116.5t-31.5 -145t31.5 -145t84.5 -116.5t124 -78t150 -28.5t150.5 28.5t124.5 78t84.5 116.5t31.5 145zM614 350q0 -61 -12 -120.5t-37.5 -106t-64.5 -75t-93 -28.5t-92.5 28.5 t-64 75t-37.5 106t-12 120.5t12 120.5t37.5 106t64 75t92.5 28.5t93 -28.5t64.5 -75t37.5 -106t12 -120.5zM532 921h-38q-17 -12 -37 -12q-26 0 -50 6t-50 6q-17 0 -30.5 -7.5t-23.5 -19.5t-15.5 -28t-5.5 -33h38q16 12 37 12q26 0 50 -6t50 -6q16 0 30 7.5t24 19.5t15.5 28 t5.5 33z" />
<glyph unicode="&#xd6;" horiz-adv-x="815" d="M798 350q0 78 -31.5 145t-84.5 116.5t-124.5 78t-150.5 28.5t-150 -28.5t-124 -78t-84.5 -116.5t-31.5 -145t31.5 -145t84.5 -116.5t124 -78t150 -28.5t150.5 28.5t124.5 78t84.5 116.5t31.5 145zM614 350q0 -61 -12 -120.5t-37.5 -106t-64.5 -75t-93 -28.5t-92.5 28.5 t-64 75t-37.5 106t-12 120.5t12 120.5t37.5 106t64 75t92.5 28.5t93 -28.5t64.5 -75t37.5 -106t12 -120.5zM340 799v56l-40 40h-56l-40 -40v-56l40 -40h56zM610 799v56l-40 40h-56l-40 -40v-56l40 -40h56z" />
<glyph unicode="&#xd7;" horiz-adv-x="495" d="M416 118l-133 132l133 132l-36 36l-132 -132l-133 132l-36 -36l133 -132l-133 -132l36 -36l132 132l133 -132z" />
<glyph unicode="&#xd8;" horiz-adv-x="851" d="M816 350q0 88 -39 161t-104 124l105 133h-49l-87 -112q-48 29 -102.5 45.5t-114.5 16.5q-79 0 -150 -28.5t-124 -78t-84.5 -116.5t-31.5 -145q0 -88 38.5 -161t104.5 -124l-105 -133h48l88 112q47 -29 101.5 -45.5t114.5 -16.5q79 0 150.5 28.5t124.5 78t84.5 116.5 t31.5 145zM581 579l-329 -419q-17 42 -25 90.5t-8 99.5q0 61 12 120.5t37.5 106t64 75t92.5 28.5t92 -28t64 -73zM632 350q0 -61 -12 -120.5t-37.5 -106t-64.5 -75t-93 -28.5q-53 0 -91.5 28t-63.5 73l329 419q17 -42 25 -90.5t8 -99.5z" />
<glyph unicode="&#xd9;" horiz-adv-x="803" d="M768 662v38h-218v-38h70q20 -69 20 -140v-344q0 -36 -16.5 -64.5t-44 -49t-63 -31.5t-73.5 -11q-71 0 -111.5 42t-40.5 114v344q0 71 20 140h70v38h-346v-38h70q20 -69 20 -140v-344q0 -52 21.5 -89t58.5 -60t87.5 -34t109.5 -11q58 0 108.5 11t87.5 34t58.5 60t21.5 89 v344q0 71 20 140h70zM491 776q-31 33 -47 74.5t-16 86.5h-116v-34l117 -127h62z" />
<glyph unicode="&#xda;" horiz-adv-x="803" d="M768 662v38h-218v-38h70q20 -69 20 -140v-344q0 -36 -16.5 -64.5t-44 -49t-63 -31.5t-73.5 -11q-71 0 -111.5 42t-40.5 114v344q0 71 20 140h70v38h-346v-38h70q20 -69 20 -140v-344q0 -52 21.5 -89t58.5 -60t87.5 -34t109.5 -11q58 0 108.5 11t87.5 34t58.5 60t21.5 89 v344q0 71 20 140h70zM491 903v34h-116q0 -45 -16.5 -86.5t-46.5 -74.5h62z" />
<glyph unicode="&#xdb;" horiz-adv-x="803" d="M768 662v38h-218v-38h70q20 -69 20 -140v-344q0 -36 -16.5 -64.5t-44 -49t-63 -31.5t-73.5 -11q-71 0 -111.5 42t-40.5 114v344q0 71 20 140h70v38h-346v-38h70q20 -69 20 -140v-344q0 -52 21.5 -89t58.5 -60t87.5 -34t109.5 -11q58 0 108.5 11t87.5 34t58.5 60t21.5 89 v344q0 71 20 140h70zM552 776l-82 126h-136l-82 -126h45l67 102l66 -102h122z" />
<glyph unicode="&#xdc;" horiz-adv-x="803" d="M768 662v38h-218v-38h70q20 -69 20 -140v-344q0 -36 -16.5 -64.5t-44 -49t-63 -31.5t-73.5 -11q-71 0 -111.5 42t-40.5 114v344q0 71 20 140h70v38h-346v-38h70q20 -69 20 -140v-344q0 -52 21.5 -89t58.5 -60t87.5 -34t109.5 -11q58 0 108.5 11t87.5 34t58.5 60t21.5 89 v344q0 71 20 140h70zM335 799v56l-40 40h-56l-40 -40v-56l40 -40h56zM605 799v56l-40 40h-56l-40 -40v-56l40 -40h56z" />
<glyph unicode="&#xdd;" horiz-adv-x="806" d="M771 662v38h-237v-38h70q0 -19 -3 -38t-11 -36q-8 -20 -22.5 -37.5t-28.5 -34.5q-47 -59 -72 -135l-6 22t-7 22q-20 57 -50.5 108.5t-62.5 102.5q-6 8 -2 17t14 9h70v38h-388v-38h47q90 -67 152 -163q39 -60 62.5 -127t23.5 -139v-55q0 -71 -20 -140h-70v-38h346v38h-70 q-11 34 -15.5 69.5t-4.5 70.5v55q0 57 16 110.5t42 104.5q66 125 174 214h53zM538 903v34h-116q0 -45 -16.5 -86.5t-46.5 -74.5h62z" />
<glyph unicode="&#xde;" horiz-adv-x="635" d="M600 350q0 37 -15.5 68.5t-42 54.5t-61 36t-72.5 13h-118q0 71 20 140h70v38h-346v-38h70q20 -69 20 -140v-344q0 -71 -20 -140h-70v-38h346v38h-70q-20 69 -20 140h118q38 0 72.5 13t61 36t42 54.5t15.5 68.5zM448 350q0 -27 -2 -51t-8.5 -42.5t-20 -29.5t-36.5 -11h-90 v268h90q23 0 36.5 -11t20 -29.5t8.5 -42.5t2 -51z" />
<glyph unicode="&#xdf;" horiz-adv-x="634" d="M599 194q0 37 -14 68.5t-38 56t-56.5 42.5t-70.5 29q54 20 89.5 59t35.5 95q0 40 -19 72t-51 54t-73 34t-85 12t-83.5 -14.5t-69.5 -40.5t-47.5 -61.5t-17.5 -77.5v-344q0 -71 -20 -140h-44v-38q56 0 110.5 -4t109.5 -12q-20 98 -20 194v382q0 22 5.5 43.5t16 38 t25.5 26.5t35 10q24 0 38.5 -10.5t23 -29t11.5 -43t3 -51.5t-3 -51.5t-11.5 -43t-23 -29t-38.5 -10.5v-44q33 0 57.5 -13t40.5 -36t24 -54.5t8 -68.5t-8 -68.5t-24 -54.5t-40.5 -36t-57.5 -13v-38q54 0 105 14.5t90 41.5t63 66t24 88z" />
<glyph unicode="&#xe0;" horiz-adv-x="555" d="M520 0v38q-23 0 -43.5 6t-20.5 26v238q0 35 -17 62.5t-44.5 46.5t-63.5 29t-74 10q-37 0 -72.5 -7.5t-63.5 -23t-45 -39t-17 -56.5h136q0 34 16 61t46 27q28 0 45.5 -21.5t17.5 -50.5v-102q-43 38 -101 38q-38 0 -74 -10t-64 -29t-45 -47t-17 -63t17 -62.5t45 -47 t64 -29.5t74 -10q67 0 116 43q17 -15 44.5 -21t56.5 -6h84zM320 63q-12 -20 -32 -30.5t-43 -10.5q-18 0 -32 9.5t-23.5 25.5t-14 35.5t-4.5 40.5t4.5 41t14 35.5t23.5 25t32 9.5q23 0 42 -10t33 -28v-143zM347 535q-31 33 -47 74.5t-16 86.5h-116v-34l117 -127h62z" />
<glyph unicode="&#xe1;" horiz-adv-x="555" d="M520 0v38q-23 0 -43.5 6t-20.5 26v238q0 35 -17 62.5t-44.5 46.5t-63.5 29t-74 10q-37 0 -72.5 -7.5t-63.5 -23t-45 -39t-17 -56.5h136q0 34 16 61t46 27q28 0 45.5 -21.5t17.5 -50.5v-102q-43 38 -101 38q-38 0 -74 -10t-64 -29t-45 -47t-17 -63t17 -62.5t45 -47 t64 -29.5t74 -10q67 0 116 43q17 -15 44.5 -21t56.5 -6h84zM320 63q-12 -20 -32 -30.5t-43 -10.5q-18 0 -32 9.5t-23.5 25.5t-14 35.5t-4.5 40.5t4.5 41t14 35.5t23.5 25t32 9.5q23 0 42 -10t33 -28v-143zM347 662v34h-116q0 -45 -16.5 -86.5t-46.5 -74.5h62z" />
<glyph unicode="&#xe2;" horiz-adv-x="555" d="M520 0v38q-23 0 -43.5 6t-20.5 26v238q0 35 -17 62.5t-44.5 46.5t-63.5 29t-74 10q-37 0 -72.5 -7.5t-63.5 -23t-45 -39t-17 -56.5h136q0 34 16 61t46 27q28 0 45.5 -21.5t17.5 -50.5v-102q-43 38 -101 38q-38 0 -74 -10t-64 -29t-45 -47t-17 -63t17 -62.5t45 -47 t64 -29.5t74 -10q67 0 116 43q17 -15 44.5 -21t56.5 -6h84zM320 63q-12 -20 -32 -30.5t-43 -10.5q-18 0 -32 9.5t-23.5 25.5t-14 35.5t-4.5 40.5t4.5 41t14 35.5t23.5 25t32 9.5q23 0 42 -10t33 -28v-143zM407 535l-82 126h-136l-82 -126h45l67 102l66 -102h122z" />
<glyph unicode="&#xe3;" horiz-adv-x="555" d="M520 0v38q-23 0 -43.5 6t-20.5 26v238q0 35 -17 62.5t-44.5 46.5t-63.5 29t-74 10q-37 0 -72.5 -7.5t-63.5 -23t-45 -39t-17 -56.5h136q0 34 16 61t46 27q28 0 45.5 -21.5t17.5 -50.5v-102q-43 38 -101 38q-38 0 -74 -10t-64 -29t-45 -47t-17 -63t17 -62.5t45 -47 t64 -29.5t74 -10q67 0 116 43q17 -15 44.5 -21t56.5 -6h84zM320 63q-12 -20 -32 -30.5t-43 -10.5q-18 0 -32 9.5t-23.5 25.5t-14 35.5t-4.5 40.5t4.5 41t14 35.5t23.5 25t32 9.5q23 0 42 -10t33 -28v-143zM382 680h-38q-17 -12 -37 -12q-26 0 -50 6t-50 6q-17 0 -30.5 -7.5 t-23.5 -19.5t-15.5 -28t-5.5 -33h38q16 12 37 12q26 0 50 -6t50 -6q16 0 30 7.5t24 19.5t15.5 28t5.5 33z" />
<glyph unicode="&#xe4;" horiz-adv-x="555" d="M520 0v38q-23 0 -43.5 6t-20.5 26v238q0 35 -17 62.5t-44.5 46.5t-63.5 29t-74 10q-37 0 -72.5 -7.5t-63.5 -23t-45 -39t-17 -56.5h136q0 34 16 61t46 27q28 0 45.5 -21.5t17.5 -50.5v-102q-43 38 -101 38q-38 0 -74 -10t-64 -29t-45 -47t-17 -63t17 -62.5t45 -47 t64 -29.5t74 -10q67 0 116 43q17 -15 44.5 -21t56.5 -6h84zM320 63q-12 -20 -32 -30.5t-43 -10.5q-18 0 -32 9.5t-23.5 25.5t-14 35.5t-4.5 40.5t4.5 41t14 35.5t23.5 25t32 9.5q23 0 42 -10t33 -28v-143zM190 558v56l-40 40h-56l-40 -40v-56l40 -40h56zM460 558v56l-40 40 h-56l-40 -40v-56l40 -40h56z" />
<glyph unicode="&#xe5;" horiz-adv-x="555" d="M520 0v38q-23 0 -43.5 6t-20.5 26v238q0 35 -17 62.5t-44.5 46.5t-63.5 29t-74 10q-37 0 -72.5 -7.5t-63.5 -23t-45 -39t-17 -56.5h136q0 34 16 61t46 27q28 0 45.5 -21.5t17.5 -50.5v-102q-43 38 -101 38q-38 0 -74 -10t-64 -29t-45 -47t-17 -63t17 -62.5t45 -47 t64 -29.5t74 -10q67 0 116 43q17 -15 44.5 -21t56.5 -6h84zM320 63q-12 -20 -32 -30.5t-43 -10.5q-18 0 -32 9.5t-23.5 25.5t-14 35.5t-4.5 40.5t4.5 41t14 35.5t23.5 25t32 9.5q23 0 42 -10t33 -28v-143zM363 597v88l-62 62h-88l-62 -62v-88l62 -62h88zM325 613l-40 -40 h-56l-40 40v56l40 40h56l40 -40v-56z" />
<glyph unicode="&#xe7;" horiz-adv-x="544" d="M509 60v70h-38q0 -29 -15.5 -49t-40 -33.5t-56 -19.5t-63.5 -6q-35 0 -56 16t-33 43t-16 63t-4 76t4 76t16 63t33 43t56 16q36 0 60 -27t24 -64h91v93q-83 36 -175 36q-53 0 -100 -18t-83 -49.5t-57 -74.5t-21 -94q0 -47 18 -87.5t49.5 -71.5t73.5 -50.5t89 -24.5 l-26 -66l35 -14q21 16 45 16q17 0 31 -8t14 -24q-1 -21 -22.5 -26.5t-45.5 -5.5q-73 0 -140 16l-8 -37q74 -17 148 -17q28 0 56.5 2t51 9t36.5 21t14 38q0 16 -7.5 29t-20 22t-28.5 14t-34 5q-17 0 -35 -1.5t-35 -3.5l11 29q56 2 108 21.5t96 54.5z" />
<glyph unicode="&#xe8;" horiz-adv-x="554" d="M535 250q0 46 -21 84t-55.5 65t-79.5 42t-94 15q-51 0 -96.5 -18t-79.5 -50t-54 -75t-20 -93t20 -93t54 -75t79.5 -50t96.5 -18q65 0 125 22.5t109 65.5v38h-19q-39 -38 -89 -58t-104 -20q-31 0 -53.5 16.5t-37.5 43t-22 60t-7 68.5v30h348zM383 288h-194q2 28 7.5 51.5 t16.5 41t28.5 27.5t43.5 10q25 0 43.5 -10t30.5 -27.5t18 -41t6 -51.5zM375 535q-31 33 -47 74.5t-16 86.5h-116v-34l117 -127h62z" />
<glyph unicode="&#xe9;" horiz-adv-x="554" d="M535 250q0 46 -21 84t-55.5 65t-79.5 42t-94 15q-51 0 -96.5 -18t-79.5 -50t-54 -75t-20 -93t20 -93t54 -75t79.5 -50t96.5 -18q65 0 125 22.5t109 65.5v38h-19q-39 -38 -89 -58t-104 -20q-31 0 -53.5 16.5t-37.5 43t-22 60t-7 68.5v30h348zM383 288h-194q2 28 7.5 51.5 t16.5 41t28.5 27.5t43.5 10q25 0 43.5 -10t30.5 -27.5t18 -41t6 -51.5zM375 662v34h-116q0 -45 -16.5 -86.5t-46.5 -74.5h62z" />
<glyph unicode="&#xeb;" horiz-adv-x="554" d="M535 250q0 46 -21 84t-55.5 65t-79.5 42t-94 15q-51 0 -96.5 -18t-79.5 -50t-54 -75t-20 -93t20 -93t54 -75t79.5 -50t96.5 -18q65 0 125 22.5t109 65.5v38h-19q-39 -38 -89 -58t-104 -20q-31 0 -53.5 16.5t-37.5 43t-22 60t-7 68.5v30h348zM383 288h-194q2 28 7.5 51.5 t16.5 41t28.5 27.5t43.5 10q25 0 43.5 -10t30.5 -27.5t18 -41t6 -51.5zM218 558v56l-40 40h-56l-40 -40v-56l40 -40h56zM488 558v56l-40 40h-56l-40 -40v-56l40 -40h56z" />
<glyph unicode="&#xec;" horiz-adv-x="334" d="M299 0v38h-44q-20 69 -20 140v84q0 96 20 194q-55 -8 -109.5 -12t-110.5 -4v-38h44q20 -69 20 -140v-84q0 -71 -20 -140h-44v-38h264zM257 535q-31 33 -47 74.5t-16 86.5h-116v-34l117 -127h62z" />
<glyph unicode="&#xed;" horiz-adv-x="334" d="M299 0v38h-44q-20 69 -20 140v84q0 96 20 194q-55 -8 -109.5 -12t-110.5 -4v-38h44q20 -69 20 -140v-84q0 -71 -20 -140h-44v-38h264zM257 662v34h-116q0 -45 -16.5 -86.5t-46.5 -74.5h62z" />
<glyph unicode="&#xee;" horiz-adv-x="334" d="M299 0v38h-44q-20 69 -20 140v84q0 96 20 194q-55 -8 -109.5 -12t-110.5 -4v-38h44q20 -69 20 -140v-84q0 -71 -20 -140h-44v-38h264zM317 535l-82 126h-136l-82 -126h45l67 102l66 -102h122z" />
<glyph unicode="&#xef;" horiz-adv-x="334" d="M299 0v38h-44q-20 69 -20 140v84q0 96 20 194q-55 -8 -109.5 -12t-110.5 -4v-38h44q20 -69 20 -140v-84q0 -71 -20 -140h-44v-38h264zM100 558v56l-40 40h-56l-40 -40v-56l40 -40h56zM370 558v56l-40 40h-56l-40 -40v-56l40 -40h56z" />
<glyph unicode="&#xf0;" horiz-adv-x="527" d="M500 242q0 78 -22 152t-72 129l77 44l-19 33l-86 -49q-8 7 -16.5 13t-17.5 12q-38 23 -80 34t-87 11q-60 0 -110 -32l21 -32q40 26 89 26q42 0 75.5 -19.5t57.5 -52.5l-74 -42l19 -33l74 42q17 -33 26 -72.5t9 -81.5q-7 36 -35 59.5t-64 23.5q-45 0 -85 -16.5t-69.5 -45 t-47 -67.5t-17.5 -83t17.5 -82.5t47.5 -67t69.5 -45t84.5 -16.5q33 0 63.5 13.5t56.5 33.5q51 39 83 93.5t32 117.5zM332 196q0 -34 0.5 -65.5t-5 -55.5t-19.5 -38.5t-43 -14.5t-43 14.5t-19.5 38.5t-5 55.5t0.5 64.5q0 34 -0.5 65.5t4.5 55.5t19.5 38.5t43.5 14.5t43 -14.5 t19.5 -38.5t5 -55.5t-0.5 -64.5z" />
<glyph unicode="&#xf2;" horiz-adv-x="592" d="M557 220q0 51 -21 94t-57 74.5t-83.5 49.5t-99.5 18q-53 0 -100 -18t-83 -49.5t-57 -74.5t-21 -94t21 -94t57 -74.5t83 -49.5t100 -18q52 0 99.5 18t83.5 49.5t57 74.5t21 94zM405 220q0 -40 -4 -76t-16 -63t-33.5 -43t-55.5 -16q-35 0 -56 16t-33 43t-16 63t-4 76t4 76 t16 63t33 43t56 16q34 0 55.5 -16t33.5 -43t16 -63t4 -76zM386 535q-31 33 -47 74.5t-16 86.5h-116v-34l117 -127h62z" />
<glyph unicode="&#xf3;" horiz-adv-x="592" d="M557 220q0 51 -21 94t-57 74.5t-83.5 49.5t-99.5 18q-53 0 -100 -18t-83 -49.5t-57 -74.5t-21 -94t21 -94t57 -74.5t83 -49.5t100 -18q52 0 99.5 18t83.5 49.5t57 74.5t21 94zM405 220q0 -40 -4 -76t-16 -63t-33.5 -43t-55.5 -16q-35 0 -56 16t-33 43t-16 63t-4 76t4 76 t16 63t33 43t56 16q34 0 55.5 -16t33.5 -43t16 -63t4 -76zM386 662v34h-116q0 -45 -16.5 -86.5t-46.5 -74.5h62z" />
<glyph unicode="&#xf4;" horiz-adv-x="592" d="M557 220q0 51 -21 94t-57 74.5t-83.5 49.5t-99.5 18q-53 0 -100 -18t-83 -49.5t-57 -74.5t-21 -94t21 -94t57 -74.5t83 -49.5t100 -18q52 0 99.5 18t83.5 49.5t57 74.5t21 94zM405 220q0 -40 -4 -76t-16 -63t-33.5 -43t-55.5 -16q-35 0 -56 16t-33 43t-16 63t-4 76t4 76 t16 63t33 43t56 16q34 0 55.5 -16t33.5 -43t16 -63t4 -76zM446 535l-82 126h-136l-82 -126h45l67 102l66 -102h122z" />
<glyph unicode="&#xf5;" horiz-adv-x="592" d="M557 220q0 51 -21 94t-57 74.5t-83.5 49.5t-99.5 18q-53 0 -100 -18t-83 -49.5t-57 -74.5t-21 -94t21 -94t57 -74.5t83 -49.5t100 -18q52 0 99.5 18t83.5 49.5t57 74.5t21 94zM405 220q0 -40 -4 -76t-16 -63t-33.5 -43t-55.5 -16q-35 0 -56 16t-33 43t-16 63t-4 76t4 76 t16 63t33 43t56 16q34 0 55.5 -16t33.5 -43t16 -63t4 -76zM421 680h-38q-17 -12 -37 -12q-26 0 -50 6t-50 6q-17 0 -30.5 -7.5t-23.5 -19.5t-15.5 -28t-5.5 -33h38q16 12 37 12q26 0 50 -6t50 -6q16 0 30 7.5t24 19.5t15.5 28t5.5 33z" />
<glyph unicode="&#xf6;" horiz-adv-x="592" d="M557 220q0 51 -21 94t-57 74.5t-83.5 49.5t-99.5 18q-53 0 -100 -18t-83 -49.5t-57 -74.5t-21 -94t21 -94t57 -74.5t83 -49.5t100 -18q52 0 99.5 18t83.5 49.5t57 74.5t21 94zM405 220q0 -40 -4 -76t-16 -63t-33.5 -43t-55.5 -16q-35 0 -56 16t-33 43t-16 63t-4 76t4 76 t16 63t33 43t56 16q34 0 55.5 -16t33.5 -43t16 -63t4 -76zM229 558v56l-40 40h-56l-40 -40v-56l40 -40h56zM499 558v56l-40 40h-56l-40 -40v-56l40 -40h56z" />
<glyph unicode="&#xf7;" horiz-adv-x="495" d="M460 225v50h-425v-50h425zM316 40v56l-40 40h-57l-39 -40v-56l39 -40h57zM316 404v56l-40 40h-57l-39 -40v-56l39 -40h57z" />
<glyph unicode="&#xf8;" horiz-adv-x="592" d="M557 220q0 60 -29 109t-77 81l68 98h-47l-55 -79q-27 13 -58 20t-63 7q-53 0 -100 -18t-83 -49.5t-57 -74.5t-21 -94q0 -60 29 -109t77 -81l-68 -98h46l55 79q28 -13 58.5 -20t63.5 -7q52 0 99.5 18t83.5 49.5t57 74.5t21 94zM378 372l-181 -261q-6 23 -8 51t-2 58 q0 40 4 76t16 63t33 43t56 16q30 0 50 -12t32 -34zM405 220q0 -40 -4 -76t-16 -63t-33.5 -43t-55.5 -16q-30 0 -50 12t-33 34l182 261q5 -23 7.5 -51t2.5 -58z" />
<glyph unicode="&#xf9;" horiz-adv-x="640" d="M605 0v38h-44q-11 34 -15.5 69.5t-4.5 70.5v84q0 49 4.5 97.5t15.5 96.5q-55 -8 -110 -12t-110 -4v-38h44q20 -69 20 -140v-134q-17 -33 -45 -60q-14 -13 -31 -22t-37 -9q-23 0 -40 13.5t-17 34.5v177q0 96 20 194q-55 -8 -109.5 -12t-110.5 -4v-38h44q20 -69 20 -140 v-199q23 -40 64.5 -59.5t88.5 -19.5q45 0 85.5 20.5t67.5 58.5l-20 -79q54 8 109 12t111 4zM410 535q-31 33 -47 74.5t-16 86.5h-116v-34l117 -127h62z" />
<glyph unicode="&#xfa;" horiz-adv-x="640" d="M605 0v38h-44q-11 34 -15.5 69.5t-4.5 70.5v84q0 49 4.5 97.5t15.5 96.5q-55 -8 -110 -12t-110 -4v-38h44q20 -69 20 -140v-134q-17 -33 -45 -60q-14 -13 -31 -22t-37 -9q-23 0 -40 13.5t-17 34.5v177q0 96 20 194q-55 -8 -109.5 -12t-110.5 -4v-38h44q20 -69 20 -140 v-199q23 -40 64.5 -59.5t88.5 -19.5q45 0 85.5 20.5t67.5 58.5l-20 -79q54 8 109 12t111 4zM410 662v34h-116q0 -45 -16.5 -86.5t-46.5 -74.5h62z" />
<glyph unicode="&#xfb;" horiz-adv-x="640" d="M605 0v38h-44q-11 34 -15.5 69.5t-4.5 70.5v84q0 49 4.5 97.5t15.5 96.5q-55 -8 -110 -12t-110 -4v-38h44q20 -69 20 -140v-134q-17 -33 -45 -60q-14 -13 -31 -22t-37 -9q-23 0 -40 13.5t-17 34.5v177q0 96 20 194q-55 -8 -109.5 -12t-110.5 -4v-38h44q20 -69 20 -140 v-199q23 -40 64.5 -59.5t88.5 -19.5q45 0 85.5 20.5t67.5 58.5l-20 -79q54 8 109 12t111 4zM470 535l-82 126h-136l-82 -126h45l67 102l66 -102h122z" />
<glyph unicode="&#xfc;" horiz-adv-x="640" d="M605 0v38h-44q-11 34 -15.5 69.5t-4.5 70.5v84q0 49 4.5 97.5t15.5 96.5q-55 -8 -110 -12t-110 -4v-38h44q20 -69 20 -140v-134q-17 -33 -45 -60q-14 -13 -31 -22t-37 -9q-23 0 -40 13.5t-17 34.5v177q0 96 20 194q-55 -8 -109.5 -12t-110.5 -4v-38h44q20 -69 20 -140 v-199q23 -40 64.5 -59.5t88.5 -19.5q45 0 85.5 20.5t67.5 58.5l-20 -79q54 8 109 12t111 4zM253 558v56l-40 40h-56l-40 -40v-56l40 -40h56zM523 558v56l-40 40h-56l-40 -40v-56l40 -40h56z" />
<glyph unicode="&#xfd;" horiz-adv-x="606" d="M571 456q-55 -8 -110 -12t-110 -4v-38h44q20 -69 20 -140v-128q-18 -34 -46 -57q-15 -14 -33 -22t-38 -8q-24 0 -43.5 12t-19.5 34v169q0 96 20 194q-55 -8 -109.5 -12t-110.5 -4v-38h44q20 -69 20 -140v-191q13 -23 32.5 -38.5t42.5 -25.5q-27 -11 -52 -24t-44.5 -29.5 t-31 -37.5t-11.5 -48q0 -28 15 -48.5t39 -33.5t55 -19.5t63 -6.5q70 0 132.5 25.5t109.5 69.5t74.5 104t27.5 129v174q0 49 4.5 97.5t15.5 96.5zM415 71q0 -35 1 -71.5t-4.5 -69t-20 -59t-44.5 -41.5q-67 -32 -140 -32q-32 0 -56.5 19.5t-24.5 50.5q0 43 24 78t63 50 q19 -4 44 -4q47 0 88 20.5t70 58.5zM393 662v34h-116q0 -45 -16.5 -86.5t-46.5 -74.5h62z" />
<glyph unicode="&#xfe;" horiz-adv-x="634" d="M599 220q0 55 -17 98.5t-48.5 74t-76 47t-99.5 16.5q-36 0 -68 -15t-55 -42v123q0 96 20 194q-55 -8 -109.5 -12t-110.5 -4v-38h44q20 -69 20 -140v-560q0 -71 -20 -140h-44v-38h264v38h-44q-20 69 -20 140v71q23 -23 55 -36t68 -13q55 0 99.5 16.5t76 47t48.5 74 t17 98.5zM447 220q0 -40 -3.5 -76t-14 -63t-31 -43t-54.5 -16q-22 0 -42 8t-35 21.5t-23.5 32.5t-8.5 40v238q14 26 40 41t55 15q35 0 58 -16t36 -43t18 -63t5 -76z" />
<glyph unicode="&#xff;" horiz-adv-x="606" d="M571 456q-55 -8 -110 -12t-110 -4v-38h44q20 -69 20 -140v-128q-18 -34 -46 -57q-15 -14 -33 -22t-38 -8q-24 0 -43.5 12t-19.5 34v169q0 96 20 194q-55 -8 -109.5 -12t-110.5 -4v-38h44q20 -69 20 -140v-191q13 -23 32.5 -38.5t42.5 -25.5q-27 -11 -52 -24t-44.5 -29.5 t-31 -37.5t-11.5 -48q0 -28 15 -48.5t39 -33.5t55 -19.5t63 -6.5q70 0 132.5 25.5t109.5 69.5t74.5 104t27.5 129v174q0 49 4.5 97.5t15.5 96.5zM415 71q0 -35 1 -71.5t-4.5 -69t-20 -59t-44.5 -41.5q-67 -32 -140 -32q-32 0 -56.5 19.5t-24.5 50.5q0 43 24 78t63 50 q19 -4 44 -4q47 0 88 20.5t70 58.5zM236 558v56l-40 40h-56l-40 -40v-56l40 -40h56zM506 558v56l-40 40h-56l-40 -40v-56l40 -40h56z" />
<glyph unicode="&#x104;" horiz-adv-x="790" d="M755 -150v38q-24 -10 -53 -10q-21 0 -35.5 14.5t-14.5 35.5q0 32 24 54q15 15 36.5 16.5t42.5 1.5v38h-44q-48 67 -78 140l-158 382q-29 69 -38 140h-83q-10 -71 -38 -140l-159 -382q-15 -38 -35 -72.5t-43 -67.5h-44v-38h169v38h-44q10 71 38 140l39 93h178l38 -93 q28 -67 39 -140h-44v-38h177q-33 -14 -57.5 -35.5t-24.5 -55.5q0 -19 10 -32t26.5 -21.5t37.5 -12t43 -3.5q24 0 48 2.5t47 7.5zM399 309h-146l73 177z" />
<glyph unicode="&#x105;" horiz-adv-x="571" d="M536 -150v38q-24 -10 -53 -10q-21 0 -36 14.5t-15 35.5q0 16 6.5 29.5t17.5 24.5q18 18 42 18h38v38q-23 0 -43.5 6t-20.5 26v238q0 35 -17 62.5t-44.5 46.5t-63.5 29t-74 10q-37 0 -72.5 -7.5t-63.5 -23t-45 -39t-17 -56.5h136q0 34 16 61t46 27q28 0 45.5 -21.5 t17.5 -50.5v-102q-43 38 -101 38q-38 0 -74 -10t-64 -29t-45 -47t-17 -63t17 -62.5t45 -47t64 -29.5t74 -10q67 0 116 43q21 -19 61 -24q-18 -8 -34 -17t-28 -20t-19.5 -25t-7.5 -32q0 -19 10.5 -32t27 -21.5t37.5 -12t42 -3.5q50 0 96 10zM336 63q-12 -20 -32 -30.5 t-43 -10.5q-18 0 -32 9.5t-23.5 25.5t-14 35.5t-4.5 40.5t4.5 41t14 35.5t23.5 25t32 9.5q23 0 42 -10t33 -28v-143z" />
<glyph unicode="&#x106;" horiz-adv-x="722" d="M687 35v140h-38q0 -37 -18 -65.5t-48 -48.5t-68.5 -30.5t-78.5 -10.5q-56 0 -99.5 28t-73 74.5t-45 105.5t-15.5 122t15.5 122t45 105.5t73 74.5t99.5 28q40 0 78.5 -10.5t68.5 -30.5t48 -48.5t18 -65.5h38v140q-120 53 -251 53q-83 0 -158.5 -27.5t-133 -76.5 t-91.5 -116.5t-34 -147.5t34 -147.5t91.5 -116.5t133 -76.5t158.5 -27.5q131 0 251 53zM526 903v34h-116q0 -45 -16.5 -86.5t-46.5 -74.5h62z" />
<glyph unicode="&#x107;" horiz-adv-x="544" d="M509 60v70h-38q0 -29 -15.5 -49t-40 -33.5t-56 -19.5t-63.5 -6q-35 0 -56 16t-33 43t-16 63t-4 76t4 76t16 63t33 43t56 16q36 0 60 -27t24 -64h91v93q-83 36 -175 36q-53 0 -100 -18t-83 -49.5t-57 -74.5t-21 -94t21 -94t57 -74.5t83 -49.5t100 -18q59 0 113.5 19.5 t99.5 56.5zM386 662v34h-116q0 -45 -16.5 -86.5t-46.5 -74.5h62z" />
<glyph unicode="&#x118;" horiz-adv-x="668" d="M633 0v175h-38q0 -29 -11 -53.5t-30.5 -43.5t-45 -29.5t-53.5 -10.5h-144q-20 69 -20 140v172h95q31 0 53.5 -22t22.5 -54v-13h38v216h-38v-13q0 -32 -22.5 -54t-53.5 -22h-95v134q0 71 20 140h77q29 0 54.5 -10.5t44.5 -29.5t30 -44t11 -53h38v175h-531v-38h70 q20 -69 20 -140v-344q0 -71 -20 -140h-70v-38h334q-33 -14 -57.5 -35.5t-24.5 -55.5q0 -19 10.5 -32t27 -21.5t37.5 -12t42 -3.5q50 0 96 10v38q-24 -10 -54 -10q-20 0 -35 14.5t-15 35.5q0 32 24 54q7 7 20.5 10.5t31 5t36 2t35.5 0.5h90z" />
<glyph unicode="&#x119;" horiz-adv-x="570" d="M535 250q0 46 -21 84t-55.5 65t-79.5 42t-94 15q-51 0 -96.5 -18t-79.5 -50t-54 -75t-20 -93q0 -49 19 -91t52 -73.5t76.5 -50.5t93.5 -21q-23 -14 -37 -31.5t-14 -43.5q0 -19 10 -32t26.5 -21.5t37.5 -12t43 -3.5q24 0 48 2.5t47 7.5v38q-24 -10 -53 -10 q-21 0 -35.5 14.5t-14.5 35.5q0 32 24 54q11 11 24.5 15.5t27.5 9.5q59 23 109 65v38h-19q-39 -38 -89 -58t-104 -20q-31 0 -53.5 16.5t-37.5 43t-22 60t-7 68.5v30h348zM383 288h-194q2 28 7.5 51.5t16.5 41t28.5 27.5t43.5 10q25 0 43.5 -10t30.5 -27.5t18 -41t6 -51.5z " />
<glyph unicode="&#x12e;" horiz-adv-x="416" d="M381 0v38h-70q-20 69 -20 140v344q0 71 20 140h70v38h-346v-38h70q20 -69 20 -140v-344q0 -71 -20 -140h-70v-38h177q-33 -14 -57.5 -35.5t-24.5 -55.5q0 -19 10.5 -32t27 -21.5t37.5 -12t42 -3.5q52 0 96 10v38q-24 -10 -53 -10q-21 0 -36 14.5t-15 35.5q0 16 7 29.5 t18 24.5t24.5 15.5t29 5t31.5 -1t32 -1.5z" />
<glyph unicode="&#x12f;" horiz-adv-x="334" d="M299 -150v38q-24 -10 -53 -10q-21 0 -36 14.5t-15 35.5q0 16 7 29.5t18 24.5q18 18 41 18h38v38h-44q-20 69 -20 140v84q0 96 20 194q-55 -8 -109.5 -12t-110.5 -4v-38h44q20 -69 20 -140v-84q0 -71 -20 -140h-44v-38h133q-33 -14 -57.5 -35.5t-24.5 -55.5 q0 -19 10.5 -32t27 -21.5t37.5 -12t42 -3.5q52 0 96 10zM235 558v56l-40 40h-56l-40 -40v-56l40 -40h56z" />
<glyph unicode="&#x131;" horiz-adv-x="334" d="M299 0v38h-44q-20 69 -20 140v84q0 96 20 194q-55 -8 -109.5 -12t-110.5 -4v-38h44q20 -69 20 -140v-84q0 -71 -20 -140h-44v-38h264z" />
<glyph unicode="&#x141;" horiz-adv-x="681" d="M646 0v175h-38q0 -29 -11 -53.5t-30 -43.5t-44.5 -29.5t-54.5 -10.5h-127q-20 69 -20 140v128q28 9 54 21t45.5 28t31 37t11.5 48h-91q0 -29 -14 -51.5t-37 -39.5v173q0 71 20 140h70v38h-346v-38h70q11 -34 15.5 -69.5t4.5 -70.5v-226l-5 -2q-23 -5 -44 -16t-37 -26 t-25 -34.5t-9 -42.5h68q0 31 12 58t40 33v-88q0 -35 -4.5 -70.5t-15.5 -69.5h-70v-38h581z" />
<glyph unicode="&#x142;" horiz-adv-x="422" d="M387 440h-57q0 -38 -12.5 -59.5t-38.5 -41.5v183q0 49 4.5 97.5t15.5 96.5q-55 -8 -110 -12t-110 -4v-38h44q20 -69 20 -140v-272q-20 -9 -39 -18.5t-34.5 -21.5t-25 -27t-9.5 -36h57q0 23 15 38.5t36 29.5v-37q0 -71 -20 -140h-44v-38h264v38h-44q-20 69 -20 140v125 q20 13 39.5 27.5t34.5 31t24.5 36t9.5 42.5z" />
<glyph unicode="&#x143;" horiz-adv-x="834" d="M799 662v38h-218v-38h70q20 -69 20 -140v-300l-242 338q-47 67 -80 140h-314v-38h70q20 -69 20 -140v-344q0 -71 -20 -140h-70v-38h218v38h-70q-20 69 -20 140v344q0 55 12 108l451 -630h83v522q0 35 4.5 70.5t15.5 69.5h70zM507 903v34h-116q0 -45 -16.5 -86.5 t-46.5 -74.5h62z" />
<glyph unicode="&#x144;" horiz-adv-x="627" d="M592 0v38h-44q-11 34 -15.5 69.5t-4.5 70.5v199q-23 38 -62.5 58.5t-84.5 20.5t-83.5 -21t-62.5 -58l20 79q-55 -8 -109.5 -12t-110.5 -4v-38h44q20 -69 20 -140v-84q0 -71 -20 -140h-44v-38h264v38h-44q-20 69 -20 140v130q16 36 44 65q14 13 29.5 22.5t33.5 9.5 q20 0 35 -14.5t15 -35.5v-177q0 -71 -20 -140h-44v-38h264zM403 662v34h-116q0 -45 -16.5 -86.5t-46.5 -74.5h62z" />
<glyph unicode="&#x152;" horiz-adv-x="606" d="M589 209q0 49 -22 88.5t-58.5 70.5t-83 53.5t-95.5 37.5q-27 8 -55 17t-50.5 21.5t-37 30.5t-14.5 44q0 24 10.5 44t28.5 34t41.5 22t49.5 8q34 0 65.5 -11.5t55.5 -32.5t38 -49.5t14 -61.5h38v140q-98 53 -211 53q-49 0 -94 -16t-79 -44.5t-54.5 -67.5t-20.5 -86 q0 -42 18.5 -77t49 -63t70.5 -48t83 -33q34 -10 68.5 -21t62.5 -27t46 -38.5t18 -55.5q0 -29 -14.5 -51.5t-38 -38t-53.5 -23.5t-62 -8q-43 0 -84.5 9.5t-73.5 29t-52 48.5t-20 68h-38v-140q129 -53 268 -53q55 0 107 16t91.5 45.5t63.5 71.5t24 94zM393 903v34h-116 q0 -45 -16.5 -86.5t-46.5 -74.5h62z" />
<glyph unicode="&#x15a;" horiz-adv-x="606" d="M589 209q0 49 -22 88.5t-58.5 70.5t-83 53.5t-95.5 37.5q-27 8 -55 17t-50.5 21.5t-37 30.5t-14.5 44q0 24 10.5 44t28.5 34t41.5 22t49.5 8q34 0 65.5 -11.5t55.5 -32.5t38 -49.5t14 -61.5h38v140q-98 53 -211 53q-49 0 -94 -16t-79 -44.5t-54.5 -67.5t-20.5 -86 q0 -42 18.5 -77t49 -63t70.5 -48t83 -33q34 -10 68.5 -21t62.5 -27t46 -38.5t18 -55.5q0 -29 -14.5 -51.5t-38 -38t-53.5 -23.5t-62 -8q-43 0 -84.5 9.5t-73.5 29t-52 48.5t-20 68h-38v-140q129 -53 268 -53q55 0 107 16t91.5 45.5t63.5 71.5t24 94zM393 903v34h-116 q0 -45 -16.5 -86.5t-46.5 -74.5h62z" />
<glyph unicode="&#x153;" horiz-adv-x="461" d="M442 147q0 35 -17 62t-45 46.5t-63 32.5t-72 20q-17 3 -34 5.5t-31 8t-23 14.5t-9 24q0 29 25.5 43.5t57.5 14.5q23 0 44.5 -6.5t38 -18t26.5 -28.5t10 -38h38v93q-74 36 -157 36q-34 0 -64.5 -11t-54 -30.5t-37.5 -46t-14 -58.5q0 -30 12.5 -55t34 -44.5t49.5 -32.5 t59 -19q21 -4 43.5 -8t41 -11t30 -19t11.5 -32q0 -18 -10 -30.5t-25.5 -21t-35.5 -12t-40 -3.5q-31 0 -59.5 8.5t-50.5 24.5t-35 38.5t-13 50.5h-38v-124q93 -36 196 -36q41 0 79 11.5t67.5 32.5t47 51t17.5 68zM320 662v34h-116q0 -45 -16.5 -86.5t-46.5 -74.5h62z" />
<glyph unicode="&#x15b;" horiz-adv-x="461" d="M442 147q0 35 -17 62t-45 46.5t-63 32.5t-72 20q-17 3 -34 5.5t-31 8t-23 14.5t-9 24q0 29 25.5 43.5t57.5 14.5q23 0 44.5 -6.5t38 -18t26.5 -28.5t10 -38h38v93q-74 36 -157 36q-34 0 -64.5 -11t-54 -30.5t-37.5 -46t-14 -58.5q0 -30 12.5 -55t34 -44.5t49.5 -32.5 t59 -19q21 -4 43.5 -8t41 -11t30 -19t11.5 -32q0 -18 -10 -30.5t-25.5 -21t-35.5 -12t-40 -3.5q-31 0 -59.5 8.5t-50.5 24.5t-35 38.5t-13 50.5h-38v-124q93 -36 196 -36q41 0 79 11.5t67.5 32.5t47 51t17.5 68zM320 662v34h-116q0 -45 -16.5 -86.5t-46.5 -74.5h62z" />
<glyph unicode="&#x15e;" horiz-adv-x="606" d="M589 209q0 49 -22 88.5t-58.5 70.5t-83 53.5t-95.5 37.5q-27 8 -55 17t-50.5 21.5t-37 30.5t-14.5 44q0 24 10.5 44t28.5 34t41.5 22t49.5 8q34 0 65.5 -11.5t55.5 -32.5t38 -49.5t14 -61.5h38v140q-98 53 -211 53q-49 0 -94 -16t-79 -44.5t-54.5 -67.5t-20.5 -86 q0 -42 18.5 -77t49 -63t70.5 -48t83 -33q34 -10 68.5 -21t62.5 -27t46 -38.5t18 -55.5q0 -29 -14.5 -51.5t-38 -38t-53.5 -23.5t-62 -8q-43 0 -84.5 9.5t-73.5 29t-52 48.5t-20 68h-38v-140q57 -23 116 -36.5t120 -15.5l-25 -63l35 -14q21 16 45 16q17 0 31 -8t14 -24 q0 -21 -22 -26.5t-46 -5.5q-73 0 -140 16l-8 -37q74 -17 148 -17q28 0 56.5 2t51 9t37 21t14.5 38q0 16 -7.5 29t-20 22t-29 14t-33.5 5q-18 0 -36 -1.5t-35 -3.5l10 27q54 1 104.5 17.5t89 46.5t61.5 71t23 92z" />
<glyph unicode="&#x15f;" horiz-adv-x="461" d="M442 147q0 35 -17 62t-45 46.5t-63 32.5t-72 20q-17 3 -34 5.5t-31 8t-23 14.5t-9 24q0 29 25.5 43.5t57.5 14.5q23 0 44.5 -6.5t38 -18t26.5 -28.5t10 -38h38v93q-74 36 -157 36q-34 0 -64.5 -11t-54 -30.5t-37.5 -46t-14 -58.5q0 -30 12.5 -55t34 -44.5t49.5 -32.5 t59 -19q21 -4 43.5 -8t41 -11t30 -19t11.5 -32q0 -18 -10 -30.5t-25.5 -21t-35.5 -12t-40 -3.5q-31 0 -59.5 8.5t-50.5 24.5t-35 38.5t-13 50.5h-38v-124q81 -31 164 -35l-25 -65l35 -14q21 16 45 16q17 0 31 -8t14 -24q-1 -21 -22.5 -26.5t-45.5 -5.5q-73 0 -140 16l-9 -37 q76 -17 149 -17q28 0 56 2t50.5 9t37 21t14.5 38q0 16 -7.5 29t-20 22t-28.5 14t-34 5t-35.5 -1.5t-35.5 -3.5l12 29q39 1 75.5 13.5t64.5 33.5t45 50.5t17 65.5z" />
<glyph unicode="&#x160;" horiz-adv-x="606" d="M589 209q0 49 -22 88.5t-58.5 70.5t-83 53.5t-95.5 37.5q-27 8 -55 17t-50.5 21.5t-37 30.5t-14.5 44q0 24 10.5 44t28.5 34t41.5 22t49.5 8q34 0 65.5 -11.5t55.5 -32.5t38 -49.5t14 -61.5h38v140q-98 53 -211 53q-49 0 -94 -16t-79 -44.5t-54.5 -67.5t-20.5 -86 q0 -42 18.5 -77t49 -63t70.5 -48t83 -33q34 -10 68.5 -21t62.5 -27t46 -38.5t18 -55.5q0 -29 -14.5 -51.5t-38 -38t-53.5 -23.5t-62 -8q-43 0 -84.5 9.5t-73.5 29t-52 48.5t-20 68h-38v-140q129 -53 268 -53q55 0 107 16t91.5 45.5t63.5 71.5t24 94zM453 902h-45l-67 -102 l-66 102h-122l82 -126h136z" />
<glyph unicode="&#x161;" horiz-adv-x="461" d="M442 147q0 35 -17 62t-45 46.5t-63 32.5t-72 20q-17 3 -34 5.5t-31 8t-23 14.5t-9 24q0 29 25.5 43.5t57.5 14.5q23 0 44.5 -6.5t38 -18t26.5 -28.5t10 -38h38v93q-74 36 -157 36q-34 0 -64.5 -11t-54 -30.5t-37.5 -46t-14 -58.5q0 -30 12.5 -55t34 -44.5t49.5 -32.5 t59 -19q21 -4 43.5 -8t41 -11t30 -19t11.5 -32q0 -18 -10 -30.5t-25.5 -21t-35.5 -12t-40 -3.5q-31 0 -59.5 8.5t-50.5 24.5t-35 38.5t-13 50.5h-38v-124q93 -36 196 -36q41 0 79 11.5t67.5 32.5t47 51t17.5 68zM381 661h-45l-67 -102l-66 102h-122l82 -126h136z" />
<glyph unicode="&#x162;" horiz-adv-x="734" d="M699 525v175h-664v-175h38q0 28 11 53t30 44t44.5 29.5t54.5 10.5h51q20 -69 20 -140v-344q0 -71 -20 -140h-70v-38h346v38h-70q-11 34 -15.5 69.5t-4.5 70.5v344q0 35 4.5 70.5t15.5 69.5h51q28 0 53.5 -10.5t45 -29.5t30.5 -44t11 -53h38zM435 -141v56l-40 40h-56 l-40 -40v-56l40 -40h44q0 -18 -6.5 -33.5t-18 -27.5t-26.5 -19t-33 -7l19 -33q52 17 84.5 60.5t32.5 99.5z" />
<glyph unicode="&#x163;" horiz-adv-x="363" d="M328 10v38h-19q-22 -10 -43 -10q-25 0 -38 23t-13 51v290h113v38h-113v123h-68q0 -32 -19 -57t-49 -25v-41h-44v-38h44v-330q0 -25 10.5 -41.5t29 -27t43.5 -15t53 -4.5q59 0 113 26zM288 -141v56l-39 40h-57l-40 -40v-56l40 -40h45q0 -18 -6.5 -33.5t-18 -27.5 t-26.5 -19t-33 -7l18 -33q53 17 85 60.5t32 99.5z" />
<glyph unicode="&#x172;" horiz-adv-x="803" d="M768 662v38h-218v-38h70q20 -69 20 -140v-344q0 -36 -16.5 -64.5t-44 -49t-63 -31.5t-73.5 -11q-71 0 -111.5 42t-40.5 114v344q0 71 20 140h70v38h-346v-38h70q20 -69 20 -140v-344q0 -51 20.5 -87.5t57 -60t85.5 -34.5t106 -12q-23 -14 -37 -31.5t-14 -43.5 q0 -19 10 -32t26.5 -21.5t37.5 -12t43 -3.5q24 0 48 2.5t47 7.5v38q-24 -10 -53 -10q-21 0 -35.5 14.5t-14.5 35.5q0 32 24 54q11 11 25.5 12t28.5 6q67 18 107.5 61t40.5 117v344q0 71 20 140h70z" />
<glyph unicode="&#x173;" horiz-adv-x="640" d="M605 -150v38q-24 -10 -54 -10q-20 0 -35 14.5t-15 35.5q0 32 24 54q14 14 36 16t44 2v38h-44q-11 34 -15.5 69.5t-4.5 70.5v84q0 49 4.5 97.5t15.5 96.5q-55 -8 -110 -12t-110 -4v-38h44q20 -69 20 -140v-134q-17 -33 -45 -60q-14 -13 -31 -22t-37 -9q-23 0 -40 13.5 t-17 34.5v177q0 96 20 194q-55 -8 -109.5 -12t-110.5 -4v-38h44q20 -69 20 -140v-199q23 -40 64.5 -59.5t88.5 -19.5q45 0 85.5 20.5t67.5 58.5v-63h69q-33 -14 -57.5 -35.5t-24.5 -55.5q0 -19 10.5 -32t27 -21.5t37.5 -12t42 -3.5q50 0 96 10z" />
<glyph unicode="&#x178;" horiz-adv-x="499" d="M464 0v140h-38q0 -24 -12 -43t-31.5 -32t-44.5 -20t-52 -7h-55l4 6l144 291q10 20 27.5 32.5t38.5 15.5v57h-391v-140h38q0 24 12 43t31.5 32t44.5 20t52 7h29q-2 -4 -4 -6l-144 -291q-11 -23 -32 -35.5t-46 -12.5v-57h429zM339 662v34h-116q0 -45 -16.5 -86.5 t-46.5 -74.5h62z" />
<glyph unicode="&#x17a;" horiz-adv-x="499" d="M464 0v140h-38q0 -24 -12 -43t-31.5 -32t-44.5 -20t-52 -7h-55l4 6l144 291q10 20 27.5 32.5t38.5 15.5v57h-391v-140h38q0 24 12 43t31.5 32t44.5 20t52 7h29q-2 -4 -4 -6l-144 -291q-11 -23 -32 -35.5t-46 -12.5v-57h429zM339 662v34h-116q0 -45 -16.5 -86.5 t-46.5 -74.5h62z" />
<glyph unicode="&#x179;" horiz-adv-x="691" d="M656 0v175h-38q0 -29 -11 -53.5t-30 -43.5t-44.5 -29.5t-54.5 -10.5h-198q5 7 9 13.5t7 14.5l247 494q23 48 75 64v76h-545v-175h38q0 28 11 53t30 44t44.5 29.5t54.5 10.5h161q-5 -7 -9 -13.5t-8 -14.5l-247 -494q-16 -32 -47 -49.5t-66 -14.5v-76h621zM435 903v34h-116 q0 -45 -16.5 -86.5t-46.5 -74.5h62z" />
<glyph unicode="&#x17b;" horiz-adv-x="691" d="M656 0v175h-38q0 -29 -11 -53.5t-30 -43.5t-44.5 -29.5t-54.5 -10.5h-198q5 7 9 13.5t7 14.5l247 494q23 48 75 64v76h-545v-175h38q0 28 11 53t30 44t44.5 29.5t54.5 10.5h161q-5 -7 -9 -13.5t-8 -14.5l-247 -494q-16 -32 -47 -49.5t-66 -14.5v-76h621zM414 799v56 l-40 40h-56l-40 -40v-56l40 -40h56z" />
<glyph unicode="&#x17c;" horiz-adv-x="499" d="M464 0v140h-38q0 -24 -12 -43t-31.5 -32t-44.5 -20t-52 -7h-55l4 6l144 291q10 20 27.5 32.5t38.5 15.5v57h-391v-140h38q0 24 12 43t31.5 32t44.5 20t52 7h29q-2 -4 -4 -6l-144 -291q-11 -23 -32 -35.5t-46 -12.5v-57h429zM318 558v56l-40 40h-56l-40 -40v-56l40 -40h56 z" />
<glyph unicode="&#x17d;" horiz-adv-x="691" d="M656 0v175h-38q0 -29 -11 -53.5t-30 -43.5t-44.5 -29.5t-54.5 -10.5h-198q5 7 9 13.5t7 14.5l247 494q23 48 75 64v76h-545v-175h38q0 28 11 53t30 44t44.5 29.5t54.5 10.5h161q-5 -7 -9 -13.5t-8 -14.5l-247 -494q-16 -32 -47 -49.5t-66 -14.5v-76h621zM496 902h-45 l-67 -102l-66 102h-122l82 -126h136z" />
<glyph unicode="&#x17e;" horiz-adv-x="499" d="M464 0v140h-38q0 -24 -12 -43t-31.5 -32t-44.5 -20t-52 -7h-55l4 6l144 291q10 20 27.5 32.5t38.5 15.5v57h-391v-140h38q0 24 12 43t31.5 32t44.5 20t52 7h29q-2 -4 -4 -6l-144 -291q-11 -23 -32 -35.5t-46 -12.5v-57h429zM400 661h-45l-67 -102l-66 102h-122l82 -126 h136z" />
<glyph unicode="&#x192;" horiz-adv-x="806" d="M771 662v38h-237v-38h70q0 -19 -3 -38t-11 -36q-8 -20 -22.5 -37.5t-28.5 -34.5q-47 -59 -72 -135l-6 22t-7 22q-20 57 -50.5 108.5t-62.5 102.5q-6 8 -2 17t14 9h70v38h-388v-38h47q90 -67 152 -163q39 -60 62.5 -127t23.5 -139v-55q0 -71 -20 -140h-70v-38h346v38h-70 q-11 34 -15.5 69.5t-4.5 70.5v55q0 57 16 110.5t42 104.5q66 125 174 214h53zM381 799v56l-40 40h-56l-40 -40v-56l40 -40h56zM651 799v56l-40 40h-56l-40 -40v-56l40 -40h56z" />
<glyph unicode="&#x237;" horiz-adv-x="334" d="M299 402v38h-264v-38h44q20 -69 20 -140v-359q0 -18 -0.5 -37t-4.5 -34t-12 -24.5t-24 -9.5q-17 0 -19 18.5t-2 38.5h-68q0 -18 4.5 -35t13.5 -30.5t21.5 -21.5t28.5 -8q44 0 80.5 20t62.5 53t40.5 76.5t14.5 90.5v262q0 71 20 140h44z" />
<glyph unicode="&#x2c6;" d="M363 535l-82 126h-136l-82 -126h45l67 102l66 -102h122z" />
<glyph unicode="&#x2c7;" d="M363 661h-45l-67 -102l-66 102h-122l82 -126h136z" />
<glyph unicode="&#x2c9;" d="M302 532v38h-179v-38h179z" />
<glyph unicode="&#x2d8;" d="M302 675h-34q0 -23 -16.5 -38t-39.5 -15t-39 15t-16 38h-34q0 -23 6 -45t17.5 -39t28 -27t37.5 -10t37.5 10t28.5 27t18 39t6 45z" />
<glyph unicode="&#x2d9;" d="M281 558v56l-40 40h-56l-40 -40v-56l40 -40h56z" />
<glyph unicode="&#x2da;" d="M319 597v88l-62 62h-88l-62 -62v-88l62 -62h88zM281 613l-40 -40h-56l-40 40v56l40 40h56l40 -40v-56z" />
<glyph unicode="&#x2db;" d="M319 -150v38q-24 -10 -54 -10q-20 0 -35 14.5t-15 35.5q0 32 24 54.5t56 33.5h-67q-22 -8 -43.5 -17.5t-39 -22t-28.5 -29t-11 -38.5q0 -19 10.5 -32t27 -21.5t37.5 -12t42 -3.5q50 0 96 10z" />
<glyph unicode="&#x2dc;" d="M338 680h-38q-17 -12 -37 -12q-26 0 -50 6t-50 6q-17 0 -30.5 -7.5t-23.5 -19.5t-15.5 -28t-5.5 -33h38q16 12 37 12q26 0 50 -6t50 -6q16 0 30 7.5t24 19.5t15.5 28t5.5 33z" />
<glyph unicode="&#x2dd;" d="M177 662v34h-116q0 -45 -16.5 -86.5t-46.5 -74.5h62zM427 662v34h-116q0 -45 -16.5 -86.5t-46.5 -74.5h62z" />
<glyph unicode="&#x2013;" horiz-adv-x="420" d="M420 199v51h-420v-51h420z" />
<glyph unicode="&#x2014;" horiz-adv-x="840" d="M840 199v51h-840v-51h840z" />
<glyph unicode="&#x2018;" horiz-adv-x="276" d="M70 500v-56l40 -40h56l40 40v56l-40 40h-45q8 38 30 71t55 56l-19 33q-54 -31 -85.5 -84t-31.5 -116z" />
<glyph unicode="&#x2019;" horiz-adv-x="276" d="M206 604v56l-40 40h-56l-40 -40v-56l40 -40h45q-8 -38 -30 -71t-55 -56l19 -33q54 31 85.5 84t31.5 116z" />
<glyph unicode="&#x201a;" horiz-adv-x="662" d="M627 0v38h-44q-20 69 -20 140v344q0 96 20 194q-39 -11 -79.5 -15t-81.5 -1t-80.5 9.5t-80.5 6.5q-40 0 -70 -20.5t-50.5 -53.5t-31 -76t-10.5 -88v-38h-64v-38h64v-224q0 -71 -20 -140h-44v-38h293v38h-73q-20 69 -20 140v224h93v38h-93q0 22 -2.5 43.5t-5.5 42.5 q-3 22 -5.5 43.5t-2.5 43.5q0 27 20.5 46t49.5 19q23 0 45.5 -5.5t41 -16t31 -26.5t15.5 -37q2 -18 3.5 -35.5t1.5 -35.5v-344q0 -71 -20 -140h-44v-38h264z" />
<glyph unicode="&#xfb02;" horiz-adv-x="662" d="M627 0v38h-44q-20 69 -20 140v344q0 96 20 194q-39 -11 -79.5 -15t-81.5 -1t-80.5 9.5t-80.5 6.5q-40 0 -70 -20.5t-50.5 -53.5t-31 -76t-10.5 -88v-38h-64v-38h64v-224q0 -71 -20 -140h-44v-38h293v38h-73q-20 69 -20 140v224h93v38h-93q0 22 -2.5 43.5t-5.5 42.5 q-3 22 -5.5 43.5t-2.5 43.5q0 27 20.5 46t49.5 19q23 0 45.5 -5.5t41 -16t31 -26.5t15.5 -37q2 -18 3.5 -35.5t1.5 -35.5v-344q0 -71 -20 -140h-44v-38h264z" />
<glyph unicode="&#xf002;" horiz-adv-x="662" d="M627 0v38h-44q-20 69 -20 140v344q0 96 20 194q-39 -11 -79.5 -15t-81.5 -1t-80.5 9.5t-80.5 6.5q-40 0 -70 -20.5t-50.5 -53.5t-31 -76t-10.5 -88v-38h-64v-38h64v-224q0 -71 -20 -140h-44v-38h293v38h-73q-20 69 -20 140v224h93v38h-93q0 22 -2.5 43.5t-5.5 42.5 q-3 22 -5.5 43.5t-2.5 43.5q0 27 20.5 46t49.5 19q23 0 45.5 -5.5t41 -16t31 -26.5t15.5 -37q2 -18 3.5 -35.5t1.5 -35.5v-344q0 -71 -20 -140h-44v-38h264z" />
<glyph unicode="&#x201c;" horiz-adv-x="526" d="M70 500v-56l40 -40h56l40 40v56l-40 40h-45q8 38 30 71t55 56l-19 33q-54 -31 -85.5 -84t-31.5 -116zM320 500v-56l40 -40h56l40 40v56l-40 40h-45q8 38 30 71t55 56l-19 33q-54 -31 -85.5 -84t-31.5 -116z" />
<glyph unicode="&#x201d;" horiz-adv-x="526" d="M206 604v56l-40 40h-56l-40 -40v-56l40 -40h45q-8 -38 -30 -71t-55 -56l19 -33q54 31 85.5 84t31.5 116zM456 604v56l-40 40h-56l-40 -40v-56l40 -40h45q-8 -38 -30 -71t-55 -56l19 -33q54 31 85.5 84t31.5 116z" />
<glyph unicode="&#x201e;" horiz-adv-x="526" d="M206 40v56l-40 40h-56l-40 -40v-56l40 -40h45q-8 -38 -30 -71t-55 -56l19 -33q54 31 85.5 84t31.5 116zM456 40v56l-40 40h-56l-40 -40v-56l40 -40h45q-8 -38 -30 -71t-55 -56l19 -33q54 31 85.5 84t31.5 116z" />
<glyph unicode="&#x2020;" horiz-adv-x="626" d="M371 638v67l-58 33l-58 -33v-67l46 -163h24zM115 498h-67l-33 -58l33 -58h67l163 46v24zM511 382h67l33 58l-33 58h-67l-163 -46v-24zM371 181v141l-58 71l-58 -71v-141l46 -347h24z" />
<glyph unicode="&#x2021;" horiz-adv-x="626" d="M371 638v67l-58 33l-58 -33v-67l46 -163h24zM115 498h-67l-33 -58l33 -58h67l163 46v24zM511 382h67l33 58l-33 58h-67l-163 -46v-24zM115 58h-67l-33 -58l33 -58h67l163 46v24zM511 -58h67l33 58l-33 58h-67l-163 -46v-24zM255 -198v-67l58 -33l58 33v67l-46 163h-24z M288 68h50v304h-50v-304z" />
<glyph unicode="&#x2022;" horiz-adv-x="688" d="M548 166v169l-119 119h-169l-120 -119v-169l120 -120h169z" />
<glyph unicode="&#x2026;" horiz-adv-x="782" d="M171 40v56l-40 40h-56l-40 -40v-56l40 -40h56zM459 40v56l-40 40h-56l-40 -40v-56l40 -40h56zM747 40v56l-40 40h-56l-40 -40v-56l40 -40h56z" />
<glyph unicode="&#x2030;" horiz-adv-x="1193" d="M670 700h-62l-502 -700h62zM383 535q0 37 -13.5 70t-37 57.5t-55.5 39t-68 14.5t-68 -14.5t-55.5 -39t-37 -57.5t-13.5 -70t13.5 -70t37 -57.5t55.5 -39t68 -14.5t68 14.5t55.5 39t37 57.5t13.5 70zM741 165q0 37 -13.5 70t-37 57.5t-55.5 39t-68 14.5q-37 0 -68.5 -14.5 t-55 -39t-37 -57.5t-13.5 -70t13.5 -70t37 -57.5t55 -39t68.5 -14.5q36 0 68 14.5t55.5 39t37 57.5t13.5 70zM1158 165q0 37 -13.5 70t-37 57.5t-55.5 39t-68 14.5t-68 -14.5t-55.5 -39t-37 -57.5t-13.5 -70t13.5 -70t37 -57.5t55.5 -39t68 -14.5t68 14.5t55.5 39t37 57.5 t13.5 70zM269 535q0 -28 -0.5 -53.5t-5.5 -45.5t-17.5 -32t-36.5 -12t-36.5 12t-17.5 32t-5.5 45.5t-0.5 53.5t0.5 53.5t5.5 45.5t17.5 32t36.5 12t36.5 -12t17.5 -32t5.5 -45.5t0.5 -53.5zM627 165q0 -28 -0.5 -53.5t-5.5 -45.5t-17.5 -32t-36.5 -12t-36.5 12t-17.5 32 t-5.5 45.5t-0.5 53.5t0.5 53.5t5.5 45.5t17.5 32t36.5 12t36.5 -12t17.5 -32t5.5 -45.5t0.5 -53.5zM1044 165q0 -28 -0.5 -53.5t-5.5 -45.5t-17.5 -32t-36.5 -12t-36.5 12t-17.5 32t-5.5 45.5t-0.5 53.5t0.5 53.5t5.5 45.5t17.5 32t36.5 12t36.5 -12t17.5 -32t5.5 -45.5 t0.5 -53.5z" />
<glyph unicode="&#x2122;" horiz-adv-x="670" d="M635 0v60l-181 115q23 47 35.5 98.5t12.5 107.5t-12.5 107.5t-35.5 98.5l181 115v60l-206 -131q-14 22 -30 42t-34 38l-36 -36q32 -31 57 -71l-351 -223l351 -223q-25 -40 -57 -71l36 -36q38 38 64 80zM451 381q0 -94 -40 -179l-282 179l282 179q40 -83 40 -179z" />
<glyph unicode="&#x2212;" horiz-adv-x="495" d="M460 225v50h-425v-50h425z" />
<glyph unicode="&#x2264;" horiz-adv-x="495" d="M460 78v60l-378 240l378 240v60l-425 -270v-60zM460 -178v60l-425 270v-60z" />
<glyph unicode="&#x2265;" horiz-adv-x="495" d="M460 348v60l-425 270v-60l378 -240l-378 -240v-60zM460 92v60l-425 -270v-60z" />
<glyph unicode="&#x25fc;" horiz-adv-x="440" d="M0 440h440v-440h-440v440z" />
<glyph unicode="&#xf001;" horiz-adv-x="662" d="M627 0v38h-44q-20 69 -20 140v84q0 96 20 194q-55 -8 -109.5 -12t-110.5 -4h-128q0 22 -2.5 43.5t-5.5 42.5q-3 22 -5.5 43.5t-2.5 43.5q0 18 10 30t26 20t36 11.5t41 3.5q18 0 35 -4t30.5 -12t21.5 -20t8 -28v-56l40 -40h56l40 40v56l-40 40q-37 37 -87.5 49.5 t-103.5 12.5q-32 0 -63.5 -5.5t-59 -17.5t-49.5 -32t-35 -48q-13 -29 -19.5 -64t-6.5 -71v-38h-64v-38h64v-224q0 -71 -20 -140h-44v-38h293v38h-73q-20 69 -20 140v224h172q20 -69 20 -140v-84q0 -71 -20 -140h-44v-38h264z" />
<glyph unicode="&#xfb01;" horiz-adv-x="662" d="M627 0v38h-44q-20 69 -20 140v84q0 96 20 194q-55 -8 -109.5 -12t-110.5 -4h-128q0 22 -2.5 43.5t-5.5 42.5q-3 22 -5.5 43.5t-2.5 43.5q0 18 10 30t26 20t36 11.5t41 3.5q18 0 35 -4t30.5 -12t21.5 -20t8 -28v-56l40 -40h56l40 40v56l-40 40q-37 37 -87.5 49.5 t-103.5 12.5q-32 0 -63.5 -5.5t-59 -17.5t-49.5 -32t-35 -48q-13 -29 -19.5 -64t-6.5 -71v-38h-64v-38h64v-224q0 -71 -20 -140h-44v-38h293v38h-73q-20 69 -20 140v224h172q20 -69 20 -140v-84q0 -71 -20 -140h-44v-38h264z" />
<glyph unicode="&#xfb00;" horiz-adv-x="691" d="M737 613q0 25 -12.5 44.5t-33.5 32.5t-47.5 19.5t-54.5 6.5q-40 0 -70 -20.5t-50.5 -53.5t-31 -76t-10.5 -88v-38h-192q0 22 -2.5 43.5t-5.5 42.5q-3 22 -5.5 43.5t-2.5 43.5q0 24 10.5 44.5t31.5 20.5t28 -21t7 -44h113q0 25 -12.5 44.5t-33.5 32.5t-47.5 19.5 t-54.5 6.5q-40 0 -70 -20.5t-50.5 -53.5t-31 -76t-10.5 -88v-38h-64v-38h64v-224q0 -71 -20 -140h-44v-38h293v38h-73q-20 69 -20 140v224h192v-224q0 -71 -20 -140h-44v-38h293v38h-73q-20 69 -20 140v224h93v38h-93q0 22 -2.5 43.5t-5.5 42.5q-3 22 -5.5 43.5t-2.5 43.5 q0 24 10.5 44.5t31.5 20.5t28 -21t7 -44h113z" />
<glyph unicode="&#xfb03;" horiz-adv-x="990" d="M955 0v38h-44q-20 69 -20 140v84q0 96 20 194q-55 -8 -109.5 -12t-110.5 -4h-128q0 22 -2.5 43.5t-5.5 42.5q-3 22 -5.5 43.5t-2.5 43.5q0 18 10 30t26 20t36 11.5t41 3.5q18 0 35 -4t30.5 -12t21.5 -20t8 -28v-56l40 -40h56l40 40v56l-40 40q-37 37 -87.5 49.5 t-103.5 12.5q-32 0 -63.5 -5.5t-59 -17.5t-49.5 -32t-35 -48q-13 -29 -19.5 -64t-6.5 -71v-38h-192q0 22 -2.5 43.5t-5.5 42.5q-3 22 -5.5 43.5t-2.5 43.5q0 24 10.5 44.5t31.5 20.5t28 -21t7 -44h113q0 25 -12.5 44.5t-33.5 32.5t-47.5 19.5t-54.5 6.5q-40 0 -70 -20.5 t-50.5 -53.5t-31 -76t-10.5 -88v-38h-64v-38h64v-224q0 -71 -20 -140h-44v-38h293v38h-73q-20 69 -20 140v224h192v-224q0 -71 -20 -140h-44v-38h293v38h-73q-20 69 -20 140v224h172q20 -69 20 -140v-84q0 -71 -20 -140h-44v-38h264z" />
<glyph unicode="&#xfb04;" horiz-adv-x="990" d="M955 0v38h-44q-20 69 -20 140v344q0 96 20 194q-39 -11 -79.5 -15t-81.5 -1t-80.5 9.5t-80.5 6.5q-40 0 -70 -20.5t-50.5 -53.5t-31 -76t-10.5 -88v-38h-192q0 22 -2.5 43.5t-5.5 42.5q-3 22 -5.5 43.5t-2.5 43.5q0 24 10.5 44.5t31.5 20.5t28 -21t7 -44h113 q0 25 -12.5 44.5t-33.5 32.5t-47.5 19.5t-54.5 6.5q-40 0 -70 -20.5t-50.5 -53.5t-31 -76t-10.5 -88v-38h-64v-38h64v-224q0 -71 -20 -140h-44v-38h293v38h-73q-20 69 -20 140v224h192v-224q0 -71 -20 -140h-44v-38h293v38h-73q-20 69 -20 140v224h93v38h-93q0 22 -2.5 43.5 t-5.5 42.5q-3 22 -5.5 43.5t-2.5 43.5q0 27 20.5 46t49.5 19q23 0 45.5 -5.5t41 -16t31 -26.5t15.5 -37q2 -18 3.5 -35.5t1.5 -35.5v-344q0 -71 -20 -140h-44v-38h264z" />
<glyph horiz-adv-x="937" d="M902 0v38h-38q-17 0 -26.5 10t-14 25.5t-6 35t-2.5 38.5q-3 32 -16 55t-34.5 38t-50 23t-61.5 10q16 14 29.5 28.5t27.5 30.5q26 31 52.5 50.5t66.5 19.5h22v38h-196v-38h44q0 -19 -10.5 -34.5t-23.5 -29.5q-21 -23 -45.5 -43.5t-56.5 -20.5v248q0 96 20 194 q-39 -11 -79.5 -15t-81.5 -1t-80.5 9.5t-80.5 6.5q-40 0 -70 -20.5t-50.5 -53.5t-31 -76t-10.5 -88v-38h-64v-38h64v-224q0 -71 -20 -140h-44v-38h293v38h-73q-20 69 -20 140v224h93v38h-93q0 22 -2.5 43.5t-5.5 42.5q-3 22 -5.5 43.5t-2.5 43.5q0 27 20.5 46t49.5 19 q23 0 45.5 -5.5t41 -16t31 -26.5t15.5 -37q2 -18 3.5 -35.5t1.5 -35.5v-344q0 -71 -20 -140h-44v-38h264v38h-44q-20 69 -20 140v58h68q15 0 24 -8.5t14 -22t7 -30.5t3 -33q0 -12 2 -24l4 -24q4 -18 10.5 -34.5t16.5 -30t23.5 -21.5t30.5 -8h136z" />
</font>
</defs>
</svg>
