<?xml version="1.0" standalone="no"?>
<!DOCTYPE svg PUBLIC "-//W3C//DTD SVG 1.1//EN" "http://www.w3.org/Graphics/SVG/1.1/DTD/svg11.dtd" >
<svg xmlns="http://www.w3.org/2000/svg">
<metadata></metadata>
<defs>
<font id="glegooregular" horiz-adv-x="580" >
<font-face units-per-em="1000" ascent="800" descent="-200" />
<missing-glyph horiz-adv-x="285" />
<glyph unicode="&#xd;" horiz-adv-x="333" />
<glyph unicode=" "  horiz-adv-x="285" />
<glyph unicode="&#x09;" horiz-adv-x="285" />
<glyph unicode="&#xa0;" horiz-adv-x="285" />
<glyph unicode="!" horiz-adv-x="316" d="M125.5 2q-11.5 10 -13.5 20.5t-2 32.5t9 38t39.5 16t39.5 -19q5 -10 6.5 -18.5t1.5 -28.5t-9 -35.5t-34.5 -15.5t-37 10zM117 730h80v-158l-18 -387h-44l-18 387v158z" />
<glyph unicode="&#x22;" horiz-adv-x="400" d="M240 730h80v-80l-18 -159h-44l-18 159v80zM80 730h80v-80l-18 -159h-44l-18 159v80z" />
<glyph unicode="#" horiz-adv-x="795" d="M438 -106l46 256h-239l-46 -256h-71l46 256h-114l10 59h115l45 251h-116l10 59h117l47 256h71l-47 -256h239l47 256h71l-47 -256h113l-10 -59h-114l-45 -251h115l-10 -59h-116l-46 -256h-71zM301 460l-45 -251h239l45 251h-239z" />
<glyph unicode="$" d="M267 -74v61q-105 5 -149.5 57.5t-44.5 150.5h72q0 -68 26.5 -104t95.5 -42v257l-21 3q-87 13 -125 57t-38 129.5t42 134t142 53.5v61h50v-61q99 -7 142 -59t43 -149h-72q0 68 -24.5 104t-88.5 42v-257l21 -3q92 -14 133 -58t41 -127.5t-45.5 -133.5t-149.5 -55v-61h-50z M440 181q0 96 -102 114l-21 3v-249q69 4 96 36.5t27 95.5zM155 489q0 -99 91 -114l21 -3v249q-64 -6 -88 -38t-24 -94z" />
<glyph unicode="%" horiz-adv-x="982" d="M348 -66l214 801h53l-215 -801h-52zM765 -8q-47 0 -76.5 14t-43.5 44.5t-18.5 64t-4.5 88t4.5 88t18.5 63.5q27 59 120 59q74 0 107 -37q28 -31 34 -102q3 -28 3 -77t-4.5 -82.5t-18.5 -64t-44 -44.5t-77 -14zM693.5 73.5q16.5 -37.5 72 -37.5t72 37.5t16.5 129 t-16.5 129t-72 37.5t-72 -37.5t-16.5 -129t16.5 -129zM214 263q-47 0 -76.5 14t-43.5 44.5t-18.5 64t-4.5 88t4.5 88t18.5 64.5q27 58 120 58q74 0 107 -36q28 -32 35 -102q2 -29 2 -78t-4.5 -82.5t-18.5 -64t-44 -44.5t-77 -14zM142.5 344.5q16.5 -37.5 72 -37.5t72 37.5 t16.5 129t-16.5 129t-72 37.5t-72 -37.5t-16.5 -129t16.5 -129z" />
<glyph unicode="&#x26;" horiz-adv-x="609" d="M55 182q0 70 31 116t83 66q-44 23 -69.5 65t-25.5 96q0 189 201 189q188 0 188 -194h-62q0 135 -125 135q-73 0 -102.5 -34t-29.5 -96t34.5 -101t93.5 -39h337v-54h-113v-152q0 -96 -49 -144.5t-166 -48.5q-226 0 -226 196zM125 178q0 -133 156 -133q82 0 117.5 34.5 t35.5 99.5v152h-171q-72 0 -105 -41.5t-33 -111.5z" />
<glyph unicode="'" horiz-adv-x="240" d="M80 730h80v-80l-18 -159h-44l-18 159v80z" />
<glyph unicode="(" horiz-adv-x="294" d="M289 -4v-62q-101 0 -147 48q-50 52 -64 138q-13 80 -13 189t4 164t17 109t37 84q54 69 166 69v-62q-66 0 -97 -41q-43 -59 -48 -198q-2 -40 -2 -99t1.5 -99.5t7 -82t15.5 -68t26 -47.5q31 -42 97 -42z" />
<glyph unicode=")" horiz-adv-x="294" d="M5 673v62q101 0 147 -49q50 -51 64 -137q13 -80 13 -189t-4 -164t-17 -109t-37 -85q-54 -68 -166 -68v62q66 0 97 42q43 58 48 197q2 40 2 99t-1.5 99.5t-7 82t-15.5 68t-26 48.5q-31 41 -97 41z" />
<glyph unicode="*" horiz-adv-x="552" d="M236 779h80v-79l-28 -123h-24l-28 123v79zM27 570l25 75l75 -24l109 -65l-8 -22l-126 11zM162 306l-64 47l46 65l95 83l19 -15l-49 -116zM454 353l-64 -47l-47 64l-50 116l20 14l95 -82zM500 645l25 -75l-75 -25l-126 -12l-7 23l107 65z" />
<glyph unicode="+" d="M94 288v60h166v166h60v-166h166v-60h-166v-166h-60v166h-166z" />
<glyph unicode="," horiz-adv-x="226" d="M77 -14l-12 64q0 18 2 28.5t13 20.5t37 10t35 -16t9 -43.5t-10.5 -55.5t-24.5 -48q-33 -43 -54 -58l-11 -8l-23 27q13 12 20 20q19 22 19 59z" />
<glyph unicode="-" horiz-adv-x="492" d="M70 288v60h352v-60h-352z" />
<glyph unicode="." horiz-adv-x="226" d="M65 50q0 18 2 28.5t13 20.5t37 10t35 -16t9 -35.5t-1.5 -28t-5.5 -17.5q-10 -20 -49.5 -20t-39.5 58z" />
<glyph unicode="/" horiz-adv-x="308" d="M0 -106l237 881h71l-237 -881h-71z" />
<glyph unicode="0" d="M392.5 3q-42.5 -17 -98.5 -17t-94 10.5t-62.5 33.5t-40.5 50.5t-24 70.5t-10.5 84t-2.5 100t2.5 99.5t10.5 83.5t24 70.5t41 50.5q46 44 151 44q115 0 171 -61q45 -50 55 -169q4 -47 4 -118t-4 -118t-17.5 -95t-38 -75t-67 -44zM289 45q42 0 71.5 13t46.5 34.5t26.5 60 t12.5 79.5t3 103t-3 102.5t-12.5 79t-26.5 60t-46.5 34.5t-71.5 13t-71 -13t-46.5 -34.5t-26.5 -60t-12 -79t-3 -102.5t3 -103t12 -79.5t26.5 -60t46.5 -34.5t71 -13z" />
<glyph unicode="1" d="M138 575v45q100 10 155 50h52v-611h140v-59h-352v59h140v516h-135z" />
<glyph unicode="2" d="M505 59v-59h-429v57l262 283q45 49 67.5 86t22.5 87.5t-31 81t-108 30.5t-107 -34t-30 -101h-62q0 94 46.5 144t155.5 50q206 0 206 -178q0 -58 -32 -110.5t-89 -114.5l-206 -222h334z" />
<glyph unicode="3" d="M516 167q0 -181 -226 -181q-116 0 -165.5 49.5t-49.5 143.5h62q0 -65 35.5 -99.5t117.5 -34.5q156 0 156 121q0 63 -33 101t-105 38h-106v54h107q60 0 94 37.5t34 99t-32.5 95.5t-114.5 34q-140 0 -140 -135h-62q0 194 202 194q116 0 166.5 -50t50.5 -144 q0 -53 -28.5 -93.5t-75.5 -61.5q52 -19 82.5 -61.5t30.5 -106.5z" />
<glyph unicode="4" d="M437 0h-71v150h-334v58l293 462h112v-461h84v-59h-84v-150zM366 209v402l-255 -402h255z" />
<glyph unicode="5" d="M477 670v-59h-300l-13 -211h43q162 0 234.5 -45.5t72.5 -154t-51 -161.5t-167.5 -53t-164.5 53t-48 156h62q0 -74 32 -112t115.5 -38t117.5 37.5t34 114t-53 110.5t-185 34h-109l21 329h359z" />
<glyph unicode="6" d="M513 202q0 -103 -51 -159.5t-177.5 -56.5t-175 72t-48.5 231q0 257 63 331q54 64 167 64t161 -49t49 -153h-62q0 76 -34.5 109.5t-114.5 33.5q-79 0 -116 -46q-43 -53 -43 -222q87 26 158 26q224 0 224 -181zM406 292.5q-37 34.5 -118.5 34.5t-156.5 -25 q2 -149 34.5 -203t121.5 -54t122.5 40t33.5 117q0 56 -37 90.5z" />
<glyph unicode="7" d="M86 508v162h429v-56l-264 -614h-77l264 611h-299v-103h-53z" />
<glyph unicode="8" d="M75 490q0 94 49.5 144t165.5 50t165.5 -50t49.5 -144q0 -109 -104 -151q58 -20 85.5 -60t27.5 -109q0 -184 -224 -184t-224 184q0 122 110 164q-101 38 -101 156zM257 314q-121 -21 -121 -145t154 -124t154 125q0 61 -24.5 91.5t-85.5 40.5zM435 490q0 66 -32 100.5 t-113 34.5t-113 -34.5t-32 -96t24.5 -89t86.5 -37.5l58 -10q121 21 121 132z" />
<glyph unicode="9" d="M291 684q70 0 114 -19t68 -64t32 -103.5t8 -143t-4.5 -134.5t-18 -97.5t-38.5 -75.5q-53 -61 -166.5 -61t-162.5 51.5t-50 150.5h62q0 -71 35 -107t118.5 -36t117 53t36.5 203q-78 -23 -154 -23q-225 0 -225 195q2 102 55.5 156.5t172.5 54.5zM170.5 374.5 q37.5 -39.5 117 -39.5t155.5 20q-1 163 -31 216.5t-118 53.5t-124.5 -38.5t-36.5 -105.5t37.5 -106.5z" />
<glyph unicode=":" horiz-adv-x="226" d="M65 50q0 18 2 28.5t13 20.5t37 10t35 -16t9 -35.5t-1.5 -28t-5.5 -17.5q-10 -20 -49.5 -20t-39.5 58zM65 471q0 18 2 28.5t13 20.5t37 10t35 -16t9 -35.5t-1.5 -28t-5.5 -18.5q-10 -19 -49.5 -19t-39.5 58z" />
<glyph unicode=";" horiz-adv-x="226" d="M77 -14l-12 64q0 18 2 28.5t13 20.5t37 10t35 -16t9 -43.5t-10.5 -55.5t-24.5 -48q-33 -43 -54 -58l-11 -8l-23 27q13 12 20 20q19 22 19 59zM65 471q0 18 2 28.5t13 20.5t37 10t35 -16t9 -35.5t-1.5 -28t-5.5 -18.5q-10 -19 -49.5 -19t-39.5 58z" />
<glyph unicode="&#x3c;" d="M89 279v76l402 168v-66l-343 -140l343 -140v-66z" />
<glyph unicode="=" d="M94 388v60h392v-60h-392zM94 188v60h392v-60h-392z" />
<glyph unicode="&#x3e;" d="M491 355v-76l-402 -168v66l343 140l-343 140v66z" />
<glyph unicode="?" horiz-adv-x="484" d="M190.5 2q-11.5 10 -13.5 20.5t-2 32.5t9 38t39.5 16t40.5 -19q4 -10 5.5 -18.5t1.5 -28.5t-9 -35.5t-34.5 -15.5t-37 10zM348 421q36 32 36 109.5t-32 116t-114 38.5q-136 0 -136 -113h-60q0 84 46.5 128t156 44t158.5 -53t49 -156.5t-43.5 -145.5t-135.5 -56l-16 -2 l-11 -146h-46l-7 190l51 6q68 8 104 40z" />
<glyph unicode="@" horiz-adv-x="980" d="M584 159q-65 -53 -142.5 -53t-108 32t-30.5 98t29.5 97.5t111.5 36.5l140 8v78q0 41 -23.5 58t-79 17t-76.5 -21.5t-24 -69.5l-58 2q5 72 40 108t127 36q158 0 158 -128v-478q104 24 140 118q32 85 32 230q0 77 -8 130.5t-29 100t-57.5 74t-95 42.5t-140.5 15t-140.5 -15 t-95.5 -42.5t-58 -74t-28.5 -100t-7.5 -130.5t7.5 -130.5t28.5 -100t58 -73.5q77 -58 236 -58v-55q-119 0 -197.5 25.5t-123 80.5t-62 128.5t-17.5 182.5t17.5 182.5t62 128.5t123 80.5t197.5 25.5t197.5 -25.5t123 -80.5t62 -128.5t17.5 -182.5q0 -197 -66.5 -296.5 t-239.5 -118.5v246zM452 158q71 0 132 56v118l-132 -8q-49 -3 -66.5 -21.5t-17.5 -63t19 -63t65 -18.5z" />
<glyph unicode="A" horiz-adv-x="653" d="M648 50v-50h-178v50h59l-61 186h-284l-61 -186h60v-50h-178v50h46l227 680h97l226 -680h47zM326 667l-122 -372h245z" />
<glyph unicode="B" horiz-adv-x="629" d="M360 0h-290v50h60v630h-60v50h250q155 0 198 -80q21 -40 21 -104.5t-20 -105.5t-77 -62q81 -15 109 -61.5t28 -121.5q0 -114 -59 -156q-53 -39 -160 -39zM202 59h158q88 0 117.5 35.5t29.5 105.5t-29.5 106.5t-117.5 36.5h-158v-284zM202 404h118q88 0 117.5 34t29.5 100 t-29.5 99.5t-117.5 33.5h-118v-267z" />
<glyph unicode="C" horiz-adv-x="619" d="M508 730h54v-216h-54q-6 83 -46.5 126.5t-135.5 43.5q-98 0 -144 -54q-38 -46 -46 -156q-4 -43 -4 -111t2.5 -108t13.5 -86t32 -69q49 -54 148 -54t135.5 44t39.5 122l59 -3q-4 -54 -15 -91.5t-35 -69.5q-48 -62 -176 -62q-126 0 -183 46q-30 25 -49 54.5t-28 76.5 q-16 77 -16 188.5t9.5 174.5t37 116t81.5 77.5t138 24.5q131 0 182 -88v74z" />
<glyph unicode="D" horiz-adv-x="688" d="M70 730h275q129 0 187 -45q31 -24 50 -52.5t29 -72.5q17 -76 17 -173.5t-5 -148t-21.5 -99.5t-47.5 -77q-67 -62 -209 -62h-275v50h60v630h-60v50zM345 671h-143v-612h143q69 0 112.5 20t64.5 64t27.5 93t6.5 129t-6.5 129t-27.5 93t-64.5 64t-112.5 20z" />
<glyph unicode="E" horiz-adv-x="620" d="M70 0v50h60v630h-60v50h470v-158h-56v99h-282v-270h288v-60h-288v-282h302v99h56v-158h-490z" />
<glyph unicode="F" horiz-adv-x="560" d="M70 680v50h450v-158h-56v99h-262v-270h268v-60h-268v-290h80v-51h-212v51h60v629h-60z" />
<glyph unicode="G" horiz-adv-x="671" d="M394 315v50h178v-365h-41l-11 84q-55 -98 -193 -98q-97 0 -163 34q-49 25 -78 96q-26 66 -26 249q0 78 5.5 131.5t22.5 103.5t47 80q66 64 197 64t181 -91v77h54v-216h-54q-6 79 -44.5 124.5t-131.5 45.5q-103 0 -152 -54q-41 -46 -49 -156q-4 -43 -4 -106.5t1.5 -99 t7.5 -77t18.5 -64.5t34.5 -43q39 -38 133 -38q176 0 181 166v103h-114z" />
<glyph unicode="H" horiz-adv-x="752" d="M490 0v50h60v285h-348v-285h60v-50h-192v50h60v630h-60v50h192v-50h-60v-285h348v285h-60v50h192v-50h-60v-630h60v-50h-192z" />
<glyph unicode="I" horiz-adv-x="352" d="M70 680v50h212v-50h-70v-630h70v-50h-212v50h70v630h-70z" />
<glyph unicode="J" horiz-adv-x="471" d="M214 680v50h212v-50h-60v-497q0 -122 -45 -160q-44 -37 -133 -37q-81 0 -116 29q-18 15 -29 30.5t-16 41.5q-7 36 -7 96h62q0 -77 22.5 -107t85.5 -30t83.5 29t20.5 108v497h-80z" />
<glyph unicode="K" horiz-adv-x="629" d="M427 0v50h51l-193 290h-83v-290h60v-50h-192v50h60v630h-60v50h192v-50h-60v-281h87l181 281h-53v50h182v-50h-54l-203 -312l214 -318h53v-50h-182z" />
<glyph unicode="L" horiz-adv-x="507" d="M70 680v50h212v-50h-80v-621h239v99h56v-158h-427v50h60v630h-60z" />
<glyph unicode="M" horiz-adv-x="896" d="M634 0v50h60v567l-218 -561h-72l-202 553v-559h60v-50h-192v50h60v630h-60v50h159l212 -588l226 588h159v-50h-60v-630h60v-50h-192z" />
<glyph unicode="N" horiz-adv-x="770" d="M518 680v50h192v-50h-60v-680h-80l-368 610v-560h60v-50h-192v50h60v630h-60v50h140l368 -611v561h-60z" />
<glyph unicode="O" horiz-adv-x="675" d="M337 -14q-74 0 -125 17.5t-80.5 46.5t-46 80.5t-21 103t-4.5 131t4.5 131t21 103t46 80.5t80.5 47t125 18t125 -18t81 -47t46 -80t21 -103t5 -131t-5 -131.5t-21 -103.5t-46 -80t-81 -46.5t-125 -17.5zM337 46q54 0 92 15t60.5 39.5t34.5 68t15.5 87t3.5 109.5 t-3.5 109.5t-15.5 87t-34.5 68t-60.5 39.5t-92 15t-92 -15t-60 -39.5t-34 -68t-15.5 -87t-3.5 -109.5t3.5 -109.5t15.5 -87t34 -68t60 -39.5t92 -15z" />
<glyph unicode="P" horiz-adv-x="599" d="M330 275h-128v-225h80v-50h-212v50h60v630h-60v50h260q141 0 184 -71q21 -35 28 -70t7 -81t-3.5 -75t-16.5 -61t-36 -52q-54 -45 -163 -45zM202 334h128q95 0 124 50q14 25 18.5 51t4.5 67t-4.5 67.5t-18.5 52.5q-29 49 -124 49h-128v-337z" />
<glyph unicode="Q" horiz-adv-x="675" d="M64 238q-4 50 -4 128t4.5 129.5t21 103t46 80.5t80.5 47t125 18t125 -18t81 -47t46 -80t21 -103t5 -128.5t-4 -126t-18 -98.5t-39 -79q-54 -66 -168 -76l91 -180h-75l-90 179q-127 6 -187 70q-49 53 -61 181zM337 46q54 0 92 15t60.5 39.5t34.5 68t15.5 87t3.5 109.5 t-3.5 109.5t-15.5 87t-34.5 68t-60.5 39.5t-92 15t-92 -15t-60 -39.5t-34 -68t-15.5 -87t-3.5 -109.5t3.5 -109.5t15.5 -87t34 -68t60 -39.5t92 -15z" />
<glyph unicode="R" horiz-adv-x="659" d="M281 305h-79v-255h60v-50h-192v50h60v630h-60v50h270q160 0 199 -91q13 -30 16.5 -57t3.5 -65t-4 -66t-17 -57q-25 -59 -106 -79q28 -20 49 -66l86 -199h62v-50h-117l-101 237q-18 41 -47 54.5t-83 13.5zM202 364h138q96 0 124 46q14 23 18.5 47t4.5 60.5t-4.5 60.5 t-18.5 47q-28 46 -124 46h-138v-307z" />
<glyph unicode="S" horiz-adv-x="576" d="M101 0h-54v216h54q2 -75 49 -122.5t140.5 -47.5t131 34t37.5 102.5t-27 96.5t-99 42l-90 17q-108 21 -148.5 61t-40.5 138.5t48 152.5t166 54q137 0 191 -92v78h54v-178h-54q-20 132 -176 132q-91 0 -124 -37t-33 -106t23 -95t97 -40l89 -17q110 -21 153 -62.5t43 -139 t-51.5 -149.5t-184.5 -52t-194 100v-86z" />
<glyph unicode="T" horiz-adv-x="538" d="M528 572h-56v99h-167v-621h80v-50h-232v50h80v621h-167v-99h-56v158h518v-158z" />
<glyph unicode="U" horiz-adv-x="750" d="M55 680v50h192v-50h-60v-439q0 -125 59 -163q28 -18 57.5 -24.5t71 -6.5t71 6.5t58.5 24.5q59 38 59 163v439h-60v50h192v-50h-60v-439q0 -128 -53 -189q-22 -27 -58.5 -42.5t-70 -19.5t-79.5 -4t-79 4t-69 19.5t-58 42.5q-53 61 -53 189v439h-60z" />
<glyph unicode="V" horiz-adv-x="627" d="M10 674v56h182v-56h-63l184 -613l185 613h-63v56h182v-56h-48l-207 -674h-97l-208 674h-47z" />
<glyph unicode="W" horiz-adv-x="889" d="M15 674v56h182v-56h-68l134 -615l146 671h71l146 -671l134 615h-68v56h182v-56h-43l-152 -674h-105l-130 591l-129 -591h-105l-153 674h-42z" />
<glyph unicode="X" horiz-adv-x="661" d="M432 674v56h182v-56h-55l-186 -298l204 -320h54v-56h-182v56h45l-169 265l-161 -265h48v-56h-182v56h54l203 325l-186 293h-54v56h182v-56h-45l151 -238l144 238h-47z" />
<glyph unicode="Y" horiz-adv-x="562" d="M317 56h70v-56h-212v56h70v199l-190 419h-45v56h182v-56h-62l151 -342l150 342h-61v56h182v-56h-46l-189 -419v-199z" />
<glyph unicode="Z" horiz-adv-x="545" d="M106 572h-56v158h455v-46l-383 -620h337v94h56v-158h-485v46l383 620h-307v-94z" />
<glyph unicode="[" horiz-adv-x="284" d="M80 -66v801h199v-62h-126v-677h126v-62h-199z" />
<glyph unicode="\" horiz-adv-x="308" d="M71 775l237 -881h-71l-237 881h71z" />
<glyph unicode="]" horiz-adv-x="284" d="M204 735v-801h-199v62h126v677h-126v62h199z" />
<glyph unicode="^" d="M252 618h76l148 -302h-66l-120 251l-120 -251h-66z" />
<glyph unicode="_" d="M70 -60v60h440v-60h-440z" />
<glyph unicode="`" horiz-adv-x="314" d="M264 666l-42 -42l-172 150l53 53z" />
<glyph unicode="a" horiz-adv-x="612" d="M427 65q-88 -79 -188 -79t-137.5 40t-37.5 122.5t36 120.5t137 45l185 12v100q0 101 -128 101q-85 0 -113.5 -29t-32.5 -91l-59 3q3 43 12.5 72t30.5 54q42 50 162 50q198 0 198 -160v-376h60v-50h-107zM243 43q97 0 179 78v151l-181 -11q-64 -4 -86.5 -27.5t-22.5 -82.5 t25 -83.5t86 -24.5z" />
<glyph unicode="b" horiz-adv-x="636" d="M40 700v50h130v-218q91 54 176 54q151 0 190 -128q20 -69 20 -147t-3.5 -116.5t-16.5 -80.5t-35 -68q-51 -60 -150.5 -60t-189.5 65l-14 -51h-47v700h-60zM170 475v-373q75 -57 156 -57q83 0 120 46q31 37 38 119q2 30 2 70t-2 65.5t-7 55t-15.5 51t-26.5 39.5 q-32 36 -108 36t-157 -52z" />
<glyph unicode="c" horiz-adv-x="567" d="M498 572v-202h-46q-9 79 -47 118t-116 39q-43 0 -73.5 -15t-46.5 -36.5t-25 -56.5q-14 -50 -14 -109t1.5 -83t6.5 -55t16 -51t28 -39q35 -37 117.5 -37t113 29t34.5 91l57 -3q-3 -43 -12.5 -72t-31.5 -54.5t-63 -37.5t-102 -12t-105.5 17t-69 43t-38.5 68t-18 80.5 t-4 91.5t4.5 93t19 81t38.5 67q56 59 166 59t160 -76l-1 62h51z" />
<glyph unicode="d" horiz-adv-x="636" d="M275 -14q-56 0 -96.5 17t-63 43t-35.5 68t-16.5 80.5t-3.5 91.5t3.5 91.5t17 80.5t36.5 68t64.5 43t110 17t154.5 -36v150h-60v50h130v-700h60v-50h-107l-13 60q-84 -74 -181 -74zM162 106q32 -61 121.5 -61t162.5 67v381q-73 34 -156 34q-97 0 -130 -69 q-30 -62 -30 -176.5t32 -175.5z" />
<glyph unicode="e" horiz-adv-x="588" d="M109.5 57.5q-49.5 71.5 -49.5 228.5q0 53 4 91.5t18 80.5t39 68t69 43t105 17t104.5 -17t68 -43t38.5 -68t18 -80.5t4 -91.5v-16h-398q1 -122 34.5 -173.5t128 -51.5t128.5 34.5t40 100.5l58 -3q-4 -43 -14 -73.5t-33 -59.5q-46 -58 -179.5 -58t-183 71.5zM294 527 q-50 0 -83.5 -16t-50.5 -47q-28 -52 -30 -139h327q-2 90 -29 141q-32 61 -134 61z" />
<glyph unicode="f" horiz-adv-x="343" d="M198 611v-39h120v-50h-120v-472h80v-50h-210v50h60v472h-68v50h68v34q0 78 27 113.5t112 35.5h61v-50l-61 -5q-42 -4 -55.5 -23t-13.5 -66z" />
<glyph unicode="g" d="M288 184q-59 0 -104 16l-48 -46q-26 -25 -26 -58q0 -43 53 -43h229q71 0 109.5 -34t38.5 -99q0 -45 -15.5 -76.5t-36.5 -47.5t-59.5 -25t-67.5 -10.5t-82 -1.5t-90 4.5t-71 18.5q-68 26 -68 114q0 65 58 112q-55 23 -55 83q0 49 44 93l43 41q-52 44 -52 160q0 118 53 161 q51 40 141.5 40t140.5 -25l71 71l42 -42l-67 -67q32 -44 32 -138q0 -117 -53 -161q-50 -40 -160 -40zM182.5 273q26.5 -36 112 -36t112 36t26.5 112t-26.5 112t-112 36t-112 -36t-26.5 -112t26.5 -112zM432.5 -169.5q42.5 18.5 42.5 88.5q0 81 -103 81h-215 q-46 -38 -46 -100q0 -58 51 -74q43 -14 135.5 -14t135 18.5z" />
<glyph unicode="h" horiz-adv-x="681" d="M60 700v50h130v-237q100 73 197 73t135.5 -43.5t38.5 -135.5v-357h60v-50h-190v50h60v358q0 63 -24.5 91t-81.5 28q-102 0 -195 -74v-403h60v-50h-190v50h60v650h-60z" />
<glyph unicode="i" horiz-adv-x="320" d="M70 522v50h130v-522h60v-50h-190v50h60v472h-60zM195.5 681q-10.5 -9 -30 -9t-29.5 9t-12 18.5t-2 26t2 26t12 18.5t34 9t32 -14t8 -35t-2 -30.5t-12.5 -18.5z" />
<glyph unicode="j" horiz-adv-x="310" d="M60 522v50h130v-650q0 -78 -27 -113.5t-112 -35.5h-61v55l61 5q42 4 55.5 23t13.5 66v600h-60zM195.5 681q-10.5 -9 -30 -9t-29.5 9t-12 18.5t-2 26t2 26t12 18.5t34 9t32 -14t8 -35t-2 -30.5t-12.5 -18.5z" />
<glyph unicode="k" horiz-adv-x="596" d="M60 700v50h130v-414h90l130 186h-52v50h190v-50h-60l-155 -219l174 -253h59v-50h-190v50h53l-159 232h-80v-232h60v-50h-190v50h60v650h-60z" />
<glyph unicode="l" horiz-adv-x="310" d="M60 700v50h130v-700h60v-50h-190v50h60v650h-60z" />
<glyph unicode="m" horiz-adv-x="1022" d="M421 0v50h60v358q0 119 -107 119q-96 0 -174 -72v-405h60v-50h-190v50h60v472h-60v50h107l16 -62q84 76 194 76t147 -83q35 35 89.5 59t110.5 24q168 0 168 -178v-358h60v-50h-190v50h60v358q0 119 -107 119q-97 0 -177 -74q3 -21 3 -45v-358h60v-50h-190z" />
<glyph unicode="n" horiz-adv-x="691" d="M70 522v50h107l17 -64q101 78 212 78q88 0 126.5 -43.5t38.5 -135.5v-357h60v-50h-190v50h60v358q0 63 -24.5 91t-81.5 28q-102 0 -195 -74v-403h60v-50h-190v50h60v472h-60z" />
<glyph unicode="o" horiz-adv-x="608" d="M304 45q48 0 81.5 14.5t51 35t27.5 56t12 64t2 71.5t-2 71.5t-12 64t-27.5 56t-51 35t-81.5 14.5t-81.5 -14.5t-51 -35t-27.5 -56t-12 -64t-2 -71.5t2 -71.5t12 -64t27.5 -56t51 -35t81.5 -14.5zM304 -14q-46 0 -82.5 9t-62 23.5t-44 37.5t-29 47t-16.5 56.5t-8 61 t-2 65.5t2 65.5t8 61t16.5 56.5t29 47t44 37.5t62 23.5t82.5 9t82.5 -9t62 -23.5t44 -37.5t29 -47t16.5 -56.5t8 -61t2 -65.5t-2 -65.5t-8 -61t-16.5 -56.5t-29 -47t-44 -37.5t-62 -23.5t-82.5 -9z" />
<glyph unicode="p" horiz-adv-x="656" d="M556 458q13 -42 16.5 -80.5t3.5 -91.5t-3.5 -91.5t-17 -80.5t-36.5 -68t-64.5 -43t-113 -17t-151.5 35v-198h80v-50h-210v50h60v699h-60v50h107l14 -54q91 68 190 68q145 0 185 -128zM356 527q-89 0 -166 -59v-391q70 -32 156 -32q118 0 146 99q14 51 14 113.5t-2 88 t-7 55t-15.5 51t-26.5 39.5q-32 36 -99 36z" />
<glyph unicode="q" horiz-adv-x="647" d="M596 -177v-50h-210v50h80v203q-89 -40 -156 -40t-108.5 17t-64.5 43t-36.5 68t-17 80.5t-3.5 91.5t3.5 91.5t17 80.5t36.5 68t64.5 43t98.5 17q100 0 177 -58l12 44h107v-50h-60v-699h60zM310 45q81 0 156 39v393q-64 50 -156 50q-113 0 -143 -97q-17 -55 -17 -128.5 t5.5 -113t22.5 -74.5q32 -69 132 -69z" />
<glyph unicode="r" horiz-adv-x="419" d="M200 50h80v-50h-210v50h60v472h-60v50h107l22 -110q70 119 210 124v-67q-141 -5 -209 -130v-339z" />
<glyph unicode="s" horiz-adv-x="568" d="M476 572v-202h-46q-8 99 -48 130q-22 16 -49 21.5t-80 5.5t-81.5 -27t-28.5 -69.5t23.5 -64t82.5 -36.5l78 -21q92 -25 131.5 -58.5t39.5 -104.5q0 -160 -197 -160q-125 0 -177 88l2 -74h-51v202h46q17 -157 171 -157q136 0 136 101q0 36 -23 58t-81 37l-78 21 q-93 24 -133 57.5t-40 106.5t47.5 116.5t140.5 43.5q119 0 165 -72l-1 58h51z" />
<glyph unicode="t" horiz-adv-x="370" d="M35 522v50h90v114l70 14v-128h105v-50h-105v-397q0 -46 12.5 -65t37 -19t59.5 8l9 -49q-50 -14 -81.5 -14t-51 8t-30 20t-16.5 32q-9 30 -9 79v397h-90z" />
<glyph unicode="u" horiz-adv-x="696" d="M60 572h130v-408q0 -64 25.5 -91.5t88.5 -27.5q107 0 202 87v390h-60v50h130v-522h60v-50h-107l-20 73q-105 -87 -220 -87q-94 0 -131.5 42t-37.5 135v359h-60v50z" />
<glyph unicode="v" horiz-adv-x="572" d="M176 572v-50h-57l167 -445l166 445h-56v50h166v-50h-39l-199 -522h-76l-199 522h-39v50h166z" />
<glyph unicode="w" horiz-adv-x="786" d="M776 572v-50h-35l-150 -522h-77l-121 418l-121 -418h-77l-151 522h-34v50h166v-50h-61l123 -435l125 435h59l126 -435l123 435h-61v50h166z" />
<glyph unicode="x" horiz-adv-x="569" d="M201 50v-50h-176v50h42l176 249l-156 223h-47v50h176v-50h-50l122 -174l121 174h-56v50h176v-50h-43l-160 -228l171 -244h47v-50h-176v50h50l-137 196l-137 -196h57z" />
<glyph unicode="y" horiz-adv-x="572" d="M99 -227v50l59 5q25 2 33 9t16 27l46 123l-204 535h-39v50h166v-50h-57l167 -446l166 446h-56v50h166v-50h-39l-260 -684q-13 -34 -28 -49.5t-46 -15.5h-90z" />
<glyph unicode="z" horiz-adv-x="536" d="M436 166h50v-166h-446v50l356 466h-282v-110h-50v166h418v-50l-356 -466h310v110z" />
<glyph unicode="{" horiz-adv-x="294" d="M162 526l8 -122q0 -30 -14.5 -48t-34.5 -18v-6q20 0 34.5 -18t14.5 -48l-8 -122q0 -71 28.5 -109.5t98.5 -38.5v-62q-201 0 -201 203l8 124q0 27 -23.5 38t-51.5 11v50q28 0 51.5 11t23.5 38l-8 124q0 203 201 203v-62q-70 0 -98.5 -38.5t-28.5 -109.5z" />
<glyph unicode="|" horiz-adv-x="321" d="M120 -106v881h81v-881h-81z" />
<glyph unicode="}" horiz-adv-x="294" d="M132 144l-8 122q0 30 14.5 48t34.5 18v6q-20 0 -34.5 18t-14.5 48l8 122q0 71 -28.5 109.5t-98.5 38.5v62q201 0 201 -203l-8 -124q0 -27 23.5 -38t51.5 -11v-50q-28 0 -51.5 -11t-23.5 -38l8 -124q0 -203 -201 -203v62q70 0 98.5 38.5t28.5 109.5z" />
<glyph unicode="~" d="M94 348q34 -24 76.5 -24t119 21.5t118 21.5t78.5 -19v-60q-38 21 -79 21t-117.5 -21.5t-117.5 -21.5t-78 22v60z" />
<glyph unicode="&#xa1;" horiz-adv-x="316" d="M206 528q0 -18 -2 -28.5t-13 -20.5t-37 -10t-35 16t-9 35.5t1.5 28t6.5 17.5q9 20 48.5 20t39.5 -58zM199 -152h-80v158l18 387h44l18 -387v-158z" />
<glyph unicode="&#xa2;" d="M288 -74v109q-53 3 -91.5 21.5t-60 44.5t-33.5 67q-19 65 -19 140.5t3.5 112t16 76.5t33.5 66t59.5 45.5t91.5 24.5v111h50v-109q94 -3 134 -53t47 -136l-63 -5q-3 60 -28.5 93.5t-89.5 36.5v-472q69 5 96 33t29 82l63 -5q-7 -80 -48.5 -123.5t-139.5 -49.5v-110h-50z M157.5 250.5q3.5 -32.5 15.5 -69.5q24 -73 115 -81v468q-101 -14 -124 -112q-10 -45 -10 -109t3.5 -96.5z" />
<glyph unicode="&#xa3;" d="M64 286v60h66v143q0 97 43.5 146t146 49t148.5 -53t46 -156h-72q0 72 -28 109.5t-95 37.5t-90.5 -32t-23.5 -101v-143h236v-60h-236v-112q0 -41 -9 -64t-31 -46h366v-64h-449v56q48 42 48 108v122h-66z" />
<glyph unicode="&#xa4;" d="M427 163q-50 -32 -138.5 -32t-133.5 34l-81 -81l-35 35l82 82q-25 44 -25 133.5t27 132.5l-84 84l35 35l83 -83q51 36 139.5 36t132.5 -30l77 77l35 -35l-77 -77q30 -44 30 -137t-32 -140l79 -78l-35 -35zM215.5 202.5q27.5 -11.5 69 -11.5t69.5 8.5t43 21t23 33.5 q11 29 11 71.5t-3 63t-14 43.5q-24 46 -111 46q-98 0 -124 -46q-13 -23 -16.5 -43.5t-3.5 -53.5t3 -53.5t14.5 -44t39 -35z" />
<glyph unicode="&#xa5;" d="M77 346v60h109l-137 264h76l165 -327l165 327h76l-138 -264h111v-60h-142l-31 -60h173v-60h-178v-226h-72v226h-177v60h172l-32 60h-140z" />
<glyph unicode="&#xa6;" horiz-adv-x="321" d="M120 445v330h81v-330h-81zM120 -106v330h81v-330h-81z" />
<glyph unicode="&#xa7;" horiz-adv-x="576" d="M531 209q0 -64 -30 -115q30 -46 30 -139t-53 -144.5t-186 -51.5q-111 0 -168 61t-57 169h64q6 -170 161 -170q92 0 129.5 34t37.5 104.5t-28 103.5t-98 33h-90q-105 0 -147 47.5t-42 147.5q0 62 30 111q-30 44 -30 133q0 211 229 211q110 0 161.5 -48.5t62.5 -146.5 l-59 -4q-8 69 -45.5 104t-124 35t-119.5 -37t-33 -108.5t24 -102t96 -30.5h89q106 0 151 -49t45 -148zM243 338q-70 0 -109 20q-8 -27 -8 -81t24 -84.5t96 -30.5h89q71 0 115 -23q9 25 9 60q0 73 -28 106t-98 33h-90z" />
<glyph unicode="&#xa8;" horiz-adv-x="308" d="M78.5 681q-10.5 -9 -30 -9t-29.5 9t-12 18.5t-2 26t2 26t12 18.5t34 9t32 -14t8 -35t-2 -30.5t-12.5 -18.5zM288.5 681q-10.5 -9 -30 -9t-29.5 9t-12 18.5t-2 26t2 26t12 18.5t34 9t32 -14t8 -35t-2 -30.5t-12.5 -18.5z" />
<glyph unicode="&#xa9;" horiz-adv-x="727" d="M70 560q0 158 67.5 226t225.5 68t226 -68t68 -226t-68 -225.5t-226 -67.5t-225.5 67.5t-67.5 225.5zM118 560q0 -137 54 -193.5t191 -56.5t191.5 57t54.5 193.5t-54.5 193.5t-191 57t-191 -57t-54.5 -194zM362 727q-62 0 -82.5 -39.5t-20.5 -128t19.5 -126.5t84.5 -38 q83 0 86 89l42 -2q-4 -64 -32 -97t-96 -33q-95 0 -125.5 49.5t-30.5 158.5t32 159t123 50q64 0 93 -28t35 -85l-43 -3q-4 38 -23.5 56t-61.5 18z" />
<glyph unicode="&#xaa;" horiz-adv-x="427" d="M293 392q-62 -52 -130.5 -52t-95.5 28.5t-27 86.5t25.5 85.5t98.5 32.5l119 8v64q0 64 -80 64q-53 0 -72.5 -19t-21.5 -59l-52 3q5 63 36 94.5t112 31.5q142 0 142 -112v-255h42v-43h-84zM172 390q62 0 111 46v99l-109 -7q-41 -2 -56 -17.5t-15 -52.5t15.5 -52.5 t53.5 -15.5zM47 256v43h342v-43h-342z" />
<glyph unicode="&#xab;" horiz-adv-x="520" d="M244 158l-46 -46l-168 187v32l168 187l46 -46l-123 -157zM460 158l-47 -46l-168 187v32l168 187l47 -46l-124 -157z" />
<glyph unicode="&#xac;" d="M94 288v60h392v-198h-56v138h-336z" />
<glyph unicode="&#xae;" horiz-adv-x="727" d="M70 560q0 158 67.5 226t225.5 68t226 -68t68 -226t-68 -225.5t-226 -67.5t-225.5 67.5t-67.5 225.5zM118 560q0 -137 54 -193.5t191 -56.5t191.5 57t54.5 193.5t-54.5 193.5t-191 57t-191 -57t-54.5 -194zM246 762h123q76 0 100 -31.5t24 -81.5t-13.5 -77.5t-53.5 -39.5 q14 -13 24 -35l60 -137h-56l-56 130q-15 35 -54 35h-46v-165h-52v402zM298 566h70q45 0 59 19.5t14 57.5t-14 57.5t-59 19.5h-70v-154z" />
<glyph unicode="&#xaf;" horiz-adv-x="354" d="M50 694v65h254v-65h-254z" />
<glyph unicode="&#xb0;" horiz-adv-x="425" d="M212 391q34 0 56 10.5t31 32t11.5 40.5t2.5 51t-2.5 51t-11.5 40.5t-31 32t-56 10.5t-56 -10.5t-31 -32t-11.5 -40.5t-2.5 -51t2.5 -51t11.5 -40.5t31 -32t56 -10.5zM212 340q-53 0 -87.5 14.5t-50.5 43.5t-21 57.5t-5 70t5 70t21 57t50.5 43t87.5 14.5t88 -14.5t51 -43 t21 -57t5 -70t-5 -70t-21 -57.5t-51 -43.5t-88 -14.5z" />
<glyph unicode="&#xb1;" d="M94 338v60h166v166h60v-166h166v-60h-166v-166h-60v166h-166zM94 0v60h392v-60h-392z" />
<glyph unicode="&#xb2;" horiz-adv-x="414" d="M340 385v-45h-267v42l154 167q20 22 29 33q25 31 25 62q0 65 -75 65q-45 0 -61.5 -19t-16.5 -58h-48q0 60 29 91t99 31q127 0 127 -110q0 -56 -68 -130l-119 -129h192z" />
<glyph unicode="&#xb3;" horiz-adv-x="414" d="M347 443q0 -53 -35 -82t-107 -29t-102.5 30t-30.5 91h48q0 -77 86 -77t86 68q0 76 -82 76h-60v42h61q37 0 56 20t19 54q0 73 -79 73t-79 -77h-48q0 60 29.5 91t98.5 31q133 0 133 -119q0 -63 -62 -92q68 -25 68 -100z" />
<glyph unicode="&#xb4;" horiz-adv-x="314" d="M92 624l-42 42l161 161l53 -53z" />
<glyph unicode="&#xb5;" horiz-adv-x="641" d="M155 572v-257q0 -115 11.5 -160.5t28.5 -64.5t46 -30.5t71 -11.5t71 11.5t46.5 30.5t26.5 54q15 60 15 171v257h70v-247q0 -167 -24 -225q-25 -62 -67 -85q-54 -29 -132 -29t-121.5 16.5t-68.5 71.5l-6 -3l24 -71v-227h-61v799h70z" />
<glyph unicode="&#xb6;" horiz-adv-x="489" d="M419 50v-50h-212v50h80v235h-62q-126 0 -164 60q-19 30 -25 59.5t-6 73t6 73t25 59.5q38 60 164 60h194v-50h-60v-570h60z" />
<glyph unicode="&#xb7;" horiz-adv-x="226" d="M65 315q0 18 2 28.5t13 20.5t37 10t35 -16t9 -35.5t-1.5 -28t-5.5 -18.5q-10 -19 -49.5 -19t-39.5 58z" />
<glyph unicode="&#xb8;" horiz-adv-x="299" d="M50 -146h50q0 -22 10.5 -33.5t38.5 -11.5t39 11.5t11 34.5q0 40 -52 49l-53 10v36h59q45 0 70.5 -21t25.5 -71.5t-21.5 -74.5t-78 -24t-78 24t-21.5 71z" />
<glyph unicode="&#xb9;" horiz-adv-x="414" d="M109 681v34q63 6 96 30h42v-360h83v-45h-222v45h83v296h-82z" />
<glyph unicode="&#xba;" horiz-adv-x="425" d="M160.5 400q21.5 -9 52 -9t52 9.5t32.5 22.5t17 36.5t7.5 42t1.5 48.5t-1.5 48.5t-7.5 42t-17 36.5q-27 32 -85 32q-84 0 -102 -68q-9 -35 -9 -78t1.5 -62t7.5 -42t17.5 -36.5t33 -22.5zM305.5 356.5q-36.5 -16.5 -88 -16.5t-84 12t-50.5 30.5t-29 47.5q-16 46 -16 106.5 t5.5 93t22.5 64.5q33 66 146 66t147 -66q17 -32 22.5 -64t5.5 -79.5t-5.5 -80t-22.5 -65t-53.5 -49zM48 256v43h328v-43h-328z" />
<glyph unicode="&#xbb;" horiz-adv-x="520" d="M276 472l46 46l168 -187v-32l-168 -187l-46 46l123 157zM60 472l47 46l168 -187v-32l-168 -187l-47 46l124 157z" />
<glyph unicode="&#xbc;" horiz-adv-x="982" d="M859 0h-54v85h-200v43l169 277h85v-275h48v-45h-48v-85zM368 -66l214 801h53l-215 -801h-52zM116 612v34q63 6 96 30h42v-360h83v-45h-222v45h83v296h-82zM805 130v227l-138 -227h138z" />
<glyph unicode="&#xbd;" horiz-adv-x="982" d="M899 45v-45h-267v42l154 167q20 22 28 33q26 31 26 62q0 65 -75 65q-45 0 -61.5 -19t-16.5 -58h-48q0 60 29 91t99 31q127 0 127 -110q0 -56 -68 -130l-119 -129h192zM348 -66l214 801h53l-215 -801h-52zM116 612v34q63 6 96 30h42v-360h83v-45h-222v45h83v296h-82z" />
<glyph unicode="&#xbe;" horiz-adv-x="982" d="M859 0h-54v85h-200v43l169 277h85v-275h48v-45h-48v-85zM355 374q0 -53 -35 -82t-107 -29t-102.5 30t-30.5 91h48q0 -77 86 -77t86 68q0 76 -82 76h-60v42h61q37 0 56 20t19 55q0 72 -79 72t-79 -77h-48q0 60 29.5 91t98.5 31q133 0 133 -119q0 -63 -62 -92 q68 -26 68 -100zM373 -66l214 801h53l-215 -801h-52zM805 130v227l-138 -227h138z" />
<glyph unicode="&#xbf;" horiz-adv-x="484" d="M319 528q0 -18 -2 -28.5t-13 -20.5t-37 -10t-35 16t-9 35.5t1.5 28t5.5 17.5q10 20 49.5 20t39.5 -58zM146 157q-36 -32 -36 -109.5t32 -116t114 -38.5q136 0 136 113h60q0 -84 -46.5 -128t-156 -44t-158.5 53t-49 156.5t43.5 145.5t135.5 56l16 2l11 146h46l7 -190 l-51 -6q-68 -8 -104 -40z" />
<glyph unicode="&#xc0;" horiz-adv-x="653" d="M648 50v-50h-178v50h59l-61 186h-284l-61 -186h60v-50h-178v50h46l227 680h97l226 -680h47zM326 667l-122 -372h245zM433 824l-42 -42l-172 150l53 53z" />
<glyph unicode="&#xc1;" horiz-adv-x="653" d="M648 50v-50h-178v50h59l-61 186h-284l-61 -186h60v-50h-178v50h46l227 680h97l226 -680h47zM326 667l-122 -372h245zM261 782l-42 42l161 161l53 -53z" />
<glyph unicode="&#xc2;" horiz-adv-x="653" d="M648 50v-50h-178v50h59l-61 186h-284l-61 -186h60v-50h-178v50h46l227 680h97l226 -680h47zM326 667l-122 -372h245zM218 782l-42 42l136 155h29l136 -155l-42 -42l-109 110z" />
<glyph unicode="&#xc3;" horiz-adv-x="653" d="M648 50v-50h-178v50h59l-61 186h-284l-61 -186h60v-50h-178v50h46l227 680h97l226 -680h47zM326 667l-122 -372h245zM399 835q-25 0 -74 18t-65 18t-26 -10t-18 -34l-51 16q27 93 88 93q25 0 75 -18t65.5 -18t25.5 10t18 34l50 -16q-27 -93 -88 -93z" />
<glyph unicode="&#xc4;" horiz-adv-x="653" d="M648 50v-50h-178v50h59l-61 186h-284l-61 -186h60v-50h-178v50h46l227 680h97l226 -680h47zM326 667l-122 -372h245zM250.5 839q-10.5 -9 -30 -9t-29.5 9t-12 18.5t-2 26t2 26t12 18.5t34 9t32 -14t8 -35t-2 -30.5t-12.5 -18.5zM460.5 839q-10.5 -9 -30 -9t-29.5 9 t-12 18.5t-2 26t2 26t12 18.5t34 9t32 -14t8 -35t-2 -30.5t-12.5 -18.5z" />
<glyph unicode="&#xc5;" horiz-adv-x="653" d="M648 50v-50h-178v50h59l-61 186h-284l-61 -186h60v-50h-178v50h46l227 680h97l226 -680h47zM326 667l-122 -372h245zM325 786q-32 0 -52 8t-28.5 24t-11 30t-2.5 35t2.5 35t11 30.5t28.5 24.5t52 8t53 -8t29.5 -24.5t11 -30.5t2.5 -35t-2.5 -35t-11 -30t-29.5 -24t-53 -8 zM296.5 838q9.5 -9 29 -9t29.5 9t12 19t2 26.5t-2 26t-12 19t-33.5 9.5t-31 -14.5t-7.5 -35.5t2 -31t11.5 -19z" />
<glyph unicode="&#xc6;" horiz-adv-x="943" d="M5 0v50h49l264 680h545v-158h-56v99h-282v-270h288v-60h-288v-282h302v99h56v-158h-490v50h60v291h-216l-111 -291h57v-50h-178zM453 671h-89l-104 -270h193v270z" />
<glyph unicode="&#xc7;" horiz-adv-x="634" d="M523 730h54v-216h-54q-6 83 -46.5 126.5t-135.5 43.5q-98 0 -143 -54q-39 -46 -48 -156q-3 -43 -3 -111t2.5 -108t13.5 -86t32 -69q49 -54 148 -54t135.5 44t39.5 122l59 -3q-4 -54 -15 -91.5t-35 -69.5q-48 -62 -176 -62q-126 0 -183 46q-30 25 -49 54.5t-29 76.5 q-15 77 -15 188.5t9.5 174.5t37 116t81.5 77.5t138 24.5q131 0 182 -88v74zM215 -146h50q0 -22 10.5 -33.5t38.5 -11.5t39 11.5t11 34.5q0 40 -52 49l-53 10v36h59q45 0 70.5 -21t25.5 -71.5t-21.5 -74.5t-78 -24t-78 24t-21.5 71z" />
<glyph unicode="&#xc8;" horiz-adv-x="620" d="M70 0v50h60v630h-60v50h470v-158h-56v99h-282v-270h288v-60h-288v-282h302v99h56v-158h-490zM409 824l-42 -42l-172 150l53 53z" />
<glyph unicode="&#xc9;" horiz-adv-x="620" d="M70 0v50h60v630h-60v50h470v-158h-56v99h-282v-270h288v-60h-288v-282h302v99h56v-158h-490zM237 782l-42 42l161 161l53 -53z" />
<glyph unicode="&#xca;" horiz-adv-x="620" d="M70 0v50h60v630h-60v50h470v-158h-56v99h-282v-270h288v-60h-288v-282h302v99h56v-158h-490zM194 782l-42 42l136 155h29l136 -155l-42 -42l-109 110z" />
<glyph unicode="&#xcb;" horiz-adv-x="620" d="M70 0v50h60v630h-60v50h470v-158h-56v99h-282v-270h288v-60h-288v-282h302v99h56v-158h-490zM226.5 839q-10.5 -9 -30 -9t-29.5 9t-12 18.5t-2 26t2 26t12 18.5t34 9t32 -14t8 -35t-2 -30.5t-12.5 -18.5zM436.5 839q-10.5 -9 -30 -9t-29.5 9t-12 18.5t-2 26t2 26t12 18.5 t34 9t32 -14t8 -35t-2 -30.5t-12.5 -18.5z" />
<glyph unicode="&#xcc;" horiz-adv-x="352" d="M70 680v50h212v-50h-70v-630h70v-50h-212v50h70v630h-70zM283 824l-42 -42l-172 150l53 53z" />
<glyph unicode="&#xcd;" horiz-adv-x="352" d="M70 680v50h212v-50h-70v-630h70v-50h-212v50h70v630h-70zM131 782l-42 42l161 161l53 -53z" />
<glyph unicode="&#xce;" horiz-adv-x="352" d="M70 680v50h212v-50h-70v-630h70v-50h-212v50h70v630h-70zM68 782l-42 42l136 155h29l136 -155l-42 -42l-109 110z" />
<glyph unicode="&#xcf;" horiz-adv-x="352" d="M70 680v50h212v-50h-70v-630h70v-50h-212v50h70v630h-70zM310.5 839q-10.5 -9 -30 -9t-29.5 9t-12 18.5t-2 26t2 26t12 18.5t34 9t32 -14t8 -35t-2 -30.5t-12.5 -18.5zM100.5 839q-10.5 -9 -30 -9t-29.5 9t-12 18.5t-2 26t2 26t12 18.5t34 9t32 -14t8 -35t-2 -30.5 t-12.5 -18.5z" />
<glyph unicode="&#xd0;" horiz-adv-x="688" d="M70 674v56h275q129 0 187 -45q31 -24 50 -52.5t29 -72.5q17 -76 17 -173.5t-5 -148t-21.5 -99.5t-47.5 -77q-67 -62 -209 -62h-275v56h60v279h-60v60h60v279h-60zM345 668h-143v-273h220v-60h-220v-273h143q69 0 112.5 19.5t64.5 63t27.5 92t6.5 128.5t-6.5 128.5 t-27.5 92t-64.5 63t-112.5 19.5z" />
<glyph unicode="&#xd1;" horiz-adv-x="770" d="M518 680v50h192v-50h-60v-680h-80l-368 610v-560h60v-50h-192v50h60v630h-60v50h140l368 -611v561h-60zM468 835q-26 0 -75 18t-64.5 18t-25.5 -10t-18 -34l-51 16q27 93 88 93q26 0 75 -18t65 -18t26 10t18 34l50 -16q-27 -93 -88 -93z" />
<glyph unicode="&#xd2;" horiz-adv-x="705" d="M352 -14q-74 0 -125 17.5t-80.5 46.5t-46 80.5t-21 103t-4.5 131t4.5 131t21 103t46 80.5t80.5 47t125 18t125 -18t81 -47t46 -80t21 -103t5 -131t-5 -131.5t-21 -103.5t-46 -80t-81 -46.5t-125 -17.5zM352 46q54 0 92 15t60.5 39.5t34.5 68t15.5 87t3.5 109.5 t-3.5 109.5t-15.5 87t-34.5 68t-60.5 39.5t-92 15t-92 -15t-60 -39.5t-34 -68t-15.5 -87t-3.5 -109.5t3.5 -109.5t15.5 -87t34 -68t60 -39.5t92 -15zM459 824l-42 -42l-172 150l53 53z" />
<glyph unicode="&#xd3;" horiz-adv-x="705" d="M352 -14q-74 0 -125 17.5t-80.5 46.5t-46 80.5t-21 103t-4.5 131t4.5 131t21 103t46 80.5t80.5 47t125 18t125 -18t81 -47t46 -80t21 -103t5 -131t-5 -131.5t-21 -103.5t-46 -80t-81 -46.5t-125 -17.5zM352 46q54 0 92 15t60.5 39.5t34.5 68t15.5 87t3.5 109.5 t-3.5 109.5t-15.5 87t-34.5 68t-60.5 39.5t-92 15t-92 -15t-60 -39.5t-34 -68t-15.5 -87t-3.5 -109.5t3.5 -109.5t15.5 -87t34 -68t60 -39.5t92 -15zM287 782l-42 42l161 161l53 -53z" />
<glyph unicode="&#xd4;" horiz-adv-x="705" d="M352 -14q-74 0 -125 17.5t-80.5 46.5t-46 80.5t-21 103t-4.5 131t4.5 131t21 103t46 80.5t80.5 47t125 18t125 -18t81 -47t46 -80t21 -103t5 -131t-5 -131.5t-21 -103.5t-46 -80t-81 -46.5t-125 -17.5zM352 46q54 0 92 15t60.5 39.5t34.5 68t15.5 87t3.5 109.5 t-3.5 109.5t-15.5 87t-34.5 68t-60.5 39.5t-92 15t-92 -15t-60 -39.5t-34 -68t-15.5 -87t-3.5 -109.5t3.5 -109.5t15.5 -87t34 -68t60 -39.5t92 -15zM244 782l-42 42l136 155h29l136 -155l-42 -42l-109 110z" />
<glyph unicode="&#xd5;" horiz-adv-x="705" d="M352 -14q-74 0 -125 17.5t-80.5 46.5t-46 80.5t-21 103t-4.5 131t4.5 131t21 103t46 80.5t80.5 47t125 18t125 -18t81 -47t46 -80t21 -103t5 -131t-5 -131.5t-21 -103.5t-46 -80t-81 -46.5t-125 -17.5zM352 46q54 0 92 15t60.5 39.5t34.5 68t15.5 87t3.5 109.5 t-3.5 109.5t-15.5 87t-34.5 68t-60.5 39.5t-92 15t-92 -15t-60 -39.5t-34 -68t-15.5 -87t-3.5 -109.5t3.5 -109.5t15.5 -87t34 -68t60 -39.5t92 -15zM425 835q-25 0 -74 18t-65 18t-26 -10t-18 -34l-51 16q27 93 88 93q25 0 74.5 -18t65.5 -18t26 10t18 34l50 -16 q-27 -93 -88 -93z" />
<glyph unicode="&#xd6;" horiz-adv-x="705" d="M352 -14q-74 0 -125 17.5t-80.5 46.5t-46 80.5t-21 103t-4.5 131t4.5 131t21 103t46 80.5t80.5 47t125 18t125 -18t81 -47t46 -80t21 -103t5 -131t-5 -131.5t-21 -103.5t-46 -80t-81 -46.5t-125 -17.5zM352 46q54 0 92 15t60.5 39.5t34.5 68t15.5 87t3.5 109.5 t-3.5 109.5t-15.5 87t-34.5 68t-60.5 39.5t-92 15t-92 -15t-60 -39.5t-34 -68t-15.5 -87t-3.5 -109.5t3.5 -109.5t15.5 -87t34 -68t60 -39.5t92 -15zM276.5 839q-10.5 -9 -30 -9t-29.5 9t-12 18.5t-2 26t2 26t12 18.5t34 9t32 -14t8 -35t-2 -30.5t-12.5 -18.5zM486.5 839 q-10.5 -9 -30 -9t-29.5 9t-12 18.5t-2 26t2 26t12 18.5t34 9t32 -14t8 -35t-2 -30.5t-12.5 -18.5z" />
<glyph unicode="&#xd7;" d="M155 141l-42 42l135 135l-135 135l42 42l135 -135l135 135l42 -42l-135 -135l135 -135l-42 -42l-135 135z" />
<glyph unicode="&#xd8;" horiz-adv-x="675" d="M65.5 229q-5.5 53 -5.5 134t4.5 132.5t21 103t46.5 80.5q66 65 205 65q23 0 61 -4l20 87h53l-23 -96q84 -23 123 -89q34 -57 41 -168q3 -45 3 -116.5t-5 -124t-21 -103.5t-46 -80q-66 -64 -206 -64q-24 0 -62 4l-19 -84h-52l21 93q-54 14 -87.5 44.5t-50 81.5t-22 104z M289 49q23 -3 62.5 -3t77.5 15t60.5 39.5t34.5 67.5q19 69 19 199.5t-21 202t-88 98.5zM153 160.5q21 -71.5 87 -98.5l144 619q-22 3 -61.5 3t-77.5 -15t-60 -39.5t-34 -67.5q-19 -69 -19 -199.5t21 -202z" />
<glyph unicode="&#xd9;" horiz-adv-x="750" d="M55 680v50h192v-50h-60v-439q0 -125 59 -163q28 -18 57.5 -24.5t71 -6.5t71 6.5t58.5 24.5q59 38 59 163v439h-60v50h192v-50h-60v-439q0 -128 -53 -189q-22 -27 -58.5 -42.5t-70 -19.5t-79.5 -4t-79 4t-69 19.5t-58 42.5q-53 61 -53 189v439h-60zM452 824l-42 -42 l-172 150l53 53z" />
<glyph unicode="&#xda;" horiz-adv-x="750" d="M55 680v50h192v-50h-60v-439q0 -125 59 -163q28 -18 57.5 -24.5t71 -6.5t71 6.5t58.5 24.5q59 38 59 163v439h-60v50h192v-50h-60v-439q0 -128 -53 -189q-22 -27 -58.5 -42.5t-70 -19.5t-79.5 -4t-79 4t-69 19.5t-58 42.5q-53 61 -53 189v439h-60zM360 782l-42 42 l161 161l53 -53z" />
<glyph unicode="&#xdb;" horiz-adv-x="750" d="M55 680v50h192v-50h-60v-439q0 -125 59 -163q28 -18 57.5 -24.5t71 -6.5t71 6.5t58.5 24.5q59 38 59 163v439h-60v50h192v-50h-60v-439q0 -128 -53 -189q-22 -27 -58.5 -42.5t-70 -19.5t-79.5 -4t-79 4t-69 19.5t-58 42.5q-53 61 -53 189v439h-60zM266 782l-42 42 l136 155h29l136 -155l-42 -42l-109 110z" />
<glyph unicode="&#xdc;" horiz-adv-x="750" d="M55 680v50h192v-50h-60v-439q0 -125 59 -163q28 -18 57.5 -24.5t71 -6.5t71 6.5t58.5 24.5q59 38 59 163v439h-60v50h192v-50h-60v-439q0 -128 -53 -189q-22 -27 -58.5 -42.5t-70 -19.5t-79.5 -4t-79 4t-69 19.5t-58 42.5q-53 61 -53 189v439h-60zM509.5 839 q-10.5 -9 -30 -9t-29.5 9t-12 18.5t-2 26t2 26t12 18.5t34 9t32 -14t8 -35t-2 -30.5t-12.5 -18.5zM299.5 839q-10.5 -9 -30 -9t-29.5 9t-12 18.5t-2 26t2 26t12 18.5t34 9t32 -14t8 -35t-2 -30.5t-12.5 -18.5z" />
<glyph unicode="&#xdd;" horiz-adv-x="492" d="M282 56h70v-56h-212v56h70v199l-190 419h-45v56h182v-56h-62l151 -342l150 342h-61v56h182v-56h-46l-189 -419v-199zM181 782l-42 42l161 161l53 -53z" />
<glyph unicode="&#xde;" horiz-adv-x="599" d="M330 137h-128v-81h70v-56h-202v56h60v618h-60v56h202v-56h-70v-82h128q141 0 184 -71q21 -35 28 -70t7 -81t-3.5 -75t-16.5 -61t-36 -52q-54 -45 -163 -45zM202 201h128q95 0 124 51q14 25 18.5 50t4.5 62t-4.5 62.5t-18.5 50.5q-29 51 -124 51h-128v-327z" />
<glyph unicode="&#xdf;" horiz-adv-x="636" d="M190 561v-561h-130v50h60v511q0 92 52.5 143t164 51t162 -50t50.5 -144q0 -51 -24 -94.5t-64 -70.5q66 -12 105.5 -64t39.5 -135q0 -211 -185 -211q-101 0 -137 48t-36 145h59q0 -69 22.5 -101.5t90.5 -32.5q116 0 116 155.5t-128 155.5h-115v54h68q57 0 87.5 45 t30.5 109t-32.5 98t-114.5 34q-142 0 -142 -135z" />
<glyph unicode="&#xe0;" horiz-adv-x="612" d="M427 65q-88 -79 -188 -79t-137.5 40t-37.5 122.5t36 120.5t137 45l185 12v100q0 101 -128 101q-85 0 -113.5 -29t-32.5 -91l-59 3q3 43 12.5 72t30.5 54q42 50 162 50q198 0 198 -160v-376h60v-50h-107zM243 43q97 0 179 78v151l-181 -11q-64 -4 -86.5 -27.5t-22.5 -82.5 t25 -83.5t86 -24.5zM398 666l-42 -42l-172 150l53 53z" />
<glyph unicode="&#xe1;" horiz-adv-x="612" d="M427 65q-88 -79 -188 -79t-137.5 40t-37.5 122.5t36 120.5t137 45l185 12v100q0 101 -128 101q-85 0 -113.5 -29t-32.5 -91l-59 3q3 43 12.5 72t30.5 54q42 50 162 50q198 0 198 -160v-376h60v-50h-107zM243 43q97 0 179 78v151l-181 -11q-64 -4 -86.5 -27.5t-22.5 -82.5 t25 -83.5t86 -24.5zM272 624l-42 42l161 161l53 -53z" />
<glyph unicode="&#xe2;" horiz-adv-x="612" d="M427 65q-88 -79 -188 -79t-137.5 40t-37.5 122.5t36 120.5t137 45l185 12v100q0 101 -128 101q-85 0 -113.5 -29t-32.5 -91l-59 3q3 43 12.5 72t30.5 54q42 50 162 50q198 0 198 -160v-376h60v-50h-107zM243 43q97 0 179 78v151l-181 -11q-64 -4 -86.5 -27.5t-22.5 -82.5 t25 -83.5t86 -24.5zM183 624l-42 42l136 155h29l136 -155l-42 -42l-109 110z" />
<glyph unicode="&#xe3;" horiz-adv-x="612" d="M427 65q-88 -79 -188 -79t-137.5 40t-37.5 122.5t36 120.5t137 45l185 12v100q0 101 -128 101q-85 0 -113.5 -29t-32.5 -91l-59 3q3 43 12.5 72t30.5 54q42 50 162 50q198 0 198 -160v-376h60v-50h-107zM243 43q97 0 179 78v151l-181 -11q-64 -4 -86.5 -27.5t-22.5 -82.5 t25 -83.5t86 -24.5zM364 677q-26 0 -75 18t-64.5 18t-25.5 -10t-18 -34l-51 16q27 93 88 93q26 0 75 -18t65 -18t26 10t18 34l50 -16q-27 -93 -88 -93z" />
<glyph unicode="&#xe4;" horiz-adv-x="612" d="M427 65q-88 -79 -188 -79t-137.5 40t-37.5 122.5t36 120.5t137 45l185 12v100q0 101 -128 101q-85 0 -113.5 -29t-32.5 -91l-59 3q3 43 12.5 72t30.5 54q42 50 162 50q198 0 198 -160v-376h60v-50h-107zM243 43q97 0 179 78v151l-181 -11q-64 -4 -86.5 -27.5t-22.5 -82.5 t25 -83.5t86 -24.5zM222.5 681q-10.5 -9 -30 -9t-29.5 9t-12 18.5t-2 26t2 26t12 18.5t34 9t32 -14t8 -35t-2 -30.5t-12.5 -18.5zM432.5 681q-10.5 -9 -30 -9t-29.5 9t-12 18.5t-2 26t2 26t12 18.5t34 9t32 -14t8 -35t-2 -30.5t-12.5 -18.5z" />
<glyph unicode="&#xe5;" horiz-adv-x="612" d="M427 65q-88 -79 -188 -79t-137.5 40t-37.5 122.5t36 120.5t137 45l185 12v100q0 101 -128 101q-85 0 -113.5 -29t-32.5 -91l-59 3q3 43 12.5 72t30.5 54q42 50 162 50q198 0 198 -160v-376h60v-50h-107zM243 43q97 0 179 78v151l-181 -11q-64 -4 -86.5 -27.5t-22.5 -82.5 t25 -83.5t86 -24.5zM290 628q-32 0 -52 8t-28.5 24t-11 30t-2.5 35t2.5 35t11 30.5t28.5 24.5t52 8t53 -8t29.5 -24.5t11 -30.5t2.5 -35t-2.5 -35t-11 -30t-29.5 -24t-53 -8zM261.5 680q9.5 -9 29 -9t29.5 9t12 19t2 26.5t-2 26t-12 19t-33.5 9.5t-31 -14.5t-7.5 -35.5 t2 -31t11.5 -19z" />
<glyph unicode="&#xe6;" horiz-adv-x="910" d="M641 -14q-150 0 -201 89q-39 -40 -94 -64.5t-113 -24.5q-94 0 -131.5 40t-37.5 122.5t36 120.5t137 45l165 10q4 80 18 124q-13 79 -126 79q-85 0 -113.5 -29t-32.5 -91l-59 3q3 43 12.5 72t30.5 54q42 50 164 50t166 -62q57 62 175 62q61 0 104.5 -17t68 -43t38.5 -68 t18 -80.5t4 -91.5v-16h-398q1 -122 34.5 -173.5t128 -51.5t128.5 34.5t40 100.5l58 -3q-4 -43 -14 -73.5t-33 -59.5q-46 -58 -173 -58zM636 527q-50 0 -83.5 -16t-50.5 -47q-28 -52 -30 -139h327q-2 90 -29 141q-32 61 -134 61zM243 43q97 0 178 77q-19 60 -19 151l-161 -10 q-64 -4 -86.5 -27.5t-22.5 -82.5t25 -83.5t86 -24.5z" />
<glyph unicode="&#xe7;" horiz-adv-x="567" d="M498 572v-202h-46q-9 79 -47 118t-116 39q-43 0 -73.5 -15t-46.5 -36.5t-25 -56.5q-14 -50 -14 -109t1.5 -83t6.5 -55t16 -51t28 -39q35 -37 117.5 -37t113 29t34.5 91l57 -3q-3 -43 -12.5 -72t-31.5 -54.5t-63 -37.5t-102 -12t-105.5 17t-69 43t-38.5 68t-18 80.5 t-4 91.5t4.5 93t19 81t38.5 67q56 59 166 59t160 -76l-1 62h51zM181 -146h50q0 -22 10.5 -33.5t38.5 -11.5t39 11.5t11 34.5q0 40 -52 49l-53 10v36h59q45 0 70.5 -21t25.5 -71.5t-21.5 -74.5t-78 -24t-78 24t-21.5 71z" />
<glyph unicode="&#xe8;" horiz-adv-x="588" d="M109.5 57.5q-49.5 71.5 -49.5 228.5q0 53 4 91.5t18 80.5t39 68t69 43t105 17t104.5 -17t68 -43t38.5 -68t18 -80.5t4 -91.5v-16h-398q1 -122 34.5 -173.5t128 -51.5t128.5 34.5t40 100.5l58 -3q-4 -43 -14 -73.5t-33 -59.5q-46 -58 -179.5 -58t-183 71.5zM294 527 q-50 0 -83.5 -16t-50.5 -47q-28 -52 -30 -139h327q-2 90 -29 141q-32 61 -134 61zM398 666l-42 -42l-172 150l53 53z" />
<glyph unicode="&#xe9;" horiz-adv-x="588" d="M109.5 57.5q-49.5 71.5 -49.5 228.5q0 53 4 91.5t18 80.5t39 68t69 43t105 17t104.5 -17t68 -43t38.5 -68t18 -80.5t4 -91.5v-16h-398q1 -122 34.5 -173.5t128 -51.5t128.5 34.5t40 100.5l58 -3q-4 -43 -14 -73.5t-33 -59.5q-46 -58 -179.5 -58t-183 71.5zM294 527 q-50 0 -83.5 -16t-50.5 -47q-28 -52 -30 -139h327q-2 90 -29 141q-32 61 -134 61zM264 624l-42 42l161 161l53 -53z" />
<glyph unicode="&#xea;" horiz-adv-x="588" d="M109.5 57.5q-49.5 71.5 -49.5 228.5q0 53 4 91.5t18 80.5t39 68t69 43t105 17t104.5 -17t68 -43t38.5 -68t18 -80.5t4 -91.5v-16h-398q1 -122 34.5 -173.5t128 -51.5t128.5 34.5t40 100.5l58 -3q-4 -43 -14 -73.5t-33 -59.5q-46 -58 -179.5 -58t-183 71.5zM294 527 q-50 0 -83.5 -16t-50.5 -47q-28 -52 -30 -139h327q-2 90 -29 141q-32 61 -134 61zM183 624l-42 42l136 155h29l136 -155l-42 -42l-109 110z" />
<glyph unicode="&#xeb;" horiz-adv-x="588" d="M109.5 57.5q-49.5 71.5 -49.5 228.5q0 53 4 91.5t18 80.5t39 68t69 43t105 17t104.5 -17t68 -43t38.5 -68t18 -80.5t4 -91.5v-16h-398q1 -122 34.5 -173.5t128 -51.5t128.5 34.5t40 100.5l58 -3q-4 -43 -14 -73.5t-33 -59.5q-46 -58 -179.5 -58t-183 71.5zM294 527 q-50 0 -83.5 -16t-50.5 -47q-28 -52 -30 -139h327q-2 90 -29 141q-32 61 -134 61zM215.5 681q-10.5 -9 -30 -9t-29.5 9t-12 18.5t-2 26t2 26t12 18.5t34 9t32 -14t8 -35t-2 -30.5t-12.5 -18.5zM425.5 681q-10.5 -9 -30 -9t-29.5 9t-12 18.5t-2 26t2 26t12 18.5t34 9t32 -14 t8 -35t-2 -30.5t-12.5 -18.5z" />
<glyph unicode="&#xec;" horiz-adv-x="320" d="M70 522v50h130v-522h60v-50h-190v50h60v472h-60zM262 666l-42 -42l-172 150l53 53z" />
<glyph unicode="&#xed;" horiz-adv-x="320" d="M70 522v50h130v-522h60v-50h-190v50h60v472h-60zM115 624l-42 42l161 161l53 -53z" />
<glyph unicode="&#xee;" horiz-adv-x="320" d="M70 522v50h130v-522h60v-50h-190v50h60v472h-60zM47 624l-42 42l136 155h29l136 -155l-42 -42l-109 110z" />
<glyph unicode="&#xef;" horiz-adv-x="320" d="M70 522v50h130v-522h60v-50h-190v50h60v472h-60zM289.5 681q-10.5 -9 -30 -9t-29.5 9t-12 18.5t-2 26t2 26t12 18.5t34 9t32 -14t8 -35t-2 -30.5t-12.5 -18.5zM79.5 681q-10.5 -9 -30 -9t-29.5 9t-12 18.5t-2 26t2 26t12 18.5t34 9t32 -14t8 -35t-2 -30.5t-12.5 -18.5z " />
<glyph unicode="&#xf0;" horiz-adv-x="608" d="M548 246q0 -108 -26 -160q-26 -49 -74 -72q-56 -28 -144 -28q-133 0 -188 60q-47 50 -54 143q-2 25 -2 57t2 57t8 53.5t16.5 49t29 40.5t44.5 32q56 28 152.5 28t150.5 -63q-23 98 -79 182l-108 -43v55l76 30q-22 26 -54 56l35 41q43 -37 75 -74l118 47v-55l-85 -34 q106 -150 107 -380v-22zM304 45q48 0 81.5 12t51 29.5t27.5 47t12 53t2 59.5t-2 59.5t-12 53t-27.5 47t-51 29.5t-81.5 12t-81.5 -12t-51 -29.5t-27.5 -47t-12 -53t-2 -59.5t2 -59.5t12 -53t27.5 -47t51 -29.5t81.5 -12z" />
<glyph unicode="&#xf1;" horiz-adv-x="630" d="M40 522v50h107l17 -64q101 78 212 78q88 0 126.5 -43.5t38.5 -135.5v-357h60v-50h-190v50h60v358q0 63 -24.5 91t-81.5 28q-102 0 -195 -74v-403h60v-50h-190v50h60v472h-60zM402 677q-26 0 -75 18t-64.5 18t-25.5 -10t-18 -34l-51 16q27 93 88 93q26 0 75 -18t65 -18 t26 10t18 34l50 -16q-27 -93 -88 -93z" />
<glyph unicode="&#xf2;" horiz-adv-x="608" d="M304 45q48 0 81.5 14.5t51 35t27.5 56t12 64t2 71.5t-2 71.5t-12 64t-27.5 56t-51 35t-81.5 14.5t-81.5 -14.5t-51 -35t-27.5 -56t-12 -64t-2 -71.5t2 -71.5t12 -64t27.5 -56t51 -35t81.5 -14.5zM304 -14q-46 0 -82.5 9t-62 23.5t-44 37.5t-29 47t-16.5 56.5t-8 61 t-2 65.5t2 65.5t8 61t16.5 56.5t29 47t44 37.5t62 23.5t82.5 9t82.5 -9t62 -23.5t44 -37.5t29 -47t16.5 -56.5t8 -61t2 -65.5t-2 -65.5t-8 -61t-16.5 -56.5t-29 -47t-44 -37.5t-62 -23.5t-82.5 -9zM411 666l-42 -42l-172 150l53 53z" />
<glyph unicode="&#xf3;" horiz-adv-x="608" d="M304 45q48 0 81.5 14.5t51 35t27.5 56t12 64t2 71.5t-2 71.5t-12 64t-27.5 56t-51 35t-81.5 14.5t-81.5 -14.5t-51 -35t-27.5 -56t-12 -64t-2 -71.5t2 -71.5t12 -64t27.5 -56t51 -35t81.5 -14.5zM304 -14q-46 0 -82.5 9t-62 23.5t-44 37.5t-29 47t-16.5 56.5t-8 61 t-2 65.5t2 65.5t8 61t16.5 56.5t29 47t44 37.5t62 23.5t82.5 9t82.5 -9t62 -23.5t44 -37.5t29 -47t16.5 -56.5t8 -61t2 -65.5t-2 -65.5t-8 -61t-16.5 -56.5t-29 -47t-44 -37.5t-62 -23.5t-82.5 -9zM276 624l-42 42l161 161l53 -53z" />
<glyph unicode="&#xf4;" horiz-adv-x="608" d="M304 45q48 0 81.5 14.5t51 35t27.5 56t12 64t2 71.5t-2 71.5t-12 64t-27.5 56t-51 35t-81.5 14.5t-81.5 -14.5t-51 -35t-27.5 -56t-12 -64t-2 -71.5t2 -71.5t12 -64t27.5 -56t51 -35t81.5 -14.5zM304 -14q-46 0 -82.5 9t-62 23.5t-44 37.5t-29 47t-16.5 56.5t-8 61 t-2 65.5t2 65.5t8 61t16.5 56.5t29 47t44 37.5t62 23.5t82.5 9t82.5 -9t62 -23.5t44 -37.5t29 -47t16.5 -56.5t8 -61t2 -65.5t-2 -65.5t-8 -61t-16.5 -56.5t-29 -47t-44 -37.5t-62 -23.5t-82.5 -9zM195 624l-42 42l136 155h29l136 -155l-42 -42l-109 110z" />
<glyph unicode="&#xf5;" horiz-adv-x="608" d="M304 45q48 0 81.5 14.5t51 35t27.5 56t12 64t2 71.5t-2 71.5t-12 64t-27.5 56t-51 35t-81.5 14.5t-81.5 -14.5t-51 -35t-27.5 -56t-12 -64t-2 -71.5t2 -71.5t12 -64t27.5 -56t51 -35t81.5 -14.5zM304 -14q-46 0 -82.5 9t-62 23.5t-44 37.5t-29 47t-16.5 56.5t-8 61 t-2 65.5t2 65.5t8 61t16.5 56.5t29 47t44 37.5t62 23.5t82.5 9t82.5 -9t62 -23.5t44 -37.5t29 -47t16.5 -56.5t8 -61t2 -65.5t-2 -65.5t-8 -61t-16.5 -56.5t-29 -47t-44 -37.5t-62 -23.5t-82.5 -9zM377 677q-25 0 -74 18t-65 18t-26 -10t-18 -34l-51 16q27 93 88 93 q25 0 75 -18t65.5 -18t25.5 10t18 34l50 -16q-27 -93 -88 -93z" />
<glyph unicode="&#xf6;" horiz-adv-x="608" d="M304 45q48 0 81.5 14.5t51 35t27.5 56t12 64t2 71.5t-2 71.5t-12 64t-27.5 56t-51 35t-81.5 14.5t-81.5 -14.5t-51 -35t-27.5 -56t-12 -64t-2 -71.5t2 -71.5t12 -64t27.5 -56t51 -35t81.5 -14.5zM304 -14q-46 0 -82.5 9t-62 23.5t-44 37.5t-29 47t-16.5 56.5t-8 61 t-2 65.5t2 65.5t8 61t16.5 56.5t29 47t44 37.5t62 23.5t82.5 9t82.5 -9t62 -23.5t44 -37.5t29 -47t16.5 -56.5t8 -61t2 -65.5t-2 -65.5t-8 -61t-16.5 -56.5t-29 -47t-44 -37.5t-62 -23.5t-82.5 -9zM228.5 681q-10.5 -9 -30 -9t-29.5 9t-12 18.5t-2 26t2 26t12 18.5t34 9 t32 -14t8 -35t-2 -30.5t-12.5 -18.5zM438.5 681q-10.5 -9 -30 -9t-29.5 9t-12 18.5t-2 26t2 26t12 18.5t34 9t32 -14t8 -35t-2 -30.5t-12.5 -18.5z" />
<glyph unicode="&#xf7;" d="M94 288v60h392v-60h-392zM242 149q0 18 2 28.5t13 20.5t37 10t35 -16t9 -35.5t-1.5 -28t-6.5 -18.5q-9 -19 -48.5 -19t-39.5 58zM242 476q0 18 2 28.5t13 20.5t37 10t35 -16t9 -35.5t-1.5 -28t-6.5 -17.5q-9 -20 -48.5 -20t-39.5 58z" />
<glyph unicode="&#xf8;" horiz-adv-x="608" d="M60 278q0 45 2 73.5t8 61t16.5 56.5t29 47t44.5 38q57 32 144 32q21 0 53 -4l28 104h53l-31 -114q90 -28 117 -112q24 -71 24 -174q0 -122 -26 -183q-26 -57 -74 -85q-57 -32 -144 -32q-29 0 -53 3l-28 -104h-52l30 115q-90 28 -117 112q-24 71 -24 166zM132 357.5 q-2 -28.5 -2 -95t16 -122t71 -80.5l125 464q-18 3 -52 3t-67.5 -14.5t-51 -35t-27.5 -56t-12 -64zM266 47q24 -2 55 -2t64.5 14.5t51 35t27.5 56t12 64t2 71t-2.5 71t-10.5 61.5q-16 67 -74 93z" />
<glyph unicode="&#xf9;" horiz-adv-x="696" d="M60 572h130v-408q0 -64 25.5 -91.5t88.5 -27.5q107 0 202 87v390h-60v50h130v-522h60v-50h-107l-20 73q-105 -87 -220 -87q-94 0 -131.5 42t-37.5 135v359h-60v50zM432 666l-42 -42l-172 150l53 53z" />
<glyph unicode="&#xfa;" horiz-adv-x="696" d="M60 572h130v-408q0 -64 25.5 -91.5t88.5 -27.5q107 0 202 87v390h-60v50h130v-522h60v-50h-107l-20 73q-105 -87 -220 -87q-94 0 -131.5 42t-37.5 135v359h-60v50zM331 624l-42 42l161 161l53 -53z" />
<glyph unicode="&#xfb;" horiz-adv-x="696" d="M60 572h130v-408q0 -64 25.5 -91.5t88.5 -27.5q107 0 202 87v390h-60v50h130v-522h60v-50h-107l-20 73q-105 -87 -220 -87q-94 0 -131.5 42t-37.5 135v359h-60v50zM247 624l-42 42l136 155h29l136 -155l-42 -42l-109 110z" />
<glyph unicode="&#xfc;" horiz-adv-x="696" d="M190 572v-408q0 -64 25.5 -91.5t88.5 -27.5q107 0 202 87v390h-60v50h130v-522h60v-50h-107l-20 73q-105 -87 -220 -87q-94 0 -131.5 42t-37.5 135v359h-60v50h130zM489.5 681q-10.5 -9 -30 -9t-29.5 9t-12 18.5t-2 26t2 26t12 18.5t34 9t32 -14t8 -35t-2 -30.5 t-12.5 -18.5zM279.5 681q-10.5 -9 -30 -9t-29.5 9t-12 18.5t-2 26t2 26t12 18.5t34 9t32 -14t8 -35t-2 -30.5t-12.5 -18.5z" />
<glyph unicode="&#xfd;" horiz-adv-x="572" d="M99 -227v50l59 5q25 2 33 9t16 27l46 123l-204 535h-39v50h166v-50h-57l167 -446l166 446h-56v50h166v-50h-39l-260 -684q-13 -34 -28 -49.5t-46 -15.5h-90zM274 624l-42 42l161 161l53 -53z" />
<glyph unicode="&#xfe;" horiz-adv-x="636" d="M40 694v56h130v-231q76 67 167 67q57 0 98.5 -17t64.5 -43t36.5 -68t17 -80.5t3.5 -91.5t-3.5 -91.5t-17 -80.5t-36.5 -68t-64.5 -43t-112 -17t-153.5 37v-194h80v-56h-210v56h60v865h-60zM337 522q-92 0 -167 -71v-369q72 -32 167 -32q96 0 126 69q15 35 19.5 72.5 t4.5 86t-2.5 78.5t-11.5 63t-24.5 54t-44 35t-67.5 14z" />
<glyph unicode="&#xff;" horiz-adv-x="572" d="M99 -227v50l59 5q25 2 33 9t16 27l46 123l-204 535h-39v50h166v-50h-57l167 -446l166 446h-56v50h166v-50h-39l-260 -684q-13 -34 -28 -49.5t-46 -15.5h-90zM230.5 681q-10.5 -9 -30 -9t-29.5 9t-12 18.5t-2 26t2 26t12 18.5t34 9t32 -14t8 -35t-2 -30.5t-12.5 -18.5z M440.5 681q-10.5 -9 -30 -9t-29.5 9t-12 18.5t-2 26t2 26t12 18.5t34 9t32 -14t8 -35t-2 -30.5t-12.5 -18.5z" />
<glyph unicode="&#x131;" horiz-adv-x="320" d="M70 522v50h130v-522h60v-50h-190v50h60v472h-60z" />
<glyph unicode="&#x141;" horiz-adv-x="507" d="M70 680v50h212v-50h-80v-259l89 36v-55l-89 -36v-307h239v99h56v-158h-427v50h60v287l-89 -35v55l89 35v288h-60z" />
<glyph unicode="&#x142;" horiz-adv-x="310" d="M60 700v50h130v-329l90 36v-55l-90 -36v-316h60v-50h-190v50h60v288l-90 -36v55l90 36v307h-60z" />
<glyph unicode="&#x152;" horiz-adv-x="1013" d="M933 572h-56v99h-339q42 -39 58.5 -104.5t18.5 -165.5h268v-60h-268q-2 -107 -18 -174.5t-59 -107.5h359v99h56v-158h-616q-140 0 -205 62q-30 27 -46.5 77t-21 99.5t-4.5 126t4.5 126.5t21 99.5t46.5 77.5q67 62 205 62h596v-158zM337 671q-103 0 -152 -53 q-41 -43 -49 -148q-4 -41 -4 -105t3.5 -105.5t15.5 -83t34 -64.5q49 -53 152 -53h13q96 2 142 56q39 45 48 147q3 41 3 103t-3.5 103t-15 82t-32.5 64q-45 53 -142 57h-13z" />
<glyph unicode="&#x153;" horiz-adv-x="987" d="M501 67q-55 -81 -197 -81q-202 0 -234 174q-10 54 -10 108.5t2 83t8 61t16.5 56.5t29 47t44.5 38q57 32 144 32q141 0 199 -83q55 83 191 83q61 0 104.5 -17t68 -43t38.5 -68t18 -80.5t4 -91.5v-16h-398q1 -122 34.5 -173.5t128 -51.5t128.5 34.5t40 100.5l58 -3 q-4 -43 -14 -73.5t-32 -59.5q-47 -58 -182.5 -58t-188.5 81zM304 45q76 0 117 32t46 85q-8 48 -8 122.5t9 124.5q-6 53 -47 85.5t-117 32.5q-48 0 -81.5 -14.5t-51 -35t-27.5 -56t-12 -64t-2 -71.5t2 -71.5t12 -64t27.5 -56t51 -35t81.5 -14.5zM694 527q-51 0 -84.5 -16 t-49.5 -47q-29 -52 -31 -139h327q-2 90 -29 141q-32 61 -133 61z" />
<glyph unicode="&#x160;" horiz-adv-x="618" d="M123 0h-54v216h54q2 -75 49 -122.5t140.5 -47.5t131 34t37.5 102.5t-27 96.5t-99 42l-90 17q-108 21 -148.5 61t-40.5 138.5t48 152.5t166 54q137 0 191 -92v78h54v-178h-54q-20 132 -176 132q-91 0 -124 -37t-33 -106t23 -95t97 -40l89 -17q110 -21 153 -62.5t43 -139 t-51.5 -149.5t-184.5 -52t-194 100v-86zM417 985l42 -42l-136 -155h-29l-136 155l42 42l109 -110z" />
<glyph unicode="&#x161;" horiz-adv-x="568" d="M476 572v-202h-46q-8 99 -48 130q-22 16 -49 21.5t-80 5.5t-81.5 -27t-28.5 -69.5t23.5 -64t82.5 -36.5l78 -21q92 -25 131.5 -58.5t39.5 -104.5q0 -160 -197 -160q-125 0 -177 88l2 -74h-51v202h46q17 -157 171 -157q136 0 136 101q0 36 -23 58t-81 37l-78 21 q-93 24 -133 57.5t-40 106.5t47.5 116.5t140.5 43.5q119 0 165 -72l-1 58h51zM394 827l42 -42l-136 -155h-29l-136 155l42 42l109 -110z" />
<glyph unicode="&#x178;" horiz-adv-x="492" d="M282 56h70v-56h-212v56h70v199l-190 419h-45v56h182v-56h-62l151 -342l150 342h-61v56h182v-56h-46l-189 -419v-199zM170.5 839q-10.5 -9 -30 -9t-29.5 9t-12 18.5t-2 26t2 26t12 18.5t34 9t32 -14t8 -35t-2 -30.5t-12.5 -18.5zM380.5 839q-10.5 -9 -30 -9t-29.5 9 t-12 18.5t-2 26t2 26t12 18.5t34 9t32 -14t8 -35t-2 -30.5t-12.5 -18.5z" />
<glyph unicode="&#x17d;" horiz-adv-x="525" d="M515 0h-485v46l383 620h-307v-94h-56v158h455v-46l-383 -620h337v94h56v-158zM371 985l42 -42l-136 -155h-29l-136 155l42 42l109 -110z" />
<glyph unicode="&#x17e;" horiz-adv-x="536" d="M436 166h50v-166h-446v50l356 466h-282v-110h-50v166h418v-50l-356 -466h310v110zM388 827l42 -42l-136 -155h-29l-136 155l42 42l109 -110z" />
<glyph unicode="&#x192;" d="M114 286v60h116v143q0 96 42 145.5t134 49.5t144 -52l-37 -46q-36 39 -100 39t-86 -33.5t-22 -102.5v-143h156v-60h-156v-332q0 -194 -199 -194l10 61q67 0 90.5 32t23.5 101v332h-116z" />
<glyph unicode="&#x2c6;" horiz-adv-x="401" d="M92 624l-42 42l136 155h29l136 -155l-42 -42l-109 110z" />
<glyph unicode="&#x2c7;" horiz-adv-x="371" d="M294 827l42 -42l-136 -155h-29l-136 155l42 42l109 -110z" />
<glyph unicode="&#x2d8;" horiz-adv-x="425" d="M282 779h56q0 -78 -33 -108q-29 -27 -81 -27t-78.5 10.5t-38.5 31.5q-20 35 -20 93h55q0 -24 3 -37.5t19.5 -25t47.5 -11.5t47.5 11.5t19.5 25t3 37.5z" />
<glyph unicode="&#x2d9;" horiz-adv-x="274" d="M179.5 671q-12.5 -11 -32.5 -11t-31 5.5t-16 16.5q-7 17 -7 40t2.5 35t14.5 23t34.5 11t35 -11t15 -23t2.5 -31.5t-2.5 -31.5t-15 -23z" />
<glyph unicode="&#x2da;" horiz-adv-x="274" d="M115.5 680q9.5 -9 29 -9t29.5 9t12 19t2 26.5t-2 26t-12 19t-33.5 9.5t-31 -14.5t-7.5 -35.5t2 -31t11.5 -19zM144 628q-32 0 -52 8t-28.5 24t-11 30t-2.5 35t2.5 35t11 30.5t28.5 24.5t52 8t53 -8t29.5 -24.5t11 -30.5t2.5 -35t-2.5 -35t-11 -30t-29.5 -24t-53 -8z" />
<glyph unicode="&#x2db;" horiz-adv-x="332" d="M158 -215q-108 0 -108 96q0 39 20.5 63.5t61.5 49.5l93 57l28 -42l-93 -57q-27 -17 -39.5 -32.5t-12.5 -38.5q0 -46 50 -46q28 0 49.5 18.5t32.5 43.5l42 -28q-18 -36 -51 -60t-73 -24z" />
<glyph unicode="&#x2dc;" horiz-adv-x="410" d="M278 677q-26 0 -75 18t-64.5 18t-25.5 -10t-18 -34l-51 16q27 93 88 93q26 0 75 -18t65 -18t26 10t18 34l50 -16q-27 -93 -88 -93z" />
<glyph unicode="&#x2dd;" horiz-adv-x="547" d="M92 624l-42 42l161 161l53 -53zM325 624l-42 42l161 161l53 -53z" />
<glyph unicode="&#x3c0;" horiz-adv-x="635" d="M70 522v50h495v-50h-60v-522h-70v522h-235v-522h-70v522h-60z" />
<glyph unicode="&#x2013;" d="M70 288v60h440v-60h-440z" />
<glyph unicode="&#x2014;" horiz-adv-x="913" d="M70 288v60h773v-60h-773z" />
<glyph unicode="&#x2018;" horiz-adv-x="263" d="M160.5 647q5.5 -21 5.5 -36.5t-2 -26t-13 -20t-37 -9.5t-35 15.5t-9 43t10.5 55.5t25.5 47q32 44 54 60l10 7l23 -27q-13 -12 -19 -20q-19 -23 -19 -59q0 -9 5.5 -30z" />
<glyph unicode="&#x2019;" horiz-adv-x="263" d="M102.5 691q-5.5 21 -5.5 36.5t2 26t13 20t37 9.5t35 -15.5t9 -43t-10.5 -55.5t-24.5 -47q-33 -44 -54 -60l-11 -7l-23 27q13 12 20 20q18 23 18 59q0 9 -5.5 30z" />
<glyph unicode="&#x201a;" horiz-adv-x="226" d="M77 -14l-12 64q0 18 2 28.5t13 20.5t37 10t35 -16t9 -43.5t-10.5 -55.5t-24.5 -48q-33 -43 -54 -58l-11 -8l-23 27q13 12 20 20q19 22 19 59z" />
<glyph unicode="&#x201c;" horiz-adv-x="420" d="M160.5 647q5.5 -21 5.5 -36.5t-2 -26t-13 -20t-37 -9.5t-35 15.5t-9 43t10.5 55.5t25.5 47q32 44 54 60l10 7l24 -27q-20 -17 -29.5 -33.5t-9.5 -35.5t5.5 -40zM317.5 647q5.5 -21 5.5 -36.5t-2 -26t-13 -20t-37 -9.5t-35 15.5t-9 43t10.5 55.5t24.5 47q33 44 54 60l11 7 l23 -27q-13 -12 -20 -20q-18 -23 -18 -59q0 -9 5.5 -30z" />
<glyph unicode="&#x201d;" horiz-adv-x="420" d="M259.5 691q-5.5 21 -5.5 36.5t2 26t13 20t37 9.5t35 -15.5t9 -43t-10.5 -55.5t-25.5 -47q-32 -44 -54 -60l-10 -7l-24 27q20 17 29.5 33.5t9.5 35.5t-5.5 40zM102.5 691q-5.5 21 -5.5 36.5t2 26t13 20t37 9.5t35 -15.5t9 -43t-10.5 -55.5t-24.5 -47q-33 -44 -54 -60 l-11 -7l-23 27q13 12 20 20q18 23 18 59q0 9 -5.5 30z" />
<glyph unicode="&#x201e;" horiz-adv-x="383" d="M227.5 16q-5.5 21 -5.5 36.5t2 26t13 20t37 9.5t35 -15.5t9 -43t-10.5 -55.5t-25.5 -48q-32 -43 -54 -58l-10 -8l-24 27q20 17 29.5 33.5t9.5 35.5t-5.5 40zM70.5 16q-5.5 21 -5.5 36.5t2 26t13 20t37 9.5t35 -15.5t9 -43t-10.5 -55.5t-24.5 -48q-33 -43 -54 -58l-11 -8 l-23 27q13 12 20 20q18 23 18 59q0 9 -5.5 30z" />
<glyph unicode="&#x2020;" horiz-adv-x="440" d="M420 572v-76h-76l-88 11l-12 -507h-48l-13 507l-87 -11h-76v76h76l86 -11l-4 169h84l-4 -169l86 11h76z" />
<glyph unicode="&#x2021;" horiz-adv-x="440" d="M20 158v76h76l92 -12v-21l8 164l-8 164v-21l-92 -12h-76v76h76l90 -12l-8 170h84l-9 -170l91 12h76v-76h-76l-92 12v19l-8 -162l8 -162v19l92 12h76v-76h-76l-91 12l9 -170h-84l8 170l-90 -12h-76z" />
<glyph unicode="&#x2022;" horiz-adv-x="264" d="M171.5 253q-15.5 -7 -40 -7t-39.5 7.5t-22 21.5q-10 23 -10 53.5t3.5 47t20 31t44.5 14.5t43.5 -7t22 -21.5t8.5 -27.5t2 -32t-2 -31.5t-8.5 -27t-22 -21.5z" />
<glyph unicode="&#x2026;" horiz-adv-x="678" d="M65 50q0 18 2 28.5t13 20.5t37 10t35 -16t9 -35.5t-1.5 -28t-5.5 -17.5q-10 -20 -49.5 -20t-39.5 58zM291 50q0 18 2 28.5t13 20.5t37 10t35 -16t9 -35.5t-1.5 -28t-5.5 -17.5q-10 -20 -49.5 -20t-39.5 58zM517 50q0 18 2 28.5t13 20.5t37 10t35 -16t9 -35.5t-1.5 -28 t-5.5 -17.5q-10 -20 -49.5 -20t-39.5 58z" />
<glyph unicode="&#x2030;" horiz-adv-x="1373" d="M348 -66l214 801h53l-215 -801h-52zM1165 -8q-47 0 -76.5 14t-43.5 44.5t-18.5 64t-4.5 88t4.5 88t18.5 63.5q27 59 120 59q74 0 107 -37q28 -31 34 -102q3 -28 3 -77t-4.5 -82.5t-18.5 -64t-44 -44.5t-77 -14zM1093.5 73.5q16.5 -37.5 72 -37.5t72 37.5t16.5 129 t-16.5 129t-72 37.5t-72 -37.5t-16.5 -129t16.5 -129zM214 263q-47 0 -76.5 14t-43.5 44.5t-18.5 64t-4.5 88t4.5 88t18.5 64.5q27 58 120 58q74 0 107 -36q28 -32 35 -102q2 -29 2 -78t-4.5 -82.5t-18.5 -64t-44 -44.5t-77 -14zM142.5 344.5q16.5 -37.5 72 -37.5t72 37.5 t16.5 129t-16.5 129t-72 37.5t-72 -37.5t-16.5 -129t16.5 -129zM765 -8q-47 0 -76.5 14t-43.5 44.5t-18.5 64t-4.5 88t4.5 88t18.5 63.5q27 59 120 59q74 0 107 -37q28 -31 34 -102q3 -28 3 -77t-4.5 -82.5t-18.5 -64t-44 -44.5t-77 -14zM693.5 73.5q16.5 -37.5 72 -37.5 t72 37.5t16.5 129t-16.5 129t-72 37.5t-72 -37.5t-16.5 -129t16.5 -129z" />
<glyph unicode="&#x2039;" horiz-adv-x="305" d="M245 158l-47 -46l-168 187v32l168 187l47 -46l-124 -157z" />
<glyph unicode="&#x203a;" horiz-adv-x="305" d="M60 472l47 46l168 -187v-32l-168 -187l-47 46l124 157z" />
<glyph unicode="&#x2044;" horiz-adv-x="267" d="M0 -66l214 801h53l-215 -801h-52z" />
<glyph unicode="&#x20ac;" d="M47 365v60h65q4 64 15.5 108.5t38.5 80.5q52 70 187 70q99 0 143.5 -42.5t46.5 -124.5h-62q0 107 -128 107q-91 0 -128 -48t-43 -151h193v-60h-195v-60h195v-60h-193q6 -104 43 -152t128 -48q129 0 129 110h61q-2 -83 -46 -126t-144 -43q-132 0 -183 64t-58 195h-65v60 h63v60h-63z" />
<glyph unicode="&#x2122;" horiz-adv-x="955" d="M840 730v-442h-56v358l-122 -318h-53l-113 315v-355h-56v442h79l117 -335l126 335h78zM75 680v50h283v-50h-114v-392h-56v392h-113z" />
<glyph unicode="&#x2126;" horiz-adv-x="743" d="M371 625q-132 0 -181.5 -59.5t-49.5 -179.5q0 -77 36 -132t101 -82v-172h-50v133q-159 61 -159 259q0 142 71.5 217t231.5 75t231.5 -75t71.5 -217q0 -197 -159 -259v-83h132v-50h-182v172q65 27 101 82t36 132q0 120 -49.5 179.5t-181.5 59.5zM95 0v50h132v-50h-132z " />
<glyph unicode="&#x2202;" horiz-adv-x="615" d="M555 374q0 -200 -69.5 -294t-226.5 -94q-199 0 -199 181q0 167 68.5 253t222.5 86q99 0 139 -63q-7 165 -108 280l42 41q131 -141 131 -390zM270 45q112 0 160.5 68.5t48.5 201t-138 132.5q-113 0 -161.5 -68.5t-48.5 -201t139 -132.5z" />
<glyph unicode="&#x2206;" horiz-adv-x="572" d="M248 670h76l248 -670h-572zM286 590l-197 -540h394z" />
<glyph unicode="&#x220f;" horiz-adv-x="685" d="M70 620v50h545v-50h-60v-797h-70v797h-285v-797h-70v797h-60z" />
<glyph unicode="&#x2211;" horiz-adv-x="555" d="M50 670h465v-50h-389l238 -371l-236 -376h387v-50h-465v50l239 376l-239 371v50z" />
<glyph unicode="&#x2212;" d="M94 288v60h392v-60h-392z" />
<glyph unicode="&#x221a;" horiz-adv-x="547" d="M597 730v-50h-136l-214 -680h-76l-171 437h71l135 -353l200 646h191z" />
<glyph unicode="&#x221e;" horiz-adv-x="637" d="M442 486q77 0 116 -36.5t39 -131t-39 -131t-121.5 -36.5t-115.5 70q-31 -70 -126 -70q-77 0 -116 36.5t-39 131t39 131t121.5 36.5t115.5 -71q31 71 126 71zM440 211q50 0 75.5 23.5t25.5 84t-25.5 84t-72.5 23.5t-68 -18.5t-28 -65.5l-7 -46q16 -85 100 -85zM197 426 q-50 0 -75.5 -23.5t-25.5 -84t25.5 -84t72 -23.5t67 17t27.5 60l9 53q-18 85 -100 85z" />
<glyph unicode="&#x222b;" horiz-adv-x="451" d="M263 -46q0 -96 -42 -145.5t-137 -49.5q-50 0 -84 14l25 55q28 -10 59 -10q60 0 82 33.5t22 102.5v535q0 96 42 145.5t137 49.5q50 0 84 -14l-25 -55q-28 10 -59 10q-60 0 -82 -33.5t-22 -102.5v-535z" />
<glyph unicode="&#x2248;" d="M94 448q34 -24 76.5 -24t119 21.5t118 21.5t78.5 -19v-60q-38 21 -79 21t-117.5 -21.5t-117.5 -21.5t-78 22v60zM94 248q34 -24 76.5 -24t119 21.5t118 21.5t78.5 -19v-60q-38 21 -79 21t-117.5 -21.5t-117.5 -21.5t-78 22v60z" />
<glyph unicode="&#x2260;" d="M84 388v60h210l77 287h53l-77 -287h129v-60h-145l-38 -140h183v-60h-199l-68 -254h-52l68 254h-141v60h157l37 140h-194z" />
<glyph unicode="&#x2264;" d="M89 349v76l402 168v-66l-343 -140l343 -140v-66zM94 0v60h392v-60h-392z" />
<glyph unicode="&#x2265;" d="M491 425v-76l-402 -168v66l343 140l-343 140v66zM94 0v60h392v-60h-392z" />
<glyph unicode="&#x25ca;" horiz-adv-x="572" d="M248 770h76l198 -435l-198 -435h-76l-198 435zM286 -35l165 370l-165 370l-165 -370z" />
<glyph unicode="&#x25fc;" horiz-adv-x="570" d="M0 570h570v-570h-570v570z" />
<glyph unicode="&#xfb01;" horiz-adv-x="638" d="M188 611v-39h120v-50h-120v-472h80v-50h-210v50h60v472h-68v50h68v34q0 78 27 113.5t112 35.5h61v-50l-61 -5q-42 -4 -55.5 -23t-13.5 -66zM388 522v50h130v-522h60v-50h-190v50h60v472h-60zM513.5 681q-10.5 -9 -30 -9t-29.5 9t-12 18.5t-2 26t2 26t12 18.5t34 9t32 -14 t8 -35t-2 -30.5t-12.5 -18.5z" />
<glyph unicode="&#xfb02;" horiz-adv-x="628" d="M188 611v-39h120v-50h-120v-472h80v-50h-210v50h60v472h-68v50h68v34q0 78 27 113.5t112 35.5h61v-50l-61 -5q-42 -4 -55.5 -23t-13.5 -66zM378 700v50h130v-700h60v-50h-190v50h60v650h-60z" />
<glyph horiz-adv-x="923" d="M589 -89l-23 1q-14 0 -31.5 -12t-26.5 -12l-46 10q-8 0 -23.5 -6t-24 -6t-24.5 12.5t-29 12.5l-24 -2q-15 0 -33 17l-18 19q-12 6 -25 7t-22 6.5t-16 23t-12.5 22t-19.5 10t-20 14.5q-5 9 -7 23.5t-6 21t-14 13.5q-22 18 -22 38l3 25q0 9 -12.5 26.5t-12.5 26.5t6 23.5 t6 23t-6 21.5t-6 22t12.5 29.5t12.5 29.5l-1 25q0 15 16.5 29.5t19 19.5t4.5 21t6 22t19.5 12t20.5 11t12 20.5t13.5 21t25.5 9.5t24.5 7t20.5 20t29 18l26 -2q13 0 28.5 11.5t26.5 11.5l44 -12l45 12q13 0 29 -12.5t28 -12.5l28 3q16 0 29 -16.5t19.5 -20t21.5 -6.5 t22.5 -8t12.5 -19t10.5 -19t25.5 -15.5t24.5 -18.5t5 -24t3 -20.5t19.5 -19t17 -30.5l-1 -25q0 -13 12 -31.5t12 -27.5t-5.5 -22t-5.5 -20t5.5 -21.5t5 -22.5t-12.5 -20.5t-12 -26.5l2 -32q0 -16 -16 -29t-18.5 -18t-7 -24t-10 -25.5t-18 -12t-17.5 -10.5t-14 -21.5 t-16 -21.5t-24.5 -9.5t-22.5 -7.5t-18.5 -16.5t-28.5 -13.5zM462 -6l33 -7q6 0 17 7q15 10 27 10l15 -1q12 0 21 10t12.5 12t16.5 5.5t18.5 7.5t12 15.5t10 15t12.5 7.5t13 8.5t7 18.5t5.5 18t13.5 13t11 23l-1 20q0 11 8.5 20.5t9.5 15.5l-8 32l8 28q0 8 -9 22t-9 23l1 17 q0 12 -12 22t-14 14t-2.5 15.5t-3.5 17t-17.5 13t-18.5 11.5t-8 14t-9 14t-16 6t-16 4.5t-14 14.5t-21 12l-20 -2q-9 0 -20 9t-21 9l-33 -9l-32 9q-8 0 -20 -8.5t-22 -8.5l-17 1q-11 0 -21.5 -12.5t-15 -15t-17.5 -5t-18 -6.5t-10 -15t-9 -15t-14.5 -8t-14.5 -9 q-2 -4 -4 -15.5t-4 -15.5t-14 -14.5t-12 -21.5l1 -16q0 -8 -8.5 -23t-8.5 -23l8 -30l-8 -33q0 -8 8.5 -20.5t8.5 -20.5l-2 -16q0 -11 12.5 -22.5t14.5 -15.5t3.5 -14.5t5.5 -17t14 -10.5t14 -7.5t9.5 -16.5t11.5 -17t15.5 -4t15.5 -3t17.5 -15.5t22.5 -12.5l15 1 q10 0 22 -8.5t18 -9.5zM462 417q70 0 120 -49.5t50 -120.5t-50 -120.5t-120 -49.5t-120 49.5t-50 120.5t50 120.5t120 49.5zM505 292h52v68h-191v-68h54v-175h85v175z" />
</font>
</defs>
</svg>
