<?xml version="1.0" standalone="no"?>
<!DOCTYPE svg PUBLIC "-//W3C//DTD SVG 1.1//EN" "http://www.w3.org/Graphics/SVG/1.1/DTD/svg11.dtd" >
<svg xmlns="http://www.w3.org/2000/svg">
<metadata></metadata>
<defs>
<font id="hemi_head_rgbold_italic" horiz-adv-x="675" >
<font-face units-per-em="1000" ascent="744" descent="-256" />
<missing-glyph horiz-adv-x="276" />
<glyph unicode="&#x28;C&#x29;" horiz-adv-x="684" d="M493 0h-304q-64 0 -93.5 20.5t-29.5 68.5q0 22 6 52l84 395q16 77 56.5 109t119.5 32h304q64 0 93 -21t29 -68q0 -22 -6 -52l-84 -395q-16 -77 -56 -109t-119 -32zM577 130l89 417q2 14 2 20q0 34 -42 34h-315q-28 0 -42.5 -12t-20.5 -42l-89 -417q-2 -8 -2 -21 q0 -34 42 -34h315q51 0 63 55zM477 209h-133q-48 0 -48 37q0 13 2 20l33 154q12 57 70 57h132l-16 -73h-88q-17 0 -21 -19l-17 -83q-1 -3 -1 -7q0 -10 14 -10h89z" />
<glyph unicode="&#x28;R&#x29;" horiz-adv-x="684" d="M493 0h-304q-64 0 -93.5 20.5t-29.5 68.5q0 22 6 52l84 395q16 77 56.5 109t119.5 32h304q64 0 93 -21t29 -68q0 -22 -6 -52l-84 -395q-16 -77 -56 -109t-119 -32zM577 130l89 417q2 14 2 20q0 34 -42 34h-315q-28 0 -42.5 -12t-20.5 -42l-89 -417q-2 -8 -2 -21 q0 -34 42 -34h315q51 0 63 55zM503 209h-76l15 71v4q0 10 -17 10h-67l-18 -85h-77l37 176h77l-6 -31h62q20 0 23 17l6 27q1 2 1 7q0 9 -13 9h-144l14 63h189q38 0 38 -30q0 -5 -2 -15l-12 -59q-7 -38 -43 -44q32 -3 32 -25q0 -6 -1 -9z" />
<glyph unicode="&#x28;P&#x29;" horiz-adv-x="684" d="M493 0h-304q-64 0 -93.5 20.5t-29.5 68.5q0 22 6 52l84 395q16 77 56.5 109t119.5 32h304q64 0 92.5 -20.5t28.5 -67.5q0 -23 -6 -53l-84 -395q-16 -77 -55.5 -109t-118.5 -32zM576 130l89 416q2 14 2 20q0 36 -42 36h-315q-52 0 -63 -56l-89 -416q-3 -12 -3 -21 q0 -35 43 -35h315q51 0 63 56zM469 269h-109l-14 -64h-76l35 166h76l-8 -39h66q15 0 18 16l11 50q0 2 0.5 4t0.5 3q0 10 -12 10h-142l13 62h185q39 0 39 -29q0 -4 -2 -18l-24 -114q-5 -25 -18 -36t-39 -11z" />
<glyph horiz-adv-x="276" />
<glyph unicode=" "  horiz-adv-x="276" />
<glyph unicode="&#x09;" horiz-adv-x="276" />
<glyph unicode="&#xa0;" horiz-adv-x="276" />
<glyph unicode="!" horiz-adv-x="260" d="M194 0h-128l32 151h128zM238 211h-128l99 466h128z" />
<glyph unicode="&#x22;" horiz-adv-x="397" d="M242 409h-101l66 309h101zM427 409h-101l66 309h101z" />
<glyph unicode="#" horiz-adv-x="538" d="M406 0h-82l39 184h-111l-39 -184h-82l39 184h-98l15 72h98l35 165h-98l15 72h98l39 184h82l-39 -184h111l39 184h82l-39 -184h97l-15 -72h-97l-35 -165h97l-15 -72h-97zM378 256l35 165h-111l-35 -165h111z" />
<glyph unicode="$" horiz-adv-x="533" d="M337 0h-99l19 93h-183l21 99h275q20 0 28.5 6.5t12.5 23.5l14 67q1 4 1 10q0 16 -21 16h-205q-66 0 -66 50q0 10 3 22l26 124q9 46 35 67t78 21h89l16 78h99l-16 -78h143l-19 -90h-277q-30 0 -36 -29l-13 -59q-2 -10 -2 -12q0 -15 24 -15h205q65 0 65 -51q0 -6 -2 -20 l-30 -142q-10 -46 -35.5 -67t-76.5 -21h-54z" />
<glyph unicode="%" horiz-adv-x="780" d="M340 349h-161q-49 0 -49 36q0 9 3 23l47 220q6 31 22 45t49 14h161q49 0 49 -38q0 -5 -2 -21l-47 -220q-7 -31 -23.5 -45t-48.5 -14zM332 446l31 145v6q0 11 -14 11h-71q-15 0 -18 -16l-31 -146q-1 -2 -1 -6q0 -9 13 -9h71q17 0 20 15zM227 0h-80l551 677h80zM672 -10 h-161q-49 0 -49 36q0 10 3 23l47 220q6 31 22 45t49 14h161q49 0 49 -38q0 -5 -2 -21l-47 -220q-7 -31 -23.5 -45t-48.5 -14zM664 87l31 145v6q0 11 -14 11h-71q-15 0 -18 -16l-31 -146q-1 -2 -1 -6q0 -9 13 -9h71q17 0 20 15z" />
<glyph unicode="&#x26;" horiz-adv-x="667" d="M636 0h-90q-104 0 -116 46q-27 -46 -97 -46h-168q-50 0 -72.5 18t-22.5 56q0 16 5 41l36 170q14 67 96 74q-61 6 -61 59q0 11 3 26l25 118q12 59 46 87t96 28h321l-25 -118h-266q-19 0 -27.5 -8.5t-13.5 -30.5l-20 -93q-2 -10 -2 -13q0 -18 28 -18h166l15 71h120l-15 -71 h129l-22 -102h-129l-27 -128q-3 -10 -3 -18q0 -11 7.5 -15t25.5 -4h85zM420 129l35 165h-166q-19 0 -27.5 -7.5t-12.5 -25.5l-20 -93q-2 -7 -2 -17q0 -22 28 -22h165z" />
<glyph unicode="'" horiz-adv-x="212" d="M242 409h-101l66 309h101z" />
<glyph unicode="(" horiz-adv-x="379" d="M329 -70l-16 -75q-204 5 -204 168q0 33 9 77l100 473q50 240 300 246l-16 -75q-86 -6 -130.5 -43.5t-63.5 -127.5l-100 -473q-8 -40 -8 -64q0 -53 31 -77t98 -29z" />
<glyph unicode=")" horiz-adv-x="380" d="M3 -145l16 75q86 6 130 43.5t63 126.5l100 473q8 38 8 64q0 53 -30.5 77.5t-97.5 29.5l16 75q203 -5 203 -169q0 -31 -10 -81l-98 -465q-51 -243 -300 -249z" />
<glyph unicode="*" horiz-adv-x="539" d="M542 292l-63 -46l-115 167l-115 -168l-62 47l123 159l-194 57l24 75l191 -69l-7 203h78l-6 -202l191 68l24 -74l-193 -57z" />
<glyph unicode="+" horiz-adv-x="632" d="M378 88h-88l47 218h-217l18 87h217l46 217h88l-46 -217h217l-18 -87h-217z" />
<glyph unicode="," horiz-adv-x="259" d="M122 -98h-112l96 249h128z" />
<glyph unicode="-" horiz-adv-x="385" d="M417 302h-322l18 84h322z" />
<glyph unicode="." horiz-adv-x="239" d="M184 0h-128l32 151h128z" />
<glyph unicode="/" horiz-adv-x="413" d="M117 -29h-92l416 747h92z" />
<glyph unicode="0" horiz-adv-x="650" d="M484 0h-318q-50 0 -73 18t-23 55q0 19 6 45l93 441q13 62 45 90t95 28h318q50 0 72.5 -18t22.5 -56q0 -16 -5 -44l-93 -441q-13 -62 -45 -90t-95 -28zM491 169l72 337q2 14 2 17q0 23 -34 23h-187q-20 0 -29 -8.5t-14 -30.5l-72 -338q-2 -10 -2 -14q0 -20 29 -20h187 q23 0 33.5 7.5t14.5 26.5z" />
<glyph unicode="1" horiz-adv-x="311" d="M257 0h-143l116 548h-92l27 129h235z" />
<glyph unicode="2" horiz-adv-x="649" d="M595 0h-539l55 260q15 70 48 99t102 29h241q20 0 29 8.5t14 30.5l19 90q3 11 3 19q0 20 -31 20h-191q-21 0 -31 -8.5t-14 -30.5l-10 -49h-137l20 94q12 59 46 87t96 28h308q50 0 72.5 -18t22.5 -55q0 -17 -5 -45l-36 -172q-11 -56 -42.5 -83t-87.5 -27h-256 q-20 0 -28.5 -8.5t-14.5 -35.5l-23 -106h396z" />
<glyph unicode="3" horiz-adv-x="632" d="M465 0h-311q-50 0 -73 18t-23 56q0 16 5 41l22 105h139l-12 -59q-2 -12 -2 -15q0 -21 30 -21h191q36 0 44 36l22 106q1 4 1 11q0 18 -31 18h-148l22 100h148q20 0 28 6.5t12 24.5l20 94q2 12 2 16q0 19 -29 19h-189q-20 0 -29.5 -7.5t-13.5 -27.5l-11 -53h-137l20 94 q12 59 46 87t97 28h295q52 0 75.5 -18.5t23.5 -57.5q0 -20 -4 -39l-27 -127q-16 -77 -94 -85q66 -7 66 -54q0 -6 -2 -20l-34 -161q-12 -60 -44 -87.5t-95 -27.5z" />
<glyph unicode="4" horiz-adv-x="621" d="M500 0h-132l27 131h-336l25 117l367 429h192l-91 -430h90l-25 -116h-90zM420 247l65 305l-266 -305h201z" />
<glyph unicode="5" horiz-adv-x="650" d="M481 0h-311q-50 0 -72.5 18t-22.5 56q0 16 5 41l22 105h140l-13 -61q-2 -14 -2 -17q0 -10 5.5 -13.5t20.5 -3.5h190q22 0 30 7t13 27l24 113q2 12 2 15q0 18 -26 18h-366l79 372h521l-27 -129h-378l-28 -131h302q78 0 78 -67q0 -14 -3 -29l-43 -203q-13 -62 -44.5 -90 t-95.5 -28z" />
<glyph unicode="6" horiz-adv-x="642" d="M475 0h-309q-51 0 -73.5 17.5t-22.5 55.5q0 19 6 45l93 441q13 62 44.5 90t95.5 28h306q98 0 98 -76q0 -20 -4 -39l-20 -94h-136l10 49q2 14 2 17q0 12 -7.5 16.5t-26.5 4.5h-191q-21 0 -30 -7.5t-13 -30.5l-25 -118h308q78 0 78 -65q0 -9 -4 -31l-39 -185 q-13 -62 -44.5 -90t-95.5 -28zM493 170l19 92q1 5 1 13q0 20 -28 20h-235l-26 -125q-3 -14 -3 -22q0 -22 28 -22h198q21 0 31 9.5t15 34.5z" />
<glyph unicode="7" horiz-adv-x="550" d="M236 0h-156l393 548h-329l27 129h485l-21 -102z" />
<glyph unicode="8" horiz-adv-x="644" d="M477 0h-311q-50 0 -73 18t-23 56q0 16 5 41l34 161q14 67 96 74q-61 6 -61 59q0 11 3 26l27 127q12 59 46 87t97 28h295q52 0 75.5 -18.5t23.5 -57.5q0 -20 -4 -39l-27 -127q-16 -77 -94 -85q66 -7 66 -54q0 -6 -2 -20l-34 -161q-12 -60 -44 -87.5t-95 -27.5zM541 425 l20 96q2 12 2 14q0 20 -30 20h-189q-20 0 -29 -7.5t-13 -26.5l-20 -96q-2 -10 -2 -13q0 -18 29 -18h191q20 0 28.5 6.5t12.5 24.5zM487 161l22 107q1 4 1 11q0 19 -30 19h-191q-38 0 -43 -30l-22 -107q-2 -12 -2 -15q0 -21 30 -21h191q37 0 44 36z" />
<glyph unicode="9" horiz-adv-x="648" d="M479 0h-308q-98 0 -98 75q0 15 5 40l22 102h138l-12 -54q-2 -7 -2 -18q0 -12 7.5 -16t26.5 -4h190q21 0 29.5 7.5t13.5 30.5l24 113h-308q-78 0 -78 65q0 16 4 31l39 187q13 62 44.5 90t95.5 28h310q50 0 72.5 -18t22.5 -55q0 -17 -5 -45l-93 -441q-13 -62 -44.5 -90 t-95.5 -28zM537 380l27 128q3 14 3 22q0 22 -28 22h-199q-21 0 -30.5 -9t-14.5 -35l-20 -95q-2 -10 -2 -14q0 -19 29 -19h235z" />
<glyph unicode=":" horiz-adv-x="252" d="M190 0h-128l32 151h128zM265 356h-128l32 151h128z" />
<glyph unicode=";" horiz-adv-x="263" d="M274 356h-128l32 151h128zM119 -98h-112l96 249h128z" />
<glyph unicode="&#x3c;" horiz-adv-x="632" d="M593 76l-475 223l14 64l569 224l-20 -95l-414 -161l346 -161z" />
<glyph unicode="=" horiz-adv-x="632" d="M616 187h-522l19 87h522zM667 424h-522l18 88h522z" />
<glyph unicode="&#x3e;" horiz-adv-x="632" d="M640 299l-569 -223l20 94l414 161l-346 161l20 95l475 -224z" />
<glyph unicode="?" horiz-adv-x="627" d="M549 287h-120q-16 0 -22 -5.5t-10 -22.5l-11 -48h-126l20 93q19 88 108 88h107q22 0 30.5 7t13.5 29l19 87q2 14 2 18q0 22 -33 22h-195q-20 0 -29 -8.5t-14 -29.5l-10 -49h-137l20 94q12 59 46 87t96 28h312q51 0 73.5 -18t22.5 -55q0 -17 -5 -45l-33 -158 q-12 -58 -41 -86t-84 -28zM343 0h-128l32 151h128z" />
<glyph unicode="@" horiz-adv-x="618" d="M520 -171h-419q-39 0 -55.5 13t-16.5 42q0 17 4 36l125 588q10 48 34 69.5t73 21.5h342q71 0 71 -54q0 -14 -5 -37l-80 -377q-10 -49 -33.5 -70t-71.5 -21h-154q-39 0 -56 13.5t-17 42.5q0 18 4 35l40 186q10 48 36 69.5t71 21.5h101l-17 -79h-73q-15 0 -22 -6.5 t-11 -23.5l-31 -147q-3 -10 -3 -17q0 -16 22 -16h95q17 0 24.5 7t11.5 25l71 337q2 12 2 15q0 16 -21 16h-278q-17 0 -23.5 -6.5t-10.5 -24.5l-112 -527q-2 -14 -2 -16q0 -16 24 -16h382z" />
<glyph unicode="A" horiz-adv-x="636" d="M619 0h-153l-7 105h-244l-52 -105h-147l352 677h199zM454 217l-21 324l-164 -324h185z" />
<glyph unicode="B" horiz-adv-x="664" d="M497 0h-441l106 503h152l-23 -109h212q21 0 30 6.5t13 24.5l17 82q3 11 3 18q0 21 -31 21h-363l27 131h431q98 0 98 -75q0 -15 -5 -40l-27 -127q-17 -77 -90 -85q66 -7 66 -54q0 -6 -2 -20l-34 -161q-12 -59 -44.5 -87t-94.5 -28zM497 172l19 89q2 12 2 16 q0 12 -7.5 16.5t-25.5 4.5h-214l-35 -165h214q23 0 32.5 7.5t14.5 31.5z" />
<glyph unicode="C" horiz-adv-x="586" d="M548 0h-383q-50 0 -72.5 18t-22.5 56q0 23 5 44l93 441q13 61 45.5 89.5t94.5 28.5h381l-28 -135h-306q-24 0 -32.5 -7.5t-13.5 -30.5l-71 -330q-2 -12 -2 -16q0 -21 33 -21h308z" />
<glyph unicode="D" horiz-adv-x="676" d="M447 0h-391l105 494h150l-77 -362h213q53 0 67 65l60 282q3 12 3 23q0 42 -43 42h-363l28 133h391q148 0 148 -120q0 -25 -6 -53l-71 -331q-37 -173 -214 -173z" />
<glyph unicode="E" horiz-adv-x="609" d="M553 0h-502l105 495h157l-24 -110h249l-23 -108h-249l-30 -142h345zM668 545h-502l28 132h502z" />
<glyph unicode="F" horiz-adv-x="593" d="M524 269h-255l-57 -269h-157l105 494h157l-24 -112h255zM671 544h-501l28 133h501z" />
<glyph unicode="G" horiz-adv-x="645" d="M591 0h-425q-50 0 -73 18t-23 55q0 19 6 45l93 441q13 62 45 90t95 28h418l-28 -135h-352q-20 0 -28 -7.5t-12 -29.5l-73 -345q-2 -10 -2 -13q0 -17 27 -17h217l33 154h-134l23 109h276z" />
<glyph unicode="H" horiz-adv-x="681" d="M767 677l-143 -677h-152l59 280h-265l-59 -280h-152l143 677h152l-57 -270h265l57 270h152z" />
<glyph unicode="I" horiz-adv-x="270" d="M210 0h-152l143 677h152z" />
<glyph unicode="J" horiz-adv-x="545" d="M375 0h-347l29 137h273q22 0 30 7t13 29l79 372h-118l28 132h270l-118 -559q-13 -62 -45 -90t-94 -28z" />
<glyph unicode="K" horiz-adv-x="706" d="M656 0h-156l51 241q3 15 3 24q0 13 -8.5 18t-30.5 5h-222l14 69l312 320h166l-277 -277h108q101 0 101 -89q0 -22 -6 -49zM207 0h-152l143 677h152z" />
<glyph unicode="L" horiz-adv-x="539" d="M537 137l-29 -137h-454l143 677h152l-114 -540h302z" />
<glyph unicode="M" horiz-adv-x="810" d="M755 0h-125l87 411l-251 -411h-119l-81 411l-87 -411h-126l143 677h164l88 -471l292 471h158z" />
<glyph unicode="N" horiz-adv-x="703" d="M646 0h-101l-256 444l-94 -444h-141l143 677h143l222 -404l85 404h142z" />
<glyph unicode="O" horiz-adv-x="668" d="M503 0h-337q-50 0 -73 18t-23 55q0 19 6 45l93 441q13 62 45 90t95 28h337q50 0 72.5 -18t22.5 -56q0 -17 -5 -44l-93 -441q-13 -61 -45.5 -89.5t-94.5 -28.5zM501 169l72 337q2 12 2 16q0 23 -35 23h-189q-20 0 -29 -8.5t-13 -30.5l-72 -337q-2 -10 -2 -13q0 -21 29 -21 h189q23 0 33.5 7.5t14.5 26.5z" />
<glyph unicode="P" horiz-adv-x="635" d="M526 218h-272l-46 -218h-152l105 495h152l-33 -154h209q19 0 26.5 7.5t12.5 31.5l29 133q2 10 2 14q0 18 -27 18h-361l28 132h424q50 0 72.5 -18t22.5 -56q0 -16 -5 -44l-47 -223q-13 -62 -45 -90t-95 -28z" />
<glyph unicode="Q" horiz-adv-x="673" d="M597 -96h-151l128 604q2 12 2 16q0 11 -7 15.5t-25 4.5h-197q-17 0 -25.5 -7.5t-12.5 -28.5l-64 -302q-2 -12 -2 -14q0 -18 25 -18h185l-28 -134h-251q-50 0 -73 18t-23 55q0 19 6 45l85 401q13 62 45 90t95 28h337q50 0 72.5 -18t22.5 -56q0 -17 -5 -44z" />
<glyph unicode="R" horiz-adv-x="663" d="M611 0h-152l46 221q2 12 2 15q0 16 -28 16h-219l-53 -252h-152l105 495h152l-28 -131h208q21 0 29 7t13 28l24 110q2 12 2 16q0 12 -7 16t-24 4h-359l28 132h430q98 0 98 -75q0 -15 -5 -40l-31 -147q-20 -90 -104 -99q76 -5 76 -59q0 -14 -2 -22z" />
<glyph unicode="S" horiz-adv-x="646" d="M481 0h-429l28 132h361q18 0 26.5 7t12.5 26l20 94q1 4 1 11q0 18 -26 18h-267q-78 0 -78 67q0 13 3 29l37 175q13 62 45 90t96 28h421l-27 -129h-359q-16 0 -23 -7t-11 -25l-19 -89q-2 -10 -2 -13q0 -15 22 -15h271q79 0 79 -68q0 -13 -3 -28l-39 -185q-13 -62 -45 -90 t-95 -28z" />
<glyph unicode="T" horiz-adv-x="533" d="M456 544l-115 -544h-152l115 544h-164l28 133h481l-28 -133h-165z" />
<glyph unicode="U" d="M506 0h-337q-51 0 -73.5 18t-22.5 56q0 24 5 44l118 559h152l-107 -506q-3 -12 -3 -18q0 -11 6.5 -14.5t23.5 -3.5h200q20 0 29.5 7t13.5 29l107 506h146l-118 -559q-13 -61 -45.5 -89.5t-94.5 -28.5z" />
<glyph unicode="V" horiz-adv-x="636" d="M396 0h-171l-66 677h157l38 -494l257 494h151z" />
<glyph unicode="W" horiz-adv-x="998" d="M797 0h-171l-25 483l-246 -483h-170l-26 677h156l11 -496l245 496h152l21 -495l231 495h149z" />
<glyph unicode="X" horiz-adv-x="662" d="M651 0h-168l-96 274l-214 -274h-162l292 360l-132 317h165l94 -250l200 250h157l-272 -329z" />
<glyph unicode="Y" horiz-adv-x="617" d="M384 0h-152l59 279l-135 398h159l83 -267l196 267h152l-303 -398z" />
<glyph unicode="Z" horiz-adv-x="602" d="M553 0h-504l26 123l410 421h-314l28 133h497l-24 -117l-404 -425h313z" />
<glyph unicode="[" horiz-adv-x="310" d="M244 -145h-200l205 964h200l-16 -72h-110l-174 -818h110z" />
<glyph unicode="\" horiz-adv-x="413" d="M374 -29h-92l-98 747h92z" />
<glyph unicode="]" horiz-adv-x="310" d="M204 -145h-200l15 74h112l174 818h-112l16 72h200z" />
<glyph unicode="^" horiz-adv-x="491" d="M506 284h-95l-52 254l-161 -254h-95l253 393h64z" />
<glyph unicode="_" horiz-adv-x="614" d="M572 -160h-598l18 83h598z" />
<glyph unicode="`" horiz-adv-x="372" d="M437 569h-89l-129 204h113z" />
<glyph unicode="a" horiz-adv-x="630" d="M579 0h-441q-72 0 -72 58q0 14 5 37l25 120q12 57 34 77t70 20h257l-18 -86h-184q-14 0 -20 -5t-9 -21l-11 -53q-2 -12 -2 -14q0 -13 19 -13h234l53 248q1 4 1 11q0 17 -24 17h-343l23 110h414q43 0 61.5 -14.5t18.5 -45.5q0 -14 -5 -39z" />
<glyph unicode="b" horiz-adv-x="626" d="M480 0h-428l152 718h140l-126 -594h218q15 0 21.5 6t10.5 22l43 205q2 10 2 13q0 15 -22 15h-168l26 121h238q80 0 80 -67q0 -8 -4 -32l-65 -308q-12 -52 -38.5 -75.5t-79.5 -23.5z" />
<glyph unicode="c" horiz-adv-x="542" d="M501 0h-357q-42 0 -60.5 14.5t-18.5 45.5q0 14 5 39l65 308q11 52 37 75.5t79 23.5h357l-26 -123h-285q-16 0 -22.5 -5t-10.5 -22l-43 -202q-2 -10 -2 -13q0 -15 23 -15h285z" />
<glyph unicode="d" horiz-adv-x="628" d="M574 0h-430q-42 0 -60.5 14.5t-18.5 45.5q0 14 5 39l65 308q20 99 116 99h239l-26 -121h-167q-16 0 -22.5 -5.5t-10.5 -22.5l-43 -205q-2 -10 -2 -13q0 -15 23 -15h217l126 594h141z" />
<glyph unicode="e" horiz-adv-x="618" d="M550 0h-410q-42 0 -61 14.5t-19 45.5q0 14 5 39l65 308q11 52 37.5 75.5t79.5 23.5h342q38 0 54.5 -14t16.5 -44q0 -18 -4 -37l-42 -199h-337l17 84h204l15 68q1 5 1 13q0 14 -21 14h-201q-17 0 -23 -5.5t-10 -22.5l-47 -218q-2 -12 -2 -15q0 -15 23 -15h341z" />
<glyph unicode="f" horiz-adv-x="347" d="M193 0h-140l127 602q14 63 42 89.5t78 26.5h174l-23 -109h-105q-25 0 -30 -26l-16 -77h125l-23 -110h-125z" />
<glyph unicode="g" horiz-adv-x="613" d="M426 -212h-410l26 121h338q16 0 23 6t11 23l95 447h-218q-16 0 -23 -6t-10 -22l-46 -216q-1 -5 -1 -11q0 -16 23 -16h168l-24 -114h-240q-42 0 -60.5 14.5t-18.5 45.5q0 14 5 39l65 308q11 52 37 75.5t79 23.5h430l-132 -619q-12 -53 -38 -76t-79 -23z" />
<glyph unicode="h" horiz-adv-x="651" d="M598 0h-139l75 357q2 10 2 12q0 16 -25 16h-209q-15 0 -22 -6t-11 -22l-75 -357h-140l152 718h140l-57 -267q38 55 99 55h222q41 0 59.5 -14t18.5 -47q0 -19 -4 -38z" />
<glyph unicode="i" horiz-adv-x="253" d="M196 0h-140l107 506h140zM317 566h-141l32 152h141z" />
<glyph unicode="j" horiz-adv-x="267" d="M66 -212h-185l26 121h114q27 0 32 26l121 571h140l-132 -619q-12 -53 -37.5 -76t-78.5 -23zM327 566h-141l32 152h141z" />
<glyph unicode="k" horiz-adv-x="646" d="M194 0h-141l152 718h141zM597 0h-140l35 168q2 14 2 18q0 22 -31 22h-200l11 51l263 247h154l-222 -203h97q76 0 76 -70q0 -18 -4 -37z" />
<glyph unicode="l" horiz-adv-x="248" d="M194 0h-140l152 718h140z" />
<glyph unicode="m" horiz-adv-x="936" d="M884 0h-140l75 357q2 10 2 13q0 15 -25 15h-150q-28 0 -33 -25l-76 -360h-140l75 357q2 10 2 13q0 15 -24 15h-151q-15 0 -22 -6t-11 -22l-75 -357h-140l107 506h135l-12 -55q36 55 99 55h169q76 0 77 -55q42 55 101 55h169q40 0 59 -14.5t19 -47.5q0 -18 -4 -37z" />
<glyph unicode="n" horiz-adv-x="649" d="M595 0h-139l75 357q2 10 2 12q0 16 -25 16h-209q-15 0 -22 -6t-11 -22l-75 -357h-140l107 506h135l-12 -55q36 55 99 55h227q41 0 59.5 -14t18.5 -47q0 -19 -4 -38z" />
<glyph unicode="o" horiz-adv-x="633" d="M488 0h-344q-42 0 -60.5 14.5t-18.5 45.5q0 14 5 39l65 308q11 52 37 75.5t79 23.5h344q43 0 61.5 -14.5t18.5 -45.5q0 -14 -5 -39l-65 -308q-12 -53 -38 -76t-79 -23zM476 151l43 206q2 10 2 12q0 16 -27 16h-198q-16 0 -22.5 -6t-9.5 -22l-43 -206q-2 -10 -2 -13 q0 -14 22 -14h198q32 0 37 27z" />
<glyph unicode="p" horiz-adv-x="624" d="M480 0h-238l25 120h168q15 0 21.5 6t10.5 22l44 205q1 5 1 13q0 16 -21 16h-218l-127 -594h-140l153 718h428q43 0 61.5 -15t18.5 -46q0 -19 -4 -38l-65 -308q-22 -99 -118 -99z" />
<glyph unicode="q" horiz-adv-x="626" d="M528 -212h-141l127 594h-217q-17 0 -23 -6t-10 -23l-44 -205q-2 -10 -2 -13q0 -15 23 -15h167l-25 -120h-239q-78 0 -78 65q0 17 4 34l65 308q11 52 37 75.5t79 23.5h430z" />
<glyph unicode="r" horiz-adv-x="451" d="M191 0h-140l107 506h136l-12 -55q36 55 99 55h147l-26 -121h-202q-28 0 -34 -28z" />
<glyph unicode="s" horiz-adv-x="621" d="M474 0h-422l24 116h347q15 0 21 4.5t9 19.5l11 50q1 3 1 8q0 13 -20 13h-271q-65 0 -65 50q0 10 3 22l28 135q9 46 35 67t77 21h418l-24 -113h-345q-28 0 -33 -27l-9 -42q-1 -3 -1 -9q0 -16 21 -16h274q66 0 66 -51q0 -6 -2 -20l-30 -140q-10 -46 -36 -67t-77 -21z" />
<glyph unicode="t" horiz-adv-x="342" d="M309 0h-163q-42 0 -60.5 14.5t-18.5 45.5q0 14 5 39l116 548h140l-30 -141h122l-23 -110h-122l-55 -259q-2 -10 -2 -13q0 -14 22 -14h92z" />
<glyph unicode="u" horiz-adv-x="640" d="M588 0h-135l11 54q-36 -54 -98 -54h-220q-41 0 -60 14.5t-19 46.5q0 15 5 38l86 407h140l-76 -357q-2 -10 -2 -13q0 -16 24 -16h201q16 0 23 6t11 23l76 357h140z" />
<glyph unicode="v" horiz-adv-x="603" d="M379 0h-168l-90 506h151l58 -368l222 368h144z" />
<glyph unicode="w" horiz-adv-x="901" d="M730 0h-177l-31 351l-192 -351h-174l-35 506h154l13 -362l190 362h165l27 -361l176 361h148z" />
<glyph unicode="x" horiz-adv-x="612" d="M603 0h-171l-88 194l-173 -194h-162l242 270l-119 236h166l87 -181l161 181h158l-225 -245z" />
<glyph unicode="y" horiz-adv-x="610" d="M423 -212h-408l26 121h336q17 0 23.5 6t10.5 23l14 62h-288q-42 0 -60.5 14.5t-18.5 45.5q0 14 5 39l86 407h140l-77 -363q-2 -10 -2 -13q0 -16 24 -16h215l83 392h141l-132 -619q-12 -52 -38.5 -75.5t-79.5 -23.5z" />
<glyph unicode="z" horiz-adv-x="571" d="M523 0h-476l23 111l348 277h-288l25 118h475l-21 -100l-344 -286h283z" />
<glyph unicode="{" horiz-adv-x="364" d="M313 -70l-16 -75q-186 3 -186 145q0 36 8 69l40 186q2 12 2 17q0 35 -35 35h-14l12 59h14q20 0 35.5 14.5t20.5 38.5l39 186q22 108 88 160t181 54l-16 -75q-136 -4 -164 -139l-39 -186q-8 -38 -24 -56t-43 -26q36 -11 36 -50q0 -16 -4 -32l-40 -186q-5 -21 -5 -45 q0 -91 110 -94z" />
<glyph unicode="|" horiz-adv-x="245" d="M136 -145h-90l205 964h90z" />
<glyph unicode="}" horiz-adv-x="366" d="M4 -145l16 75q134 4 163 138l31 145q23 108 75 124q-34 10 -34 51q0 16 7 51l35 165q5 27 5 45q0 91 -109 95l16 75q96 -2 139.5 -38t43.5 -110q0 -41 -10 -87l-35 -165q-2 -7 -2 -18q0 -35 34 -35h14l-12 -59h-14q-20 0 -35.5 -14t-20.5 -39l-35 -165 q-25 -120 -88 -176.5t-184 -57.5z" />
<glyph unicode="~" horiz-adv-x="630" d="M661 411l-21 -96q-55 -38 -145 -38q-47 0 -117 27.5t-108 27.5q-76 0 -154 -44l20 96q56 39 144 39q45 0 116 -28t111 -28q76 0 154 44z" />
<glyph unicode="&#xa1;" horiz-adv-x="260" d="M209 677h128l-32 -151h-128zM165 466h128l-99 -466h-128z" />
<glyph unicode="&#xa2;" horiz-adv-x="492" d="M466 94h-113l-19 -94h-100l19 94h-88q-42 0 -60.5 14.5t-18.5 45.5q0 14 5 39l65 308q11 52 37.5 75.5t79.5 23.5h88l16 77h100l-16 -77h113l-24 -113h-242q-29 0 -35 -28l-46 -218q-2 -10 -2 -12q0 -18 24 -18h242z" />
<glyph unicode="&#xa3;" horiz-adv-x="631" d="M583 0h-477l62 294h-67l20 92h67l40 192q11 52 37.5 75.5t78.5 23.5h312l-27 -129h-233q-27 0 -32 -27l-28 -135h220l-20 -92h-220l-34 -162h329z" />
<glyph unicode="&#xa4;" horiz-adv-x="560" d="M486 109l-78 102h-172l-120 -102l-36 46l122 101l36 172l-78 99l55 47l77 -101h172l121 101l37 -47l-123 -99l-36 -172l79 -101zM407 269l30 145h-143l-30 -145h143z" />
<glyph unicode="&#xa5;" horiz-adv-x="576" d="M578 91h-200l-19 -91h-143l19 91h-199l15 69h199l14 67h-199l15 70h198l3 18l-122 362h143l75 -263l190 263h135l-277 -362l-3 -18h200l-15 -70h-200l-14 -67h200z" />
<glyph unicode="&#xa6;" horiz-adv-x="253" d="M266 428h-101l84 391h101zM145 -145h-101l83 391h101z" />
<glyph unicode="&#xa7;" horiz-adv-x="597" d="M390 -256h-380l22 105h331q18 0 25.5 6.5t11.5 25.5l26 119h-275q-42 0 -60.5 14.5t-18.5 45.5q0 14 5 39l101 479q11 52 37.5 75.5t78.5 23.5h386l-21 -100h-338q-17 0 -24 -7t-10 -23l-25 -117h274q42 0 60.5 -15t18.5 -46q0 -19 -4 -38l-104 -488q-12 -52 -38 -75.5 t-79 -23.5zM448 105l42 200q1 4 1 10q0 14 -23 14h-228l-41 -195q-2 -12 -2 -14q0 -15 24 -15h227z" />
<glyph unicode="&#xa8;" horiz-adv-x="525" d="M589 566h-126l32 152h126zM302 566h-126l32 152h126z" />
<glyph unicode="&#xaa;" horiz-adv-x="406" d="M414 300h-246q-40 0 -40 32q0 12 2 20l15 67q7 32 18.5 43t39.5 11h129l-11 -50h-78q-7 0 -9.5 -2.5t-4.5 -10.5l-4 -18q-1 -3 -1 -7q0 -6 10 -6h106l25 116q0 1 1 3v2q0 9 -11 9h-181l14 69h232q45 0 45 -33q0 -9 -3 -21z" />
<glyph unicode="&#xab;" horiz-adv-x="534" d="M251 84l-167 173l26 120l239 168l-23 -109l-179 -121l127 -125zM518 84l-167 173l26 120l239 168l-23 -109l-179 -121l127 -125z" />
<glyph unicode="&#xac;" horiz-adv-x="632" d="M596 75h-115l50 231h-418l24 115h533z" />
<glyph unicode="&#xaf;" horiz-adv-x="571" d="M650 634h-461l19 89h461z" />
<glyph unicode="&#xb0;" horiz-adv-x="377" d="M358 461h-149q-27 0 -38.5 8.5t-11.5 28.5q0 10 3 24l29 135q7 33 23.5 47t49.5 14h149q52 0 52 -38q0 -10 -3 -23l-29 -135q-7 -33 -23.5 -47t-51.5 -14zM369 541l22 100q0 2 0.5 4t0.5 3q0 12 -16 12h-100q-18 0 -22 -19l-22 -100q0 -2 -0.5 -4t-0.5 -3q0 -12 15 -12 h100q19 0 23 19z" />
<glyph unicode="&#xb1;" horiz-adv-x="632" d="M378 88h-88l47 218h-217l18 87h217l46 217h88l-46 -217h217l-18 -87h-217zM568 -51h-526l21 100h526z" />
<glyph unicode="&#xb2;" horiz-adv-x="355" d="M388 349h-274l28 132q8 36 24.5 51t51.5 15h111q14 0 18 15l8 40q1 3 1 8q0 8 -12 8h-73q-16 0 -20 -16l-4 -19h-84l10 47q12 57 72 57h156q49 0 49 -38q0 -5 -2 -21l-19 -90q-12 -55 -66 -55h-118q-14 0 -18 -17l-9 -43h186z" />
<glyph unicode="&#xb3;" horiz-adv-x="346" d="M322 349h-159q-49 0 -49 37q0 8 3 20l12 53h86l-5 -23q-1 -2 -1 -6q0 -9 13 -9h73q15 0 18 15l10 46v4q0 8 -13 8h-63l12 54h63q16 0 17 13l9 42q1 2 1 7q0 8 -13 8h-71q-15 0 -19 -15l-4 -20h-85l10 47q12 57 72 57h151q50 0 50 -38q0 -5 -2 -19l-14 -64q-8 -39 -46 -42 q33 -3 33 -28q0 -6 -1 -9l-18 -81q-7 -30 -23 -43.5t-47 -13.5z" />
<glyph unicode="&#xb4;" horiz-adv-x="372" d="M264 569h-89l193 204h113z" />
<glyph unicode="&#xb5;" horiz-adv-x="585" d="M147 -212h-139l153 718h139l-81 -383h174q15 0 22 7t11 25l75 351h136l-86 -407q-12 -53 -38 -76t-79 -23h-241z" />
<glyph unicode="&#xb6;" horiz-adv-x="725" d="M587 -171h-107l162 761h-139l-162 -761h-108l162 761h-96q-17 0 -24 -6t-11 -25l-35 -164q-2 -12 -2 -14q0 -17 24 -17h54l-20 -92h-91q-81 0 -81 67q0 19 4 36l43 199q12 54 39.5 78.5t82.5 24.5h556l-18 -87h-71z" />
<glyph unicode="&#xb7;" horiz-adv-x="239" d="M235 244h-128l32 151h128z" />
<glyph unicode="&#xb8;" horiz-adv-x="252" d="M86 -256h-97l82 196h113z" />
<glyph unicode="&#xb9;" horiz-adv-x="191" d="M224 349h-88l56 262h-39l16 76h127z" />
<glyph unicode="&#xba;" horiz-adv-x="409" d="M364 300h-193q-44 0 -44 32q0 10 3 22l36 170q6 29 20 41.5t44 12.5h193q44 0 44 -34q0 -12 -2 -20l-36 -170q-6 -28 -21 -41t-44 -13zM345 396l19 89q0 1 0.5 3t0.5 3q0 8 -12 8h-87q-12 0 -15 -14l-19 -89q-1 -2 -1 -6q0 -8 10 -8h87q14 0 17 14z" />
<glyph unicode="&#xbb;" horiz-adv-x="534" d="M287 251l-240 -167l24 109l178 120l-126 125l22 107l167 -174zM554 251l-240 -167l24 109l178 120l-126 125l22 107l167 -174z" />
<glyph unicode="&#xbc;" horiz-adv-x="659" d="M251 349h-88l56 262h-39l16 76h127zM131 0h-80l551 677h80zM568 -10h-81l14 62h-160l14 70l164 206h121l-44 -206h42l-14 -70h-42zM515 122l28 131l-108 -131h80z" />
<glyph unicode="&#xbd;" horiz-adv-x="692" d="M261 349h-88l56 262h-39l16 76h127zM131 0h-80l551 677h80zM643 -10h-274l28 132q8 36 24.5 51t51.5 15h111q14 0 18 15l8 40q1 3 1 8q0 8 -12 8h-73q-16 0 -20 -16l-4 -19h-84l10 47q12 57 72 57h156q49 0 49 -38q0 -5 -2 -21l-19 -90q-12 -55 -66 -55h-118 q-14 0 -18 -17l-9 -43h186z" />
<glyph unicode="&#xbe;" horiz-adv-x="722" d="M337 349h-159q-49 0 -49 37q0 8 3 20l12 53h86l-5 -23q-1 -2 -1 -6q0 -9 13 -9h73q15 0 18 15l10 46v4q0 8 -13 8h-63l12 54h63q16 0 17 13l9 42q1 2 1 7q0 8 -13 8h-71q-15 0 -19 -15l-4 -20h-85l10 47q12 57 72 57h151q50 0 50 -38q0 -5 -2 -19l-14 -64q-8 -39 -46 -42 q33 -3 33 -28q0 -6 -1 -9l-18 -81q-7 -30 -23 -43.5t-47 -13.5zM214 0h-80l551 677h80zM631 -10h-81l14 62h-160l14 70l164 206h121l-44 -206h42l-14 -70h-42zM578 122l28 131l-108 -131h80z" />
<glyph unicode="&#xbf;" horiz-adv-x="627" d="M226 390h120q16 0 22 5.5t10 22.5l11 48h126l-20 -93q-19 -88 -108 -88h-107q-22 0 -30.5 -7t-13.5 -29l-19 -87q-2 -14 -2 -18q0 -22 33 -22h195q20 0 29 8.5t14 29.5l10 49h137l-20 -94q-12 -59 -46 -87t-96 -28h-312q-51 0 -73.5 18t-22.5 55q0 17 5 45l33 158 q12 58 41 86t84 28zM432 677h128l-32 -151h-128z" />
<glyph unicode="&#xc0;" horiz-adv-x="636" d="M619 0h-153l-7 105h-244l-52 -105h-147l352 677h199zM454 217l-21 324l-164 -324h185zM575 740h-89l-129 204h113z" />
<glyph unicode="&#xc1;" horiz-adv-x="636" d="M619 0h-153l-7 105h-244l-52 -105h-147l352 677h199zM454 217l-21 324l-164 -324h185zM462 740h-89l193 204h113z" />
<glyph unicode="&#xc2;" horiz-adv-x="636" d="M619 0h-153l-7 105h-244l-52 -105h-147l352 677h199zM454 217l-21 324l-164 -324h185zM705 740h-100l-96 161l-169 -161h-97l218 204h119z" />
<glyph unicode="&#xc3;" horiz-adv-x="636" d="M619 0h-153l-7 105h-244l-52 -105h-147l352 677h199zM454 217l-21 324l-164 -324h185zM722 910l-20 -90q-46 -35 -118 -35q-42 0 -99.5 24.5t-83.5 24.5q-71 0 -127 -39l19 90q48 35 119 35q36 0 95 -25t87 -25q68 0 128 40z" />
<glyph unicode="&#xc4;" horiz-adv-x="636" d="M619 0h-153l-7 105h-244l-52 -105h-147l352 677h199zM454 217l-21 324l-164 -324h185zM680 737h-126l32 152h126zM393 737h-126l32 152h126z" />
<glyph unicode="&#xc5;" horiz-adv-x="636" d="M619 0h-153l-7 105h-244l-52 -105h-147l352 677h199zM454 217l-21 324l-164 -324h185zM528 717h-117q-49 0 -49 36q0 11 3 25l22 105q7 33 23 47t49 14h117q27 0 38.5 -8.5t11.5 -28.5q0 -11 -3 -24l-22 -105q-7 -33 -23.5 -47t-49.5 -14zM550 787l20 91q1 3 1 9 q0 12 -18 12h-92q-12 0 -17 -4.5t-7 -16.5l-20 -91q-1 -3 -1 -9q0 -13 17 -13h92q13 0 17.5 4t7.5 18z" />
<glyph unicode="&#xc6;" horiz-adv-x="985" d="M929 0h-502l22 105h-233l-53 -105h-147l353 677h703l-28 -132h-604l-174 -327h207l59 277h157l-24 -110h249l-23 -108h-249l-30 -142h345z" />
<glyph unicode="&#xc7;" horiz-adv-x="586" d="M548 0h-383q-50 0 -72.5 18t-22.5 56q0 23 5 44l93 441q13 61 45.5 89.5t94.5 28.5h381l-28 -135h-306q-24 0 -32.5 -7.5t-13.5 -30.5l-71 -330q-2 -12 -2 -16q0 -21 33 -21h308zM259 -256h-97l82 196h113z" />
<glyph unicode="&#xc8;" horiz-adv-x="609" d="M553 0h-502l105 495h157l-24 -110h249l-23 -108h-249l-30 -142h345zM668 545h-502l28 132h502zM561 740h-89l-129 204h113z" />
<glyph unicode="&#xc9;" horiz-adv-x="609" d="M553 0h-502l105 495h157l-24 -110h249l-23 -108h-249l-30 -142h345zM668 545h-502l28 132h502zM448 740h-89l193 204h113z" />
<glyph unicode="&#xca;" horiz-adv-x="609" d="M553 0h-502l105 495h157l-24 -110h249l-23 -108h-249l-30 -142h345zM668 545h-502l28 132h502zM691 740h-100l-96 161l-169 -161h-97l218 204h119z" />
<glyph unicode="&#xcb;" horiz-adv-x="609" d="M553 0h-502l105 495h157l-24 -110h249l-23 -108h-249l-30 -142h345zM668 545h-502l28 132h502zM667 737h-126l32 152h126zM380 737h-126l32 152h126z" />
<glyph unicode="&#xcc;" horiz-adv-x="270" d="M210 0h-152l143 677h152zM393 740h-89l-129 204h113z" />
<glyph unicode="&#xcd;" horiz-adv-x="270" d="M210 0h-152l143 677h152zM279 740h-89l193 204h113z" />
<glyph unicode="&#xce;" horiz-adv-x="270" d="M210 0h-152l143 677h152zM523 740h-100l-96 161l-169 -161h-97l218 204h119z" />
<glyph unicode="&#xcf;" horiz-adv-x="270" d="M210 0h-152l143 677h152zM499 737h-126l32 152h126zM212 737h-126l32 152h126z" />
<glyph unicode="&#xd0;" d="M446 0h-392l60 284h-39l19 91h39l26 120h150l-26 -120h164l-19 -91h-164l-32 -152h214q53 0 67 65l61 283q2 16 2 21q0 44 -43 44h-364l28 132h392q148 0 148 -120q0 -25 -6 -53l-71 -331q-37 -173 -214 -173z" />
<glyph unicode="&#xd1;" horiz-adv-x="703" d="M646 0h-101l-256 444l-94 -444h-141l143 677h143l222 -404l85 404h142zM756 910l-20 -90q-46 -35 -118 -35q-42 0 -99.5 24.5t-83.5 24.5q-71 0 -127 -39l19 90q48 35 119 35q36 0 95 -25t87 -25q68 0 128 40z" />
<glyph unicode="&#xd2;" horiz-adv-x="668" d="M503 0h-337q-50 0 -73 18t-23 55q0 19 6 45l93 441q13 62 45 90t95 28h337q50 0 72.5 -18t22.5 -56q0 -17 -5 -44l-93 -441q-13 -61 -45.5 -89.5t-94.5 -28.5zM501 169l72 337q2 12 2 16q0 23 -35 23h-189q-20 0 -29 -8.5t-13 -30.5l-72 -337q-2 -10 -2 -13q0 -21 29 -21 h189q23 0 33.5 7.5t14.5 26.5zM591 740h-89l-129 204h113z" />
<glyph unicode="&#xd3;" horiz-adv-x="668" d="M503 0h-337q-50 0 -73 18t-23 55q0 19 6 45l93 441q13 62 45 90t95 28h337q50 0 72.5 -18t22.5 -56q0 -17 -5 -44l-93 -441q-13 -61 -45.5 -89.5t-94.5 -28.5zM501 169l72 337q2 12 2 16q0 23 -35 23h-189q-20 0 -29 -8.5t-13 -30.5l-72 -337q-2 -10 -2 -13q0 -21 29 -21 h189q23 0 33.5 7.5t14.5 26.5zM478 740h-89l193 204h113z" />
<glyph unicode="&#xd4;" horiz-adv-x="668" d="M503 0h-337q-50 0 -73 18t-23 55q0 19 6 45l93 441q13 62 45 90t95 28h337q50 0 72.5 -18t22.5 -56q0 -17 -5 -44l-93 -441q-13 -61 -45.5 -89.5t-94.5 -28.5zM501 169l72 337q2 12 2 16q0 23 -35 23h-189q-20 0 -29 -8.5t-13 -30.5l-72 -337q-2 -10 -2 -13q0 -21 29 -21 h189q23 0 33.5 7.5t14.5 26.5zM721 740h-100l-96 161l-169 -161h-97l218 204h119z" />
<glyph unicode="&#xd5;" horiz-adv-x="668" d="M503 0h-337q-50 0 -73 18t-23 55q0 19 6 45l93 441q13 62 45 90t95 28h337q50 0 72.5 -18t22.5 -56q0 -17 -5 -44l-93 -441q-13 -61 -45.5 -89.5t-94.5 -28.5zM501 169l72 337q2 12 2 16q0 23 -35 23h-189q-20 0 -29 -8.5t-13 -30.5l-72 -337q-2 -10 -2 -13q0 -21 29 -21 h189q23 0 33.5 7.5t14.5 26.5zM738 910l-20 -90q-46 -35 -118 -35q-42 0 -99.5 24.5t-83.5 24.5q-71 0 -127 -39l19 90q48 35 119 35q36 0 95 -25t87 -25q68 0 128 40z" />
<glyph unicode="&#xd6;" horiz-adv-x="668" d="M503 0h-337q-50 0 -73 18t-23 55q0 19 6 45l93 441q13 62 45 90t95 28h337q50 0 72.5 -18t22.5 -56q0 -17 -5 -44l-93 -441q-13 -61 -45.5 -89.5t-94.5 -28.5zM501 169l72 337q2 12 2 16q0 23 -35 23h-189q-20 0 -29 -8.5t-13 -30.5l-72 -337q-2 -10 -2 -13q0 -21 29 -21 h189q23 0 33.5 7.5t14.5 26.5zM696 737h-126l32 152h126zM409 737h-126l32 152h126z" />
<glyph unicode="&#xd7;" horiz-adv-x="605" d="M565 197l-86 -70l-118 152l-184 -152l-55 71l183 151l-118 151l86 71l118 -151l182 151l56 -71l-182 -151z" />
<glyph unicode="&#xd8;" horiz-adv-x="668" d="M503 0h-331l-58 -71h-79l67 82q-32 15 -32 60q0 20 6 47l93 441q13 62 45 90t95 28h330l59 72h78l-68 -83q33 -17 33 -63q0 -17 -5 -44l-93 -441q-13 -61 -45.5 -89.5t-94.5 -28.5zM309 506l-69 -323l292 362h-181q-20 0 -29 -8.5t-13 -30.5zM501 169l70 326l-291 -360 h173q23 0 33.5 7.5t14.5 26.5z" />
<glyph unicode="&#xd9;" d="M506 0h-337q-51 0 -73.5 18t-22.5 56q0 24 5 44l118 559h152l-107 -506q-3 -12 -3 -18q0 -11 6.5 -14.5t23.5 -3.5h200q20 0 29.5 7t13.5 29l107 506h146l-118 -559q-13 -61 -45.5 -89.5t-94.5 -28.5zM594 740h-89l-129 204h113z" />
<glyph unicode="&#xda;" d="M506 0h-337q-51 0 -73.5 18t-22.5 56q0 24 5 44l118 559h152l-107 -506q-3 -12 -3 -18q0 -11 6.5 -14.5t23.5 -3.5h200q20 0 29.5 7t13.5 29l107 506h146l-118 -559q-13 -61 -45.5 -89.5t-94.5 -28.5zM481 740h-89l193 204h113z" />
<glyph unicode="&#xdb;" d="M506 0h-337q-51 0 -73.5 18t-22.5 56q0 24 5 44l118 559h152l-107 -506q-3 -12 -3 -18q0 -11 6.5 -14.5t23.5 -3.5h200q20 0 29.5 7t13.5 29l107 506h146l-118 -559q-13 -61 -45.5 -89.5t-94.5 -28.5zM724 740h-100l-96 161l-169 -161h-97l218 204h119z" />
<glyph unicode="&#xdc;" d="M506 0h-337q-51 0 -73.5 18t-22.5 56q0 24 5 44l118 559h152l-107 -506q-3 -12 -3 -18q0 -11 6.5 -14.5t23.5 -3.5h200q20 0 29.5 7t13.5 29l107 506h146l-118 -559q-13 -61 -45.5 -89.5t-94.5 -28.5zM700 737h-126l32 152h126zM413 737h-126l32 152h126z" />
<glyph unicode="&#xdd;" horiz-adv-x="617" d="M384 0h-152l59 279l-135 398h159l83 -267l196 267h152l-303 -398zM452 740h-89l193 204h113z" />
<glyph unicode="&#xde;" horiz-adv-x="665" d="M530 96h-303l-20 -96h-152l143 677h152l-96 -454h230q41 0 49 41l37 175q2 12 2 16q0 27 -33 27h-180l24 114h253q50 0 72.5 -18t22.5 -56q0 -16 -5 -44l-56 -264q-13 -62 -45 -90t-95 -28z" />
<glyph unicode="&#xdf;" horiz-adv-x="730" d="M587 0h-286l24 113h208q26 0 31 27l34 160q1 3 1 9q0 12 -18 12h-101q-63 0 -63 47q0 10 3 24l41 193q1 4 1 10q0 14 -19 14h-101q-12 0 -17.5 -5t-8.5 -19l-124 -585h-140l131 619q11 52 37 75.5t79 23.5h219q81 0 81 -61q0 -15 -5 -38l-38 -179q-1 -4 -1 -9 q0 -11 17 -11h119q66 0 66 -51q0 -6 -2 -20l-56 -261q-10 -46 -35.5 -67t-76.5 -21z" />
<glyph unicode="&#xe0;" horiz-adv-x="630" d="M579 0h-441q-72 0 -72 58q0 14 5 37l25 120q12 57 34 77t70 20h257l-18 -86h-184q-14 0 -20 -5t-9 -21l-11 -53q-2 -12 -2 -14q0 -13 19 -13h234l53 248q1 4 1 11q0 17 -24 17h-343l23 110h414q43 0 61.5 -14.5t18.5 -45.5q0 -14 -5 -39zM546 569h-89l-129 204h113z" />
<glyph unicode="&#xe1;" horiz-adv-x="630" d="M579 0h-441q-72 0 -72 58q0 14 5 37l25 120q12 57 34 77t70 20h257l-18 -86h-184q-14 0 -20 -5t-9 -21l-11 -53q-2 -12 -2 -14q0 -13 19 -13h234l53 248q1 4 1 11q0 17 -24 17h-343l23 110h414q43 0 61.5 -14.5t18.5 -45.5q0 -14 -5 -39zM423 569h-89l193 204h113z" />
<glyph unicode="&#xe2;" horiz-adv-x="630" d="M579 0h-441q-72 0 -72 58q0 14 5 37l25 120q12 57 34 77t70 20h257l-18 -86h-184q-14 0 -20 -5t-9 -21l-11 -53q-2 -12 -2 -14q0 -13 19 -13h234l53 248q1 4 1 11q0 17 -24 17h-343l23 110h414q43 0 61.5 -14.5t18.5 -45.5q0 -14 -5 -39zM671 569h-100l-96 161l-169 -161 h-97l218 204h119z" />
<glyph unicode="&#xe3;" horiz-adv-x="630" d="M579 0h-441q-72 0 -72 58q0 14 5 37l25 120q12 57 34 77t70 20h257l-18 -86h-184q-14 0 -20 -5t-9 -21l-11 -53q-2 -12 -2 -14q0 -13 19 -13h234l53 248q1 4 1 11q0 17 -24 17h-343l23 110h414q43 0 61.5 -14.5t18.5 -45.5q0 -14 -5 -39zM690 739l-20 -90 q-46 -35 -118 -35q-42 0 -99.5 24.5t-83.5 24.5q-71 0 -127 -39l19 90q48 35 119 35q36 0 95 -25t87 -25q68 0 128 40z" />
<glyph unicode="&#xe4;" horiz-adv-x="630" d="M579 0h-441q-72 0 -72 58q0 14 5 37l25 120q12 57 34 77t70 20h257l-18 -86h-184q-14 0 -20 -5t-9 -21l-11 -53q-2 -12 -2 -14q0 -13 19 -13h234l53 248q1 4 1 11q0 17 -24 17h-343l23 110h414q43 0 61.5 -14.5t18.5 -45.5q0 -14 -5 -39zM641 566h-126l32 152h126z M354 566h-126l32 152h126z" />
<glyph unicode="&#xe5;" horiz-adv-x="630" d="M579 0h-441q-72 0 -72 58q0 14 5 37l25 120q12 57 34 77t70 20h257l-18 -86h-184q-14 0 -20 -5t-9 -21l-11 -53q-2 -12 -2 -14q0 -13 19 -13h234l53 248q1 4 1 11q0 17 -24 17h-343l23 110h414q43 0 61.5 -14.5t18.5 -45.5q0 -14 -5 -39zM489 546h-117q-49 0 -49 36 q0 12 3 25l22 105q7 33 23 47t49 14h117q27 0 38.5 -8.5t11.5 -28.5q0 -10 -3 -24l-22 -105q-7 -33 -23.5 -47t-49.5 -14zM511 616l20 91q1 3 1 9q0 12 -18 12h-92q-12 0 -17 -4.5t-7 -16.5l-20 -91q-1 -3 -1 -9q0 -13 17 -13h92q13 0 17.5 4t7.5 18z" />
<glyph unicode="&#xe6;" horiz-adv-x="985" d="M914 0h-774q-73 0 -73 58q0 14 5 37l25 120q12 57 34 77t71 20h236l-18 -86h-163q-15 0 -21 -5t-9 -21l-12 -58q-2 -12 -2 -14q0 -13 20 -13h213l60 281h-352l23 110h777q38 0 54 -14t16 -44q0 -18 -4 -37l-42 -199h-323l17 84h190l16 72q1 5 1 13q0 15 -21 15h-214 l-60 -281h354z" />
<glyph unicode="&#xe7;" horiz-adv-x="542" d="M501 0h-357q-42 0 -60.5 14.5t-18.5 45.5q0 14 5 39l65 308q11 52 37 75.5t79 23.5h357l-26 -123h-285q-16 0 -22.5 -5t-10.5 -22l-43 -202q-2 -10 -2 -13q0 -15 23 -15h285zM237 -256h-97l82 196h113z" />
<glyph unicode="&#xe8;" horiz-adv-x="618" d="M550 0h-410q-42 0 -61 14.5t-19 45.5q0 14 5 39l65 308q11 52 37.5 75.5t79.5 23.5h342q38 0 54.5 -14t16.5 -44q0 -18 -4 -37l-42 -199h-337l17 84h204l15 68q1 5 1 13q0 14 -21 14h-201q-17 0 -23 -5.5t-10 -22.5l-47 -218q-2 -12 -2 -15q0 -15 23 -15h341zM530 569 h-89l-129 204h113z" />
<glyph unicode="&#xe9;" horiz-adv-x="618" d="M550 0h-410q-42 0 -61 14.5t-19 45.5q0 14 5 39l65 308q11 52 37.5 75.5t79.5 23.5h342q38 0 54.5 -14t16.5 -44q0 -18 -4 -37l-42 -199h-337l17 84h204l15 68q1 5 1 13q0 14 -21 14h-201q-17 0 -23 -5.5t-10 -22.5l-47 -218q-2 -12 -2 -15q0 -15 23 -15h341zM417 569 h-89l193 204h113z" />
<glyph unicode="&#xea;" horiz-adv-x="618" d="M550 0h-410q-42 0 -61 14.5t-19 45.5q0 14 5 39l65 308q11 52 37.5 75.5t79.5 23.5h342q38 0 54.5 -14t16.5 -44q0 -18 -4 -37l-42 -199h-337l17 84h204l15 68q1 5 1 13q0 14 -21 14h-201q-17 0 -23 -5.5t-10 -22.5l-47 -218q-2 -12 -2 -15q0 -15 23 -15h341zM660 569 h-100l-96 161l-169 -161h-97l218 204h119z" />
<glyph unicode="&#xeb;" horiz-adv-x="618" d="M550 0h-410q-42 0 -61 14.5t-19 45.5q0 14 5 39l65 308q11 52 37.5 75.5t79.5 23.5h342q38 0 54.5 -14t16.5 -44q0 -18 -4 -37l-42 -199h-337l17 84h204l15 68q1 5 1 13q0 14 -21 14h-201q-17 0 -23 -5.5t-10 -22.5l-47 -218q-2 -12 -2 -15q0 -15 23 -15h341zM635 566 h-126l32 152h126zM348 566h-126l32 152h126z" />
<glyph unicode="&#xec;" horiz-adv-x="290" d="M233 0h-140l107 506h140zM385 569h-89l-129 204h113z" />
<glyph unicode="&#xed;" horiz-adv-x="292" d="M196 0h-140l107 506h140zM235 569h-89l193 204h113z" />
<glyph unicode="&#xee;" horiz-adv-x="403" d="M272 0h-140l107 506h140zM554 569h-100l-96 161l-169 -161h-97l218 204h119z" />
<glyph unicode="&#xef;" horiz-adv-x="360" d="M251 0h-140l107 506h140zM508 566h-126l32 152h126zM221 566h-126l32 152h126z" />
<glyph unicode="&#xf0;" horiz-adv-x="609" d="M434 0h-290q-42 0 -61 14.5t-19 45.5q0 14 5 39l51 243q11 52 39.5 75.5t77.5 23.5h218l-25 -119h-143q-30 0 -37 -33l-28 -131q-2 -12 -2 -15q0 -19 24 -19h142q30 0 37 33l64 301q6 27 6 43q0 18 -11 42l-15 29l-202 -66l14 67l161 54l-46 91h155l24 -47l138 47 l-15 -69l-95 -32l21 -38q14 -26 15 -55q0 -18 -12 -80l-73 -345q-11 -53 -38 -76t-80 -23z" />
<glyph unicode="&#xf1;" horiz-adv-x="649" d="M595 0h-139l75 357q2 10 2 12q0 16 -25 16h-209q-15 0 -22 -6t-11 -22l-75 -357h-140l107 506h135l-12 -55q36 55 99 55h227q41 0 59.5 -14t18.5 -47q0 -19 -4 -38zM703 739l-20 -90q-46 -35 -118 -35q-42 0 -99.5 24.5t-83.5 24.5q-71 0 -127 -39l19 90q48 35 119 35 q36 0 95 -25t87 -25q68 0 128 40z" />
<glyph unicode="&#xf2;" horiz-adv-x="633" d="M488 0h-344q-42 0 -60.5 14.5t-18.5 45.5q0 14 5 39l65 308q11 52 37 75.5t79 23.5h344q43 0 61.5 -14.5t18.5 -45.5q0 -14 -5 -39l-65 -308q-12 -53 -38 -76t-79 -23zM476 151l43 206q2 10 2 12q0 16 -27 16h-198q-16 0 -22.5 -6t-9.5 -22l-43 -206q-2 -10 -2 -13 q0 -14 22 -14h198q32 0 37 27zM537 569h-89l-129 204h113z" />
<glyph unicode="&#xf3;" horiz-adv-x="633" d="M488 0h-344q-42 0 -60.5 14.5t-18.5 45.5q0 14 5 39l65 308q11 52 37 75.5t79 23.5h344q43 0 61.5 -14.5t18.5 -45.5q0 -14 -5 -39l-65 -308q-12 -53 -38 -76t-79 -23zM476 151l43 206q2 10 2 12q0 16 -27 16h-198q-16 0 -22.5 -6t-9.5 -22l-43 -206q-2 -10 -2 -13 q0 -14 22 -14h198q32 0 37 27zM424 569h-89l193 204h113z" />
<glyph unicode="&#xf4;" horiz-adv-x="633" d="M488 0h-344q-42 0 -60.5 14.5t-18.5 45.5q0 14 5 39l65 308q11 52 37 75.5t79 23.5h344q43 0 61.5 -14.5t18.5 -45.5q0 -14 -5 -39l-65 -308q-12 -53 -38 -76t-79 -23zM476 151l43 206q2 10 2 12q0 16 -27 16h-198q-16 0 -22.5 -6t-9.5 -22l-43 -206q-2 -10 -2 -13 q0 -14 22 -14h198q32 0 37 27zM667 569h-100l-96 161l-169 -161h-97l218 204h119z" />
<glyph unicode="&#xf5;" horiz-adv-x="633" d="M488 0h-344q-42 0 -60.5 14.5t-18.5 45.5q0 14 5 39l65 308q11 52 37 75.5t79 23.5h344q43 0 61.5 -14.5t18.5 -45.5q0 -14 -5 -39l-65 -308q-12 -53 -38 -76t-79 -23zM476 151l43 206q2 10 2 12q0 16 -27 16h-198q-16 0 -22.5 -6t-9.5 -22l-43 -206q-2 -10 -2 -13 q0 -14 22 -14h198q32 0 37 27zM685 739l-20 -90q-46 -35 -118 -35q-42 0 -99.5 24.5t-83.5 24.5q-71 0 -127 -39l19 90q48 35 119 35q36 0 95 -25t87 -25q68 0 128 40z" />
<glyph unicode="&#xf6;" horiz-adv-x="633" d="M488 0h-344q-42 0 -60.5 14.5t-18.5 45.5q0 14 5 39l65 308q11 52 37 75.5t79 23.5h344q43 0 61.5 -14.5t18.5 -45.5q0 -14 -5 -39l-65 -308q-12 -53 -38 -76t-79 -23zM476 151l43 206q2 10 2 12q0 16 -27 16h-198q-16 0 -22.5 -6t-9.5 -22l-43 -206q-2 -10 -2 -13 q0 -14 22 -14h198q32 0 37 27zM643 566h-126l32 152h126zM356 566h-126l32 152h126z" />
<glyph unicode="&#xf7;" horiz-adv-x="633" d="M642 299h-526l21 100h526zM481 479h-128l32 151h128zM394 68h-128l32 151h128z" />
<glyph unicode="&#xf8;" horiz-adv-x="633" d="M488 0h-309l-66 -71h-80l71 76q-39 12 -39 55q0 14 5 39l65 308q11 52 37 75.5t79 23.5h313l60 64h80l-65 -70q36 -13 36 -55q0 -15 -5 -38l-65 -308q-12 -53 -38 -76t-79 -23zM221 151q-2 -10 -2 -12q0 -3 2 -7l232 253h-157q-16 0 -22.5 -6t-9.5 -22zM476 151l43 206 q1 3 1 10v3l-227 -246h146q32 0 37 27z" />
<glyph unicode="&#xf9;" horiz-adv-x="640" d="M588 0h-135l11 54q-36 -54 -98 -54h-220q-41 0 -60 14.5t-19 46.5q0 15 5 38l86 407h140l-76 -357q-2 -10 -2 -13q0 -16 24 -16h201q16 0 23 6t11 23l76 357h140zM541 569h-89l-129 204h113z" />
<glyph unicode="&#xfa;" horiz-adv-x="640" d="M588 0h-135l11 54q-36 -54 -98 -54h-220q-41 0 -60 14.5t-19 46.5q0 15 5 38l86 407h140l-76 -357q-2 -10 -2 -13q0 -16 24 -16h201q16 0 23 6t11 23l76 357h140zM428 569h-89l193 204h113z" />
<glyph unicode="&#xfb;" horiz-adv-x="640" d="M588 0h-135l11 54q-36 -54 -98 -54h-220q-41 0 -60 14.5t-19 46.5q0 15 5 38l86 407h140l-76 -357q-2 -10 -2 -13q0 -16 24 -16h201q16 0 23 6t11 23l76 357h140zM671 569h-100l-96 161l-169 -161h-97l218 204h119z" />
<glyph unicode="&#xfc;" horiz-adv-x="640" d="M588 0h-135l11 54q-36 -54 -98 -54h-220q-41 0 -60 14.5t-19 46.5q0 15 5 38l86 407h140l-76 -357q-2 -10 -2 -13q0 -16 24 -16h201q16 0 23 6t11 23l76 357h140zM646 566h-126l32 152h126zM359 566h-126l32 152h126z" />
<glyph unicode="&#xfd;" horiz-adv-x="610" d="M423 -212h-408l26 121h336q17 0 23.5 6t10.5 23l14 62h-288q-42 0 -60.5 14.5t-18.5 45.5q0 14 5 39l86 407h140l-77 -363q-2 -10 -2 -13q0 -16 24 -16h215l83 392h141l-132 -619q-12 -52 -38.5 -75.5t-79.5 -23.5zM413 569h-89l193 204h113z" />
<glyph unicode="&#xfe;" horiz-adv-x="628" d="M482 0h-289l-46 -213h-139l198 931h139l-126 -594h214q31 0 38 33l41 194q1 5 1 13q0 21 -25 21h-164l26 121h239q78 0 78 -67q0 -8 -4 -32l-65 -308q-12 -53 -37.5 -76t-78.5 -23z" />
<glyph unicode="&#xff;" horiz-adv-x="610" d="M423 -212h-408l26 121h336q17 0 23.5 6t10.5 23l14 62h-288q-42 0 -60.5 14.5t-18.5 45.5q0 14 5 39l86 407h140l-77 -363q-2 -10 -2 -13q0 -16 24 -16h215l83 392h141l-132 -619q-12 -52 -38.5 -75.5t-79.5 -23.5zM631 566h-126l32 152h126zM344 566h-126l32 152h126z " />
<glyph unicode="&#x100;" horiz-adv-x="636" d="M619 0h-153l-7 105h-244l-52 -105h-147l352 677h199zM454 217l-21 324l-164 -324h185zM718 805h-461l19 89h461z" />
<glyph unicode="&#x101;" horiz-adv-x="630" d="M579 0h-441q-72 0 -72 58q0 14 5 37l25 120q12 57 34 77t70 20h257l-18 -86h-184q-14 0 -20 -5t-9 -21l-11 -53q-2 -12 -2 -14q0 -13 19 -13h234l53 248q1 4 1 11q0 17 -24 17h-343l23 110h414q43 0 61.5 -14.5t18.5 -45.5q0 -14 -5 -39zM684 634h-461l19 89h461z" />
<glyph unicode="&#x102;" horiz-adv-x="636" d="M619 0h-153l-7 105h-244l-52 -105h-147l352 677h199zM454 217l-21 324l-164 -324h185zM661 944h62q-22 -103 -76 -155t-173 -52q-94 0 -133 32.5t-39 95.5q0 31 10 79h62q-7 -35 -7 -54q0 -43 27.5 -65t93.5 -22q82 0 119.5 34.5t53.5 106.5z" />
<glyph unicode="&#x103;" horiz-adv-x="630" d="M579 0h-441q-72 0 -72 58q0 14 5 37l25 120q12 57 34 77t70 20h257l-18 -86h-184q-14 0 -20 -5t-9 -21l-11 -53q-2 -12 -2 -14q0 -13 19 -13h234l53 248q1 4 1 11q0 17 -24 17h-343l23 110h414q43 0 61.5 -14.5t18.5 -45.5q0 -14 -5 -39zM629 773h62q-22 -103 -76 -155 t-173 -52q-94 0 -133 32.5t-39 95.5q0 31 10 79h62q-7 -35 -7 -54q0 -43 27.5 -65t93.5 -22q82 0 119.5 34.5t53.5 106.5z" />
<glyph unicode="&#x104;" horiz-adv-x="636" d="M564 -256h-178q-47 0 -47 43q0 10 3 22l11 51q8 36 20.5 53t43.5 32l114 55h-65l-7 105h-244l-52 -105h-147l352 677h199l52 -677l-136 -70q-12 -6 -16 -11.5t-7 -20.5l-7 -31q-1 -3 -1 -9q0 -12 15 -12h119zM454 217l-21 324l-164 -324h185z" />
<glyph unicode="&#x105;" horiz-adv-x="630" d="M524 -256h-178q-47 0 -47 43q0 10 3 22l11 51q8 36 20.5 53t43.5 32l114 55h-353q-72 0 -72 58q0 14 5 37l25 120q12 57 34 77t70 20h257l-18 -86h-184q-14 0 -20 -5t-9 -21l-11 -53q-2 -12 -2 -14q0 -13 19 -13h234l53 248q1 4 1 11q0 17 -24 17h-343l23 110h414 q43 0 61.5 -14.5t18.5 -45.5q0 -14 -5 -39l-86 -407l-136 -70q-12 -6 -16 -11.5t-7 -20.5l-7 -31q-1 -3 -1 -9q0 -12 15 -12h119z" />
<glyph unicode="&#x106;" horiz-adv-x="586" d="M548 0h-383q-50 0 -72.5 18t-22.5 56q0 23 5 44l93 441q13 61 45.5 89.5t94.5 28.5h381l-28 -135h-306q-24 0 -32.5 -7.5t-13.5 -30.5l-71 -330q-2 -12 -2 -16q0 -21 33 -21h308zM437 740h-89l193 204h113z" />
<glyph unicode="&#x107;" horiz-adv-x="542" d="M501 0h-357q-42 0 -60.5 14.5t-18.5 45.5q0 14 5 39l65 308q11 52 37 75.5t79 23.5h357l-26 -123h-285q-16 0 -22.5 -5t-10.5 -22l-43 -202q-2 -10 -2 -13q0 -15 23 -15h285zM379 569h-89l193 204h113z" />
<glyph unicode="&#x108;" horiz-adv-x="586" d="M548 0h-383q-50 0 -72.5 18t-22.5 56q0 23 5 44l93 441q13 61 45.5 89.5t94.5 28.5h381l-28 -135h-306q-24 0 -32.5 -7.5t-13.5 -30.5l-71 -330q-2 -12 -2 -16q0 -21 33 -21h308zM695 740h-100l-96 161l-169 -161h-97l218 204h119z" />
<glyph unicode="&#x109;" horiz-adv-x="542" d="M501 0h-357q-42 0 -60.5 14.5t-18.5 45.5q0 14 5 39l65 308q11 52 37 75.5t79 23.5h357l-26 -123h-285q-16 0 -22.5 -5t-10.5 -22l-43 -202q-2 -10 -2 -13q0 -15 23 -15h285zM632 569h-100l-96 161l-169 -161h-97l218 204h119z" />
<glyph unicode="&#x10a;" horiz-adv-x="586" d="M548 0h-383q-50 0 -72.5 18t-22.5 56q0 23 5 44l93 441q13 61 45.5 89.5t94.5 28.5h381l-28 -135h-306q-24 0 -32.5 -7.5t-13.5 -30.5l-71 -330q-2 -12 -2 -16q0 -21 33 -21h308zM528 737h-126l32 152h126z" />
<glyph unicode="&#x10b;" horiz-adv-x="542" d="M501 0h-357q-42 0 -60.5 14.5t-18.5 45.5q0 14 5 39l65 308q11 52 37 75.5t79 23.5h357l-26 -123h-285q-16 0 -22.5 -5t-10.5 -22l-43 -202q-2 -10 -2 -13q0 -15 23 -15h285zM469 566h-126l32 152h126z" />
<glyph unicode="&#x10c;" horiz-adv-x="586" d="M548 0h-383q-50 0 -72.5 18t-22.5 56q0 23 5 44l93 441q13 61 45.5 89.5t94.5 28.5h381l-28 -135h-306q-24 0 -32.5 -7.5t-13.5 -30.5l-71 -330q-2 -12 -2 -16q0 -21 33 -21h308zM525 740h-119q-15 23 -62 102t-62 102h100l96 -161l168 161h98z" />
<glyph unicode="&#x10d;" horiz-adv-x="542" d="M501 0h-357q-42 0 -60.5 14.5t-18.5 45.5q0 14 5 39l65 308q11 52 37 75.5t79 23.5h357l-26 -123h-285q-16 0 -22.5 -5t-10.5 -22l-43 -202q-2 -10 -2 -13q0 -15 23 -15h285zM457 569h-119q-15 23 -62 102t-62 102h100l96 -161l168 161h98z" />
<glyph unicode="&#x10e;" horiz-adv-x="676" d="M447 0h-391l105 494h150l-77 -362h213q53 0 67 65l60 282q3 12 3 23q0 42 -43 42h-363l28 133h391q148 0 148 -120q0 -25 -6 -53l-71 -331q-37 -173 -214 -173zM535 740h-119q-15 23 -62 102t-62 102h100l96 -161l168 161h98z" />
<glyph unicode="&#x10f;" horiz-adv-x="762" d="M574 0h-430q-42 0 -60.5 14.5t-18.5 45.5q0 14 5 39l65 308q20 99 116 99h239l-26 -121h-167q-16 0 -22.5 -5.5t-10.5 -22.5l-43 -205q-2 -10 -2 -13q0 -15 23 -15h217l126 594h141zM802 469h-112l96 249h128z" />
<glyph unicode="&#x110;" d="M446 0h-392l60 284h-39l19 91h39l26 120h150l-26 -120h164l-19 -91h-164l-32 -152h214q53 0 67 65l61 283q2 16 2 21q0 44 -43 44h-364l28 132h392q148 0 148 -120q0 -25 -6 -53l-71 -331q-37 -173 -214 -173z" />
<glyph unicode="&#x111;" horiz-adv-x="628" d="M574 0h-430q-42 0 -60.5 14.5t-18.5 45.5q0 14 5 39l65 308q20 99 116 99h239l-26 -121h-167q-16 0 -22.5 -5.5t-10.5 -22.5l-43 -205q-2 -10 -2 -13q0 -15 23 -15h217l93 440h-270l19 89h270l14 65h141l-14 -65h50l-19 -89h-50z" />
<glyph unicode="&#x112;" horiz-adv-x="609" d="M553 0h-502l105 495h157l-24 -110h249l-23 -108h-249l-30 -142h345zM668 545h-502l28 132h502zM705 805h-461l19 89h461z" />
<glyph unicode="&#x113;" horiz-adv-x="618" d="M550 0h-410q-42 0 -61 14.5t-19 45.5q0 14 5 39l65 308q11 52 37.5 75.5t79.5 23.5h342q38 0 54.5 -14t16.5 -44q0 -18 -4 -37l-42 -199h-337l17 84h204l15 68q1 5 1 13q0 14 -21 14h-201q-17 0 -23 -5.5t-10 -22.5l-47 -218q-2 -12 -2 -15q0 -15 23 -15h341zM673 634 h-461l19 89h461z" />
<glyph unicode="&#x114;" horiz-adv-x="609" d="M553 0h-502l105 495h157l-24 -110h249l-23 -108h-249l-30 -142h345zM668 545h-502l28 132h502zM648 944h62q-22 -103 -76 -155t-173 -52q-94 0 -133 32.5t-39 95.5q0 31 10 79h62q-7 -35 -7 -54q0 -43 27.5 -65t93.5 -22q82 0 119.5 34.5t53.5 106.5z" />
<glyph unicode="&#x115;" horiz-adv-x="618" d="M550 0h-410q-42 0 -61 14.5t-19 45.5q0 14 5 39l65 308q11 52 37.5 75.5t79.5 23.5h342q38 0 54.5 -14t16.5 -44q0 -18 -4 -37l-42 -199h-337l17 84h204l15 68q1 5 1 13q0 14 -21 14h-201q-17 0 -23 -5.5t-10 -22.5l-47 -218q-2 -12 -2 -15q0 -15 23 -15h341zM616 773h62 q-22 -103 -76 -155t-173 -52q-94 0 -133 32.5t-39 95.5q0 31 10 79h62q-7 -35 -7 -54q0 -43 27.5 -65t93.5 -22q82 0 119.5 34.5t53.5 106.5z" />
<glyph unicode="&#x116;" horiz-adv-x="609" d="M553 0h-502l105 495h157l-24 -110h249l-23 -108h-249l-30 -142h345zM668 545h-502l28 132h502zM523 737h-126l32 152h126z" />
<glyph unicode="&#x117;" horiz-adv-x="618" d="M550 0h-410q-42 0 -61 14.5t-19 45.5q0 14 5 39l65 308q11 52 37.5 75.5t79.5 23.5h342q38 0 54.5 -14t16.5 -44q0 -18 -4 -37l-42 -199h-337l17 84h204l15 68q1 5 1 13q0 14 -21 14h-201q-17 0 -23 -5.5t-10 -22.5l-47 -218q-2 -12 -2 -15q0 -15 23 -15h341zM492 566 h-126l32 152h126z" />
<glyph unicode="&#x118;" horiz-adv-x="609" d="M498 -256h-178q-47 0 -47 43q0 10 3 22l11 51q8 36 20.5 53t43.5 32l114 55h-414l105 495h157l-24 -110h249l-23 -108h-249l-30 -142h345l-28 -135l-136 -70q-12 -6 -16 -11.5t-7 -20.5l-7 -31q-1 -3 -1 -9q0 -12 15 -12h119zM668 545h-502l28 132h502z" />
<glyph unicode="&#x119;" horiz-adv-x="618" d="M495 -256h-178q-47 0 -47 43q0 10 3 22l11 51q8 36 20.5 53t43.5 32l114 55h-322q-42 0 -61 14.5t-19 45.5q0 14 5 39l65 308q11 52 37.5 75.5t79.5 23.5h342q38 0 54.5 -14t16.5 -44q0 -18 -4 -37l-42 -199h-337l17 84h204l15 68q1 5 1 13q0 14 -21 14h-201 q-17 0 -23 -5.5t-10 -22.5l-47 -218q-2 -12 -2 -15q0 -15 23 -15h341l-24 -115l-136 -70q-12 -6 -16 -11.5t-7 -20.5l-7 -31q-1 -3 -1 -9q0 -12 15 -12h119z" />
<glyph unicode="&#x11a;" horiz-adv-x="609" d="M553 0h-502l105 495h157l-24 -110h249l-23 -108h-249l-30 -142h345zM668 545h-502l28 132h502zM516 740h-119q-15 23 -62 102t-62 102h100l96 -161l168 161h98z" />
<glyph unicode="&#x11b;" horiz-adv-x="618" d="M550 0h-410q-42 0 -61 14.5t-19 45.5q0 14 5 39l65 308q11 52 37.5 75.5t79.5 23.5h342q38 0 54.5 -14t16.5 -44q0 -18 -4 -37l-42 -199h-337l17 84h204l15 68q1 5 1 13q0 14 -21 14h-201q-17 0 -23 -5.5t-10 -22.5l-47 -218q-2 -12 -2 -15q0 -15 23 -15h341zM485 569 h-119q-15 23 -62 102t-62 102h100l96 -161l168 161h98z" />
<glyph unicode="&#x11c;" horiz-adv-x="645" d="M591 0h-425q-50 0 -73 18t-23 55q0 19 6 45l93 441q13 62 45 90t95 28h418l-28 -135h-352q-20 0 -28 -7.5t-12 -29.5l-73 -345q-2 -10 -2 -13q0 -17 27 -17h217l33 154h-134l23 109h276zM709 740h-100l-96 161l-169 -161h-97l218 204h119z" />
<glyph unicode="&#x11d;" horiz-adv-x="613" d="M426 -212h-410l26 121h338q16 0 23 6t11 23l95 447h-218q-16 0 -23 -6t-10 -22l-46 -216q-1 -5 -1 -11q0 -16 23 -16h168l-24 -114h-240q-42 0 -60.5 14.5t-18.5 45.5q0 14 5 39l65 308q11 52 37 75.5t79 23.5h430l-132 -619q-12 -53 -38 -76t-79 -23zM657 569h-100 l-96 161l-169 -161h-97l218 204h119z" />
<glyph unicode="&#x11e;" horiz-adv-x="645" d="M591 0h-425q-50 0 -73 18t-23 55q0 19 6 45l93 441q13 62 45 90t95 28h418l-28 -135h-352q-20 0 -28 -7.5t-12 -29.5l-73 -345q-2 -10 -2 -13q0 -17 27 -17h217l33 154h-134l23 109h276zM666 944h62q-22 -103 -76 -155t-173 -52q-94 0 -133 32.5t-39 95.5q0 31 10 79h62 q-7 -35 -7 -54q0 -43 27.5 -65t93.5 -22q82 0 119.5 34.5t53.5 106.5z" />
<glyph unicode="&#x11f;" horiz-adv-x="613" d="M426 -212h-410l26 121h338q16 0 23 6t11 23l95 447h-218q-16 0 -23 -6t-10 -22l-46 -216q-1 -5 -1 -11q0 -16 23 -16h168l-24 -114h-240q-42 0 -60.5 14.5t-18.5 45.5q0 14 5 39l65 308q11 52 37 75.5t79 23.5h430l-132 -619q-12 -53 -38 -76t-79 -23zM614 773h62 q-22 -103 -76 -155t-173 -52q-94 0 -133 32.5t-39 95.5q0 31 10 79h62q-7 -35 -7 -54q0 -43 27.5 -65t93.5 -22q82 0 119.5 34.5t53.5 106.5z" />
<glyph unicode="&#x120;" horiz-adv-x="645" d="M591 0h-425q-50 0 -73 18t-23 55q0 19 6 45l93 441q13 62 45 90t95 28h418l-28 -135h-352q-20 0 -28 -7.5t-12 -29.5l-73 -345q-2 -10 -2 -13q0 -17 27 -17h217l33 154h-134l23 109h276zM541 737h-126l32 152h126z" />
<glyph unicode="&#x121;" horiz-adv-x="613" d="M426 -212h-410l26 121h338q16 0 23 6t11 23l95 447h-218q-16 0 -23 -6t-10 -22l-46 -216q-1 -5 -1 -11q0 -16 23 -16h168l-24 -114h-240q-42 0 -60.5 14.5t-18.5 45.5q0 14 5 39l65 308q11 52 37 75.5t79 23.5h430l-132 -619q-12 -53 -38 -76t-79 -23zM489 566h-126 l32 152h126z" />
<glyph unicode="&#x122;" horiz-adv-x="645" d="M591 0h-425q-50 0 -73 18t-23 55q0 19 6 45l93 441q13 62 45 90t95 28h418l-28 -135h-352q-20 0 -28 -7.5t-12 -29.5l-73 -345q-2 -10 -2 -13q0 -17 27 -17h217l33 154h-134l23 109h276zM288 -256h-97l82 196h113z" />
<glyph unicode="&#x123;" horiz-adv-x="613" d="M426 -212h-410l26 121h338q16 0 23 6t11 23l95 447h-218q-16 0 -23 -6t-10 -22l-46 -216q-1 -5 -1 -11q0 -16 23 -16h168l-24 -114h-240q-42 0 -60.5 14.5t-18.5 45.5q0 14 5 39l65 308q11 52 37 75.5t79 23.5h430l-132 -619q-12 -53 -38 -76t-79 -23zM463 741h97 l-82 -196h-113z" />
<glyph unicode="&#x124;" horiz-adv-x="681" d="M767 677l-143 -677h-152l59 280h-265l-59 -280h-152l143 677h152l-57 -270h265l57 270h152zM727 740h-100l-96 161l-169 -161h-97l218 204h119z" />
<glyph unicode="&#x125;" horiz-adv-x="651" d="M598 0h-139l75 357q2 10 2 12q0 16 -25 16h-209q-15 0 -22 -6t-11 -22l-75 -357h-140l152 718h140l-57 -267q38 55 99 55h222q41 0 59.5 -14t18.5 -47q0 -19 -4 -38zM672 740h-100l-96 161l-169 -161h-97l218 204h119z" />
<glyph unicode="&#x126;" horiz-adv-x="681" d="M767 677l-143 -677h-152l59 280h-265l-59 -280h-152l143 677h152l-19 -91h265l19 91h152zM293 407h265l19 90h-265z" />
<glyph unicode="&#x127;" horiz-adv-x="651" d="M593 564h-280l-24 -113q38 55 99 55h222q41 0 59.5 -14t18.5 -47q0 -19 -4 -38l-86 -407h-139l75 357q2 10 2 12q0 16 -25 16h-209q-15 0 -22 -6t-11 -22l-75 -357h-140l119 564h-41l19 89h41l14 65h140l-14 -65h280z" />
<glyph unicode="&#x128;" horiz-adv-x="270" d="M210 0h-152l143 677h152zM541 910l-20 -90q-46 -35 -118 -35q-42 0 -99.5 24.5t-83.5 24.5q-71 0 -127 -39l19 90q48 35 119 35q36 0 95 -25t87 -25q68 0 128 40z" />
<glyph unicode="&#x129;" horiz-adv-x="383" d="M261 0h-140l107 506h140zM560 739l-20 -90q-46 -35 -118 -35q-42 0 -99.5 24.5t-83.5 24.5q-71 0 -127 -39l19 90q48 35 119 35q36 0 95 -25t87 -25q68 0 128 40z" />
<glyph unicode="&#x12a;" horiz-adv-x="270" d="M210 0h-152l143 677h152zM537 805h-461l19 89h461z" />
<glyph unicode="&#x12b;" horiz-adv-x="410" d="M275 0h-140l107 506h140zM570 634h-461l19 89h461z" />
<glyph unicode="&#x12c;" horiz-adv-x="270" d="M210 0h-152l143 677h152zM480 944h62q-22 -103 -76 -155t-173 -52q-94 0 -133 32.5t-39 95.5q0 31 10 79h62q-7 -35 -7 -54q0 -43 27.5 -65t93.5 -22q82 0 119.5 34.5t53.5 106.5z" />
<glyph unicode="&#x12d;" horiz-adv-x="367" d="M253 0h-140l107 506h140zM491 773h62q-22 -103 -76 -155t-173 -52q-94 0 -133 32.5t-39 95.5q0 31 10 79h62q-7 -35 -7 -54q0 -43 27.5 -65t93.5 -22q82 0 119.5 34.5t53.5 106.5z" />
<glyph unicode="&#x12e;" horiz-adv-x="270" d="M155 -256h-177q-47 0 -47 43q0 10 3 22l11 51q8 36 20 53t43 32l114 55h-64l143 677h152l-143 -677l-136 -70q-12 -6 -16 -11.5t-7 -20.5l-7 -31q-1 -3 -1 -9q0 -12 15 -12h119z" />
<glyph unicode="&#x12f;" horiz-adv-x="253" d="M141 -256h-177q-47 0 -47 43q0 10 3 22l11 51q8 36 20.5 53t43.5 32l113 55h-52l107 506h140l-107 -506l-136 -70q-12 -6 -16 -11.5t-7 -20.5l-7 -31q-1 -3 -1 -9q0 -12 15 -12h119zM317 566h-141l32 152h141z" />
<glyph unicode="&#x130;" horiz-adv-x="270" d="M210 0h-152l143 677h152zM354 737h-126l32 152h126z" />
<glyph unicode="&#x131;" horiz-adv-x="253" d="M196 0h-140l107 506h140z" />
<glyph unicode="&#x132;" horiz-adv-x="815" d="M210 0h-152l143 677h152zM645 0h-347l29 137h273q22 0 30 7t13 29l79 372h-118l28 132h270l-118 -559q-13 -62 -45 -90t-94 -28z" />
<glyph unicode="&#x133;" horiz-adv-x="520" d="M196 0h-140l107 506h140zM317 566h-141l32 152h141zM319 -212h-185l26 121h114q27 0 32 26l121 571h140l-132 -619q-12 -53 -37.5 -76t-78.5 -23zM580 566h-141l32 152h141z" />
<glyph unicode="&#x134;" horiz-adv-x="545" d="M375 0h-347l29 137h273q22 0 30 7t13 29l79 372h-118l28 132h270l-118 -559q-13 -62 -45 -90t-94 -28zM730 740h-100l-96 161l-169 -161h-97l218 204h119z" />
<glyph unicode="&#x135;" horiz-adv-x="390" d="M149 -212h-185l26 121h114q27 0 32 26l121 571h140l-132 -619q-12 -53 -37.5 -76t-78.5 -23zM548 569h-100l-96 161l-169 -161h-97l218 204h119z" />
<glyph unicode="&#x136;" horiz-adv-x="706" d="M656 0h-156l51 241q3 15 3 24q0 13 -8.5 18t-30.5 5h-222l14 69l312 320h166l-277 -277h108q101 0 101 -89q0 -22 -6 -49zM207 0h-152l143 677h152zM319 -256h-97l82 196h113z" />
<glyph unicode="&#x137;" horiz-adv-x="646" d="M194 0h-141l152 718h141zM597 0h-140l35 168q2 14 2 18q0 22 -31 22h-200l11 51l263 247h154l-222 -203h97q76 0 76 -70q0 -18 -4 -37zM289 -256h-97l82 196h113z" />
<glyph unicode="&#x139;" horiz-adv-x="539" d="M537 137l-29 -137h-454l143 677h152l-114 -540h302zM275 740h-89l193 204h113z" />
<glyph unicode="&#x13a;" horiz-adv-x="248" d="M194 0h-140l152 718h140zM268 740h-89l193 204h113z" />
<glyph unicode="&#x13b;" horiz-adv-x="539" d="M537 137l-29 -137h-454l143 677h152l-114 -540h302zM235 -256h-97l82 196h113z" />
<glyph unicode="&#x13c;" horiz-adv-x="248" d="M194 0h-140l152 718h140zM75 -256h-97l82 196h113z" />
<glyph unicode="&#x13d;" horiz-adv-x="539" d="M537 137l-29 -137h-454l143 677h152l-114 -540h302zM477 469h-112l96 249h128z" />
<glyph unicode="&#x13e;" horiz-adv-x="391" d="M194 0h-140l152 718h140zM431 469h-112l96 249h128z" />
<glyph unicode="&#x13f;" horiz-adv-x="539" d="M537 137l-29 -137h-454l143 677h152l-114 -540h302zM481 302h-126l32 152h126z" />
<glyph unicode="&#x140;" horiz-adv-x="352" d="M194 0h-140l152 718h140zM412 286h-126l32 152h126z" />
<glyph unicode="&#x141;" horiz-adv-x="552" d="M521 0h-454l84 396l-61 -13l18 83l60 13l42 198h152l-34 -163l166 37l-18 -83l-166 -37l-62 -293h302z" />
<glyph unicode="&#x142;" horiz-adv-x="281" d="M211 0h-142l95 447l-64 -17l19 88l63 17l39 183h142l-30 -143l64 17l-18 -88l-65 -17z" />
<glyph unicode="&#x143;" horiz-adv-x="703" d="M646 0h-101l-256 444l-94 -444h-141l143 677h143l222 -404l85 404h142zM495 740h-89l193 204h113z" />
<glyph unicode="&#x144;" horiz-adv-x="649" d="M595 0h-139l75 357q2 10 2 12q0 16 -25 16h-209q-15 0 -22 -6t-11 -22l-75 -357h-140l107 506h135l-12 -55q36 55 99 55h227q41 0 59.5 -14t18.5 -47q0 -19 -4 -38zM432 569h-89l193 204h113z" />
<glyph unicode="&#x145;" horiz-adv-x="703" d="M646 0h-101l-256 444l-94 -444h-141l143 677h143l222 -404l85 404h142zM317 -256h-97l82 196h113z" />
<glyph unicode="&#x146;" horiz-adv-x="649" d="M595 0h-139l75 357q2 10 2 12q0 16 -25 16h-209q-15 0 -22 -6t-11 -22l-75 -357h-140l107 506h135l-12 -55q36 55 99 55h227q41 0 59.5 -14t18.5 -47q0 -19 -4 -38zM280 -256h-97l82 196h113z" />
<glyph unicode="&#x147;" horiz-adv-x="703" d="M646 0h-101l-256 444l-94 -444h-141l143 677h143l222 -404l85 404h142zM563 740h-119q-15 23 -62 102t-62 102h100l96 -161l168 161h98z" />
<glyph unicode="&#x148;" horiz-adv-x="649" d="M595 0h-139l75 357q2 10 2 12q0 16 -25 16h-209q-15 0 -22 -6t-11 -22l-75 -357h-140l107 506h135l-12 -55q36 55 99 55h227q41 0 59.5 -14t18.5 -47q0 -19 -4 -38zM506 569h-119q-15 23 -62 102t-62 102h100l96 -161l168 161h98z" />
<glyph unicode="&#x14a;" horiz-adv-x="703" d="M496 -256h-186l26 121h115q15 0 21.5 5.5t9.5 20.5l34 158l-227 395l-94 -444h-141l143 677h143l222 -404l85 404h142l-177 -834q-12 -53 -37.5 -76t-78.5 -23z" />
<glyph unicode="&#x14b;" horiz-adv-x="649" d="M445 -256h-186l26 121h115q15 0 21.5 5.5t9.5 20.5l100 466q2 10 2 12q0 16 -25 16h-209q-15 0 -22 -6t-11 -22l-75 -357h-140l107 506h135l-12 -55q36 55 99 55h227q41 0 59.5 -14t18.5 -47q0 -19 -4 -38l-120 -564q-12 -53 -37.5 -76t-78.5 -23z" />
<glyph unicode="&#x14c;" horiz-adv-x="668" d="M503 0h-337q-50 0 -73 18t-23 55q0 19 6 45l93 441q13 62 45 90t95 28h337q50 0 72.5 -18t22.5 -56q0 -17 -5 -44l-93 -441q-13 -61 -45.5 -89.5t-94.5 -28.5zM501 169l72 337q2 12 2 16q0 23 -35 23h-189q-20 0 -29 -8.5t-13 -30.5l-72 -337q-2 -10 -2 -13q0 -21 29 -21 h189q23 0 33.5 7.5t14.5 26.5zM734 805h-461l19 89h461z" />
<glyph unicode="&#x14d;" horiz-adv-x="633" d="M488 0h-344q-42 0 -60.5 14.5t-18.5 45.5q0 14 5 39l65 308q11 52 37 75.5t79 23.5h344q43 0 61.5 -14.5t18.5 -45.5q0 -14 -5 -39l-65 -308q-12 -53 -38 -76t-79 -23zM476 151l43 206q2 10 2 12q0 16 -27 16h-198q-16 0 -22.5 -6t-9.5 -22l-43 -206q-2 -10 -2 -13 q0 -14 22 -14h198q32 0 37 27zM681 634h-461l19 89h461z" />
<glyph unicode="&#x14e;" horiz-adv-x="668" d="M503 0h-337q-50 0 -73 18t-23 55q0 19 6 45l93 441q13 62 45 90t95 28h337q50 0 72.5 -18t22.5 -56q0 -17 -5 -44l-93 -441q-13 -61 -45.5 -89.5t-94.5 -28.5zM501 169l72 337q2 12 2 16q0 23 -35 23h-189q-20 0 -29 -8.5t-13 -30.5l-72 -337q-2 -10 -2 -13q0 -21 29 -21 h189q23 0 33.5 7.5t14.5 26.5zM677 944h62q-22 -103 -76 -155t-173 -52q-94 0 -133 32.5t-39 95.5q0 31 10 79h62q-7 -35 -7 -54q0 -43 27.5 -65t93.5 -22q82 0 119.5 34.5t53.5 106.5z" />
<glyph unicode="&#x14f;" horiz-adv-x="633" d="M488 0h-344q-42 0 -60.5 14.5t-18.5 45.5q0 14 5 39l65 308q11 52 37 75.5t79 23.5h344q43 0 61.5 -14.5t18.5 -45.5q0 -14 -5 -39l-65 -308q-12 -53 -38 -76t-79 -23zM476 151l43 206q2 10 2 12q0 16 -27 16h-198q-16 0 -22.5 -6t-9.5 -22l-43 -206q-2 -10 -2 -13 q0 -14 22 -14h198q32 0 37 27zM624 773h62q-22 -103 -76 -155t-173 -52q-94 0 -133 32.5t-39 95.5q0 31 10 79h62q-7 -35 -7 -54q0 -43 27.5 -65t93.5 -22q82 0 119.5 34.5t53.5 106.5z" />
<glyph unicode="&#x150;" horiz-adv-x="668" d="M503 0h-337q-50 0 -73 18t-23 55q0 19 6 45l93 441q13 62 45 90t95 28h337q50 0 72.5 -18t22.5 -56q0 -17 -5 -44l-93 -441q-13 -61 -45.5 -89.5t-94.5 -28.5zM501 169l72 337q2 12 2 16q0 23 -35 23h-189q-20 0 -29 -8.5t-13 -30.5l-72 -337q-2 -10 -2 -13q0 -21 29 -21 h189q23 0 33.5 7.5t14.5 26.5zM588 740h-89l193 204h113zM368 740h-89l193 204h113z" />
<glyph unicode="&#x151;" horiz-adv-x="633" d="M488 0h-344q-42 0 -60.5 14.5t-18.5 45.5q0 14 5 39l65 308q11 52 37 75.5t79 23.5h344q43 0 61.5 -14.5t18.5 -45.5q0 -14 -5 -39l-65 -308q-12 -53 -38 -76t-79 -23zM476 151l43 206q2 10 2 12q0 16 -27 16h-198q-16 0 -22.5 -6t-9.5 -22l-43 -206q-2 -10 -2 -13 q0 -14 22 -14h198q32 0 37 27zM534 569h-89l193 204h113zM314 569h-89l193 204h113z" />
<glyph unicode="&#x152;" horiz-adv-x="965" d="M910 0h-744q-50 0 -73 18t-23 55q0 19 6 45l93 441q13 62 45 90t95 28h744l-28 -132h-675q-19 0 -27.5 -7t-12.5 -27l-72 -341q-2 -7 -2 -16q0 -19 27 -19h191l77 360h156l-24 -110h232l-23 -108h-232l-30 -142h328z" />
<glyph unicode="&#x153;" horiz-adv-x="995" d="M923 0h-779q-42 0 -60.5 14.5t-18.5 45.5q0 14 5 39l65 308q11 52 37 75.5t79 23.5h712q38 0 54 -14t16 -44q0 -18 -4 -37l-42 -199h-318l17 84h185l15 68q1 5 1 13q0 14 -20 14h-210l-59 -276h349zM457 115l59 276h-218q-16 0 -22 -5.5t-10 -22.5l-47 -221 q-2 -10 -2 -13q0 -14 22 -14h218z" />
<glyph unicode="&#x154;" horiz-adv-x="663" d="M611 0h-152l46 221q2 12 2 15q0 16 -28 16h-219l-53 -252h-152l105 495h152l-28 -131h208q21 0 29 7t13 28l24 110q2 12 2 16q0 12 -7 16t-24 4h-359l28 132h430q98 0 98 -75q0 -15 -5 -40l-31 -147q-20 -90 -104 -99q76 -5 76 -59q0 -14 -2 -22zM475 740h-89l193 204 h113z" />
<glyph unicode="&#x155;" horiz-adv-x="451" d="M191 0h-140l107 506h136l-12 -55q36 55 99 55h147l-26 -121h-202q-28 0 -34 -28zM333 569h-89l193 204h113z" />
<glyph unicode="&#x156;" horiz-adv-x="663" d="M611 0h-152l46 221q2 12 2 15q0 16 -28 16h-219l-53 -252h-152l105 495h152l-28 -131h208q21 0 29 7t13 28l24 110q2 12 2 16q0 12 -7 16t-24 4h-359l28 132h430q98 0 98 -75q0 -15 -5 -40l-31 -147q-20 -90 -104 -99q76 -5 76 -59q0 -14 -2 -22zM287 -256h-97l82 196 h113z" />
<glyph unicode="&#x157;" horiz-adv-x="451" d="M191 0h-140l107 506h136l-12 -55q36 55 99 55h147l-26 -121h-202q-28 0 -34 -28zM66 -256h-97l82 196h113z" />
<glyph unicode="&#x158;" horiz-adv-x="663" d="M611 0h-152l46 221q2 12 2 15q0 16 -28 16h-219l-53 -252h-152l105 495h152l-28 -131h208q21 0 29 7t13 28l24 110q2 12 2 16q0 12 -7 16t-24 4h-359l28 132h430q98 0 98 -75q0 -15 -5 -40l-31 -147q-20 -90 -104 -99q76 -5 76 -59q0 -14 -2 -22zM527 740h-119 q-15 23 -62 102t-62 102h100l96 -161l168 161h98z" />
<glyph unicode="&#x159;" horiz-adv-x="451" d="M191 0h-140l107 506h136l-12 -55q36 55 99 55h147l-26 -121h-202q-28 0 -34 -28zM402 569h-119q-15 23 -62 102t-62 102h100l96 -161l168 161h98z" />
<glyph unicode="&#x15a;" horiz-adv-x="646" d="M481 0h-429l28 132h361q18 0 26.5 7t12.5 26l20 94q1 4 1 11q0 18 -26 18h-267q-78 0 -78 67q0 13 3 29l37 175q13 62 45 90t96 28h421l-27 -129h-359q-16 0 -23 -7t-11 -25l-19 -89q-2 -10 -2 -13q0 -15 22 -15h271q79 0 79 -68q0 -13 -3 -28l-39 -185q-13 -62 -45 -90 t-95 -28zM467 740h-89l193 204h113z" />
<glyph unicode="&#x15b;" horiz-adv-x="621" d="M474 0h-422l24 116h347q15 0 21 4.5t9 19.5l11 50q1 3 1 8q0 13 -20 13h-271q-65 0 -65 50q0 10 3 22l28 135q9 46 35 67t77 21h418l-24 -113h-345q-28 0 -33 -27l-9 -42q-1 -3 -1 -9q0 -16 21 -16h274q66 0 66 -51q0 -6 -2 -20l-30 -140q-10 -46 -36 -67t-77 -21z M418 569h-89l193 204h113z" />
<glyph unicode="&#x15c;" horiz-adv-x="646" d="M481 0h-429l28 132h361q18 0 26.5 7t12.5 26l20 94q1 4 1 11q0 18 -26 18h-267q-78 0 -78 67q0 13 3 29l37 175q13 62 45 90t96 28h421l-27 -129h-359q-16 0 -23 -7t-11 -25l-19 -89q-2 -10 -2 -13q0 -15 22 -15h271q79 0 79 -68q0 -13 -3 -28l-39 -185q-13 -62 -45 -90 t-95 -28zM710 740h-100l-96 161l-169 -161h-97l218 204h119z" />
<glyph unicode="&#x15d;" horiz-adv-x="621" d="M474 0h-422l24 116h347q15 0 21 4.5t9 19.5l11 50q1 3 1 8q0 13 -20 13h-271q-65 0 -65 50q0 10 3 22l28 135q9 46 35 67t77 21h418l-24 -113h-345q-28 0 -33 -27l-9 -42q-1 -3 -1 -9q0 -16 21 -16h274q66 0 66 -51q0 -6 -2 -20l-30 -140q-10 -46 -36 -67t-77 -21z M661 569h-100l-96 161l-169 -161h-97l218 204h119z" />
<glyph unicode="&#x15e;" horiz-adv-x="646" d="M481 0h-429l28 132h361q18 0 26.5 7t12.5 26l20 94q1 4 1 11q0 18 -26 18h-267q-78 0 -78 67q0 13 3 29l37 175q13 62 45 90t96 28h421l-27 -129h-359q-16 0 -23 -7t-11 -25l-19 -89q-2 -10 -2 -13q0 -15 22 -15h271q79 0 79 -68q0 -13 -3 -28l-39 -185q-13 -62 -45 -90 t-95 -28zM289 -256h-97l82 196h113z" />
<glyph unicode="&#x15f;" horiz-adv-x="621" d="M474 0h-422l24 116h347q15 0 21 4.5t9 19.5l11 50q1 3 1 8q0 13 -20 13h-271q-65 0 -65 50q0 10 3 22l28 135q9 46 35 67t77 21h418l-24 -113h-345q-28 0 -33 -27l-9 -42q-1 -3 -1 -9q0 -16 21 -16h274q66 0 66 -51q0 -6 -2 -20l-30 -140q-10 -46 -36 -67t-77 -21z M276 -256h-97l82 196h113z" />
<glyph unicode="&#x160;" horiz-adv-x="646" d="M481 0h-429l28 132h361q18 0 26.5 7t12.5 26l20 94q1 4 1 11q0 18 -26 18h-267q-78 0 -78 67q0 13 3 29l37 175q13 62 45 90t96 28h421l-27 -129h-359q-16 0 -23 -7t-11 -25l-19 -89q-2 -10 -2 -13q0 -15 22 -15h271q79 0 79 -68q0 -13 -3 -28l-39 -185q-13 -62 -45 -90 t-95 -28zM545 740h-119q-15 23 -62 102t-62 102h100l96 -161l168 161h98z" />
<glyph unicode="&#x161;" horiz-adv-x="621" d="M474 0h-422l24 116h347q15 0 21 4.5t9 19.5l11 50q1 3 1 8q0 13 -20 13h-271q-65 0 -65 50q0 10 3 22l28 135q9 46 35 67t77 21h418l-24 -113h-345q-28 0 -33 -27l-9 -42q-1 -3 -1 -9q0 -16 21 -16h274q66 0 66 -51q0 -6 -2 -20l-30 -140q-10 -46 -36 -67t-77 -21z M486 569h-119q-15 23 -62 102t-62 102h100l96 -161l168 161h98z" />
<glyph unicode="&#x162;" horiz-adv-x="533" d="M456 544l-115 -544h-152l115 544h-164l28 133h481l-28 -133h-165zM216 -256h-97l82 196h113z" />
<glyph unicode="&#x163;" horiz-adv-x="342" d="M309 0h-163q-42 0 -60.5 14.5t-18.5 45.5q0 14 5 39l116 548h140l-30 -141h122l-23 -110h-122l-55 -259q-2 -10 -2 -13q0 -14 22 -14h92zM137 -256h-97l82 196h113z" />
<glyph unicode="&#x164;" horiz-adv-x="533" d="M456 544l-115 -544h-152l115 544h-164l28 133h481l-28 -133h-165zM479 740h-119q-15 23 -62 102t-62 102h100l96 -161l168 161h98z" />
<glyph unicode="&#x165;" horiz-adv-x="493" d="M309 0h-163q-42 0 -60.5 14.5t-18.5 45.5q0 14 5 39l116 548h140l-30 -141h122l-23 -110h-122l-55 -259q-2 -10 -2 -13q0 -14 22 -14h92zM533 469h-112l96 249h128z" />
<glyph unicode="&#x166;" horiz-adv-x="533" d="M480 254h-86l-53 -254h-152l53 254h-84l18 84h84l44 206h-164l28 133h481l-28 -133h-165l-44 -206h86z" />
<glyph unicode="&#x167;" horiz-adv-x="342" d="M347 212h-111l-16 -75q-2 -10 -2 -13q0 -14 22 -14h92l-23 -110h-163q-42 0 -60.5 14.5t-18.5 45.5q0 14 5 39l116 548h140l-30 -141h122l-23 -110h-122l-22 -100h111z" />
<glyph unicode="&#x168;" d="M506 0h-337q-51 0 -73.5 18t-22.5 56q0 24 5 44l118 559h152l-107 -506q-3 -12 -3 -18q0 -11 6.5 -14.5t23.5 -3.5h200q20 0 29.5 7t13.5 29l107 506h146l-118 -559q-13 -61 -45.5 -89.5t-94.5 -28.5zM742 910l-20 -90q-46 -35 -118 -35q-42 0 -99.5 24.5t-83.5 24.5 q-71 0 -127 -39l19 90q48 35 119 35q36 0 95 -25t87 -25q68 0 128 40z" />
<glyph unicode="&#x169;" horiz-adv-x="640" d="M588 0h-135l11 54q-36 -54 -98 -54h-220q-41 0 -60 14.5t-19 46.5q0 15 5 38l86 407h140l-76 -357q-2 -10 -2 -13q0 -16 24 -16h201q16 0 23 6t11 23l76 357h140zM688 739l-20 -90q-46 -35 -118 -35q-42 0 -99.5 24.5t-83.5 24.5q-71 0 -127 -39l19 90q48 35 119 35 q36 0 95 -25t87 -25q68 0 128 40z" />
<glyph unicode="&#x16a;" d="M506 0h-337q-51 0 -73.5 18t-22.5 56q0 24 5 44l118 559h152l-107 -506q-3 -12 -3 -18q0 -11 6.5 -14.5t23.5 -3.5h200q20 0 29.5 7t13.5 29l107 506h146l-118 -559q-13 -61 -45.5 -89.5t-94.5 -28.5zM738 805h-461l19 89h461z" />
<glyph unicode="&#x16b;" horiz-adv-x="640" d="M588 0h-135l11 54q-36 -54 -98 -54h-220q-41 0 -60 14.5t-19 46.5q0 15 5 38l86 407h140l-76 -357q-2 -10 -2 -13q0 -16 24 -16h201q16 0 23 6t11 23l76 357h140zM684 634h-461l19 89h461z" />
<glyph unicode="&#x16c;" d="M506 0h-337q-51 0 -73.5 18t-22.5 56q0 24 5 44l118 559h152l-107 -506q-3 -12 -3 -18q0 -11 6.5 -14.5t23.5 -3.5h200q20 0 29.5 7t13.5 29l107 506h146l-118 -559q-13 -61 -45.5 -89.5t-94.5 -28.5zM681 944h62q-22 -103 -76 -155t-173 -52q-94 0 -133 32.5t-39 95.5 q0 31 10 79h62q-7 -35 -7 -54q0 -43 27.5 -65t93.5 -22q82 0 119.5 34.5t53.5 106.5z" />
<glyph unicode="&#x16d;" horiz-adv-x="640" d="M588 0h-135l11 54q-36 -54 -98 -54h-220q-41 0 -60 14.5t-19 46.5q0 15 5 38l86 407h140l-76 -357q-2 -10 -2 -13q0 -16 24 -16h201q16 0 23 6t11 23l76 357h140zM627 773h62q-22 -103 -76 -155t-173 -52q-94 0 -133 32.5t-39 95.5q0 31 10 79h62q-7 -35 -7 -54 q0 -43 27.5 -65t93.5 -22q82 0 119.5 34.5t53.5 106.5z" />
<glyph unicode="&#x16e;" d="M506 0h-337q-51 0 -73.5 18t-22.5 56q0 24 5 44l118 559h152l-107 -506q-3 -12 -3 -18q0 -11 6.5 -14.5t23.5 -3.5h200q20 0 29.5 7t13.5 29l107 506h146l-118 -559q-13 -61 -45.5 -89.5t-94.5 -28.5zM547 717h-117q-49 0 -49 36q0 11 3 25l22 105q7 33 23 47t49 14h117 q27 0 38.5 -8.5t11.5 -28.5q0 -11 -3 -24l-22 -105q-7 -33 -23.5 -47t-49.5 -14zM569 787l20 91q1 3 1 9q0 12 -18 12h-92q-12 0 -17 -4.5t-7 -16.5l-20 -91q-1 -3 -1 -9q0 -13 17 -13h92q13 0 17.5 4t7.5 18z" />
<glyph unicode="&#x16f;" horiz-adv-x="640" d="M588 0h-135l11 54q-36 -54 -98 -54h-220q-41 0 -60 14.5t-19 46.5q0 15 5 38l86 407h140l-76 -357q-2 -10 -2 -13q0 -16 24 -16h201q16 0 23 6t11 23l76 357h140zM494 546h-117q-49 0 -49 36q0 12 3 25l22 105q7 33 23 47t49 14h117q27 0 38.5 -8.5t11.5 -28.5 q0 -10 -3 -24l-22 -105q-7 -33 -23.5 -47t-49.5 -14zM516 616l20 91q1 3 1 9q0 12 -18 12h-92q-12 0 -17 -4.5t-7 -16.5l-20 -91q-1 -3 -1 -9q0 -13 17 -13h92q13 0 17.5 4t7.5 18z" />
<glyph unicode="&#x170;" d="M506 0h-337q-51 0 -73.5 18t-22.5 56q0 24 5 44l118 559h152l-107 -506q-3 -12 -3 -18q0 -11 6.5 -14.5t23.5 -3.5h200q20 0 29.5 7t13.5 29l107 506h146l-118 -559q-13 -61 -45.5 -89.5t-94.5 -28.5zM591 740h-89l193 204h113zM371 740h-89l193 204h113z" />
<glyph unicode="&#x171;" horiz-adv-x="640" d="M588 0h-135l11 54q-36 -54 -98 -54h-220q-41 0 -60 14.5t-19 46.5q0 15 5 38l86 407h140l-76 -357q-2 -10 -2 -13q0 -16 24 -16h201q16 0 23 6t11 23l76 357h140zM538 569h-89l193 204h113zM318 569h-89l193 204h113z" />
<glyph unicode="&#x172;" d="M380 -256h-178q-47 0 -47 43q0 10 3 22l11 51q8 36 20.5 53t43.5 32l114 55h-178q-51 0 -73.5 18t-22.5 56q0 24 5 44l118 559h152l-107 -506q-3 -12 -3 -18q0 -11 6.5 -14.5t23.5 -3.5h200q20 0 29.5 7t13.5 29l107 506h146l-118 -559q-13 -61 -45.5 -89.5t-94.5 -28.5 h-71l-136 -70q-12 -6 -16 -11.5t-7 -20.5l-7 -31q-1 -3 -1 -9q0 -12 15 -12h119z" />
<glyph unicode="&#x173;" horiz-adv-x="640" d="M533 -256h-178q-47 0 -47 43q0 10 3 22l11 51q8 36 20.5 53t43.5 32l114 55h-47l11 54q-36 -54 -98 -54h-220q-41 0 -60 14.5t-19 46.5q0 15 5 38l86 407h140l-76 -357q-2 -10 -2 -13q0 -16 24 -16h201q16 0 23 6t11 23l76 357h140l-107 -506l-136 -70q-12 -6 -16 -11.5 t-7 -20.5l-7 -31q-1 -3 -1 -9q0 -12 15 -12h119z" />
<glyph unicode="&#x174;" horiz-adv-x="998" d="M797 0h-171l-25 483l-246 -483h-170l-26 677h156l11 -496l245 496h152l21 -495l231 495h149zM886 740h-100l-96 161l-169 -161h-97l218 204h119z" />
<glyph unicode="&#x175;" horiz-adv-x="901" d="M730 0h-177l-31 351l-192 -351h-174l-35 506h154l13 -362l190 362h165l27 -361l176 361h148zM801 569h-100l-96 161l-169 -161h-97l218 204h119z" />
<glyph unicode="&#x176;" horiz-adv-x="617" d="M384 0h-152l59 279l-135 398h159l83 -267l196 267h152l-303 -398zM695 740h-100l-96 161l-169 -161h-97l218 204h119z" />
<glyph unicode="&#x177;" horiz-adv-x="610" d="M423 -212h-408l26 121h336q17 0 23.5 6t10.5 23l14 62h-288q-42 0 -60.5 14.5t-18.5 45.5q0 14 5 39l86 407h140l-77 -363q-2 -10 -2 -13q0 -16 24 -16h215l83 392h141l-132 -619q-12 -52 -38.5 -75.5t-79.5 -23.5zM656 569h-100l-96 161l-169 -161h-97l218 204h119z" />
<glyph unicode="&#x178;" horiz-adv-x="617" d="M384 0h-152l59 279l-135 398h159l83 -267l196 267h152l-303 -398zM671 737h-126l32 152h126zM384 737h-126l32 152h126z" />
<glyph unicode="&#x179;" horiz-adv-x="602" d="M553 0h-504l26 123l410 421h-314l28 133h497l-24 -117l-404 -425h313zM445 740h-89l193 204h113z" />
<glyph unicode="&#x17a;" horiz-adv-x="571" d="M523 0h-476l23 111l348 277h-288l25 118h475l-21 -100l-344 -286h283zM393 569h-89l193 204h113z" />
<glyph unicode="&#x17b;" horiz-adv-x="602" d="M553 0h-504l26 123l410 421h-314l28 133h497l-24 -117l-404 -425h313zM525 737h-126l32 152h126z" />
<glyph unicode="&#x17c;" horiz-adv-x="571" d="M523 0h-476l23 111l348 277h-288l25 118h475l-21 -100l-344 -286h283zM468 566h-126l32 152h126z" />
<glyph unicode="&#x17d;" horiz-adv-x="602" d="M553 0h-504l26 123l410 421h-314l28 133h497l-24 -117l-404 -425h313zM513 740h-119q-15 23 -62 102t-62 102h100l96 -161l168 161h98z" />
<glyph unicode="&#x17e;" horiz-adv-x="571" d="M523 0h-476l23 111l348 277h-288l25 118h475l-21 -100l-344 -286h283zM467 569h-119q-15 23 -62 102t-62 102h100l96 -161l168 161h98z" />
<glyph unicode="&#x192;" horiz-adv-x="453" d="M10 -168h-27l19 94h24q41 0 64 18.5t40 64.5l138 368h-72l19 89h86l25 63q33 82 82.5 115t146.5 33h27l-20 -94h-35q-63 0 -85 -59l-21 -58h91l-19 -89h-105l-140 -377q-35 -94 -86.5 -131t-151.5 -37z" />
<glyph unicode="&#x218;" horiz-adv-x="646" d="M481 0h-429l28 132h361q18 0 26.5 7t12.5 26l20 94q1 4 1 11q0 18 -26 18h-267q-78 0 -78 67q0 13 3 29l37 175q13 62 45 90t96 28h421l-27 -129h-359q-16 0 -23 -7t-11 -25l-19 -89q-2 -10 -2 -13q0 -15 22 -15h271q79 0 79 -68q0 -13 -3 -28l-39 -185q-13 -62 -45 -90 t-95 -28zM289 -256h-97l82 196h113z" />
<glyph unicode="&#x219;" horiz-adv-x="621" d="M474 0h-422l24 116h347q15 0 21 4.5t9 19.5l11 50q1 3 1 8q0 13 -20 13h-271q-65 0 -65 50q0 10 3 22l28 135q9 46 35 67t77 21h418l-24 -113h-345q-28 0 -33 -27l-9 -42q-1 -3 -1 -9q0 -16 21 -16h274q66 0 66 -51q0 -6 -2 -20l-30 -140q-10 -46 -36 -67t-77 -21z M276 -256h-97l82 196h113z" />
<glyph unicode="&#x21a;" horiz-adv-x="533" d="M456 544l-115 -544h-152l115 544h-164l28 133h481l-28 -133h-165zM216 -256h-97l82 196h113z" />
<glyph unicode="&#x21b;" horiz-adv-x="342" d="M309 0h-163q-42 0 -60.5 14.5t-18.5 45.5q0 14 5 39l116 548h140l-30 -141h122l-23 -110h-122l-55 -259q-2 -10 -2 -13q0 -14 22 -14h92zM137 -256h-97l82 196h113z" />
<glyph unicode="&#x237;" horiz-adv-x="267" d="M66 -212h-185l26 121h114q27 0 32 26l121 571h140l-132 -619q-12 -53 -37.5 -76t-78.5 -23z" />
<glyph unicode="&#x2c6;" horiz-adv-x="572" d="M637 569h-100l-96 161l-169 -161h-97l218 204h119z" />
<glyph unicode="&#x2c7;" horiz-adv-x="572" d="M462 569h-119q-15 23 -62 102t-62 102h100l96 -161l168 161h98z" />
<glyph unicode="&#x2c9;" horiz-adv-x="571" d="M650 634h-461l19 89h461z" />
<glyph unicode="&#x2d8;" horiz-adv-x="521" d="M568 773h62q-22 -103 -76 -155t-173 -52q-94 0 -133 32.5t-39 95.5q0 31 10 79h62q-7 -35 -7 -54q0 -43 27.5 -65t93.5 -22q82 0 119.5 34.5t53.5 106.5z" />
<glyph unicode="&#x2d9;" horiz-adv-x="248" d="M302 566h-126l32 152h126z" />
<glyph unicode="&#x2da;" horiz-adv-x="347" d="M347 546h-117q-49 0 -49 36q0 12 3 25l22 105q7 33 23 47t49 14h117q27 0 38.5 -8.5t11.5 -28.5q0 -10 -3 -24l-22 -105q-7 -33 -23.5 -47t-49.5 -14zM369 616l20 91q1 3 1 9q0 12 -18 12h-92q-12 0 -17 -4.5t-7 -16.5l-20 -91q-1 -3 -1 -9q0 -13 17 -13h92q13 0 17.5 4 t7.5 18z" />
<glyph unicode="&#x2db;" horiz-adv-x="333" d="M221 -256h-178q-46 0 -46 42q0 9 3 23l10 51q7 35 20 52t44 33l114 55h88l-136 -70q-12 -6 -16 -11.5t-7 -20.5l-7 -31q-1 -3 -1 -9q0 -12 15 -12h119z" />
<glyph unicode="&#x2dc;" horiz-adv-x="533" d="M635 739l-20 -90q-46 -35 -118 -35q-42 0 -99.5 24.5t-83.5 24.5q-71 0 -127 -39l19 90q48 35 119 35q36 0 95 -25t87 -25q68 0 128 40z" />
<glyph unicode="&#x2dd;" horiz-adv-x="593" d="M484 569h-89l193 204h113zM264 569h-89l193 204h113z" />
<glyph unicode="&#x37e;" horiz-adv-x="263" d="M274 356h-128l32 151h128zM119 -98h-112l96 249h128z" />
<glyph unicode="&#x394;" horiz-adv-x="636" d="M619 0h-603l366 677h172zM463 138l-36 368l-200 -368h236z" />
<glyph unicode="&#x3a9;" horiz-adv-x="688" d="M628 0h-257l26 123l109 115q32 34 44 88l37 177q3 12 3 20q0 22 -32 22h-201q-20 0 -29.5 -9t-14.5 -33l-37 -177q-5 -20 -5 -41q0 -27 11 -47l60 -115l-26 -123h-256l26 125h136l-75 104q-24 32 -24 66q0 27 10 71l41 193q13 62 45 90t96 28h345q50 0 72.5 -18t22.5 -56 q0 -16 -5 -44l-41 -193q-12 -56 -25.5 -82t-46.5 -55l-119 -104h136z" />
<glyph unicode="&#x3bc;" horiz-adv-x="585" d="M147 -212h-139l153 718h139l-81 -383h174q15 0 22 7t11 25l75 351h136l-86 -407q-12 -53 -38 -76t-79 -23h-241z" />
<glyph unicode="&#x3c0;" horiz-adv-x="626" d="M602 0h-132q-42 0 -60.5 14.5t-18.5 45.5q0 14 5 39l63 298h-193l-84 -397h-126l107 506h445l-79 -374q-2 -7 -2 -16q0 -16 24 -16h72z" />
<glyph unicode="&#x1e80;" horiz-adv-x="998" d="M797 0h-171l-25 483l-246 -483h-170l-26 677h156l11 -496l245 496h152l21 -495l231 495h149zM756 740h-89l-129 204h113z" />
<glyph unicode="&#x1e81;" horiz-adv-x="901" d="M730 0h-177l-31 351l-192 -351h-174l-35 506h154l13 -362l190 362h165l27 -361l176 361h148zM671 569h-89l-129 204h113z" />
<glyph unicode="&#x1e82;" horiz-adv-x="998" d="M797 0h-171l-25 483l-246 -483h-170l-26 677h156l11 -496l245 496h152l21 -495l231 495h149zM643 740h-89l193 204h113z" />
<glyph unicode="&#x1e83;" horiz-adv-x="901" d="M730 0h-177l-31 351l-192 -351h-174l-35 506h154l13 -362l190 362h165l27 -361l176 361h148zM558 569h-89l193 204h113z" />
<glyph unicode="&#x1e84;" horiz-adv-x="998" d="M797 0h-171l-25 483l-246 -483h-170l-26 677h156l11 -496l245 496h152l21 -495l231 495h149zM861 737h-126l32 152h126zM574 737h-126l32 152h126z" />
<glyph unicode="&#x1e85;" horiz-adv-x="901" d="M730 0h-177l-31 351l-192 -351h-174l-35 506h154l13 -362l190 362h165l27 -361l176 361h148zM777 566h-126l32 152h126zM490 566h-126l32 152h126z" />
<glyph unicode="&#x1ef2;" horiz-adv-x="617" d="M384 0h-152l59 279l-135 398h159l83 -267l196 267h152l-303 -398zM565 740h-89l-129 204h113z" />
<glyph unicode="&#x1ef3;" horiz-adv-x="610" d="M423 -212h-408l26 121h336q17 0 23.5 6t10.5 23l14 62h-288q-42 0 -60.5 14.5t-18.5 45.5q0 14 5 39l86 407h140l-77 -363q-2 -10 -2 -13q0 -16 24 -16h215l83 392h141l-132 -619q-12 -52 -38.5 -75.5t-79.5 -23.5zM526 569h-89l-129 204h113z" />
<glyph unicode="&#x2013;" horiz-adv-x="695" d="M724 296h-631l21 95h631z" />
<glyph unicode="&#x2014;" horiz-adv-x="1150" d="M1180 296h-1087l21 95h1087z" />
<glyph unicode="&#x2018;" horiz-adv-x="259" d="M326 469h-112l-6 249h127z" />
<glyph unicode="&#x2019;" horiz-adv-x="259" d="M242 469h-112l96 249h128z" />
<glyph unicode="&#x201a;" horiz-adv-x="259" d="M122 -98h-112l96 249h128z" />
<glyph unicode="&#x201c;" horiz-adv-x="518" d="M326 469h-112l-6 249h127zM585 469h-112l-6 249h127z" />
<glyph unicode="&#x201d;" horiz-adv-x="518" d="M242 469h-112l96 249h128zM501 469h-112l96 249h128z" />
<glyph unicode="&#x201e;" horiz-adv-x="518" d="M122 -98h-112l96 249h128zM381 -98h-112l96 249h128z" />
<glyph unicode="&#x2020;" horiz-adv-x="522" d="M304 -1h-80l104 487h-170l14 68h170l26 123h80l-26 -123h162l-14 -68h-162z" />
<glyph unicode="&#x2021;" horiz-adv-x="523" d="M492 123h-162l-26 -123h-80l26 123h-169l14 67h169l63 295h-169l14 69h169l26 123h80l-26 -123h162l-14 -69h-162l-63 -295h162z" />
<glyph unicode="&#x2022;" horiz-adv-x="314" d="M254 228h-97q-45 0 -45 34q0 9 3 21l21 99q6 29 20.5 41.5t44.5 12.5h97q44 0 44 -33q0 -13 -2 -21l-21 -99q-6 -29 -21 -42t-44 -13z" />
<glyph unicode="&#x2026;" horiz-adv-x="1195" d="M184 0h-128l32 151h128zM662 0h-128l32 151h128zM1140 0h-128l32 151h128z" />
<glyph unicode="&#x2030;" horiz-adv-x="1075" d="M340 349h-161q-49 0 -49 36q0 9 3 23l47 220q6 31 22 45t49 14h161q49 0 49 -38q0 -5 -2 -21l-47 -220q-7 -31 -23.5 -45t-48.5 -14zM332 446l31 145v6q0 11 -14 11h-71q-15 0 -18 -16l-31 -146q-1 -2 -1 -6q0 -9 13 -9h71q17 0 20 15zM217 0h-80l551 677h80zM652 -10 h-161q-49 0 -49 36q0 10 3 23l47 220q6 31 22 45t49 14h161q49 0 49 -38q0 -5 -2 -21l-47 -220q-7 -31 -23.5 -45t-48.5 -14zM644 87l31 145v6q0 11 -14 11h-71q-15 0 -18 -16l-31 -146q-1 -2 -1 -6q0 -9 13 -9h71q17 0 20 15zM967 -10h-161q-49 0 -49 36q0 10 3 23l47 220 q6 31 22 45t49 14h161q49 0 49 -38q0 -5 -2 -21l-47 -220q-7 -31 -23.5 -45t-48.5 -14zM959 87l31 145v6q0 11 -14 11h-71q-15 0 -18 -16l-31 -146q-1 -2 -1 -6q0 -9 13 -9h71q17 0 20 15z" />
<glyph unicode="&#x2039;" horiz-adv-x="267" d="M251 84l-167 173l26 120l239 168l-23 -109l-179 -121l127 -125z" />
<glyph unicode="&#x203a;" horiz-adv-x="267" d="M287 251l-240 -167l24 109l178 120l-126 125l22 107l167 -174z" />
<glyph unicode="&#x2044;" horiz-adv-x="193" d="M-67 0h-80l551 677h80z" />
<glyph unicode="&#x2070;" horiz-adv-x="355" d="M331 349h-161q-49 0 -49 36q0 9 3 23l47 220q6 31 22 45t49 14h161q49 0 49 -38q0 -5 -2 -21l-47 -220q-7 -31 -23.5 -45t-48.5 -14zM323 446l31 145v6q0 11 -14 11h-71q-15 0 -18 -16l-31 -146q-1 -2 -1 -6q0 -9 13 -9h71q17 0 20 15z" />
<glyph unicode="&#x2074;" horiz-adv-x="341" d="M343 349h-81l14 62h-160l14 70l164 206h121l-44 -206h42l-14 -70h-42zM290 481l28 131l-108 -131h80z" />
<glyph unicode="&#x2075;" horiz-adv-x="355" d="M330 349h-158q-49 0 -49 37q0 8 3 20l12 53h86l-5 -23q-1 -3 -1 -6q0 -9 12 -9h71q15 0 18 15l9 45q1 2 1 6q0 8 -11 8h-173l41 192h265l-16 -76h-177l-11 -52h138q39 0 39 -34q0 -9 -1 -14l-22 -103q-7 -31 -23 -45t-48 -14z" />
<glyph unicode="&#x2076;" horiz-adv-x="351" d="M327 349h-157q-49 0 -49 36q0 9 3 23l47 220q6 31 22 45t49 14h155q50 0 50 -38q0 -5 -2 -19l-10 -47h-84l4 19q1 3 1 7q0 9 -13 9h-74q-15 0 -19 -16l-11 -53h141q40 0 40 -33q0 -5 -2 -15l-20 -93q-7 -31 -23 -45t-48 -14zM323 440l8 38v5q0 8 -11 8h-93l-11 -51 q-1 -4 -1 -9q0 -9 12 -9h77q15 0 19 18z" />
<glyph unicode="&#x2077;" horiz-adv-x="305" d="M217 349h-96l187 262h-152l16 76h246l-13 -62z" />
<glyph unicode="&#x2078;" horiz-adv-x="352" d="M328 349h-159q-49 0 -49 37q0 8 3 20l18 81q7 34 49 37q-32 3 -32 30q0 8 1 12l14 64q12 57 72 57h151q50 0 50 -38q0 -5 -2 -19l-14 -64q-8 -39 -46 -42q33 -3 33 -28q0 -6 -1 -9l-18 -81q-7 -30 -23 -43.5t-47 -13.5zM345 560l9 43q1 2 1 7q0 8 -13 8h-71 q-15 0 -19 -15l-9 -43q-1 -2 -1 -5q0 -8 12 -8h73q15 0 18 13zM319 436l10 46v4q0 9 -13 9h-73q-14 0 -17 -13l-10 -46q-1 -2 -1 -6q0 -9 13 -9h73q15 0 18 15z" />
<glyph unicode="&#x2079;" horiz-adv-x="354" d="M329 349h-158q-49 0 -49 37q0 8 3 20l11 51h85l-4 -20q-1 -3 -1 -7q0 -9 15 -9h73q9 0 12.5 3t5.5 13l10 48h-142q-40 0 -40 33q0 3 2 15l21 95q7 31 22 45t48 14h158q49 0 49 -37q0 -6 -2 -22l-47 -220q-7 -31 -23 -45t-49 -14zM344 542l12 55q1 4 1 9q0 9 -12 9h-78 q-15 0 -19 -18l-9 -41q-1 -2 -1 -5q0 -9 12 -9h94z" />
<glyph unicode="&#x2080;" horiz-adv-x="355" d="M255 -10h-161q-49 0 -49 36q0 10 3 23l47 220q6 31 22 45t49 14h161q49 0 49 -38q0 -5 -2 -21l-47 -220q-7 -31 -23.5 -45t-48.5 -14zM247 87l31 145v6q0 11 -14 11h-71q-15 0 -18 -16l-31 -146q-1 -2 -1 -6q0 -9 13 -9h71q17 0 20 15z" />
<glyph unicode="&#x2081;" horiz-adv-x="191" d="M148 -10h-88l56 262h-39l16 76h127z" />
<glyph unicode="&#x2082;" horiz-adv-x="355" d="M312 -10h-274l28 132q8 36 24.5 51t51.5 15h111q14 0 18 15l8 40q1 3 1 8q0 8 -12 8h-73q-16 0 -20 -16l-4 -19h-84l10 47q12 57 72 57h156q49 0 49 -38q0 -5 -2 -21l-19 -90q-12 -55 -66 -55h-118q-14 0 -18 -17l-9 -43h186z" />
<glyph unicode="&#x2083;" horiz-adv-x="346" d="M246 -10h-159q-49 0 -49 37q0 8 3 20l12 53h86l-5 -23q-1 -2 -1 -6q0 -9 13 -9h73q15 0 18 15l10 46v4q0 8 -13 8h-63l12 54h63q16 0 17 13l9 42q1 2 1 7q0 8 -13 8h-71q-15 0 -19 -15l-4 -20h-85l10 47q12 57 72 57h151q50 0 50 -38q0 -5 -2 -19l-14 -64q-8 -39 -46 -42 q33 -3 33 -28q0 -6 -1 -9l-18 -81q-7 -30 -23 -43.5t-47 -13.5z" />
<glyph unicode="&#x2084;" horiz-adv-x="341" d="M267 -10h-81l14 62h-160l14 70l164 206h121l-44 -206h42l-14 -70h-42zM214 122l28 131l-108 -131h80z" />
<glyph unicode="&#x2085;" horiz-adv-x="355" d="M254 -10h-158q-49 0 -49 37q0 8 3 20l12 53h86l-5 -23q-1 -3 -1 -6q0 -9 12 -9h71q15 0 18 15l9 45q1 2 1 6q0 8 -11 8h-173l41 192h265l-16 -76h-177l-11 -52h138q39 0 39 -34q0 -9 -1 -14l-22 -103q-7 -31 -23 -45t-48 -14z" />
<glyph unicode="&#x2086;" horiz-adv-x="351" d="M251 -10h-157q-49 0 -49 36q0 10 3 23l47 220q6 31 22 45t49 14h155q50 0 50 -38q0 -5 -2 -19l-10 -47h-84l4 19q1 3 1 7q0 9 -13 9h-74q-15 0 -19 -16l-11 -53h141q40 0 40 -33q0 -5 -2 -15l-20 -93q-7 -31 -23 -45t-48 -14zM247 81l8 38v5q0 8 -11 8h-93l-11 -51 q-1 -4 -1 -9q0 -9 12 -9h77q15 0 19 18z" />
<glyph unicode="&#x2087;" horiz-adv-x="305" d="M141 -10h-96l187 262h-152l16 76h246l-13 -62z" />
<glyph unicode="&#x2088;" horiz-adv-x="352" d="M252 -10h-159q-49 0 -49 37q0 8 3 20l18 81q7 34 49 37q-32 3 -32 30q0 8 1 12l14 64q12 57 72 57h151q50 0 50 -38q0 -5 -2 -19l-14 -64q-8 -39 -46 -42q33 -3 33 -28q0 -6 -1 -9l-18 -81q-7 -30 -23 -43.5t-47 -13.5zM269 201l9 43q1 2 1 7q0 8 -13 8h-71 q-15 0 -19 -15l-9 -43q-1 -2 -1 -5q0 -8 12 -8h73q15 0 18 13zM243 77l10 46v4q0 9 -13 9h-73q-14 0 -17 -13l-10 -46q-1 -2 -1 -6q0 -9 13 -9h73q15 0 18 15z" />
<glyph unicode="&#x2089;" horiz-adv-x="354" d="M253 -10h-158q-49 0 -49 37q0 8 3 20l11 51h85l-4 -20q-1 -3 -1 -7q0 -9 15 -9h73q9 0 12.5 3t5.5 13l10 48h-142q-40 0 -40 33q0 3 2 15l21 95q7 31 22 45t48 14h158q49 0 49 -37q0 -6 -2 -22l-47 -220q-7 -31 -23 -45t-49 -14zM268 183l12 55q1 4 1 9q0 9 -12 9h-78 q-15 0 -19 -18l-9 -41q-1 -2 -1 -5q0 -9 12 -9h94z" />
<glyph unicode="&#x20ac;" horiz-adv-x="582" d="M535 0h-358q-50 0 -72.5 17.5t-22.5 55.5q0 19 6 45l28 132h-44l25 65h32l12 55h-44l26 65h32l26 124q13 62 44.5 90t94.5 28h368l-68 -130h-264q-19 0 -27 -7.5t-13 -28.5l-16 -76h250l-34 -65h-230l-12 -55h212l-34 -65h-191l-18 -83q-2 -7 -2 -16q0 -19 27 -19h295z " />
<glyph unicode="&#x2122;" horiz-adv-x="777" d="M277 322h-93l58 274h-84l17 81h259l-17 -81h-82zM784 322h-82l39 184l-120 -184h-52l-41 182l-39 -182h-81l75 355h93l47 -227l141 227h95z" />
<glyph unicode="&#x2126;" horiz-adv-x="688" d="M628 0h-257l26 123l109 115q32 34 44 88l37 177q3 12 3 20q0 22 -32 22h-201q-20 0 -29.5 -9t-14.5 -33l-37 -177q-5 -20 -5 -41q0 -27 11 -47l60 -115l-26 -123h-256l26 125h136l-75 104q-24 32 -24 66q0 27 10 71l41 193q13 62 45 90t96 28h345q50 0 72.5 -18t22.5 -56 q0 -16 -5 -44l-41 -193q-12 -56 -25.5 -82t-46.5 -55l-119 -104h136z" />
<glyph unicode="&#x2153;" horiz-adv-x="684" d="M261 349h-88l56 262h-39l16 76h127zM131 0h-80l551 677h80zM577 -10h-159q-49 0 -49 37q0 8 3 20l12 53h86l-5 -23q-1 -2 -1 -6q0 -9 13 -9h73q15 0 18 15l10 46v4q0 8 -13 8h-63l12 54h63q16 0 17 13l9 42q1 2 1 7q0 8 -13 8h-71q-15 0 -19 -15l-4 -20h-85l10 47 q12 57 72 57h151q50 0 50 -38q0 -5 -2 -19l-14 -64q-8 -39 -46 -42q33 -3 33 -28q0 -6 -1 -9l-18 -81q-7 -30 -23 -43.5t-47 -13.5z" />
<glyph unicode="&#x2154;" horiz-adv-x="758" d="M395 349h-274l28 132q8 36 24.5 51t51.5 15h111q14 0 18 15l8 40q1 3 1 8q0 8 -12 8h-73q-16 0 -20 -16l-4 -19h-84l10 47q12 57 72 57h156q49 0 49 -38q0 -5 -2 -21l-19 -90q-12 -55 -66 -55h-118q-14 0 -18 -17l-9 -43h186zM225 0h-80l551 677h80zM651 -10h-159 q-49 0 -49 37q0 8 3 20l12 53h86l-5 -23q-1 -2 -1 -6q0 -9 13 -9h73q15 0 18 15l10 46v4q0 8 -13 8h-63l12 54h63q16 0 17 13l9 42q1 2 1 7q0 8 -13 8h-71q-15 0 -19 -15l-4 -20h-85l10 47q12 57 72 57h151q50 0 50 -38q0 -5 -2 -19l-14 -64q-8 -39 -46 -42q33 -3 33 -28 q0 -6 -1 -9l-18 -81q-7 -30 -23 -43.5t-47 -13.5z" />
<glyph unicode="&#x215b;" horiz-adv-x="680" d="M261 349h-88l56 262h-39l16 76h127zM131 0h-80l551 677h80zM573 -10h-159q-49 0 -49 37q0 8 3 20l18 81q7 34 49 37q-32 3 -32 30q0 8 1 12l14 64q12 57 72 57h151q50 0 50 -38q0 -5 -2 -19l-14 -64q-8 -39 -46 -42q33 -3 33 -28q0 -6 -1 -9l-18 -81q-7 -30 -23 -43.5 t-47 -13.5zM590 201l9 43q1 2 1 7q0 8 -13 8h-71q-15 0 -19 -15l-9 -43q-1 -2 -1 -5q0 -8 12 -8h73q15 0 18 13zM564 77l10 46v4q0 9 -13 9h-73q-14 0 -17 -13l-10 -46q-1 -2 -1 -6q0 -9 13 -9h73q15 0 18 15z" />
<glyph unicode="&#x215c;" horiz-adv-x="753" d="M337 349h-159q-49 0 -49 37q0 8 3 20l12 53h86l-5 -23q-1 -2 -1 -6q0 -9 13 -9h73q15 0 18 15l10 46v4q0 8 -13 8h-63l12 54h63q16 0 17 13l9 42q1 2 1 7q0 8 -13 8h-71q-15 0 -19 -15l-4 -20h-85l10 47q12 57 72 57h151q50 0 50 -38q0 -5 -2 -19l-14 -64q-8 -39 -46 -42 q33 -3 33 -28q0 -6 -1 -9l-18 -81q-7 -30 -23 -43.5t-47 -13.5zM214 0h-80l551 677h80zM646 -10h-159q-49 0 -49 37q0 8 3 20l18 81q7 34 49 37q-32 3 -32 30q0 8 1 12l14 64q12 57 72 57h151q50 0 50 -38q0 -5 -2 -19l-14 -64q-8 -39 -46 -42q33 -3 33 -28q0 -6 -1 -9 l-18 -81q-7 -30 -23 -43.5t-47 -13.5zM663 201l9 43q1 2 1 7q0 8 -13 8h-71q-15 0 -19 -15l-9 -43q-1 -2 -1 -5q0 -8 12 -8h73q15 0 18 13zM637 77l10 46v4q0 9 -13 9h-73q-14 0 -17 -13l-10 -46q-1 -2 -1 -6q0 -9 13 -9h73q15 0 18 15z" />
<glyph unicode="&#x215d;" horiz-adv-x="753" d="M336 349h-158q-49 0 -49 37q0 8 3 20l12 53h86l-5 -23q-1 -3 -1 -6q0 -9 12 -9h71q15 0 18 15l9 45q1 2 1 6q0 8 -11 8h-173l41 192h265l-16 -76h-177l-11 -52h138q39 0 39 -34q0 -9 -1 -14l-22 -103q-7 -31 -23 -45t-48 -14zM214 0h-80l551 677h80zM646 -10h-159 q-49 0 -49 37q0 8 3 20l18 81q7 34 49 37q-32 3 -32 30q0 8 1 12l14 64q12 57 72 57h151q50 0 50 -38q0 -5 -2 -19l-14 -64q-8 -39 -46 -42q33 -3 33 -28q0 -6 -1 -9l-18 -81q-7 -30 -23 -43.5t-47 -13.5zM663 201l9 43q1 2 1 7q0 8 -13 8h-71q-15 0 -19 -15l-9 -43 q-1 -2 -1 -5q0 -8 12 -8h73q15 0 18 13zM637 77l10 46v4q0 9 -13 9h-73q-14 0 -17 -13l-10 -46q-1 -2 -1 -6q0 -9 13 -9h73q15 0 18 15z" />
<glyph unicode="&#x215e;" horiz-adv-x="680" d="M240 349h-96l187 262h-152l16 76h246l-13 -62zM131 0h-80l551 677h80zM573 -10h-159q-49 0 -49 37q0 8 3 20l18 81q7 34 49 37q-32 3 -32 30q0 8 1 12l14 64q12 57 72 57h151q50 0 50 -38q0 -5 -2 -19l-14 -64q-8 -39 -46 -42q33 -3 33 -28q0 -6 -1 -9l-18 -81 q-7 -30 -23 -43.5t-47 -13.5zM590 201l9 43q1 2 1 7q0 8 -13 8h-71q-15 0 -19 -15l-9 -43q-1 -2 -1 -5q0 -8 12 -8h73q15 0 18 13zM564 77l10 46v4q0 9 -13 9h-73q-14 0 -17 -13l-10 -46q-1 -2 -1 -6q0 -9 13 -9h73q15 0 18 15z" />
<glyph unicode="&#x2202;" horiz-adv-x="479" d="M318 584l19 91q25 5 45 5q68 0 110.5 -44.5t42.5 -133.5q0 -48 -11 -98q-18 -87 -44.5 -159t-64 -133t-90 -95t-114.5 -34q-68 0 -105.5 38.5t-37.5 109.5q0 28 8 68q23 110 86 172.5t144 62.5q44 0 77.5 -23t38.5 -75q28 82 28 136t-26 84.5t-74 30.5q-14 0 -32 -3z M388 235q0 57 -21.5 82.5t-74.5 25.5q-47 0 -82.5 -38t-49.5 -107q-5 -25 -5 -41q0 -40 20 -61t55 -21q102 0 158 160z" />
<glyph unicode="&#x2206;" horiz-adv-x="636" d="M619 0h-603l366 677h172zM463 138l-36 368l-200 -368h236z" />
<glyph unicode="&#x220f;" horiz-adv-x="485" d="M381 -233h-94l176 830h-196l-176 -830h-92l192 910h383z" />
<glyph unicode="&#x2211;" horiz-adv-x="438" d="M356 -171h-356l14 64l273 359l-120 360l13 65h356l-20 -94h-231l101 -331l-241 -330h231z" />
<glyph unicode="&#x2212;" horiz-adv-x="633" d="M642 299h-526l21 100h526z" />
<glyph unicode="&#x221a;" horiz-adv-x="492" d="M284 0h-113l-30 292h-57l18 86h143l10 -239l246 538h111z" />
<glyph unicode="&#x221e;" horiz-adv-x="627" d="M371 274q-61 -100 -171 -100q-49 0 -78.5 29.5t-29.5 84.5q0 24 6 52q17 80 65 123.5t108 43.5q103 0 128 -102q67 102 171 102q48 0 78 -30t30 -87q0 -100 -56 -158t-123 -58q-108 0 -128 100zM351 337q-16 90 -83 90q-44 0 -72 -33t-28 -85q0 -58 63 -58q74 0 120 86z M417 337q5 -39 26.5 -62.5t58.5 -23.5q43 0 71.5 30.5t28.5 84.5q0 29 -16.5 45t-46.5 16q-66 0 -122 -90z" />
<glyph unicode="&#x222b;" horiz-adv-x="355" d="M15 -171h-32l19 92h33q61 0 75 65l122 574q33 158 214 158h32l-20 -93h-32q-61 0 -74 -65l-122 -574q-34 -157 -215 -157z" />
<glyph unicode="&#x2248;" horiz-adv-x="630" d="M638 301l-21 -96q-55 -38 -145 -38q-46 0 -117 27.5t-108 27.5q-76 0 -154 -44l20 96q56 39 144 39q45 0 116 -28t111 -28q76 0 154 44zM684 521l-21 -96q-55 -38 -145 -38q-46 0 -117 27.5t-108 27.5q-76 0 -154 -44l20 96q56 39 144 39q45 0 116 -28t111 -28 q76 0 154 44z" />
<glyph unicode="&#x2260;" horiz-adv-x="632" d="M667 424h-170l-122 -150h260l-19 -87h-313l-151 -187h-80l151 187h-129l19 87h182l122 150h-272l18 88h325l135 165h80l-135 -165h117z" />
<glyph unicode="&#x2264;" horiz-adv-x="632" d="M593 76l-475 223l14 64l569 224l-20 -95l-414 -161l346 -161zM571 -38h-526l21 100h526z" />
<glyph unicode="&#x2265;" horiz-adv-x="632" d="M640 299l-569 -223l20 94l414 161l-346 161l20 95l475 -224zM571 -38h-526l21 100h526z" />
<glyph unicode="&#x22c5;" horiz-adv-x="239" d="M235 244h-128l32 151h128z" />
<glyph unicode="&#x25ca;" horiz-adv-x="535" d="M329 0h-118l-107 338l250 339h118l98 -339zM296 130l146 208l-57 209l-149 -209z" />
<glyph unicode="&#x25fc;" horiz-adv-x="505" d="M0 505h505v-505h-505v505z" />
<glyph unicode="&#xf8ff;" horiz-adv-x="276" />
<glyph unicode="&#xfb01;" horiz-adv-x="600" d="M193 0h-140l127 602q14 63 42 89.5t78 26.5h174l-23 -109h-105q-25 0 -30 -26l-16 -77h125l-23 -110h-125zM543 0h-140l107 506h140zM664 566h-141l32 152h141z" />
<glyph unicode="&#xfb02;" horiz-adv-x="595" d="M193 0h-140l127 602q14 63 42 89.5t78 26.5h174l-23 -109h-105q-25 0 -30 -26l-16 -77h125l-23 -110h-125zM541 0h-140l152 718h140z" />
<glyph horiz-adv-x="168" />
</font>
</defs>
</svg>
