<?xml version="1.0" standalone="no"?>
<!DOCTYPE svg PUBLIC "-//W3C//DTD SVG 1.1//EN" "http://www.w3.org/Graphics/SVG/1.1/DTD/svg11.dtd" >
<svg xmlns="http://www.w3.org/2000/svg">
<metadata></metadata>
<defs>
<font id="josefin_slabbold_italic" horiz-adv-x="547" >
<font-face units-per-em="1000" ascent="750" descent="-250" />
<missing-glyph horiz-adv-x="300" />
<glyph unicode="&#xd;" horiz-adv-x="300" />
<glyph unicode=" "  horiz-adv-x="300" />
<glyph unicode="&#x09;" horiz-adv-x="300" />
<glyph unicode="&#xa0;" horiz-adv-x="300" />
<glyph unicode="!" horiz-adv-x="201" d="M47 0q-20 0 -33.5 15t-11.5 38q3 23 21.5 37.5t38.5 14.5q19 0 32.5 -14.5t10.5 -37.5t-21 -38t-37 -15v0zM110 750h83l-82 -584h-83z" />
<glyph unicode="&#x22;" horiz-adv-x="335" d="M178 472l35 248h83q-10 -63 -19.5 -124t-19.5 -124h-79zM45 472l35 248h83q-10 -63 -19.5 -124t-19.5 -124h-79z" />
<glyph unicode="#" horiz-adv-x="571" d="M229 371q-6 -26 -12.5 -51t-13.5 -51h100q7 26 13.5 51t12.5 51h-100zM233 0q12 48 24.5 94t24.5 94h-100q-12 -48 -24.5 -94t-24.5 -94h-84q12 48 24.5 94t24.5 94h-92l21 81h92q7 26 13.5 51t12.5 51h-91q5 20 10 40.5t10 40.5h92q13 48 25.5 95.5t25.5 95.5h84 q-13 -48 -25.5 -95.5t-25.5 -95.5h100q13 48 25.5 95.5t25.5 95.5h84q-13 -48 -25.5 -95.5t-25.5 -95.5h102q-5 -20 -10 -40.5t-10 -40.5h-103q-6 -26 -12.5 -51t-13.5 -51h102l-21 -81h-102q-12 -48 -24.5 -94t-24.5 -94h-84z" />
<glyph unicode="$" horiz-adv-x="567" d="M372 546l9 59q-13 6 -28 11t-34 7l-31 -225q31 -11 60.5 -25t51.5 -37t32.5 -59t3.5 -90q-6 -41 -24.5 -74.5t-46 -58.5t-62.5 -40.5t-72 -19.5l-9 -62h-84l9 65q-59 9 -102 36t-59 60l15 116h79l-13 -89q18 -15 40 -27t51 -18l38 268q-27 9 -52 21t-42.5 31.5t-26 48.5 t-3.5 73q3 28 15 57.5t33 55t52.5 44t73.5 26.5l9 64h84l-9 -62q32 -3 67 -15t68 -43l-14 -98h-79zM353 188q4 28 -0.5 48.5t-15 35.5t-26.5 25.5t-35 18.5l-34 -241q42 9 73 37t38 76zM155 514q-5 -34 10.5 -53.5t42.5 -33.5l26 189q-35 -13 -54.5 -40.5t-24.5 -61.5z" />
<glyph unicode="%" horiz-adv-x="726" d="M458 111q-3 -20 7.5 -33t30.5 -13t33.5 13t16.5 33t-7.5 32.5t-30.5 12.5t-33.5 -12.5t-16.5 -32.5zM484 -16q-26 0 -48 10t-37 27t-22 40t-3 50q4 26 17.5 49t33 40t44.5 27t51 10t48 -10t37 -27t22 -40t3 -49q-4 -27 -17.5 -50t-33.5 -40t-44.5 -27t-50.5 -10zM193 389 q-3 -20 7.5 -33t30.5 -13t33.5 13t16.5 33t-7.5 32.5t-30.5 12.5t-33.5 -12.5t-16.5 -32.5zM219 262q-26 0 -48 10t-37 27t-22 40t-3 50q4 26 17.5 49t33 40t44.5 27t51 10t48 -10t37 -27t22 -40t3 -49q-4 -27 -17.5 -50t-33.5 -40t-44.5 -27t-50.5 -10zM138 0 q93 126 184.5 250t184.5 250h91q-93 -126 -184.5 -250t-184.5 -250h-91z" />
<glyph unicode="&#x26;" horiz-adv-x="700" d="M421 375h179l-11 -81h-95l-6 -40q-1 -8 -2.5 -20.5t-3.5 -28t-5.5 -31.5t-8.5 -29l58 -121l-71 -43l-39 82q-32 -33 -75 -52.5t-91 -19.5q-42 0 -76 15.5t-57.5 42.5t-34 62.5t-4.5 76.5q5 36 21.5 68t42 57.5t57.5 43t67 23.5l-54 116q-14 30 -16.5 62t6.5 62.5t31.5 58 t58.5 47.5q31 17 60.5 20.5t56.5 -2t50.5 -16.5t40.5 -23l-42 -65q-9 6 -23.5 13.5t-31 11.5t-33.5 4t-32 -9q-45 -26 -55 -66t9 -79l115 -242v3zM161 188q-7 -49 21 -82.5t80 -33.5q38 0 69 19t48 50l-76 162q-56 0 -95 -30.5t-47 -84.5z" />
<glyph unicode="'" horiz-adv-x="163" d="M24 472l35 248h84q-10 -63 -19.5 -124t-19.5 -124h-80z" />
<glyph unicode="(" horiz-adv-x="424" d="M115 291q10 75 33.5 143t55 126t67.5 105.5t72 80.5q17 -6 35 -11.5t35 -11.5q-33 -33 -67 -78t-63.5 -100t-51.5 -119t-32 -135t-6 -135t18 -119t35.5 -100t45.5 -78q-19 -6 -38 -11.5t-38 -11.5q-27 33 -50 80.5t-38 105.5t-19.5 126t6.5 143z" />
<glyph unicode=")" horiz-adv-x="400" d="M312 288q-11 -75 -34.5 -143t-55 -126t-67.5 -105.5t-72 -80.5q-17 5 -35 10.5t-35 10.5q33 33 67 78t63.5 100t51.5 119t32 135t6 135t-18 119t-35.5 100t-45.5 78q19 6 38 12.5t38 12.5q27 -33 50 -80.5t38 -105.5t19.5 -126t-5.5 -143z" />
<glyph unicode="*" horiz-adv-x="335" d="M249 575q15 -9 29.5 -18t28.5 -18q-13 -18 -26 -36.5t-26 -36.5q-14 9 -28.5 18.5t-28.5 18.5q-2 -17 -5 -34.5t-6 -34.5h-80l10 70q-16 -9 -32.5 -17.5t-33.5 -17.5q-8 18 -15.5 36.5t-15.5 36.5q17 8 33 17t33 17q-14 9 -27.5 18.5t-27.5 18.5l48 69q15 -9 29.5 -18.5 t28.5 -18.5l11 75h84l-12 -75l69 36q8 -17 15.5 -34.5t14.5 -34.5q-17 -9 -34.5 -18.5t-35.5 -18.5z" />
<glyph unicode="+" horiz-adv-x="543" d="M198 51l20 139h-138l11 81h138l20 140h84l-20 -140h138l-11 -81h-138l-20 -139h-84z" />
<glyph unicode="," horiz-adv-x="200" d="M177 86q-29 -52 -57.5 -103t-57.5 -103h-74q26 52 52 103t53 103h84z" />
<glyph unicode="-" horiz-adv-x="300" d="M47 147l11 81h184l-11 -81h-184z" />
<glyph unicode="." horiz-adv-x="163" d="M32 52q4 23 22 38t38 15q19 0 33 -15t10 -38q-3 -23 -21 -37.5t-37 -14.5q-20 0 -34 14.5t-11 37.5z" />
<glyph unicode="/" horiz-adv-x="380" d="M-36 -19q97 190 192 377.5t192 377.5h84q-97 -190 -192.5 -377.5t-192.5 -377.5h-83z" />
<glyph unicode="0" horiz-adv-x="616" d="M37 327q11 76 40.5 137.5t72 104.5t95 66t108.5 23t101.5 -24t75.5 -67.5t41.5 -105.5t0.5 -138t-42.5 -137t-75.5 -104.5t-95.5 -66.5t-102.5 -23t-96 24t-76 68t-44.5 105.5t-2.5 137.5zM121 326q-8 -53 0 -99t28 -80t50 -54t68 -20q37 0 73.5 19t67 53t51.5 80t29 99 q6 36 3 80t-19 82.5t-47.5 64.5t-82.5 26t-90 -25.5t-66.5 -63.5t-43.5 -82t-21 -80z" />
<glyph unicode="1" horiz-adv-x="290" d="M-11 79h78l69 490h-68l11 81h152l-80 -571h79l-11 -79h-241z" />
<glyph unicode="2" horiz-adv-x="519" d="M218 81h164l13 93h79l-25 -174h-443q70 62 136.5 120.5t119 113t87 106t41.5 98.5q5 37 -3.5 63t-24.5 43t-36.5 25t-38.5 8q-38 0 -64 -13t-42.5 -32t-25 -40t-10.5 -37q-9 -64 25 -104l-58 -51q-15 11 -26 29.5t-17.5 40t-8.5 44t1 41.5q6 40 24.5 77t49.5 65t72 44.5 t92 16.5q46 0 81.5 -17t58.5 -45.5t33 -66t4 -79.5q-7 -50 -31 -96.5t-59 -92.5t-78.5 -90.5t-89.5 -89.5z" />
<glyph unicode="3" horiz-adv-x="515" d="M154 326l173 242h-111l-6 -47h-79l18 129h329l-177 -238q31 -12 55.5 -31.5t41 -45.5t23 -58t1.5 -68q-6 -45 -29.5 -84.5t-57.5 -69t-76 -46.5t-87 -17q-48 0 -86 19.5t-64 51.5l69 57q15 -22 39 -34.5t54 -12.5q28 0 54 11t47 29.5t35.5 43t18.5 52.5t-3.5 52.5 t-23.5 42.5t-39 28.5t-51 10.5q-36 0 -68 -17z" />
<glyph unicode="4" horiz-adv-x="529" d="M208 79h75l15 104h-282l433 475l-56 -394h97l-11 -81h-97l-15 -104h83l-11 -79h-242zM330 413l-135 -149h114z" />
<glyph unicode="5" horiz-adv-x="543" d="M476 650l-18 -129h-79l6 48h-124l-20 -147q6 1 12.5 1.5t13.5 0.5q45 0 82.5 -16.5t63 -46t37.5 -68.5t6 -84t-29.5 -84.5t-57.5 -69t-76 -46.5t-87 -17q-44 0 -80 16t-61 45l69 56q15 -17 36.5 -26.5t47.5 -9.5q28 0 54 11t47 29.5t35.5 43t18.5 52.5t-3.5 52.5 t-23.5 42.5t-39 28.5t-51 10.5q-35 0 -65.5 -11.5t-52.5 -39.5l51 358h287z" />
<glyph unicode="6" horiz-adv-x="520" d="M119 209q-4 -28 2.5 -52.5t22 -43t38 -29.5t49.5 -11q28 0 54 11t47 29.5t35.5 43t18.5 52.5t-3.5 52.5t-23.5 42.5t-39 28.5t-51 10.5q-27 0 -52.5 -10.5t-46 -28.5t-34 -42.5t-17.5 -52.5zM31 197q10 72 49.5 134.5t95 116.5t121 101t127.5 88q11 -16 21.5 -32 t21.5 -32q-71 -43 -121.5 -80.5t-86.5 -69.5q5 0 10.5 0.5t10.5 0.5q45 0 82.5 -16.5t63 -46t37.5 -68.5t6 -84t-29.5 -84.5t-57.5 -69t-76 -46.5t-87 -17q-43 0 -79.5 16t-62 43.5t-38 65t-8.5 80.5z" />
<glyph unicode="7" horiz-adv-x="469" d="M472 650l-383 -650h-94l336 568h-204l-7 -47h-79l18 129h413z" />
<glyph unicode="8" horiz-adv-x="510" d="M204 498q-5 -32 14 -53t50 -21q32 0 56.5 21t29.5 53t-13.5 55.5t-50.5 23.5q-15 0 -29.5 -6.5t-26.5 -17.5t-20 -25t-10 -30zM105 209q-4 -28 3 -52.5t22 -43t37.5 -29.5t49.5 -11q28 0 54 11t47.5 29.5t35.5 43t18 52.5q4 27 -3 51t-22 42t-37.5 29t-49.5 12 q-29 0 -55.5 -10.5t-47 -28.5t-34.5 -42.5t-18 -52.5zM19 209q8 58 42.5 105.5t85.5 76.5q-17 20 -25 47.5t-3 59.5q4 33 20.5 62t41 51t55 34.5t63.5 12.5t60.5 -12.5t46 -34.5t27 -51t4.5 -62q-5 -32 -20.5 -59.5t-38.5 -47.5q42 -29 63.5 -76.5t13.5 -105.5 q-6 -45 -29 -84.5t-57 -69t-76 -46.5t-87 -17t-82 17t-62.5 46.5t-37 69t-5.5 84.5z" />
<glyph unicode="9" horiz-adv-x="525" d="M390 419q4 28 -2.5 52.5t-22 43t-38 29.5t-49.5 11q-28 0 -54 -11t-47 -29.5t-35.5 -43t-18.5 -52.5t3.5 -52.5t23.5 -42.5t39 -28.5t51 -10.5q27 0 52.5 10.5t46 28.5t34 42.5t17.5 52.5zM476 419q-9 -68 -49 -129t-96.5 -114.5t-121.5 -99.5t-124 -85q-11 16 -21.5 32 t-21.5 32q71 43 121.5 80.5t86.5 69.5q-5 -1 -10.5 -1h-10.5q-45 0 -82.5 16.5t-63 46t-37.5 68.5t-6 84t29.5 84.5t57.5 69t76 46.5t87 17t82 -17.5t62 -47t36.5 -69t5.5 -83.5z" />
<glyph unicode=":" horiz-adv-x="175" d="M50 302q3 23 21 38t38 15q19 0 33 -15t11 -38t-21 -37.5t-37 -14.5q-20 0 -34 14.5t-11 37.5zM15 52q3 23 21 38t38 15q19 0 33 -15t11 -38t-21 -37.5t-37 -14.5q-20 0 -34 14.5t-11 37.5z" />
<glyph unicode=";" horiz-adv-x="201" d="M89 302q4 23 22 38t38 15q19 0 33 -15t10 -38q-3 -23 -21 -37.5t-37 -14.5q-20 0 -34 14.5t-11 37.5zM144 86q-29 -52 -57.5 -103t-57.5 -103h-74q27 52 52.5 103t52.5 103h84z" />
<glyph unicode="&#x3c;" horiz-adv-x="680" d="M533 99l-16 -113q-101 63 -200.5 126t-200.5 126q118 63 235.5 126t236.5 126l-16 -113q-65 -35 -130 -69.5t-130 -69.5q55 -35 110 -69.5t111 -69.5z" />
<glyph unicode="=" horiz-adv-x="708" d="M598 193l-12 -81h-506l12 81h506zM625 387l-12 -81h-506l12 81h506z" />
<glyph unicode="&#x3e;" horiz-adv-x="650" d="M80 -14l16 113q65 35 130 69.5t131 69.5q-56 35 -111 69.5t-111 69.5l16 113q101 -63 200.5 -126t201.5 -126q-119 -63 -236.5 -126t-236.5 -126z" />
<glyph unicode="?" horiz-adv-x="452" d="M140 552q-17 7 -35 13.5t-35 13.5q10 22 27 48.5t43.5 49.5t63.5 39t88 16q41 0 75 -15.5t56.5 -42t33 -62t4.5 -75.5q-8 -56 -40 -97.5t-83 -75.5q-15 -10 -32.5 -20.5t-33.5 -24t-27.5 -32t-15.5 -45.5l-11 -78h-84l14 97q4 32 17.5 52t32 35.5t42 29t48.5 31.5 q40 27 61.5 59t26.5 69q7 49 -19 81.5t-76 32.5q-56 0 -87.5 -25t-53.5 -74zM152 0q-20 0 -34 14.5t-11 37.5q4 23 22 38t38 15q19 0 33 -15t10 -38q-3 -23 -21 -37.5t-37 -14.5z" />
<glyph unicode="@" horiz-adv-x="990" d="M367 188q-7 -49 21 -82.5t80 -33.5q26 0 48.5 9t40.5 24.5t29.5 37t14.5 45.5q8 50 -20 82.5t-80 32.5q-26 0 -48.5 -8.5t-40.5 -24t-29.5 -36.5t-15.5 -46zM909 188q-11 -53 -36.5 -88.5t-56.5 -58t-64.5 -32t-60.5 -9.5h-106l3 20q1 5 1.5 10t1.5 10q-2 -3 -12 -11 t-27.5 -16t-41.5 -15t-53 -7q-42 0 -77 15.5t-58 42.5t-34 62.5t-5 75.5q6 39 26.5 74.5t51.5 62.5t70 42.5t81 15.5q26 0 47.5 -7t37 -16.5t24.5 -18.5t10 -12q2 11 5.5 23t5.5 24h69l-42 -294h33q20 0 40 5.5t36.5 18t28.5 33t18 50.5q10 71 -7.5 133t-57 108.5t-97 73 t-127.5 26.5q-71 0 -136.5 -26.5t-118 -73t-88 -108.5t-45.5 -133t8 -132.5t58 -107.5t98 -72.5t129 -26.5q59 0 114 17.5t104 48.5q11 -15 21 -29.5t21 -29.5q-28 -22 -61.5 -38.5t-69.5 -27.5t-72 -16.5t-69 -5.5q-88 0 -160.5 33t-122 90t-71.5 134t-10 164t56 164 t109.5 134t147.5 90t170 33q87 0 159 -33t121 -90t71 -134t10 -165z" />
<glyph unicode="A" horiz-adv-x="788" d="M46 79h82q92 165 184 326.5t184 326.5q47 -165 93 -326.5t93 -326.5h82l-11 -79h-222l11 79h56q-14 50 -28 99t-28 99h-220l-111 -198h57l-11 -79h-222zM475 515l-5 33l-3.5 -7t-4.5 -11q-4 -7 -7 -15q-16 -29 -32 -57q-14 -24 -28.5 -52t-26.5 -50h152z" />
<glyph unicode="B" horiz-adv-x="542" d="M46 79h45l76 542h-45l11 79h228q49 0 88 -10t65 -31t37 -54.5t4 -79.5q-8 -62 -44 -109t-99 -64q28 -6 52 -20t40.5 -36t24.5 -51t3 -65q-6 -45 -30 -78.5t-58.5 -56t-77 -34t-85.5 -11.5h-246zM206 313l-32 -234h111q31 0 59 7t50.5 21.5t37.5 35.5t19 50q4 31 -6.5 54 t-31.5 37.5t-50 21.5t-60 7h-97zM250 621l-32 -229h108q59 0 97.5 33t46.5 87q8 59 -24 84t-90 25h-106z" />
<glyph unicode="C" horiz-adv-x="610" d="M573 546l9 61q-47 22 -101 22q-57 0 -110 -22t-95.5 -60.5t-71 -89.5t-36.5 -108t6.5 -108t46.5 -88.5t78.5 -59.5t103.5 -22q73 0 142 37l36 -66q-44 -23 -91 -36.5t-98 -13.5q-74 0 -135 28t-103 76.5t-61 113.5t-8 139q10 74 47.5 139.5t92.5 114t124 77t143 28.5 q51 0 95 -13t81 -37l-16 -112h-79z" />
<glyph unicode="D" horiz-adv-x="632" d="M46 80h47l76 541h-47l11 79h210q72 0 132.5 -24.5t102 -70.5t60.5 -110.5t8 -145.5q-9 -59 -38 -121t-82 -112.5t-131 -83t-184 -32.5h-176zM252 621l-76 -541h70q59 0 112.5 19t96 54.5t71 85t37.5 111.5t-5.5 112t-47.5 85.5t-81 54.5t-107 19h-70z" />
<glyph unicode="E" horiz-adv-x="571" d="M46 79h56l76 542h-56l11 79h487l-22 -154h-79l11 75h-269l-32 -229h309l-12 -79h-309l-32 -234h283l10 75h79l-21 -154h-501z" />
<glyph unicode="F" horiz-adv-x="557" d="M46 79h56l76 542h-56l11 79h487l-22 -154h-79l11 75h-269l-32 -229h309l-12 -79h-309l-32 -234h103l-11 -79h-242z" />
<glyph unicode="G" horiz-adv-x="609" d="M565 298l-36 -258q-43 -23 -90 -36.5t-98 -13.5q-74 0 -135 28t-103 76.5t-61 113.5t-9 139t47.5 139.5t93 114t124.5 77t143 28.5q51 0 94.5 -13t81.5 -37l-56 -67q-28 18 -60.5 28t-70.5 10q-57 0 -110 -22t-95.5 -60.5t-71.5 -89.5t-37 -108t6.5 -108t46.5 -88.5 t78.5 -59.5t103.5 -22q52 0 102 18l18 132h-103l11 79h186z" />
<glyph unicode="H" horiz-adv-x="772" d="M593 700h242l-11 -79h-79l-76 -542h79l-11 -79h-242l11 79h80l32 234h-378l-32 -234h80l-11 -79h-242l11 79h79l76 542h-79l11 79h242l-11 -79h-80l-32 -229h378l32 229h-80z" />
<glyph unicode="I" horiz-adv-x="312" d="M46 79h79l76 542h-79l11 79h242l-11 -79h-80l-76 -542h80l-11 -79h-242z" />
<glyph unicode="J" horiz-adv-x="311" d="M93 700h241l-86 -610q-8 -56 -32.5 -99t-60.5 -72.5t-82 -45.5t-97 -17l10 79q34 2 64.5 13t54.5 31t39.5 48.5t20.5 65.5l75 528h-158z" />
<glyph unicode="K" horiz-adv-x="686" d="M440 79h52q-47 71 -93 141.5t-91 142.5l-71 -59q-8 -57 -15.5 -112.5t-15.5 -112.5h82l-11 -79h-242l11 79h77l76 542h-77l11 79h222l-11 -79h-62l-28 -195q-2 -8 -3.5 -16t-3.5 -16l22 23l243 204h-37l11 79h222l-11 -79h-83l-244 -205q55 -85 109.5 -168.5 t110.5 -168.5h72l-11 -79h-222z" />
<glyph unicode="L" horiz-adv-x="571" d="M46 79h56l76 542h-56l11 79h222l-11 -79h-83l-76 -542h283l10 75h79l-21 -154h-501z" />
<glyph unicode="M" horiz-adv-x="976" d="M927 700h112l-11 -79h-87l-76 -542h87l-11 -79h-242l11 79h72l55 391q2 8 3.5 16t3.5 16q-9 -11 -18.5 -23t-19.5 -23q-72 -85 -149 -166.5t-152 -164.5l-219 350l-14 27q0 -8 -0.5 -16t-0.5 -16l-55 -391h72l-11 -79h-242l11 79h87l76 542h-87l11 79h112 q70 -111 139 -221.5t140 -221.5q101 111 201 221.5t202 221.5z" />
<glyph unicode="N" horiz-adv-x="855" d="M50 79h87l76 542h-87l11 79h116l410 -523l15 -26l2 32l61 438h-72l11 79h242l-11 -79h-87l-91 -653l-436 544l-15 26l-2 -32l-60 -427h72l-11 -79h-242z" />
<glyph unicode="O" horiz-adv-x="786" d="M85 349q10 73 47 138.5t92.5 114.5t124.5 77.5t143 28.5q73 0 134.5 -28.5t103.5 -77.5t61.5 -114.5t9.5 -138.5q-11 -74 -48.5 -139t-93 -113.5t-125 -76.5t-142.5 -28q-74 0 -135 28t-103 76.5t-61 113.5t-8 139zM168 349q-8 -58 6.5 -108.5t46.5 -88t79 -59.5t104 -22 t110 22t95.5 59.5t71.5 88t37 108.5t-6.5 108.5t-47 88.5t-79 60t-103.5 22t-110 -22t-96 -60t-71.5 -88.5t-36.5 -108.5z" />
<glyph unicode="P" horiz-adv-x="517" d="M46 79h45l76 542h-45l11 79h210q34 0 74 -10.5t72.5 -33.5t51.5 -59t12 -87q-13 -91 -74.5 -144.5t-163.5 -53.5h-109l-32 -233h114l-11 -79h-242zM218 392h87q44 0 74 11.5t49.5 28.5t29 38t12.5 40q3 22 -5.5 42t-26 35.5t-43.5 24.5t-57 9h-88z" />
<glyph unicode="Q" horiz-adv-x="808" d="M168 349q-8 -57 6.5 -108t46.5 -88.5t78.5 -59.5t103.5 -22t110 22t96 59.5t72 88.5t37 108t-7 108t-47 89.5t-79 60.5t-104 22t-110 -22t-95.5 -60.5t-71 -89.5t-36.5 -108zM85 349q10 74 47.5 139.5t92.5 114t124 77t143 28.5t135.5 -28.5t103.5 -77t61 -114t9 -139.5 q-12 -81 -55.5 -151t-107.5 -119h147l-11 -79h-307q-40 -8 -75 -8q-74 0 -135 28t-103 76.5t-61 113.5t-8 139z" />
<glyph unicode="R" horiz-adv-x="576" d="M46 79h45l76 542h-45l11 79h210q34 0 74 -10.5t72.5 -33.5t51.5 -59t12 -87q-11 -75 -55.5 -125.5t-118.5 -66.5l79 -239h94l-11 -79h-146l-104 312h-43h-42l-32 -233h114l-11 -79h-242zM218 392h87q44 0 74 11.5t49.5 28.5t29 38t12.5 40q3 22 -5.5 42t-26 35.5 t-43.5 24.5t-57 9h-88z" />
<glyph unicode="S" horiz-adv-x="478" d="M35 93l16 116h79l-13 -89q24 -20 58 -34.5t79 -14.5q26 0 51 7.5t45.5 22t34.5 36.5t18 51q6 39 -4.5 64t-31 41t-48.5 26t-57 19.5t-57 21t-48 31t-30.5 49.5t-4.5 77q4 33 18.5 66t41.5 60t67.5 44t95.5 17q18 0 38.5 -2t42.5 -8t45 -18t44 -32l-14 -98h-79l9 59 q-18 8 -42.5 14t-54.5 6q-58 0 -90.5 -33t-38.5 -78q-4 -30 7.5 -48.5t32.5 -31t49 -21.5t57.5 -19.5t56.5 -25t47 -38t29 -58t2 -85.5q-6 -45 -28 -81t-53.5 -61.5t-71.5 -39t-82 -13.5q-38 0 -72.5 8.5t-63 22.5t-49.5 32t-31 38z" />
<glyph unicode="T" horiz-adv-x="623" d="M196 79h86l76 542h-157l-11 -75h-79l22 154h553l-22 -154h-79l11 75h-155l-76 -542h73l-11 -79h-242z" />
<glyph unicode="U" horiz-adv-x="729" d="M134 700h242l-11 -79h-82l-55 -392q-11 -77 30.5 -117.5t116.5 -40.5q37 0 69.5 10.5t58 30.5t42 49.5t22.5 67.5l55 392h-82l11 79h242l-11 -79h-77l-56 -395q-8 -57 -33.5 -101t-63.5 -73.5t-86 -44.5t-102 -15t-98 15t-74 44.5t-43 73.5t-5 101l56 395h-77z" />
<glyph unicode="V" horiz-adv-x="810" d="M137 700h242l-11 -79h-72q32 -109 62 -218t62 -218l4 -33l14 33q62 109 123 217.5t122 218.5h-59l11 79h242l-11 -79h-99q-92 -165 -184 -326.5t-184 -326.5q-47 165 -93 326.5t-93 326.5h-87z" />
<glyph unicode="W" horiz-adv-x="1178" d="M137 700h242l-11 -79h-72q32 -109 62 -218t62 -218l4 -33q18 45 42 89.5t50 89t52.5 88.5t50.5 87q-8 29 -16.5 57.5t-16.5 57.5h-92l11 79h242l-11 -79h-67q32 -109 62 -218t62 -218l4 -33l14 33q62 109 123 217.5t122 218.5h-64l11 79h242l-11 -79h-94 q-92 -165 -184 -326.5t-184 -326.5l-119 417l-5 35q-22 -56 -52 -113.5t-64 -114.5t-68.5 -113.5t-64.5 -110.5q-47 165 -93 326.5t-93 326.5h-87z" />
<glyph unicode="X" horiz-adv-x="694" d="M133 700h242l-11 -79h-55q22 -44 44 -86.5t44 -85.5l9 -27l17 27l136 172h-55l11 79h242l-11 -79h-86q-54 -68 -106.5 -135.5t-106.5 -134.5q35 -69 70 -136t70 -136h83l-11 -79h-242l11 79h55l-91 179q-3 7 -5.5 14t-4.5 14l-17 -28q-36 -45 -71 -89.5t-70 -89.5h64 l-11 -79h-242l11 79h75l221 278l-135 264h-85z" />
<glyph unicode="Y" horiz-adv-x="789" d="M288 79h67l26 191q-40 88 -79.5 175.5t-78.5 175.5h-101l11 79h242l-11 -79h-40q28 -61 55.5 -122t55.5 -122l7 -31h1l16 31l179 244h-39l11 79h242l-11 -79h-101q-65 -88 -128.5 -176t-128.5 -176l-26 -190h73l-11 -79h-242z" />
<glyph unicode="Z" horiz-adv-x="629" d="M628 242l-34 -242h-559l11 80l504 541h-412l16 114h83l-5 -35h431l-11 -79l-504 -541h378l23 162h79z" />
<glyph unicode="[" horiz-adv-x="338" d="M20 -149l125 895h192l-11 -81h-109l-103 -733h109l-11 -81h-192z" />
<glyph unicode="\" horiz-adv-x="385" d="M147 736q43 -190 85.5 -377.5t85.5 -377.5h-94q-43 190 -85.5 377.5t-85.5 377.5h94z" />
<glyph unicode="]" horiz-adv-x="342" d="M313 746l-125 -895h-191l10 81h109l103 733h-109l11 81h192z" />
<glyph unicode="^" horiz-adv-x="470" d="M244 660q24 -45 47.5 -90.5t47.5 -90.5h-59l-51 72q-17 -18 -35.5 -36t-35.5 -36h-59q36 45 72.5 90.5t72.5 90.5z" />
<glyph unicode="_" horiz-adv-x="600" d="M494 0h-400l11 81h400z" />
<glyph unicode="`" horiz-adv-x="200" d="M51 612q14 -33 26 -66.5t26 -66.5h-59q-20 33 -37.5 66.5t-37.5 66.5h82z" />
<glyph unicode="a" d="M62 187q6 39 26.5 75t51.5 63t70 43t81 16q27 0 48.5 -8t37.5 -17.5t24.5 -18.5t8.5 -12q2 11 5 23t5 24h69l-41 -296h76l-11 -79h-149l3 20q1 5 1 10t1 10q-2 -3 -12 -11t-27 -16.5t-41 -15t-53 -6.5q-42 0 -77 15.5t-58 42.5t-34 62.5t-5 75.5zM146 188 q-7 -49 21 -82.5t80 -33.5q26 0 48.5 9t40.5 24.5t29.5 37t14.5 45.5q7 50 -21 82.5t-80 32.5q-26 0 -48.5 -8.5t-40.5 -24t-29.5 -36.5t-14.5 -46z" />
<glyph unicode="b" d="M47 79h76l83 592h-66l11 79h149l-54 -388q-4 -8 -7.5 -15.5t-7.5 -15.5q2 3 14 12t30 18t41.5 16t49.5 7q42 0 76.5 -15.5t58 -42.5t34 -62.5t4.5 -75.5t-26.5 -76t-51 -63t-69.5 -42.5t-81 -15.5q-29 0 -51.5 6.5t-37.5 15t-23 16.5t-9 11q-1 -5 -1 -10t-1 -10l-3 -20 h-149zM455 188q7 50 -21 82.5t-80 32.5q-26 0 -48.5 -8.5t-40.5 -24t-29.5 -36.5t-14.5 -46q-7 -49 21 -82.5t80 -33.5q26 0 48.5 9t40.5 24.5t29.5 37t14.5 45.5z" />
<glyph unicode="c" horiz-adv-x="397" d="M366 34q-29 -20 -62 -31.5t-69 -11.5q-42 0 -76 15.5t-57.5 42.5t-34.5 62.5t-5 76.5q6 40 26.5 76t51.5 62.5t69.5 42t80.5 15.5q37 0 67.5 -11.5t53.5 -31.5l-17 -116h-74l10 67q-24 11 -52 11q-26 0 -48.5 -8.5t-40.5 -24t-29.5 -36.5t-14.5 -46q-7 -49 21 -82.5 t80 -33.5q44 0 78 25z" />
<glyph unicode="d" d="M367 20q1 5 1 10t1 10q-2 -3 -12 -11t-27 -16.5t-41 -15t-53 -6.5q-42 0 -77 15.5t-58 42.5t-34 63t-5 76t26.5 75.5t51.5 62.5t70 42.5t81 15.5q25 0 46.5 -7t37.5 -16t25 -18t10 -12q-1 8 -2.5 15.5t-2.5 15.5l43 309h-66l11 79h149l-94 -671h76l-11 -79h-149zM146 188 q-7 -49 21 -82.5t80 -33.5q26 0 48.5 9t40.5 24.5t29.5 37t14.5 45.5q7 50 -21 82.5t-80 32.5q-26 0 -48.5 -8.5t-40.5 -24t-29.5 -36.5t-14.5 -46z" />
<glyph unicode="e" horiz-adv-x="450" d="M278 303q-51 0 -87 -30.5t-45 -76.5q50 17 99 34.5t98 34.5q-11 17 -27.5 27.5t-37.5 10.5zM442 218l-142 -50t-143 -50q12 -21 35 -33.5t54 -12.5q23 0 43.5 8.5t36.5 23.5q11 -15 21.5 -30t21.5 -30q-29 -25 -62.5 -39t-71.5 -14q-42 0 -76 15.5t-57.5 42.5t-34.5 62.5 t-5 76.5q6 40 26.5 76t51.5 62.5t69.5 42t80.5 15.5q31 0 57.5 -12.5t46 -34.5t32 -52.5t16.5 -66.5z" />
<glyph unicode="f" horiz-adv-x="336" d="M46 79h61l30 215h-61l11 81h60l20 142q8 56 32.5 99t61 72.5t82.5 45t98 17.5l-11 -79q-70 -4 -119.5 -44t-60.5 -114l-20 -139h118l-11 -81h-118l-30 -215h79l-11 -79h-222z" />
<glyph unicode="g" d="M454 375h145l-11 -79h-76l-50 -356q-6 -40 -26 -74.5t-50.5 -60t-68.5 -40.5t-80 -15q-45 0 -84.5 19.5t-66.5 40.5l64 68q18 -15 43 -28.5t54 -13.5q26 0 49 9t40.5 24.5t29.5 37t15 46.5l9 67q3 4 5.5 8.5t5.5 9.5q-4 -5 -15 -12.5t-28 -15t-39 -13t-49 -5.5 q-42 0 -77 15.5t-58 42t-34 62t-5 75.5q6 39 26.5 75t51.5 63t70 43t81 16q27 0 48.5 -8t37.5 -17.5t24.5 -18.5t8.5 -12q2 11 5 23t5 24zM180 188q-7 -49 21 -82.5t80 -33.5q26 0 48.5 9t40.5 24.5t29.5 37t14.5 45.5q7 50 -21 82.5t-80 32.5q-26 0 -48.5 -8.5t-40.5 -24 t-29.5 -36.5t-14.5 -46z" />
<glyph unicode="h" horiz-adv-x="580" d="M334 79h77l21 155q2 27 -12.5 46.5t-52.5 21.5q-26 0 -51 -9t-45 -25t-34 -38t-18 -48l-14 -103h63l-11 -79h-222l11 79h76l83 592h-76l11 79h159l-60 -426l-9 -45q29 49 74.5 75.5t102.5 29.5q59 0 89 -31t25 -81l-27 -193h62l-11 -79h-222z" />
<glyph unicode="i" horiz-adv-x="292" d="M46 79h70l30 217h-70l11 79h153l-41 -296h69l-11 -79h-222zM169 520q3 23 21 38t38 15q19 0 33 -15t11 -38q-4 -23 -22 -37.5t-37 -14.5q-20 0 -34 14.5t-10 37.5z" />
<glyph unicode="j" horiz-adv-x="212" d="M59 375h142l-53 -375q-8 -61 -35.5 -106.5t-68.5 -74.5l-49 62q28 20 46.5 50t23.5 72l42 293h-59zM131 520q3 23 21 38t38 15q19 0 33 -15t11 -38t-21 -37.5t-37 -14.5q-20 0 -34 14.5t-11 37.5z" />
<glyph unicode="k" horiz-adv-x="527" d="M302 79h11q-26 40 -48 81l-55 -46l-5 -35h63l-11 -79h-222l11 79h76l83 592h-66l11 79h149l-76 -539l103 85h-37l11 79h201l-11 -79h-62q-25 -20 -49 -41t-48 -41q19 -34 39 -67.5t40 -67.5h93l-11 -79h-201z" />
<glyph unicode="l" horiz-adv-x="292" d="M46 79h76l83 592h-66l11 79h149l-94 -671h63l-11 -79h-222z" />
<glyph unicode="m" horiz-adv-x="870" d="M624 79h76l21 155q2 27 -12.5 46.5t-52.5 21.5q-26 0 -51 -9t-45 -25t-34 -38t-18 -48l-14 -103h63l-11 -79h-222l11 79h76l21 155q2 27 -12.5 46.5t-52.5 21.5q-26 0 -51 -9t-45 -25t-34 -38t-18 -48l-14 -103h63l-11 -79h-222l11 79h76l30 217h-66l11 79h139l-1 -9 q-2 -24 -2.5 -43.5t-2.5 -43.5q28 48 74 75.5t103 29.5q55 0 85 -27.5t29 -72.5q29 46 74.5 72t100.5 28q59 0 89 -31t25 -81l-27 -193h63l-11 -79h-222z" />
<glyph unicode="n" horiz-adv-x="580" d="M334 79h77l21 155q2 27 -12.5 46.5t-52.5 21.5q-26 0 -51 -9t-45 -25t-34 -38t-18 -48l-14 -103h63l-11 -79h-222l11 79h76l30 217h-66l11 79h139l-1 -9q-2 -24 -2.5 -43.5t-2.5 -43.5q27 48 75 76.5t102 28.5q59 0 89 -31t25 -81l-27 -193h62l-11 -79h-222z" />
<glyph unicode="o" horiz-adv-x="471" d="M62 188q6 40 26.5 76t51.5 62.5t69.5 42t80.5 15.5t76.5 -15.5t58 -42t34 -62.5t4.5 -76q-6 -41 -26.5 -76.5t-51 -62.5t-69.5 -42.5t-81 -15.5t-76 15.5t-57.5 42.5t-34.5 62.5t-5 76.5zM145 187q-3 -24 3 -45t19.5 -36.5t33 -24.5t43.5 -9t46.5 9t40.5 24.5t30 36.5 t15 45t-3 45t-19.5 37t-33.5 25t-44 9t-46 -9t-40 -25t-30 -37t-15 -45z" />
<glyph unicode="p" horiz-adv-x="548" d="M8 -171h67l66 467h-76l13 79h143q-3 -23 -3 -47q1 3 13 12.5t30.5 19t42 17t49.5 7.5q42 0 76.5 -15.5t58 -42.5t34 -62.5t5.5 -75.5q-6 -40 -26.5 -76t-51.5 -63t-70 -42.5t-81 -15.5q-28 0 -49.5 6t-36.5 14t-23.5 15.5t-10.5 11.5q2 -5 3.5 -9.5t3.5 -9.5l-27 -190h72 l-10 -79h-221zM443 188q7 50 -21 82.5t-80 32.5q-26 0 -48.5 -8.5t-40.5 -24t-29.5 -36.5t-14.5 -46q-4 -24 1.5 -45.5t19 -37t33.5 -24.5t46 -9t48.5 9t40.5 24.5t29.5 37t15.5 45.5z" />
<glyph unicode="q" horiz-adv-x="551" d="M288 -171h76l26 190q2 5 5.5 9.5t6.5 9.5q-3 -4 -14.5 -11.5t-28.5 -15.5t-40 -14t-50 -6q-42 0 -76.5 15.5t-58 42.5t-34 63t-4.5 76t26.5 75.5t51.5 62.5t70 42.5t81 15.5q26 0 47.5 -7.5t37 -17t24.5 -19t10 -12.5q2 11 5 23t5 24h149l-11 -79h-80l-65 -467h63 l-11 -79h-222zM180 188q-7 -49 21 -82.5t80 -33.5q26 0 48.5 9t40.5 24.5t29.5 37t14.5 45.5q7 50 -21 82.5t-80 32.5q-26 0 -48.5 -8.5t-40.5 -24t-29.5 -36.5t-14.5 -46z" />
<glyph unicode="r" horiz-adv-x="370" d="M46 79h76l30 217h-66l11 79h139l-1 -9q-2 -24 -2.5 -43.5t-2.5 -43.5q15 25 36.5 44.5t43.5 33t42.5 20.5t35.5 7l-17 -82q-30 0 -56.5 -9t-46.5 -25t-32.5 -38t-16.5 -48l-14 -103h63l-11 -79h-222z" />
<glyph unicode="s" horiz-adv-x="332" d="M138 120l-5 -39q11 -5 22.5 -6.5t28.5 -1.5q1 0 7.5 0.5t15 4t16 10.5t10.5 21q4 18 -6 27.5t-26.5 16t-37 13t-37 18t-25.5 32.5t-4 56q4 31 19 52t35 34.5t42 19.5t39 6q10 0 24 -2t28.5 -7t28 -13t22.5 -20l-13 -87h-74l7 43q-15 5 -30 5q-22 0 -33.5 -9.5 t-11.5 -25.5q1 -12 12.5 -19.5t28.5 -14.5t35.5 -16t33.5 -22.5t23 -34t4 -51.5q-2 -14 -10 -34t-24.5 -39t-43.5 -32t-67 -13q-37 0 -70 9.5t-50 31.5l12 87h74z" />
<glyph unicode="t" horiz-adv-x="335" d="M205 619h83l-34 -244h98l-11 -81h-98l-30 -215h75l-11 -79h-158l41 294h-84l11 81h84z" />
<glyph unicode="u" horiz-adv-x="570" d="M88 375h149l-32 -234q-2 -27 12.5 -46.5t52.5 -21.5q26 0 51 9t45 25t34 38t18 48l14 103h-66l11 79h149l-42 -305h62l-10 -70h-145l7 51l9 45q-27 -48 -75 -76.5t-102 -28.5q-59 0 -89 31t-25 81l27 193h-66z" />
<glyph unicode="v" horiz-adv-x="584" d="M90 375h222l-11 -79h-52q20 -44 38 -88t26 -88q20 44 49.5 88t61.5 88h-60l11 79h229l-11 -79h-83q-54 -81 -108.5 -160t-108.5 -159q-33 80 -65.5 159.5t-64.5 159.5h-84z" />
<glyph unicode="w" horiz-adv-x="830" d="M636 375h214l-11 -79h-76q-51 -81 -102.5 -160t-102.5 -159l-99 269l-173 -269q-30 80 -59.5 159.5t-58.5 159.5h-89l11 79h207l-11 -79h-35q16 -44 31 -87.5t24 -88.5q16 34 36 66.5t40 65.5q7 11 13.5 22t13.5 22h-51l11 79h222l-11 -79h-57q16 -44 31 -87.5t24 -88.5 q21 45 47.5 88.5t55.5 87.5h-56z" />
<glyph unicode="x" horiz-adv-x="526" d="M87 375h222l-11 -79h-23l35 -59l50 59h-27l11 79h199l-11 -79h-73l-106 -123q14 -24 28 -47.5t29 -46.5h92l-11 -79h-222l11 79h25q-9 14 -17 27t-16 27q-11 -14 -23.5 -27t-23.5 -27h20l-11 -79h-199l11 79h77q26 31 53.5 61.5t54.5 61.5q-14 23 -28 47t-28 47h-99z" />
<glyph unicode="y" horiz-adv-x="617" d="M103 -171h90q27 43 54.5 86t55.5 85q-27 75 -54 148t-54 148h-84l11 79h222l-11 -79h-53q22 -55 43 -110.5t32 -111.5q26 56 62.5 111.5t73.5 110.5h-62l11 79h229l-11 -79h-82q-75 -118 -150 -233.5t-150 -233.5h49l-11 -79h-222z" />
<glyph unicode="z" horiz-adv-x="435" d="M419 138l-19 -138h-365l11 81q35 28 66 54.5t61.5 52.5t61.5 53t66 55h-213l16 114h74l-5 -35h256l-11 -81q-36 -28 -67 -54.5t-61 -52.5t-61 -52t-66 -54h174l8 57h74z" />
<glyph unicode="{" horiz-adv-x="320" d="M87 256l12 81q24 1 41.5 14.5t29 33.5t18 43.5t9.5 43.5l22 156q6 46 19 70.5t30.5 35t39 11.5t45.5 1h63l-11 -81h-44q-15 0 -26 -4t-18.5 -15.5t-13 -31.5t-9.5 -52l-18 -129q-4 -31 -13.5 -53.5t-21.5 -38.5t-25 -26.5t-24 -16.5q9 -6 19 -16.5t17.5 -27t10.5 -38.5 t-1 -52l-18 -129q-5 -32 -5 -52.5t4.5 -31.5t14 -15t24.5 -4h44l-12 -81h-63q-23 0 -44 1t-36 11.5t-21 34.5t0 71l21 152q3 20 3 43.5t-6 43.5t-19.5 33.5t-37.5 14.5z" />
<glyph unicode="|" horiz-adv-x="271" d="M91 -232l130 932h84l-130 -932h-84z" />
<glyph unicode="}" horiz-adv-x="320" d="M359 337l-12 -81q-24 -1 -41 -14.5t-29 -33.5t-18.5 -43.5t-9.5 -43.5l-21 -152q-6 -47 -19 -71t-31 -34.5t-39.5 -11.5t-45.5 -1h-63l12 81h44q15 0 25.5 4t18 15t12.5 31.5t10 52.5l18 129q4 30 14 52.5t22 38.5t25 26.5t23 16.5q-9 6 -18.5 16.5t-17 26.5t-11 38.5 t0.5 53.5l18 129q4 32 5 52t-3.5 31.5t-14 15.5t-24.5 4h-44l11 81h63q23 0 44.5 -1t36.5 -11.5t21 -34.5t0 -71l-22 -156q-3 -20 -3 -43.5t6 -43.5t19.5 -33.5t37.5 -14.5z" />
<glyph unicode="~" horiz-adv-x="489" d="M275 481q-13 16 -23.5 21t-24.5 5t-33 -8.5t-27 -37.5q-11 1 -22 1.5t-22 1.5q4 20 15 36.5t25.5 28t31 17.5t31.5 6q23 0 40.5 -9t31.5 -24q13 -16 24 -21t25 -5q7 0 15.5 2t17 7t16 14t10.5 23l45 -3q-4 -20 -15 -36.5t-25.5 -27.5t-31 -17t-31.5 -6q-23 0 -41 9 t-32 23z" />
<glyph unicode="&#xa1;" horiz-adv-x="200" d="M207 540q19 0 32.5 -15t9.5 -38q-3 -23 -20.5 -37.5t-36.5 -14.5q-20 0 -34 14.5t-11 37.5q5 23 22.5 38t37.5 15zM141 374h83l-82 -584h-83z" />
<glyph unicode="&#xa2;" horiz-adv-x="385" d="M334 97l41 -63q-24 -17 -48.5 -26.5t-55.5 -14.5l-8 -61h-84l9 68q-30 9 -53.5 27t-39.5 42.5t-22.5 55t-1.5 63.5t20 63t37.5 55t51.5 43t61 27l9 62h84l-8 -56q29 -3 52 -14t42 -27l-1 -1q-2 -8 -2.5 -14.5t-1.5 -14.5l-12 -86h-74l9 67q-5 3 -11 4.5t-13 3.5l-32 -226 q14 3 27.5 9t24.5 14zM154 188q-5 -34 7.5 -61t38.5 -42l29 204q-30 -14 -50 -40.5t-25 -60.5z" />
<glyph unicode="&#xa3;" horiz-adv-x="574" d="M547 0h-518l11 81h44q16 0 26.5 3.5t18 14.5t12 30.5t9.5 51.5l13 92h-65l11 81h65l21 146q10 69 72.5 101.5t167.5 32.5q33 0 58.5 -8t44 -22t31 -32t19.5 -38l-69 -37q-4 7 -9 16.5t-15 18.5t-27 15t-45 6q-68 0 -104 -14t-43 -61l-18 -124h117l-11 -81h-117l-16 -110 q-4 -29 -9.5 -48.5t-22.5 -33.5h275l13 96q21 0 42.5 0.5t42.5 0.5z" />
<glyph unicode="&#xa4;" horiz-adv-x="500" d="M194 360q-5 -32 14.5 -54.5t51.5 -22.5q16 0 31 6t27 16.5t20.5 24.5t10.5 30q4 32 -15.5 55t-51.5 23t-57.5 -23t-30.5 -55zM110 361q6 43 32 78l-10 12l-10 12l67 59l21 -24q20 9 40 15t42 6t41 -5.5t36 -15.5l27 24l51 -59l-25 -22q17 -37 11 -80q-8 -47 -35 -81 l21 -24l-67 -59q-6 6 -11.5 12.5t-11.5 12.5q-38 -20 -82 -20q-42 0 -75 19l-28 -25l-51 59l27 24q-8 18 -11 38.5t1 43.5z" />
<glyph unicode="&#xa5;" horiz-adv-x="789" d="M577 100h-117l-3 -21h73l-11 -79h-242l11 79h67l3 21h-115l11 81h115l11 82h-115l12 81h71l-125 277h-101l11 79h242l-11 -79h-40q28 -61 55.5 -122t55.5 -122l7 -31h1l16 31l179 244h-39l11 79h242l-11 -79h-101q-51 -70 -101 -139t-101 -138h72l-12 -81h-116l-11 -82 h117z" />
<glyph unicode="&#xa6;" horiz-adv-x="215" d="M153 -233h-84l49 350h84zM234 350h-84l50 350h84z" />
<glyph unicode="&#xa7;" horiz-adv-x="500" d="M251 360q-4 -27 12 -45.5t43 -18.5q26 0 47.5 18.5t25.5 45.5q4 26 -12 45t-43 19q-26 0 -47.5 -18.5t-25.5 -45.5zM244 148q-21 44 -33.5 70t-18.5 39.5t-7 18t-1 6.5q-10 23 -11 49.5t7 52.5t24 49t39 40q32 23 74 27q-8 17 -15.5 34t-15.5 35q-14 33 -16.5 56.5 t3.5 41t19.5 29.5t31.5 22q20 11 40.5 22t40.5 22q15 -34 32 -70q-11 -5 -21 -11t-21 -11q-13 -8 -20.5 -15t-10 -17t1 -23.5t12.5 -34.5h1q17 -38 34 -74.5t34 -74.5q11 -23 11.5 -49t-7.5 -51.5t-24.5 -48.5t-40.5 -39q-32 -23 -74 -29q15 -34 32 -70q15 -33 17.5 -57 t-3.5 -41.5t-19.5 -30t-31.5 -22.5q-20 -11 -39.5 -21.5t-39.5 -21.5q-8 17 -16.5 35t-16.5 35q11 6 21.5 11.5t21.5 11.5q13 7 20.5 15t8 19.5t-5 28t-17.5 42.5z" />
<glyph unicode="&#xa8;" horiz-adv-x="370" d="M222 520q3 23 21 38t38 15q19 0 33 -15t11 -38q-4 -23 -21.5 -37.5t-36.5 -14.5q-20 0 -34.5 14.5t-10.5 37.5zM56 520q3 23 21 38t38 15q19 0 33 -15t11 -38q-4 -23 -21.5 -37.5t-36.5 -14.5q-20 0 -34.5 14.5t-10.5 37.5z" />
<glyph unicode="&#xa9;" horiz-adv-x="793" d="M405 148q47 0 90 17t77.5 47t57 71t29.5 89q7 49 -4.5 90t-37 71t-64 47t-85.5 17t-90.5 -17t-77.5 -47t-57 -71t-30 -90q-7 -48 4.5 -89t37.5 -71t64.5 -47t85.5 -17zM400 111q-54 0 -99 20t-76 55t-45.5 82.5t-6.5 103.5q8 57 35.5 105t68.5 83t91.5 54.5t104.5 19.5 t99 -19.5t76 -54.5t45 -83t6 -105q-8 -56 -35.5 -103.5t-68 -82.5t-91 -55t-104.5 -20zM500 464l4 28q-23 10 -46 10q-26 0 -49.5 -10t-43 -27.5t-32.5 -40.5t-16 -49q-4 -26 2.5 -49t21 -40t35.5 -27t47 -10q33 0 64 17l17 -30q-20 -11 -41.5 -17t-44.5 -6q-33 0 -61 13 t-46.5 35t-27.5 51.5t-4 62.5q5 34 22 63.5t41.5 51.5t56 34.5t64.5 12.5q45 0 80 -22l-7 -51h-36z" />
<glyph unicode="&#xaa;" horiz-adv-x="585" d="M86.7256 355.874q4.32812 28.1289 19.1162 54.0938q14.7881 25.9658 37.1504 45.4395q22.3633 19.4736 50.4961 31.0137q28.1338 11.54 58.4316 11.54q19.4775 0 34.9863 -5.76953q15.5098 -5.77051 27.0518 -12.6221q11.542 -6.85254 17.6738 -13.3438t6.13184 -8.65527 q1.44238 7.93457 3.60645 16.5889q2.16406 8.65527 3.60742 17.3105h49.7744l-29.5762 -213.491h54.8242l-7.93457 -56.9785h-107.485l2.16406 14.4248q0.72168 3.60645 0.72168 7.21289t0.72168 7.21191q-1.44336 -2.16309 -8.65723 -7.93359 q-7.21289 -5.76953 -19.4766 -11.9004t-29.5762 -10.8184q-17.3135 -4.68848 -38.2334 -4.68848q-30.2979 0 -55.5459 11.1797q-25.248 11.1787 -41.8398 30.6533q-16.5908 19.4736 -24.5264 45.0781t-3.60645 54.4541zM147.32 356.596q-5.04883 -35.3418 15.1494 -59.5039 t57.71 -24.1621q18.7559 0 34.9863 6.49219q16.2314 6.49121 29.2158 17.6699q12.9844 11.1797 21.2803 26.6865t10.46 32.8174q5.0498 36.0625 -15.1484 59.5029t-57.71 23.4404q-18.7559 0 -34.9873 -6.12988q-16.2305 -6.13086 -29.2148 -17.3105 q-12.9854 -11.1797 -21.2812 -26.3252q-8.2959 -15.1465 -10.46 -33.1777z" />
<glyph unicode="&#xab;" horiz-adv-x="601" d="M459 77l-149 162q49 41 97 80.5t97 80.5l-13 -94q-19 -17 -37.5 -33.5t-37.5 -33.5q14 -17 28 -33.5t28 -33.5zM288 77l-149 162q49 41 97 80.5t97 80.5l-13 -95q-20 -17 -38 -33t-37 -33q14 -17 28 -33.5t28 -33.5z" />
<glyph unicode="&#xac;" horiz-adv-x="559" d="M376 148l5 40h-276l9 60h360l-14 -100h-84z" />
<glyph unicode="&#xae;" horiz-adv-x="801" d="M405 148q47 0 90 17t77.5 47t57 71t29.5 89q7 49 -4.5 90t-37 71t-64 47t-85.5 17t-90.5 -17t-77.5 -47t-57 -71t-30 -90q-7 -48 4.5 -89t37.5 -71t64.5 -47t85.5 -17zM400 111q-54 0 -99 20t-76 55t-45.5 82.5t-6.5 103.5q8 57 35.5 105t68.5 83t91.5 54.5t104.5 19.5 t99 -19.5t76 -54.5t45 -83t6 -105q-8 -56 -35.5 -103.5t-68 -82.5t-91 -55t-104.5 -20zM315 247h21l36 257h-21l5 37h100q16 0 35 -5t34 -16t24 -28t6 -41q-5 -35 -26 -59t-56 -32l37 -113h45l-6 -37h-69l-49 148h-20h-20l-16 -111h55l-6 -37h-114zM396 395h42q21 0 35 5.5 t23 13.5t13.5 18t6.5 19q3 21 -15 37t-48 16h-41z" />
<glyph unicode="&#xaf;" horiz-adv-x="399" d="M85 478l7 53h230l-7 -53h-230z" />
<glyph unicode="&#xb0;" horiz-adv-x="282" d="M145 511q20 0 36.5 14t18.5 34q3 20 -9.5 34.5t-32.5 14.5t-36 -14.5t-19 -34.5q-2 -20 10 -34t32 -14zM50 560q3 21 13 39t26 31.5t36 21.5t41 8q42 0 66.5 -29t19.5 -71q-3 -21 -13.5 -39.5t-26 -32t-34.5 -21t-40 -7.5q-43 0 -68.5 29t-19.5 71z" />
<glyph unicode="&#xb1;" horiz-adv-x="524" d="M239 211l20 139h-138l11 81h138l20 140h84l-20 -140h138l-11 -81h-138l-20 -139h-84zM446 100h-360l11 81h360z" />
<glyph unicode="&#xb2;" horiz-adv-x="398" d="M145.55 225.006h80.9092l6.41309 45.9316h38.9746l-12.334 -85.9375h-218.553q34.5342 30.6211 67.3418 59.5146q32.8076 28.8926 58.709 55.8105q25.9004 26.917 42.9209 52.3525t20.4736 48.6484q2.4668 18.2744 -1.72656 31.1162q-4.19336 12.8408 -12.0869 21.2373 t-18.0068 12.3477q-10.1143 3.95117 -18.9941 3.95117q-18.7471 0 -31.5742 -6.4209t-20.9678 -15.8047q-8.13965 -9.38379 -12.333 -19.7559t-5.18066 -18.2744q-4.43945 -31.6094 12.334 -51.3652l-28.6143 -25.1885q-7.40039 5.43262 -12.8271 14.5703 q-5.42676 9.13672 -8.63379 19.7559q-3.20605 10.6182 -4.19336 21.7314q-0.986328 11.1123 0.493164 20.4961q2.96094 19.7559 12.0879 38.0303t24.4199 32.1035q15.2939 13.8291 35.5215 21.9785q20.2266 8.14941 45.3877 8.14941q22.6943 0 40.208 -8.39648 t28.8604 -22.4727q11.3477 -14.0762 16.2803 -32.5967q4.93359 -18.5215 1.97363 -39.2646q-3.45312 -24.6953 -15.2939 -47.6611q-11.8398 -22.9668 -29.1074 -45.6855q-17.2666 -22.7197 -38.7275 -44.6982q-21.46 -21.9785 -44.1543 -44.2031z" />
<glyph unicode="&#xb3;" horiz-adv-x="419" d="M99.9844 347.533l85.3604 119.168h-54.7686l-2.96094 -23.1445h-38.9785l8.88086 63.5234h162.332l-87.334 -117.198q15.2959 -5.90918 27.3848 -15.5117q12.0879 -9.60254 20.2295 -22.4053q8.1416 -12.8037 11.3486 -28.5615t0.740234 -33.4854 q-2.96094 -22.1592 -14.5557 -41.6104q-11.5957 -19.4512 -28.3711 -33.9775q-16.7764 -14.5273 -37.499 -22.8984q-20.7236 -8.37109 -42.9268 -8.37109q-23.6836 0 -42.4326 9.60254q-18.75 9.60254 -31.5781 25.3604l34.0449 28.0684q7.40039 -10.834 19.2422 -16.9893 t26.6445 -6.15527q13.8154 0 26.6445 5.41699q12.8281 5.41699 23.1895 14.5264q10.3613 9.11035 17.5166 21.1748q7.1543 12.0645 9.12793 25.8525t-1.72754 25.8525q-3.7002 12.0654 -11.5947 20.9287t-19.2432 14.0342t-25.1631 5.1709q-17.7637 0 -33.5527 -8.37109z " />
<glyph unicode="&#xb4;" horiz-adv-x="274" d="M100 479q27 33 54 66.5t54 66.5h84l-133 -133h-59z" />
<glyph unicode="&#xb5;" horiz-adv-x="551" d="M385 375h149l-42 -305h62l-10 -70h-145l7 51l9 45q-27 -48 -75.5 -76.5t-102.5 -28.5q-24 0 -45 6l-27 -198h-83l69 497h-66l11 79h149l-32 -234q-2 -27 12.5 -46.5t52.5 -21.5q26 0 51 9t45 25t34 38t18 48l14 103h-66z" />
<glyph unicode="&#xb6;" d="M284 0h-83l59 423q-34 0 -62 12.5t-47 34.5t-27.5 52t-3.5 64t22 64t42 52t56.5 35t65.5 13h315l-10 -70h-69l-86 -610h69l-9 -70h-152l95 680h-80z" />
<glyph unicode="&#xb7;" horiz-adv-x="168" d="M33 282q4 23 22 38t38 15q19 0 33 -15t10 -38q-3 -23 -21 -37.5t-37 -14.5q-20 0 -34 14.5t-11 37.5z" />
<glyph unicode="&#xb8;" horiz-adv-x="452" d="M219 0h51l-1 -7q-2 -14 1 -22.5t8.5 -14t12 -9t12.5 -8.5q19 -16 24.5 -36t2.5 -45q-3 -21 -12.5 -40.5t-24.5 -34.5t-36 -24t-47 -9q-34 0 -60 18.5t-34 56.5q12 6 24.5 12t24.5 12q3 -16 14.5 -26.5t31.5 -10.5q24 0 39.5 16t18.5 40q3 20 -6 31.5t-20.5 20.5t-21 19 t-7.5 27z" />
<glyph unicode="&#xb9;" horiz-adv-x="273" d="M13.9346 220.342h35.9199l31.7744 225.411h-31.3145l5.06543 37.2617h69.998l-36.8408 -262.673h36.3799l-5.06543 -36.3418h-110.982z" />
<glyph unicode="&#xba;" horiz-adv-x="469" d="M91.7178 356.596q4.32715 28.8496 19.1133 54.8145q14.7852 25.9658 37.1445 45.0791q22.3584 19.1133 50.127 30.292q27.7686 11.1797 58.0605 11.1797q30.293 0 55.1758 -11.1797q24.8838 -11.1787 41.833 -30.292t24.5225 -45.0791q7.57324 -25.9648 3.24512 -54.8145 q-4.32715 -29.5713 -19.1123 -55.1758q-14.7861 -25.6045 -36.7842 -45.0781q-21.998 -19.4746 -50.127 -30.6533q-28.1289 -11.1797 -58.4219 -11.1797q-30.292 0 -54.8154 11.1797q-24.5225 11.1787 -41.4717 30.6533q-16.9492 19.4736 -24.8828 45.0781t-3.60645 55.1758 zM151.582 355.874q-2.16406 -17.3096 2.16309 -32.4561q4.32812 -15.1465 14.0645 -26.3262q9.7373 -11.1787 23.8018 -17.6699q14.0645 -6.49219 31.374 -6.49219q17.3105 0 33.5381 6.49219q16.2285 6.49121 29.2109 17.6699q12.9824 11.1797 21.6377 26.3262 t10.8193 32.4561q2.16309 17.3105 -2.16406 32.4561q-4.32812 15.1465 -14.0645 26.6865q-9.7373 11.54 -24.1621 18.0312t-31.7354 6.49121q-17.3096 0 -33.1777 -6.49121q-15.8672 -6.49121 -28.8496 -18.0312t-21.6377 -26.6865q-8.65527 -15.1455 -10.8184 -32.4561z " />
<glyph unicode="&#xbb;" horiz-adv-x="601" d="M130 172q19 17 37 33.5t37 33.5q-14 17 -27.5 33.5t-27.5 33.5l13 94q37 -41 74 -80.5t74 -80.5l-193 -162zM301 172q19 17 37 33.5t37 33.5q-14 17 -27.5 33t-27.5 33l13 95q37 -41 74 -80.5t74 -80.5l-193 -162z" />
<glyph unicode="&#xbc;" horiz-adv-x="968" d="M203 -19q97 190 192 377.5t192 377.5h84q-97 -190 -192.5 -377.5t-192.5 -377.5h-83zM506.54 58.8301h55.7236l11.1445 77.4482h-209.521l321.711 353.728l-41.6074 -293.408h72.0693l-8.17285 -60.3193h-72.0693l-11.1445 -77.4482h61.668l-8.17285 -58.8301h-179.802z M597.184 307.557l-100.303 -110.959h84.7002zM61.1914 222.067h55.3721l48.9834 347.762h-48.2734l7.80859 57.4873h107.905l-56.792 -405.249h56.082l-7.80957 -56.0674h-171.086z" />
<glyph unicode="&#xbd;" horiz-adv-x="1069" d="M61.1914 222.067h55.3721l48.9834 347.762h-48.2734l7.80859 57.4873h107.905l-56.792 -405.249h56.082l-7.80957 -56.0674h-171.086zM532.412 57.4873h116.163l9.20801 66.0029h55.957l-17.708 -123.49h-313.782q49.582 44.002 96.6846 85.5205t84.2891 80.1982 t61.623 75.2305q24.4375 36.5498 29.3955 69.9062q3.54102 26.2598 -2.47949 44.7129q-6.02051 18.4521 -17.3535 30.5176t-25.8535 17.7432t-27.2695 5.67773q-26.916 0 -45.332 -9.22656t-30.1035 -22.7109t-17.708 -28.3887t-7.4375 -26.2598 q-6.375 -45.4219 17.708 -73.8105l-41.082 -36.1953q-10.625 7.80664 -18.416 20.9365q-7.79199 13.1299 -12.3955 28.3887q-4.60449 15.2588 -6.02051 31.2275q-1.41699 15.9688 0.708008 29.4531q4.25 28.3887 17.3535 54.6484t35.0615 46.1318t50.999 31.582 q29.041 11.7109 65.1641 11.7109q32.583 0 57.7275 -12.0654q25.1455 -12.0654 41.4365 -32.292q16.291 -20.2275 23.375 -46.8418q7.08301 -26.6143 2.83301 -56.4219q-4.95801 -35.4863 -21.958 -68.4883q-16.999 -33.002 -41.79 -65.6484 q-24.791 -32.6475 -55.6025 -64.2295q-30.8125 -31.583 -63.3945 -63.5195zM203 -19q97 190 192 377.5t192 377.5h84q-97 -190 -192.5 -377.5t-192.5 -377.5h-83z" />
<glyph unicode="&#xbe;" horiz-adv-x="1276" d="M191.053 411.181l133.741 187.201h-85.8105l-4.63867 -36.3574h-61.0723l13.915 99.7891h254.341l-136.834 -184.106q23.9658 -9.2832 42.9053 -24.3672q18.9404 -15.085 31.6963 -35.1973t17.7803 -44.8662q5.02539 -24.7539 1.16016 -52.6025 q-4.63867 -34.8105 -22.8057 -65.3652q-18.167 -30.5557 -44.4521 -53.376q-26.2842 -22.8203 -58.7529 -35.9707t-67.2568 -13.1504q-37.1074 0 -66.4844 15.084q-29.377 15.085 -49.4766 39.8389l53.3418 44.0928q11.5957 -17.0186 30.1494 -26.6875 q18.5537 -9.66992 41.7461 -9.66992q21.6455 0 41.7461 8.50879q20.0996 8.50977 36.334 22.8203t27.4443 33.2637q11.209 18.9521 14.3018 40.6113q3.0918 21.6602 -2.70605 40.6123t-18.167 32.876t-30.1494 22.0469q-17.7812 8.12207 -39.4268 8.12207 q-27.8311 0 -52.5693 -13.1504zM393 -19q97 190 192 377.5t192 377.5h84q-97 -190 -192.5 -377.5t-192.5 -377.5h-83zM654.54 58.8301h55.7236l11.1445 77.4482h-209.521l321.711 353.728l-41.6074 -293.408h72.0693l-8.17285 -60.3193h-72.0693l-11.1445 -77.4482h61.668 l-8.17285 -58.8301h-179.802zM745.184 307.557l-100.303 -110.959h84.7002z" />
<glyph unicode="&#xbf;" horiz-adv-x="452" d="M328.009 -12.9668q16.999 -6.99902 34.998 -13.499q17.998 -6.49902 34.9971 -13.499q-9.99902 -21.998 -26.998 -48.4971q-16.999 -26.498 -43.4971 -49.4971q-26.499 -22.998 -63.4961 -38.9971q-36.998 -15.999 -87.9951 -15.999q-40.9971 0 -74.9951 15.499 t-56.4971 41.9971q-22.498 26.498 -32.9971 61.9961q-10.5 35.498 -4.5 75.4961q7.99902 55.9961 39.9971 97.4932q31.998 41.498 82.9951 75.4961q14.999 9.99902 32.498 20.498q17.499 10.5 33.498 23.999t27.498 31.998q11.5 18.499 15.499 45.4971l11 77.9951h83.9941 l-13.999 -96.9941q-3.99902 -31.998 -17.499 -51.9961q-13.499 -19.999 -31.998 -35.498q-18.498 -15.499 -41.9971 -28.998q-23.499 -13.5 -48.4971 -31.498q-39.998 -26.999 -61.4961 -58.9971q-21.499 -31.998 -26.498 -68.9951q-7 -48.9971 18.998 -81.4951 q25.999 -32.498 75.9961 -32.498q55.9961 0 87.4941 24.998q31.498 24.999 53.4971 73.9951zM316.01 539q19.998 0 33.9971 -14.499t11 -37.498q-4 -22.998 -21.999 -37.9971t-37.998 -14.999q-18.998 0 -32.998 14.999q-13.999 14.999 -9.99902 37.9971 q3 22.999 20.999 37.498t36.998 14.499z" />
<glyph unicode="&#xc0;" horiz-adv-x="788" d="M46 79h82q92 165 184 326.5t184 326.5q47 -165 93 -326.5t93 -326.5h82l-11 -79h-222l11 79h56q-14 50 -28 99t-28 99h-220l-111 -198h57l-11 -79h-222zM475 515l-5 33l-3.5 -7t-4.5 -11q-4 -7 -7 -15q-16 -29 -32 -57q-14 -24 -28.5 -52t-26.5 -50h152zM470 883 q14 -33 26 -66.5t26 -66.5h-59q-20 33 -37.5 66.5t-37.5 66.5h82z" />
<glyph unicode="&#xc1;" horiz-adv-x="788" d="M474 750q27 33 54 66.5t54 66.5h84l-133 -133h-59zM46 79h82q92 165 184 326.5t184 326.5q47 -165 93 -326.5t93 -326.5h82l-11 -79h-222l11 79h56q-14 50 -28 99t-28 99h-220l-111 -198h57l-11 -79h-222zM475 515l-5 33l-3.5 -7t-4.5 -11q-4 -7 -7 -15q-16 -29 -32 -57 q-14 -24 -28.5 -52t-26.5 -50h152z" />
<glyph unicode="&#xc2;" horiz-adv-x="788" d="M522 931q24 -45 47.5 -90.5t47.5 -90.5h-59l-51 72q-17 -18 -35.5 -36t-35.5 -36h-59q36 45 72.5 90.5t72.5 90.5zM46 79h82q92 165 184 326.5t184 326.5q47 -165 93 -326.5t93 -326.5h82l-11 -79h-222l11 79h56q-14 50 -28 99t-28 99h-220l-111 -198h57l-11 -79h-222z M475 515l-5 33l-3.5 -7t-4.5 -11q-4 -7 -7 -15q-16 -29 -32 -57q-14 -24 -28.5 -52t-26.5 -50h152z" />
<glyph unicode="&#xc3;" horiz-adv-x="788" d="M484 785q-13 16 -23.5 21t-24.5 5t-33 -8.5t-27 -37.5q-11 1 -22 1.5t-22 1.5q4 20 15 36.5t25.5 28t31 17.5t31.5 6q23 0 40.5 -9t31.5 -24q13 -16 24 -21t25 -5q7 0 15.5 2t17 7t16 14t10.5 23l45 -3q-4 -20 -15 -36.5t-25.5 -27.5t-31 -17t-31.5 -6q-23 0 -41 9 t-32 23zM46 79h82q92 165 184 326.5t184 326.5q47 -165 93 -326.5t93 -326.5h82l-11 -79h-222l11 79h56q-14 50 -28 99t-28 99h-220l-111 -198h57l-11 -79h-222zM475 515l-5 33l-3.5 -7t-4.5 -11q-4 -7 -7 -15q-16 -29 -32 -57q-14 -24 -28.5 -52t-26.5 -50h152z" />
<glyph unicode="&#xc4;" horiz-adv-x="788" d="M530 810q3 23 21 38t38 15q19 0 33 -15t11 -38q-4 -23 -21.5 -37.5t-36.5 -14.5q-20 0 -34.5 14.5t-10.5 37.5zM364 810q3 23 21 38t38 15q19 0 33 -15t11 -38q-4 -23 -21.5 -37.5t-36.5 -14.5q-20 0 -34.5 14.5t-10.5 37.5zM46 79h82q92 165 184 326.5t184 326.5 q47 -165 93 -326.5t93 -326.5h82l-11 -79h-222l11 79h56q-14 50 -28 99t-28 99h-220l-111 -198h57l-11 -79h-222zM475 515l-5 33l-3.5 -7t-4.5 -11q-4 -7 -7 -15q-16 -29 -32 -57q-14 -24 -28.5 -52t-26.5 -50h152z" />
<glyph unicode="&#xc5;" horiz-adv-x="788" d="M478 836q-2 -14 5.5 -23t21.5 -9t25 9t13 23t-6.5 23.5t-22.5 9.5t-24 -9.5t-12 -23.5zM423 837q2 18 11.5 33.5t23 27.5t30 19t34.5 7t32.5 -7t25 -19t15 -27.5t2.5 -33.5q-3 -18 -12 -33.5t-22.5 -27.5t-30 -19t-34.5 -7t-32.5 7t-25 19t-15.5 27.5t-2 33.5zM46 79h82 q92 165 184 326.5t184 326.5q47 -165 93 -326.5t93 -326.5h82l-11 -79h-222l11 79h56q-14 50 -28 99t-28 99h-220l-111 -198h57l-11 -79h-222zM475 515l-5 33l-3.5 -7t-4.5 -11q-4 -7 -7 -15q-16 -29 -32 -57q-14 -24 -28.5 -52t-26.5 -50h152z" />
<glyph unicode="&#xc6;" horiz-adv-x="777" d="M725 546l11 75h-174l-32 -229h214l-12 -79h-214l-32 -234h188l10 75h79l-21 -154h-350l37 264h-115q-26 -47 -52.5 -92.5t-52.5 -92.5h59l-11 -79h-222l11 79h80q88 156 175 310.5t175 310.5h350l-22 -154h-79zM440 343l29 205q-22 -52 -52.5 -103t-58.5 -102h82z" />
<glyph unicode="&#xc7;" horiz-adv-x="610" d="M592 436l24 171q-47 22 -101 22q-57 0 -110 -22t-95.5 -60.5t-71 -89.5t-36.5 -108t6.5 -108t46.5 -88.5t78.5 -59.5t103.5 -22q73 0 142 37l36 -66q-42 -22 -85.5 -35t-89.5 -15q-2 -13 -1 -14q2 -19 13.5 -25t21.5 -14q19 -16 24.5 -36t2.5 -45q-3 -21 -12.5 -40.5 t-24.5 -34.5t-36 -24t-47 -9q-34 0 -60 18.5t-34 56.5l49 24q3 -16 14.5 -26.5t31.5 -10.5q24 0 39.5 16t18.5 40q3 20 -6 31.5t-20.5 20.5t-21 19t-7.5 27l4 28q-67 7 -121 37t-90.5 77.5t-52.5 109.5t-6 131q10 74 47.5 139.5t92.5 114t124 77t143 28.5q51 0 95 -13 t81 -37l-31 -222h-79z" />
<glyph unicode="&#xc8;" horiz-adv-x="571" d="M46 79h56l76 542h-56l11 79h487l-22 -154h-79l11 75h-269l-32 -229h309l-12 -79h-309l-32 -234h283l10 75h79l-21 -154h-501zM346 883q14 -33 26 -66.5t26 -66.5h-59q-20 33 -37.5 66.5t-37.5 66.5h82z" />
<glyph unicode="&#xc9;" horiz-adv-x="571" d="M46 79h56l76 542h-56l11 79h487l-22 -154h-79l11 75h-269l-32 -229h309l-12 -79h-309l-32 -234h283l10 75h79l-21 -154h-501zM400 750q27 33 54 66.5t54 66.5h84l-133 -133h-59z" />
<glyph unicode="&#xca;" horiz-adv-x="571" d="M46 79h56l76 542h-56l11 79h487l-22 -154h-79l11 75h-269l-32 -229h309l-12 -79h-309l-32 -234h283l10 75h79l-21 -154h-501zM423 931q24 -45 47.5 -90.5t47.5 -90.5h-59l-51 72q-17 -18 -35.5 -36t-35.5 -36h-59q36 45 72.5 90.5t72.5 90.5z" />
<glyph unicode="&#xcb;" horiz-adv-x="571" d="M46 79h56l76 542h-56l11 79h487l-22 -154h-79l11 75h-269l-32 -229h309l-12 -79h-309l-32 -234h283l10 75h79l-21 -154h-501zM432 810q3 23 21 38t38 15q19 0 33 -15t11 -38q-4 -23 -21.5 -37.5t-36.5 -14.5q-20 0 -34.5 14.5t-10.5 37.5zM266 810q3 23 21 38t38 15 q19 0 33 -15t11 -38q-4 -23 -21.5 -37.5t-36.5 -14.5q-20 0 -34.5 14.5t-10.5 37.5z" />
<glyph unicode="&#xcc;" horiz-adv-x="312" d="M46 79h79l76 542h-79l11 79h242l-11 -79h-80l-76 -542h80l-11 -79h-242zM227 883q14 -33 26 -66.5t26 -66.5h-59q-20 33 -37.5 66.5t-37.5 66.5h82z" />
<glyph unicode="&#xcd;" horiz-adv-x="312" d="M46 79h79l76 542h-79l11 79h242l-11 -79h-80l-76 -542h80l-11 -79h-242zM232 750q27 33 54 66.5t54 66.5h84l-133 -133h-59z" />
<glyph unicode="&#xce;" horiz-adv-x="315" d="M46 79h79l76 542h-79l11 79h242l-11 -79h-80l-76 -542h80l-11 -79h-242zM289 931q24 -45 47.5 -90.5t47.5 -90.5h-59l-51 72q-17 -18 -35.5 -36t-35.5 -36h-59q36 45 72.5 90.5t72.5 90.5z" />
<glyph unicode="&#xcf;" horiz-adv-x="315" d="M46 79h79l76 542h-79l11 79h242l-11 -79h-80l-76 -542h80l-11 -79h-242zM301 810q3 23 21 38t38 15q19 0 33 -15t11 -38q-4 -23 -21.5 -37.5t-36.5 -14.5q-20 0 -34.5 14.5t-10.5 37.5zM135 810q3 23 21 38t38 15q19 0 33 -15t11 -38q-4 -23 -21.5 -37.5t-36.5 -14.5 q-20 0 -34.5 14.5t-10.5 37.5z" />
<glyph unicode="&#xd0;" horiz-adv-x="632" d="M98 390h38l33 231h-47l11 79h210q72 0 132.5 -24.5t102 -70.5t60.5 -110.5t8 -145.5q-9 -59 -38 -121t-82 -112.5t-131 -83t-184 -32.5h-176l11 79h47l32 230h-38zM252 621l-33 -231h181l-11 -81h-181l-32 -230h70q59 0 112.5 19.5t96 54.5t71 85t37.5 112t-5.5 112 t-47.5 85.5t-81 54.5t-107 19h-70z" />
<glyph unicode="&#xd1;" horiz-adv-x="817" d="M50 79h87l76 542h-87l11 79h116l410 -523l15 -26l2 32l61 438h-72l11 79h242l-11 -79h-87l-91 -653l-436 544l-15 26l-2 -32l-60 -427h72l-11 -79h-242zM491 773q-13 16 -23.5 21t-24.5 5t-33 -8.5t-27 -37.5q-11 1 -22 1.5t-22 1.5q4 20 15 36.5t25.5 28t31 17.5t31.5 6 q23 0 40.5 -9t31.5 -24q13 -16 24 -21t25 -5q7 0 15.5 2t17 7t16 14t10.5 23l45 -3q-4 -20 -15 -36.5t-25.5 -27.5t-31 -17t-31.5 -6q-23 0 -41 9t-32 23z" />
<glyph unicode="&#xd2;" horiz-adv-x="786" d="M85 349q10 73 47 138.5t92.5 114.5t124.5 77.5t143 28.5q73 0 134.5 -28.5t103.5 -77.5t61.5 -114.5t9.5 -138.5q-11 -74 -48.5 -139t-93 -113.5t-125 -76.5t-142.5 -28q-74 0 -135 28t-103 76.5t-61 113.5t-8 139zM168 349q-8 -58 6.5 -108.5t46.5 -88t79 -59.5t104 -22 t110 22t95.5 59.5t71.5 88t37 108.5t-6.5 108.5t-47 88.5t-79 60t-103.5 22t-110 -22t-96 -60t-71.5 -88.5t-36.5 -108.5zM457 883q14 -33 26 -66.5t26 -66.5h-59q-20 33 -37.5 66.5t-37.5 66.5h82z" />
<glyph unicode="&#xd3;" horiz-adv-x="786" d="M85 349q10 73 47 138.5t92.5 114.5t124.5 77.5t143 28.5q73 0 134.5 -28.5t103.5 -77.5t61.5 -114.5t9.5 -138.5q-11 -74 -48.5 -139t-93 -113.5t-125 -76.5t-142.5 -28q-74 0 -135 28t-103 76.5t-61 113.5t-8 139zM168 349q-8 -58 6.5 -108.5t46.5 -88t79 -59.5t104 -22 t110 22t95.5 59.5t71.5 88t37 108.5t-6.5 108.5t-47 88.5t-79 60t-103.5 22t-110 -22t-96 -60t-71.5 -88.5t-36.5 -108.5zM478 750q27 33 54 66.5t54 66.5h84l-133 -133h-59z" />
<glyph unicode="&#xd4;" horiz-adv-x="786" d="M85 349q10 73 47 138.5t92.5 114.5t124.5 77.5t143 28.5q73 0 134.5 -28.5t103.5 -77.5t61.5 -114.5t9.5 -138.5q-11 -74 -48.5 -139t-93 -113.5t-125 -76.5t-142.5 -28q-74 0 -135 28t-103 76.5t-61 113.5t-8 139zM168 349q-8 -58 6.5 -108.5t46.5 -88t79 -59.5t104 -22 t110 22t95.5 59.5t71.5 88t37 108.5t-6.5 108.5t-47 88.5t-79 60t-103.5 22t-110 -22t-96 -60t-71.5 -88.5t-36.5 -108.5zM525 931q24 -45 47.5 -90.5t47.5 -90.5h-59l-51 72q-17 -18 -35.5 -36t-35.5 -36h-59q36 45 72.5 90.5t72.5 90.5z" />
<glyph unicode="&#xd5;" horiz-adv-x="786" d="M85 349q10 73 47 138.5t92.5 114.5t124.5 77.5t143 28.5q73 0 134.5 -28.5t103.5 -77.5t61.5 -114.5t9.5 -138.5q-11 -74 -48.5 -139t-93 -113.5t-125 -76.5t-142.5 -28q-74 0 -135 28t-103 76.5t-61 113.5t-8 139zM168 349q-8 -58 6.5 -108.5t46.5 -88t79 -59.5t104 -22 t110 22t95.5 59.5t71.5 88t37 108.5t-6.5 108.5t-47 88.5t-79 60t-103.5 22t-110 -22t-96 -60t-71.5 -88.5t-36.5 -108.5zM498 808q-13 16 -23.5 21t-24.5 5t-33 -8.5t-27 -37.5q-11 1 -22 1.5t-22 1.5q4 20 15 36.5t25.5 28t31 17.5t31.5 6q23 0 40.5 -9t31.5 -24 q13 -16 24 -21t25 -5q7 0 15.5 2t17 7t16 14t10.5 23l45 -3q-4 -20 -15 -36.5t-25.5 -27.5t-31 -17t-31.5 -6q-23 0 -41 9t-32 23z" />
<glyph unicode="&#xd6;" horiz-adv-x="786" d="M85 349q10 73 47 138.5t92.5 114.5t124.5 77.5t143 28.5q73 0 134.5 -28.5t103.5 -77.5t61.5 -114.5t9.5 -138.5q-11 -74 -48.5 -139t-93 -113.5t-125 -76.5t-142.5 -28q-74 0 -135 28t-103 76.5t-61 113.5t-8 139zM168 349q-8 -58 6.5 -108.5t46.5 -88t79 -59.5t104 -22 t110 22t95.5 59.5t71.5 88t37 108.5t-6.5 108.5t-47 88.5t-79 60t-103.5 22t-110 -22t-96 -60t-71.5 -88.5t-36.5 -108.5zM532 810q3 23 21 38t38 15q19 0 33 -15t11 -38q-4 -23 -21.5 -37.5t-36.5 -14.5q-20 0 -34.5 14.5t-10.5 37.5zM366 810q3 23 21 38t38 15 q19 0 33 -15t11 -38q-4 -23 -21.5 -37.5t-36.5 -14.5q-20 0 -34.5 14.5t-10.5 37.5z" />
<glyph unicode="&#xd7;" horiz-adv-x="500" d="M364 0q-22 25 -43 49t-43 49q-27 -24 -55 -48.5t-55 -48.5q-13 14 -25.5 28.5t-24.5 28.5q28 25 55.5 49t55.5 49l-85 99l68 59l85 -99q28 25 55.5 49t55.5 49q13 -14 25 -29t24 -29q-27 -24 -55 -48.5t-55 -48.5q21 -25 41.5 -49.5t42.5 -49.5z" />
<glyph unicode="&#xd8;" horiz-adv-x="786" d="M169 349q-8 -53 3.5 -99.5t38.5 -83.5l416 416q-30 22 -66.5 34.5t-78.5 12.5q-57 0 -110 -22t-95.5 -60.5t-71 -89.5t-36.5 -108zM404 71q57 0 110 22t96 59.5t72 88.5t37 108q8 52 -4 98.5t-38 83.5q-105 -105 -207.5 -208t-207.5 -208q29 -21 64.5 -32.5t77.5 -11.5z M86 349q10 74 47.5 139.5t92.5 114t124 77t143 28.5q57 0 106.5 -17t88.5 -47l75 75l51 -51q-19 -19 -37.5 -37t-37.5 -37q38 -48 55.5 -111t7.5 -134q-11 -74 -48 -139t-92.5 -113.5t-125 -76.5t-143.5 -28q-57 0 -105.5 16t-87.5 45q-17 -17 -34.5 -35t-34.5 -35 q-13 13 -26 25.5t-25 25.5q17 17 34 34.5t34 34.5q-38 48 -55 111t-7 135z" />
<glyph unicode="&#xd9;" horiz-adv-x="729" d="M134 700h242l-11 -79h-82l-55 -392q-11 -77 30.5 -117.5t116.5 -40.5q37 0 69.5 10.5t58 30.5t42 49.5t22.5 67.5l55 392h-82l11 79h242l-11 -79h-77l-56 -395q-8 -57 -33.5 -101t-63.5 -73.5t-86 -44.5t-102 -15t-98 15t-74 44.5t-43 73.5t-5 101l56 395h-77zM447 883 q14 -33 26 -66.5t26 -66.5h-59q-20 33 -37.5 66.5t-37.5 66.5h82z" />
<glyph unicode="&#xda;" horiz-adv-x="729" d="M134 700h242l-11 -79h-82l-55 -392q-11 -77 30.5 -117.5t116.5 -40.5q37 0 69.5 10.5t58 30.5t42 49.5t22.5 67.5l55 392h-82l11 79h242l-11 -79h-77l-56 -395q-8 -57 -33.5 -101t-63.5 -73.5t-86 -44.5t-102 -15t-98 15t-74 44.5t-43 73.5t-5 101l56 395h-77zM438 750 q27 33 54 66.5t54 66.5h84l-133 -133h-59z" />
<glyph unicode="&#xdb;" horiz-adv-x="729" d="M134 700h242l-11 -79h-82l-55 -392q-11 -77 30.5 -117.5t116.5 -40.5q37 0 69.5 10.5t58 30.5t42 49.5t22.5 67.5l55 392h-82l11 79h242l-11 -79h-77l-56 -395q-8 -57 -33.5 -101t-63.5 -73.5t-86 -44.5t-102 -15t-98 15t-74 44.5t-43 73.5t-5 101l56 395h-77zM498 932 q24 -45 47.5 -90.5t47.5 -90.5h-59l-51 72q-17 -18 -35.5 -36t-35.5 -36h-59q36 45 72.5 90.5t72.5 90.5z" />
<glyph unicode="&#xdc;" horiz-adv-x="729" d="M134 700h242l-11 -79h-82l-55 -392q-11 -77 30.5 -117.5t116.5 -40.5q37 0 69.5 10.5t58 30.5t42 49.5t22.5 67.5l55 392h-82l11 79h242l-11 -79h-77l-56 -395q-8 -57 -33.5 -101t-63.5 -73.5t-86 -44.5t-102 -15t-98 15t-74 44.5t-43 73.5t-5 101l56 395h-77zM511 810 q3 23 21 38t38 15q19 0 33 -15t11 -38q-4 -23 -21.5 -37.5t-36.5 -14.5q-20 0 -34.5 14.5t-10.5 37.5zM345 810q3 23 21 38t38 15q19 0 33 -15t11 -38q-4 -23 -21.5 -37.5t-36.5 -14.5q-20 0 -34.5 14.5t-10.5 37.5z" />
<glyph unicode="&#xdd;" horiz-adv-x="789" d="M288 79h67l26 191q-40 88 -79.5 175.5t-78.5 175.5h-101l11 79h242l-11 -79h-40q28 -61 55.5 -122t55.5 -122l7 -31h1l16 31l179 244h-39l11 79h242l-11 -79h-101q-65 -88 -128.5 -176t-128.5 -176l-26 -190h73l-11 -79h-242zM474 750q27 33 54 66.5t54 66.5h84 l-133 -133h-59z" />
<glyph unicode="&#xde;" horiz-adv-x="543" d="M46 79h71l76 542h-71l11 79h222l-11 -79h-68l-12 -86h82q34 0 74 -10.5t72.5 -33.5t51.5 -59t12 -87q-13 -91 -74.5 -144.5t-163.5 -53.5h-109l-9 -68h88l-11 -79h-242zM220 227h87q44 0 74.5 11.5t50 28.5t29 38t12.5 40q3 22 -5.5 42.5t-26 36t-43.5 24.5t-57 9h-88z " />
<glyph unicode="&#xdf;" horiz-adv-x="559" d="M47 79h60l36 255h-60l11 81h60l1 8q8 54 31.5 97.5t56.5 74t73.5 46.5t81.5 16q33 0 60.5 -12.5t46 -34.5t27 -51t4.5 -62q-5 -32 -20.5 -59.5t-38.5 -47.5q42 -29 63.5 -76.5t13.5 -105.5q-6 -45 -29 -84.5t-57 -69t-76 -46.5t-87 -17q-23 0 -44.5 4.5t-39.5 13.5l44 74 q24 -11 51 -11q28 0 54 11t47.5 29.5t35.5 43t18 52.5t-4 52.5t-24 42.5t-39.5 28.5t-51.5 10.5q2 10 2 19.5t2 20.5l6 41q34 0 60 19.5t31 54.5q4 31 -14.5 55.5t-50.5 23.5q-57 -2 -98.5 -43.5t-51.5 -114.5l-59 -418h-143z" />
<glyph unicode="&#xe0;" d="M62 187q6 39 26.5 75t51.5 63t70 43t81 16q27 0 48.5 -8t37.5 -17.5t24.5 -18.5t8.5 -12q2 11 5 23t5 24h69l-41 -296h76l-11 -79h-149l3 20q1 5 1 10t1 10q-2 -3 -12 -11t-27 -16.5t-41 -15t-53 -6.5q-42 0 -77 15.5t-58 42.5t-34 62.5t-5 75.5zM146 188 q-7 -49 21 -82.5t80 -33.5q26 0 48.5 9t40.5 24.5t29.5 37t14.5 45.5q7 50 -21 82.5t-80 32.5q-26 0 -48.5 -8.5t-40.5 -24t-29.5 -36.5t-14.5 -46zM259 612q14 -33 26 -66.5t26 -66.5h-59q-20 33 -37.5 66.5t-37.5 66.5h82z" />
<glyph unicode="&#xe1;" d="M62 187q6 39 26.5 75t51.5 63t70 43t81 16q27 0 48.5 -8t37.5 -17.5t24.5 -18.5t8.5 -12q2 11 5 23t5 24h69l-41 -296h76l-11 -79h-149l3 20q1 5 1 10t1 10q-2 -3 -12 -11t-27 -16.5t-41 -15t-53 -6.5q-42 0 -77 15.5t-58 42.5t-34 62.5t-5 75.5zM146 188 q-7 -49 21 -82.5t80 -33.5q26 0 48.5 9t40.5 24.5t29.5 37t14.5 45.5q7 50 -21 82.5t-80 32.5q-26 0 -48.5 -8.5t-40.5 -24t-29.5 -36.5t-14.5 -46zM282 479q27 33 54 66.5t54 66.5h84l-133 -133h-59z" />
<glyph unicode="&#xe2;" d="M62 187q6 39 26.5 75t51.5 63t70 43t81 16q27 0 48.5 -8t37.5 -17.5t24.5 -18.5t8.5 -12q2 11 5 23t5 24h69l-41 -296h76l-11 -79h-149l3 20q1 5 1 10t1 10q-2 -3 -12 -11t-27 -16.5t-41 -15t-53 -6.5q-42 0 -77 15.5t-58 42.5t-34 62.5t-5 75.5zM146 188 q-7 -49 21 -82.5t80 -33.5q26 0 48.5 9t40.5 24.5t29.5 37t14.5 45.5q7 50 -21 82.5t-80 32.5q-26 0 -48.5 -8.5t-40.5 -24t-29.5 -36.5t-14.5 -46zM346 660q24 -45 47.5 -90.5t47.5 -90.5h-59l-51 72q-17 -18 -35.5 -36t-35.5 -36h-59q36 45 72.5 90.5t72.5 90.5z" />
<glyph unicode="&#xe3;" d="M62 187q6 39 26.5 75t51.5 63t70 43t81 16q27 0 48.5 -8t37.5 -17.5t24.5 -18.5t8.5 -12q2 11 5 23t5 24h69l-41 -296h76l-11 -79h-149l3 20q1 5 1 10t1 10q-2 -3 -12 -11t-27 -16.5t-41 -15t-53 -6.5q-42 0 -77 15.5t-58 42.5t-34 62.5t-5 75.5zM146 188 q-7 -49 21 -82.5t80 -33.5q26 0 48.5 9t40.5 24.5t29.5 37t14.5 45.5q7 50 -21 82.5t-80 32.5q-26 0 -48.5 -8.5t-40.5 -24t-29.5 -36.5t-14.5 -46zM289 481q-13 16 -23.5 21t-24.5 5t-33 -8.5t-27 -37.5q-11 1 -22 1.5t-22 1.5q4 20 15 36.5t25.5 28t31 17.5t31.5 6 q23 0 40.5 -9t31.5 -24q13 -16 24 -21t25 -5q7 0 15.5 2t17 7t16 14t10.5 23l45 -3q-4 -20 -15 -36.5t-25.5 -27.5t-31 -17t-31.5 -6q-23 0 -41 9t-32 23z" />
<glyph unicode="&#xe4;" d="M62 187q6 39 26.5 75t51.5 63t70 43t81 16q27 0 48.5 -8t37.5 -17.5t24.5 -18.5t8.5 -12q2 11 5 23t5 24h69l-41 -296h76l-11 -79h-149l3 20q1 5 1 10t1 10q-2 -3 -12 -11t-27 -16.5t-41 -15t-53 -6.5q-42 0 -77 15.5t-58 42.5t-34 62.5t-5 75.5zM146 188 q-7 -49 21 -82.5t80 -33.5q26 0 48.5 9t40.5 24.5t29.5 37t14.5 45.5q7 50 -21 82.5t-80 32.5q-26 0 -48.5 -8.5t-40.5 -24t-29.5 -36.5t-14.5 -46zM358 520q3 23 21 38t38 15q19 0 33 -15t11 -38q-4 -23 -21.5 -37.5t-36.5 -14.5q-20 0 -34.5 14.5t-10.5 37.5zM192 520 q3 23 21 38t38 15q19 0 33 -15t11 -38q-4 -23 -21.5 -37.5t-36.5 -14.5q-20 0 -34.5 14.5t-10.5 37.5z" />
<glyph unicode="&#xe5;" d="M280 539q-2 -14 6 -23t22 -9t24.5 9t12.5 23t-6 23.5t-22 9.5t-24.5 -9.5t-12.5 -23.5zM226 540q2 18 11.5 33.5t23 27.5t30 19t34.5 7t32.5 -7t25 -19t15 -27.5t2.5 -33.5q-3 -18 -12 -33.5t-23 -27.5t-30.5 -19t-34.5 -7t-32.5 7t-24.5 19t-15 27.5t-2 33.5zM62 187 q6 39 26.5 75t51.5 63t70 43t81 16q27 0 48.5 -8t37.5 -17.5t24.5 -18.5t8.5 -12q2 11 5 23t5 24h69l-41 -296h76l-11 -79h-149l3 20q1 5 1 10t1 10q-2 -3 -12 -11t-27 -16.5t-41 -15t-53 -6.5q-42 0 -77 15.5t-58 42.5t-34 62.5t-5 75.5zM146 188q-7 -49 21 -82.5t80 -33.5 q26 0 48.5 9t40.5 24.5t29.5 37t14.5 45.5q7 50 -21 82.5t-80 32.5q-26 0 -48.5 -8.5t-40.5 -24t-29.5 -36.5t-14.5 -46z" />
<glyph unicode="&#xe6;" horiz-adv-x="613" d="M387 242l-3 -22q32 11 63 22t63 22q-11 17 -27.5 27.5t-37.5 10.5q-29 0 -54 -11q0 -11 -1 -23t-3 -26zM288 134h-56q-14 0 -30.5 -1t-31 -4t-24.5 -8.5t-11 -14.5q-2 -11 4 -17.5t16 -10.5t23 -5.5t27 -1.5q11 0 24 0.5t24.5 3.5t20 10.5t10.5 22.5zM133 274 q-9 14 -18 26.5t-18 26.5q13 11 31.5 21.5t39.5 18t43 12t41 4.5q78 0 109 -22q47 22 96 22q31 0 57.5 -12.5t46 -34.5t32 -52.5t16.5 -66.5l-237 -84l-1 -4q-2 -13 -5 -24.5t-7 -22.5q11 -6 25 -8.5t29 -2.5q23 0 43.5 8.5t36.5 23.5q11 -15 21.5 -30t21.5 -30 q-29 -25 -62.5 -39t-71.5 -14q-53 0 -95 25q-40 -25 -112 -25q-36 0 -65 5.5t-48 19.5t-27.5 37t-3.5 58q4 31 19.5 52.5t37.5 34t49 18t54 5.5h89l3 24q2 15 1 25.5t-7.5 18t-20.5 11t-37 3.5q-26 0 -57.5 -8.5t-48.5 -19.5z" />
<glyph unicode="&#xe7;" horiz-adv-x="398" d="M315 97l41 -63q-29 -20 -62.5 -31.5t-69.5 -11.5q-2 -15 0.5 -23t8 -13t13 -8t13.5 -8q19 -16 24.5 -36t1.5 -45q-5 -34 -26 -62.5t-56 -39.5q-18 -6 -38 -6q-34 0 -60 18.5t-34 56.5l50 24q3 -16 14.5 -26.5t31.5 -10.5q24 0 39 16t19 40q3 20 -6.5 31.5t-21 20.5 t-21 19t-7.5 27l5 32q-31 8 -55.5 26t-41 43t-23 56t-1.5 65q6 40 26.5 76t51 62.5t69 42t80.5 15.5q37 0 67.5 -11.5t53.5 -31.5l-16 -116h-75l9 67q-24 11 -50 11t-48.5 -8.5t-40.5 -24t-29.5 -36.5t-14.5 -46q-4 -24 1.5 -45.5t19 -37t33.5 -24.5t46 -9q43 0 79 25z" />
<glyph unicode="&#xe8;" horiz-adv-x="450" d="M278 303q-51 0 -87 -30.5t-45 -76.5q50 17 99 34.5t98 34.5q-11 17 -27.5 27.5t-37.5 10.5zM442 218l-142 -50t-143 -50q12 -21 35 -33.5t54 -12.5q23 0 43.5 8.5t36.5 23.5q11 -15 21.5 -30t21.5 -30q-29 -25 -62.5 -39t-71.5 -14q-42 0 -76 15.5t-57.5 42.5t-34.5 62.5 t-5 76.5q6 40 26.5 76t51.5 62.5t69.5 42t80.5 15.5q31 0 57.5 -12.5t46 -34.5t32 -52.5t16.5 -66.5zM247 612q14 -33 26 -66.5t26 -66.5h-59q-20 33 -37.5 66.5t-37.5 66.5h82z" />
<glyph unicode="&#xe9;" horiz-adv-x="450" d="M278 303q-51 0 -87 -30.5t-45 -76.5q50 17 99 34.5t98 34.5q-11 17 -27.5 27.5t-37.5 10.5zM442 218l-142 -50t-143 -50q12 -21 35 -33.5t54 -12.5q23 0 43.5 8.5t36.5 23.5q11 -15 21.5 -30t21.5 -30q-29 -25 -62.5 -39t-71.5 -14q-42 0 -76 15.5t-57.5 42.5t-34.5 62.5 t-5 76.5q6 40 26.5 76t51.5 62.5t69.5 42t80.5 15.5q31 0 57.5 -12.5t46 -34.5t32 -52.5t16.5 -66.5zM261 479q27 33 54 66.5t54 66.5h84l-133 -133h-59z" />
<glyph unicode="&#xea;" horiz-adv-x="450" d="M278 303q-51 0 -87 -30.5t-45 -76.5q50 17 99 34.5t98 34.5q-11 17 -27.5 27.5t-37.5 10.5zM442 218l-142 -50t-143 -50q12 -21 35 -33.5t54 -12.5q23 0 43.5 8.5t36.5 23.5q11 -15 21.5 -30t21.5 -30q-29 -25 -62.5 -39t-71.5 -14q-42 0 -76 15.5t-57.5 42.5t-34.5 62.5 t-5 76.5q6 40 26.5 76t51.5 62.5t69.5 42t80.5 15.5q31 0 57.5 -12.5t46 -34.5t32 -52.5t16.5 -66.5zM327 660q24 -45 47.5 -90.5t47.5 -90.5h-59l-51 72q-17 -18 -35.5 -36t-35.5 -36h-59q36 45 72.5 90.5t72.5 90.5z" />
<glyph unicode="&#xeb;" horiz-adv-x="450" d="M278 303q-51 0 -87 -30.5t-45 -76.5q50 17 99 34.5t98 34.5q-11 17 -27.5 27.5t-37.5 10.5zM442 218l-142 -50t-143 -50q12 -21 35 -33.5t54 -12.5q23 0 43.5 8.5t36.5 23.5q11 -15 21.5 -30t21.5 -30q-29 -25 -62.5 -39t-71.5 -14q-42 0 -76 15.5t-57.5 42.5t-34.5 62.5 t-5 76.5q6 40 26.5 76t51.5 62.5t69.5 42t80.5 15.5q31 0 57.5 -12.5t46 -34.5t32 -52.5t16.5 -66.5zM324 520q3 23 21 38t38 15q19 0 33 -15t11 -38q-4 -23 -21.5 -37.5t-36.5 -14.5q-20 0 -34.5 14.5t-10.5 37.5zM158 520q3 23 21 38t38 15q19 0 33 -15t11 -38 q-4 -23 -21.5 -37.5t-36.5 -14.5q-20 0 -34.5 14.5t-10.5 37.5z" />
<glyph unicode="&#xec;" horiz-adv-x="292" d="M46 79h70l30 217h-70l11 79h153l-41 -296h69l-11 -79h-222zM181 612q14 -33 26 -66.5t26 -66.5h-59q-20 33 -37.5 66.5t-37.5 66.5h82z" />
<glyph unicode="&#xed;" horiz-adv-x="292" d="M46 79h70l30 217h-70l11 79h153l-41 -296h69l-11 -79h-222zM187 479q27 33 54 66.5t54 66.5h84l-133 -133h-59z" />
<glyph unicode="&#xee;" horiz-adv-x="292" d="M46 79h70l30 217h-70l11 79h153l-41 -296h69l-11 -79h-222zM226 660q24 -45 47.5 -90.5t47.5 -90.5h-59l-51 72q-17 -18 -35.5 -36t-35.5 -36h-59q36 45 72.5 90.5t72.5 90.5z" />
<glyph unicode="&#xef;" horiz-adv-x="292" d="M46 79h70l30 217h-70l11 79h153l-41 -296h69l-11 -79h-222zM249 520q3 23 21 38t38 15q19 0 33 -15t11 -38q-4 -23 -21.5 -37.5t-36.5 -14.5q-20 0 -34.5 14.5t-10.5 37.5zM83 520q3 23 21 38t38 15q19 0 33 -15t11 -38q-4 -23 -21.5 -37.5t-36.5 -14.5q-20 0 -34.5 14.5 t-10.5 37.5z" />
<glyph unicode="&#xf0;" horiz-adv-x="471" d="M146 188q-3 -25 3 -46t20 -36t34.5 -23.5t46.5 -7.5t48.5 10.5t40 25.5t28.5 37.5t14 45.5q4 50 -24.5 81.5t-79.5 30.5q-54 -2 -90 -35t-41 -83zM189 531q17 15 32.5 30t32.5 30q-35 50 -79 92q17 14 34 27.5t34 27.5q21 -18 40.5 -39t38.5 -44q13 13 25.5 25t26.5 25 q12 -13 25 -25.5t26 -25.5q-16 -15 -31.5 -29.5t-31.5 -29.5q25 -41 47 -90t36.5 -101t20 -105t-1.5 -102q-5 -41 -24.5 -77t-49.5 -63.5t-68 -44.5t-80 -18t-76.5 13.5t-59 40.5t-36.5 61t-8 76q4 40 24 76.5t50.5 63.5t68.5 43.5t80 17.5q33 1 63 -8q-8 40 -22 77.5 t-33 72.5q-13 -13 -26.5 -25t-26.5 -25q-13 14 -25.5 26.5t-25.5 26.5z" />
<glyph unicode="&#xf1;" horiz-adv-x="580" d="M334 79h77l21 155q2 27 -12.5 46.5t-52.5 21.5q-26 0 -51 -9t-45 -25t-34 -38t-18 -48l-14 -103h63l-11 -79h-222l11 79h76l30 217h-66l11 79h139l-1 -9q-2 -24 -2.5 -43.5t-2.5 -43.5q27 48 75 76.5t102 28.5q59 0 89 -31t25 -81l-27 -193h62l-11 -79h-222zM362 475 q-13 16 -23.5 21t-24.5 5t-33 -8.5t-27 -37.5q-11 1 -22 1.5t-22 1.5q4 20 15 36.5t25.5 28t31 17.5t31.5 6q23 0 40.5 -9t31.5 -24q13 -16 24 -21t25 -5q7 0 15.5 2t17 7t16 14t10.5 23l45 -3q-4 -20 -15 -36.5t-25.5 -27.5t-31 -17t-31.5 -6q-23 0 -41 9t-32 23z" />
<glyph unicode="&#xf2;" horiz-adv-x="471" d="M62 188q6 40 26.5 76t51.5 62.5t69.5 42t80.5 15.5t76.5 -15.5t58 -42t34 -62.5t4.5 -76q-6 -41 -26.5 -76.5t-51 -62.5t-69.5 -42.5t-81 -15.5t-76 15.5t-57.5 42.5t-34.5 62.5t-5 76.5zM145 187q-3 -24 3 -45t19.5 -36.5t33 -24.5t43.5 -9t46.5 9t40.5 24.5t30 36.5 t15 45t-3 45t-19.5 37t-33.5 25t-44 9t-46 -9t-40 -25t-30 -37t-15 -45zM264 612q14 -33 26 -66.5t26 -66.5h-59q-20 33 -37.5 66.5t-37.5 66.5h82z" />
<glyph unicode="&#xf3;" horiz-adv-x="471" d="M62 188q6 40 26.5 76t51.5 62.5t69.5 42t80.5 15.5t76.5 -15.5t58 -42t34 -62.5t4.5 -76q-6 -41 -26.5 -76.5t-51 -62.5t-69.5 -42.5t-81 -15.5t-76 15.5t-57.5 42.5t-34.5 62.5t-5 76.5zM145 187q-3 -24 3 -45t19.5 -36.5t33 -24.5t43.5 -9t46.5 9t40.5 24.5t30 36.5 t15 45t-3 45t-19.5 37t-33.5 25t-44 9t-46 -9t-40 -25t-30 -37t-15 -45zM300 479q27 33 54 66.5t54 66.5h84l-133 -133h-59z" />
<glyph unicode="&#xf4;" horiz-adv-x="471" d="M62 188q6 40 26.5 76t51.5 62.5t69.5 42t80.5 15.5t76.5 -15.5t58 -42t34 -62.5t4.5 -76q-6 -41 -26.5 -76.5t-51 -62.5t-69.5 -42.5t-81 -15.5t-76 15.5t-57.5 42.5t-34.5 62.5t-5 76.5zM145 187q-3 -24 3 -45t19.5 -36.5t33 -24.5t43.5 -9t46.5 9t40.5 24.5t30 36.5 t15 45t-3 45t-19.5 37t-33.5 25t-44 9t-46 -9t-40 -25t-30 -37t-15 -45zM332 660q24 -45 47.5 -90.5t47.5 -90.5h-59l-51 72q-17 -18 -35.5 -36t-35.5 -36h-59q36 45 72.5 90.5t72.5 90.5z" />
<glyph unicode="&#xf5;" horiz-adv-x="471" d="M62 188q6 40 26.5 76t51.5 62.5t69.5 42t80.5 15.5t76.5 -15.5t58 -42t34 -62.5t4.5 -76q-6 -41 -26.5 -76.5t-51 -62.5t-69.5 -42.5t-81 -15.5t-76 15.5t-57.5 42.5t-34.5 62.5t-5 76.5zM145 187q-3 -24 3 -45t19.5 -36.5t33 -24.5t43.5 -9t46.5 9t40.5 24.5t30 36.5 t15 45t-3 45t-19.5 37t-33.5 25t-44 9t-46 -9t-40 -25t-30 -37t-15 -45zM288 481q-13 16 -23.5 21t-24.5 5t-33 -8.5t-27 -37.5q-11 1 -22 1.5t-22 1.5q4 20 15 36.5t25.5 28t31 17.5t31.5 6q23 0 40.5 -9t31.5 -24q13 -16 24 -21t25 -5q7 0 15.5 2t17 7t16 14t10.5 23 l45 -3q-4 -20 -15 -36.5t-25.5 -27.5t-31 -17t-31.5 -6q-23 0 -41 9t-32 23z" />
<glyph unicode="&#xf6;" horiz-adv-x="471" d="M62 188q6 40 26.5 76t51.5 62.5t69.5 42t80.5 15.5t76.5 -15.5t58 -42t34 -62.5t4.5 -76q-6 -41 -26.5 -76.5t-51 -62.5t-69.5 -42.5t-81 -15.5t-76 15.5t-57.5 42.5t-34.5 62.5t-5 76.5zM145 187q-3 -24 3 -45t19.5 -36.5t33 -24.5t43.5 -9t46.5 9t40.5 24.5t30 36.5 t15 45t-3 45t-19.5 37t-33.5 25t-44 9t-46 -9t-40 -25t-30 -37t-15 -45zM332 520q3 23 21 38t38 15q19 0 33 -15t11 -38q-4 -23 -21.5 -37.5t-36.5 -14.5q-20 0 -34.5 14.5t-10.5 37.5zM166 520q3 23 21 38t38 15q19 0 33 -15t11 -38q-4 -23 -21.5 -37.5t-36.5 -14.5 q-20 0 -34.5 14.5t-10.5 37.5z" />
<glyph unicode="&#xf7;" horiz-adv-x="501" d="M428 206h-360l11 81h360zM216 373q3 23 21 38t38 15q19 0 33 -15t11 -38t-21 -37.5t-37 -14.5q-20 0 -34 14.5t-11 37.5zM181 123q3 23 21 38t38 15q19 0 33 -15t11 -38t-21 -37.5t-37 -14.5q-20 0 -34 14.5t-11 37.5z" />
<glyph unicode="&#xf8;" horiz-adv-x="471" d="M148 188q-6 -35 8 -63l170 170q-22 8 -45 8q-26 0 -48.5 -8.5t-40.5 -24t-29.5 -36.5t-14.5 -46zM248 72q26 0 48.5 9t40.5 24.5t29.5 37t15.5 45.5q5 41 -13 71q-45 -44 -88 -87l-87 -87q24 -13 54 -13zM65 188q6 40 26.5 76t51 62.5t69 42t80.5 15.5q56 0 96 -26 q11 11 22 21.5t22 21.5q10 -10 19.5 -20t19.5 -20l-40 -40q21 -26 30.5 -60.5t4.5 -72.5q-6 -41 -26.5 -76.5t-51.5 -62.5t-70 -42.5t-81 -15.5q-31 0 -57 8.5t-48 23.5q-12 -12 -24 -24.5t-24 -24.5q-11 10 -21 19t-20 19q12 13 24.5 25t25.5 25q-18 26 -25.5 58t-2.5 68z " />
<glyph unicode="&#xf9;" horiz-adv-x="570" d="M88 375h149l-32 -234q-2 -27 12.5 -46.5t52.5 -21.5q26 0 51 9t45 25t34 38t18 48l14 103h-66l11 79h149l-42 -305h62l-10 -70h-145l7 51l9 45q-27 -48 -75 -76.5t-102 -28.5q-59 0 -89 31t-25 81l27 193h-66zM287 612q14 -33 26 -66.5t26 -66.5h-59q-20 33 -37.5 66.5 t-37.5 66.5h82z" />
<glyph unicode="&#xfa;" horiz-adv-x="570" d="M88 375h149l-32 -234q-2 -27 12.5 -46.5t52.5 -21.5q26 0 51 9t45 25t34 38t18 48l14 103h-66l11 79h149l-42 -305h62l-10 -70h-145l7 51l9 45q-27 -48 -75 -76.5t-102 -28.5q-59 0 -89 31t-25 81l27 193h-66zM309 479q27 33 54 66.5t54 66.5h84l-133 -133h-59z" />
<glyph unicode="&#xfb;" horiz-adv-x="570" d="M88 375h149l-32 -234q-2 -27 12.5 -46.5t52.5 -21.5q26 0 51 9t45 25t34 38t18 48l14 103h-66l11 79h149l-42 -305h62l-10 -70h-145l7 51l9 45q-27 -48 -75 -76.5t-102 -28.5q-59 0 -89 31t-25 81l27 193h-66zM352 660q24 -45 47.5 -90.5t47.5 -90.5h-59l-51 72 q-17 -18 -35.5 -36t-35.5 -36h-59q36 45 72.5 90.5t72.5 90.5z" />
<glyph unicode="&#xfc;" horiz-adv-x="570" d="M88 375h149l-32 -234q-2 -27 12.5 -46.5t52.5 -21.5q26 0 51 9t45 25t34 38t18 48l14 103h-66l11 79h149l-42 -305h62l-10 -70h-145l7 51l9 45q-27 -48 -75 -76.5t-102 -28.5q-59 0 -89 31t-25 81l27 193h-66zM382 520q3 23 21 38t38 15q19 0 33 -15t11 -38 q-4 -23 -21.5 -37.5t-36.5 -14.5q-20 0 -34.5 14.5t-10.5 37.5zM216 520q3 23 21 38t38 15q19 0 33 -15t11 -38q-4 -23 -21.5 -37.5t-36.5 -14.5q-20 0 -34.5 14.5t-10.5 37.5z" />
<glyph unicode="&#xfd;" horiz-adv-x="617" d="M103 -171h90q27 43 54.5 86t55.5 85q-27 75 -54 148t-54 148h-84l11 79h222l-11 -79h-53q22 -55 43 -110.5t32 -111.5q26 56 62.5 111.5t73.5 110.5h-62l11 79h229l-11 -79h-82q-75 -118 -150 -233.5t-150 -233.5h49l-11 -79h-222zM392 479q27 33 54 66.5t54 66.5h84 l-133 -133h-59z" />
<glyph unicode="&#xfe;" horiz-adv-x="510" d="M-43 -171h76l119 842h-77l11 79h222l-11 -79h-62l-44 -311q-4 -8 -7.5 -15.5t-6.5 -15.5q2 3 13.5 12t29.5 18t41.5 16t49.5 7q42 0 76.5 -15.5t58 -42.5t34 -62.5t5.5 -74.5q-6 -40 -26.5 -75.5t-51.5 -62.5t-70 -42.5t-81 -15.5q-28 0 -49 6t-36 13.5t-23.5 15.5 t-10.5 12q2 -5 3 -9.5t3 -9.5l-27 -190h82l-11 -79h-241zM401 188q7 50 -21 82.5t-80 32.5q-26 0 -48.5 -8.5t-40.5 -24t-29.5 -36.5t-14.5 -46q-7 -49 20.5 -82.5t79.5 -33.5q26 0 49 9t40.5 24.5t29.5 37t15 45.5z" />
<glyph unicode="&#xff;" horiz-adv-x="617" d="M103 -171h90q27 43 54.5 86t55.5 85q-27 75 -54 148t-54 148h-84l11 79h222l-11 -79h-53q22 -55 43 -110.5t32 -111.5q26 56 62.5 111.5t73.5 110.5h-62l11 79h229l-11 -79h-82q-75 -118 -150 -233.5t-150 -233.5h49l-11 -79h-222zM441 520q3 23 21 38t38 15q19 0 33 -15 t11 -38q-4 -23 -21.5 -37.5t-36.5 -14.5q-20 0 -34.5 14.5t-10.5 37.5zM275 520q3 23 21 38t38 15q19 0 33 -15t11 -38q-4 -23 -21.5 -37.5t-36.5 -14.5q-20 0 -34.5 14.5t-10.5 37.5z" />
<glyph unicode="&#x2013;" horiz-adv-x="509" d="M100 174l11 81h301l-11 -81h-301z" />
<glyph unicode="&#x2014;" horiz-adv-x="700" d="M99 174l11 81h502l-11 -81h-502z" />
<glyph unicode="&#x2018;" horiz-adv-x="164" d="M119 590l-22 -12l-22 -12q-24 28 -31 65.5t7 79.5q13 -2 25.5 -3.5t25.5 -3.5q-12 -35 -6.5 -64.5t23.5 -49.5z" />
<glyph unicode="&#x2019;" horiz-adv-x="164" d="M76 566q-10 6 -19 12t-19 12q24 20 37.5 49.5t11.5 64.5q13 2 26.5 3.5t26.5 3.5q2 -42 -15 -79.5t-49 -65.5z" />
<glyph unicode="&#x201a;" horiz-adv-x="146" d="M60 -53q-10 6 -19 12t-19 12q24 20 37.5 49.5t11.5 64.5q13 2 26.5 3.5t26.5 3.5q2 -42 -15 -79.5t-49 -65.5z" />
<glyph unicode="&#x201c;" horiz-adv-x="249" d="M223 590l-22 -12l-22 -12q-24 28 -31 65.5t7 79.5q13 -2 25.5 -3.5t25.5 -3.5q-12 -35 -6.5 -64.5t23.5 -49.5zM119 590l-22 -12l-22 -12q-24 28 -31 65.5t7 79.5q13 -2 25.5 -3.5t25.5 -3.5q-12 -35 -6.5 -64.5t23.5 -49.5z" />
<glyph unicode="&#x201d;" horiz-adv-x="248" d="M52 566q-10 6 -19 12t-19 12q24 20 37.5 49.5t11.5 64.5q13 2 26.5 3.5t26.5 3.5q2 -42 -15 -79.5t-49 -65.5zM156 566q-10 6 -19 12t-19 12q24 20 37.5 49.5t11.5 64.5q13 2 26.5 3.5t26.5 3.5q2 -42 -15 -79.5t-49 -65.5z" />
<glyph unicode="&#x201e;" horiz-adv-x="341" d="M60 -53q-10 6 -19 12t-19 12q24 20 37.5 49.5t11.5 64.5q13 2 26.5 3.5t26.5 3.5q2 -42 -15 -79.5t-49 -65.5zM164 -53q-10 6 -19 12t-19 12q24 20 37.5 49.5t11.5 64.5q13 2 26.5 3.5t26.5 3.5q2 -42 -15 -79.5t-49 -65.5z" />
<glyph unicode="&#x2022;" horiz-adv-x="479" d="M130 300q4 27 17 50t32.5 40.5t44 27.5t50.5 10q27 0 48.5 -10t36.5 -27.5t22 -40.5t3 -50t-17 -50t-32.5 -40t-44 -26.5t-51.5 -9.5q-26 0 -48 9.5t-36.5 26.5t-21.5 40t-3 50z" />
<glyph unicode="&#x2039;" horiz-adv-x="392" d="M288 77l-149 162q49 41 97 80.5t97 80.5l-13 -95q-20 -17 -38 -33t-37 -33q14 -17 28 -33.5t28 -33.5z" />
<glyph unicode="&#x203a;" horiz-adv-x="392" d="M130 172q19 17 37 33.5t37 33.5q-14 17 -27.5 33t-27.5 33l13 95q37 -41 74 -80.5t74 -80.5l-193 -162z" />
<glyph unicode="&#x25fc;" horiz-adv-x="375" d="M0 375h375v-375h-375v375z" />
</font>
</defs>
</svg>
