<?xml version="1.0" standalone="no"?>
<!DOCTYPE svg PUBLIC "-//W3C//DTD SVG 1.1//EN" "http://www.w3.org/Graphics/SVG/1.1/DTD/svg11.dtd" >
<svg xmlns="http://www.w3.org/2000/svg">
<metadata></metadata>
<defs>
<font id="juraregular" horiz-adv-x="1014" >
<font-face units-per-em="2048" ascent="1638" descent="-410" />
<missing-glyph horiz-adv-x="508" />
<glyph unicode="&#xd;" horiz-adv-x="508" />
<glyph unicode=" "  horiz-adv-x="508" />
<glyph unicode="&#x09;" horiz-adv-x="508" />
<glyph unicode="&#xa0;" horiz-adv-x="508" />
<glyph unicode="!" horiz-adv-x="240" d="M90 159.5q90 -0.5 90 -80t-89.5 -79.5t-90 80t89.5 79.5zM90 1360.5q90 -0.5 90 -80.5l-40 -1000q0 -40 -50 -40t-50 40l-39 1000q-1 81 89 80.5z" />
<glyph unicode="&#x22;" horiz-adv-x="480" d="M89 1359q9 1 20 1q89 0 89.5 -80t-89.5 -79.5t-90 79.5q-19 200 162 200q39 0 39.5 -25t-39.5 -25q-67 7 -92 -71zM307 1359q9 1 19 1q90 0 90.5 -80t-89.5 -79.5t-90 79.5q-19 200 162 201q39 0 39.5 -25t-39.5 -25q-67 6 -92 -72z" />
<glyph unicode="#" horiz-adv-x="1139" d="M623 440l-240 1l-63 -400q-10 -40 -50 -40h-40q-40 0 -30 40l63 400h-253q-40 0 -30 40l10 60q10 40 50 40h245l31 199h-267q-40 0 -30 40l10 60q10 40 50 40h259l63 400q10 40 50 40h40q40 0 30 -40l-63 -400l240 -1l63 401q10 40 50 40h40q40 0 30 -40l-63 -401h261 q40 0 30 -40l-10 -60q-10 -40 -50 -40h-253l-31 -199h275q40 0 30 -40l-10 -60q-10 -40 -50 -40h-267l-63 -400q-10 -40 -50 -40h-40q-40 0 -30 40zM405 581l240 -1l31 199l-240 1z" />
<glyph unicode="$" horiz-adv-x="900" d="M460 1399q0 40 -40 41h-40q-40 0 -40 -40v-46q-71 -9 -130 -34q-190 -80 -190 -300q0 -260 310 -390l10 -4v-530q-155 0 -219 64l-27 80q-14 40 -54 40t-37 -42l17 -198q178 -40 320 -42v-37q0 -41 40 -41h40q40 0 40 40v42q71 8 130 28q210 70 210 350q0 240 -310 370 q-15 6 -30 13v495q105 -2 159 -58l26 -80q15 -40 55 -40t38 43l-18 197q-143 36 -260 40v39zM340 826q-160 99 -161 214q1 169 161 206v-420zM641 360q-1 -217 -181 -254v462q180 -101 181 -208z" />
<glyph unicode="%" horiz-adv-x="1280" d="M139 0l841 1360h120l-841 -1360h-120zM449 1343q124 -34 162.5 -138.5t0 -210t-162 -139t-247.5 0.5t-162.5 139t0 209.5t162 138.5t247.5 0zM163.5 1170.5q-12.5 -66.5 -0.5 -134t89 -99t153.5 0t88.5 98.5t0.5 134t-88 99t-153.5 0t-89.5 -98.5zM1038 503.5 q124 -34.5 162 -138.5t-0.5 -209.5t-162 -139t-247.5 0t-162.5 139t0 210t162.5 138.5t248 -0.5zM745 325q-12 -67 0 -134t88.5 -99t153 0t89 99t0.5 133.5t-88.5 98.5t-153.5 0.5t-89 -98.5z" />
<glyph unicode="&#x26;" horiz-adv-x="1160" d="M911 590l-71 -220l158 -219q22 -31 82 -51t60 -60t-35 -40h-75h-75q-35 0 -52 24l-123 166q-80 -190 -350.5 -190t-375 205t-20 395t265.5 260q-100 140 -55 305t205 190t225 -80t30 -210t-214 -195l299 -430l41 150h80zM350 790q-109 -30 -159.5 -205t54.5 -335 t275.5 -135t206.5 135zM376 1163q-5 -115 64 -233q171 67 151 217t-115 140.5t-100 -124.5z" />
<glyph unicode="'" horiz-adv-x="280" d="M89 1359q9 1 20 1q89 0 89.5 -80t-89.5 -79.5t-90 79.5q-19 200 162 200q39 0 39.5 -25t-39.5 -25q-67 7 -92 -71z" />
<glyph unicode="(" horiz-adv-x="320" d="M201 1560q20 40 50 40t30 -40q-221 -820 0 -1640q0 -40 -30 -40t-50 40q-381 820 0 1640z" />
<glyph unicode=")" horiz-adv-x="360" d="M80 -80q-20 -40 -49.5 -40t-30.5 40q221 820 0 1640q0 40 30 40t51 -40q380 -820 -1 -1640z" />
<glyph unicode="*" horiz-adv-x="483" d="M230 1239q-110 45 -136 48q-28 4 -47 18q-41 28 -14 68.5t68 13.5q21 -14 34 -38q13 -23 95 -107q-25 116 -37 139q-13 25 -12 49q-1 49 48.5 50t49.5 -49q1 -24 -11 -49q-12 -24 -35 -139v-1q84 83 97 107q14 24 35 37q41 27 68 -14t-14 -68q-21 -14 -48 -17 q-26 -3 -135 -47q109 -45 135 -48q27 -3 47 -17q41 -28 13.5 -68.5t-67.5 -13.5q-21 14 -35 38q-13 23 -95 106q25 -115 37 -138q13 -25 13 -49q0 -49 -49 -50t-50 49q0 24 12 49q12 24 34 137q-82 -82 -96 -105q-13 -24 -35 -36q-41 -27 -68 14t14 68q21 14 48 17 q26 3 136 46z" />
<glyph unicode="+" horiz-adv-x="760" d="M300 159h80v300h299v80h-299v300h-80v-300h-300v-80h300v-300z" />
<glyph unicode="," horiz-adv-x="280" d="M152 1q-9 -1 -20 -1q-89 0 -89.5 80t89.5 79.5t90 -79.5q19 -200 -162 -200q-39 0 -39.5 25t39.5 25q67 -7 92 71z" />
<glyph unicode="-" horiz-adv-x="680" d="M1 522q0 40 40 39l560 1q40 0 40 -40q-1 -40 -41 -40l-560 -1q-40 0 -39 41z" />
<glyph unicode="." horiz-adv-x="261" d="M111 159.5q90 -0.5 90 -80t-89.5 -79.5t-90 80t89.5 79.5z" />
<glyph unicode="/" horiz-adv-x="569" d="M0 0l440 1480h120l-440 -1480h-120z" />
<glyph unicode="0" horiz-adv-x="1000" d="M443 1121q-442 -14 -443 -560q0 -547 443 -561h21q443 14 443 561q-1 546 -443 560h-21zM742 561q0 -455 -289 -478q-288 23 -288 478q0 454 288 477q289 -23 289 -477z" />
<glyph unicode="1" horiz-adv-x="520" d="M61 30q0 40 60 60q59 20 59 60v798q0 30 -60 31h-40q-60 -1 -60 29q1 30 61 50l220 60q40 1 40 -40v-929q0 -39 60 -59t60 -60q0 -30 -40 -30h-320q-40 0 -40 30z" />
<glyph unicode="2" horiz-adv-x="840" d="M41 1039q260 131 470 56t205 -290t-266 -415l-140 -125l-105 -86q-35 -29 -5 -29h382q39 0 69 60t70 60t41 -39l-21 -116l-10 -57q-10 -58 -51 -58h-640q-39 0 -40 40l1 70q-1 40 52 85l368 325q119 100 114.5 260t-129.5 190t-345 -21q-41 -10 -60 30q0 50 40 60z" />
<glyph unicode="3" horiz-adv-x="840" d="M31 985q0 40 40 60q239 129 439.5 39.5t220.5 -315t-111 -309.5q-20 -5 0 -20q161 -75 150.5 -320t-230.5 -335.5t-500 40.5q-40 20 -40 60q10 40 50 40q270 -75 395.5 -32t150 192t-35.5 229.5t-180 79.5h-101q-40 1 -40 46v35q0 40 40 40h101q120 0 165 80t20 200 t-140 177.5t-344 -27.5q-40 0 -50 40z" />
<glyph unicode="4" horiz-adv-x="1000" d="M580 1093l-20 -28l-40 -55l-500 -742q-19 -27 -20 -68l1 -50q0 -40 40 -40h521q39 0 39 -40v-270q-1 -39 40 -40h79q40 1 41 40v270q0 40 40 40l121 1q39 -1 40 39v50q-1 40 -41 40h-120q-40 0 -39 40l-1 801q-1 39 -40 39h-80q-41 0 -61 -27zM157 263l428 655 q16 22 16 -17v-621q0 -40 -39 -40h-382q-39 0 -23 23z" />
<glyph unicode="5" horiz-adv-x="880" d="M681 1120h-562q-39 0 -40 -40l-33 -530q-6 -40 34 -40q360 20 470 -85t80 -270t-170 -230t-420 -5q-40 0 -40 -40t40 -60q280 -110 500 -20t260 325t-100 380t-540 135l19 310q1 30 41 31l461 -1q39 0 39 40l1 61q-1 39 -40 39z" />
<glyph unicode="6" horiz-adv-x="920" d="M735 1330q-230 70 -405 -15t-250 -280t-75 -485t125 -420t295 -130t297.5 110t135 310t-97 320t-252.5 135t-278 -30q-30 -15 -35 0t22.5 135t137.5 220t370 49q40 -9 49 31q0 40 -39 50zM210 720q290 110 400.5 -20t70 -350t-215.5 -225t-245 135t-40 410q10 40 30 50z " />
<glyph unicode="7" horiz-adv-x="920" d="M40 1120h760q40 0 40 -40v-80q0 -40 -17 -78l-443 -1142q-10 -20 -30 -20h-160q-30 0 -10 40l520 1120q20 40 -20 40h-521q-39 0 -59 -60q-21 -60 -60 -60q-40 0 -40 40v200q0 40 40 40z" />
<glyph unicode="8" horiz-adv-x="960" d="M236 1120q-45 -120 0 -233.5t199.5 -113.5t199.5 113.5t5 233.5t-199.5 120t-204.5 -120zM661.5 259.5q59.5 139.5 -6 266.5t-220 127t-215 -126.5t0 -266.5t221 -140t220 139.5zM230 40q-210 100 -220 330t171 347q20 16 0 21q-140 132 -120 317t199.5 265t359.5 0 t200 -265t-130 -317q-20 -5 0 -21q190 -117 180 -347t-220 -330t-420 0z" />
<glyph unicode="9" horiz-adv-x="922" d="M131 -208q230 -71 405 14t250 280t75 485t-125 420.5t-295 130t-297.5 -110.5t-135 -310t97 -320t252.5 -135t278 30q30 15 35 0t-22.5 -135t-137.5 -219.5t-370 -49.5q-40 10 -49 -30q0 -40 39 -50zM656 401q-291 -110 -401 20t-69.5 350t215.5 225t245 -134.5 t40 -410.5q-10 -40 -30 -50z" />
<glyph unicode=":" horiz-adv-x="240" d="M90 559.5q90 -0.5 90 -80t-89.5 -79.5t-90 80t89.5 79.5zM90 159.5q90 -0.5 90 -80t-89.5 -79.5t-90 80t89.5 79.5z" />
<glyph unicode=";" horiz-adv-x="280" d="M152 1q-9 -1 -20 -1q-89 0 -89.5 80t89.5 79.5t90 -80.5q19 -199 -162 -199q-39 0 -39.5 25t39.5 25q67 -7 92 71zM130 559.5q90 -0.5 90 -80t-89.5 -79.5t-90 80t89.5 79.5z" />
<glyph unicode="&#x3c;" horiz-adv-x="756" d="M611 1120h-101q-30 0 -50 -20l-443 -515q-17 -25 1 -44l432 -521q30 -20 60 -20h101q29 0 7 37l-364 500q-14 23 0 46l369 503q17 34 -12 34z" />
<glyph unicode="=" horiz-adv-x="720" d="M1 420q0 40 40 40h560q40 0 40 -40t-40 -40h-560q-40 0 -40 40zM1 700q0 40 40 39l560 1q40 0 40 -40q-1 -40 -41 -40l-560 -1q-40 0 -39 41z" />
<glyph unicode="&#x3e;" horiz-adv-x="763" d="M17 1086l370 -503q13 -23 -1 -46l-364 -500q-22 -37 8 -37h102q30 0 61 20l431 520q18 20 2 44l-444 515q-20 21 -50 20l-102 1q-30 0 -13 -34z" />
<glyph unicode="?" horiz-adv-x="813" d="M50 1320q-40 -10 -50 30q0 40 40 50q239 121 439.5 60.5t240.5 -240.5t-20.5 -305t-179.5 -205.5t-119 -190.5l-1 -238v-40h-41h-40h-39l-1 39v240q1 160 141 270t140 285t-120.5 250t-389.5 -5zM340 159.5q90 -0.5 90 -80t-89.5 -79.5t-90 80t89.5 79.5z" />
<glyph unicode="@" horiz-adv-x="1680" d="M958 936q-221 104 -366 -15.5t-145 -380t140 -360.5t400 40q50 -100 260 -100t275 270t-35.5 545t-435 390t-654.5 -70t-365.5 -630t315 -705t1000.5 -60q51 21 61 60q-10 56 -62 40q-629 -160 -904 75t-235.5 589.5t261.5 505t475.5 90.5t353.5 -260t80 -460t-140 -255 t-121 75v626q0 51 -84 51t-74 -61zM957 830v-520q-271 -110 -330.5 70t-14.5 360t345 90z" />
<glyph unicode="A" horiz-adv-x="1362" d="M818 537l-202 616q-16 46 -29 -1l-209 -615q-11 -37 25 -37h400q30 0 15 37zM1200 80q60 -21 60 -50q0 -30 -40 -30h-338q-42 0 -42 30q0 29 60 50q60 10 46 47l-71 236q-9 37 -49 37h-447q-46 0 -59 -37l-63 -233q-16 -40 44 -50q59 -20 59 -50t-40 -30h-281 q-39 0 -39 30t60 50q60 10 73 53l393 1205q13 42 56 40l98 1q39 0 51 -38l398 -1213q11 -38 71 -48z" />
<glyph unicode="B" horiz-adv-x="1097" d="M297 606v-466q0 -40 42 -38l192 1q307 0 307 269t-308 269h-199q-34 0 -34 -35zM36 0q-39 0 -38 30q0 30 60 50q59 10 59 49l1 1090q0 41 -60 61t-60 50t39 30h260l131 -1q487 0 487 -359q0 -194 -143 -283q225 -73 225 -337q0 -380 -467 -379zM297 1225v-441 q0 -40 38 -41l42 1h86q273 15 273 256q0 256 -308 256l-95 2q-36 2 -36 -33z" />
<glyph unicode="C" horiz-adv-x="1037" d="M584 1360q-564 0 -585 -680q20 -680 585 -680q175 0 335 80v180q0 60 -30 60t-50 -60l-20 -60q-60 -100 -240 -100q-360 20 -380 580q20 560 380 580q180 0 240 -100l20 -60q20 -60 50 -60t29 60v179q-159 81 -334 81z" />
<glyph unicode="D" horiz-adv-x="1182" d="M518 1360q561 0 561 -680t-560 -680h-481q-40 0 -39 30q0 30 60 50q59 10 59 50v1099q1 41 -59 51q-60 20 -60 50t41 30h478zM343 100h176q360 20 359.5 580t-360.5 580h-180q-40 0 -40 -37v-1082q0 -41 45 -41z" />
<glyph unicode="E" horiz-adv-x="1122" d="M332 100h534q42 0 53 60q20 60 50 60t29 -39l1 -139q0 -42 -44 -42h-913q-44 0 -43 30q0 30 60 50q59 10 59 49l1 1100q0 41 -60 51t-60 50q0 30 39 30h919q42 0 41 -42v-139q0 -39 -30 -39t-50 60q-10 60 -47 60h-535q-38 0 -38 -37v-442q0 -41 43 -41h231q39 0 49 60 q20 60 50 60t30 -40v-255q-1 -45 -30 -45q-30 0 -50 60q-11 60 -49 60h-232q-42 0 -42 -44v-461q0 -35 34 -35z" />
<glyph unicode="F" horiz-adv-x="1064" d="M350 1260h523q41 0 51 -60q20 -60 50 -60t30 40v140q0 40 -31 40h-930q-39 0 -39 -30t60 -50q60 -10 60 -46l1 -1108q0 -36 -60 -46q-61 -21 -61 -50q0 -30 42 -30h337q41 0 41 30q0 29 -60 50q-60 10 -60 46v475q0 39 43 39h230q39 0 49 -60q20 -60 50 -60t30 38v263 q0 39 -30 39t-50 -60q-10 -60 -46 -60h-231q-45 0 -45 38v442q0 40 46 40z" />
<glyph unicode="G" horiz-adv-x="1177" d="M554 1360q-564 0 -564.5 -680t564.5 -680q235 0 435 80v390q0 40 60 50q60 20 60 50t-38 30h-360q-42 0 -42 -30t60 -50q60 -10 60 -47v-273q0 -100 -240 -100q-360 20 -360 580t360 580q280 0 340 -100l20 -60q20 -60 50 -60t30 43v197q-160 80 -435 80z" />
<glyph unicode="H" horiz-adv-x="1349" d="M1179 80q60 -20 60 -50t-45 -30h-333q-43 0 -43 30t60 50q60 10 60 45v481q0 34 -33 34h-568q-39 0 -39 -39v-475q0 -36 60 -46q60 -20 60 -50t-38 -30h-340q-42 0 -42 30t60 50q60 10 60 46v1106q0 38 -60 48q-60 20 -60 50t40 30h342q38 0 38 -30t-60 -50 q-60 -10 -60 -50v-448q0 -42 39 -42h568q33 0 33 37v459q0 34 -60 44q-60 20 -60 50t45 30h335q40 0 40 -30t-59 -50q-60 -10 -60 -49v-1105q-1 -36 60 -46z" />
<glyph unicode="I" horiz-adv-x="559" d="M400 1280q60 20 60 50t-41 30h-337q-42 0 -42 -30t60 -50q60 -10 60 -44v-1109q0 -37 -60 -47t-60 -50q0 -30 40 -30h338q42 0 43 30q0 40 -60 50q-61 10 -61 49v1102q0 39 60 49z" />
<glyph unicode="J" horiz-adv-x="699" d="M241 1280q-60 20 -60 50t40 30h341q39 0 39 -30t-60 -50q-60 -10 -61 -49v-951q-19 -260 -175.5 -280t-271.5 30q-33 22 -33 60q0 50 37 40q253 -60 263 110v989q1 41 -59 51z" />
<glyph unicode="K" horiz-adv-x="1205" d="M334 566l508 -538q36 -28 76 -28h160q40 0 40 30t-55 49q-56 8 -94 48l-525 585q-38 40 -8 71l414 457q30 30 90 40q59 19 59 49t-40 30h-279q-42 0 -42 -30t45 -45q45 -5 22 -30l-370 -405q-37 -39 -37 1v383q0 37 60 47q60 20 60 50t-40 30h-341q-39 0 -39 -30t60 -50 q60 -10 60 -46v-1108q0 -36 -60 -46q-60 -20 -60 -50t40 -30h341q39 0 40 30q0 30 -60 50q-61 10 -61 44v446q0 34 36 -4z" />
<glyph unicode="L" horiz-adv-x="1034" d="M958 35v150q0 35 -30 35t-50 -60q-10 -60 -47 -60h-494q-39 0 -39 39v1095q0 36 60 47q60 20 60 50q0 29 -38 29h-340q-42 0 -42 -29q0 -30 61 -50q59 -11 59 -50v-1105q0 -36 -60 -46q-60 -20 -60 -50t41 -30h878q41 0 41 35z" />
<glyph unicode="M" horiz-adv-x="1585" d="M1420 1280q60 20 60 50t-36 30h-221q-43 0 -69 -64l-381 -924q-13 -32 -25 0l-344 924q-24 64 -64 64h-297q-43 0 -43 -30t60 -50q60 -10 60 -48v-1105q0 -37 -60 -47q-60 -20 -60 -50t40 -30h300q40 0 40 30t-60 50q-60 10 -59 51v988q-1 41 26 -26l367 -945 q26 -68 66 -68t67 65l367 910q26 65 26 27v-953q0 -39 -60 -49q-60 -20 -60 -50t43 -30h335q42 0 42 30t-60 50q-60 10 -60 51v1098q0 41 60 51z" />
<glyph unicode="N" horiz-adv-x="1241" d="M840 1280q-61 19 -61 50q0 30 43 30h295q43 0 43 -30q0 -31 -59 -50q-60 -10 -60 -48v-1191q0 -41 -42 -41h-116q-42 0 -62 38l-533 998q-27 49 -27 4v-912q0 -38 60 -48q60 -20 60 -50t-39 -30h-301q-39 0 -39 30t60 50q59 10 59 49v1090q0 41 -60 61t-60 50t40 30h260 q40 0 63 -40l511 -957q24 -45 25 -1v868q1 40 -60 50z" />
<glyph unicode="O" horiz-adv-x="1180" d="M536 1360q-536 -17 -537 -680q0 -663 537 -680h26q537 17 537 680q-1 663 -537 680h-26zM899 680q0 -552 -350 -579q-350 27 -350 579t350 579q350 -27 350 -579z" />
<glyph unicode="P" horiz-adv-x="996" d="M356 80q60 -10 60 -50q0 -30 -40 -30h-340q-40 0 -40 30q0 40 60 50t60 50l1 1102q0 38 -60 48q-60 20 -60 50t40 30h416q462 0 462 -365q0 -376 -468 -378l-112 -1q-39 -1 -39 -36v-451q0 -39 60 -49zM333 717l116 1q307 0 307 269t-308 269l-106 4q-46 0 -46 -38v-469 q0 -37 37 -36z" />
<glyph unicode="Q" horiz-adv-x="1198" d="M899 680q0 -552 -350 -579q-350 27 -350 579t350 579q350 -27 350 -579zM1099 680q-1 663 -537 680h-26q-536 -17 -537 -680q0 -663 537 -680q23 0 52 -27q211 -133 456 -133q35 0 35 41q0 40 -35 40q-154 0 -283 84q-24 22 7 31q331 100 331 644z" />
<glyph unicode="R" horiz-adv-x="1096" d="M333 717l116 1q307 0 307 269t-308 269l-106 4q-46 0 -46 -38v-469q0 -37 37 -36zM356 80q60 -20 60 -50t-40 -30h-340q-40 0 -40 30t60 50q60 10 60 50l1 1102q0 38 -60 48q-60 20 -60 50t40 30l439 -1q439 -8 439 -364q0 -301 -265 -352q-29 -11 -13 -44l240 -479 q19 -37 69 -43q50 -17 50 -47t-43 -30h-155q-42 0 -63 38l-287 543q-18 35 -53 35h-60q-39 -1 -39 -36v-451q0 -39 60 -49z" />
<glyph unicode="S" horiz-adv-x="896" d="M729 1123l-18 197q-320 80 -510 0t-190 -300q0 -260 310 -390t311 -270q-1 -240 -226 -260t-304 60l-27 80q-14 40 -54 40q-30 0 -27 -42l17 -198q360 -80 570 -10t210 350q0 240 -310 370t-311 290q1 180 186.5 210t263.5 -50l26 -80q15 -40 45 -40q40 0 38 43z" />
<glyph unicode="T" horiz-adv-x="1076" d="M663 80q60 -21 60 -50q0 -30 -42 -30h-339q-39 0 -39 30q0 29 60 50q60 10 60 50v1089q-1 41 -42 41h-250q-40 0 -50 -60q-20 -60 -50 -60t-31 40v140q1 40 42 40h918q41 0 40 -40l1 -140q0 -40 -30 -40t-50 60q-10 60 -50 60h-230q-39 0 -39 -41v-1088q1 -41 61 -51z " />
<glyph unicode="U" horiz-adv-x="1236" d="M938 439q-1 -300 -311.5 -309.5t-331.5 310.5v791q1 39 61 49q60 20 60 50t-40 30h-340q-40 0 -40 -30t60 -50q60 -10 60 -50v-750q0 -480 460 -480t461 459v772q0 38 60 48q59 19 59 49q0 32 -40 30l-259 1q-42 -1 -41 -31q0 -30 61 -49q60 -10 61 -49v-791z" />
<glyph unicode="V" horiz-adv-x="1266" d="M677 361q-16 -81 -40 0l-304 875q-10 34 50 44q60 20 60 50t-40 30h-363q-40 0 -40 -30t60 -50q60 -10 72 -49l430 -1190q19 -41 59 -41t53 42l409 1187q13 43 70 52q56 18 56 48t-50 30h-240q-40 1 -40 -29q0 -31 55 -49q55 -8 41 -48z" />
<glyph unicode="W" horiz-adv-x="1837" d="M1258 402l-248 844q-11 34 -70 34q-60 0 -75 -44l-248 -835q-17 -81 -40 0l-244 835q-10 34 50 44q60 20 60 50t-40 30h-363q-40 0 -40 -30t60 -50q60 -10 72 -49l369 -1189q19 -42 59 -42t53 43l268 846q21 79 45 2l256 -845q17 -46 57 -46t56 44l349 1185q13 43 70 52 q56 19 56 49t-50 30h-240q-40 0 -40 -30t55 -48q55 -8 41 -48l-234 -833q-22 -81 -44 1z" />
<glyph unicode="X" horiz-adv-x="1255" d="M454 623l-312 -502q-21 -31 -81 -41q-60 -20 -60 -50t40 -30h300q40 0 40 30t-60 50l-30 10q-30 0 -13 25l249 407q18 27 35 0l243 -407q16 -25 -14 -25l-30 -10q-60 -20 -60 -50t40 -30h380q40 0 40 30t-60 50q-60 10 -82 45l-338 556q-24 37 -2 70l341 486q22 33 82 42 q60 20 60 50q1 31 -41 31h-299q-39 0 -39 -31q0 -30 60 -50l30 -9q30 0 12 -26l-280 -393q-17 -26 -34 0l-213 393q-17 26 13 26l30 10q60 20 60 50t-40 30h-380q-40 0 -40 -30t60 -50q60 -10 83 -46l309 -541q23 -36 1 -70z" />
<glyph unicode="Y" horiz-adv-x="1172" d="M678 674l298 558q22 37 82 48q61 20 61 50t-40 30h-280q-40 0 -40 -30q1 -30 59 -49l30 -10q29 0 11 -31l-244 -471q-16 -29 -34 0l-260 471q-18 31 11 31l29 10q58 19 58 49t-41 30h-339q-40 0 -40 -30t60 -50q60 -10 82 -47l316 -558q21 -35 21 -67l1 -479 q0 -38 -60 -48q-60 -20 -60 -50t39 -30h341q40 0 40 30q1 30 -60 50q-60 10 -60 50l-1 476q0 32 20 67z" />
<glyph unicode="Z" horiz-adv-x="1021" d="M41 1320v-140q0 -60 30 -60t50 60q10 60 71 60h429q20 0 10 -17l-611 -1069q-20 -34 -19 -74l-1 -40q0 -40 40 -40h841q40 0 40 40v140q1 59 -29 59t-51 -59q-10 -60 -70 -60h-509q-21 0 -11 17l610 1068q20 35 20 75l1 40q-1 40 -41 40h-760q-39 0 -40 -40z" />
<glyph unicode="[" horiz-adv-x="320" d="M0 0v1480h241v-120h-120v-1240h120v-120h-241z" />
<glyph unicode="\" horiz-adv-x="600" d="M440 0l-440 1480h120l440 -1480h-120z" />
<glyph unicode="]" horiz-adv-x="321" d="M241 1480v-1480h-240l-1 120l120 -1v1241h-120v120h241z" />
<glyph unicode="^" horiz-adv-x="560" d="M34 937l186 218q24 14 47 0l177 -213q37 -22 37 7l1 62q0 30 -21 61l-198 278q-19 18 -44 1l-198 -290q-20 -20 -19 -50l-1 -62q-1 -29 33 -12z" />
<glyph unicode="_" horiz-adv-x="1080" d="M0 81v-80l999 -1v80z" />
<glyph unicode="`" horiz-adv-x="1024" d="M673 1079h-69l-330 202q-31 20 -46.5 40t-15.5 42q0 31 20.5 51t53.5 20q20 0 40.5 -12t55.5 -47z" />
<glyph unicode="a" horiz-adv-x="894" d="M128 966q80 38 230 39q359 -5 360 -321l-1 -546q0 -38 40 -58q61 -10 60.5 -45t-60.5 -35q-120 0 -180 70q-230 -110 -399.5 -50t-176 239t138.5 259t378 72q39 1 39 40l1 55q0 236 -201 235q-119 0 -229 -31q-41 1 -41 30q0 27 41 47zM174.5 389q-52.5 -122 10 -226.5 t312.5 -52.5q41 10 41 50l-1 321q1 39 -39 39q-271 -9 -323.5 -131z" />
<glyph unicode="b" horiz-adv-x="1019" d="M-13 1390q0 30 60 50t100 20h60q60 0 60 -39v-453q0 -41 40 -20q180 92 355 7t225 -300t-25 -395t-275 -239.5t-481 59.5l1 1240q0 40 -60 40t-60 30zM266 802v-635q1 -36 28 -44q193 -53 318 32t130 330t-110 345t-327 22q-38 -12 -39 -50z" />
<glyph unicode="c" horiz-adv-x="860" d="M721 800v160q-340 100 -530 -50t-190.5 -430t205 -411t516.5 -20q40 20 40 45t-41 26q-240 -80 -400 20t-160 340t120 360t281 60q40 -20 60 -80q20 -61 60 -61t39 41z" />
<glyph unicode="d" horiz-adv-x="969" d="M801 1420l1 -1280q0 -40 39 -60q60 -10 60.5 -45t-59.5 -35q-121 0 -181 80q-225 -119 -405.5 -39.5t-230.5 254.5t-10 345t185.5 285t400.5 55q34 -10 35 30v310q1 39 -55 40q-59 0 -60 30q1 30 61 50q59 20 99 20h81q39 0 39 -40zM613 874q-182 76 -307 -24 t-120.5 -355t130 -340t302.5 -19q27 8 27 44l1 650q0 33 -33 44z" />
<glyph unicode="e" horiz-adv-x="949" d="M830 510q0 371 -209 465.5t-414 -35.5t-205.5 -435t210 -436t511.5 0q40 20 40 45t-41 26q-270 -100 -410 0t-139 341h625q32 -1 32 29zM440.5 920q228.5 10 248.5 -320q0 -40 -39 -40h-429q-39 0 -39 40q30 310 258.5 320z" />
<glyph unicode="f" horiz-adv-x="572" d="M0 30q0 30 60 50q60 10 60 50v752q0 38 -40 38h-40q-40 0 -40 50t41 50h60q19 0 19 20q0 320 380 320q40 0 40 -40.5t-40 -39.5q-219 0 -220 -240q0 -20 20 -20h100q40 0 40 -50t-39 -50h-101q-20 1 -20 -20v-771q0 -39 60 -49q60 -20 60 -50t-39 -30h-321q-40 0 -40 30z " />
<glyph unicode="g" horiz-adv-x="972" d="M169 752q-17 -93 0 -186.5t124 -137.5t213 0.5t122.5 137.5t0.5 185.5t-122.5 137t-213.5 0.5t-124 -137zM597 966l203 34q39 0 39.5 -40t-39.5 -40l-85 -28q39 -40 59 -95q50 -137 -0.5 -275.5t-211.5 -181.5q-148 -40 -296 -7q-10 -9 -24 -18q-59 -40 -30.5 -97.5 t148.5 -57.5h160q320 1 340 -279.5t-300 -280.5h-330q-80 0 -159.5 40t-80 160t111.5 177q53 35 84.5 14t7.5 -49q-45 -22 -64.5 -82t20.5 -100t120 -40h290q200 0 180 140t-220 139l-161 1q-257 -4 -277 176q-16 141 79 193q-99 51 -136 153q-50 137 0 274t212 181.5 t325 0.5q18 -6 35 -12z" />
<glyph unicode="h" horiz-adv-x="1065" d="M280 820v-691q0 -39 60 -49q60 -20 60 -50t-39 -30h-321q-40 0 -40 30t60 50q60 10 60 50v1190q0 40 -60 40t-60 30t60 50t100 20h80q40 0 40 -40v-520q200 140 400 80t200 -320l-1 -529q0 -40 60 -50q60 -20 60 -50t-40 -31l-320 1q-40 0 -40 30t60 50q60 10 61 49v530 q0 140 -120.5 200t-319.5 -40z" />
<glyph unicode="i" horiz-adv-x="499" d="M280 960v-809q0 -40 60 -60t60 -60q0 -30 -40 -31l-320 1q-40 0 -40 30q0 40 60 60t60 59v710q1 40 -59 40t-60 30t60 50q59 20 100 20h79q40 0 40 -40zM191 1279.5q90 -0.5 90 -80t-89.5 -79.5t-90 80t89.5 79.5z" />
<glyph unicode="j" horiz-adv-x="400" d="M278 960l-1 -1080q0 -160 -79.5 -235t-235 -40t-155 75t40.5 40q270 -60 270 120v1020q1 40 -59 40t-60 30q-1 30 59 50t101 20h79q40 0 40 -40zM188 1280q90 0 90 -80t-89.5 -79.5t-90 80t89.5 79.5z" />
<glyph unicode="k" horiz-adv-x="980" d="M280 400v-271q0 -39 60 -49q60 -20 60 -50t-39 -30h-321q-40 0 -40 30t60 50q60 10 60 50v1190q0 40 -60 40t-60 30t60 50t100 20h80q40 0 40 -40v-781q0 -39 30 -9l210 230q40 40 -20 60t-60 50t40 30h280q40 0 40 -30t-60 -50t-100 -60l-245 -265q-35 -35 -7 -63 l395 -405q27 -27 87 -47q50 -10 50 -40q0 -40 -40 -40h-120q-40 0 -70 30l-384 384q-26 26 -26 -14z" />
<glyph unicode="l" horiz-adv-x="476" d="M0 30q0 30 60 50q60 10 60 50v1190q0 40 -60 40t-60 30t60 50t100 20h80q40 0 40 -40v-1291q0 -39 60 -49q60 -20 60 -50t-39 -30h-321q-40 0 -40 30z" />
<glyph unicode="m" horiz-adv-x="1614" d="M280 802v-671q0 -40 60 -50q60 -20 60 -50t-40 -31l-320 1q-40 0 -40 30t60 50q60 10 60 49v730q1 40 -59 40t-60 30t60 50q59 20 100 20h79q40 0 40 -40v-73q185 158 370 98q98 -32 148 -111q229 173 421 111q200 -65 200 -325l-1 -530q0 -40 60 -50q60 -20 60 -50 t-40 -30h-320q-40 0 -40 30t60 50q60 10 61 50v530q0 140 -120 205q-117 63 -305 -74q16 -58 16 -131l-1 -529q0 -40 60 -50q60 -20 60 -50t-40 -31l-320 1q-40 0 -40 30t60 50q60 10 61 49v530q0 140 -120 205q-112 60 -290 -63z" />
<glyph unicode="n" horiz-adv-x="1073" d="M280 780v-649q0 -40 60 -50q60 -20 60 -50t-40 -31l-320 1q-40 0 -40 30t60 50q60 10 60 49v730q1 40 -59 40t-60 30t60 50q59 20 100 20h79q40 0 40 -40v-100q210 180 405 120t195 -320l-1 -529q0 -40 60 -50q60 -20 60 -50t-40 -31l-320 1q-40 0 -40 30t60 50 q60 10 61 49v530q0 140 -115.5 200t-324.5 -80z" />
<glyph unicode="o" horiz-adv-x="962" d="M601.5 970q170.5 -70 230 -280t0 -405t-230 -265t-340 0t-230 265t0 405t230 280t340 0zM182 650q-30 -170 0 -320t139.5 -204.5t220 0t140.5 204.5t0 320t-140 225t-220 0t-140 -225z" />
<glyph unicode="p" horiz-adv-x="1026" d="M283 850v-710q200 -90 340.5 5t145 335t-115.5 360t-370 10zM283 30v-301q0 -39 60 -49q60 -20 60 -50t-39 -31h-321q-40 1 -40 31t60 50q60 9 60 50v1129q0 39 -60 39t-60 31q0 30 60 50q60 21 100 21h80q40 0 40 -40v-30q240 140 435.5 15t200 -415t-170.5 -440 t-465 -60z" />
<glyph unicode="q" horiz-adv-x="933" d="M654 -270v313q0 40 -39 20q-160 -112 -350.5 -27.5t-245.5 305t30 400t285.5 254.5t466.5 -75v-1190q-1 -40 66 -50q54 -20 54 -50t-39 -31h-301q-40 1 -40 31t57 49q56 10 56 51zM655 189v654q0 36 -27 44q-194 83 -324 -27t-139.5 -355t130.5 -349.5t322 -16.5 q37 11 38 50z" />
<glyph unicode="r" horiz-adv-x="753" d="M277 780v-649q0 -40 60 -50q60 -20 60 -50t-40 -31l-320 1q-40 0 -40 30t60 50q60 10 60 49v730q1 40 -59 40t-60 30t60 50q59 20 100 20h79q40 0 40 -40v-100q160 200 380 100v-200q1 -40 -29 -40t-50 60l-21 60q-120 100 -280 -60z" />
<glyph unicode="s" horiz-adv-x="800" d="M685 751l-38 209q-284 70 -449 11.5t-165 -220.5q0 -192 258.5 -288t259.5 -199q-1 -157 -193.5 -176.5t-240.5 82.5l-29 90q-10 30 -40 30q-51 0 -49 -31l38 -209q281 -80 471 -33.5t200 242.5q0 197 -259 292.5t-259 213.5q0 133 158 154.5t219 -79.5l29 -90 q11 -30 51 -30t38 31z" />
<glyph unicode="t" horiz-adv-x="611" d="M244 1320v-321q0 -20 20 -20l161 1q39 0 39 -50t-40 -50h-160q-20 -1 -21 -20v-541q0 -199 100.5 -219t180.5 20q40 10 40 -30.5t-40 -50.5q-161 -79 -301 -19t-140 299v541q1 19 -18 20l-60 -1q-41 1 -41 50.5t40 50.5l40 -1q40 0 40 39v182q-1 40 19 100t80 60h21 q40 0 40 -40z" />
<glyph unicode="u" horiz-adv-x="1057" d="M690 220v640q0 40 -80 40q-40 -1 -40 29t60 50.5t180 20.5q39 0 39 -40v-830q0 -39 60 -39t60 -30q0 -31 -60 -51t-100 -20l-69 1q-51 -1 -50 49v100q-210 -189 -405 -124.5t-195 324.5v520q0 40 -80 40q-40 -1 -40 29t60 50.5t120 20.5h60q40 0 40 -40v-620 q0 -140 115 -205t325 85z" />
<glyph unicode="v" horiz-adv-x="979" d="M-48 970q1 30 41 30h320q39 0 39 -29q0 -30 -60 -50q-60 -10 -45 -53l210 -586q15 -42 30 0l191 586q15 42 -46 53q-60 20 -60 50q20 29 40 29l261 1q40 -1 40 -31q0 -29 -60 -49q-60 -11 -80 -66l-301 -855h-59l-321 855q-20 55 -81 65q-60 20 -59 50z" />
<glyph unicode="w" horiz-adv-x="1474" d="M946 0h60l263 854q20 55 80 66q60 21 60 50t-40 30l-261 -1q-40 1 -40 -29t61 -50q60 -11 45 -53l-153 -545q-15 -43 -30 0l-209 630q-13 48 -52 48t-53 -45l-211 -634q-15 -42 -30 0l-172 547q-15 43 45 53q60 20 60 50q0 29 -39 29h-320q-40 0 -41 -30t59 -50 q61 -10 81 -65l281 -855h59l245 682q15 47 30 0z" />
<glyph unicode="x" horiz-adv-x="1034" d="M743 873q23 36 85 47q59 20 60 50q-1 31 -41 31h-260q-40 -1 -41 -32q1 -29 60 -50q60 -10 44 -36l-186 -271l-161 270q-16 28 44 36q60 22 60 52t-40 30h-320q-40 0 -40 -30t60 -54q60 -6 94 -46l223 -375l-254 -371q-23 -35 -83 -44q-60 -21 -60 -51q0 -29 40 -29h260 q40 0 40 30t-60 50l-30 10q-30 0 -14 25l207 302l180 -301q16 -25 -14 -25l-29 -11q-60 -20 -61 -49q1 -31 41 -31h320q40 0 40 31q1 30 -59 49q-61 11 -94 46l-243 408z" />
<glyph unicode="y" horiz-adv-x="979" d="M419 40l-306 825q-20 55 -81 65q-60 20 -59 40q1 30 41 30h320q39 0 39 -29q0 -20 -60 -40q-60 -10 -45 -53l210 -596q15 -42 30 0l191 596q15 42 -46 53q-60 20 -60 40q0 29 40 29l271 1q40 -1 40 -31q0 -19 -60 -39q-60 -11 -80 -66l-383 -1096q-71 -159 -172.5 -168 t-185.5 47q-53 44 -43 79.5t81 12.5q30 -42 105.5 -44.5t124.5 104.5z" />
<glyph unicode="z" horiz-adv-x="899" d="M41 1000l-40 -160q0 -40 40 -40t60 60t62 60h357q40 0 21 -26l-520 -788q-19 -26 -19 -66t39 -40h680l40 159q0 40 -40 40t-60 -60t-60 -60h-359q-40 1 -21 27l520 787q19 26 19 66t-38 41h-681z" />
<glyph unicode="{" horiz-adv-x="560" d="M160 730q200 -51 160 -410q-41 -360 160 -380q40 0 40 -30t-40 -30q-320 -1 -320 380t-160 460q-38 20 0 40q160 79 160 459.5t320 380.5q40 0 40 -30t-40 -30q-201 -20 -160 -380q40 -359 -160 -410q-36 -10 0 -20z" />
<glyph unicode="|" horiz-adv-x="200" d="M-1 0l1 1480h120l-1 -1480h-120z" />
<glyph unicode="}" horiz-adv-x="619" d="M360 750q-200 51 -159 410q40 360 -161 380q-40 0 -40 30t40 30q320 0 320 -380.5t161 -459.5q37 -20 -1 -40q-160 -79 -160 -460t-320 -380q-40 0 -40 30t40 30q201 20 161 380q-41 359 159 410q36 10 0 20z" />
<glyph unicode="~" d="M923 878v-156q-63 -72 -122 -97.5t-116 -25.5q-60 0 -177.5 48.5t-176.5 48.5q-51 0 -107.5 -28t-129.5 -112v156q64 73 123 99t114 26q64 0 181.5 -49.5t172.5 -49.5q52 0 108.5 28t129.5 112z" />
<glyph unicode="&#xa1;" horiz-adv-x="672" />
<glyph unicode="&#xa2;" horiz-adv-x="1139" />
<glyph unicode="&#xa3;" horiz-adv-x="880" d="M801 240v-200q0 -40 -40 -40h-720q-40 0 -41 40l1 120q-1 40 39.5 85.5t60.5 120t20 234.5q0 40 -40 40h-40q-40 0 -40 40v40q1 40 40 40h40q41 0 40 39q0 401 180.5 501t380.5 29q40 -9 40 -50q0 -40 -40 -39q-270 40 -335 -80t-61 -361q5 -40 35 -39h160q40 0 40 -40 v-40q0 -40 -39 -40h-161q-40 -1 -40 -40q0 -160 -20 -235t-40 -119.5t-20 -64.5t40 -20h401q39 -1 59 59t60 60t40 -40z" />
<glyph unicode="&#xa4;" d="M350 560q41 -40 99 -57q29 -8 58 -8t58 8q58 17 99 57q40 41 57 99q9 29 9 58t-9 58q-17 58 -57 99q-41 40 -100 57q-29 8 -58 8t-58 -9q-58 -17 -98 -56q-39 -40 -56 -98q-10 -30 -10 -60q0 -28 9 -56q16 -59 57 -100zM240 903l-118 118l80 81l118 -118q44 30 99 46 q44 14 89 14q41 0 83 -12q57 -17 102 -48l118 118l80 -81l-117 -117q31 -46 48 -102q12 -42 12 -85q0 -42 -12 -85q-17 -56 -48 -102l117 -117l-80 -81l-118 118q-45 -32 -101 -48q-42 -12 -85 -12q-42 0 -85 12q-57 16 -102 48l-118 -118l-80 81l118 117q-32 46 -48 103 q-12 42 -12 84q0 44 13 87q16 55 47 99z" />
<glyph unicode="&#xa5;" horiz-adv-x="1262" d="M547 225l-2 242q0 19 -1.5 35t-4.5 32l-484 1q-14 0 -21 6.5t-7 19.5t6.5 19t21.5 6h467l-121 172h-344q-17 0 -23.5 5.5t-6.5 18.5q0 14 6 19.5t22 5.5h307q-43 57 -108 155q-131 197 -227 197q-7 0 -13 5.5t-6 11.5q0 19 10.5 27.5t32.5 8.5q27 0 123 -8t164 -8h57h31 q33 0 41 -6.5t8 -26.5q0 -8 -15 -14t-38 -6q-6 0 -18.5 2t-18.5 2q-24 0 -37.5 -9.5t-13.5 -25.5q0 -18 16.5 -52t46.5 -77l158 -221q13 -19 33 -53q41 -70 71 -70q9 0 16.5 5t14.5 15l277 396q8 12 13 26.5t5 24.5q0 18 -10 27t-37 14q-15 2 -41 4q-47 3 -47 25 q0 15 8 22.5t25 7.5q3 0 15 -1q56 -7 108 -7h139q30 0 65 1t37 1q11 0 18.5 -4.5t8.5 -11.5q0 -28 -38 -34q-18 -3 -27 -5q-63 -15 -147 -117q-7 -9 -12 -15l-169 -206h323q15 0 24 -6t9 -17q0 -15 -6 -20.5t-23 -5.5h-366q-46 -57 -96.5 -112.5t-52.5 -59.5h511 q18 0 25.5 -5.5t7.5 -17.5q0 -14 -7 -21t-22 -7h-530q0 -11 -1 -30.5t-1 -29.5l2 -215q0 -114 5.5 -150t20.5 -44q30 -17 107.5 -19t77.5 -31q0 -12 -10 -20t-25 -8q-2 0 -35.5 4t-64.5 4q-91 0 -208.5 -4t-142.5 -4q-31 0 -40 4t-9 16t8 18.5t37 12.5q9 2 25 5q74 16 92 32 q17 13 24 47t7 102z" />
<glyph unicode="&#xa6;" d="M427 371h160v-789h-160v789zM427 1578h160v-789h-160v789z" />
<glyph unicode="&#xa7;" d="M545 321q56 16 97 53q73 65 73 166q0 5 -1 10h-2q-1 14 -4 27q-22 61 -113 127q-59 29 -126 29q-78 0 -125 -44.5t-47 -117.5q0 -123 248 -250zM466 -346q113 6 185 69q72 64 72 165q0 125 -316 276q-123 64 -175.5 137t-52.5 177q0 148 89 237q67 65 170 82l-40 19 q-123 64 -175.5 137t-52.5 177q0 148 89 237q82 79 216 86q8 1 17 1h3q66 0 163 -16.5t97 -41.5v-194h-51q-5 81 -80 132q-70 47 -149 51h-15q-78 0 -125 -44.5t-47 -117.5q0 -132 287 -269q149 -67 204.5 -143.5t55.5 -187.5q0 -171 -101 -282q-47 -39 -99 -64 q108 -56 154 -118q55 -77 55 -187q0 -171 -101 -283q-124 -102 -277 -105v1q-6 -1 -13 -1h-3q-66 0 -163 16.5t-97 41.5v194h51q5 -81 80 -132q68 -45 145 -50z" />
<glyph unicode="&#xa8;" horiz-adv-x="1024" d="M223 1289l71 72q13 12 25 12q11 0 27 -14l69 -73q10 -14 10 -25q0 -13 -12 -27l-69 -75q-17 -17 -25 -17q-14 0 -25 12l-76 86q-9 12 -9 23q0 13 14 26zM588 1289l71 72q13 12 25 12q11 0 27 -13l69 -74q10 -14 10 -25q0 -13 -12 -26l-69 -76q-17 -17 -25 -17 q-14 0 -25 12l-76 87q-9 11 -9 22q0 13 14 26z" />
<glyph unicode="&#xa9;" horiz-adv-x="1603" d="M741 1462q152 0 291 -60.5t243 -169.5q99 -102 152.5 -237.5t53.5 -276.5q0 -142 -53.5 -275.5t-156.5 -239.5q-105 -110 -243 -168.5t-294 -58.5q-153 0 -289 59.5t-242 169.5q-103 105 -155.5 237t-52.5 276q0 143 52.5 276.5t153.5 237.5q102 109 242.5 169.5 t297.5 60.5zM262 1193q-86 -84 -140.5 -209t-54.5 -266q0 -142 54.5 -265.5t154.5 -219.5q98 -91 214.5 -138t244.5 -47q130 0 248 46.5t215 136.5q100 97 155.5 222t55.5 265q0 139 -55.5 266t-151.5 220q-96 91 -215.5 138.5t-246.5 47.5q-130 0 -250.5 -47.5 t-227.5 -149.5zM392.5 366.5q-139.5 138.5 -139.5 347.5q1 205 140 344.5t345 139.5q207 0 356 -130l-129 -141q-99 77 -227 77q-131 0 -211 -81t-80 -207q1 -136 81 -215.5t211 -79.5t226 77l129 -142q-148 -129 -356 -129q-206 1 -345.5 139.5z" />
<glyph unicode="&#xaa;" horiz-adv-x="648" />
<glyph unicode="&#xab;" horiz-adv-x="1040" d="M938 1120l-102 -1q-30 1 -50 -20l-444 -515q-16 -24 2 -44l431 -520q31 -20 61 -20h102q30 0 8 37l-364 500q-14 23 -1 46l370 503q17 34 -13 34zM613 1120l-103 -1q-30 1 -50 -19l-443 -516q-17 -24 1 -44l432 -520q30 -20 60 -20h103q29 0 7 37l-364 500q-14 23 0 46 l369 503q17 34 -12 34z" />
<glyph unicode="&#xac;" d="M87 767h840v-491l-1 -1h-98v392h-741v100z" />
<glyph unicode="&#xae;" horiz-adv-x="1587" d="M746 1462q152 0 291 -60.5t243 -169.5q99 -102 152.5 -237.5t53.5 -276.5q0 -142 -53.5 -275.5t-156.5 -239.5q-105 -110 -243 -168.5t-294 -58.5q-153 0 -289 59.5t-242 169.5q-103 105 -155.5 237t-52.5 276q0 143 52.5 276.5t153.5 237.5q102 109 242.5 169.5 t297.5 60.5zM267 1193q-86 -84 -140.5 -209t-54.5 -266q0 -142 54.5 -265.5t154.5 -219.5q98 -91 214.5 -138t244.5 -47q130 0 248 46.5t215 136.5q100 97 155.5 222t55.5 265q0 139 -55.5 266t-151.5 220q-96 91 -215.5 138.5t-246.5 47.5q-130 0 -250.5 -47.5 t-227.5 -149.5zM564 809h250q108 1 111 98q-3 88 -109 92h-252v-190zM923 662l223 -390h-205l-215 370h-162v-370h-179v894h390q313 0 313 -257q0 -194 -165 -247z" />
<glyph unicode="&#xaf;" horiz-adv-x="670" />
<glyph unicode="&#xb0;" horiz-adv-x="600" d="M396 1186q0 68 -46.5 106.5t-98.5 38.5q-51 0 -98.5 -38.5t-47.5 -106.5q0 -67 47.5 -106.5t98.5 -39.5q52 0 98.5 39t46.5 107zM251 1436q111 0 180.5 -77.5t69.5 -173.5q0 -95 -70.5 -172.5t-181.5 -77.5t-180 76.5t-69 173.5q0 98 69.5 174.5t181.5 76.5z" />
<glyph unicode="&#xb1;" />
<glyph unicode="&#xb2;" />
<glyph unicode="&#xb3;" />
<glyph unicode="&#xb4;" horiz-adv-x="1024" d="M607 1375q35 35 55.5 47t40.5 12q33 0 53.5 -20t20.5 -51q0 -22 -15.5 -42t-46.5 -40l-330 -203h-69z" />
<glyph unicode="&#xb5;" horiz-adv-x="1180" />
<glyph unicode="&#xb6;" horiz-adv-x="1024" d="M929 1435v-70h-127v-1365h-82v1365h-166v-1365h-84v738q-174 8 -275.5 102.5t-101.5 245.5q0 157 107.5 253t285.5 96h443z" />
<glyph unicode="&#xb7;" horiz-adv-x="508" d="M145 740l82 84q15 14 29 14q13 0 31 -16l80 -86q12 -16 12 -29q0 -15 -14 -31l-80 -88q-20 -20 -29 -20q-16 0 -29 14l-88 101q-10 13 -10 26q0 15 16 31z" />
<glyph unicode="&#xb8;" horiz-adv-x="1024" d="M360 -290q85 -52 152 -52q66 0 94.5 21.5t28.5 66.5t-49 64q-40 16 -102 16q-16 0 -34 -2l48 176h63l-37 -104q32 4 62 5q86 0 134 -40.5t48 -113.5q0 -76 -58.5 -120.5t-160.5 -44.5q-109 0 -189 32v96z" />
<glyph unicode="&#xb9;" />
<glyph unicode="&#xba;" horiz-adv-x="718" />
<glyph unicode="&#xbb;" horiz-adv-x="1042" d="M17 1086l370 -503q13 -23 -1 -46l-364 -500q-22 -37 8 -37h102q30 0 61 20l431 520q18 20 2 44l-444 515q-20 21 -50 20l-102 1q-30 0 -13 -34zM343 1086l370 -503q13 -23 -1 -46l-364 -500q-22 -37 8 -37h102q30 0 61 20l431 520q18 20 2 44l-444 516q-20 20 -50 19 l-102 1q-30 0 -13 -34z" />
<glyph unicode="&#xbc;" horiz-adv-x="1708" />
<glyph unicode="&#xbd;" horiz-adv-x="1964" />
<glyph unicode="&#xbe;" horiz-adv-x="1708" />
<glyph unicode="&#xbf;" horiz-adv-x="748" />
<glyph unicode="&#xc0;" horiz-adv-x="1540" />
<glyph unicode="&#xc1;" horiz-adv-x="1540" />
<glyph unicode="&#xc2;" horiz-adv-x="1540" />
<glyph unicode="&#xc3;" horiz-adv-x="1540" />
<glyph unicode="&#xc4;" horiz-adv-x="1540" />
<glyph unicode="&#xc5;" horiz-adv-x="1540" />
<glyph unicode="&#xc6;" horiz-adv-x="2118" />
<glyph unicode="&#xc7;" horiz-adv-x="1399" />
<glyph unicode="&#xc8;" horiz-adv-x="1151" />
<glyph unicode="&#xc9;" horiz-adv-x="1151" />
<glyph unicode="&#xca;" horiz-adv-x="1151" />
<glyph unicode="&#xcb;" horiz-adv-x="1151" />
<glyph unicode="&#xcc;" horiz-adv-x="657" />
<glyph unicode="&#xcd;" horiz-adv-x="657" />
<glyph unicode="&#xce;" horiz-adv-x="657" />
<glyph unicode="&#xcf;" horiz-adv-x="657" />
<glyph unicode="&#xd0;" horiz-adv-x="1518" />
<glyph unicode="&#xd1;" horiz-adv-x="1554" />
<glyph unicode="&#xd2;" horiz-adv-x="1614" />
<glyph unicode="&#xd3;" horiz-adv-x="1614" />
<glyph unicode="&#xd4;" horiz-adv-x="1614" />
<glyph unicode="&#xd5;" horiz-adv-x="1614" />
<glyph unicode="&#xd6;" horiz-adv-x="1614" />
<glyph unicode="&#xd7;" d="M507 618l-247 -247l-99 99l247 247l-247 248l99 98l247 -247l248 247l98 -99l-247 -247l247 -247l-99 -99z" />
<glyph unicode="&#xd8;" horiz-adv-x="1614" />
<glyph unicode="&#xd9;" horiz-adv-x="1501" />
<glyph unicode="&#xda;" horiz-adv-x="1501" />
<glyph unicode="&#xdb;" horiz-adv-x="1501" />
<glyph unicode="&#xdc;" horiz-adv-x="1501" />
<glyph unicode="&#xdd;" horiz-adv-x="1233" />
<glyph unicode="&#xde;" horiz-adv-x="1120" />
<glyph unicode="&#xdf;" horiz-adv-x="1251" />
<glyph unicode="&#xe0;" horiz-adv-x="922" />
<glyph unicode="&#xe1;" horiz-adv-x="922" />
<glyph unicode="&#xe2;" horiz-adv-x="922" />
<glyph unicode="&#xe3;" horiz-adv-x="922" />
<glyph unicode="&#xe4;" horiz-adv-x="922" />
<glyph unicode="&#xe5;" horiz-adv-x="922" />
<glyph unicode="&#xe6;" horiz-adv-x="1454" />
<glyph unicode="&#xe7;" horiz-adv-x="905" />
<glyph unicode="&#xe8;" horiz-adv-x="909" />
<glyph unicode="&#xe9;" horiz-adv-x="909" />
<glyph unicode="&#xea;" horiz-adv-x="909" />
<glyph unicode="&#xeb;" horiz-adv-x="909" />
<glyph unicode="&#xec;" horiz-adv-x="514" />
<glyph unicode="&#xed;" horiz-adv-x="514" />
<glyph unicode="&#xee;" horiz-adv-x="514" />
<glyph unicode="&#xef;" horiz-adv-x="514" />
<glyph unicode="&#xf0;" horiz-adv-x="1139" />
<glyph unicode="&#xf1;" horiz-adv-x="1108" />
<glyph unicode="&#xf2;" horiz-adv-x="1010" />
<glyph unicode="&#xf3;" horiz-adv-x="1010" />
<glyph unicode="&#xf4;" horiz-adv-x="1010" />
<glyph unicode="&#xf5;" horiz-adv-x="1010" />
<glyph unicode="&#xf6;" horiz-adv-x="1010" />
<glyph unicode="&#xf7;" d="M87 647v140h839l1 -1v-139h-840zM398 408l82 84q15 14 29 14q13 0 31 -16l80 -86q12 -16 12 -29q0 -15 -14 -31l-80 -88q-20 -20 -29 -20q-16 0 -29 14l-88 101q-10 13 -10 26q0 15 16 31zM398 1101l82 84q15 14 29 14q13 0 31 -16l80 -86q12 -16 12 -29q0 -15 -14 -31 l-80 -88q-20 -20 -29 -20q-16 0 -29 14l-88 101q-10 13 -10 26q0 15 16 31z" />
<glyph unicode="&#xf8;" horiz-adv-x="1010" />
<glyph unicode="&#xf9;" horiz-adv-x="1059" />
<glyph unicode="&#xfa;" horiz-adv-x="1059" />
<glyph unicode="&#xfb;" horiz-adv-x="1059" />
<glyph unicode="&#xfc;" horiz-adv-x="1059" />
<glyph unicode="&#xfd;" horiz-adv-x="868" />
<glyph unicode="&#xfe;" horiz-adv-x="1010" />
<glyph unicode="&#xff;" horiz-adv-x="868" />
<glyph unicode="&#x131;" horiz-adv-x="514" d="M328 223q0 -173 100 -173h46v-50h-442v50h46q100 0 100 173v432q0 77 -111 77h-48v44q222 69 261 182h48v-735z" />
<glyph unicode="&#x2c6;" horiz-adv-x="1024" d="M221 1079l232 355h118l232 -355h-58l-233 216l-233 -216h-58z" />
<glyph unicode="&#x2c7;" horiz-adv-x="1024" d="M221 1434h58l233 -214l233 214h58l-232 -356h-118z" />
<glyph unicode="&#x2c9;" horiz-adv-x="1024" d="M254 1195v125h516v-125h-516z" />
<glyph unicode="&#x2d8;" horiz-adv-x="1024" d="M219 1349h51q17 -73 75 -107t167 -34t166 33.5t74 107.5h51q-20 -133 -94 -201.5t-197 -68.5q-122 0 -197 69t-96 201z" />
<glyph unicode="&#x2d9;" horiz-adv-x="1024" d="M422 1289l69 72q6 6 13 9t14 3q6 0 12.5 -3t12.5 -9l71 -76q5 -4 7 -10t2 -14q-1 -9 -3 -15t-8 -12l-71 -76q-12 -11 -16 -13.5t-7 -2.5q-10 0 -16.5 2.5t-10.5 8.5l-75 87q-4 4 -6 9.5t-2 13.5q0 6 3 12.5t11 13.5z" />
<glyph unicode="&#x2da;" horiz-adv-x="1024" d="M411 1257q0 -42 29 -71t71 -29t71 29t29 71q0 40 -29.5 69.5t-70.5 29.5t-70.5 -29.5t-29.5 -69.5zM335 1257q0 75 51 126t125 51q76 0 127.5 -51.5t51.5 -125.5q0 -75 -51.5 -126.5t-127.5 -51.5q-74 0 -125 51.5t-51 126.5z" />
<glyph unicode="&#x2db;" horiz-adv-x="1024" d="M640 0q-71 -62 -110.5 -119.5t-39.5 -112.5q0 -47 27 -75t73 -28q40 0 69.5 15.5t49.5 48.5l28 -16q-36 -63 -90.5 -97t-119.5 -34q-70 0 -114 35.5t-44 90.5q0 76 60.5 156.5t161.5 135.5h49z" />
<glyph unicode="&#x2dc;" horiz-adv-x="1024" d="M808 1382q-20 -103 -68.5 -154t-126.5 -51h-4q-50 0 -113 23q-66 24 -114 24q-39 0 -60.5 -20.5t-33.5 -71.5h-54q19 106 68 158.5t129 52.5q46 -1 113 -24q64 -23 112 -23h4q36 0 58 20t36 66h54z" />
<glyph unicode="&#x2dd;" horiz-adv-x="1024" d="M217 1079l144 273q24 44 45.5 63t46.5 19q28 0 48 -20t20 -47q0 -16 -10.5 -35t-30.5 -41l-205 -212h-58zM502 1079l144 273q24 44 45.5 63t46.5 19q28 0 48 -20t20 -47q0 -16 -10.5 -35t-30.5 -41l-205 -212h-58z" />
<glyph unicode="&#x2013;" horiz-adv-x="1080" d="M0 760v-80h1000v80h-1000z" />
<glyph unicode="&#x2014;" horiz-adv-x="1640" d="M0 760v-80h1560v80h-1560z" />
<glyph unicode="&#x2018;" horiz-adv-x="280" d="M89 1359q9 1 20 1q89 0 89.5 -80t-89.5 -79.5t-90 79.5q-19 200 162 200q39 0 39.5 -25t-39.5 -25q-67 7 -92 -71z" />
<glyph unicode="&#x2019;" horiz-adv-x="280" d="M149 1322q-9 -1 -20 -1q-89 0 -89.5 80t89.5 79.5t90 -80.5q19 -199 -162 -200q-39 0 -39.5 25t39.5 25q67 -6 92 72z" />
<glyph unicode="&#x201a;" horiz-adv-x="557" d="M238 281q44 0 88.5 -65.5t44.5 -151.5q0 -109 -71 -226.5t-139 -117.5v43q73 43 87 190q0 119 -129 161v42z" />
<glyph unicode="&#x201c;" horiz-adv-x="480" d="M89 1356q9 1 20 1q89 0 89.5 -80t-89.5 -79.5t-90 80.5q-19 199 162 200q39 0 39.5 -25t-39.5 -25q-67 6 -92 -72zM307 1356q9 1 19 1q90 0 90.5 -80t-89.5 -79.5t-90 80.5q-19 200 162 200q39 0 39.5 -25t-39.5 -25q-67 6 -92 -72z" />
<glyph unicode="&#x201d;" horiz-adv-x="480" d="M366 1320q-9 -1 -19 -1q-90 0 -90.5 80t89.5 79.5t90 -80.5q20 -199 -161 -200q-39 0 -39.5 25t39.5 25q66 -6 91 72zM149 1320q-9 -1 -20 -1q-89 0 -89.5 80t89.5 79.5t90 -80.5q19 -200 -162 -200q-39 0 -39.5 25t39.5 25q67 -6 92 72z" />
<glyph unicode="&#x201e;" horiz-adv-x="910" d="M238 281q44 0 88.5 -65.5t44.5 -151.5q0 -109 -71 -226.5t-139 -117.5v43q73 43 87 190q0 119 -129 161v42zM591 281q44 0 88.5 -65.5t44.5 -151.5q0 -109 -71 -226.5t-139 -117.5v43q73 43 87 190q0 119 -129 161v42z" />
<glyph unicode="&#x2020;" d="M486 1022q-8 97 -54 178q-57 101 -57 129q0 49 36 78.5t96 29.5q57 0 94.5 -27.5t37.5 -71.5q0 -32 -55 -137q-46 -85 -55 -179q96 8 177 54q101 57 129 57q49 0 79 -36t30 -96q0 -57 -27.5 -94.5t-72.5 -37.5q-32 0 -136 55q-85 46 -179 57q8 -176 110 -277 q-106 -460 -112 -974h-38q-6 514 -114 974q102 101 111 277q-96 -10 -178 -55q-101 -57 -129 -57q-49 0 -78.5 36t-29.5 96q0 57 27.5 94.5t71.5 37.5q32 0 137 -56q85 -46 179 -55z" />
<glyph unicode="&#x2021;" d="M528 186q94 11 179 57q104 55 136 55q45 0 72.5 -37.5t27.5 -94.5q0 -60 -30 -96t-79 -36q-28 0 -129 57q-81 46 -177 54q9 -94 55 -179q55 -105 55 -137q0 -44 -37.5 -71.5t-94.5 -27.5q-60 0 -96 29.5t-36 78.5q0 28 57 129q46 81 54 178q-94 -9 -179 -55 q-105 -56 -137 -56q-44 0 -71.5 37.5t-27.5 94.5q0 60 29.5 96t78.5 36q28 0 129 -57q82 -45 178 -55q-9 226 -111 398q102 171 111 397q-96 -10 -178 -55q-101 -57 -129 -57q-49 0 -78.5 36t-29.5 96q0 57 27.5 94.5t71.5 37.5q32 0 137 -56q85 -46 179 -55q-8 97 -54 178 q-57 101 -57 129q0 49 36 78.5t96 29.5q57 0 94.5 -27.5t37.5 -71.5q0 -32 -55 -137q-46 -85 -55 -179q96 8 177 54q101 57 129 57q49 0 79 -36t30 -96q0 -57 -27.5 -94.5t-72.5 -37.5q-32 0 -136 55q-85 46 -179 57q8 -226 110 -397q-102 -172 -110 -398z" />
<glyph unicode="&#x2022;" horiz-adv-x="1024" d="M216 718q0 123 87 209t210 86q122 0 208.5 -86.5t86.5 -208.5t-87.5 -209.5t-209.5 -87.5q-123 0 -209 87t-86 210z" />
<glyph unicode="&#x2026;" horiz-adv-x="1099" d="M111 159.5q90 -0.5 90 -80t-89.5 -79.5t-90 80t89.5 79.5zM511 159.5q90 -0.5 90 -80t-89.5 -79.5t-90 80t89.5 79.5zM911 159.5q90 -0.5 90 -80t-89.5 -79.5t-90 80t89.5 79.5z" />
<glyph unicode="&#x2039;" horiz-adv-x="631" d="M174 479l342 303h14v-37l-205 -266l205 -266v-37h-14z" />
<glyph unicode="&#x203a;" horiz-adv-x="631" d="M115 176h-14v37l205 266l-205 266v37h14l342 -303z" />
<glyph unicode="&#x2044;" horiz-adv-x="342" d="M-342 -29l940 1461h84l-938 -1461h-86z" />
<glyph unicode="&#x20a3;" d="M247 357h-194v60h194v732q0 235 -103 235h-96v50h915l103 -231h-49q-59 182 -190 182l-316 -1q-102 0 -102 -235v-352h361q100 0 100 63v58h50v-342h-50v60q0 62 -100 62h-361v-281h194v-60h-194v-72q0 -235 102 -235h97v-50h-560v50h96q103 0 103 235v72z" />
<glyph unicode="&#x20a4;" d="M748 1347q-72 31 -160 31h-2q-100 0 -190 -101q-84 -93 -84 -241q0 -15 1 -30q0 -106 33 -213h380v-60h-360q12 -30 26 -60h352v-60h-321q35 -63 35 -138q0 -161 -162 -375h402q130 0 189 132l49 -1l-103 -231h-719l1 50q187 238 187 418q0 77 -34 143l-2 2h-172v60h143 q-14 31 -26 60h-135v60h113q-36 107 -36 193q0 226 123.5 347t310.5 121q75 0 185.5 -14t110.5 -34v-161h-58q-5 61 -77 102z" />
<glyph unicode="&#x20a7;" horiz-adv-x="2028" d="M409 1384v-662q3 -9 7 -17q41 -102 108 -153q57 -44 116 -44q10 0 19 1q68 8 127 75t87 177q22 87 22 179q0 24 -1 47q-7 116 -49.5 218.5t-108.5 144.5q-56 35 -112 35q-10 0 -21 -1h-194zM1496 908h-179v-685q0 -81 34 -119q28 -31 81 -37l-71 192l49 1 q55 -130 114 -174q57 -44 127 -44h7q92 0 151 52q59 53 59 136q0 102 -259 226q-101 52 -144 112t-43 145q0 121 73 194zM1039 910q-7 -101 -48 -194q-50 -114 -141 -177.5t-190 -63.5q-100 0 -191 64q-33 22 -60 51v-305q0 -235 102 -235h97v-50h-560v50h96q103 0 103 235 v864q0 235 -103 235h-96v50h618q92 -2 181 -62q91 -62 143 -177q50 -113 51 -237h10q216 0 216 355h50v-355h259q42 19 110 20h2q54 0 133.5 -13.5t79.5 -33.5v-159h-42q-4 66 -65.5 108t-133.5 42q-64 0 -102.5 -36.5t-38.5 -96.5q0 -108 235 -220q122 -55 167.5 -117.5 t45.5 -153.5q0 -140 -83 -231q-102 -84 -228 -86q-58 0 -105 11q-28 6 -56 6q-18 0 -36 -3q-28 -5 -59 -5q-124 0 -173.5 57t-57.5 176h-1v687h-129z" />
<glyph unicode="&#x20ac;" horiz-adv-x="1301" d="M772 1182q-194 -1 -336 -144q-73 -75 -101 -163h574v-128h-594q-1 -20 -1 -40v-10q0 -20 1 -40h594v-128h-574q28 -88 101 -163q142 -143 336 -144q125 0 254 52l146 -146q-175 -108 -400 -108q-289 0 -485 196q-134 135 -177 313h-111v128h93q-1 20 -1 42v6q0 22 1 42 h-93v128h111q43 178 177 313q196 196 485 196q226 0 402 -109l-150 -151q-126 58 -252 58z" />
<glyph unicode="&#x2116;" horiz-adv-x="2271" />
<glyph unicode="&#x2122;" horiz-adv-x="1497" />
<glyph unicode="&#x2202;" d="M232 537q0 -41 5 -79q14 -122 61.5 -230t118.5 -165q64 -53 128 -53q6 0 13 1q70 5 127.5 70.5t80.5 179.5q16 73 16 149q0 42 -5 85q-14 122 -62.5 231.5t-119.5 165.5q-65 50 -128 50h-11q-68 -5 -126 -69.5t-82 -178.5q-16 -84 -16 -157zM937 477q0 -132 -56.5 -251 t-159 -185t-214.5 -66t-214.5 66t-159 185t-56.5 251q0 131 58 251t161 185t211 65q109 0 212 -65q29 -18 54 -41q-84 235 -233.5 377t-326.5 155v55q306 0 515 -285t209 -697z" />
<glyph unicode="&#x2206;" horiz-adv-x="1081" d="M514 1195l-406 -1072h801zM547 1434l526 -1434h-1067z" />
<glyph unicode="&#x220f;" horiz-adv-x="1515" d="M511 1384q-102 0 -102 -235v-1281q0 -235 102 -235h97v-51h-560v51h96q103 0 103 235v1281q0 235 -103 235h-96v50h1419v-50h-97q-102 0 -102 -235v-1281q0 -235 102 -235h97v-50h-560v50h96q103 0 103 235v1281q0 235 -103 235h-492z" />
<glyph unicode="&#x2211;" horiz-adv-x="1206" d="M1059 548l-788 -914h635q130 0 189 182h49l-103 -232h-921v50q62 0 106 53l663 781l-663 859q-44 57 -106 57v50h921l103 -232h-49q-59 182 -189 182h-485z" />
<glyph unicode="&#x2212;" horiz-adv-x="721" d="M39 482q-40 0 -41 40q0 40 40 40h524q40 0 40 -40q-1 -40 -41 -40h-522z" />
<glyph unicode="&#x221a;" d="M181 0l-164 359l74 35l85 -185l728 1470h150v-60h-72z" />
<glyph unicode="&#x221e;" d="M439 755q-15 103 -74 133q-46 22 -84 22q-12 0 -23 -2q-49 -10 -92.5 -44.5t-65.5 -84.5q-20 -46 -20 -90v-8q2 -48 27.5 -89t71.5 -58q29 -11 61 -11q16 0 33 3q47 10 90.5 43.5t75.5 185.5zM466 687q12 -96 94 -153q69 -48 123 -48q11 0 21 2q62 12 117.5 52t84.5 101 q26 54 26 108v11q-2 60 -35.5 108.5t-91.5 68.5q-37 13 -76 13q-22 0 -44 -4q-67 -9 -127 -62t-92 -197zM450 827q9 35 21 69q34 88 95 137t128 49t128 -48t95 -135t34 -182t-34 -182t-95 -135t-128 -48t-128 49t-95 136q-12 35 -21 70q-5 -21 -12 -41q-27 -73 -74 -113 t-99 -40t-100 41t-73.5 113.5t-25.5 149.5q0 76 25.5 149t73.5 114t100 41t99 -40t74 -112q7 -21 12 -42z" />
<glyph unicode="&#x222b;" horiz-adv-x="665" d="M-12 -281q-60 0 -60 29v159h36q1 -43 34.5 -64.5t63.5 -21.5h1q82 0 115 162q32 162 40 316l70 734l8 62q27 238 135 429.5t234 191.5q60 0 60 -29v-159h-36q-1 43 -35 64.5t-63 21.5q-71 0 -116 -155.5t-49 -363.5l-73 -767q-20 -231 -130.5 -420t-234.5 -189z" />
<glyph unicode="&#x2248;" d="M923 1053v-156q-63 -72 -122 -97.5t-116 -25.5q-60 0 -177.5 48.5t-176.5 48.5q-51 0 -107.5 -28t-129.5 -112v156q64 73 123 99t114 26q64 0 181.5 -49.5t172.5 -49.5q52 0 108.5 28t129.5 112zM923 705v-156q-63 -72 -122 -97.5t-116 -25.5q-60 0 -177.5 48.5 t-176.5 48.5q-51 0 -107.5 -28t-129.5 -112v156q64 73 123 99t114 26q64 0 181.5 -49.5t172.5 -49.5q52 0 108.5 28t129.5 112z" />
<glyph unicode="&#x2264;" d="M927 1074l-625 -359l625 -355v-167l-840 481v83l840 484v-167zM87 1v140h839l1 -1v-139h-840z" />
<glyph unicode="&#x2265;" d="M87 1241l840 -484v-83l-840 -481v167l625 355l-625 359v167zM87 2v140h839l1 -1v-139h-840z" />
<glyph unicode="&#xe000;" horiz-adv-x="1000" d="M0 1000h1000v-1000h-1000v1000z" />
<glyph unicode="&#xf001;" horiz-adv-x="1073" />
<glyph unicode="&#xf002;" horiz-adv-x="1081" />
</font>
</defs>
</svg>
