<?xml version="1.0" standalone="no"?>
<!DOCTYPE svg PUBLIC "-//W3C//DTD SVG 1.1//EN" "http://www.w3.org/Graphics/SVG/1.1/DTD/svg11.dtd" >
<svg xmlns="http://www.w3.org/2000/svg">
<metadata></metadata>
<defs>
<font id="klepto_itc_ttroman" horiz-adv-x="1024" >
<font-face units-per-em="2048" ascent="1638" descent="-410" />
<missing-glyph horiz-adv-x="453" />
<glyph unicode="&#xd;" horiz-adv-x="453" />
<glyph unicode=" "  horiz-adv-x="453" />
<glyph unicode="&#x09;" horiz-adv-x="453" />
<glyph unicode="&#xa0;" horiz-adv-x="453" />
<glyph unicode="!" horiz-adv-x="551" d="M424 1132v-10q0 -14 -7 -42q-1 -3 -1 -5l-2 -14q-2 -8 -6 -25q-25 -106 -25 -186v-12l4 -15q2 -6 3 -13.5t1 -21.5q0 -10 -2.5 -20.5t-9.5 -28.5q1 -6 1.5 -13.5t0.5 -20.5q0 -12 -1 -27.5t-1 -18.5q0 -2 1 -6t1 -6l-10 -20l12 -31l-16 -23v-4q4 -20 4 -28 q0 -18 -5.5 -51.5t-5.5 -49.5q1 -6 1.5 -12t2.5 -19q-18 -21 -86 -47q-24 -9 -37 -14q-35 4 -52 23.5t-17 56.5q0 4 3 24t3 37q0 32 -3.5 87.5t-10.5 128.5q2 12 3 18.5t1 11.5q0 10 -2 26.5t-2 22.5v6q2 21 2 39q0 39 2.5 59.5t7.5 31.5q0 6 -2 21.5t-2 25.5v28q0 10 -2 31 t-2 33q3 11 7 31q1 4 1 5q-4 54 -7.5 111t-4.5 114q18 30 39.5 46t44.5 16q7 0 20.5 -4t20.5 -4q8 0 12.5 0.5t7.5 1.5l12 4q66 -3 89.5 -31.5t23.5 -111.5q0 -26 -2.5 -51.5t-7.5 -53.5zM387 125l8 -14q1 -1 1.5 -3t0.5 -6v-8q0 -4 1 -13.5t1 -14.5l-26 -27h4l10 -2l-4 -2 l-2 -6q-14 -18 -30 -30.5t-33 -20.5q-9 -3 -17 -4t-25 -1q-15 0 -65 8q-22 3 -35 5q-33 28 -48 57t-15 63v7q10 23 20 64q18 72 60 83l14 2q9 11 21 17t31 9q10 -9 57 -28q28 -11 44 -18q6 -12 10.5 -23.5t6.5 -20.5l8 -26q0 -1 1 -4q4 -16 7 -25z" />
<glyph unicode="&#x22;" horiz-adv-x="625" d="M360 1272l7 22v9q0 26 10 41t35 24l16 -4q36 -13 89 -29q79 -23 79 -53q0 -22 -46 -112.5t-73 -168.5q-4 -5 -7 -11t-5 -13q-6 -30 -27 -54q-5 -6 -6 -8l-6 -10l-8 -10l-4 -8v-6q-10 -12 -28 -23q-2 -1 -3 -2l-7 -5q-4 -5 -9 -8t-11 -3q-7 0 -13.5 2.5t-15.5 9.5 q-9 -3 -15 -4.5t-11 -1.5h-6q-13 0 -20.5 6.5t-10.5 19.5l6 18q3 24 8.5 50t14.5 55v6q0 11 2.5 18t7.5 13q1 9 14.5 57t22.5 89l10 8q0 4 -1 10.5t-1 9.5q0 26 10 58q2 5 2 8zM80 1272l6 22v9q0 26 10 40.5t35 24.5l16 -4q36 -13 89 -29q79 -23 79 -53q0 -22 -46 -112.5 t-72 -167.5q-5 -7 -8 -13t-5 -13q-6 -29 -26 -52q-5 -6 -6 -8l-7 -11l-8 -10l-4 -8v-6q-8 -10 -19 -17.5t-12 -7.5l-6 -4q-4 -6 -9 -9t-12 -3q-7 1 -15 4.5t-13 7.5q-2 -1 -7 -2q-12 -4 -20 -4h-6q-13 0 -20 6t-10 21l6 18q6 44 19 86q3 10 3 12v6q-5 5 -8 10.5t-4 10.5 q2 5 7 8.5t15 7.5q4 25 19.5 73t17.5 72q6 22 12 53.5t9 41.5z" />
<glyph unicode="#" horiz-adv-x="1331" d="M1130 352l-6 -2h-6q-12 -3 -28 -4.5t-50 -1.5q-7 0 -22.5 2t-22.5 2h-39l-8 2l-6 18q-4 -13 -9.5 -17.5t-17.5 -4.5q-2 0 -18 1t-31 1h-20l-10 -8q-11 -69 -30 -131q-3 -10 -3 -12q0 -1 -1 -7q-3 -24 -3 -51v-12q0 -24 -2 -46.5t-6 -45.5q-12 -12 -16.5 -16t-9.5 -7 l-28 -2l6 -4q-15 -5 -22 -6.5t-12 -1.5l-19 4q-18 -8 -33.5 -12t-29.5 -4l-13 2h-6q-11 0 -14.5 4.5t-3.5 19.5q0 9 14.5 59.5t24.5 88.5q3 31 9.5 56t16.5 44q4 27 9 49t11 41q-45 1 -90 1.5t-106 0.5l-8 4q-3 -22 -12 -73q-24 -135 -31 -216v-4q0 -20 -10.5 -33t-32.5 -20 h-4q-2 0 -18 -3t-31 -5l-17 4q-10 -9 -20 -12.5t-25 -3.5t-26.5 12t-16.5 33q28 107 40 147t22 62q4 17 9 44q11 56 21 60l-4 2q-48 -3 -75.5 -4.5t-34.5 -1.5q-14 -3 -31 -4.5t-53 -1.5h-6q-26 2 -49 2q-18 0 -26 -0.5t-15 -1.5q-14 4 -21.5 16t-7.5 29q0 49 20 84t52 35h8 q2 0 36.5 -3t67.5 -3h21l133 2q13 4 31 126.5t41 219.5l4 18q-28 0 -54 -1t-51 -3q-14 -3 -31 -4.5t-53 -1.5h-6q-25 2 -47 2q-9 0 -19.5 -0.5t-21.5 -1.5q-18 8 -27.5 19.5t-9.5 27.5q0 5 0.5 7.5t1.5 4.5q2 6 5.5 10.5t8.5 7.5v5q0 5 7 22.5t8 28.5q6 15 19.5 23t33.5 8h6 q15 0 54.5 -4t66.5 -4h133v6q7 48 14 80.5t13 42.5q3 8 4.5 14t1.5 10q-1 9 -1.5 19t-0.5 24q0 34 4 66t12 61q4 3 12 10t12 10l30 3l-7 4q5 2 12.5 4t22.5 4l17 -4q14 7 31 12t35 6l11 -2h7q9 0 13.5 -5.5t4.5 -16.5q0 -7 -11 -50.5t-55 -200.5q-1 -15 -5 -35.5t-11 -49.5 l-6 -6l7 -1q2 -2 6.5 -3.5t10.5 -1.5l23 2l20 -4q27 3 54.5 4.5t56.5 1.5h16q5 0 8 3t5 10q15 72 26 139.5t17 131.5v4q0 22 10 35t33 19h4l49 8l16 -4q12 10 21.5 14t19.5 4q19 0 31 -11t16 -33q-10 -36 -26 -97q-24 -90 -35 -117l-7.5 -33.5t-15.5 -69.5l-2 -7q6 0 18 1 q38 3 52 3h17q14 3 30.5 4.5t34.5 1.5q1 0 7 -1q23 -1 46 -1h19l4 4q7 1 14.5 1.5t18.5 0.5q24 0 39.5 -8.5t15.5 -20.5v-6q-15 -62 -30 -94.5t-32 -42.5q-7 -1 -15.5 -1.5t-25.5 -0.5q-27 0 -53 3.5t-51 10.5q-10 0 -24.5 -1t-18.5 -1h-84q-15 0 -46 -182 q-18 -102 -30 -166v-4q0 -5 2.5 -7.5t10.5 -2.5h34h33h29q19 3 34 4.5t27 1.5q7 0 13.5 -0.5t14.5 -1.5h17l4 4q18 4 34 6t30 2q16 0 24 -5t11 -15l-2 -8q-2 -20 -8.5 -36.5t-18.5 -31.5v-4q0 -4 -5 -17.5t-7 -21.5l-2 -8zM713 547l-11 10q18 62 28 102t17 76l1 10q0 3 4 26 q3 17 6 30l-4 17q4 16 7 26.5t5 15.5l-8 2q-48 1 -90.5 1.5t-79.5 0.5q-12 0 -16.5 -4.5t-4.5 -13.5v-27h-8l10 -12q-15 -51 -26.5 -94.5t-20.5 -83.5l2 -10q-2 -15 -5.5 -33t-4.5 -23l2 -10l-2 -16l-2 -9v-4v-4q0 -4 -3.5 -10t-8.5 -10l16 -4h27l19 -2q34 1 68 2.5t66 3.5 q0 3 5 16q2 6 3 10l1 21h8z" />
<glyph unicode="$" horiz-adv-x="885" d="M535 1245q33 -5 65 -13t64 -20q48 -32 67.5 -49.5t26.5 -32.5l6 -4l2 -4q10 -5 14 -11t4 -15v-4l10 -22q8 -17 11.5 -34.5t3.5 -35.5q1 -3 3.5 -6t10.5 -11v-8q0 -3 -1 -15t-1 -20v-31q0 -4 -2 -20q-1 -9 -2 -15q-18 -17 -48.5 -22.5t-35.5 -7.5h-16h-5q-22 2 -42 2 q-11 0 -17 -0.5t-11 -1.5l-13 4l-8 6h-5l-14 14q-13 14 -15 54.5t-12 58.5q-9 24 -20.5 34.5t-29.5 12.5l-13 -2l-6 2q0 -7 -2 -34.5t-2 -47.5q0 -9 4 -26.5t10 -36.5q-3 -9 -4.5 -16.5t-1.5 -10.5q0 -11 1 -24t1 -15q0 -5 -2 -13t-6 -18q3 -9 4.5 -15.5t1.5 -10.5 q4 -2 10 -4t18 -4l19 -4l12 -3q122 -22 194.5 -111t72.5 -214q0 -49 -3.5 -76.5t-11.5 -53.5q-7 -40 -32.5 -74t-71.5 -62q-17 -13 -42.5 -31t-29.5 -23q-16 -10 -30 -15t-29 -5l-17 2l-4 -2q-6 -5 -12.5 -8t-13.5 -4l-15 -2q0 -29 0.5 -50.5t1.5 -43.5l2 -18 q-5 -24 -18 -34t-39 -10q-6 0 -12.5 1t-18.5 3q-7 -3 -15.5 -4.5t-18.5 -1.5q-23 0 -40.5 9t-31.5 28q0 57 1 78.5t3 33.5q-27 3 -62 11.5t-79 23.5q-38 23 -61 44t-30 38l-4 4q-11 7 -16.5 15t-5.5 18v4l-10 20q-11 22 -17 53.5t-6 69.5q0 27 3 46.5t9 31.5 q15 17 43.5 20.5t36.5 8.5q8 -3 16.5 -4.5t18.5 -1.5q2 0 20 1.5t35 2.5l7 -4h6q10 0 16 -6.5t6 -17.5q6 -16 12 -105v-15q10 -17 27.5 -29t44.5 -20l17 -8l4 4l-4 -2q0 6 1 12.5t3 12.5l-2 6q-2 6 -5 20q3 15 6 31.5t3 17.5v9l-1 10t-1 18l2 15q-6 25 -8.5 48.5t-2.5 49.5 v10q0 10 -0.5 17.5t-1.5 15.5v8q-19 3 -39 8t-41 13l-36 14l-21 16q-75 41 -124 111.5t-54 140.5l6 13l4 13q-3 12 -4.5 23t-1.5 21q0 9 2 16t6 14q3 39 18.5 75.5t43.5 70.5q7 5 14 13.5t14 22.5l23 3l-8 6l6 6l10 8q18 26 41 38t55 12h19q11 7 22 10.5t23 3.5h8l6 4l4 5 q-3 23 -9.5 57t-6.5 44v4q7 6 16.5 12.5t22.5 14.5q17 4 34 6t38 2t34.5 -2.5t22.5 -7.5l14 -4q10 -6 14.5 -14.5t4.5 -26.5q0 -3 -5 -27.5t-7 -44.5zM369 805q-5 23 -7 50.5t-2 59.5q0 28 1 65.5t1 47.5q-10 -3 -26.5 -8.5t-23.5 -7.5l-25 -11l4 -14q-10 -14 -15.5 -26.5 t-5.5 -22.5q0 -11 1 -17.5t3 -13.5v-6q0 -35 15.5 -54t56.5 -34zM508 273q22 1 39.5 9.5t30.5 24.5q15 14 22.5 40t7.5 65v16q-11 33 -33.5 53t-64.5 35q0 -18 -1 -81t-1 -107v-55z" />
<glyph unicode="%" horiz-adv-x="1278" d="M633 1025l2 -5v-6l2 -17q-2 -24 -8 -42t-17 -32v-18q-6 -7 -12 -16t-16 -27l-6 -10v4l-5 -14q-10 -12 -22 -22t-27 -19h-4l-14 -8q-14 -12 -26.5 -17.5t-26.5 -5.5h-9l-6 -4q-5 -2 -12 -3.5t-14 -2.5h-4q-13 -7 -24 -9.5t-30 -2.5h-3q-12 2 -23 2l-17 -2q-52 0 -97 17 t-83 52l-29 1q-6 19 -14 36t-18 33v4l-13 12v4h-9q-8 32 -11.5 66.5t-3.5 73.5q0 45 7.5 81t22.5 68v21q14 13 22 24t13 22v13q21 15 30 24t16 19l16 2l-8 6l14 6q12 14 26.5 20.5t30.5 6.5h6l25 6l4 4l10 6q17 4 35 6t39 2q2 0 19.5 -1.5t32.5 -2.5q40 0 69.5 -9t52.5 -30 q10 -10 23 -17.5t28 -12.5q5 -13 18.5 -35t18.5 -35q3 -9 7.5 -14.5t11.5 -8.5q11 -25 16.5 -48t5.5 -44q0 -19 -8 -76q-3 -17 -4 -25zM937 1354q29 5 43.5 7t27.5 3h16q15 0 29 -1.5t28 -4.5h6q9 0 15 -6.5t6 -16.5l-2 -14q-13 -23 -24 -40.5t-23 -33.5l-15 -12l-10 -14 q-21 -48 -43 -82t-45 -58q-15 -33 -51.5 -94.5t-48.5 -93.5q-14 -22 -29 -49t-18 -31l-11 -20h-6l6 -13q-31 -43 -68 -101t-46 -71q-8 -18 -23.5 -46t-15.5 -38v-2q-99 -155 -198.5 -342.5t-123.5 -187.5q-3 0 -5 0.5t-3 1.5q-7 0 -15 1t-9 1q-2 0 -12 -1q-37 -5 -71 -5 q-16 1 -26.5 11t-15.5 31l2 13q69 106 97 146t40 55q4 15 11.5 31t19.5 34l7 4q4 5 7.5 9t9.5 10v2q0 7 35 65q33 54 55 93q24 53 73.5 138t127.5 206q19 44 99 182q45 77 71 123q8 6 13.5 13t8.5 15q7 32 27.5 75t52.5 93q5 4 10.5 10t6.5 7zM1231 266l-2 -12v-6l2 -19 q0 -19 -6 -37.5t-17 -34.5v-18q-13 -15 -19.5 -24.5t-10.5 -17.5l-7 -11v4l-4 -15q-9 -11 -21.5 -21.5t-27.5 -18.5h-4l-14 -8q-11 -12 -24.5 -18.5t-28.5 -6.5h-7l-6 -4q-3 -2 -8.5 -3t-19.5 -1h-5q-9 -7 -19 -9.5t-34 -2.5h-3q-12 2 -23 2l-17 -2h-8q-50 0 -93 17t-79 52 l-27 1q-5 14 -13.5 30.5t-20.5 36.5v6l-11 12v4h-10q-8 38 -12 73t-4 69q0 46 7.5 81.5t22.5 65.5v19q13 12 22 24t15 25v10q11 9 22 20.5t22 24.5h18l-8 6l13 8q12 13 26.5 20t29.5 7h6q3 0 9 1.5t16 4.5l4 4l12 4q13 5 27.5 7.5t34.5 2.5q9 0 37 -3t47 -3q27 0 52 -9 t48 -28q10 -10 23 -17.5t28 -12.5q3 -9 26 -48q9 -15 13 -22v-8l10 -10v-6l7 -1q11 -21 16.5 -46.5t5.5 -55.5q0 -10 -2 -31.5t-6 -50.5zM254 936v-4q0 -5 1 -9t6 -10q13 -5 21.5 -11.5t14.5 -16.5l10 -6q17 2 27 4t18 4h8q39 0 64 33.5t25 87.5v6q5 19 7.5 31t2.5 22 q0 23 -3 43.5t-10 42.5l-8 16l6 -2l-4 17l-14 8l-10 12q-3 7 -9 12.5t-16 10.5l-12 6l-4 6q-15 3 -24.5 4.5t-12.5 1.5q-13 0 -25 -3.5t-28 -12.5q-10 -3 -16.5 -10.5t-8.5 -18.5q-14 -20 -21.5 -38t-7.5 -32v-10q-6 -17 -9 -31t-3 -26q0 -15 1 -29.5t1 -15.5 q5 -8 6.5 -14.5t1.5 -16.5l7 -24l-3 -11q3 -2 7 -5t14 -11zM840 174l-2 4q2 -1 7.5 -5t14.5 -11q-3 -5 -4.5 -8.5t-1.5 -5.5q13 -4 22 -11.5t15 -19.5l10 -4q13 0 24.5 2t20.5 6l6 -2q39 0 64.5 35t27.5 93q4 13 6.5 26t2.5 26q0 25 -3 47.5t-8 39.5l-8 13v4l6 -2l-4 17 l-16 8l-10 12q-4 8 -21 21l-2 2l-12 6l-6 6q-14 3 -23 4.5t-14 1.5q-12 0 -25.5 -4t-27.5 -12q-8 -5 -14 -12t-11 -17q-14 -22 -21.5 -40t-7.5 -32v-8q-1 -3 -3 -10q-9 -30 -9 -45t2 -30.5t2 -16.5q3 -9 4.5 -17t1.5 -16l4 -14l-6 4l6 -23zM827 182l2 -6l5 6h-7z" />
<glyph unicode="&#x26;" horiz-adv-x="1075" d="M809 -109l-23 -6l-14 2h-12q-19 0 -30 8.5t-17 26.5q2 15 3 28t1 25q0 3 -1 17.5t-1 25.5v13q-11 -4 -20.5 -6t-17.5 -3q-14 -7 -35.5 -8t-29.5 -4q-15 3 -22 3.5t-12 0.5t-20.5 -7t-35.5 -7q-14 0 -20.5 1.5t-12.5 4.5q-47 0 -80 4.5t-49 12.5l-4 2q-12 0 -24 2t-27 8 h-10l-43 14q-38 12 -65.5 29.5t-48.5 43.5q-3 4 -8 14.5t-7 15.5q-6 5 -17 25.5t-22 29.5q1 2 1.5 4.5t0.5 7.5t-0.5 7t-1.5 3q-8 0 -14 25.5t-11 77.5q0 10 0.5 15t2.5 10l1 5q0 9 -1 26q-3 45 -3 61q0 57 20.5 110t55.5 90q7 9 21 25q26 30 32 45q9 0 24.5 8t51.5 33 l-16 12q-6 2 -10.5 5.5t-8.5 8.5l11 2h4l-23 21q-23 8 -35.5 23.5t-15.5 40.5q-10 34 -15 66.5t-5 61.5q0 4 1 13t1 16q0 5 -2.5 21.5t-1.5 27.5q6 2 11 4.5t9 6.5q-1 1 -3 5q-5 10 -5 15q0 10 3.5 17.5t10.5 15.5q15 36 48.5 70t86.5 67l4 4l17 10q40 21 85.5 32t90.5 11 q14 0 21.5 -1.5t13.5 -4.5l4 -2q6 5 13 7.5t17 2.5q4 0 10.5 -1t23.5 -5q29 0 65.5 -7t79.5 -21q38 -25 56.5 -41t25.5 -29l4 -2q9 -5 13.5 -11t4.5 -14v-6l4 -14q11 -18 15 -60.5t16 -62.5q-7 -17 -11 -36.5t-5 -42.5q-8 -13 -26.5 -19.5t-48.5 -8.5h-95q-10 0 -17 7 t-12 22q-6 20 -8 59t-4 55q-5 13 -15 20.5t-29 13.5q-9 1 -19.5 4.5t-20.5 7.5v3q-5 -2 -9.5 -3.5t-9.5 -1.5l-12 2l-4 4h-10q-4 0 -8 2t-7 6q-1 0 -5.5 -3t-8.5 -5q-27 -2 -37.5 -5t-15.5 -9q-1 -1 -5 -4q-22 -17 -32 -31l-10 -18q-4 -7 -10 -44q-4 -23 -7 -39v-16 q0 -11 2 -21.5t2 -11.5l6 -36q4 -22 21 -40t47 -32q20 -12 90 -18.5t176 -6.5h68q21 0 43 -1l22 -1q88 0 166 7q12 1 15 1q18 0 27 -9t9 -28q0 -10 -5 -36t-5 -41v-23q0 -29 -9.5 -43t-32.5 -20l-17 2q-7 0 -15.5 -1t-9.5 -1l-8 -2l-10 -2l-17 2q-11 -1 -15.5 -5t-6.5 -15 l-2 -23v-7q0 -8 2 -24t2 -23v-6l-2 -20l-2 -11l2 -24l-2 -10l2 -15h-4l10 -14q-6 -26 -9.5 -52.5t-4.5 -56.5l6 -18q-2 -14 -2 -20l6 -15q-2 -59 -3 -99.5t-1 -78.5q0 -40 6 -89.5t6 -57.5l4 -17q-4 -15 -15.5 -23t-29.5 -10l-18 2q-5 0 -18.5 -1t-22.5 -1q-12 0 -21.5 2.5 t-15.5 5.5zM375 596l-4 2l-17 10l-2 -41l-8 -18l-8 -8q-8 -16 -11 -22.5t-6 -13.5q-7 -22 -10.5 -44t-3.5 -45q0 -18 2.5 -36t7.5 -40v-8q0 -30 17 -55.5t44 -36.5q23 -24 122 -35q15 -1 24 -2h37q7 0 13 0.5t12 1.5l22 2l21 2h18q14 4 21.5 7t13.5 7q18 17 28 53q5 18 9 28 q0 14 3 30q1 5 1 6q0 11 1 23t1 14q0 10 -0.5 15.5t-1.5 10.5v25q0 4 1.5 13.5t2.5 15.5q-5 32 -10 85q-6 71 -20 84q-28 3 -48 4t-39 1h-12q-12 0 -37 2t-39 2q-19 0 -46 -1t-34 -1h-16q-5 -9 -11.5 -14t-15.5 -7l-8 -4z" />
<glyph unicode="'" horiz-adv-x="330" d="M80 1272l6 22v9q0 27 10.5 42.5t34.5 22.5l16 -4q34 -12 85 -27q83 -24 83 -55q0 -20 -46 -111t-72 -170l-13 -25q-4 -26 -26 -52q-5 -6 -6 -8l-7 -11l-8 -10l-4 -8v-6q-10 -12 -26 -22q-3 -2 -5 -3l-6 -4q-4 -6 -9 -9t-12 -3q-7 1 -15 4.5t-13 7.5q-8 -3 -14 -4.5 t-13 -1.5h-6q-12 0 -19.5 6.5t-10.5 20.5l6 18q2 19 7.5 44t14.5 60l-5 9q5 4 8.5 10t7.5 19q0 7 13.5 55.5t23.5 89.5l10 8q0 8 -1 13t-1 7q0 15 2.5 30.5t9.5 35.5z" />
<glyph unicode="(" horiz-adv-x="594" d="M355 1430q35 16 50.5 21t26.5 5q10 0 37.5 -7t44.5 -9q18 -11 26.5 -23.5t8.5 -30.5q0 -1 -1.5 -10t-2.5 -16l-2 -4l-2 -8q-8 -29 -19.5 -42.5t-27.5 -13.5h-5q-97 0 -163.5 -118t-75.5 -307q-6 -41 -9 -79.5t-3 -76.5q0 -41 1.5 -91.5t4.5 -110.5q8 -29 11 -46.5 t3 -30.5q0 -8 -0.5 -13.5t-1.5 -10.5q5 -11 12 -32q11 -34 29 -42l-18 -26q4 -8 10 -17.5t18 -26.5q2 -1 8 -8.5t11 -11.5q-1 -4 -2 -9q-2 -14 -2 -18q0 -16 7 -29t23 -24q15 -3 27.5 -16t24.5 -38q15 -27 49 -44.5t79 -20.5q34 -12 50 -31t16 -47q0 -22 -10 -43t-29 -39 h-16q-22 0 -64 12t-99 34q-12 7 -37 21q-137 79 -169 134h-37q-12 46 -34 94.5t-23 54.5q-1 4 -1.5 9.5t-0.5 13.5l-17 16q0 14 -3 40q0 4 -1 5h-18q-14 74 -21.5 156t-7.5 174q0 43 0.5 65t1.5 41l19 21l-12 2q-5 12 -7 26t-2 44q0 18 7.5 51.5t25.5 97.5v43q19 33 32 62.5 t21 58.5v21l80 147q-6 -12 -18 -35l24 4l-7 8q2 5 5.5 8.5t7.5 6.5q19 32 42.5 48.5t50.5 16.5h8q6 8 15.5 12.5t22.5 6.5q7 10 13.5 16t14.5 9z" />
<glyph unicode=")" horiz-adv-x="635" d="M586 569l12 -4q4 -12 6 -25.5t2 -29.5q0 -18 -7 -53.5t-26 -108.5v-41q-16 -31 -30 -61.5t-25 -61.5l4 -20q-24 -39 -39 -64.5t-27 -48.5l-18 -4l6 -6l-18 -18q-17 -31 -39 -47.5t-47 -16.5h-12q-7 -8 -17 -13.5t-22 -6.5q-5 -8 -10.5 -13.5t-12.5 -9.5 q-27 -11 -46.5 -15.5t-35.5 -4.5q-12 0 -33 2.5t-47 7.5q-19 9 -28.5 21.5t-9.5 29.5q0 9 1 16.5t5 18.5l2 4q7 25 20.5 40t28.5 15h4q61 0 105 42.5t81 139.5q34 83 46 127t12 80q0 3 -2 17t-2 22q6 29 9 69t3 89q0 17 -1.5 66t-4.5 128q-8 18 -11.5 38t-3.5 49q0 7 0.5 11 t1.5 8q-2 4 -6.5 15t-13.5 41q-3 5 -8.5 9t-11.5 8l18 30q-15 15 -42 56q-4 6 -5 8q2 12 3 19t1 12q0 11 -8 22.5t-23 22.5q-14 3 -56.5 59.5t-128.5 61.5q-30 12 -44.5 29t-14.5 42q0 14 7 44q1 6 2 10q4 11 10.5 19t15.5 13l23 2q1 0 2 -2t2 -2q22 0 63.5 -11t92.5 -30 q17 -11 52 -31q117 -68 152 -124h37q11 -40 25 -78t31 -74v-16l22 -23v-14q0 -13 0.5 -19t2.5 -10h15q16 -70 23.5 -147.5t7.5 -169.5q0 -40 -0.5 -66.5t-1.5 -52.5z" />
<glyph unicode="*" horiz-adv-x="684" d="M217 1024q-29 10 -49.5 15.5t-35.5 6.5q-24 8 -63 19q-77 22 -77 51v6q13 29 26 73q14 48 35 48q19 0 85.5 -36.5t115.5 -57.5l10 -4q0 25 -2.5 44.5t-7.5 37.5l6 12q-6 12 -9 27t-3 32v15l-2 16q0 23 8.5 35t27.5 16q22 -3 45.5 -4.5t53.5 -1.5q19 0 28 -12t9 -37 q0 -17 -8.5 -74.5t-8.5 -97.5v-14l-2 -9l-2 -10q18 4 37.5 12.5t40.5 20.5l82 31q12 6 20 8t17 2q11 0 21 -6.5t18 -18.5q4 -21 17.5 -55.5t13.5 -48.5q-1 -36 -107 -51q-70 -10 -115 -19h-5q14 -25 28 -42t24 -23q4 -16 38 -54q8 -10 11 -13q5 -8 12 -20q13 -21 13 -26v-2 q-2 -6 -5.5 -11.5t-8.5 -10.5q-23 -13 -56.5 -36t-46.5 -26h-2q-19 0 -51.5 69t-66.5 118l-2 8l-5 6q-15 -21 -25 -40t-15 -37l-13 -3l4 -8l-32 -56l-7 -10q-10 -19 -22 -28.5t-27 -12.5l-20 8q-22 23 -58 49.5t-36 43.5q0 13 10 26t35 31q7 14 54 69q26 31 42 50z" />
<glyph unicode="+" horiz-adv-x="444" d="M203 -2l-17 -4l-30 -2h-9q-25 0 -44 8.5t-37 27.5q2 13 9.5 92.5t14.5 142.5q-1 17 -3 33t-3 28v10l1 5t1 9q5 8 8.5 16.5t5.5 17.5l-2 9q-2 6 -4 21q2 15 5 31t3 18v8q0 1 -1 10.5t-1 18.5l2 14l-2 4v49q1 9 1.5 17.5t0.5 17.5q0 33 -2 67.5t-2 37.5v6q0 10 0.5 14.5 t1.5 9.5q0 6 -0.5 12t-3.5 19l-2 20q0 10 2 22t6 24q-5 16 -7.5 36t-2.5 62q0 16 2 60.5t2 74.5q0 14 -1.5 28t-4.5 27l12 23l-2 8q-14 23 -21 53.5t-7 69.5q0 13 1 27.5t3 31.5q3 4 18.5 11t24.5 12l19 -2q14 1 31.5 2.5t18.5 1.5q8 0 15 -2t15 -6q4 0 15 1q56 7 80 7 q4 0 20 -2q11 -2 15 -2q16 -2 21.5 -9.5t5.5 -31.5q0 -8 -4.5 -30t-6.5 -34l-10 -10l-4 -31q4 -16 6 -31t2 -24q0 -15 -4 -30t-12 -29q2 -9 3 -19t1 -31q0 -14 -1 -38t-1 -33v-29q0 -8 2.5 -21t7.5 -29q0 -1 -2.5 -7t-3.5 -11l2 -32l-2 -17l2 -14h-4l12 -20q-6 -29 -10 -75 t-6 -61q1 -15 2.5 -27.5t3.5 -22.5q0 -8 -1 -16.5t-1 -10.5q0 -4 2 -9.5t6 -11.5q0 -7 -1 -34q-3 -100 -3 -187q0 -96 4 -173.5t11 -113.5l4 -18q-6 -21 -18.5 -30t-35.5 -9l-18 2q-12 0 -32 -2t-27 -2q-10 0 -19 1.5t-16 4.5z" />
<glyph unicode="," horiz-adv-x="385" d="M88 232q0 7 2 14t6 14v4q0 30 11 46.5t36 25.5l17 -2q34 -12 86 -29q96 -30 96 -61q0 -21 -48.5 -121.5t-78.5 -183.5l-6 -11l-12 -16q-6 -33 -28 -63q-4 -5 -5 -7l-6 -10l-8 -10l-7 -10l2 -11q-10 -5 -19.5 -11t-23.5 -16q-2 -4 -6.5 -8t-11.5 -6q-13 3 -19.5 5.5 t-11.5 5.5l-3 3q-8 -2 -15.5 -3.5t-14.5 -1.5h-8q-15 0 -22.5 6t-7.5 18q0 8 2 13.5t6 9.5v6q0 14 10 50t15 59q6 6 9 10.5t5 9.5q0 4 -1.5 8t-2.5 8l14 54q29 109 29 112q-2 -2 -2 -4l10 10l-2 21v8q0 13 3.5 29t10.5 35z" />
<glyph unicode="-" horiz-adv-x="770" d="M383 463h-12q-9 0 -29.5 -1t-32.5 -1q-8 0 -14.5 0.5t-11.5 1.5q-10 -4 -33.5 -5.5t-33.5 -2.5l-17 10l-4 -2h-4q-22 -14 -44 -20.5t-49 -6.5q-12 0 -36 4h-4q-9 4 -16 33t-7 68q0 4 0.5 9t3.5 15q-1 5 -2 12q-6 52 -6 76q0 8 0.5 15t3.5 21q0 12 6.5 18t19.5 6 q8 0 22.5 -2.5t31.5 -5.5l8 -9q3 0 5.5 -0.5t10.5 -3.5l13 4q3 1 6 1q21 3 28 3q14 0 26.5 -3.5t25.5 -10.5q6 2 17 6t17 6l23 -2l16 6l41 -8q9 -1 18 -2.5t11 -1.5h4l14 8q27 -2 53 -3t58 -1q11 0 65 9q39 6 64 10q3 0 10.5 2t9.5 2q19 -5 27 -16.5t8 -32.5v-15 q0 -7 1 -26.5t1 -30.5q0 -10 -1.5 -19t-4.5 -18l6 -8l2 -10v-19q0 -30 -7.5 -50t-25.5 -36q-32 4 -52.5 9t-34.5 14l-21 -6l-22 2l-11 12v-4l-20 4l-31 4q-11 -3 -20 -4.5t-17 -1.5q-6 -2 -13 -3t-17 -1t-19 1q-3 1 -4 1z" />
<glyph unicode="." horiz-adv-x="475" d="M356 164q8 -5 11 -10t4 -15q0 -28 -19 -65t-50 -65q-22 -6 -39.5 -8.5t-33.5 -2.5q-30 0 -58 7.5t-52 23.5q-22 30 -31.5 51.5t-9.5 40.5v4l2 25l6 10l-4 16q0 9 2 18t6 17q3 11 12.5 23.5t30.5 31.5l6 -4l1 11q20 13 43.5 19.5t49.5 6.5q40 0 68 -15.5t37 -41.5 q11 -10 17 -46q2 -13 3 -19l-2 -7v-6z" />
<glyph unicode="/" horiz-adv-x="930" d="M780 1595q18 3 26.5 3.5t16.5 0.5q20 0 38 -2.5t37 -7.5q10 0 16 -7t6 -19l-3 -13q-7 -16 -19.5 -39.5t-29.5 -52.5l-14 -10h4l-10 -16q-19 -52 -41 -95t-47 -80q-17 -43 -53.5 -119t-47.5 -112q-12 -25 -27.5 -58.5t-19.5 -38.5q-2 -11 -4.5 -17t-5.5 -9h-6l6 -12 q-29 -51 -65.5 -124.5t-49.5 -94.5q-7 -22 -22.5 -55.5t-15.5 -45.5v-2q-71 -144 -131.5 -273t-102.5 -226q-9 -22 -22 -58q-31 -86 -72 -86h-90q-30 0 -40.5 7t-17.5 24l4 23q67 130 92.5 177t41.5 69q4 20 12 40.5t18 38.5l8 4q5 8 9.5 14t7.5 9q2 15 55 125t92 209 q46 91 64 129t31 66q5 20 16.5 43t28.5 46q21 59 82 188.5t86 184.5q7 7 12 16.5t8 20.5q10 43 29.5 93t52.5 114q2 4 6 11q12 24 21 24l6 -3z" />
<glyph unicode="0" horiz-adv-x="1219" d="M133 981v35q23 30 39.5 56.5t28.5 51.5v23q4 7 29 41.5t42 60.5l25 4l-6 7l4 6l14 8q20 28 44 42.5t53 14.5h13q11 7 22 11.5t24 7.5q4 7 10.5 12t15.5 8l4 1q63 18 85 18q9 0 29 -2.5t44 -6.5h9q61 0 124.5 -22.5t135.5 -71.5l-4 2q18 -10 46.5 -36.5t47.5 -29.5 q3 -15 33 -77q19 -38 30 -61v-21l17 -16v-17q2 -14 4 -22h22q13 -55 19 -117t6 -139q0 -15 -1.5 -52t-4.5 -93l-19 -21l10 -2q1 -5 1.5 -13.5t0.5 -27.5q0 -56 -9.5 -97t-28.5 -65q-1 -10 -1.5 -20.5t-0.5 -24.5q-16 -15 -29.5 -48.5t-22.5 -45.5q-6 -11 -10.5 -22t-7.5 -21 q-32 -49 -58.5 -74t-58.5 -41q-21 -24 -43.5 -36.5t-44.5 -12.5h-16q-10 -9 -25 -14t-35 -7l-8 -2q-17 -12 -34.5 -18t-37.5 -6q-12 0 -34.5 3t-32.5 3q-7 0 -15 -1.5t-17 -4.5h-19q-84 0 -158 39t-141 118h-37q-13 34 -28.5 68t-33.5 70v18l-16 18q0 11 -0.5 19.5 t-1.5 17.5h-21q-10 40 -15 88.5t-5 116.5q0 55 4.5 126.5t17.5 213.5l7 68l2 -4zM379 379l22 -29l4 -3q6 -9 9.5 -12.5l7.5 -7.5q-1 -4 -2.5 -12.5t-1.5 -11.5q1 -12 8.5 -22t20.5 -17q15 -3 28 -14t26 -32q5 -11 21 -17t39 -6q25 0 43.5 1.5t32.5 4.5q2 -1 6 -1 q22 -3 31 -3q33 0 60 19t52 60q36 32 59 97t23 139q0 17 -0.5 24.5t-1.5 12.5q8 27 12.5 56t4.5 59q0 46 -3 109t-3 81q-11 25 -15.5 41t-5.5 30q-61 115 -90 175q27 -49 78 -150l-2 8q-2 6 -12 14t-31 19l35 25l-19 6q-7 3 -13.5 9t-10.5 13q-6 18 -19.5 35.5t-36.5 36.5 q-16 4 -26 11t-19 20q-1 0 -3 1q-63 17 -87 17t-49 -8.5t-56 -28.5q-16 -5 -27 -18t-19 -39q-41 -63 -62.5 -114.5t-21.5 -84.5v-8l2 -26q-10 -34 -14.5 -74.5t-4.5 -93.5v-121q6 -20 9 -35t3 -25q0 -5 -0.5 -10.5t-2.5 -16.5q9 -13 13 -30q1 -1 1 -2l2 -8q3 -7 9.5 -12.5 t14.5 -8.5z" />
<glyph unicode="1" horiz-adv-x="651" d="M125 1051l-19 -19h-14q-6 -7 -33 -16.5t-41 -16.5q-15 0 -26 13.5t-25 50.5q0 11 -2 35.5t-2 38.5q0 19 5 36t16 31q76 28 112.5 44.5t59.5 31.5q30 8 56 23.5t49 40.5q18 10 69.5 13.5t81.5 12.5l8 -8l20 2h4q23 0 42 -14.5t28 -38.5q-2 -10 -6 -29q-8 -38 -14 -47v-12 q0 -4 3 -9.5t7 -9.5q0 -44 -4 -90t-13 -94l2 -8l-2 -23q1 -4 2.5 -9.5t3.5 -10.5l1 -197l-11 -18v-9q8 -12 11.5 -25.5t3.5 -29.5q0 -8 -4.5 -28t-14.5 -56q2 -26 4.5 -95.5t6.5 -109.5q0 -1 1 -3q2 -3 3 -7q0 -1 -2 -10q-5 -38 -5 -76q-4 -6 -7 -11.5t-5 -10.5l2 -21 q4 -11 6 -23.5t2 -27.5q0 -11 -1 -29.5t-1 -27.5q0 -7 2 -14v-3q0 -4 1 -8.5t1 -7.5q0 -7 1.5 -15.5t4.5 -18.5l5 -11v-17q0 -31 -16 -47t-46 -16q-6 0 -14 2.5t-18 7.5l-11 -10q-28 1 -57.5 2.5t-32.5 1.5q-7 0 -16.5 -1t-26.5 -3q-13 2 -20.5 8t-12.5 19l-22 22 q0 11 4.5 19.5t11.5 13.5v6q0 15 4 41.5t4 38.5t-2 21t-6 18q6 28 11.5 79t15.5 68q-5 9 -7.5 21t-2.5 30v45q-3 18 -5 26.5t-5 17.5q4 2 8 6.5t6 9.5q0 10 -0.5 14.5t-1.5 7.5v11q0 1 -1 6q-1 24 -1 49q0 13 2 46q1 11 2 17v328q0 35 -4.5 58t-14.5 36l-12 4 q-9 -3 -18.5 -6t-16.5 -4q-7 -7 -20 -12.5t-31 -9.5z" />
<glyph unicode="2" horiz-adv-x="975" d="M320 1082q-2 -8 -6.5 -17t-10.5 -16l-1 -4q-17 -81 -17 -109q0 -14 2 -26t6 -23q-9 -51 -46 -63.5t-42 -20.5q-11 7 -22 10.5t-19 3.5q-3 0 -17 -2t-26 -2h-8q-6 0 -15 1t-27 4q-6 8 -12 14.5t-11 10.5l-1 7q0 8 3 15.5t9 14.5q-4 10 -6 20t-2 30q0 2 3 23t5 40l-2 17 l15 16h-6q0 9 2 16.5t5 11.5q7 53 27.5 102.5t55.5 96.5v31h34q28 25 51 41t46 25l86 18l12 -2q21 8 45.5 12t54.5 4q18 0 44.5 -2t56.5 -6q7 -6 14.5 -9t22.5 -3h2q13 2 24 2q8 0 28 -5q7 -2 11 -3v-19l3 -4q11 -2 28 -7t38 -13q11 -6 36 -31t47 -39v-18q26 -40 41 -82.5 t20 -87.5l2 -13q-5 -22 -7.5 -32.5t-4.5 -18.5l4 -8q3 -15 4.5 -30.5t1.5 -30.5q0 -36 -10 -73t-31 -75q-5 -23 -13.5 -43.5t-21.5 -40.5q-37 -81 -76.5 -141.5t-78.5 -97.5q-14 -24 -28 -40t-32 -29l-3 -6t-7 -11l-6 8l-2 -29q-26 -26 -53 -57.5t-31 -34.5l-10 -14l14 -15 q4 0 16 -1.5t21 -2.5q25 0 93 -3q20 -1 29 -1q9 3 17.5 4.5t22.5 1.5h5q18 -2 32 -2l-7 -10l35 6l-8 2q13 0 30 2.5t37 7.5l19 2q6 0 14 -2.5t11 -3.5q9 -10 13.5 -24t4.5 -37q0 -14 -2 -38.5t-2 -35.5q0 -4 2 -22q1 -11 2 -17q-3 -24 -14.5 -38.5t-33.5 -18.5q-15 1 -45 4 q-58 6 -83 6q-9 0 -30 -3q-5 -1 -7 -1q-4 0 -13.5 -1t-15.5 -1q-9 2 -14 3.5t-8 2.5q-10 -3 -18 -4.5t-17 -1.5q-2 0 -11 2t-16 2l-24 2h-27q-5 5 -10.5 8t-11.5 4l-21 -2q-18 -8 -38 -12t-44 -4h-24q-4 0 -25.5 2t-40.5 2h-41q-31 0 -61 -2.5t-58 -7.5q-11 4 -21.5 6 t-21.5 2h-16q-6 1 -15.5 2.5t-13.5 1.5q-19 16 -28 35.5t-9 46.5q0 67 51 110q25 20 40 35h20q46 22 76 45.5t47 51.5q47 25 72.5 49.5t36.5 52.5q12 3 22.5 9.5t17.5 14.5l9 11q8 8 14 13t12 9l2 4l6 7l3 18q29 39 43.5 62.5t21.5 41.5q1 1 9 6t14 9l6 4v18q16 16 30 40 t27 57q3 7 7 13t9 11l15 23q1 6 4 19q14 64 14 85q0 15 -4 31.5t-12 34.5q6 7 9 13.5t3 10.5q-1 4 -1.5 9t-0.5 14v6l-12 14v19q-12 15 -22.5 38t-14.5 27l-29 33q-17 7 -42 11t-64 5h-6q-44 0 -77 -21.5t-56 -65.5z" />
<glyph unicode="3" horiz-adv-x="948" d="M618 840q16 -8 62 -20q15 -4 24 -7q14 -13 45 -36t43 -35q3 -12 5 -16t6 -7q19 -13 37 -44.5t41 -92.5l-4 -21l4 -41q-2 -9 -3.5 -15.5t-3.5 -10.5q1 -15 5 -48t4 -49q0 -12 -3.5 -27t-9.5 -31q-4 -8 -12 -35q-3 -9 -4 -13q-8 -61 -51.5 -122t-130.5 -134l-8 8l-5 -4 q-5 -6 -12 -13.5t-15 -15.5q-7 0 -13.5 -2t-12.5 -6h-6q-6 -3 -12 -4.5t-13 -1.5q-29 -11 -64 -16t-91 -5q-5 0 -22.5 1t-28.5 1h-13q-12 0 -34 -2l-21 19v-12h-10l-21 4q-9 1 -22.5 3.5t-18.5 2.5q-2 0 -15 -3q-5 -1 -7 -1q-8 12 -31 26q-9 5 -14 8q-30 4 -56 26.5 t-61 76.5v14l-14 14q-8 25 -11.5 51t-3.5 58v29q-3 12 -4.5 26t-1.5 27q4 7 9 37.5t24 46.5q2 0 4 1q16 3 25 3h22q7 0 13.5 1.5t13.5 4.5q11 0 31 -4t30 -4q9 0 17 2t16 6q9 -19 12.5 -34.5t3.5 -30.5v-39l5 -21q0 -3 2 -10q17 -82 38 -96l31 -14l12 -7h7q9 0 17.5 -2 t15.5 -6q15 -1 40.5 -4.5t34.5 -3.5q19 0 38.5 6t42.5 19q6 1 13 3.5t21 8.5l4 2q6 7 14.5 17t26.5 30l2 14l4 9q12 22 17.5 48t7.5 30q0 24 1 59.5t1 46.5q0 32 -9.5 66t-27.5 69q-17 14 -40 32.5t-24 20.5q-13 6 -56 18l-9 3q-12 -3 -32.5 -4.5t-49.5 -1.5h-12 q-14 -1 -19.5 -3t-12.5 -8q-12 -11 -22.5 -15.5t-23.5 -4.5q-5 0 -12 3t-15 9l-9 5q-7 4 -16 8l-4 2q-6 22 -48 38h-1q6 8 8.5 12.5t3.5 7.5l-6 14l-2.5 10l-3.5 14q1 13 17 29t18 26q5 4 15 13q55 49 83 67q8 20 96 98l5 5v18q29 23 54 51.5t44 60.5l4 15l-20 -2 q-1 0 -15 1t-28 1q-6 0 -17.5 -2.5t-24.5 -5.5q-6 7 -12 10.5t-9 3.5q-4 -1 -8.5 -1.5t-12.5 -0.5q-12 -5 -26.5 -7.5t-35.5 -2.5h-24q-27 0 -48.5 -3.5t-40.5 -10.5q-9 5 -16 7t-14 2q-8 0 -28 -4q-12 -3 -18 -4l-11 -2q-3 0 -18 3q-6 1 -9 1q-12 8 -18.5 18.5t-6.5 22.5v6 l2 25q3 30 4 80q2 90 41 92l27 -6q76 -6 113 -8q-2 0 -43 3q-26 2 -41 3h8l16 -2h25q8 0 14.5 -2t11.5 -6h5l-4 -2l41 -2l-5 4l11 2q16 3 31.5 4.5t31.5 1.5h51q6 0 12 0.5t13 1.5l18 -10h4q8 6 16 9t17 3q4 -1 9.5 -1.5t19.5 -0.5q8 -4 18.5 -6t24.5 -2q11 0 27.5 1t21.5 1 h11q6 3 18 7q2 0 4 1l12 -2h4q5 -6 13 -13q1 -1 2 -1l2 6q36 6 65 9t49 3q25 0 61 -5q6 -1 8 -1q0 -3 -0.5 -7t-0.5 -14q0 -2 1.5 -16.5t2.5 -25.5q-8 -19 -11 -47t-4 -83q-8 -6 -13 -14.5t-7 -21.5q-15 -15 -42 -39q-66 -60 -81 -91q-23 -5 -46 -38t-35 -43 q-15 -19 -36 -52l-3 -5q5 -3 10 -4.5t16 -4.5q4 -2 8.5 -5t9.5 -7z" />
<glyph unicode="4" horiz-adv-x="1057" d="M858 -4l-4 -2l-12 -2l-17 2l-18 2q-12 0 -26.5 -1t-18.5 -1q-8 0 -15.5 1t-13.5 3q-3 -2 -9 -3t-24 -1h-21q-36 1 -53.5 8t-19.5 21q-1 5 -1.5 11.5t-0.5 18.5q0 35 5 72.5t13 73.5q-3 5 -4.5 8.5t-1.5 7.5q0 6 2.5 19t2.5 18q0 1 3 9t3 13v9q-20 1 -37 1.5t-31 0.5 q-33 0 -66 -5.5t-34 -5.5q-7 7 -9.5 9t-4.5 2q-30 -7 -64 -11t-70 -4q-2 0 -42 3t-76 3q-11 0 -22.5 -0.5t-23.5 -1.5h-4q-10 -2 -21.5 -3t-35.5 -1h-31q-20 0 -31.5 21.5t-11.5 58.5v6q0 11 1.5 41.5t5.5 82.5q3 6 32.5 48.5t52.5 77.5h12q7 9 15 17t16 14l4 2q2 9 7 16 t16 15q0 12 2 21.5t6 16.5l-4 23q17 3 34 23.5t23 25.5q-2 11 -4 16t-4 9q26 12 42.5 35t31.5 73q52 65 125.5 182t105.5 160q33 57 58 82t51 29l21 -6q4 0 16 3q3 1 4 1q19 1 36.5 1.5t39.5 0.5q14 0 33 -1.5t44 -4.5h5q12 0 19 -10.5t7 -28.5q0 -6 -1.5 -18t-4.5 -28 l-2 -15v-5l-8 -12l-2 -23q3 -27 4.5 -44t1.5 -23q0 -20 -3.5 -38t-10.5 -35q2 -23 3 -35.5t1 -22.5q0 -2 -1 -9q-1 -25 -1 -50q0 -21 2.5 -40t7.5 -39v-16q0 -5 1 -19.5t1 -23.5q0 -3 -1 -8.5t-3 -17.5l4 -21h-6l14 -19q-5 -19 -7.5 -43.5t-2.5 -56.5q0 -16 -3 -61 q-1 -13 -1 -18q4 -8 6 -15.5t2 -17.5q0 -2 -1.5 -15t-2.5 -26l2 -10q11 -1 23 -1.5t28 -0.5q9 4 17 6t18 2q2 0 21.5 -2.5t38.5 -3.5l14 2q12 -14 18 -26t6 -21q0 -7 -5 -23t-5 -25v-28q0 -32 -6.5 -57.5t-20.5 -45.5q-10 0 -17.5 1.5t-15.5 4.5l-7 -10l-62 6q-5 0 -17 -2 q-6 -1 -10 -2l-8 2h-10q0 -13 -2 -33.5t-2 -27.5q0 -16 2 -27t6 -18q-2 -8 -3 -15.5t-1 -13.5q0 -11 2 -30t8 -56q6 -7 8 -14t2 -14q0 -10 -4 -17t-12 -10zM608 891v37q0 13 -1.5 25t-4.5 24l-6 -10q-10 -8 -49 -66.5t-68 -97.5l-8 -13q-91 -146 -158 -244q-2 -7 -6 -19 q-4 -13 -4 -15q0 -10 6 -15t27 -12q8 0 13 -0.5t7 -1.5q15 4 27.5 6.5t15.5 2.5q9 0 17.5 -2t20.5 -6q5 2 15 3.5t23 1.5q11 0 52 -1t71 -1l4 -4l14 4v27q0 7 -3 31q0 5 -1 8q2 32 5.5 70t3.5 43q0 15 -2.5 33.5t-2.5 21.5l-2 33q0 10 2 22.5t4 23.5q-6 24 -9 46.5t-3 44.5z " />
<glyph unicode="5" horiz-adv-x="928" d="M348 975l6 -17l-2 -10q1 -12 2.5 -28.5t1.5 -20.5l1 -13q3 -5 9.5 -7t20.5 -2q5 0 13 1q31 3 42 3t17.5 -0.5t13.5 -1.5h14q53 0 103 -16.5t55 -16.5q20 -15 34.5 -22.5t26.5 -10.5q14 -13 45 -36t43 -35q2 -9 4.5 -14t6.5 -9q20 -13 39 -46.5t39 -90.5l-4 -20 q1 -10 1.5 -18t0.5 -22t-1.5 -20t-2.5 -8q0 -22 4 -51.5t4 -39.5q0 -12 -3 -27.5t-10 -35.5q-5 -13 -9 -25t-7 -24q-6 -58 -48.5 -118t-133.5 -138l-8 8l-4 -4q-6 -6 -13 -13.5t-15 -15.5q-5 0 -10.5 -1.5t-15.5 -6.5h-6q-6 -3 -12 -4.5t-12 -1.5q-32 -11 -67 -16t-91 -5 q-5 0 -21.5 1t-27.5 1h-13q-12 0 -34 -2l-21 19v-12h-10q-4 0 -9.5 1t-11.5 3q-13 3 -22.5 4.5t-18.5 1.5q-4 0 -10 -1t-12 -3q-5 10 -22 20t-24 15q-29 3 -55 25.5t-61 76.5v14l-14 15q-8 30 -12.5 57t-4.5 49q0 13 0.5 19t1.5 11q-3 15 -4.5 28.5t-0.5 26.5q3 6 8 36.5 t24 46.5q8 2 15 3t12 1h24q7 0 13.5 1.5t13.5 4.5q10 0 30.5 -4t30.5 -4q9 0 17 2t17 6q9 -1 14 -8.5t6 -23.5q0 -6 -2.5 -26t-2.5 -34v-12l5 -21q10 -55 19.5 -78t20.5 -28l31 -14l13 -7h6q9 0 17.5 -2t15.5 -6q15 -1 39.5 -4.5t33.5 -3.5q21 0 40 6t43 19q8 1 17 4t17 8 l4 2q7 8 15 17.5t26 29.5l2 14l4 9q12 22 17.5 48t7.5 30q0 24 1 59.5t1 46.5q0 32 -9.5 66t-27.5 69l-64 53q-38 13 -73.5 19t-67.5 6t-67.5 -6.5t-71.5 -18.5q-12 -8 -20 -11t-17 -3q-8 0 -16 2.5t-15 7.5l-6 6q-2 2 -9 4.5t-11 3.5q-8 22 -48 39h-1q2 5 6.5 12t4.5 8 l-6 14q0 1 -1.5 6t-3.5 17l6 20q3 12 4.5 23t1.5 21q0 2 -1.5 31.5t-2.5 59.5l2 14l-4 15q1 12 3.5 22t4.5 14l2 8q-4 4 -9 6.5t-11 3.5q11 22 16.5 38.5t5.5 27.5l-2.5 21.5t-3.5 44.5l4 24l-6 12v47q0 24 -3 45t-8 38q0 10 3.5 27.5t3.5 25.5q5 6 19.5 9t45.5 3 q15 0 34 -2t42 -6v-9l16 17h4l13 2q10 -3 14.5 -4.5t7.5 -3.5h10q7 0 22.5 -1t25.5 -1q12 0 22.5 2t22.5 6q8 0 15 0.5t13 1.5q8 0 17 -3.5t16 -8.5l4 -2l17 12l26 -2q1 0 21.5 1t40.5 1q9 0 21.5 -2t27.5 -6l10 -2l-4 -5l41 3l-4 2h4q6 4 12 6t14 2h25l16 2h9q9 0 18 0.5 t19 1.5l12.5 2.5l17.5 3.5q18 -1 26.5 -11.5t8.5 -31.5q-3 -18 -4.5 -37t-1.5 -39q0 -11 2 -29t2 -24v-25q0 -15 -5.5 -26.5t-17.5 -20.5q-7 -2 -15.5 -3t-16.5 -1q-5 0 -18 3.5t-19 4.5l-17 2q-7 0 -15 -3t-15 -9q-14 9 -31 13t-39 4h-22q-19 0 -32.5 2.5t-23.5 7.5h-22 q-10 0 -21.5 -2.5t-26.5 -7.5q-9 3 -20 4.5t-22 1.5q-1 0 -12.5 -1t-22.5 -1l-15 2q-26 -4 -35.5 -8.5t-9.5 -12.5q-6 -23 -9 -44.5t-3 -41.5q0 -13 1.5 -20t4.5 -12z" />
<glyph unicode="6" horiz-adv-x="1053" d="M969 358l4 -8q-2 -7 -4.5 -13t-5.5 -11q-3 -29 -14.5 -57.5t-33.5 -58.5q-2 -10 -6.5 -21t-11.5 -23q-17 -32 -53.5 -67t-95.5 -79h-17q-10 -12 -15 -17.5t-10 -8.5q-32 0 -109 -19l-24 -6q-16 3 -33.5 4.5t-35.5 1.5q-12 0 -43 3q-11 1 -17 2q-91 4 -163 41t-129 110 q-39 78 -57.5 154t-18.5 159q0 31 3 54t9 39q-5 9 -7.5 20.5t-2.5 36.5q0 23 19 100q8 30 12 46q7 10 10.5 24.5t3.5 34.5q16 13 24.5 30t8.5 37q29 68 64 130.5t75 121.5q25 30 41 47t29 25q1 2 3 7q7 15 13 24l10 12q1 1 4 6.5t6 9.5q12 6 76 64l8 8v25h25q13 19 27 27.5 t32 8.5q22 0 69 -20q3 -1 5 -2q13 -15 35 -25t55 -16q19 -14 28 -29.5t9 -34.5q0 -12 -4.5 -24.5t-13.5 -26.5h-15q-7 -14 -18.5 -20t-28.5 -6h-8q-47 -43 -72 -68q2 0 4 2q-4 -1 -8 -1q-9 -2 -10 -3l-4 -2q-16 -24 -43 -51t-31 -37q-20 -38 -43.5 -70.5t-23.5 -34.5 q5 -5 10 -7.5t10 -2.5l10 2q23 8 44.5 11t47.5 4q29 0 64.5 -6.5t89.5 -20.5q28 -4 49 -9.5t39 -13.5q10 -24 32 -45.5t68 -50.5q0 -21 6 -31.5t19 -13.5v-4q0 -6 2 -14.5t8 -24.5q8 -8 12.5 -19t6.5 -26q13 -57 18.5 -94.5t5.5 -67.5q0 -1 -2 -5q-6 -15 -6 -21v-23 q0 -14 -4 -32t-12 -40zM758 494l-13 2q-1 5 -2.5 12t-1.5 16l2 23q0 10 -4 13t-14 3h-8v8q0 20 -7 34.5t-26 33.5h-29v35q-38 24 -75 35.5t-74 11.5q-43 0 -78 -9t-51 -24q-24 -35 -39.5 -77.5t-15.5 -73.5v-21l-2.5 -22.5t-2.5 -44.5q0 -34 2.5 -63.5t6.5 -55.5 q5 -12 14 -34q23 -63 74 -83h8l18 -18q25 -9 46 -13t38 -4h6q10 2 17 8.5t13 18.5h13q5 0 11.5 -2.5t15.5 -7.5q18 4 34.5 14t35.5 29q34 36 54.5 89.5t20.5 106.5v19l-2 22z" />
<glyph unicode="7" horiz-adv-x="915" d="M84 1354l10 12h53q10 0 20 1.5t19 4.5q11 -7 19 -9.5t18 -2.5h21l6.5 -1.5t11.5 -2.5l23 -4q16 2 37.5 5t25.5 3h4q13 0 24.5 -3t21.5 -9q8 5 16 7.5t16 2.5h6q4 -5 12 -9q2 -1 3 -1q33 8 62.5 12t57.5 4q4 0 13 -1t16 -1h18q2 0 10 -1q48 -5 97 -5q6 0 11.5 0.5 t11.5 1.5h4q15 3 30.5 4.5t30.5 1.5h27q19 0 31 -22t12 -58v-6q0 -19 -2 -48t-2 -40q0 -1 -1 -4q-1 -15 -1 -31q-22 -35 -55 -116l-3 -7v-2q0 -6 -34 -82t-62 -151h-14q-11 -16 -17 -22.5t-12 -10.5l-4 -2q-2 -12 -5.5 -20t-11.5 -15v-10q0 -9 -1.5 -16t-3.5 -12 q-1 -9 3 -25q-15 -5 -27.5 -25.5t-20.5 -27.5q7 -17 9 -23v2q-37 -27 -58 -102q-3 -11 -5 -17q-14 -21 -23 -36.5t-16 -31.5q-33 -64 -87 -171q-121 -244 -165 -244h-2l-22 6q-35 23 -67.5 40.5t-62.5 29.5q-12 7 -17 15.5t-5 24.5q0 15 11 38.5t30 47.5q6 14 10.5 22 t10.5 13q10 31 27.5 57.5t41.5 49.5v18q26 34 62.5 105.5t60.5 103.5q10 27 39.5 86.5t97.5 190.5q0 1 -2 6.5t-4 11.5q8 4 11 7.5t3 6.5l2 11v12l23 22l4 9v6q0 10 4.5 20.5t16.5 28.5q4 8 6 15t2 14q0 3 -1.5 12.5t-2.5 15.5h2q19 0 32 28t13 52q0 8 -6.5 14t-22.5 13 l-20 2l-6 -2q-26 -6 -39 -6h-7h-4q-3 0 -10 2t-15 5q-5 -3 -9 -4t-11 -1h-6q-8 0 -19 1t-16 1q-2 0 -5 -1.5t-7 -4.5h-12h-9q-29 2 -53 2t-50.5 -4.5t-51.5 -12.5h-27q-1 0 -6 1q-14 1 -29 1q-16 -11 -31.5 -16.5t-33.5 -5.5q-15 0 -29 8.5t-28 25.5q2 15 3 25.5t1 20.5 q0 7 -2 38t-2 54q0 25 6.5 49t19.5 43q10 0 18 -2t15 -6z" />
<glyph unicode="8" horiz-adv-x="997" d="M768 774l6 -16q9 -3 27 -9.5t27 -9.5q65 -79 96.5 -160t31.5 -167q0 -67 -14.5 -134.5t-30.5 -82.5v-15q-19 -20 -34 -50q-3 -7 -5 -10l-10 -14l-6 -12q-18 -18 -36.5 -31t-35.5 -20q-33 -25 -56.5 -35t-45.5 -10h-6q-13 -4 -25.5 -6t-25.5 -2l-7 -2q-31 -10 -61.5 -14.5 t-64.5 -4.5h-17q-137 0 -226.5 51t-152.5 164q0 5 1 12t1 9q-22 8 -35.5 63.5t-13.5 141.5q0 49 15 106.5t40 101.5l13 23l24 31q8 10 23 27q29 34 35 47q10 3 15.5 8t8.5 14q-6 6 -20 24t-31 42q-25 39 -39 90t-14 100q0 15 1.5 30.5t6.5 44.5q3 6 8 30t12 40 q21 46 57.5 84t88.5 68q4 5 10.5 8t13.5 4q28 22 80 34.5t113 12.5q64 0 112 -9t64 -23l15 -7.5l17 -8.5l-9 1q59 -34 95.5 -74.5t51.5 -89.5q9 -16 14.5 -39.5t10.5 -30.5q3 -22 4.5 -39t1.5 -30q0 -21 -7.5 -62t-21.5 -85q-6 -7 -26 -41q-15 -25 -25 -41h-12l1 -5 q-3 -4 -7 -7.5t-11 -8.5zM512 834h-4q10 0 22 1.5t28 4.5q46 16 70.5 48.5t24.5 76.5q0 8 -0.5 14.5t-1.5 11.5l2 19q0 2 -1 7q-4 20 -7 32q-2 27 -5.5 38.5t-10.5 18.5q-12 23 -25.5 37.5t-34.5 25.5q-7 7 -18.5 11t-40.5 6q-2 0 -6 -1q-58 -6 -68 -16q-39 -25 -55 -60.5 t-16 -100.5v-13q0 -62 20.5 -100.5t63.5 -54.5q10 0 26.5 -1.5t36.5 -4.5zM627 606l2 -4q-3 0 -17 8l-3 2q-2 8 -18 14.5t-83 18.5q-75 -12 -93 -18t-18 -15q-52 -32 -78 -77.5t-26 -104.5q0 -26 4.5 -51t13.5 -51l-2 -15q8 -43 27 -69.5t51 -36.5q15 -18 47.5 -27.5 t79.5 -9.5h12q39 0 63 7t38 22q33 13 53 46t20 72v10q6 20 8.5 37t2.5 31q0 24 -5 49.5t-14 53.5q-3 11 -12 24.5t-10 15.5q-4 3 -7.5 8t-7.5 15l4 6q-4 5 -12.5 10.5t-17.5 10.5l2 14z" />
<glyph unicode="9" horiz-adv-x="1036" d="M76 997l-2 7v4q4 12 5.5 16t2.5 6q4 33 15 61.5t30 53.5q3 6 7 15q14 30 16 30q-3 0 -3 -2q21 37 59 74t91 71l17 1q6 8 12.5 15t11.5 11h6q23 0 95 18q22 6 33 8q15 -2 34 -4t37 -2q11 0 40 -2q11 -1 18 -2q90 -4 161.5 -41.5t130.5 -111.5q41 -83 60.5 -162t19.5 -164 q0 -18 -2 -38t-6 -42q1 -10 1.5 -18t0.5 -15q0 -28 -13 -85q-4 -16 -6 -26q-10 -38 -12 -58q-7 -9 -10.5 -23t-3.5 -37q-18 -14 -25.5 -30.5t-7.5 -38.5q-5 -6 -9.5 -11t-9.5 -11q-4 -27 -17.5 -49.5t-37.5 -40.5q-1 -5 -4 -12t-6 -12l2 -8q-2 -3 -4 -7q-8 -13 -12 -18v-26 l-15 -17v-16l-16 -16v-17q-21 -19 -48 -47.5t-34 -32.5q-2 -7 -21 -28q-15 -18 -24 -29q-12 -6 -33 -22t-55 -46q-2 -3 -3.5 -9t-3.5 -15h-22q-11 -17 -23.5 -25t-27.5 -8t-33.5 6.5t-46.5 22.5q-16 14 -37 24.5t-51 20.5q-17 14 -25 28.5t-8 32.5q0 13 4.5 26t14.5 28h14 q9 10 20.5 15t26.5 5h10q8 9 24.5 23.5t47.5 37.5l15 4.5t8 4.5q10 21 41 49.5t38 47.5q16 11 29 30t25 49l-19 2q-21 -6 -44.5 -9t-49.5 -3q-23 0 -59 6.5t-86 19.5q-21 2 -43.5 7.5t-47.5 15.5q-9 21 -27.5 40.5t-70.5 55.5q0 18 -6 29t-18 16v4q0 6 -4.5 19.5l-6.5 19.5 q-9 8 -13.5 19t-4.5 26q-15 57 -23 104.5t-8 85.5q4 6 6 12.5t2 14.5v23q0 13 4 30t13 41zM301 850l2 -19v-8q0 -23 8 -41.5t23 -32.5q0 -15 6 -27.5t27 -33.5l14 -14l14 -21q37 -23 74 -35t76 -12q47 0 72.5 7.5t44.5 25.5q26 33 43.5 84t17.5 98v17q1 10 2.5 29t1.5 24 q0 39 -2 71.5t-6 61.5q-8 14 -19 44.5t-22 41.5q-5 5 -16 12.5t-33 20.5h-6l-19 18q-24 8 -44.5 11.5t-39.5 3.5h-8q-9 -2 -15.5 -8t-11.5 -17h-14q-6 0 -12.5 2.5t-14.5 7.5q-20 -4 -36.5 -14.5t-32.5 -30.5q-11 -5 -16 -18t-5 -37q-9 -2 -13.5 -5t-6.5 -9v-8q-1 -6 -3 -15 q-7 -32 -12 -35q0 -8 -5 -28t-5 -31q-5 -5 -8.5 -10t-5.5 -9l2 -12q2 -11 2.5 -28t1.5 -21z" />
<glyph unicode=":" horiz-adv-x="475" d="M131 924q0 14 12 24t42 21q11 8 20.5 11t21.5 3q6 0 24.5 -5t31.5 -5h4q45 -36 67.5 -74.5t24.5 -80.5q-13 -41 -30 -64t-42 -35q-9 -3 -24 -17t-29 -14q-6 -2 -11.5 -3t-15.5 -1q-15 0 -24 1.5t-17 5.5l-2 5l-6 -6q-52 26 -80 61t-28 74q0 12 3 22t9 20q2 10 7 17t16 16 l8 11l14 11zM356 164q8 -5 11 -10t4 -15q0 -28 -19 -65t-51 -66q-16 -4 -34 -6t-38 -2q-32 0 -59.5 7t-50.5 22q-22 30 -31.5 51.5t-9.5 40.5v4l2 25l6 10l-4 16q0 9 2 18t6 17q3 11 12.5 23.5t30.5 31.5l6 -4l1 11q20 13 43.5 19.5t49.5 6.5q40 0 68 -15.5t37 -41.5 q11 -10 17 -46q2 -13 3 -19l-2 -7v-6z" />
<glyph unicode=";" horiz-adv-x="475" d="M131 924q0 14 12 24t42 21q11 8 20.5 11t21.5 3q6 0 24.5 -5t31.5 -5h4q45 -36 67.5 -74.5t24.5 -80.5q-13 -41 -30 -64t-42 -35q-9 -3 -24 -17t-29 -14q-6 -2 -11.5 -3t-15.5 -1q-15 0 -24 1.5t-17 5.5l-2 5l-6 -6q-52 26 -80 61t-28 74q0 12 3 22t9 20q2 10 7 17t16 16 l8 11l14 11zM88 232q0 7 2 14t6 14v4q0 30 11 46.5t36 25.5l17 -2q34 -12 86 -29q96 -30 96 -61q0 -21 -48.5 -121.5t-78.5 -183.5l-6 -11l-12 -16q-6 -33 -28 -63q-4 -5 -5 -7l-6 -10l-8 -10l-7 -10l2 -11q-10 -5 -19.5 -11t-23.5 -16q-2 -4 -6.5 -8t-11.5 -6 q-13 3 -19.5 5.5t-11.5 5.5l-3 3q-8 -2 -15.5 -3.5t-14.5 -1.5h-8q-15 0 -22.5 6t-7.5 18q0 8 2 13.5t6 9.5v6q0 14 10 51t14 57q5 5 8 11.5t3 11.5v14l14 54q29 109 29 112q-2 -2 -2 -4l10 10l-2 21v8q0 13 3.5 29t10.5 35z" />
<glyph unicode="&#x3c;" horiz-adv-x="1808" d="M1690 1253q5 -4 8.5 -11t3.5 -15q0 -32 -18 -66t-50 -61q-17 -7 -35 -10t-45 -3q-20 0 -45.5 8t-54.5 23q-19 28 -29 50.5t-12 43.5l4 25l4 11q-1 4 -1.5 9.5t-0.5 16.5q0 6 1.5 12t4.5 12q2 10 13 23.5t32 30.5l7 -4l-2 10q19 13 40.5 19.5t47.5 6.5q38 0 70 -16.5 t42 -42.5q6 -8 16 -53q0 -2 1 -4l-2 -8v-7zM1409 780l-20 -6h-9q-63 2 -135 2h-190q-14 0 -21.5 -13t-9.5 -41v-69q0 -26 1 -59t3 -90q-4 -3 -6 -8t-2 -15q0 -6 2 -21.5t2 -25.5v-4q0 -12 -2 -20.5t-6 -14.5q1 -8 1.5 -16.5t0.5 -28.5q0 -15 3 -42q1 -3 1 -5q2 -6 6 -19 q6 -24 16 -30v-25q11 -11 19.5 -22t13.5 -18q14 -1 21.5 -0.5t16.5 2.5q16 8 23 28t7 76q0 53 17 78.5t59 38.5l24 -2q4 0 13.5 2t11.5 2q1 0 3 -1q25 -4 42 -10q16 -19 23.5 -37t7.5 -38q0 -13 -4.5 -44.5t-4.5 -50.5v-22q0 -80 -25 -128t-85 -79q-20 -4 -54 -14t-47 -10 h-4l-20 2h-6q-31 6 -62 6q-5 1 -10.5 3t-7.5 3l-31 -2l-15 2q-18 3 -35.5 16t-33.5 37q-1 0 -4 -1t-4 -1q-48 0 -81.5 99t-33.5 249q0 4 3 64.5t3 115.5q0 40 -2 91.5t-2 64.5v8q0 9 -8.5 19t-23.5 20h-299q-16 0 -24.5 -13.5t-8.5 -39.5v-123q0 -17 -1.5 -36.5t-4.5 -40.5 l-2 -15l6 -53v-11l2 -4l2 -22v-4q0 -9 -4 -19.5t-4 -11.5q4 -55 6 -82v2q0 1 -1 6q-2 23 -3 45v-32q0 -7 1 -17.5t1 -13.5q2 -4 8 -22.5t16 -26.5v-26q5 -21 16 -32t29 -14l11 2q24 17 34.5 39t10.5 65q0 17 -0.5 31t-1.5 28q1 29 16.5 45.5t40.5 16.5h28q14 3 19 3.5 t10 0.5t8 -2.5t5 -7.5q31 -15 44 -34t13 -48q0 -11 -3 -39.5t-3 -44.5v-10q0 -28 -11 -63t-32 -74l4 -17q0 -19 -35 -44q-21 -15 -33 -25q-13 0 -51.5 -9.5t-67.5 -9.5q-3 0 -7.5 0.5t-10.5 1.5l-16 2h-23q-14 1 -21 2t-11 2l3 -1q-55 3 -80 15.5t-33 39.5q-27 5 -52.5 30.5 t-36.5 61.5q-15 46 -22 104.5t-7 141.5q0 6 1 40q6 157 7 305v11q0 22 -6 30.5t-20 8.5h-7h-4q-40 -4 -61 -4q-49 0 -68.5 18.5t-19.5 69.5q0 65 10 84.5t39 19.5l9 1q3 0 8.5 0.5t15.5 0.5l17 -3q10 7 30 12.5t25 15.5q9 6 13.5 18.5t4.5 36.5l12 4l-2 5q-1 15 -1.5 40.5 t-0.5 93.5q-5 8 -7.5 15t-2.5 15q1 6 1.5 11t0.5 11v18q0 56 66 97t135 41q19 -1 36 -7.5t33 -19.5v-62q0 -134 -12 -264q-2 -20 -2 -24q0 -24 10 -38t29 -16q5 -2 8.5 -3t7.5 -1q15 8 36.5 12.5t56.5 5.5q4 -4 8.5 -6.5t9.5 -2.5q10 0 13.5 0.5t8.5 3.5q7 4 12.5 6t10.5 2 l22 -2h11q8 0 17.5 -2t19.5 -6q2 1 8 2.5l14 3.5h8q10 2 14 4.5t7 7.5q9 6 13.5 18.5t4.5 36.5l12 6l-2 11q-1 36 -1.5 68.5t-0.5 60.5q-5 6 -7.5 13.5t-2.5 14.5l2 21v18q0 41 19 64t79 47l3 1q66 26 98 26q19 0 36 -6t35 -19v-61q0 -137 -12 -267q-2 -20 -2 -24 q0 -24 8.5 -36t31.5 -18l15 -4q27 10 58.5 14.5t77.5 4.5h28q5 -5 9.5 -7.5t9.5 -2.5q9 0 13 0.5t9 3.5q1 0 5 2q11 6 18 6q2 0 10.5 -1t13.5 -1h5q32 4 49 4q1 0 9.5 -1t14.5 -1t11.5 2t11.5 6q45 0 122.5 4t108.5 4q12 -11 20.5 -19t12.5 -14v-22l-4 -10l-4 -19 q0 -6 1 -13.5t1 -8.5q-3 -40 -4.5 -63t-1.5 -30q2 -6 4 -13.5t2 -12.5q-1 -7 -2 -22t-2 -24l2 -15q-6 -24 -8.5 -50.5t-2.5 -62.5q0 -33 4.5 -96.5t4.5 -94.5q0 -29 -2 -53.5t-7 -46.5q8 -14 12.5 -44.5t6.5 -77.5q-6 -6 -10 -19v-2l2 -17q5 -9 7.5 -16t2.5 -12 q-1 -4 -1.5 -9t-0.5 -14q0 -12 0.5 -18t1.5 -11v-4q0 -27 -17 -40.5t-57 -16.5q-12 1 -23.5 1.5t-25.5 0.5q-5 0 -22 -1t-29 -1q-30 0 -52.5 7t-43.5 21q2 81 6 221q10 297 10 388v42q-3 45 -12.5 69t-26.5 32z" />
<glyph unicode="=" horiz-adv-x="1638" d="M823 1450l27 29q11 17 32.5 29t67.5 24q17 9 47 13.5t74 4.5q31 0 73 -5q5 0 9 -1q6 1 12 1.5t13 0.5q12 0 52.5 -8.5t67.5 -9.5q38 -16 64.5 -35t42.5 -43q25 -49 36 -100t11 -138q0 -42 -8 -72.5t-24 -49.5q-12 -3 -36.5 -11t-35.5 -8l-15 2l-12 2q-12 -1 -25.5 -2.5 t-15.5 -1.5h-6q-24 0 -36.5 14.5t-12.5 42.5v11q0 109 -23 157.5t-76 55.5h-24q-49 0 -76 -8.5t-37 -26.5l-12 -27q-5 -24 -7.5 -54t-2.5 -71v-39q2 -17 3 -39t1 -67q0 -33 13 -44t65 -11h26q55 0 100.5 3.5t86.5 9.5l4 -7l6 12q66 2 138 5t79 3h6q10 -8 18.5 -17t12.5 -16 v-22l-4 -10l-2 -19v-16q0 -13 -2 -46t-2 -53q2 -7 4 -15t2 -11q-1 -7 -2 -22t-2 -24l2 -15q-6 -24 -8.5 -52t-2.5 -86q0 -29 4.5 -84t4.5 -82q0 -31 -2 -56t-7 -44q8 -21 12.5 -53t4.5 -69q-5 -8 -7.5 -12.5t-2.5 -7.5l4 -18q5 -13 6.5 -19t1.5 -9l-2 -23q1 -10 1.5 -18 t0.5 -15q0 -27 -16.5 -40.5t-55.5 -16.5q-12 1 -23.5 1.5t-25.5 0.5q-5 0 -22 -1t-29 -1q-30 0 -52.5 7t-43.5 21q1 62 5 177q11 332 11 446v41q-2 54 -13.5 69t-43.5 15h-17q-5 0 -27 3q-9 1 -14 1l-4 2l-8 -6q-14 0 -39 -2t-37 -2q-13 0 -24 2t-21 6q-9 0 -31 -3 q-4 -1 -6 -1h-4q-18 -3 -20 -10l2 -5q-1 -17 -1.5 -35t-0.5 -44q0 -46 2 -137t2 -137q0 -45 -2.5 -84.5t-7.5 -76.5q8 -23 12 -59t4 -82q-5 -5 -7.5 -11.5t-2.5 -14.5l2 -25q5 -5 7.5 -12.5t2.5 -17.5q-2 -21 -3 -39t-1 -29q0 14 2 40q1 -9 1.5 -18t0.5 -22q0 -22 -8 -34.5 t-27 -20.5q-2 -1 -6 -2q-18 -5 -30 -6q-10 1 -17 1.5t-17 0.5q-9 0 -31.5 -1t-35.5 -1q-26 0 -47 7.5t-41 25.5q5 165 7.5 311.5t2.5 281.5q0 7 -4 27.5t-4 34.5q0 9 2 16t6 13q0 21 1.5 40.5t4.5 36.5l2 12q0 2 -1.5 4.5t-6.5 10.5q0 7 0.5 18.5t1.5 26.5l-6 6 q-9 9 -35.5 9.5t-39.5 4.5q-15 -2 -30 -3t-30 -1h-37q-6 0 -14 1t-19 3q-20 0 -40 -1t-44 -3q-10 0 -16 -2.5t-6 -7.5v-4q0 -3 -1 -19q-3 -90 -3 -184q0 -43 2 -109t2 -90v-14q0 -2 -1 -9q-1 -28 -1 -54v-18q2 -55 2 -103q3 -5 5.5 -11t4.5 -16q-1 -7 -1.5 -13t-0.5 -11v-5 q0 -11 1 -25t1 -18q0 -30 -17 -45t-55 -18q-12 1 -23 1.5t-24 0.5q-8 0 -22 -1t-21 -1q-34 0 -57 7.5t-41 25.5q5 136 7.5 282t2.5 316q-1 6 -1.5 12t-0.5 14q0 19 4 36v3l2 11l4 4l-8 12q0 7 0.5 13.5t1.5 13.5l-6 16q-4 6 -31.5 8.5t-43.5 5.5l-5 -2q-5 -1 -10 -1.5 t-17 -0.5l-14 2h-12q-24 0 -33.5 21.5t-9.5 79.5q0 9 1 26.5t1 26.5q3 22 17 31.5t44 9.5q5 0 16 -1t19 -1h4q74 0 84 92q2 24 4 38q-1 28 -1.5 54t-0.5 68q0 26 4.5 52t14.5 55q3 42 20.5 79t50.5 70l35 16q8 3 43 16t60 23l-4 -4q28 7 64.5 10.5t94.5 3.5h33q5 1 11.5 1.5 t13.5 0.5q15 0 47.5 -8.5t50.5 -9.5q33 -14 58 -33t44 -45zM735 1240q-9 49 -41.5 75.5t-95.5 36.5h-18q-73 0 -114.5 -25.5t-43.5 -70.5q-5 -28 -7.5 -50t-2.5 -41v-39q2 -18 3 -38.5t1 -57.5q0 -41 11.5 -53t59.5 -12h23q145 0 182 13t37 52q0 37 1.5 50t4.5 20 q-1 18 -2.5 38.5t-1.5 22.5q0 25 4 73v6z" />
<glyph unicode="&#x3e;" horiz-adv-x="1223" d="M1098 1253q5 -4 8.5 -11t3.5 -15q0 -32 -17.5 -65.5t-50.5 -61.5q-19 -7 -36 -10t-35 -3q-27 0 -54 8t-55 23q-19 28 -29 50.5t-12 44.5q0 7 1 13.5t3 10.5l4 11q-1 6 -1.5 12.5t-0.5 19.5q0 3 5 14q1 3 2 5q3 12 13.5 24.5t31.5 28.5l6 -4l-2 10q19 13 41.5 19.5 t46.5 6.5q38 0 69 -16t43 -43q4 -7 8 -20.5t5 -16.5q1 -4 2 -10.5t2 -9.5l-2 -8v-7zM177 1046q2 -1 3.5 -1.5t5.5 -0.5q3 0 4 0.5t3 2.5l-2 7q-2 25 -2.5 51.5t-0.5 78.5q-5 9 -7.5 16t-2.5 12t1 11.5t1 9.5v18q0 57 66 98.5t133 41.5q17 0 35.5 -7t36.5 -21v-56 q0 -139 -15 -271q-2 -20 -2 -24q0 -24 9 -36t32 -18l17 -4q25 10 57.5 14.5t77.5 4.5h28q5 -5 9.5 -7.5t9.5 -2.5q10 0 13.5 0.5t9.5 3.5q5 4 21 7t36 3h12h25q2 0 12 -1t18 -1q6 0 11.5 2t11.5 6q46 0 123 4t108 4q12 -11 20.5 -19t12.5 -14v-22l-4 -10l-4 -19 q0 -6 1 -13.5t1 -8.5q-3 -40 -4.5 -63t-1.5 -30q2 -6 4 -13.5t2 -12.5q-1 -7 -2 -22t-2 -24l2 -15q-6 -26 -8 -53.5t-2 -84.5q0 -29 4 -84t4 -82q0 -31 -2 -56t-6 -44q7 -14 11.5 -44.5t6.5 -77.5q-6 -9 -8 -13.5t-2 -7.5q0 -6 0.5 -10t1.5 -7q3 -3 5.5 -9.5t4.5 -18.5 q-1 -5 -1.5 -9.5t-0.5 -13.5t0.5 -15.5t1.5 -13.5v-4q0 -27 -17 -40.5t-57 -16.5q-12 1 -23.5 1.5t-25.5 0.5q-5 0 -22 -1t-29 -1q-30 0 -52.5 7t-43.5 22q2 83 7 232q9 289 9 378v41q-3 46 -12.5 69.5t-25.5 30.5l-21 -2l-19 4q-2 0 -11 -3t-17 -5q-11 0 -43 1t-54 1h-190 q-13 0 -21 -14t-10 -40v-69q0 -24 1 -55t3 -94q-4 -5 -6 -10t-2 -13q0 -6 2 -21.5t2 -25.5v-4q0 -11 -2 -19.5t-6 -15.5q1 -14 1.5 -26t0.5 -19q0 -11 1 -22.5t3 -24.5q1 -2 1 -4q12 -41 22 -45v-25q10 -11 18.5 -21.5t13.5 -18.5q17 -1 24 -0.5t14 2.5q16 8 23 28t7 76 q0 53 16.5 78t59.5 39l24 -2q4 0 13.5 2t11.5 2q1 0 3 -1q25 -4 41 -9q17 -20 24.5 -38t7.5 -38q0 -12 -4.5 -43.5t-4.5 -51.5v-22q0 -79 -25.5 -127t-84.5 -80q-20 -4 -54 -14t-46 -10h-5l-20 2q-2 0 -18.5 4t-30.5 4q-7 0 -11 -0.5t-7 -1.5l-19 6q-5 0 -15.5 -1t-15.5 -1 l-15 2q-18 3 -35.5 16t-33.5 37q-1 0 -4 -1t-4 -1q-47 0 -81 99t-34 249q0 2 3.5 62t3.5 118q0 40 -2.5 92t-2.5 64v6q0 20 -5 26t-19 9l-16 -2q-21 -2 -36 -3t-30 -1q-49 0 -68.5 18.5t-19.5 69.5q0 65 10 84.5t39 19.5l9 1q3 0 8.5 0.5t15.5 0.5l17 -3q10 7 30 12.5 t25 15.5q9 6 13.5 18.5t4.5 36.5l12 4z" />
<glyph unicode="?" horiz-adv-x="965" d="M233 549l-8 18l11 17v8q0 40 39 81.5t106 69.5q12 16 26.5 24.5t30.5 10.5q32 15 56.5 22.5t50.5 10.5l20 -2q9 3 19.5 8t29.5 14q29 13 45.5 39.5t22.5 71.5q0 72 -11.5 112.5t-35.5 57.5q-6 21 -19.5 32.5t-34.5 14.5l-8 -2q-26 12 -50.5 18.5t-47.5 6.5 q-21 0 -37.5 -5t-32.5 -16h-8q-23 0 -45.5 -16t-42.5 -47q-10 -40 -15 -75.5t-5 -68.5q0 -18 1.5 -34t4.5 -31q-6 -22 -26 -31.5t-60 -9.5h-41q-8 4 -21 6t-32 2t-34 6.5t-25 17.5q-3 13 -4 19.5t-1 11.5q0 8 1 23t1 22q0 10 -2.5 19.5t-7.5 19.5q16 35 24.5 95t22.5 81 l10 27v4q0 11 5 18.5t16 12.5l12 12q7 18 30 39.5t73 54.5q44 24 95.5 34.5t114.5 10.5q22 0 58 -2t51 -2q11 0 41.5 -5t67.5 -13l-7 4q122 -6 193.5 -109.5t71.5 -275.5q0 -106 -44.5 -185t-132.5 -126q-42 -24 -122 -56q-147 -59 -154 -135l-2 -20q0 -2 1 -6q3 -23 3 -33 q0 -33 -19.5 -51.5t-54.5 -18.5h-16q-10 0 -15 0.5t-9 1.5q-3 0 -7 -1q-18 -3 -24 -3t-8 0.5t-5 1.5l-26 2q-4 0 -19 -1.5t-26 -2.5q-15 4 -21 10t-6 17q0 4 2.5 16t3.5 21l2 6q-8 7 -11 14.5t-3 22.5q0 22 6 45.5t18 48.5zM322 262q6 8 12 11t16 3q6 0 16 -3t25 -9 q4 2 7.5 3t7.5 1q1 0 3 -1t3 -1q6 -2 22 -12q5 -10 15.5 -21.5t23.5 -21.5q6 -20 9 -41t3 -43q0 -25 -7 -49.5t-21 -48.5q-24 -20 -49 -29.5t-52 -9.5q-7 0 -11 0.5t-7 1.5l-14 4h-25l-21 4q-13 3 -27 14t-27 32l3 5l-10 -2q-14 20 -20.5 41t-6.5 45q0 41 18 73.5t44 41.5 q6 4 14.5 6t20.5 2l12 6z" />
<glyph unicode="@" horiz-adv-x="1290" d="M457 262l-23 -4q-18 3 -34 11t-29 20h-13q-22 31 -32.5 59.5t-10.5 57.5q0 23 6 40t19 31v4q0 31 23.5 68t103.5 119q37 12 67.5 28t55.5 35h26q17 15 38 26.5t24 14.5q4 0 9 1t9 3l6 -4q4 56 17.5 81.5t40.5 25.5h12q11 0 28 1t23 1q7 0 12.5 -0.5t11.5 -1.5 q27 -5 39.5 -20t12.5 -42v-2q-2 -10 -2 -18l-10 -11l4 2l2 -4q-2 -5 -13 -24l-3 -6v-35l-15 -14l6 2q0 -12 -2 -18.5t-8 -13.5q-5 -53 -33.5 -153t-38.5 -146q-1 -6 -2 -21.5t-2 -22.5l6 -22q5 -17 14.5 -25.5t24.5 -8.5q12 0 26 5t28 14q12 1 25 7t24 15q51 22 81.5 55.5 t41.5 82.5q18 28 28.5 75.5t10.5 104.5q0 14 -4 50q0 3 -1 5l-2 4l-2 15l2 16q0 32 -7 63t-21 62l-21 23q-4 15 -32.5 41t-61.5 42q-12 8 -23.5 11.5t-23.5 3.5q-8 9 -22 15q-4 2 -7 3t-19.5 5t-28.5 5l-15 7l4 -2q-18 0 -29 4t-17 12q-1 0 -4 1q-20 3 -30 3q-16 0 -32 2.5 t-31 7.5l6 -2l-23 12v-14q-53 -23 -87.5 -34t-57.5 -13q-3 -3 -9.5 -10t-9.5 -10h-18q-29 -31 -46 -44t-30 -16q-12 -7 -27.5 -29.5t-23.5 -31.5q-10 -20 -20.5 -36t-20.5 -28v-32q-19 -16 -34.5 -50.5t-22.5 -44.5q-12 -41 -17.5 -77t-5.5 -70q0 -43 8.5 -85t26.5 -83 l5 -10q49 -98 93 -121q32 -10 59 -27t50 -41q54 -21 107 -32t100 -11l6 -4l78 10h8q5 1 12 2q13 2 18 2l5 -2l8 7h6q73 10 84 10h4q0 -4 1 -12q3 -32 3 -46l-33 -18l4 2q-10 -19 -23.5 -28t-41.5 -13l-14 -2q-12 -16 -23.5 -23.5t-25.5 -7.5q-6 1 -11.5 1.5t-11.5 0.5 q-9 0 -14 -2t-9 -6q-34 0 -88.5 5t-75.5 5q-2 0 -19.5 -1.5t-31.5 -1.5q-2 4 -23 14.5t-36 19.5h-33l-16 17h-33q-5 4 -10 10t-6 8q-12 0 -24 2t-32 8q-18 27 -54.5 67t-96.5 101l2 10l-2 4l-13 -6q-34 70 -50.5 142.5t-16.5 150.5q0 34 3 69t9 70l-2 8q5 9 7.5 14.5 t2.5 8.5v4l9 8l-3 15q15 31 33 61.5t39 63.5v18q11 11 24 22l3 3v6l22 18q4 15 10.5 21.5t20.5 9.5q11 14 46 48t52 58q26 4 46.5 16t37.5 34h37q8 14 13 21t10 11q5 0 15 -1q12 -1 15 -2q47 16 98 24t107 8q66 0 110.5 -7t78.5 -22l17 -6q11 -1 18.5 -3t13.5 -5q3 -1 10 -4 q25 -10 35 -10q20 -16 38.5 -26t37.5 -15q47 -32 86 -74t71 -96v-12l19 -19v-15q9 -19 14.5 -36t7.5 -32v-27q0 -25 2 -66.5t2 -58.5q0 -18 -2.5 -34.5t-7.5 -33.5q0 -17 -3.5 -38.5t-12.5 -57.5q-2 -13 -9 -20t-18 -7v-16q-12 -8 -18 -17.5t-7 -22.5q-6 -4 -9 -7t-7 -9v-8 l-16 -16q-2 -11 -6 -20t-11 -15l-12 -12h-16l-25 -25h-16q-3 -7 -4.5 -17.5t-1.5 -25.5h-29q-61 -36 -122 -53.5t-126 -17.5h-33l-10 -9l-4 2l-6 11q-4 5 -31 12.5t-45 17.5q-10 16 -15 40t-5 57v28q-35 -17 -71.5 -29.5t-74.5 -19.5q-5 1 -10 1.5t-12 0.5zM681 626 q-13 -8 -29 -16t-40 -18q-29 -24 -54 -51.5t-46 -59.5q-8 -21 -11.5 -36t-4.5 -30l6 -20l18 -8q26 7 45 16t35 23q10 2 17.5 5t13.5 8q11 16 26 58.5t39 125.5l-6 6z" />
<glyph unicode="A" horiz-adv-x="1155" d="M293 109q-8 -6 -13.5 -12t-9.5 -14q-1 -16 -7 -28t-17 -20l-2 -12q-3 -22 -35 -103q-16 -39 -25 -61q-6 -5 -13 -6.5t-19 -2.5q-18 0 -39.5 7t-49.5 22q-10 -2 -18 -3t-14 -1q-43 20 -59.5 32.5t-16.5 24.5v7q0 21 7.5 46.5t20.5 52.5q3 8 15 35.5t12 47.5v4 q12 6 17.5 15t5.5 22q3 1 5.5 5.5l2.5 4.5q2 0 4 1t4 3q3 12 11 29.5t8 23.5q6 8 16 17l2 2q15 54 31 115.5t19 69.5q12 15 23.5 41t26.5 75q21 45 32.5 67.5t21.5 36.5v11q0 15 5 38.5t15 53.5q18 18 60 130.5t81 258.5q21 43 31 65t19 41v50q13 22 29 37.5t34 23.5l18 8 l15 -2l10 -2q7 -2 13.5 -3t15.5 -1q12 0 37 5t39 5q11 0 21.5 -2.5t23.5 -7.5l8 -2q7 1 20 3q30 5 39 5q6 0 15.5 -1.5t23.5 -4.5q18 -8 30 -49q6 -22 11 -35q40 -253 111 -501q16 -58 16 -66q0 -5 -2 -22.5t-2 -29.5v-6l16 -16q5 -26 11.5 -47.5t15.5 -40.5l-4 -6 q16 -37 26 -77.5t12 -83.5l-9 -10q3 -5 10 -18q16 -27 22 -36q9 -40 22 -102q18 -82 19 -91q6 -17 8 -28.5t2 -22.5l5 -17l4 -20q0 -17 -15 -25t-55 -12q-4 0 -19.5 1.5t-39.5 4.5q-4 -7 -8.5 -9.5t-20.5 -2.5q-3 0 -18.5 2.5t-28.5 3.5q-35 8 -47 17.5t-17 26.5 q-4 22 -11 64q-15 92 -26 128q-2 19 -6 53q-6 51 -6 65v8q-9 11 -17.5 19t-15.5 12l-30 -2l-4 8q-18 -3 -33 -4.5t-29 -1.5h-49q-4 0 -13.5 -1.5t-14.5 -2.5q-9 5 -14.5 7.5t-8.5 2.5q-10 -4 -20.5 -6t-22.5 -2q-9 0 -38 4.5t-46 5.5l-21 -2q-41 -6 -58.5 -16t-19.5 -27 q-13 -20 -22 -39t-12 -34q-6 -10 -21 -90q-10 -52 -16 -84zM633 1051l-4 -9q-7 -19 -19.5 -46t-13.5 -35l-1 -3q-28 -66 -28 -92v-6q-12 -10 -18 -15.5t-10 -10.5q-7 -43 -22.5 -84.5t-41.5 -83.5v-7l-4 -16.5t-6 -31.5l-8 -9v-4q18 -5 41 -7.5t55 -2.5q25 0 62 2.5 t130 11.5q6 8 9.5 16.5t3.5 18.5q-15 62 -26 98t-23 64q2 2 2 4q0 12 -11 62t-43 182l-8 4l-12 -2z" />
<glyph unicode="B" horiz-adv-x="1044" d="M956 217q0 -1 -1 -9.5t-1 -17.5q-11 -6 -25 -27t-19 -27q-6 -8 -8.5 -14t-2.5 -11q-21 -23 -47.5 -40.5t-58.5 -29.5q-17 -15 -34 -22t-36 -7h-15q-11 -6 -21 -9t-19 -3h-9l-4 -2l-8 -2q-13 -7 -26.5 -9.5t-36.5 -2.5q-7 0 -24 2t-25 2q-6 0 -21 -3q-5 -1 -8 -1 q-6 -1 -17 -1.5t-40 -0.5q-67 0 -131 5q-12 1 -15 1q-61 0 -113 4.5t-81 11.5q-16 4 -21.5 12t-5.5 27q0 12 3.5 34t4.5 32l12 12h-4l4 25q-5 28 -6.5 41.5t-1.5 23.5q0 23 4 40.5t12 32.5q-1 15 -2.5 30.5t-1.5 31.5v53q0 20 -2.5 40t-7.5 42l2 19l-2 43l2 22l-4 21h8 l-16 20q5 21 7.5 46t2.5 59q0 25 1.5 43.5t4.5 30.5q-4 4 -6 11t-2 25q0 1 1 5q1 11 1 20v10q-1 2 -4.5 7t-5.5 8q1 40 8.5 101.5t7.5 82.5q0 29 -6 56.5t-18 55.5v19q0 7 -1 33.5t-1 46.5q0 12 1 23t3 22q0 26 71.5 43.5t186.5 17.5h61q20 0 72 -3q15 -1 23 -1l47 10l12 2 l15 -4q89 -3 140.5 -12.5t75.5 -26.5l15 -10l2 -4q51 -30 85.5 -68.5t53.5 -87.5q4 -11 6 -21.5t2 -21.5q0 -5 1.5 -11.5t4.5 -14.5v-21q0 -58 -8.5 -104.5t-27.5 -91.5q-25 -37 -38 -54t-24 -28l-6 -2q-4 -4 -9 -8t-5 -5q-6 -5 -19 -15q-5 -3 -8 -5q11 -7 30 -19 q39 -24 48 -24l4 -1q2 -14 45 -77l8 -12v-10l12 -13l2 -14h15q15 -34 23 -66t8 -61v-14q0 -73 -12.5 -134.5t-35.5 -101.5zM674 922v10q1 4 4.5 9t9.5 11v41q1 6 2.5 16t1.5 13q0 6 -3 21.5t-9 37.5l4 -8l-2 8l2 11q-34 82 -127 93q-3 1 -4 1l-18 2q-8 0 -28 3q-5 1 -7 1 q-10 -2 -22.5 -3t-26.5 -1h-23l-14 2l-14 -6q-29 -3 -39.5 -13t-10.5 -34v-7q0 -10 1 -21.5t1 -12.5q0 -12 -1.5 -22t-4.5 -19q3 -12 4.5 -33.5t1.5 -53.5q-3 -23 -4.5 -44.5t-1.5 -40.5v-45q3 -6 6 -9.5t6 -5.5h7l7 1q57 3 83 3q6 -4 13 -6t19 -2q15 0 37.5 4.5t63.5 16.5 q7 2 15.5 6.5t10.5 5.5q12 14 22 22t19 13q0 10 4.5 18t14.5 17zM362 627q0 -4 -4 -12q-3 -5 -3 -6q3 -29 5 -57.5t2 -55.5v-56q0 -26 -2 -48.5t-6 -41.5q3 -9 4.5 -19.5t1.5 -23.5q1 -7 1 -22q2 -97 53 -99l32 -2h21q16 -4 33 -6t35 -2q11 0 18.5 0.5t13.5 1.5h11 q28 0 51 7.5t37 21.5q30 15 50.5 46.5t20.5 63.5v6q6 19 8 32t3 26q0 32 -24 98q-3 9 -5 14q-4 3 -7 7t-5 9l-2 7l2 10l-9 6l13 3l-13 8l-12 10l-16 4q-6 10 -15 19t-29 22q-6 1 -14 4.5t-20 11.5q-33 10 -58 14.5t-42 4.5q-8 0 -18.5 -1.5t-22.5 -4.5q-13 2 -24 3t-21 1 q-16 0 -25.5 -1t-18.5 -3z" />
<glyph unicode="C" horiz-adv-x="1169" d="M1028 1239l4 -2q10 -7 15.5 -15t5.5 -16v-6l10 -22q12 -17 18 -32.5t6 -29.5q0 -1 -2 -16.5t-2 -29.5q3 -12 10.5 -72.5t16.5 -110.5q-6 -7 -9 -16.5t-3 -26.5v-6v-3q2 -12 2 -22q0 -3 -1.5 -14.5t-2.5 -20.5q-14 -12 -30 -18t-34 -6q-17 0 -26.5 -1.5t-17.5 -4.5h-99 l-17 16v-6l-4 2q-9 4 -12.5 10.5t-3.5 20.5q0 46 -3.5 102.5t-10.5 140.5q-2 2 -5.5 7.5t-7.5 13.5v6q0 45 -58.5 76.5t-141.5 31.5q-35 0 -66 -11.5t-59 -35.5q-21 -4 -34.5 -18t-21.5 -39q-59 -94 -75.5 -134t-16.5 -75q0 -8 0.5 -13.5t1.5 -11.5q-11 -37 -16.5 -79 t-5.5 -93q0 -15 1 -52t1 -58q6 -19 9 -34t3 -28q0 -8 -0.5 -13.5t-1.5 -10.5q3 -3 5.5 -9t8.5 -22l2 -8q3 -7 10 -12.5t17 -8.5l-18 -24l12 -16t14 -17q6 -5 13.5 -11t8.5 -8q-2 -5 -3.5 -11t-1.5 -13q1 -11 8.5 -20t24.5 -19q17 -3 31.5 -14t29.5 -33q3 -13 28.5 -21 t67.5 -8q17 0 32 1.5t29 4.5l31 -6l17 1q9 6 20.5 10t24.5 4l21 -2q13 4 45 23l5 3q11 9 17 12t12 3l8 4l4 6q7 7 13.5 11t10.5 5q16 14 40 44q48 57 84 69q26 -8 43 -21.5t27 -34.5q16 -12 27.5 -23t19.5 -23l4 -23q-14 -51 -62.5 -108t-105.5 -87q-47 -37 -106 -57 t-124 -20q-1 0 -8 -1q-36 -3 -72 -3q-32 0 -54.5 1.5t-39.5 6.5q-114 1 -200 41t-140 116q-32 31 -54 65t-36 73v16l-18 20q0 11 -0.5 19.5t-1.5 17.5h-21q-14 52 -21 110t-7 124q0 18 1 85q2 51 3 81l20 20h-12q-2 11 -3 19t-1 14q0 25 11.5 62t39.5 100v39q20 24 37 50.5 t33 57.5v23l79 104h19l-6 6q4 6 10.5 10.5t13.5 6.5q16 27 40 41.5t56 17.5l19 -2q7 6 18.5 10.5t32.5 7.5q5 8 11.5 13t15.5 8q23 9 44 13.5t42 4.5q9 0 43 -4q22 -2 36 -4q12 4 25.5 6t30.5 2q29 0 78.5 -9.5t128.5 -31.5q51 -28 73 -48.5t25 -40.5z" />
<glyph unicode="D" horiz-adv-x="1171" d="M1120 582q3 -14 3.5 -21t0.5 -16q0 -35 -35 -121q-8 -19 -12 -29v-39q-22 -26 -39 -52.5t-30 -55.5v-23q-22 -24 -42 -50.5t-38 -53.5h-19l4 -7q-2 -4 -8 -8t-14 -6q-20 -28 -44 -42.5t-52 -14.5h-11q-11 -13 -25 -19t-36 -8q-10 -11 -38 -19.5t-56 -8.5h-41h-8 q-7 0 -32 2q-14 1 -24 2h-14q-2 0 -10 -1q-35 -1 -72 -1q-57 0 -108 3.5t-95 10.5q-16 -3 -32.5 -4.5t-45.5 -1.5q-11 0 -21 1.5t-20 4.5q-13 3 -18.5 12t-5.5 31q0 11 5 43q2 12 3 19l12 12h-4l4 25q-4 17 -6 30t-2 21v14v18q0 9 4.5 24.5t11.5 30.5q-2 11 -3 19.5t-1 15.5 v21v61q0 17 -2 36t-8 44l2 19l-2 43l2 22l-4 21h8l-16 20q5 21 7.5 43.5t2.5 61.5q0 27 1.5 45.5t4.5 28.5q-4 5 -6 11t-2 13v12q0 1 1 4q1 10 1 21v10q-1 2 -4.5 7t-5.5 8v6q0 29 8 89t8 89t-6 56.5t-18 55.5v23q0 9 -1 34t-1 42v12q0 7 0.5 13.5t3.5 19.5q6 15 15 23 t25 13q4 1 11 2t10 1q17 0 160.5 15t267.5 15h17q140 0 232.5 -33.5t146.5 -103.5l12 -12l8 -6l18 -2q2 -17 35 -82q19 -36 29 -58v-16l18 -18v-19l2 -20h21q12 -46 17 -95.5t5 -121.5q0 -41 -2.5 -95t-7.5 -116zM833 990q-4 5 -10 11.5t-18 18.5q-3 3 -8 8.5t-6 7.5 q-5 16 -17.5 41t-15.5 37q-28 10 -55.5 32.5t-69.5 22.5h-23q-6 0 -24 -1t-29 -1h-14h-6q-90 0 -127.5 -12t-48.5 -40q-6 -12 -8.5 -23t-2.5 -25q1 -3 3.5 -15.5t2.5 -21.5v-4q0 -5 -2 -12q-1 -3 -2 -4l-4 -17l1.5 -10t2.5 -21l-2 -10v-118q0 -3 3 -16q1 -5 1 -7v-6 q0 -14 -4 -45.5t-4 -48.5v-33q0 -10 3 -25.5t3 -19.5v-10v-78v65q0 -11 -1.5 -23t-4.5 -24q5 -29 7.5 -64.5t2.5 -74.5v-80q0 -17 2 -35.5t4 -33.5v-15q0 -30 17 -44.5t53 -14.5h8q17 -7 31.5 -11t24.5 -4q14 0 24.5 2t21.5 6q6 0 11 -0.5t10 -0.5q1 0 4 -1q11 -2 19 -2h6 q21 0 45.5 8.5t52.5 24.5q63 35 111.5 121t48.5 162v6q0 7 -0.5 12t-1.5 11q11 39 16.5 78.5t5.5 76.5v10q0 41 -1 84q-1 10 -1 13v26v-3q-7 14 -10.5 28t-3.5 29q0 3 2 15q1 7 2 11q-8 6 -13 29q-1 3 -1 4l-3 9q-5 6 -11.5 10.5t-13.5 6.5z" />
<glyph unicode="E" horiz-adv-x="883" d="M621 827h65q31 0 66.5 4t76.5 13h7q23 0 35 -18.5t12 -53.5q0 -9 -1.5 -25.5t-4.5 -42.5l4 -20q-2 -19 -9 -36t-20 -34q-9 -4 -16.5 -6t-20.5 -2q-6 0 -18.5 4t-18.5 4h-4q-14 0 -43 2t-43 2q-13 0 -27 -2.5t-27 -6.5q-5 7 -17.5 11.5t-28.5 4.5q-9 0 -24.5 -3t-19.5 -3 q-2 1 -4.5 3t-7.5 7l-22 -2q-8 0 -26.5 2t-43.5 6q-16 -8 -31.5 -12.5t-29.5 -4.5h-8l-9 3q-9 -1 -14.5 -6t-5.5 -13v-4q1 -5 2.5 -13.5t1.5 -11.5q-4 -43 -6 -90t-2 -102q0 -39 1.5 -66t4.5 -45q2 -19 8 -32t15 -17q4 -1 18 -4t21 -6q1 0 5 -1q18 -3 29 -3q6 0 20.5 1 t24.5 1q7 0 15 -2t24 -8l17 8l12 -2q6 0 13 1t9 1l13 -2q16 0 27.5 4.5t21.5 13.5q12 -5 26.5 -9.5t32.5 -8.5h9q5 2 9 5.5t7 8.5l18 -2q6 1 24 5.5t28 4.5q6 0 14.5 -2t15.5 -6q8 -6 13 -53q2 -21 4 -33q-2 -7 -4.5 -27t-6.5 -30q1 -6 1.5 -12.5t0.5 -16.5q0 -18 -5 -30.5 t-17 -22.5q-16 -3 -23.5 -3.5t-15.5 -0.5q-22 0 -65.5 5t-63.5 5h-21l3 4l-17 -10q-9 0 -24 4q-5 1 -9 2q-9 -4 -14.5 -7t-11.5 -7q-11 10 -22 15t-23 5h-4l-7 -12q-30 5 -56 7.5t-48 2.5h-5q-19 -2 -34 -2l-14 2h-5q-45 -4 -67 -4q-11 0 -19 2t-14 6q-22 -4 -45.5 -6 t-50.5 -2q-35 0 -48 9t-13 34q0 15 5 49q2 11 3 17l12 12h-4l4 25q-5 27 -6.5 40.5t-1.5 24.5q0 19 4.5 37t13.5 38q-3 21 -4.5 58.5t-1.5 144.5v113q0 11 1 40t1 46q0 12 -2 27.5t-8 42.5l10 20l-6 -2q0 9 0.5 13.5t1.5 8.5l-2 23q0 1 1 16t1 29l-2 19q5 16 7.5 35t2.5 41 q0 8 -2 34.5t-2 42.5t0.5 23.5t1.5 16.5q-9 16 -13.5 35.5t-4.5 41.5q0 17 2 33t6 33l-4 22h4l-12 12q-1 3 -1 7q-7 42 -7 59q0 8 1.5 14t4.5 11q5 7 8.5 9.5t9.5 4.5q6 3 15.5 4.5t21.5 1.5q10 0 36 -2t60 -6q7 4 15.5 6t19.5 2q2 0 28.5 -2.5t50.5 -3.5l19 2h76l8 -8l19 4 q3 0 14 2q5 1 8 2q11 8 15 12l6 6q10 -7 16 -10.5t12 -5.5q6 2 13.5 3.5t17.5 2.5l19 -10q40 4 93.5 10t63.5 6h15l20 -2q12 -12 18.5 -25.5t6.5 -27.5q0 -9 -3 -24.5t-3 -18.5q0 -4 1 -12q2 -17 5 -23q-4 -56 -16 -77t-40 -21q-7 0 -22 5t-23 5h-5q-8 3 -17 4.5t-19 1.5 q-13 0 -27.5 -3t-31.5 -9q-4 8 -8.5 11t-11.5 3l-21 -4l-8 8q-20 0 -27 0.5t-13 2.5l-13 4q-6 -6 -14.5 -8.5t-32.5 -2.5q-3 0 -12 1t-13 1h-8l-21 -2q-35 -2 -48 -41.5t-13 -214.5v-12q0 -29 13.5 -45t37.5 -16q6 0 11.5 0.5t11.5 0.5l20 -8l-2 4h10l17 3h20q9 0 20 2t24 5 q6 -3 15.5 -5t30.5 -2q5 0 16.5 1t35.5 4z" />
<glyph unicode="F" horiz-adv-x="862" d="M614 824q11 0 22 0.5t26 0.5q29 0 68.5 4.5t84.5 12.5h6q22 0 32.5 -15.5t10.5 -46.5q0 -16 -6 -62q-1 -11 -2 -17q3 -8 4.5 -16.5t1.5 -18.5q0 -19 -8 -34t-21 -20q-5 -2 -10.5 -3t-9.5 -1q-12 0 -30.5 6.5t-24.5 6.5h-4q-18 0 -51 4t-48 4q-6 0 -24 -3q-5 -1 -7 -1 q-10 1 -21 1.5t-28 0.5q-12 0 -18 -0.5t-12 -1.5q-4 -1 -10 -1.5t-17 -0.5q-17 0 -35 2t-39 6q-16 -8 -31.5 -12.5t-29.5 -4.5h-8l-10 2q-10 0 -14.5 -5.5t-4.5 -14.5l4 -32q-3 -51 -4.5 -105t-1.5 -113q0 -55 0.5 -83.5t1.5 -53.5v-6q0 -8 -0.5 -15t-1.5 -14q0 -7 -1 -20 t-1 -19t1 -17t1 -15q-2 -10 -3 -18t-1 -15q0 -11 1.5 -22t4.5 -21q2 -12 5 -32q5 -38 5 -54q0 -34 -16 -49t-51 -15q-14 0 -28 4t-30 13v3q-33 -5 -54.5 -7.5t-37.5 -2.5q-36 0 -50.5 12.5t-14.5 43.5q0 12 3.5 36t4.5 35l14 15h-6q0 6 1.5 11.5t4.5 10.5q0 3 -1 11 q-7 50 -7 73q0 27 4 49t12 43q-3 23 -4.5 66.5t-1.5 171.5v131q0 21 3 52.5t3 43.5q0 16 -2 30.5t-6 27.5l4 28l-6 -2q0 9 0.5 13.5t1.5 8.5l-2 23q0 1 1 16t1 29l-2 18q6 16 8 32.5t2 41.5q0 12 -2 40t-2 44q0 7 1 18t1 18q-8 15 -13 35.5t-5 41.5q0 17 7 59q1 5 1 7l-4 22 h4l-12 12q0 2 -1 7q-7 42 -7 59t6 26.5t18 12.5q6 3 15.5 4.5t21.5 1.5q10 0 36 -2t60 -6q8 4 16 6t19 2q12 0 40 -3t44 -3q9 0 13.5 0.5t7.5 1.5q7 -1 16 -1.5t27 -0.5q7 0 14.5 0.5t25.5 3.5l3 -12l-4 -9l34 15l4 -2q2 0 6 1q15 3 21 3h70q12 0 56.5 5t76.5 5h8 q14 0 29 -0.5t30 -1.5l7 -8q8 -10 11 -18.5t3 -18.5q0 -2 -1 -8t-5 -27l4 -22l-2 -17v-20q0 -47 -11.5 -67t-38.5 -21q-14 3 -31 8.5t-20 5.5h-3q-10 3 -19 4.5t-18 1.5q-12 0 -27 -3t-31 -9q-3 7 -7.5 10.5t-12.5 3.5l-21 -4q-9 4 -23 6t-51 2q-11 0 -45 -2q-13 -1 -20 -2 q-10 -4 -37 -9q-11 -2 -17 -3q-16 0 -24 -56t-8 -171v-21q0 -43 14 -57.5t62 -14.5h14l16 -8l-2 4h11l18 4h27q11 1 20 2.5t17 3.5q6 -3 12 -5.5t11 -1.5q2 1 26 2q16 1 26 2z" />
<glyph unicode="G" horiz-adv-x="1212" d="M53 675q-1 8 -1.5 15t-0.5 21q0 69 15.5 133.5t46.5 126.5v39q19 24 36.5 50.5t32.5 57.5v23l80 104h19l-6 7q4 5 10.5 9.5t13.5 6.5q18 27 41.5 41.5t55.5 17.5l17 -2q8 6 19 10.5t32 7.5q5 8 11.5 13t15.5 8q23 9 45.5 13.5t43.5 4.5q7 0 34.5 -3t42.5 -5q12 4 25 6 t31 2q29 0 78.5 -9.5t128.5 -31.5q50 -28 72.5 -48.5t25.5 -41.5l-2 -12l4 -2q10 -6 15 -13.5t5 -17.5v-6l11 -22q12 -17 18 -32.5t6 -29.5q0 -2 -2 -18t-2 -28q5 -28 7 -41.5t3 -24.5q1 -9 6.5 -15t19.5 -15q-11 -15 -16.5 -29t-5.5 -36l1 -3q1 -10 1 -21q0 -6 -0.5 -13 t-3.5 -22q-20 -20 -69 -25q-26 -3 -40 -6h-97l-17 15v-5h-2q-24 1 -31 167q-1 24 -2 38q-2 2 -5 7.5t-7 13.5v6q0 45 -59 76.5t-142 31.5q-34 0 -64 -11t-61 -36q-20 -4 -33.5 -18t-21.5 -39q-56 -85 -74 -128t-18 -81q0 -8 0.5 -13.5t1.5 -10.5q-15 -50 -23 -96.5t-8 -90.5 q0 -47 11.5 -98t11.5 -60q0 -8 -0.5 -13t-1.5 -11q5 -5 9 -14t5 -17l2 -8q5 -8 11 -12.5t15 -7.5l-18 -25l27 -33q5 -4 13 -10.5t9 -8.5q-3 -6 -4.5 -12t-1.5 -12q0 -10 7 -19t27 -20q14 -3 27.5 -13t27.5 -28q27 -16 64 -24.5t83 -8.5q7 0 9.5 0.5l7.5 1.5q3 -4 9 -6t15 -2 l25 3q7 4 14.5 6t17.5 2q6 -1 13 -2.5t13 -3.5q10 1 24 7t32 17q0 1 10.5 6t25.5 10l5 7l15 10.5t8 5.5l2 4l4 4v120q-4 47 -13 70t-28 31l-19 -2q-9 0 -15 0.5t-11 1.5h-11q-3 0 -5.5 -1t-8.5 -5q-11 0 -19 -0.5t-16 -1.5q-12 0 -24 6t-23 17v61q0 57 14 84.5t46 32.5l16 2 l12 -2l9 -2q6 3 13.5 4.5t16.5 1.5h3q13 -2 26 -2q8 0 14 2t10 6q46 0 123 4t109 4q8 -6 15.5 -13.5t15.5 -16.5v-25l-5 -10l-4 -19l2 -22v-6q0 -4 -3 -32.5t-3 -51.5q4 -9 5 -15t1 -12q0 -4 -1.5 -20.5t-2.5 -26.5l2 -16q-4 -19 -6 -43.5t-2 -79.5q0 -28 3 -71.5t3 -59.5 v-5q0 -54 -138.5 -109.5t-299.5 -55.5h-45q-22 0 -43.5 1.5t-45.5 4.5q-114 1 -199.5 40.5t-139.5 116.5q-32 31 -54.5 65t-35.5 73v16l-19 20q0 11 -0.5 20t-1.5 17h-20q-18 63 -26.5 120t-8.5 112q0 21 1.5 43.5t4.5 43.5z" />
<glyph unicode="H" horiz-adv-x="1141" d="M1061 53l6 -12q-5 -10 -8.5 -15t-7.5 -9q-6 -9 -14 -14.5t-21 -8.5q-6 0 -12.5 1t-8.5 1h-12q-1 0 -6 -1q-14 -1 -29 -1h-8q-9 0 -27 6l-6 2l-14 -8h-16q-55 0 -76 21t-21 98q0 19 3.5 41.5t9.5 46.5q-1 2 -4 9.5t-3 12.5v8q0 1 1 3q1 7 1 14l15 14l-4 -2q1 4 2 12t2 11 l-2 5q-4 8 -5 12.5t-1 10.5q2 15 5 31.5t3 17.5v9q0 3 -1 8t-1 6v14l2 15q0 2 -1 5q-11 72 -11 107v4q0 9 -5 24.5t-14 33.5v12q-112 3 -193 4.5t-128 1.5h-54q-26 0 -36.5 -13.5t-10.5 -72.5q0 -4 1 -17.5t1 -21.5v-8q0 -30 -7 -69t-7 -48v-6l-1 -12t-1 -23 q0 -40 6.5 -74.5t19.5 -65.5q-8 -22 -11 -34.5t-3 -23.5v-9q0 -3 3.5 -17t8.5 -35l4 -6q5 -7 6 -12q-2 -6 -6.5 -10.5t-11.5 -7.5q-9 -10 -17 -15.5t-19 -8.5q-6 0 -13 1t-8 1h-10h-47q-2 0 -8 1.5t-15 4.5l-14 -8h-19q-50 0 -71 19.5t-21 70.5v16q0 31 2.5 55t7.5 45 q0 3 -3 10.5t-3 12.5v8q0 1 1 3q1 7 1 14l13 14l-12 -2q1 9 4.5 17.5t6.5 12.5l-10 -1l-4 8q3 26 4.5 41t1.5 20v11q0 2 -1 11t-1 17l2 15v-6v67q0 30 -2 55v2l-4 23q3 40 4.5 69.5t1.5 51.5v10v8q0 7 -0.5 14t-1.5 15l-2 31q0 6 1 12t3 13q-5 45 -7.5 93t-2.5 103v121 q0 14 -1.5 31t-6.5 52q7 5 10.5 10.5t3.5 12.5v8q0 1 -1 5.5t-1 9.5q-16 39 -24.5 95.5t-8.5 133.5v12l1 4.5t2 10.5q7 11 14 16t16 6q2 0 4.5 1t3.5 1q4 0 31 6.5t49 6.5q4 0 11 -2t14 -5v-6q29 8 49.5 11t40.5 4q15 0 25.5 -3.5t19.5 -11.5h-4q10 -10 14 -21t4 -36 q0 -1 -3 -26.5t-5 -49.5l-16 -16l8 -1q-1 -7 -2.5 -13.5t-3.5 -12.5q0 -4 2 -15q8 -58 8 -95q0 -21 -4 -46.5t-12 -52.5q2 -12 3 -23.5t1 -21.5v-18q0 -1 -1 -11t-1 -18v-22q0 -27 3 -51t9 -48l-2 -18v-21q2 -4 2 -8v-2v-12q0 -4 -1.5 -10.5t-4.5 -18.5q5 -7 10.5 -10.5 t18.5 -5.5q5 5 11.5 7.5t16.5 2.5l5 -1t10 -1h12q3 0 7 1t9 3q6 -1 15.5 -1.5t35.5 -0.5h91q25 0 76 1.5t132 4.5v45q0 2 1 13q1 45 1 88q0 37 -3 73.5t-9 71.5l15 22l-5 17q-16 35 -23 70.5t-7 95.5v8l1 4.5t1 7.5q5 4 19 12t22 15q3 -1 8.5 -2.5t7.5 -1.5h6h6q5 0 9 0.5 t8 1.5l24 2q7 0 15 -2t16 -6q5 0 15 1q57 7 83 7h7q30 0 42.5 -10t12.5 -33q0 -7 -3.5 -29t-4.5 -36l-13 -13h4l-4 -23q3 -14 4.5 -31t1.5 -36q0 -18 -3.5 -36.5t-10.5 -35.5q1 -2 2 -6q2 -9 2 -12v-8l-2 -27q0 -28 3 -50.5t9 -39.5q-1 -14 -1.5 -26t-0.5 -23v-6q0 -5 1 -18 t1 -19v-21l-2 -20l5 -21h-9l15 -18q-5 -20 -7 -43t-2 -62q0 -14 -1.5 -32.5t-4.5 -42.5q2 -4 3 -7q5 -11 6 -18v-8q0 -1 -1.5 -9.5t-1.5 -17.5v-12q0 -1 3.5 -5.5t5.5 -7.5v-3q0 -31 -6.5 -77t-6.5 -61v-6v-6q-2 -22 -2 -41q0 -32 6.5 -64.5t18.5 -64.5q-6 -16 -9 -28.5 t-3 -18.5v-14v-9q0 -3 5 -25q3 -15 5 -24z" />
<glyph unicode="I" horiz-adv-x="444" d="M383 1380q0 -1 1 -5q3 -15 3 -21q0 -8 -3 -27.5t-3 -30.5q0 -30 -43 -66q-17 -14 -24 -21q-21 -8 -43.5 -11.5t-49.5 -3.5q-28 0 -57.5 8.5t-59.5 24.5q-24 31 -35.5 57.5t-11.5 52.5q0 10 0.5 14t1.5 8l6 16q-1 2 -2 15q-1 10 -2 15q1 6 2.5 11.5t6.5 15.5q7 16 29 35 t28 30q20 15 46.5 23t57.5 8q36 0 66 -12t53 -35q5 -7 9 -17q1 -3 1 -4q8 -13 11.5 -21.5t3.5 -13.5q2 -7 3.5 -11.5t2.5 -8.5l-2 -16zM203 -2l-17 -4l-30 -2h-9q-25 0 -44 8.5t-37 27.5q3 27 8 71q8 77 16 102q-3 6 -4.5 12t-1.5 10v10l1 5t1 10q4 6 8 16t6 20l-2 7 q-2 6 -4 20q2 15 5 31.5t3 17.5v9l-1 10t-1 18l2 15l-2 4v48q1 11 1.5 22t0.5 28q0 5 -2 26t-2 38q0 3 1 14t1 16q0 10 -3 25q0 2 -1 4l-2 22q0 10 2 22t6 23q-5 20 -7.5 40t-2.5 40q0 3 2 16t2 23q0 15 -1.5 28.5t-4.5 26.5l12 23l-2 8q-14 28 -21 54t-7 53q0 11 3 40 q1 5 1 7q3 3 18 10t24 12l19 -2q14 1 31.5 2.5t19.5 1.5q9 0 15 -1.5t14 -6.5q6 1 16 2q56 6 80 6q5 0 21 -2q9 -1 15 -2q14 -3 20 -10t6 -22q0 -4 -5 -31q-4 -17 -5 -27l-9 -8q0 -3 -1.5 -8t-4.5 -11q4 -16 6 -30.5t2 -24.5q0 -14 -4 -29.5t-12 -29.5q0 -2 1 -5 q3 -23 3 -36q0 -11 2 -21t6 -21q-2 -8 -3.5 -13t-2.5 -9l2 -30l-2 -17l2 -16h-4l12 -18q-5 -34 -9.5 -74.5t-6.5 -48.5q3 -17 4.5 -26t1.5 -11q0 -7 -1 -15.5t-1 -11.5q0 -4 2 -9.5t6 -10.5q0 -7 -1 -34q-3 -98 -3 -185q0 -50 3.5 -96.5t11.5 -92.5l4 -18q-6 -21 -18.5 -30 t-35.5 -9l-18 2q-12 0 -32 -2t-27 -2q-10 0 -19 1.5t-16 4.5z" />
<glyph unicode="J" horiz-adv-x="551" d="M449 791v-15q3 -12 4.5 -19.5t1.5 -13.5v-30q-4 -10 -5 -18t-1 -25q0 -13 6 -47.5t6 -55.5v-14q-9 -22 -13 -47.5t-4 -63.5q0 -7 1 -27.5t1 -33.5q0 -5 -1 -19t-5 -44q2 -3 4 -8t4 -16l-2 -18q-3 -13 -4.5 -25.5t-1.5 -27.5v-39q0 -22 -2 -36.5t-6 -24.5 q-9 -11 -13.5 -25t-4.5 -30l-1 -11q-10 -3 -16.5 -9t-11.5 -17l-9 -21q-2 -1 -8 -3q-11 -4 -16 -7v-18q-13 -12 -35 -31q-33 -28 -43 -39q-40 -37 -66.5 -53.5t-47.5 -18.5q-7 -4 -13 -6t-11 -2q-22 3 -39 14.5t-31 32.5q-15 7 -25 17.5t-14 23.5q-3 13 -3.5 19.5t-0.5 13.5 q0 23 12.5 38.5t37.5 24.5q76 42 106 150.5t30 349.5q0 54 -3.5 106t-10.5 102q4 15 6 29.5t2 30.5v49q-6 8 -8 16.5t-2 29.5v3q2 11 2 22q3 7 4.5 17t1.5 29q0 3 -1 18.5t-1 26.5v17q-5 6 -7 12t-2 12l4 18q-1 12 -9 37.5t-11 40.5q-5 6 -9.5 12.5t-7.5 12.5l-18 -4 q-5 0 -14 1t-12 1q-8 0 -20.5 1t-18.5 1t-12 -0.5t-13 -1.5h-8q-19 0 -28 16t-9 52v34l4 7q-5 3 -7.5 6.5t-2.5 7.5l2 12q-1 5 -2 14q-4 20 -4 31q0 9 2.5 15t7.5 10l8 2l21 -2l18 4q1 0 6 1q14 3 21 3q6 0 13 -2.5t14 -7.5q6 1 16 1.5t43 0.5q8 0 31.5 -1t37.5 -1h28 q86 2 161 2l18 2q10 -7 15.5 -17.5t5.5 -23.5v-8l-2 -21q-1 -4 -2 -12q-2 -23 -6 -34v-38q0 -24 -3.5 -87t-3.5 -101q0 -35 2.5 -61.5t8.5 -49.5v-37q0 -11 -0.5 -19.5t-1.5 -17.5q0 -1 2 -7q4 -14 4 -21z" />
<glyph unicode="K" horiz-adv-x="1243" d="M866 436l2 -18q0 -9 -2.5 -17t-7.5 -16q0 -7 1 -23t1 -24q0 -14 4 -43v-4q4 -6 9.5 -24t15.5 -25v-25q6 -14 18.5 -20.5t32.5 -6.5q13 0 19 0.5t11 1.5q14 6 24 18t16 30q7 22 13 66q11 83 64 95l19.5 -3t11.5 -1l6 2l19 2h2q29 -4 43 -10q24 -18 35.5 -35.5t11.5 -38.5 q0 -15 -10.5 -54t-12.5 -65q-9 -12 -15 -30t-9 -41q-1 -5 -2 -13q-4 -37 -14 -42l-17 -9l-2 -18l-12 -12q-18 -4 -30 -13t-22 -26h-4q-10 0 -55 -10.5t-78 -16.5q-8 0 -15 1t-13 3l-13 4h-10q-10 0 -19.5 1.5t-17.5 3.5q-5 0 -16.5 1t-18.5 1h-24q-37 0 -57.5 11.5 t-34.5 41.5h-21q-13 0 -20.5 10t-7.5 29l12 12h-4q-18 0 -28.5 10t-14.5 30q-12 42 -17.5 88t-5.5 105q0 45 2.5 81t5.5 52l4 21q0 5 -1 12t-3 15q-4 21 -14.5 35.5t-26.5 21.5h-102l-18 6q-4 0 -13 -1t-14 -1l-14 2q-8 1 -16.5 1.5t-18.5 0.5q-9 0 -14 -2.5t-9 -9.5l-8 -6 v-10q0 -32 -2 -63t-6 -62l2 -15q-3 -18 -3.5 -25.5t-0.5 -13.5q0 -8 1.5 -15t4.5 -12l4 -18q0 -6 -1.5 -12t-4.5 -12l-2 -6l4 -17l-4 -4l14 -14q0 -10 0.5 -15t1.5 -9q0 -2 -1 -5q-4 -12 -7 -19q3 -48 7.5 -96.5t4.5 -50.5q0 -31 -12.5 -45t-40.5 -14h-22q-16 0 -23.5 1 t-13.5 3l-17 2q-9 -3 -18.5 -4.5t-20.5 -1.5q-2 0 -16.5 1t-26.5 1q-1 0 -6 -1q-14 -1 -28 -1q-17 6 -27 15t-14 21l4 -1q-2 1 -4 5.5t-4 15.5l2 9l4 9l-4 12q10 25 15 47t5 41q0 10 -2.5 23t-7.5 31q7 42 10.5 77.5t3.5 62.5v15q0 5 -3 44.5t-3 74.5q5 5 8 9.5t4 9.5l-2 12 q-1 5 -1.5 10t-0.5 14q0 7 1.5 13.5t4.5 14.5q-3 16 -4.5 39t-1.5 52q0 13 2 33t2 26q0 7 -3 25q0 3 -1 6l6 18l-4 6l2 15q-2 6 -3 12.5t-1 22.5q0 1 1 13t1 21v16q6 17 8.5 35.5t2.5 43.5q0 6 -1.5 28.5t-1.5 38.5q1 13 4 44v6q-6 13 -10 32t-4 41q0 14 3 38.5t3 29.5v22 l-10 12q-6 30 -8 44.5t-2 23.5q0 15 6.5 24.5t18.5 12.5q6 3 14 4.5t22 1.5q9 0 36 -2t63 -6q8 3 15.5 4.5t14.5 1.5q3 0 15.5 -1.5t33.5 -4.5q4 0 9.5 1.5t12.5 4.5q23 0 32.5 -7t11.5 -25q-8 -77 -15 -116.5t-18 -64.5l-2 -19q3 -33 4.5 -61t1.5 -51v-84q0 -43 -3 -81.5 t-9 -69.5q4 -8 8 -15t4 -8l19 2l14 -10h4l4 2h9q27 0 50.5 1.5t43.5 4.5q10 10 22.5 17t24.5 10q34 74 69 146l9 17l-6 17q6 10 14.5 19.5t17.5 17.5q10 31 40.5 86.5t41.5 82.5q23 50 72 143q11 21 16 31q17 17 36 25t42 8q21 0 41 -6.5t39 -19.5h33q40 -32 51.5 -48 t11.5 -33q-1 -4 -2 -12.5t-2 -13.5q-12 -15 -34 -44.5t-33 -40.5q-7 -9 -11 -17t-6 -17l2 -12q-29 -31 -52 -60.5t-40 -60.5v-6q0 -12 -10 -28t-29 -33q0 -6 -3 -15.5t-9 -21.5q-4 -2 -11 -6t-8 -4v-6q0 -16 -6 -30.5t-20 -31.5l-1 -10.5t-1 -20.5q-16 -13 -29.5 -33.5 t-23.5 -48.5l4 3l6 -3l10 3q7 -2 12 -4t9 -5q46 -30 64 -52t21 -50q0 -12 -3 -37t-3 -39q0 -9 1.5 -19t4.5 -19l-10 -27l6 2z" />
<glyph unicode="L" horiz-adv-x="821" d="M504 207l8 4l14 -2q6 0 13 1t8 1l12 -2h8q15 0 26.5 5t17.5 13q11 -5 25.5 -7.5t33.5 -2.5q10 0 29 3q4 1 6 1h6q9 0 25.5 4t23.5 4t16 -2.5t19 -7.5q8 -7 12 -46q2 -21 4 -34q-1 -6 -3 -20q-4 -29 -9 -42q3 -9 4.5 -18t1.5 -16q0 -13 -5 -23.5t-16 -19.5 q-9 -5 -19.5 -7.5t-25.5 -2.5q-8 0 -39.5 4t-54.5 6q-3 0 -8.5 1t-17.5 3l-3 8l-18 -12q-2 0 -7 1q-21 3 -30 3t-21.5 -5t-23.5 -13q-14 17 -36 19q-5 1 -7 1l-12 4l-27 13l4 -11l-2 -12q-7 2 -16 3t-29 1h-6q-20 -2 -37 -2l-14 2h-5q-45 -4 -67 -4q-11 0 -19 2t-14 6 q-22 -4 -45.5 -6t-50.5 -2q-34 0 -47.5 9.5t-13.5 33.5q0 12 3.5 33.5t4.5 32.5l12 12h-4l4 25q-5 28 -6.5 41t-1.5 24q0 19 4.5 38t13.5 37q0 9 -1 21.5t-1 16.5q0 9 2 37t2 47q0 18 -2.5 36.5t-7.5 36.5l2 19l-2 43l2 22l-4 23l8 -2l-16 20q5 22 7.5 56.5t2.5 89.5 q0 15 1.5 30t4.5 30q-4 9 -6 19t-2 21q0 4 1 16t1 21q0 5 -3 13.5t-7 15.5q1 36 8.5 112t7.5 115q0 40 -6.5 78t-19.5 76q6 17 9 34t3 35t-8 59q-4 21 -6 33l-2 10q3 22 18.5 30.5t52.5 8.5q4 0 20 3.5t27 3.5q8 0 16 -2.5t19 -8.5q13 1 41.5 7t44.5 6q26 0 38.5 -14.5 t12.5 -43.5q0 -48 -4.5 -97.5t-13.5 -96.5q4 -7 6 -15t2 -18v-3q-2 -11 -2 -20l-14 -16h4q0 -4 -2 -16q-1 -6 -2 -11l2 -10q3 -8 4.5 -15t1.5 -14q0 -4 -3 -22.5t-3 -32.5v-62q3 -50 4.5 -86.5t1.5 -58.5v-26q0 -7 1 -16.5t3 -26.5l-16 -15h12l8 -2v-4l-2 -12q-6 -34 -8 -47 t-2 -19q0 -5 2.5 -10t7.5 -10q0 -10 -4 -29.5t-12 -44.5l4 4l2 -14q0 -5 -1 -12t-3 -18q0 -21 1 -60q8 -279 34 -279q5 -1 14 -3q18 -4 25 -7q13 -3 20 -3.5t14 -0.5q5 0 15.5 1t15.5 1q7 0 15 -1.5t16 -4.5z" />
<glyph unicode="M" horiz-adv-x="1374" d="M1024 240q2 65 3 101.5t1 68.5q0 87 -6 183q-2 25 -2 32q0 17 3 50.5t9 84.5l-4 14v76h-4q-4 0 -11 -9t-13 -21q-1 -21 -9.5 -48.5t-36.5 -89.5q-5 -22 -8.5 -36t-3.5 -17v-4q-38 -74 -63 -139t-37 -124q-4 -7 -11 -17.5t-10 -15.5l2 -28l-12 -8q-2 -14 -2 -23v2v-10 q0 -25 -14.5 -39t-40.5 -16q-7 0 -17.5 -1t-15.5 -1h-9q-31 2 -57 2q-1 0 -6 -1q-21 -1 -43 -1q-24 6 -38.5 28.5t-18.5 60.5q-10 14 -15.5 20t-11.5 12q-3 9 -10 26q-43 119 -45 151q-8 6 -12.5 14t-5.5 22q-35 116 -63 187.5t-40 78.5q-3 11 -10.5 32.5t-7.5 28.5l-4 11 l-5 -3v-10l3 -20q0 -6 -2 -17t-5 -25q2 -41 5.5 -68.5t9.5 -43.5q-5 -7 -8 -11.5t-6 -8.5q0 -9 0.5 -19t0.5 -22q0 -14 -2 -52.5t-2 -64.5q0 -16 1.5 -33t4.5 -35l-12 -16l8 2l2 -16l-4 -17q1 -8 1.5 -17t0.5 -20q0 -16 -0.5 -22.5t-1.5 -12.5q-1 -12 -1.5 -25t-0.5 -40 q0 -135 25 -274q6 -32 6 -39q0 -5 -3 -22q-1 -5 -1 -7v-6q0 -18 -18.5 -26.5t-59.5 -8.5q-8 0 -25.5 1t-25.5 1t-12 -0.5t-7 -1.5q-8 -1 -16 -1.5t-20 -0.5q-42 0 -62 12t-20 37q0 43 10 120.5t10 111.5v28q0 15 2 30.5t6 35.5l4 18l-4 11l18 4q-10 3 -15.5 8t-6.5 12 q1 11 1.5 21t0.5 20q0 35 -3 70q-1 8 -1 10v92q0 39 -1 78.5t-3 87.5q6 17 8 35.5t2 60.5q0 21 1.5 36.5t4.5 26.5q-3 9 -4.5 16.5t-1.5 12.5l2 25l-2 16q5 20 7 42.5t2 50.5q0 22 -2.5 49t-8.5 63q2 19 5 34.5t7 28.5q-6 26 -9 49t-3 46l6 4l-6 4q-4 7 -6 14.5t-2 16.5 l2 12v6q0 18 10.5 27.5t30.5 9.5q12 0 28.5 -2t33.5 -6l8 2l22 -4v-12l19 12l10 2l21 -6q10 3 26.5 6t38.5 6h25q25 -18 40 -50t29 -112q21 -11 36 -51.5t24 -55.5q1 -7 10 -30.5t14 -40.5q9 -42 44.5 -106t41.5 -105q11 -5 17 -12.5t6 -18.5l-2 -16q4 -18 26.5 -78.5 t32.5 -105.5l6 4l17 8q24 64 38.5 98t24.5 47v21l6 6q6 56 24.5 98t49.5 70q1 11 4 31t4 28q0 3 -1 8t-3 17q7 12 24 60.5t52 154.5v18q0 23 5.5 47t16.5 51l9 7q1 -1 9 -2.5t16 -3.5q21 7 47.5 10.5t60.5 3.5q13 0 31.5 -2t39.5 -6l15 6l18 -8h12q6 0 20.5 4t22.5 4 q13 0 23.5 -8t17.5 -22q-3 -5 -5.5 -11.5t-2.5 -9.5l2 -13l-2 -12q0 -67 -4 -174t-4 -147q0 -37 2 -69t6 -58q-5 -11 -6.5 -16.5t-1.5 -10.5l2 -22l-2 -17l4 -20l-2 -20q-4 -6 -7.5 -12.5t-4.5 -10.5v-15q4 -8 6 -18t2 -23q0 -9 -9 -61l-1 -6l-4 -3q8 -15 13 -33.5t5 -35.5 v-16v-17q-4 -4 -8.5 -7t-9.5 -5l-7 2l7 -18l6 4h6q4 -20 6 -38.5t2 -37.5v-74l4 -129l17 -121q-7 -26 -23 -38.5t-46 -14.5h-20q-17 0 -64 3q-9 1 -13 1q-14 -7 -28 -10.5t-32 -3.5q-20 0 -32.5 6t-22.5 21v14q0 6 1 24.5t1 30.5q0 8 -1.5 15t-4.5 14q0 17 3 27.5t9 19.5 l-4 18l4 25q-1 5 -3 14t-3 15z" />
<glyph unicode="N" horiz-adv-x="1122" d="M100 319l-4 21l2 8l-4 98v146q0 30 -0.5 49.5t-1.5 38.5q4 15 6 32t2 38v30q0 23 1.5 38.5t4.5 24.5q-3 9 -4.5 16.5t-1.5 12.5v19l-2 18q4 21 6 45t2 52q0 29 -2.5 57t-7.5 58v3q0 2 -2.5 14.5t-3.5 25.5q0 5 3 12.5t7 13.5q-3 12 -4.5 26.5t-1.5 28.5q0 15 0.5 21.5 t1.5 13.5l4 2l-4 3q-3 8 -4.5 17t-1.5 15v6q-2 6 -5 16t-3 11q3 11 10 15.5t23 4.5q12 0 44 -5q13 -2 21 -3l10 2l23 -4v-8l4 2q5 3 9 4.5t12 3.5l18 -6q13 4 28 7t31 5h56q31 -26 48 -59.5t21 -77.5q6 -5 8 -10t3 -15h-7l17 -14l6 -16q14 -11 24 -23t15 -25q6 -10 19.5 -37 t23.5 -43q9 -17 16.5 -34.5t14.5 -35.5q6 -18 26 -61t29 -69q24 -24 55 -106q7 -18 10 -27q6 -6 9.5 -12.5t5.5 -14.5l10 -4q17 -51 36 -93t42 -79l8 -6q1 12 2 36.5t2 37.5q-1 6 -1.5 12.5t-0.5 15.5v6l4 15q0 3 -2 12q-10 65 -10 94q0 19 3 37.5t9 36.5l-2 4h4l-12 17 q3 66 4.5 122t1.5 99q0 71 -3 146q-1 18 -1 22q0 16 4 45v4l4 4l-4 8l-2 14q0 10 2.5 19t5.5 14q-8 10 -12 21t-4 24q3 9 4.5 19.5t1.5 31.5q0 4 -1 21.5t-1 30.5v16q10 18 24 26.5t33 8.5q11 0 21.5 -3t23.5 -9q6 0 19.5 3l22.5 5l16 4l18 2q31 -10 46.5 -28t15.5 -44v-14 q-9 -63 -13 -133t-4 -154v-92q0 -23 -2 -46t-6 -46q-5 -2 -8 -6.5t-4 -9.5l-4 -7q2 0 6 -2t12 -8l4 6v-47q0 -21 -3.5 -38t-10.5 -31v-17q0 -16 4 -49t4 -49q0 -8 -1.5 -18.5t-4.5 -22.5v-15q0 -7 3 -13t9 -11l2 -19l-4 -20l2 -16l-2 -23q0 -8 2 -14.5t6 -14.5 q-4 -16 -6 -50.5t-2 -90.5q0 -31 4 -113.5t4 -134.5v-33q0 -10 1 -24t1 -17l-2 -20q-2 -17 -12.5 -26t-30.5 -11l-18 2q-11 -4 -27.5 -6t-40.5 -2q-19 0 -48.5 1t-39.5 1h-12q-25 13 -43 38.5t-31 65.5q-5 8 -15 21t-16 20q-10 24 -29 67q-48 107 -55 143q-8 6 -14.5 16.5 t-9.5 21.5q-11 15 -21 60q-5 22 -8 32q-8 10 -27.5 52.5t-31.5 66.5l-18 10q-8 27 -19 46.5t-27 31.5q-2 9 -5.5 21.5t-4.5 15.5q-22 29 -39.5 62t-32.5 71q-12 15 -39 45l-4 -2q0 -2 5 -14q2 -5 3 -9q-2 -5 -4 -12.5t-4 -19.5l2 -10v-13q0 -3 -1.5 -9.5t-2.5 -10.5 q2 -35 5 -64.5t7 -50.5q-4 -6 -7.5 -14t-4.5 -8l2 -27v-8q0 -5 -2 -39.5t-2 -62.5q0 -7 1.5 -18t4.5 -28l-10 -12h6l2 -18l-4 -17q1 -4 1 -11q3 -49 3 -69q0 -15 -1 -46t-1 -48q0 -121 22 -237q5 -24 5 -29q0 -4 -1 -10l-3 -18v-7q0 -17 -17 -25t-57 -8h-68q-7 -1 -14 -1.5 t-24 -0.5q-46 0 -65 10.5t-19 34.5q0 40 11 118t11 114v29q0 12 3 43q1 11 1 16z" />
<glyph unicode="O" horiz-adv-x="1241" d="M68 762q-4 7 -5.5 14t-1.5 21q0 15 10.5 43.5t12.5 39.5l2 9q12 26 20.5 46.5t12.5 33.5v39q18 22 35 48.5t34 59.5v23q25 30 45 56.5t35 47.5h19l-6 6q4 6 10.5 10.5t13.5 6.5q18 27 42 41.5t54 17.5l18 -2q8 6 19 10.5t33 7.5q10 17 41.5 28t69.5 11q13 0 35.5 -2 t50.5 -6h8q66 0 133 -23t141 -71q18 -10 48.5 -35.5t50.5 -28.5q0 -16 36 -86q17 -33 27 -53v-18l18 -19v-16q1 -5 3 -14q1 -5 2 -9h20q13 -53 20 -114t7 -131q0 -30 -3 -114q-1 -28 -1 -42l-19 -20l10 -3v-22q0 -67 -9.5 -111.5t-29.5 -69.5q-2 -7 -3 -16t-1 -26 q-13 -13 -28.5 -48.5t-24.5 -50.5q-4 -6 -7.5 -14.5t-8.5 -25.5q-30 -41 -60 -67.5t-67 -45.5q-20 -26 -43.5 -38.5t-50.5 -12.5h-14q-12 -9 -26 -14t-28 -5h-8l-4 -2l-10 -2q-19 -13 -36.5 -18.5t-37.5 -5.5q-14 0 -38 3t-34 3q-6 0 -15.5 -2t-18.5 -4h-19q-86 0 -164 39 t-150 118h-40q-21 50 -35.5 81.5t-28.5 55.5v17l-18 20v-6q0 7 -0.5 18.5t-1.5 24.5h-21q-16 59 -24.5 117.5t-8.5 120.5q0 28 3 72t10 104zM362 371l27 -33q6 -5 13.5 -11t8.5 -7l-3.5 -14t-1.5 -12q1 -10 8 -19t24 -19q16 -3 31.5 -14t30.5 -32q1 -10 18.5 -16.5 t46.5 -7.5q38 0 54.5 1.5t32.5 4.5q7 -2 15 -3t19 -1q42 0 72 18.5t61 63.5q41 31 65.5 98.5t24.5 149.5v23q9 32 13 64.5t4 64.5q0 13 -3 72t-3 104q-8 17 -13.5 34t-9.5 35q-5 7 -9.5 17t-6.5 21l4 14q-5 6 -10.5 10t-14.5 8l10 21l-14 6q-11 3 -18.5 8.5t-14.5 16.5 q-6 22 -52 64q-6 6 -10 9q-14 2 -26 8.5t-20 18.5q-39 11 -64 16.5t-41 5.5q-24 0 -52 -9.5t-64 -31.5q-31 -6 -52 -47q-9 -17 -14 -24l-2 -4q-80 -128 -80 -181q0 -12 0.5 -18.5t1.5 -12.5q-11 -41 -16.5 -79t-5.5 -72q0 -41 1 -87.5t1 -51.5q6 -18 9 -34t3 -28l-2 -24 q6 -5 9 -11t5 -20l2 -8q5 -8 11 -12.5t16 -8.5z" />
<glyph unicode="P" horiz-adv-x="952" d="M809 1292h10q17 -18 40.5 -48t33.5 -40v-6q0 -8 9 -36q32 -98 34 -201q-4 -13 -6 -25t-2 -22q-2 -22 -5 -37.5t-8 -26.5q-4 -4 -8.5 -7.5t-7.5 -6.5q-22 -68 -60 -123t-91 -97h-13q-20 -31 -40.5 -49.5t-44.5 -27.5q-45 -29 -93.5 -45.5t-85.5 -16.5h-16q-14 -8 -44 -12 q-17 -2 -25 -4q-17 -2 -27.5 -10t-16.5 -23q0 -43 2 -75.5t6 -65.5l-14 -15h4q0 -5 -1.5 -11.5t-4.5 -15.5q8 -54 12 -102.5t4 -93.5q-8 -17 -21.5 -29.5t-35.5 -23.5q-14 0 -20 -0.5t-11 -1.5q-5 1 -11 2.5t-15 3.5l-23 -2h-16q-8 0 -24 -3q-5 -1 -7 -1q-9 5 -40 13.5 t-44 31.5v12q0 22 5 39t13 27q-1 8 -1.5 15t-0.5 11q1 7 1 17q3 51 3 71q0 11 -2 24t-8 34q0 26 3.5 55.5t10.5 61.5l-7 13q0 7 0.5 14t0.5 20v34q0 11 2 22t4 19q0 12 1.5 39t1.5 43q0 27 -4.5 54t-12.5 55l-2 18q1 20 4.5 44t3.5 28q0 5 -2 14q-1 5 -2 8l17 27l-15 -2 q-4 4 -6 12t-2 29q0 2 1 5t1 5v29q0 11 -3 23t-9 24q6 8 9 16t3 17q0 6 -2 17.5t-6 25.5v8q0 10 2 25t6 32q-8 20 -17 86q-4 34 -7 55q14 71 156 89q62 7 102 14q69 5 117 7.5t83 2.5q36 0 109 -3q8 -1 12 -1q13 -7 40.5 -15t38.5 -19q21 -2 36.5 -9.5t27.5 -21.5 q14 -7 17.5 -9t3.5 -4v-4zM350 1143l-8 -19q4 -50 6 -88.5t2 -54.5v-55q0 -28 -2 -52.5t-6 -46.5q3 -13 4.5 -25.5t1.5 -23.5v-37q0 -33 6 -45t21 -12l12 2l10 -2l11 2l6 2l18 4l16 -4q18 7 37 13t37 10q40 27 63 48.5t35 40.5q12 16 23 36.5t23 50.5l-2 12l4 19 q7 11 10.5 23.5t3.5 25.5t-6 33t-21 55q-12 10 -21.5 22.5t-17.5 28.5v14q-4 3 -11.5 7t-23.5 12h-22q-32 17 -58 26t-46 9q-29 -1 -45.5 -5.5t-30.5 -15.5q-9 -5 -24 -9q-4 -1 -5 -1z" />
<glyph unicode="Q" horiz-adv-x="1253" d="M78 776q-4 10 -6 22.5t-2 28.5q0 7 3 20.5t9 35.5l2 4q4 7 15.5 36.5t17.5 45.5v39q26 34 42 59t27 49v23q25 30 45 56.5t35 47.5h19l-6 7q4 6 10 10t14 6q18 27 42 41.5t56 17.5l16 -2q8 6 19 10.5t33 7.5q6 8 12.5 13t14.5 8q24 9 45.5 13.5t42.5 4.5q13 0 34 -2t48 -6 h8q66 0 133 -22.5t139 -69.5q19 -10 50 -36.5t51 -29.5q1 -17 41 -95l22 -44v-18l18 -19v-16q0 -8 1 -13t4 -10h20q19 -60 30.5 -133.5t14.5 -157.5q-5 -52 -9 -140q-7 -154 -38 -189q-3 -16 -3.5 -24t-0.5 -17q-11 -19 -29 -54q-30 -55 -42 -68q-7 -8 -13 -17t-16 -27 q-17 -23 -37 -42t-43 -36h-10q-3 -6 -8 -10.5t-13 -7.5q-19 -27 -53 -42t-85 -20q-2 0 -9 -3t-13 -5q-10 0 -18.5 -1.5t-15.5 -4.5l-17 -6v-6q0 -10 2 -38t6 -65l4 -6v-14q16 -22 37.5 -32.5t50.5 -10.5h17q6 0 9 0.5t5 1.5q21 8 32 24.5t19 54.5l1 5q15 86 63 94l20 -4 q4 0 9.5 1t15.5 3q50 -6 70 -29.5t20 -76.5v-7q0 -8 -2.5 -18t-7.5 -22q-18 -96 -45 -141t-80 -70q-11 -2 -22.5 -3.5t-12.5 -1.5q-8 0 -39 -10t-53 -10h-10l-23 2l-14 2h-31q-15 0 -25 2.5t-19 7.5q-2 0 -10 -2t-9 -2q-18 2 -31.5 10t-28.5 27h-4q-11 0 -23 5t-30 18 q-50 14 -75.5 86t-25.5 200v8q0 6 -2.5 9t-9.5 6q-77 12 -134.5 45t-96.5 88q-12 8 -24.5 12.5t-26.5 5.5q-1 15 -36 83q-18 34 -28 55v16l-18 20v-6q0 7 -1 19l-2 24h-20q-12 48 -18.5 99.5t-6.5 111.5q0 49 4.5 101t12.5 110zM361 376q4 -5 13 -16t13 -16q1 0 7.5 -5.5 t14.5 -12.5q-3 -9 -4.5 -15t-1.5 -9q2 -12 9 -21t25 -19q15 -3 30.5 -14t29.5 -30q6 -18 34.5 -29t68.5 -11q11 0 21 1t22 3h16q116 0 192.5 99.5t76.5 255.5v12q7 23 10.5 48.5t3.5 53.5q0 30 -5 72t-19 120q-3 8 -8 22q-15 41 -15 50q-1 2 -4 7q-9 14 -10 20l-3 9 q-4 5 -14 15t-10 13v2l2 6l12 19q-9 5 -19 11.5t-28 19.5q-6 22 -52 64l-9 9q-16 3 -28 10t-20 17q-38 11 -63 16.5t-41 5.5q-24 0 -52 -9.5t-64 -31.5q-31 -6 -52 -47q-9 -17 -14 -25q-50 -79 -66 -116.5t-16 -67.5q0 -12 0.5 -18.5t1.5 -11.5q-11 -39 -16.5 -82t-5.5 -95 q0 -15 1 -51t1 -57q5 -14 8.5 -29t5.5 -32q-1 -6 -1.5 -11t-0.5 -12v-6q5 -7 8 -13.5t4 -12.5l3 -10q5 -8 11.5 -13t14.5 -7z" />
<glyph unicode="R" horiz-adv-x="1182" d="M831 1292h11q19 -19 43 -49.5t32 -37.5l1 -7q0 -9 9 -39q31 -104 31 -207v-10q-4 -12 -6 -24t-2 -23q0 -16 -2.5 -31t-10.5 -33q-4 -3 -7 -5.5t-6 -6.5q-22 -66 -60 -120.5t-94 -98.5h-12q-15 -17 -24.5 -38t-14.5 -46l2 -16q18 -22 27.5 -46.5t11.5 -56.5q6 -9 16 -28 q17 -31 29 -40q5 -14 22 -44.5t21 -48.5q20 -8 35 -16.5t26 -18.5l19 -4q11 0 20 4.5t17 14.5v54q11 7 15.5 15.5t4.5 21.5v29q0 10 2.5 21t7.5 25q16 6 30 8.5t28 2.5q11 0 44.5 -4t55.5 -4q3 -9 15.5 -35.5t15.5 -46.5q0 -2 -1 -7t-4 -18q-5 -6 -7 -27.5t-10 -32.5 q-1 -10 -5 -35.5t-6 -39.5q-31 -50 -66.5 -84.5t-78.5 -54.5q-7 -6 -9.5 -9t-5.5 -7q-36 -6 -63 -8.5t-49 -2.5q-30 1 -48.5 3t-34.5 8q-14 7 -50 30.5t-60 28.5q-8 7 -12.5 13.5t-5.5 15.5l4 2l-13 8q-18 2 -25.5 7.5t-8.5 16.5q-4 11 -13.5 25.5t-27.5 38.5q0 14 -6.5 23 t-20.5 14v59q-4 2 -8.5 5.5t-16.5 15.5q0 16 -8 43.5t-10 37.5q-10 8 -25 55l-8 24h-22l-50 -9q-28 -1 -44.5 -10t-22.5 -26q0 -30 2 -59.5t6 -59.5l-14 -15h4q0 -5 -1.5 -11.5t-4.5 -15.5q8 -54 12 -102.5t4 -93.5q-8 -17 -21.5 -29.5t-35.5 -23.5q-14 0 -20 -0.5t-11 -1.5 q-5 1 -11 2.5t-15 3.5l-23 -2h-16q-8 0 -24 -3q-5 -1 -7 -1q-9 5 -40 13.5t-44 31.5v12q0 22 5 39t13 27q-1 8 -1.5 15t-0.5 11q1 7 1 17q3 51 3 71q0 11 -2 24t-8 34q0 26 3.5 55.5t10.5 61.5l-7 13q0 7 0.5 14t0.5 20v34q0 11 2 22t4 19q0 12 1.5 39t1.5 43q0 27 -4.5 54 t-12.5 55l-2 18q1 20 4.5 44t3.5 28q0 5 -2 14q-1 5 -2 8l17 27l-15 -2q-4 4 -6 12t-2 29q0 2 1 5t1 5v29q0 11 -3 23t-9 24q6 8 9 16t3 17q0 6 -2 17.5t-6 25.5v8q0 10 2 25t6 32q-8 20 -17 86q-4 34 -7 55q14 71 156 89q62 7 102 14q66 5 116 7.5t88 2.5q35 0 120 -3 q13 -1 20 -1q42 -14 59.5 -21.5t21.5 -12.5q18 -2 34 -9.5t30 -21.5q5 -2 9.5 -5t8.5 -8v-4zM351 1143q-3 -7 -5 -11.5t-4 -7.5q4 -51 6 -91.5t2 -63.5v-60q0 -27 -2 -51.5t-6 -48.5q3 -15 4.5 -27t1.5 -20v-37q0 -37 7 -48t26 -11h8l23 2l10 -2l10 2l4 2l17 4l20 -4 q20 8 38.5 13.5t34.5 8.5q55 34 88 75t54 101q-3 8 -4.5 16.5t-1.5 16.5q9 17 13.5 33.5t4.5 34.5q0 17 -7 34t-21 35l14 33l-24 -2l-5 6q-1 2 -3 7q-7 15 -13 24v14l-37 19h-20q-31 15 -58.5 22.5t-50.5 7.5q-28 0 -46 -4t-32 -14q-9 -2 -19.5 -4t-26.5 -4z" />
<glyph unicode="S" horiz-adv-x="999" d="M195 1262l-8 4q5 2 15 5t15 5q12 30 38 46.5t60 16.5h15q9 10 22.5 15.5t28.5 5.5h6q4 -4 8 -7l4 -3q28 14 59.5 21t69.5 7q58 0 117 -11t119 -34q38 -25 64.5 -48.5t37.5 -43.5q4 -5 18.5 -16.5t14.5 -24.5v-6l10 -27q12 -24 17.5 -84.5t25.5 -89.5q-7 -10 -10.5 -22.5 t-3.5 -34.5q0 -2 1 -12.5t1 -20.5l-1.5 -9t-2.5 -17q-16 -19 -60 -26q-23 -3 -36 -7q-17 1 -41.5 2.5t-28.5 1.5q-6 0 -27 -3q-6 -1 -8 -1l-20 16l2 -6l-4 2l-13 8l-6 19q-3 16 -4.5 28.5t-1.5 22.5q0 5 1 20t1 25q0 16 -1 25t-3 16l-4 16q0 5 3 19q1 4 1 6q-17 44 -71.5 73 t-120.5 29q-41 0 -76.5 -13.5t-63.5 -39.5q-2 -7 -7 -14t-15 -15l-6 -10l1 -15q-14 -11 -21 -22t-7 -22q0 -10 4 -24q2 -6 2 -7q0 -39 8.5 -57t32.5 -35q42 -30 129.5 -51t104.5 -50l4 3q6 5 13 8.5t15 3.5q11 0 21.5 -4.5t22.5 -14.5q131 -20 216.5 -121t85.5 -237 q0 -45 -8 -89t-24 -91q-5 -45 -42.5 -93.5t-110.5 -102.5q0 3 2.5 8l2.5 5l-26 -26l2 6q-17 -15 -36 -23t-44 -10l-19 2q-9 -9 -18 -13.5t-18 -4.5q-36 -7 -75.5 -10.5t-82.5 -3.5q-63 0 -123.5 10.5t-120.5 32.5q-45 28 -70 51.5t-32 41.5l-9 9l-6 4q-10 7 -14 14t-4 17v4 l-10 26q-12 21 -16 82t-17 97q6 10 9 22t3 25q0 3 -1 12.5t-1 15.5q0 9 1.5 18.5t5.5 21.5q9 11 23.5 16.5t33.5 5.5q11 0 19.5 2t15.5 6h100l14 -16v3q7 -3 11.5 -8.5t6.5 -12.5q5 -21 7 -41.5t2 -45.5q0 -32 2 -63t6 -64q11 -27 33.5 -43t50.5 -16h8q21 -9 44.5 -14 t47.5 -5q28 0 54 6.5t51 18.5l10 -2q20 3 38.5 14t33.5 29q20 16 29.5 49t9.5 90v21q-29 89 -181 144q-3 1 -4 1q-8 -2 -14.5 -3t-11.5 -1q-10 0 -18 6.5t-12 18.5q-12 8 -15 10.5t-5 3.5l-23 -2q-33 1 -64 7t-55 15q-16 2 -28.5 9.5t-21.5 19.5q-62 27 -101.5 65.5 t-56.5 90.5q-5 4 -7.5 10t-2.5 14v6q-20 13 -29.5 25.5t-9.5 28.5q0 10 2 17.5t6 12.5q-2 4 -4 10t-4 18q0 6 3 11.5t9 10.5l-2 6q0 4 -3 18t-3 21t2.5 16.5t7.5 21.5v7q0 42 24.5 91.5t76.5 112.5z" />
<glyph unicode="T" horiz-adv-x="1020" d="M802 1360l7 -21q39 16 75 23.5t72 7.5q9 0 19 -0.5t20 -1.5q19 -14 27 -44t8 -85q-5 -30 -11 -51.5t-11 -29.5q-12 -7 -21 -10t-14 -3q-7 0 -21.5 3t-21.5 3h-10q-9 5 -17 7.5t-16 2.5q-13 0 -28 -3.5t-32 -10.5q-5 5 -9.5 8.5t-8.5 5.5l-12 -2q-14 1 -38.5 3.5 t-33.5 2.5q-3 0 -12 -1.5l-15 -2.5q-41 -10 -51 -24.5t-10 -49.5v-32q0 -14 -2 -46t-2 -51q0 -27 3 -45t9 -32q-9 -15 -11 -68q-1 -10 -1 -14l4 -21h-8l14 -18q-4 -21 -6 -44.5t-2 -51.5q0 -19 -1.5 -37t-4.5 -35q4 -9 6 -15.5t2 -13.5l-2 -31v-12q0 -1 1.5 -4t6.5 -10 q-1 -33 -7.5 -97.5t-6.5 -95.5q0 -32 6 -64t18 -64q-5 -17 -7.5 -29.5t-2.5 -22.5q0 -18 12 -48.5t13 -45.5v-6q0 -16 -32 -24.5t-91 -8.5q-12 0 -21.5 2t-17.5 6q-11 -1 -40 -4.5t-46 -3.5q-31 0 -45 12.5t-16 41.5q7 21 14 57t12 49q-4 13 -6 26.5t-2 36.5v6q2 17 2 31 l14 14l-4 -2l4 23l-2 6q-3 5 -4.5 12.5t-1.5 16.5q0 4 4 18t4 25v8q-1 6 -1.5 11.5t-0.5 17.5l2 14q-4 23 -6 46t-2 46v75q-4 6 -6 11t-2 10v9l2 12q2 8 3.5 18t2.5 13l4 22q-3 6 -5 8l-5 5q0 11 3.5 25.5t10.5 33.5l-4 14q0 8 1.5 15t4.5 14q-3 26 -10 161q-4 71 -6 114 l2 16q-6 49 -52 62q-6 2 -10 3q-1 0 -5 1q-18 3 -27 3q-2 0 -22.5 -2.5t-41.5 -3.5l-12 2q-3 -1 -6.5 -3.5t-11.5 -10.5q-8 2 -27.5 9.5t-31.5 10.5h-9q-6 0 -10 -3.5t-9 -12.5q-4 1 -8 1.5t-10 0.5q-2 0 -10.5 -1.5t-13.5 -2.5q-7 -2 -13.5 -3t-13.5 -1q-6 0 -13 2.5 t-16 7.5q-9 9 -15 55q-2 18 -3 26q2 11 4.5 25.5t3.5 18.5q-3 12 -4.5 23t-1.5 22q0 9 7 21t22 26q66 -3 142 -8.5t87 -5.5q24 0 57 2t72 6l15 -2l49.5 4.5t21.5 1.5q10 0 17.5 -2t15.5 -7v-5l16 4q12 7 25 10.5t28 3.5q12 0 33 -2.5t29 -3.5l10 2h51q24 0 52 -1.5t60 -4.5z " />
<glyph unicode="U" horiz-adv-x="1178" d="M971 1362l14 8l21 2h14q41 0 59.5 -25.5t18.5 -84.5q0 -24 -3 -48t-9 -48q3 -8 4 -13.5t2 -13.5q0 -2 -1 -9.5t-1 -13.5l-15 -12l4 2q0 -5 -0.5 -9.5t-3.5 -15.5l2 -5q4 -8 5 -12.5t1 -10.5t-4 -21.5t-4 -25.5v-9l2 -30l-2 -15q5 -28 8 -57.5t4 -60.5q1 -4 3 -15 q1 -5 1 -7q-4 -49 -6 -77.5t-2 -52.5q0 -10 1 -19.5t3 -19.5v-137q0 -34 1 -43t1 -10q-1 -23 -4.5 -64t-3.5 -53q-3 -2 -5 -5t-5 -12q4 -13 5 -18.5t1 -9.5q0 -8 -3 -15.5t-9 -15.5q-2 -6 -6 -14.5t-14 -25.5q-2 -19 -26.5 -53t-33.5 -50l-12 -11q-10 -8 -19.5 -14.5 t-19.5 -11.5q-19 -29 -37.5 -42.5t-39.5 -14.5l-19 2q-13 -9 -28.5 -13t-35.5 -4l-12 6l-19 -4q-37 -12 -71.5 -18t-67.5 -6q-25 0 -55 2t-35 2h-25q-10 0 -32 -2q-81 12 -144.5 52t-105.5 105q-2 3 -7.5 9.5t-6.5 8.5l-5 9q-18 17 -28.5 44t-14.5 69v16l-18 21l2 18l-2 16 h-21q0 10 -2 32q-10 155 -10 220q0 30 1.5 61t4.5 63l-2 28q0 9 2 20t4 20q-6 33 -9 73t-3 88v79q0 20 -1.5 37.5t-4.5 32.5l14 25l-4 16q-17 34 -25 72.5t-8 89.5q0 9 0.5 13t2.5 10q2 4 4 9q8 19 28 19h11q2 -1 4 -1q11 -3 16 -3q10 0 15.5 0.5t9.5 1.5l24 2q7 0 15 -2 t16 -6q5 0 17 2q55 6 79 6q35 0 48.5 -9.5t13.5 -33.5q0 -10 -5 -39q-2 -16 -4 -27l-12 -12h4l-4 -22q4 -20 6 -37.5t2 -30.5q0 -20 -4 -39t-12 -35q2 -25 3 -38t1 -23v-53q0 -26 2.5 -45t7.5 -35l-2 -21v-6q0 -5 1 -14t1 -13v-6l-2 -20l4 -19h-8l16 -17q-4 -17 -6 -33.5 t-2 -37.5q0 -6 1 -32t1 -45q0 -10 -0.5 -17t-1.5 -15q-2 -31 -3 -55t-1 -47q0 -32 7.5 -61.5t21.5 -52.5l2 -15l4 -4q4 -6 8.5 -11.5t9.5 -11.5l-5 -15l-3 -9q2 -11 9 -19t26 -20q7 -6 27.5 -19t25.5 -25q0 -10 46 -22t98 -12t91.5 17t65.5 49q15 10 24.5 25t14.5 36 q11 28 17 92t6 158q0 39 -4 130v11q-6 10 -8 20.5t-3 35.5q0 8 2.5 31.5t2.5 40.5q-1 9 -3.5 17.5t-7.5 17.5q2 48 7.5 97t5.5 50q0 2 1 17t1 28q0 28 -6.5 60t-18.5 69q7 17 10.5 31t3.5 26q0 15 -8 47q-3 10 -4 15v22l10 14q7 9 15.5 14.5t20.5 8.5l20 -2q2 0 18 1t29 1 q12 0 22.5 -2t18.5 -6z" />
<glyph unicode="V" horiz-adv-x="1174" d="M838 1180q8 6 12 12t6 14q0 2 5 25t9 45l4 12q9 68 22.5 113.5t28.5 62.5q10 5 19 7.5t17 3.5q17 0 41.5 -9.5t54.5 -27.5q2 0 6 1q18 3 24 3q51 -30 62.5 -44t11.5 -36q0 -10 -4.5 -25t-13.5 -37l-2 -10q0 -5 0.5 -10.5t1.5 -9.5q-19 -5 -24 -10.5t-5 -20.5q0 -1 1 -6 q1 -17 1 -33q-11 -6 -15.5 -14t-4.5 -25v-8q-5 -5 -9.5 -10.5l-4.5 -5.5q-3 -35 -19 -81.5t-16 -60.5q-2 -1 -8 -6.5t-11 -11.5q-21 -54 -31 -90t-10 -60q0 -7 0.5 -10.5t1.5 -7.5q-11 -13 -15.5 -25t-4.5 -28v-11q-8 -6 -21 -16q-18 -60 -28.5 -101.5t-10.5 -56.5v-6 q-26 -33 -56 -124.5t-54 -217.5q-17 -31 -31 -67t-16 -39q1 -17 2.5 -30t3.5 -21q-3 -4 -8 -11q-35 -44 -56 -51l-22 -8q-5 1 -15 2q-33 5 -56 8l-15 -2q-9 -4 -18 -6t-19 -2q-12 2 -17.5 4t-9.5 4l-6 2l-16 -4q-12 -2 -19 -3t-12 -1q-11 0 -22.5 1.5t-22.5 4.5 q-11 4 -27 33.5t-35 46.5q-46 191 -89.5 333t-73.5 203q-3 11 -3.5 20t-0.5 26v14q0 9 -0.5 16t-2.5 15l-18 16q-6 22 -15.5 45t-21.5 45l6 8q-19 36 -31.5 76t-19.5 84l6 6q-4 8 -15.5 28t-18.5 31q-22 69 -29.5 100.5t-7.5 47.5v6q-16 28 -23.5 48.5t-7.5 33.5 q0 16 11 26.5t38 20.5q30 2 49 6t30 10q18 2 35 5t31 8q10 1 29 3.5t27 2.5q30 0 49 -125q21 -140 47 -248q2 -19 54.5 -168t88.5 -258q16 -73 34.5 -129t39.5 -96l10 -10q1 0 2 -1t2 -1q11 0 35 70q13 36 21 59q38 95 71.5 212t46.5 129l1 7q1 11 5 26t9 32l8 26q1 3 5 14 q46 122 63 273z" />
<glyph unicode="W" horiz-adv-x="1591" d="M473 25q-9 -18 -25.5 -25.5t-48.5 -7.5q-17 0 -35 2t-45 8l-12 -4l-14 2l-7 1.5t-14 2.5q-6 -1 -14 -2.5l-8 -1.5l-19 -2h-4q-9 0 -20 7.5t-18 18.5q2 7 3.5 13t1.5 11q-1 4 -1 8v14v18q-13 114 -30.5 221.5t-39.5 210.5l4 21q-1 11 -2.5 24.5t-1.5 16.5v3q-4 6 -6 15 t-2 23q1 3 4.5 10.5t3.5 9.5t-1 8t-1 10q-7 13 -9.5 27t-2.5 37v49q-13 19 -20.5 43.5t-10.5 60.5q7 2 12 5.5t8 9.5l-2 16l-7 -3q-2 2 -4.5 5t-10.5 8q-6 13 -11 38t-10 68q-25 77 -41 145.5t-16 86.5q0 25 16 40.5t49 23.5l9 -6q12 11 30 19.5t44 15.5q18 7 34 11.5 t27 4.5q16 0 29 -6.5t24 -20.5q6 -18 9 -51t9 -47q1 -3 2.5 -10t2.5 -10q0 -5 -6 -16q-2 -3 -3 -5q7 -11 10 -23.5t3 -27.5l2 -6l4 -15q11 -95 25 -183.5t30 -168.5l-16 -18h16q7 -13 10.5 -43t5.5 -111l7 -18q6 -49 10.5 -80t9.5 -57l6 -3q15 37 25.5 59.5t19.5 36.5 q0 21 10 50t37 86q7 24 10 38t3 17v4q41 83 65.5 147t34.5 115q4 10 9 18.5t11 16.5l-1 27q14 9 24 56q7 31 12 48q9 26 38.5 38t108.5 18l17 -11l-2 4q8 0 20 1.5t17 1.5q19 0 29.5 -9.5t13.5 -27.5q10 -23 15.5 -50.5t7.5 -62.5q4 -9 10 -17t14 -14q4 -26 20 -86t17 -93 q6 -8 10 -16t6 -16q4 -8 6.5 -16.5t2.5 -17.5v-23l2 -16q4 -18 9 -37.5t15 -57.5l23 -16q5 -27 9.5 -41.5t10.5 -19.5q3 -6 4.5 -13t1.5 -14v-8q21 -37 30 -75t13 -38h4q8 0 11.5 9t3.5 34q0 9 -0.5 19.5t-1.5 21.5l12 14h-4v9q0 8 2 12.5t8 9.5q9 44 11.5 64.5t3.5 36.5v10 q3 8 6 12.5t8 9.5q19 75 30 126t11 67v6l12 16l-4 -2q0 9 2 16.5t6 14.5q45 218 72 425q5 40 6 40t1.5 -1t0.5 -5q7 16 19 23t34 7q20 0 43 -6t47 -18q8 4 15 6t16 2q27 0 49.5 -15t30.5 -39v-1q0 -17 -57 -216q-17 -60 -27 -93l-2 -21q-8 -2 -15 -3t-11 -1q1 -9 6.5 -14 t15.5 -6q7 42 14.5 83l7.5 41q-28 -153 -86 -456q-14 -39 -26 -77.5t-23 -78.5l2 -12l-2 -11q-8 -37 -8 -40v-5q-19 -49 -29 -99t-12 -103l-6 -17l-4 -4l-12 -6l4 -12q0 -6 -3 -13t-10 -16q0 -33 -3.5 -63.5t-10.5 -59.5l-4 -8q-8 -24 -24 -34.5t-46 -10.5q-13 0 -21 0.5 t-16 1.5l-14 -2q-2 0 -9 1.5t-11 2.5l-2 4l-7 -4h-8l-16 -2l-18 6q-8 -5 -13.5 -7.5t-9.5 -2.5l-14 -2q-5 0 -11 1.5t-12 4.5q-22 22 -32.5 45.5t-10.5 50.5l2 19l-4 14l-2 6l10 8l-18 7v10q-20 10 -45 81l-9 24q-7 12 -11.5 24.5t-6.5 25.5l2 13q-12 34 -19.5 61t-11.5 50 q-11 13 -19 38t-15 73q-7 6 -10 12.5t-3 15.5h8l-14 16v8q0 18 -11 51.5t-32 79.5q-5 10 -11 15.5t-9 5.5q-16 0 -33 -48.5t-39 -80.5v-21q-2 -6 -2 -10q-2 0 -4 -1t-4 -3q-13 -59 -33 -100.5t-49 -67.5q-5 -19 -8 -34t-4 -27q0 -4 1.5 -12.5t2.5 -12.5q-12 -16 -23 -49 t-24 -92l-15 -7q-5 -3 -9 -12q-1 -1 -1 -2l2 -18v-6q-1 -3 -3 -11q-12 -53 -26 -98z" />
<glyph unicode="X" horiz-adv-x="1092" d="M766 569l22 -18q2 -16 8.5 -29.5t18.5 -23.5l6 -27v4q3 -6 4.5 -12.5t1.5 -13.5l1 -7q13 -4 29 -16t21 -14q1 -12 1.5 -17.5t1.5 -9.5q11 -7 19 -18t11 -24q5 -3 9 -5.5t12 -8.5q2 -6 15 -31.5t22 -45.5q3 -3 10.5 -8.5t11.5 -10.5q2 -24 19 -50t57 -64q3 -10 8 -26 q8 -26 8 -36q0 -12 -8 -21.5t-24 -15.5q-39 -21 -88.5 -32t-110.5 -11q-41 28 -72.5 71t-56.5 106q-36 60 -52.5 82t-27.5 28q-6 10 -15 27q-15 29 -25 38q-1 6 -2 15t-1 12q-19 27 -35.5 58t-29.5 69q-15 -25 -92 -178l-46 -90l-2 -8q0 -12 -4 -21t-12 -16q-8 -13 -24 -35 q-33 -43 -33 -72q-14 -13 -21.5 -23t-11.5 -19q-20 -34 -45 -90q-40 -87 -78 -87q-23 3 -66 8q-117 11 -159 37q-1 4 -1.5 9.5t-0.5 15.5q0 19 5 32t17 25v23q54 63 101.5 132t89.5 144v-4q66 110 126.5 211.5t112.5 192.5l12 8l3 20q-8 6 -11.5 13t-3.5 16v16q0 11 -12 25 t-33 27q-62 102 -146 250.5t-108 181.5q-11 17 -16.5 32t-5.5 27q0 31 54 50t191 34l15 -14v6q17 0 26 -7.5t9 -21.5v-8l16 -31l-4 -17q1 -13 10 -24.5t25 -19.5l-4 -17q3 -8 7.5 -15.5t10.5 -14.5q5 -5 10 -9.5t10 -8.5l5 -17l6 -17q2 -5 3 -10.5t1 -13.5l4 -12l12 -6 q3 -7 8 -19q15 -38 29 -49v-27q10 -22 29.5 -57.5t25.5 -48.5q15 42 22 68.5t7 44.5v9q12 4 18.5 10.5t8.5 17.5q3 17 25 58t22 68q15 13 21.5 19t11.5 10q14 31 33 82q36 94 75 98q5 0 11 -1.5t14 -4.5q84 -6 128 -14.5t72 -24.5q3 -8 4.5 -17t1.5 -18q0 -14 -6.5 -26.5 t-19.5 -24.5v-22q-47 -62 -86 -133t-72 -154l-12 -14q-41 -67 -70 -119t-47 -92q-6 -4 -10.5 -8.5t-9.5 -11.5q1 -10 17 -41.5t26 -55.5q3 -3 10 -13l4 -6l2 -6h-4z" />
<glyph unicode="Y" horiz-adv-x="1120" d="M571 514q13 36 24 59t21 35q2 23 21 92q3 10 4 15q13 9 25 34t28 82q6 92 99 406l16 56q2 34 45 56q11 6 17 9q34 5 74 7.5t87 2.5h19q25 0 39 -13t14 -38q0 -14 -4 -33t-4 -24v-5q-18 -20 -27.5 -48t-11.5 -64q-19 -29 -32 -64.5t-21 -79.5q-8 -6 -15 -14l-1 -1 q-4 -19 -9.5 -46.5t-5.5 -32.5v-1q-3 -6 -7 -13q-18 -31 -18 -47v-4q-7 -5 -11 -7.5t-9 -5.5l-8 -4l-7 -6l-2 -10q1 -15 3.5 -32.5t3.5 -22.5q-8 -15 -12.5 -34.5t-4.5 -41.5q-12 -12 -20.5 -26.5t-14.5 -31.5q-3 -3 -25 -116q-6 -33 -10 -52l-14 -18q-5 -21 -25.5 -52.5 t-25.5 -41.5q-3 -23 -13 -43.5t-28 -40.5q-2 -12 -8 -38t-6 -40q0 -3 1.5 -9.5t1.5 -11.5q-9 -6 -20 -16.5t-26 -27.5q-2 -65 -137 -184l-19 -17q-24 -8 -67 -24q-72 -27 -103 -27h-14q-20 -7 -45 -11t-54 -4h-22q-25 0 -41 27.5t-16 71.5q0 13 1.5 24.5t3.5 19.5 q-2 7 -2.5 14t-0.5 15v21q2 30 74.5 35t125.5 24q14 4 24.5 10.5t18.5 16.5l17 -2q16 5 22 23l2 6l8 12q-2 6 -3 13t-1 15q11 7 17 16t8 24v3h-37q-18 0 -33.5 3t-28.5 8q-18 21 -26 38.5t-8 32.5v4q-13 12 -21 23.5t-12 24.5v26l-14 17q-10 47 -21.5 106.5t-13.5 66.5 l-4 13l-10 10q-13 34 -33 113t-43 114q-5 38 -25 98.5t-24 85.5q-16 25 -26 52t-16 60q-12 10 -18.5 21.5t-7.5 22.5l-3 3q-8 7 -15 14v29q-14 18 -20.5 36.5t-6.5 38.5q0 25 11 41t34 27h72q21 12 41 18t39 6q29 0 52 -12.5t42 -38.5q9 -83 17 -114t22 -50v-61l14 -16 q8 -35 19 -68t24 -63v-12q4 -6 6 -12.5t2 -14.5h-4l12 -14q6 -25 12.5 -50.5t6.5 -28.5v-4q21 -31 34 -60.5t19 -59.5q9 -15 14.5 -27t10.5 -27v-4q0 -24 26 -94q6 -17 9 -25q4 -7 9.5 -15t6.5 -9z" />
<glyph unicode="Z" horiz-adv-x="993" d="M37 20q-10 30 -15.5 64.5t-5.5 73.5q0 23 3.5 38t9.5 21q14 12 19 20t5 15q0 2 -1 6q-3 14 -3 18q32 5 50.5 27t29.5 72h21q10 10 15.5 14.5t10.5 7.5q12 19 25.5 36.5t29.5 35.5q2 7 5.5 13t7.5 10l2 -5v15l18 16v4q0 12 77 115.5t138 196.5l1 22q8 2 12 7t8 20v30h12 q4 0 8 2.5l12 7.5q2 12 8.5 25t18.5 31q9 7 13.5 19t5.5 28v10q31 2 58 82l3 8q-5 5 -11 8.5t-14 6.5l-20 2q-2 -1 -6 -2q-26 -6 -39 -6q-9 0 -18 2t-17 6q-4 -3 -10.5 -4.5t-16.5 -1.5q-6 0 -16.5 1t-15.5 1q-3 0 -7.5 -2t-7.5 -4q-8 0 -30 1t-37 1q-28 0 -55.5 -4.5 t-51.5 -12.5q-41 2 -63 2q-17 -11 -32 -16.5t-30 -5.5q-19 0 -34 8.5t-27 26.5q2 20 3 35t1 28v41q0 34 7.5 61t23.5 52h18l17 16h30q21 0 36.5 1.5t25.5 4.5q7 -6 16.5 -9t20.5 -3h8q6 0 24 -3q5 -1 6 -1l22 -4q21 1 43.5 4.5t25.5 3.5q12 0 23.5 -3t20.5 -9q12 5 20 7.5 t15 2.5h6q3 -4 5.5 -6t6.5 -4q30 7 61 10.5t65 3.5q17 0 70.5 -2t89.5 -2h37q14 3 29 4.5t32 1.5h12q21 0 37 -55t16 -138q0 -10 -0.5 -21.5t-3.5 -37.5q-7 -20 -24.5 -42t-44.5 -46q-5 -11 -10.5 -19.5t-12.5 -15.5q-3 -9 -39.5 -72.5t-64.5 -119.5h-19q-10 -15 -29 -30 q-3 -3 -6 -5l-4 -4l-8 -19l-18 -18l2 -6q0 -8 -3 -15.5t-10 -15.5v-20q-17 -15 -34 -32.5t-35 -39.5q0 -6 1.5 -14t4.5 -19q-22 -11 -45 -43.5t-43 -83.5l-16 -2q-2 -8 -4 -13t-4 -9q0 -1 3 -9t6 -13q-36 -18 -68 -65t-42 -59l-2 -14q0 -9 4.5 -14t13.5 -5h43q19 0 34.5 -3 t29.5 -9q15 7 41 10.5t63 3.5q17 0 49 -1t48 -1q5 -5 8 -7t6 -3q4 0 9 0.5t11 1.5q40 12 79.5 18.5t78.5 6.5q28 -14 40.5 -36.5t12.5 -59.5v-52q-13 -15 -19 -54q-4 -24 -7 -35q-20 -12 -40.5 -16.5t-54.5 -4.5q-10 0 -41 4t-51 4h-7q-11 -5 -16.5 -6.5t-10.5 -1.5h-7 q-18 7 -39.5 10.5t-46.5 3.5q-6 0 -17 -1t-15 -1h-31q-19 0 -33.5 2t-23.5 6q-6 -1 -11 -2t-17 -4q-9 0 -26 2l-12 -2l-23 10l-22 -2q-53 -6 -91 -8t-77 -2q-5 0 -46.5 1t-78.5 1h-12q-21 0 -28 4.5t-11 13.5z" />
<glyph unicode="[" horiz-adv-x="567" d="M272 732q3 -8 4.5 -14.5t2.5 -12.5q-1 -3 -2 -17t-3 -28l2 -14q-1 -13 -1.5 -24.5t-0.5 -29.5q0 -40 7.5 -135t7.5 -150q0 -15 -3 -65q-1 -23 -1 -35q0 -9 2 -27q10 -137 30 -143q3 3 7 4.5t14 1.5t15.5 -0.5t11.5 -1.5h10q3 0 6.5 1t9.5 5q13 0 19.5 0.5t12.5 1.5 q16 -2 27 -7t21 -15v-39q-5 -52 -18 -71t-41 -23l-15 -3l-14 3l-9 1q-6 -3 -14 -4.5t-18 -1.5q-3 0 -8 1t-8 1h-13q-5 0 -9.5 -1.5t-13.5 -6.5h-6q-43 -2 -91 -2q-60 0 -90.5 18t-30.5 54q0 8 1.5 15.5t4.5 13.5q-1 5 -1.5 13.5t-0.5 31.5q0 20 2 62.5t6 94.5 q-5 36 -7.5 102.5t-2.5 186.5q0 38 1 77.5t1 41.5l2 104t2 207q0 43 -1.5 113.5t-4.5 169.5l2 16q-1 7 -2 22t-2 23q0 7 1.5 13t4.5 14v12q0 13 -3 36t-3 34v8l2 24q-3 6 -4.5 12.5t-1.5 14.5q0 36 32.5 53t106.5 17h81q5 -5 10 -6.5t21 -1.5q2 0 10 1t15 1q5 0 12.5 -2 t13.5 -4l9 2l16 2q29 -4 44 -15t20 -31q2 -8 3.5 -18t4.5 -31v-40q-14 -11 -25 -16t-22 -5q-2 0 -13.5 1t-18.5 1q-7 3 -19 7l-4 1q-3 0 -13 -1.5t-16 -2.5q-9 0 -13.5 0.5t-8.5 1.5q-6 0 -11 -7t-8 -21q-1 -8 -5.5 -54.5t-8.5 -84.5q-2 -135 -4.5 -187.5t-6.5 -67.5l11 -10 v-82q0 -4 -6 -42q-3 -19 -5 -30z" />
<glyph unicode="\" horiz-adv-x="930" d="M55 1595l27 4l8 -2l23 -6l28 -6q5 -3 14.5 -9t14.5 -9q28 -54 48 -105t32 -102q3 -12 8.5 -21t13.5 -16q25 -55 85.5 -184t82.5 -189q12 -14 55 -111t83 -173q12 -31 48 -113q7 -16 11 -25q23 -51 56 -118t34 -78l14 -25l9 -2q10 -16 18 -35.5t14 -44.5q16 -23 47 -81 t84 -164l2 -16q-3 -23 -12.5 -32.5t-28.5 -9.5q-10 0 -18.5 2.5t-15.5 7.5q-3 -2 -9 -4t-12 -2q-8 0 -16.5 0.5t-18.5 1.5l-12 -2q-1 0 -2 -1q-6 -3 -8 -3q-26 0 -127 234t-191 415v2q0 11 -16 43t-25 56q-9 15 -44.5 88t-67.5 131l4 12h-4q-3 3 -5.5 8.5t-4.5 17.5 q-13 19 -25 43.5t-23 54.5q-12 39 -49.5 115t-52.5 115q-27 41 -48 84.5t-38 90.5l-12 16h6l-17 11q-5 9 -14 25q-37 65 -37 81q1 10 6 16t14 8q13 6 20.5 9.5t11.5 3.5h2q5 0 13.5 -2t16.5 -5z" />
<glyph unicode="]" horiz-adv-x="567" d="M252 866q1 5 5.5 21t6.5 24q-6 4 -9 57t-3 193q-2 18 -5 51q-13 117 -28 117l-20 -2q-12 0 -17 0.5t-10 1.5h-10q-4 0 -8 -1.5t-9 -4.5q-9 0 -16.5 -0.5t-16.5 -1.5q-11 0 -23 5t-23 15v42q1 44 14.5 65.5t42.5 26.5l16 2l15 -2l7 -2q6 2 15 4t19 2l3 -1q11 -1 23 -1 q7 0 19 6l4 2q8 0 36 1t48 1q71 0 104 -17.5t33 -54.5q0 -5 -1.5 -12t-4.5 -14v-17q0 -10 -2 -43t-2 -56q3 -9 4.5 -15.5t1.5 -10.5q-1 -8 -2 -22.5t-2 -21.5l2 -17q-2 -70 -3 -138t-1 -157v-105q0 -118 2 -238t2 -122q0 -58 -2.5 -117.5t-7.5 -123.5q0 -25 4 -80.5t4 -84.5 q0 -7 -1 -20t-1 -19q3 -6 4.5 -13.5t1.5 -14.5q0 -37 -33 -54.5t-104 -17.5q-9 0 -25 1t-23 1h-36q-4 2 -9.5 4t-14.5 4q-12 0 -18.5 -0.5t-11.5 -1.5q-7 0 -15 2t-14 4l-7 -1l-16 -2q-40 3 -55.5 24t-17.5 72v39q10 9 21.5 14.5t26.5 7.5q12 -2 19 -3t13 -1q4 -1 11 -4.5 t10 -3.5q5 0 15 2.5t13 3.5q13 0 18 -1t7 -3q6 3 11 10.5t7 17.5q2 12 6 58.5t9 81.5q-2 19 -3 43t-1 78q0 42 7 130t7 134q0 12 -0.5 25t-1.5 28l2 14q0 2 -1 6q-3 31 -3 46q0 2 1.5 7t4.5 13q0 7 -1 20q-3 52 -3 68q0 13 0.5 18t1.5 9z" />
<glyph unicode="^" horiz-adv-x="1665" d="M1548 1225l-4 -19l2 -23q-3 -41 -4.5 -64t-1.5 -27q3 -8 4.5 -14.5t1.5 -12.5q0 -2 -1 -12t-1 -17v-12q-3 -36 -4.5 -82.5t-1.5 -103.5q0 -30 2 -115.5t2 -140.5q0 -1 1 -46.5t1 -91.5q0 -41 -2.5 -76.5t-7.5 -66.5q9 -23 13.5 -53.5t4.5 -69.5q-6 -8 -8 -12.5t-2 -7.5 l2 -16q5 -9 7.5 -16t2.5 -13l-2 -23q1 -9 1.5 -17t0.5 -16q0 -28 -16.5 -41t-56.5 -16q-13 1 -24 1.5t-23 0.5q-5 0 -23 -1t-31 -1q-29 0 -52 7t-41 21q2 135 3.5 195.5t1.5 65.5q-3 21 -4.5 39.5t-1.5 36.5q0 20 2.5 31.5t7.5 17.5v51q0 1 -1 26t-1 50q0 31 3 54t7 33 q-2 42 -4 172t-4 200q-9 58 -15.5 75t-14.5 17h-4l-19 -2q-9 0 -15.5 0.5t-11.5 1.5h-10q-4 -1 -8 -2.5t-9 -4.5q-8 0 -16 -0.5t-16 -1.5q-12 0 -24 6t-23 17v73q3 47 16.5 67.5t42.5 25.5l15 2l14 -2l8 -2q7 3 15.5 4.5t17.5 1.5h2q12 -2 25 -2q6 0 18 6l4 2q46 0 123 4 t109 4q12 -11 20.5 -19.5t11.5 -12.5v-23zM406 1530q28 7 64.5 10.5t94.5 3.5h33q5 1 11.5 1.5t13.5 0.5q15 0 47.5 -8.5t50.5 -9.5q40 -18 60.5 -30t31.5 -23q6 10 15 16.5t19 9.5q23 20 47.5 31.5t45.5 11.5q8 0 14.5 -1.5t14.5 -4.5q15 6 25 8t20 2q4 0 18.5 -2t26.5 -2 q2 0 6 1q26 3 37 3q21 0 46 -4.5t57 -14.5q11 -13 17.5 -26.5t6.5 -23.5q0 -7 -1.5 -14t-4.5 -15l-19 -12l2 -14q-1 -7 -4 -15t-10 -23q-12 -27 -26 -41t-31 -16l-16 4q-11 9 -24 14t-26 5q-44 0 -68.5 -16.5t-25.5 -44.5q-4 -23 -6 -49.5t-2 -76.5v-39q0 -38 1 -93.5 t1 -71.5q0 -34 16.5 -46t87.5 -12q38 0 99 16q13 3 20 5q21 -15 30 -33.5t9 -46.5q0 -9 -1 -21.5t-1 -17.5l2 -23q-4 -43 -17.5 -57t-52.5 -14q-7 0 -11.5 0.5t-9.5 1.5q-2 0 -14 -1.5t-22 -2.5q-6 0 -12 2t-13 6l-24 2l-15 2h-10q-15 0 -24 -1.5t-16 -4.5l-23 -8l2 -5 q-1 -18 -1.5 -37t-0.5 -44q0 -17 2 -79t2 -108q0 -45 -3 -92t-9 -95q6 -19 10 -52.5t6 -87.5q-6 -10 -8 -15.5t-2 -10.5q1 -3 2 -12t2 -14q2 -4 3.5 -9l4.5 -15q-1 -5 -1.5 -12t-0.5 -22q1 -8 1.5 -17t0.5 -23q0 -30 -16.5 -44.5t-54.5 -18.5q-10 1 -17 1.5t-17 0.5 q-9 0 -31.5 -1t-35.5 -1q-25 0 -47.5 8t-40.5 24q1 48 3 141q7 260 7 388q0 9 -4 30t-4 31q0 9 2 16.5t6 14.5q0 5 1 14q3 50 3 68q0 16 -1 22t-3 11q0 2 1 11.5t1 16.5l-6 17q-5 6 -41 10q-21 2 -35 4l-4 -2q-5 -2 -19.5 -3t-33.5 -1h-37q-6 0 -14 1t-19 3q-19 0 -39 -1 t-44 -3q-11 0 -17 -3t-6 -7v-5q0 -25 -2 -63.5t-2 -50.5q0 -57 2 -131.5t2 -94.5v-14q0 -2 -1 -9q-1 -28 -1 -54v-18q2 -55 2 -103q3 -5 5.5 -11t4.5 -16q-1 -7 -1.5 -13t-0.5 -11v-5q0 -11 1 -25t1 -18q0 -30 -17 -45t-55 -18q-12 1 -23 1.5t-24 0.5q-8 0 -22 -1t-21 -1 q-34 0 -57 7.5t-41 25.5q4 87 6 173t2 210v82q0 72 0.5 104.5t1.5 58.5q0 8 0.5 14.5t1.5 12.5l-6 17q-3 5 -31 8t-45 6l-4 -2q-4 -1 -9.5 -1.5t-17.5 -0.5l-14 2h-12q-24 0 -33.5 21.5t-9.5 78.5q0 9 1 26.5t1 27.5q3 21 17 30.5t44 9.5q5 0 16 -1t19 -1h4q48 0 66 20 t18 79v8q-2 30 -2 57q0 5 2 13t4 15q-1 28 -1.5 54t-0.5 68q0 26 4.5 52t14.5 55q3 42 20.5 79t50.5 70l35 16q8 3 43 16t60 23zM735 1240q-9 49 -41.5 75.5t-95.5 36.5h-18q-73 0 -114.5 -25.5t-43.5 -70.5q-5 -28 -7.5 -50t-2.5 -41v-39q2 -26 3 -57.5t1 -99.5 q0 -41 11.5 -53.5t59.5 -12.5h23q157 0 189 16t32 78v6q-2 23 -2 44q0 22 1.5 33t4.5 19q-1 19 -2.5 39.5t-1.5 22.5q0 25 4 73v6z" />
<glyph unicode="_" d="M0 -311h1024v-172h-1024v172z" />
<glyph unicode="`" d="M588 1206q11 -11 31 -29.5t22 -23.5q5 -4 9 -8.5t7 -11.5q-3 -13 -12 -20.5t-24 -10.5q-4 -10 -9.5 -15.5t-13.5 -7.5l-8 4q-9 0 -21.5 -1t-15.5 -1l-8 13l-8 4l-9 2q-11 3 -22 9.5t-21 16.5l-10 4l-12 5q-49 39 -118 81.5t-69 59.5v4l7 18q40 47 53 63t18 23 q3 6 7.5 8.5t11.5 2.5q13 -1 24.5 -8.5t19.5 -19.5q5 -4 10 -9t7 -6l8 -9q12 -7 20 -16.5t13 -23.5l10 -5q16 -15 45 -41t35 -32l6 2q8 -4 11.5 -8.5t5.5 -12.5z" />
<glyph unicode="a" horiz-adv-x="1063" d="M610 78h-6q-54 -45 -110.5 -66.5t-118.5 -21.5q-9 0 -34 3q-5 1 -7 1q-5 1 -24 5.5t-33 6.5l-23 -2h-6q-15 0 -32.5 8t-33.5 23q-60 38 -91.5 106.5t-31.5 163.5q0 25 3.5 49.5t9.5 49.5q3 8 8 25q10 33 26 40q10 25 40.5 54.5t77.5 58.5q11 5 52 10t71 12l15 -2h13 q11 11 17 14.5t12 4.5t17 3q132 26 132 66v10q0 3 1.5 9t4.5 14l-14 10v19l-4 4q-8 7 -11.5 11.5t-5.5 8.5q-16 16 -41 25.5t-53 9.5q-14 0 -29 -3t-30 -9q-21 -5 -31 -15t-10 -26v-4l-4 -13l2 -18l-4 -16l-2 -13v-20l-5 -13q-1 -7 -5.5 -12t-12.5 -7v7l-16 -16 q-13 1 -24 1.5t-21 0.5q-4 0 -22 -1t-32 -1q-9 2 -27 5q-37 5 -50 21q-3 9 -5 17t-2 12l2 23q0 8 -2.5 17t-6.5 18q15 13 20 52.5t14 57.5l8 16l-2 7q3 10 9 16.5t18 11.5q4 14 23 31t59 41q33 13 78.5 20t101.5 7q103 0 174 -19t104 -55q49 -58 70 -125t21 -211v-18 q0 -5 -1.5 -25.5t-1.5 -36.5q1 -12 3.5 -24t7.5 -23q-5 -17 -6.5 -40t-1.5 -81q0 -32 2 -60t6 -55v-16q6 -10 14 -15.5t19 -6.5l8 2q22 3 32 83q3 22 5 34q7 50 19 66.5t38 16.5q6 0 13 -0.5t14 -1.5h4l21 4q8 -1 21.5 -4t18.5 -4l8 2q15 -18 23 -36t8 -35q0 -6 -5.5 -40.5 t-8.5 -63.5q-27 -88 -47 -119.5t-52 -51.5q-25 -27 -53 -41t-55 -14h-10l-15 2q-6 -3 -14 -4.5t-19 -1.5l-14 2q-5 0 -18 1q-66 4 -113 44l-12 10l-2 4l-4 6q-6 6 -8.5 11t-4.5 12zM479 440h-8q-13 0 -23 -4t-20 -14q-68 -16 -95.5 -44.5t-27.5 -82.5q0 -29 11.5 -47 t35.5 -31l-2 -10q2 -12 8 -16.5t19 -4.5h12q10 -4 19.5 -6t19.5 -2q19 0 40.5 8.5t43.5 24.5q18 11 28 24t13 27q3 23 3.5 67.5t4.5 65.5v6q0 23 -10 32t-35 9q-9 0 -18 -0.5t-19 -1.5z" />
<glyph unicode="b" horiz-adv-x="1079" d="M127 910v83l10 13q-3 11 -4.5 20.5t-1.5 17.5v164q0 52 -10.5 84t-30.5 41l-18 -2q-10 0 -15.5 0.5t-10.5 1.5q-9 0 -15 -1.5t-11 -4.5q-11 0 -19 -0.5t-15 -1.5q-14 2 -26 7t-21 14v74q3 48 16 67.5t43 23.5l16 2l13 -2l8 -2q6 2 13 3l15 4l31 -3q5 1 10 2.5t14 5.5 q45 1 119.5 5t104.5 4q8 -6 15.5 -14t15.5 -17v-24l-4 -11l-4 -18l2 -23v-6q0 -4 -3.5 -32t-2.5 -52q2 -5 4 -14t2 -19t-4 -37q0 -3 -1 -6l2 -13q-2 -74 -3 -110.5t-1 -66.5q0 -25 1 -47.5t4 -46.5l6 -6q9 6 18 9t19 3l16 -2q10 7 22 10.5t27 3.5h4l6 2q14 9 29.5 14t30.5 5 q7 0 26 -2t31 -2q6 0 13 1t16 3q75 -2 134.5 -23t102.5 -61l41 -31q10 -30 22 -55.5t27 -48.5v-11l17 -16q0 -5 -1 -12t-1 -9q19 -45 29 -89.5t10 -90.5v-6q0 -17 -3 -49t-10 -82q3 -7 4.5 -15t2.5 -18q0 -14 -10 -40.5t-29 -67.5v-29q-17 -17 -30.5 -37.5t-22.5 -43.5 l-1 -15q-16 -17 -47 -54q-12 -15 -19 -22h-20l9 -6l-19 -12q-15 -19 -33.5 -29.5t-43.5 -13.5l-15 2q-7 -6 -16.5 -9.5t-22.5 -5.5q-12 -14 -40 -21t-77 -7q-64 0 -108.5 13t-73.5 40h-8q-14 0 -25 8t-22 24q-7 -13 -17 -38q-24 -57 -53 -62l-10 2h-49q-59 0 -87.5 13 t-35.5 42l2 13q23 27 38 198t15 429q0 22 -0.5 39t-1.5 34l2 12q-1 14 -3 27t-3 23q0 5 1.5 11.5t4.5 14.5v2q0 7 -8 31l-8 24q1 5 3 10t7 16zM741 664l-6 36l-18 19q-10 5 -15 8l-10 6q2 5 5 13.5t3 11.5q0 6 -2.5 9.5t-9.5 6.5q-15 2 -27.5 11t-23.5 26q-4 8 -11.5 11 t-23.5 3q-12 0 -25 -0.5t-39 -3.5h-6q-30 0 -55 -12.5t-47 -38.5q-27 -25 -42 -62.5t-15 -76.5q0 -15 1 -25t3 -20q-8 -23 -12.5 -51t-4.5 -60q0 -22 1.5 -42.5t5.5 -41.5q1 -4 5 -14q8 -21 11 -31l10 -20l2 -9l-26 -8q2 -2 5 -4.5t11 -7.5l26 -20q7 -4 13 -8.5t10 -10.5 q0 -12 8 -22t25 -21q10 -4 18.5 -9t14.5 -11q1 -1 5 -2q40 -11 62 -11q18 0 36.5 6.5t43.5 20.5q17 0 49.5 54t48.5 122l-2 16q9 28 13 54t4 49q0 11 -1 38.5t-1 43.5l-4 7q-3 6 -4.5 13.5t-1.5 16.5l1 19q-1 3 -3 7q-5 11 -5 15z" />
<glyph unicode="c" horiz-adv-x="915" d="M348 311l14 -14q1 -6 11 -18q2 -2 4 -5q3 -13 11.5 -25.5t25.5 -27.5h8q13 0 22.5 -3.5t18.5 -10.5q16 -7 33.5 -9.5t42.5 -2.5q26 0 45.5 4.5t31.5 13.5q8 4 15.5 6.5t14.5 4.5l16 16q21 21 45 33t45 12h4l20 -2q22 -7 36 -21t22 -37l4 -2l3 -3q10 -10 14.5 -19.5 t4.5 -18.5q0 -24 -35.5 -68t-81.5 -69q-33 -26 -70.5 -39.5t-74.5 -13.5q-11 0 -17 0.5t-10 1.5l-20 -2v4l-14 -12h-21q-101 0 -178 29t-137 91q-6 4 -10 9t-7 12l-16 4q-5 28 -16.5 44t-32.5 24v22l-17 17v12q0 1 -1 4q-3 15 -7 23q-12 44 -18 97t-6 115q0 20 0.5 42 t3.5 61q-1 4 -1.5 8.5t-0.5 13.5q0 17 2.5 29t7.5 21q10 25 16 37t12 21l1 34q13 17 27 36.5t30 43.5v14q18 24 33.5 44t29.5 38l21 2l-6 6q4 3 8 5t8 3q19 25 39.5 37t44.5 12h10q15 5 29 7t29 2l5 1q23 8 46 11.5t49 3.5q36 0 85 -8t114 -25q39 -24 61 -43t29 -32v3 q13 -7 19.5 -15.5t6.5 -16.5v-4l7 -15q12 -16 16 -25t4 -18q0 -1 -1 -6q-3 -17 -3 -33q4 -16 8.5 -52.5t9.5 -58.5q-3 -4 -5.5 -12t-2.5 -18v-27q0 -7 -1.5 -13.5t-4.5 -14.5q-14 -13 -49 -18q-19 -2 -29 -5h-98l-14 15v-6q-21 1 -27 107q-1 27 -2 44l-19 18v4q0 16 -9.5 30 t-37.5 34q-21 5 -36 7.5t-27 2.5q-29 0 -53.5 -8.5t-44.5 -25.5q-2 -5 -5.5 -10t-9.5 -11l-6 -4q0 -10 0.5 -15t1.5 -9q-24 -7 -39.5 -37t-21.5 -81q-7 -18 -10 -42.5t-3 -81.5q0 -3 1 -13q1 -33 1 -65q5 -9 8 -19.5t5 -21.5l-2 -13q5 -7 9 -19q1 -2 1 -3l4 -8l-2 -6l2 -4 l-10 -3l6 -8l4 -4z" />
<glyph unicode="d" horiz-adv-x="1059" d="M940 801q3 -5 5 -18q1 -6 1 -8q-1 -10 -2 -19t-4 -27l4 -14q-2 -17 -3 -38t-1 -67q0 -221 15 -380.5t30 -159.5q2 0 2 2l2 -14q-7 -32 -42 -44t-130 -12h-10q-17 0 -29.5 16.5t-20.5 48.5l-5 -4q-10 -10 -21 -18t-22 -12l-7 -4q-7 -6 -16.5 -9.5t-19.5 -3.5l-17 2 q-7 -7 -18 -10.5t-31 -3.5h-4l-4 -2q-19 -10 -34 -14t-36 -4q-4 0 -22.5 2t-32.5 2q-2 0 -9.5 -2t-11.5 -2h-6q-61 0 -119 28t-116 86h-37q-9 26 -21.5 52.5t-27.5 52.5v10l-19 16l2 21q-18 44 -27 89t-9 95q0 29 3 61.5t9 71.5q-4 5 -6 12t-2 23q0 15 9.5 39.5t31.5 67.5 v28q18 20 31 40.5t22 41.5v15q21 24 39 44.5t26 30.5h21l-8 6q0 1 6 5.5l10 7.5q15 19 34 29.5t44 13.5l16 -2q7 5 16.5 8.5t22.5 5.5q12 15 39.5 22t75.5 7q68 0 113.5 -14t76.5 -44l-2 4h4q5 3 7 5.5t4 7.5q0 21 3 69t3 70q0 99 -10.5 158.5t-29.5 64.5q-4 -1 -8 -1.5 t-12 -0.5l-24 2q-8 0 -14.5 -1.5t-12.5 -4.5q-9 0 -20 -1t-13 -1q-10 0 -21.5 5t-24.5 15l-1 74q4 49 17 68.5t43 23.5l14 2l14 -2l9 -2q5 2 11.5 3.5t15.5 2.5l30 -2q5 1 10 2.5t15 6.5q44 0 118 4t104 4q8 -6 14.5 -12t18.5 -19v-24l-4 -11l-4 -18v-25l-4 -92 q3 -16 3.5 -23t0.5 -14q0 -2 -3 -26t-5 -45l2 -11v-193q-1 -13 -3 -24t-3 -16l10 -10v-101q0 -14 -4 -36t-4 -29zM340 295l18 -18q3 -2 7 -4.5t16 -10.5q-3 -6 -7 -16q-2 -5 -3 -8q0 -1 5 -6.5t12 -10.5q15 -3 26.5 -11.5t21.5 -24.5q4 -9 11 -12t30 -3q14 0 28.5 1t31.5 3 h6q30 0 55.5 12.5t46.5 38.5q25 22 40 62.5t15 85.5q0 6 -1 18t-1 19q6 19 9.5 43t3.5 51q0 18 -1 39t-4 62q-2 7 -7 22.5t-7 21.5l-14 29l10 2q-1 1 -5 3t-11 5q-2 9 -6.5 17t-18.5 25q-3 14 -11.5 25.5t-26.5 24.5q-7 2 -15 7t-19 14q-23 6 -40 9t-29 3q-20 0 -40 -6.5 t-41 -20.5q-16 -2 -43 -48q-3 -5 -5 -9q-23 -34 -35 -63t-12 -48v-4l2 -20q-9 -24 -14 -50.5t-5 -54.5q0 -31 0.5 -47.5t2.5 -32.5l3 -7q3 -9 5 -17.5t2 -13.5l-2 -17q3 -5 5.5 -11t4.5 -13l4 -6l-4 2z" />
<glyph unicode="e" horiz-adv-x="920" d="M338 313l12 -14q3 -9 7 -18t10 -19q7 -11 20 -25t33 -30h8q10 0 20 -5t17 -14q10 -3 22 -4.5t37 -1.5q14 0 37 4.5t57 14.5q6 5 19 9q1 1 2 1l14 14l6 13q28 24 51.5 35.5t45.5 11.5q4 0 10 -0.5t12 -1.5q20 -8 31.5 -17t19.5 -22l5 -2l8 -9q13 -8 19.5 -20t6.5 -27 q0 -31 -30 -66t-88 -73q-30 -25 -67 -38t-82 -15q-5 -1 -11 -2.5t-19 -3.5l-10 4v-8q-135 0 -221.5 28t-136.5 88h-33l-53 109v10l-17 17v12q0 4 -1.5 8t-5.5 14l3 -1q-4 5 -6 11t-2 11v6q-10 41 -14 87.5t-4 137.5q0 27 0.5 40t1.5 24q-2 8 -3 15t-1 13q0 20 10 47t31 60 v33q9 13 28.5 40t28.5 40v14l12 16q29 39 49 66l21 2l-6 6q7 5 11 7t7 3q18 21 39.5 32t44.5 11h10q9 6 19 9t22 4h8l13 -7q22 9 48 13t58 4q43 0 86 -7t88 -22l14 -7q75 -40 85 -67v4q12 -6 19.5 -14t10.5 -19l-2 -3l6 -15q14 -6 25 -81q9 -66 18 -112q-4 -7 -6 -13.5 t-2 -14.5l2 -25l-4 -18v-16q0 -50 -9.5 -69.5t-30.5 -20.5q-6 0 -12 1l-12 2q-8 -2 -18.5 -3.5t-27.5 -1.5q-8 0 -27 3t-31 3q-14 -1 -24.5 -5t-21.5 -13q-20 6 -37.5 9t-35.5 3q-4 0 -30.5 -2.5t-48.5 -2.5q-7 0 -15 1t-18 4l-19 -3q-12 0 -17.5 0.5t-10.5 1.5 q-9 0 -15.5 -2.5t-15.5 -9.5q-4 2 -10 4t-18 4q-11 -1 -20.5 -2.5t-10.5 -1.5h-11q-2 -3 -4 -9.5t-2 -18.5t1 -20.5t4 -19.5q4 -9 7 -20t3 -20l-2 -11q1 -3 2 -8q4 -12 6 -14l4 -8v-10l2 -5zM387 666h-4q6 0 20 2t17 2q19 0 52.5 -2t50.5 -2q9 4 43 8.5t55 11.5l10 -2l6 8 l-4 33q-4 2 -8.5 5.5t-12.5 10.5q0 22 -10.5 38t-36.5 32q-18 3 -32 4.5t-25 1.5q-35 0 -64 -11t-45 -30q-9 -8 -15.5 -16t-10.5 -19q-14 -19 -20.5 -34t-8.5 -31l2 -12l8 -2q9 0 16.5 0.5t16.5 3.5z" />
<glyph unicode="f" horiz-adv-x="776" d="M229 1444l11 11q3 19 23 28q6 3 7 4l17 12q12 18 29 26.5t42 8.5q8 0 20.5 -1t18.5 -1h13q15 4 56 7.5t66 8.5q28 -3 65.5 -11.5t49.5 -8.5h4q85 -31 119.5 -101t34.5 -221q0 -35 -7.5 -56.5t-23.5 -29.5q-12 -2 -22.5 -5t-14.5 -5q-6 -3 -13 -4.5t-15 -1.5q-9 0 -25 3 q-3 1 -4 1l-26 -4q-26 3 -38 16t-12 39v10q0 107 -17.5 141.5t-64.5 41.5q-9 0 -13 0.5t-8 1.5q-27 0 -45.5 -9.5t-29.5 -29.5l-2 -24q-5 -23 -7.5 -52.5t-2.5 -73.5v-39q2 -24 3 -47.5t1 -58.5q0 -32 15 -43.5t69 -11.5h24q46 0 100.5 4t118.5 12q19 -14 27 -30t8 -38 q0 -6 -1 -19t-1 -20v-10l2 -22q-4 -44 -17 -58t-52 -14q-7 0 -11.5 0.5t-9.5 1.5q-3 0 -15 -1.5t-22 -2.5q-4 0 -10 2t-12 6q-3 0 -9 1.5t-13 4.5l-13 -6q-12 0 -38 -2t-38 -2q-13 0 -24 2t-21 6q-9 0 -31 -3q-4 -1 -6 -1h-4q-18 -3 -20 -10l2 -5q-1 -17 -1.5 -35t-0.5 -44 q0 -13 2 -97t2 -155q0 -60 -3 -107.5t-7 -75.5q6 -21 10 -54t6 -86q-5 -7 -7.5 -13t-2.5 -14l2 -25q5 -5 7.5 -12.5t2.5 -17.5q0 -1 -1 -10t-1 -17q1 -8 1.5 -17.5t0.5 -23.5q0 -30 -16.5 -44.5t-54.5 -18.5q-10 1 -17 1.5t-16 0.5q-10 0 -32.5 -1t-35.5 -1q-26 0 -47 7.5 t-41 25.5q5 165 7.5 311.5t2.5 281.5q0 9 -4 29.5t-4 32.5q0 9 2 16t6 13q0 19 1.5 38.5t4.5 38.5l2 12q-2 5 -4 8.5t-4 6.5q0 7 0.5 18.5t1.5 26.5l-6 6q-4 7 -31.5 9t-43.5 5l-5 -2q-5 -1 -10 -1.5t-16 -0.5l-15 2h-12q-15 2 -24 9t-13 20q-3 20 -4.5 39t-1.5 37 q0 60 12.5 75t50.5 15q4 0 15.5 -1t19.5 -1h4q48 0 66 21.5t18 78.5v12l4 16q-3 28 -4.5 52.5t-1.5 48.5q0 46 6.5 91t20.5 89l-2 15q0 17 6 29t18 20z" />
<glyph unicode="g" horiz-adv-x="963" d="M979 987l2 -10q0 -7 -2.5 -13.5t-7.5 -11.5q-5 -7 -41.5 -42.5t-65.5 -69.5l-8 -9q-3 -3 -14 -12.5t-18 -17.5q1 -7 6 -16.5t14 -23.5q9 -31 13.5 -65.5t4.5 -70.5q0 -17 -0.5 -28.5t-1.5 -22.5l-8 -9h4v-16q0 -31 -7.5 -53t-23.5 -41v-4l-2 -13q-12 -15 -24 -34t-15 -21 l-8 -10q-3 -4 -10 -15q-27 -40 -55 -57l-29 -20q-14 -17 -32.5 -27.5t-40.5 -13.5l-4 -2q-10 -5 -17 -7t-13 -2l-18 4q-5 -2 -9.5 -3.5t-15.5 -4.5q-12 -5 -24 -7.5t-27 -2.5q-1 0 -14 1.5t-24 2.5q-6 0 -20 -3q-4 -1 -6 -1q-41 -2 -64 -15.5t-23 -35.5v-4q0 -13 32 -19 t120 -10h40q14 0 28 -2t28 -6q210 -15 294 -72.5t84 -181.5v-47q0 -45 -5 -81.5t-15 -76.5q-11 -29 -32 -58.5t-64 -72.5l-12 -12q-14 -7 -34 -19t-26 -14q-20 -14 -39 -21.5t-37 -7.5h-8l-21 2q-6 -5 -14.5 -8.5t-19.5 -5.5q-28 -4 -62 -6t-102 -2q-65 0 -128 7.5 t-124 23.5q-56 31 -78 47t-29 30q-15 6 -23.5 16t-8.5 21v4l-11 17q-9 13 -13.5 29t-4.5 42v23q0 9 -1.5 22.5t-4.5 30.5l4 15q-2 4 -3 10.5t-1 21.5q0 6 1.5 13t6.5 22q12 10 27.5 15.5t36.5 6.5l16 -14l4 17q14 1 26.5 1.5t20.5 0.5q17 0 49 -2l6 -6l10 -2q9 -4 13 -9.5 t6 -15.5q6 -16 8.5 -56.5t5.5 -61.5q24 -24 49.5 -36t51.5 -12h10q26 -9 53.5 -13.5t57.5 -4.5q27 0 50 4t44 12l15 -2q23 1 42 9t31 22q25 7 38 33t13 67q0 9 -0.5 18.5t-1.5 20.5q-9 33 -51 51.5t-135 28.5q-6 -3 -12.5 -4.5t-14.5 -1.5q-5 0 -11.5 2t-15.5 6q-9 2 -14 3 t-8 1q-5 0 -8 0.5t-7 1.5q-10 -2 -19.5 -3t-22.5 -1q-12 0 -45 4t-52 6q-4 -1 -7.5 -1.5t-8.5 -0.5q-9 0 -43 10q-17 5 -28 8q-63 17 -93.5 63t-30.5 124q0 44 26 91t69 79q-15 27 -25 37t-22 10h-3q-8 4 -13.5 13t-8.5 24q-33 44 -49.5 93.5t-16.5 107.5q0 18 1 30.5 t3 23.5l5 32l-2 16q0 13 5.5 30t14.5 33l10 19v18q14 22 24.5 35.5t20.5 24.5v8q9 21 22.5 39t33.5 35l20 14q18 17 37 26.5t39 12.5q8 5 17.5 8.5t21.5 5.5q19 8 49 13.5t59 5.5q4 0 26.5 -2t41.5 -2q55 0 99 -11t85 -35h4q7 3 9.5 5t5.5 6q4 4 27 36.5t42 59.5q11 2 16 5 t7 10l2 7q7 10 16 17t21 12h6q21 0 52 -30q8 -8 14 -13q6 -8 21 -26l40 -48zM324 502l10 -8v-5q0 -16 16.5 -33.5t58.5 -43.5q3 -6 8 -9.5t9 -3.5q6 0 19 3t18 4l17 -2q23 4 43.5 14.5t37.5 27.5q20 19 32.5 50.5t12.5 64.5v8q4 10 6 21.5t2 23.5t-2 43q-1 12 -2 19 q-5 9 -9 25q-1 3 -1 4l-8 14l2 6v6l-8 6q-10 8 -14 13t-5 10q-6 8 -15 15t-19 13q-5 2 -13.5 5.5t-11.5 3.5l-33 6h-22q-13 0 -27 -2.5t-32 -7.5q-28 -16 -51.5 -50.5t-23.5 -60.5v-11q-5 -15 -7.5 -29.5t-2.5 -27.5q0 -17 0.5 -29.5t1.5 -24.5l2 -4q3 -10 4.5 -16t1.5 -10 v-8l9 -14z" />
<glyph unicode="h" horiz-adv-x="1059" d="M952 607q1 -27 1.5 -56.5t0.5 -83.5q0 -47 -1 -117t-1 -94l1 -41.5t1 -83.5q0 -12 4 -50v-7v-66l-2 -18q1 -6 1.5 -13t0.5 -20q0 -34 -11 -52.5t-34 -21.5l-16 -2q-6 0 -17.5 3t-15.5 3q-11 -7 -25.5 -10.5t-37.5 -3.5q-5 0 -30 3.5t-43 4.5q-11 9 -18 18t-12 19v23l2 10 v8l4 14q0 7 -1 14.5t-1 18.5q0 16 3.5 52t3.5 56q-3 8 -4.5 15.5t-2.5 15.5q0 10 2.5 26t2.5 22v6l-2 20v12q4 119 4 177q0 16 -2 75q-2 41 -2 64l1 19q-1 10 -3 27q-5 33 -5 42v4q-3 4 -5 9t-5 16l2 17q-2 8 -6.5 14t-11.5 12l-8 17q-3 9 -8.5 18.5t-18.5 27.5 q-11 2 -18.5 6t-14.5 10l-39 11q-6 3 -12 4.5t-10 1.5q-37 0 -82.5 -33.5t-52.5 -74.5q-13 -18 -19 -43t-6 -74v-37q0 -16 1 -52.5t1 -56.5q0 -42 -2.5 -73.5t-7.5 -58.5q8 -22 12 -52.5t4 -69.5q-6 -8 -8.5 -12.5t-3.5 -7.5l4 -16q5 -9 7.5 -16t2.5 -13l-2 -23q0 -6 1 -17 t1 -16q0 -27 -17.5 -40.5t-56.5 -16.5q-12 1 -23 1.5t-24 0.5q-6 0 -23.5 -1t-29.5 -1q-29 0 -52 7t-42 22q4 74 6 136t2 103v41q0 58 4 166t4 158q0 31 -0.5 47t-1.5 29l2 16q0 4 -1 12q-3 28 -3 37q0 2 1.5 7t4.5 13q-1 26 -2.5 56.5t-1.5 36.5l2 22q2 11 3 19.5t1 17.5 q0 1 1 10.5t1 18.5q-7 6 -9 143q0 50 -1 80q-6 62 -15 95.5t-21 39.5q-5 -1 -9.5 -1.5t-11.5 -0.5l-25 2q-8 0 -14 -1.5t-13 -4.5q-9 0 -19.5 -1t-12.5 -1q-14 2 -25.5 7t-21.5 14v74q5 50 17.5 68.5t41.5 22.5l15 2l14 -2l9 -1q8 3 14.5 4t15.5 2l10.5 -1.5t19.5 -1.5 q6 1 12 3t12 6q45 0 120.5 4t105.5 4q-4 4 -4 6q13 -12 35 -37v-24l-4 -11l-4 -18v-23q0 -12 -2 -41.5t-2 -48.5q3 -9 4.5 -16t1.5 -10q-3 -21 -4 -30l-2 -18l4 -14q-3 -51 -4.5 -105t-1.5 -149q0 -30 0.5 -45t1.5 -26q11 13 21.5 22.5t19.5 13.5q6 8 17.5 13t29.5 8 q3 4 13 11q4 3 7 5q29 6 52 9.5t38 3.5q11 0 29.5 -2t41.5 -5q49 0 84.5 -8.5t59.5 -27.5q21 -14 42 -32t47 -44l-5 -2l23 -23q0 -6 12 -28.5t15 -43.5l2 -8l2 -14v-8q18 -66 28 -98q-8 24 -22 75l8 -14l-8 -4q7 -25 10 -38.5t4 -24.5l2 -5l4 -12l-2 -23z" />
<glyph unicode="i" horiz-adv-x="547" d="M424 1254q6 -5 9 -12t3 -15q0 -32 -17.5 -65.5t-49.5 -61.5q-19 -7 -36.5 -10t-35.5 -3q-26 0 -53.5 8t-55.5 23q-19 28 -29 51t-12 44q0 7 1.5 13.5t3.5 10.5l4 10q-1 6 -1.5 13t-0.5 20q0 3 4 14q1 2 2 5q3 12 13.5 24.5t31.5 28.5l6 -4l-2 10q19 13 42 19.5t46 6.5 q38 0 69 -16t44 -43q3 -7 7 -20.5t5 -16.5q1 -4 2 -10.5t2 -9.5l-2 -8v-6zM430 926l-4 -19q0 -6 1 -13.5t1 -8.5q-3 -40 -4.5 -63t-1.5 -29q3 -8 4.5 -15t1.5 -12q-1 -7 -2 -22.5t-2 -22.5l2 -16q-5 -25 -7.5 -53t-2.5 -85q0 -29 4 -84t4 -82q0 -31 -2 -56t-6 -44 q7 -13 12 -44.5t6 -78.5q-6 -8 -8 -12.5t-2 -7.5q0 -6 0.5 -9.5t1.5 -6.5q4 -5 6 -10.5t4 -19.5q-1 -4 -1.5 -8.5t-0.5 -13.5t0.5 -15.5t1.5 -12.5v-5q0 -27 -17 -40.5t-56 -16.5q-13 1 -24.5 1.5t-25.5 0.5q-5 0 -21.5 -1t-29.5 -1q-29 0 -52 7t-44 22q2 79 7 222 q9 302 9 398v44q-3 45 -12 68.5t-26 30.5l-21 -1q-10 0 -15.5 0.5t-9.5 1.5l-10 2q-4 -2 -7.5 -3.5t-8.5 -4.5q-12 -1 -19.5 -1.5t-14.5 -1.5q-11 0 -23 6t-23 17v63q0 51 14 75.5t44 27.5l16 2l14 -2l8 -2q8 3 15 4.5t14 1.5q2 0 12 -1t18 -1q7 0 19 6l4 2q47 0 123.5 4 t107.5 4q13 -11 21 -19t12 -14v-22z" />
<glyph unicode="j" horiz-adv-x="547" d="M209 1333v2q0 13 10.5 22.5t41.5 21.5q10 7 19 10.5t19 3.5q9 0 29 -5.5t30 -5.5h4q45 -36 67 -74t26 -83q-8 -34 -26 -58t-47 -41q-6 -1 -22 -14.5t-30 -13.5q-6 -3 -13 -4.5t-20 -1.5q-8 0 -17.5 2t-17.5 6l-4 2l-4 -2q-48 17 -78.5 55.5t-30.5 79.5q0 12 3.5 22.5 t8.5 17.5q4 16 19 33t33 25zM-160 -135q18 5 32 7.5t26 2.5q6 0 12.5 -0.5t13.5 -1.5l6 -2q14 3 19 3.5t8 0.5h4q27 0 40 -15.5t13 -47.5v-12q-2 -40 -2 -74q0 -52 18 -71.5t72 -19.5q25 0 41 14t21 40v20q6 28 9 53.5t3 40.5v13q0 13 1 24t3 19q-3 5 -4.5 12t-1.5 16 q0 8 1 15.5t3 13.5l2 4v43q0 6 -0.5 11.5t-1.5 11.5q2 187 3 359t1 348q-3 45 -12 68.5t-26 30.5l-21 -1q-10 0 -15.5 0.5t-9.5 1.5l-10 2q-4 -2 -7.5 -3.5t-8.5 -4.5q-12 -1 -19.5 -1.5t-14.5 -1.5q-11 0 -23 6t-23 17v63q0 51 14 75.5t44 27.5l16 2l14 -2l8 -2q8 3 15 4.5 t14 1.5q2 0 12 -1t18 -1q7 0 19 6l4 2q47 0 123.5 4t108.5 4q11 -4 19.5 -12.5t12.5 -19.5v-23l-4 -10l-4 -19q0 -6 1 -13.5t1 -8.5q-3 -40 -4.5 -63t-1.5 -29q3 -8 4.5 -15t1.5 -12q-1 -8 -2 -22t-2 -21l2 -17q-5 -86 -7.5 -196t-2.5 -266v-109q2 -32 3 -49.5t1 -32.5 q0 -19 -2 -73t-2 -89v-30q0 -92 -8.5 -152t-26.5 -108q-11 -34 -31.5 -56t-52.5 -34q-19 -29 -47.5 -42.5t-71.5 -15.5q-31 -6 -63.5 -10t-51.5 -4q-34 0 -128 26q-11 3 -16 4q-13 9 -33 21q-49 31 -54 57q-15 29 -23 61t-8 64v6q-8 36 -12 63.5t-4 49.5q0 35 9.5 51 t33.5 25z" />
<glyph unicode="k" horiz-adv-x="1141" d="M121 51v17q0 42 1.5 58.5t4.5 26.5q1 6 1.5 11.5t0.5 15.5q0 11 -1.5 21.5t-4.5 19.5q4 23 6 46t2 50q0 51 -3 104q-1 11 -1 13l-2 21q0 11 1.5 21.5t4.5 21.5q4 5 6 10.5t2 9.5q0 5 -2 16t-2 19t2 14.5t6 11.5q-4 33 -5.5 93t-8.5 88l14 18l-4 -2q0 6 1 13.5t1 9.5 l-2 20q0 1 1 14t1 25l-2 19l-2 10q0 4 1 10l3 18v7l-2 6v33l10 13q-9 7 -9 127q0 60 -1 98q-7 66 -15.5 95t-21.5 39l-20 -2l-25 2q-8 0 -15 -1.5t-12 -4.5q-9 0 -19.5 -1t-12.5 -1q-14 2 -25.5 7t-21.5 14v74q3 47 16 67t43 24l15 2l14 -2l9 -1q8 3 14 4t14 2q2 0 12 -1.5 t18 -1.5q6 0 12.5 2.5t13.5 6.5q45 0 121.5 4t106.5 4q8 -6 15.5 -14t15.5 -17v-24l-4 -11l-4 -18v-25q0 -7 -2 -38t-2 -54q2 -6 3 -12.5t1 -22.5l-2.5 -24t-3.5 -50l4 -18q-4 -56 -6 -112t-2 -111v-57v-9q2 -29 2 -53q0 -30 -5 -69.5t-5 -51.5q0 -16 5 -31t15 -30l29 -6h4 l6 2q16 0 29.5 1.5t23.5 4.5q13 4 33 13t27 12q5 5 11.5 10t14.5 10q52 103 93.5 177t58.5 95q20 13 40 19t40 6q16 0 34 -6t35 -17h37q20 -11 33.5 -29t19.5 -42q0 -5 -2 -17q-1 -6 -2 -10q-8 -9 -28.5 -34t-34.5 -40q-6 -5 -9.5 -11.5t-4.5 -13.5l1 -9q-20 -20 -40 -44 t-39 -53l-9 -12q-16 -18 -29 -34.5t-24 -33.5l4 -2l8 2q8 -1 18 -6l3 -2l20 -14q23 -12 35.5 -30.5t16.5 -45.5q-1 -38 -5 -91.5t-4 -66.5v-13q4 -26 6 -54t3 -31l4 -18v-11l-6 -2l14 -12v-8q6 -13 16 -18t35 -5q6 0 10 0.5t8 1.5q25 2 37 104v3q8 59 20 76.5t38 17.5 q9 0 16 -0.5t13 -1.5h4l20 4q9 -1 26.5 -4t26.5 -4l15 2q15 -18 22.5 -36t7.5 -36q0 -12 -7 -47t-7 -57q-25 -87 -46 -119.5t-54 -50.5l6 2l-8 -14l-13 -25h-8q-9 0 -22.5 -2t-38.5 -8q-11 -4 -24 -6t-32 -2q-5 0 -49 4q-41 4 -68 6h-16q-35 0 -53.5 10t-32.5 35h-16 q-9 0 -15 6t-8 17l-14 8q-17 8 -25 23t-10 42q-12 21 -17 45.5t-5 69.5q0 12 2 45t2 53q0 13 -0.5 23.5t-1.5 24.5q1 4 1.5 8t0.5 9q-1 4 -1.5 9t-0.5 16q-6 23 -23.5 34t-48.5 11q-9 2 -27 5.5t-22 3.5q-2 0 -12 -1t-17 -1h-8q-7 0 -13 0.5t-11 0.5l-15 -1h-4l-4 -7l-6 -73 l2 -17q-1 -4 -2 -11q-2 -19 -2 -28q0 -8 1.5 -14t4.5 -11l4 -18q0 -5 -1.5 -11.5t-4.5 -12.5l-2 -6l4 -21h-4l14 -14q0 -10 0.5 -15t1.5 -10q0 -1 -1 -4q-4 -12 -7 -19l2 -24q0 -2 -3 -23t-5 -40l2 -11q5 -16 7.5 -26t2.5 -17q0 -26 -18 -42.5t-47 -16.5h-11q-8 0 -20.5 2.5 t-26.5 7.5q-8 -4 -17.5 -6t-21.5 -2q-7 0 -15 0.5t-17 1.5l-27 -4q-16 6 -26.5 16t-16.5 23z" />
<glyph unicode="l" horiz-adv-x="512" d="M139 911q2 10 4 23t4 41q-7 6 -9 143q0 50 -1 80q0 71 -8.5 101.5t-27.5 33.5q-9 0 -13.5 -0.5t-7.5 -1.5l-25 2q-8 0 -14 -1.5t-13 -4.5q-9 0 -19.5 -1t-12.5 -1q-14 2 -25.5 7t-21.5 14v74q5 50 17.5 68.5t41.5 22.5l15 2l14 -2l9 -1q4 3 11.5 5.5t16.5 2.5 q5 0 17.5 -1t19.5 -1q3 0 7 1t12 5q46 0 122.5 4t107.5 4q18 -6 24.5 -12.5t6.5 -18.5v-24l-4 -11l-4 -18v-23q0 -7 -2 -37t-2 -53q3 -7 4.5 -14.5t1.5 -11.5q-1 -9 -2.5 -18.5t-3.5 -26.5l4 -17q-3 -59 -4.5 -135t-1.5 -242q0 -39 2 -128.5t2 -139.5v-24q2 -71 2 -134 q0 -44 -2.5 -81t-7.5 -59q9 -24 13.5 -54.5t4.5 -69.5q-4 -4 -7 -8.5t-5 -9.5l4 -18q5 -9 7.5 -16t2.5 -13l-2 -23q0 -3 1 -14t1 -19q0 -25 -17 -38.5t-56 -18.5q-3 0 -10 1q-17 3 -25 3q-2 0 -25.5 -2t-46.5 -2q-16 0 -34.5 7t-40.5 21q2 58 4 175q1 57 1 86 q-3 29 -4.5 59.5t-1.5 61.5q0 15 2 87t2 128q0 19 -0.5 40t-1.5 44l2 16q0 6 -1 16q-3 27 -3 35q0 3 1.5 7.5t4.5 10.5q0 19 -2 49.5t-2 43.5v24z" />
<glyph unicode="m" horiz-adv-x="1567" d="M1454 684v-76q0 -19 1 -66t1 -75v-21q-2 -84 -2 -159q0 -4 1 -29t1 -45q0 -7 3 -34q1 -9 1 -13v-55l-2 -7l6 -24q6 -27 6 -37q0 -25 -28.5 -35t-100.5 -10q-13 0 -50 1t-60 1q-14 14 -20.5 21t-10.5 12v22l4 11l4 17q-1 6 -1.5 10t-0.5 13q0 19 3 49.5t3 43.5 q-3 4 -5.5 11.5t-2.5 14.5q4 33 6 47v-2l-2 15q1 10 1 28q3 91 3 129q0 57 -4 120q-2 18 -2 22v30q0 56 -16 95t-48 59q-10 2 -18 6t-16 12l-35 9v4q-88 -11 -126 -69.5t-38 -188.5v-58q0 -19 -1 -84.5t-1 -111.5q0 -11 1 -35.5t1 -38.5q0 -9 3 -32q1 -10 1 -15v-55l-2 -15 q1 -6 1.5 -13t0.5 -20q0 -28 -10 -42t-35 -19h-12q-11 0 -16.5 0.5t-10.5 1.5l-14 2l-4 2q-13 -6 -27 -9t-41 -3q-3 0 -25.5 1.5t-41.5 2.5q-7 6 -14 13.5t-17 19.5v22l4 11l4 18l-2 22v9q0 7 2.5 35.5t3.5 48.5q0 1 -2 5q-6 15 -6 21q4 33 6 47v-2l-2 15l1 6q3 104 3 153 q0 31 -2 68.5t-2 46.5v8q0 11 -4 34.5t-4 37.5q-1 2 -2 3q-6 8 -6 13q1 6 3 10.5t7 12.5q-2 6 -6 12.5t-10 14.5l2 10q0 8 -4 13t-14 9q-1 10 -17 21q-9 7 -15 12q-10 2 -17.5 6t-13.5 11l-34 8v4q-57 -6 -92.5 -32.5t-46.5 -71.5q-13 -17 -19 -39.5t-6 -77.5v-37 q0 -16 1 -58.5t1 -68.5q0 -30 -2.5 -58.5t-7.5 -54.5q6 -17 9 -35t3 -37q0 -12 -2 -24t-6 -23q-1 -7 -4 -20t-4 -20q3 -5 6 -13t4 -16l-2 -23q0 -6 1 -17t1 -16q0 -27 -17.5 -40.5t-55.5 -16.5q-9 1 -16 1.5t-15 0.5q-9 0 -31 -2t-35 -2q-23 0 -43 7t-42 23q4 92 5.5 145.5 t1.5 100.5v31q0 61 4.5 168t4.5 154q0 96 -11 177t-32 150l-4 14q3 30 40.5 45t110.5 17q18 4 31 5.5t27 2.5q32 -9 43.5 -26t11.5 -56v-34q9 9 23.5 18t32.5 17q8 8 20 13t28 7l12 10.5t8 5.5q26 5 49 8t42 3q9 0 20.5 -1t35.5 -4h11q62 0 108.5 -23.5t106.5 -84.5l9 -14 q2 2 5 6q9 11 11 16l25 6l-7 2l4 2l7 9q13 13 28 22.5t33 15.5q7 9 18.5 14t28.5 7l12 10.5t8 5.5q26 6 47.5 8.5t41.5 2.5q12 -1 39 -3q8 -1 12 -2h10q52 0 90.5 -13.5t69.5 -43.5q21 -9 37.5 -23.5t30.5 -34.5l10 -22q0 -7 12 -29.5t16 -41.5l2 -9l7 -8l4 2l2 -10v-6 l6 -17v-16q5 -15 6.5 -22t1.5 -13v-8z" />
<glyph unicode="n" horiz-adv-x="1028" d="M926 684v-76q0 -29 1 -70.5t1 -54.5q0 -31 -1 -96.5t-1 -99.5q0 -11 1 -35.5t1 -38.5q0 -10 2 -31q1 -10 2 -16v-55l-2 -17v-31q0 -28 -10.5 -43t-32.5 -18l-13 -2q-10 0 -19 2t-17 6q-13 -6 -29 -9t-41 -3q-3 0 -24.5 1.5t-41.5 2.5q-11 8 -18.5 15.5t-13.5 17.5v22 l4 11l4 18l-2 22v9q0 8 2.5 36.5t3.5 46.5q-3 6 -4.5 11.5t-1.5 15.5q0 4 1.5 18.5t2.5 24.5l-2 17v6q4 104 4 153q0 31 -2 68.5t-2 46.5v8q0 11 -4 34.5t-4 36.5q-3 5 -4.5 8.5t-3.5 11.5l6 12l-6 8l-13 22l2 12q-4 2 -7.5 5t-6.5 8q-2 12 -16 30q-7 10 -11 15q-10 2 -18 6 t-14 10l-40 11q-6 3 -11.5 4.5t-10.5 1.5q-38 0 -82.5 -33t-52.5 -76q-14 -19 -21.5 -44t-7.5 -56q0 -8 1 -19.5t3 -33.5v-109q0 -38 -2 -71t-6 -62q8 -21 12.5 -51.5t4.5 -69.5q-5 -5 -8 -9.5t-5 -11.5q0 -4 3 -12q1 -2 1 -4q4 -3 6 -9t5 -19l-2 -23q0 -6 1 -17t1 -16 q0 -27 -18 -40.5t-56 -16.5q-8 1 -16.5 1.5t-22.5 0.5q-11 0 -42 -2t-52 -2q-17 0 -32 7.5t-29 22.5q2 102 3.5 155t3.5 97v25q0 66 4.5 173.5t4.5 148.5q0 82 -11 164t-32 163l-4 14q7 29 38.5 41.5t100.5 12.5h16q14 1 31 5t38 11q31 -2 38 -62q1 -11 2 -18l2 -18v-16 q11 9 24 17t30 16q8 8 20 13t28 7l12 10.5t9 5.5q25 6 48 9.5t42 3.5q9 0 28 -2t42 -5h12q53 0 92.5 -14.5t71.5 -46.5q22 -16 40 -34.5t35 -40.5q2 -11 19.5 -33t19.5 -41q2 -9 5 -25.5t3 -20.5l3 -22z" />
<glyph unicode="o" horiz-adv-x="1028" d="M965 436v-8q0 -44 -11 -85.5t-30 -72.5l-2 -32q-15 -15 -41 -64l-5 -9q-4 -5 -7 -12.5t-3 -13.5q-15 -20 -41.5 -41.5t-64.5 -46.5q-17 -18 -34.5 -26.5t-39.5 -8.5h-13q-10 -7 -22 -10.5t-26 -3.5h-4l-6 -2q-15 -9 -30.5 -13.5t-35.5 -4.5q-5 0 -23.5 2t-31.5 2 q-2 0 -10 -2t-13 -2h-25q-72 0 -132 24t-111 74l-35 16q-8 23 -19 46.5t-30 58.5v10l-19 16l2 21q-18 49 -27 107t-9 130t11 127.5t34 100.5v26q16 16 29 36.5t24 45.5v14q13 15 28.5 33t36.5 43h21l-8 7l6 4.5l10 7.5q15 18 35.5 29t44.5 14l14 -2q7 5 16.5 8.5t22.5 5.5 q4 4 10 8t12 6q20 7 44 10t61 3q14 0 33.5 -1.5t43.5 -4.5h11q54 0 95.5 -14.5t74.5 -45.5q14 -10 33 -27q33 -28 49 -28q2 -12 29 -62q14 -26 22 -43v-12l15 -14q0 -10 0.5 -15t1.5 -8h14q14 -43 21.5 -79t7.5 -66q0 -10 -0.5 -18.5t-1.5 -17.5v-19q0 -8 1 -27t1 -31 q0 -5 -2 -24q-2 -12 -2 -19zM340 303l18 -18l9 -13l-5 -12l-4 -14q6 -8 12.5 -11.5t16.5 -5.5q8 -11 26 -20.5t23 -15.5q2 -9 15 -15t30 -6q23 0 34 1t20 3h6q32 0 57 14t47 43q26 21 41.5 62t20.5 98l-2 13q8 26 12 51.5t4 50.5q0 21 -1.5 44t-4.5 50q-5 11 -12 37 q-2 6 -3 8l-10 21l-2 8l10 10q-3 4 -9.5 8.5t-14.5 7.5v15q-6 0 -11.5 3.5t-13.5 13.5q-3 10 -11.5 19.5t-29.5 24.5q-11 4 -19 9t-13 11q-20 7 -37 10t-31 3q-20 0 -40.5 -6.5t-42.5 -20.5q-15 -2 -39 -42l-9 -15q-25 -41 -36 -66.5t-11 -39.5t0.5 -19.5t1.5 -9.5 q-9 -25 -13 -56.5t-4 -72.5l1 -54q5 -7 7.5 -14.5t2.5 -15.5l-2 -17q5 -10 7 -15t3 -9q1 -5 2.5 -13.5t3.5 -21.5z" />
<glyph unicode="p" horiz-adv-x="1049" d="M101 -11l3 37q-1 7 -1.5 13.5t-0.5 15.5q0 16 2 45t2 41q0 2 -2 6q-6 15 -6 21q4 33 6 47v-2l-2 14q1 23 1.5 43.5t0.5 40.5q0 73 -5 186.5t-5 153.5q0 79 -9.5 152t-31.5 151l-4 15q6 29 38 41t110 12h22l6 -8l13 12q20 -12 32.5 -30.5t20.5 -51.5v-2q0 -3 2 -5.5 t8 -4.5l12 12q2 1 7 6t9 8q38 21 67 31t53 10q12 7 25.5 10t29.5 3q7 0 27.5 -2t33.5 -2q6 0 12 0.5t19 3.5q75 0 136.5 -20.5t103.5 -59.5l38 -35q10 -28 22 -54t28 -50v-11l18 -16q0 -6 -1 -13t-1 -8q18 -40 26.5 -86t8.5 -98q0 -17 -2.5 -47.5t-7.5 -84.5q3 -9 4.5 -17.5 t1.5 -16.5q0 -14 -9.5 -40.5t-29.5 -67.5v-28q-16 -18 -29 -38t-24 -45v-14l-15 -16q-44 -50 -51 -60q-5 -2 -13.5 -10t-15.5 -8q-19 -21 -38.5 -31.5t-41.5 -11.5l-14 2q-8 -7 -18.5 -11t-20.5 -4q-11 -14 -42.5 -21t-82.5 -7q-55 0 -97 12.5t-79 40.5l-6 4q-6 -1 -9 -20.5 t-3 -102.5q0 -16 1.5 -48.5t4.5 -78.5l-4 -17q1 -8 2.5 -19t3.5 -24q0 -5 -1.5 -12.5t-4.5 -13.5q0 -27 3 -72.5t3 -64.5q0 -8 -0.5 -17.5t-1.5 -21.5l4 -14v-4l2 -11v-22q-10 -13 -26 -28q-3 -4 -5 -5q-15 0 -39 -2t-32 -2q-21 0 -33 3t-21 9l-4 -2q-17 -6 -30.5 -9 t-24.5 -3h-6q-24 6 -34.5 18.5t-10.5 34.5q0 14 3.5 31t10.5 37v51q2 16 3 34t1 52q0 13 4 53.5t4 67.5v20q0 4 -1 33t-1 53q0 9 2 18.5t7 18.5q-1 8 -3.5 15t-6.5 13zM377 276h4q4 -1 9 -5.5t11 -12.5q0 -12 8.5 -22.5t24.5 -20.5q11 -4 19 -9t14 -11q2 -1 5 -2 q40 -11 63 -11q18 0 37 6t45 21q15 2 39 42q6 10 10 15q28 52 37.5 74t9.5 37v4l-2 20q8 23 12 48.5t4 58.5v72l-4 8q-3 4 -4.5 11.5t-1.5 18.5l2 17q-2 25 -8 44.5t-16 32.5q-1 7 -4 12t-11 11l4 15q-4 6 -11.5 11t-17.5 7q-9 14 -27.5 23.5t-20.5 12.5q-4 10 -13 13.5 t-27 3.5q-7 0 -22 -1.5t-38 -4.5h-7q-33 0 -57.5 -12.5t-43.5 -38.5q-27 -21 -42 -63t-15 -97q0 -8 0.5 -13.5t1.5 -10.5q-7 -21 -10.5 -44.5t-3.5 -58.5q0 -20 1.5 -41t4.5 -45l14 -45l10 -20l2 -9l-9 -7q3 -6 8.5 -10t13.5 -8z" />
<glyph unicode="q" horiz-adv-x="1053" d="M948 86v-3q-4 -17 -4 -36q0 -1 1.5 -16t2.5 -28l-12 -13q4 -11 6 -20.5t2 -18.5v-184q3 -64 5 -96t5 -62v-72q0 -1 1 -13.5t1 -23.5q0 -8 -1.5 -15t-4.5 -12q-4 -8 -13.5 -15t-27.5 -13h-10q-6 0 -15 1.5t-22 4.5q-12 -6 -23.5 -9t-21.5 -3h-20h-6q-3 0 -22 1.5t-36 2.5 q-7 5 -15 13.5t-15 18.5l-1 23l3 10l4 19v24q0 5 1.5 35t2.5 55q-4 11 -5 16.5t-1 11.5q1 12 2.5 23t3.5 21l-4 15q0 14 2 45q4 88 4 139v14q0 7 -1.5 29t-4.5 67l-7 27q-12 -14 -25 -22.5t-22 -8.5h-6q-8 -7 -18 -10.5t-31 -3.5h-4l-4 -2q-20 -11 -31.5 -14.5t-23.5 -3.5 h-13q-6 0 -23.5 2t-31.5 2q-5 0 -10.5 -1t-12.5 -3h-8q-60 0 -115.5 27t-117.5 87h-37q-8 25 -20 50t-29 55v10l-19 16l2 21q-17 45 -25.5 87t-8.5 85v12q0 24 2 55t8 78q-3 8 -4.5 16t-1.5 21t9 37t30 68v28q18 20 31 40.5t22 41.5v14q14 16 29 33.5t36 42.5h21l-8 6 q3 3 8.5 7t7.5 6q16 19 35 29t45 14l14 -2q10 6 19 9.5t20 4.5q12 15 40.5 22t78.5 7q66 0 108.5 -13t71.5 -41l9 2q13 -2 24 -10t22 -24q8 17 13.5 31.5t9.5 27.5q8 17 19 26.5t28 14.5l8 -2h62q9 0 20.5 -1.5t28.5 -4.5q33 -7 45 -17t18 -31l-4 -14q-27 -91 -39 -236.5 t-12 -379.5q0 -22 0.5 -42t1.5 -42l-2 -14q1 -13 3.5 -26.5t2.5 -14.5v-4q0 -9 -2 -15.5t-6 -14.5v-9q0 -1 4 -19t6 -36zM340 295l19 -19q2 -1 9.5 -5.5t12.5 -8.5l-8 -25q1 -3 10 -12q2 -2 5 -4q14 -3 25 -11.5t23 -25.5q2 -6 9.5 -10t17.5 -4h10h25q6 0 30 3q6 1 9 1h8 q31 0 55.5 12.5t44.5 38.5q25 21 41 62t16 86q0 8 -0.5 17t-3.5 20q7 23 11 51t4 57q0 19 -2 39v6q0 28 -14 70q-3 10 -5 16l-10 21q-2 3 -6 11q-15 32 -35 56q0 11 -7.5 21t-24.5 22q-7 2 -14 6t-20 15q-22 7 -39 10.5t-26 3.5q-20 0 -40.5 -7t-44.5 -22q-16 -3 -38 -40 q-6 -11 -10 -17q-24 -41 -34.5 -68t-10.5 -47v-20q-9 -25 -13 -50t-4 -69v-65l4 -8q4 -8 5.5 -14.5t1.5 -14.5l-2 -19q4 -9 6.5 -14.5t3.5 -9.5l4 -6l-4 2z" />
<glyph unicode="r" horiz-adv-x="655" d="M106 672q-10 30 -13.5 95t-18.5 97v16q-4 6 -6 12t-2 13h6l-15 15v6q0 20 8 33.5t25 23.5l23 -4l10 4q5 4 11.5 6t17.5 2l18 -18v12q13 7 31 9.5t49 2.5q3 0 9 1t9 1q6 -8 25.5 -11t28.5 -7q2 -7 4.5 -15.5t3.5 -11.5l-4 -14q2 -9 3 -16.5t1 -16.5q0 -13 -1.5 -28.5 t-5.5 -37.5l-1 -5q1 -5 3.5 -8.5t3.5 -3.5q14 13 20.5 24t6.5 20q6 0 9.5 3t3.5 10l8 8l7 8q60 59 87 59q23 21 52 31t61 10q42 0 63 -12.5t21 -38.5q0 -1 -1.5 -17.5t-3.5 -34.5l-6 -13q0 -4 2 -9.5t4 -8.5l-6 -15q2 -6 3 -12.5t1 -14.5q-2 -10 -4 -15.5t-4 -8.5 q-5 -27 -10.5 -39.5t-12.5 -16.5q-7 -3 -15 -4.5t-21 -1.5q-5 0 -17.5 3.5t-29.5 9.5h-4q-12 -1 -23 -5t-22 -12h-21q-74 -51 -104.5 -111t-30.5 -159q0 -9 0.5 -13t1.5 -8q4 -4 6 -12.5t2 -24.5q-8 -8 -12 -19t-4 -28q0 -11 0.5 -17t1.5 -12l-2 -21q7 -28 10.5 -60t3.5 -72 v-61q0 -29 1.5 -49t4.5 -34q-7 -14 -18.5 -20t-32.5 -6q-11 0 -23.5 1.5t-27.5 4.5q-7 -5 -15 -7.5t-20 -2.5l-12 2l-4 -2l-15 -2l-22 6l-6 2q-13 -3 -22 -4.5t-15 -1.5q-13 0 -23 6t-18 19q0 24 5 55t5 39v10q0 13 1.5 27t4.5 30q0 137 2 233.5t6 168.5q-5 6 -7.5 13.5 t-2.5 21.5l1 3q1 10 1 19z" />
<glyph unicode="s" horiz-adv-x="844" d="M113 83q-3 3 -6 5q-21 16 -21 27v6l-8 16q-11 20 -14 57.5t-14 50.5q5 10 8 20t3 22v26l2 19q15 14 42.5 18.5t35.5 7.5h103l14 -14v6q8 -3 12.5 -9t6.5 -16q3 -9 5 -41.5t5 -54.5q7 -22 19.5 -34.5t27.5 -12.5h8q16 -6 31.5 -9t40.5 -3q11 0 27 4t40 12h13q13 1 18 5 t8 15l-2 11q19 6 30 30t11 60q0 21 -27.5 38.5t-36.5 29.5q-17 7 -37 10t-22 4l-8 4l-14 -6q-11 0 -20 4.5t-15 11.5q-2 0 -7.5 2.5t-13.5 6.5l-19 -2q-27 1 -46 5t-33 11l-33 14q-65 29 -94 57.5t-43 71.5q-7 6 -12 19v2l4 14q-11 8 -17 18.5t-8 24.5q1 3 2 8q2 11 4 14 q-2 5 -4 17q-1 5 -2 8l9 17l-3 6q-2 6 -3 12t-1 12q1 2 1 5q4 15 8 23v3q0 43 65 128q11 14 17 22l30 4v6l13 4q15 24 36 36.5t47 12.5h6q9 7 21 10.5t29 3.5l6 -8q22 11 47 16t53 5q47 0 95.5 -8.5t95.5 -24.5q39 -24 57.5 -40t24.5 -30q11 -5 17.5 -13.5t6.5 -16.5v-7 l8 -16q10 -17 15 -60t22 -61q-5 -8 -7.5 -16.5t-2.5 -16.5v-14l-4 -6q-14 -15 -53 -21q-17 -3 -27 -6q-10 0 -41 3q-18 1 -29 1q-2 0 -10 -1t-14 -1l-21 15v-8q-7 4 -11 9t-5 11h-4l6 23l-10 10l-4 8l2 12l12 8l-14 9q-7 17 -21.5 27.5t-38.5 15.5q-18 6 -35.5 9t-33.5 3 q-38 0 -61 -12t-42 -41l-6 -6l1 -5.5t1 -11.5l-18 -4l2 -4q10 -68 101 -86q62 -12 95 -31l4 2q10 5 14.5 6.5t8.5 1.5q11 0 23 -3.5t25 -10.5h7q46 0 93 -34t83 -92q19 -8 29 -42q5 -16 8 -24q2 -12 6.5 -31.5t4.5 -26.5v-8q0 -18 -3.5 -29.5t-9.5 -15.5q4 -9 6 -19t2 -28 q0 -13 -6.5 -32t-19.5 -46q-8 -34 -29 -60.5t-57 -47.5l-12 -13h-15q-3 -6 -8.5 -11.5t-13.5 -10.5q-16 -15 -34.5 -22t-39.5 -7h-12q-8 -5 -24 -10h-3q-30 -6 -67 -9t-78 -3q-38 0 -82 7.5t-92 22.5q-47 33 -64 48.5t-18 22.5z" />
<glyph unicode="t" horiz-adv-x="834" d="M721 410q4 0 13 2t11 2q1 0 4 -1q24 -4 39 -9q27 -4 39.5 -16.5t12.5 -37.5q0 -16 -8.5 -57.5t-8.5 -65.5v-12q0 -19 -13 -65.5t-30 -81.5q-8 -16 -42 -38q-25 -16 -38 -26h-4q-14 0 -58.5 -10t-74.5 -14l-19 2q-30 3 -59 4.5t-55 1.5l-20 6q-5 -1 -11.5 -1.5t-17.5 -0.5 l-15 2q-23 3 -42.5 15.5t-33.5 33.5q-30 3 -50.5 27.5t-28.5 68.5q-19 45 -28 107t-9 147q0 4 1 24q7 125 7 257v55q0 22 -6 30.5t-20 8.5h-6h-5q-40 -4 -61 -4q-42 0 -64 15.5t-22 45.5q0 1 -1 12t-1 21q0 60 10.5 79t40.5 19l7 1q3 0 8 0.5t14 0.5l19 -3q9 7 29.5 12.5 t25.5 15.5q9 6 13.5 18.5t4.5 36.5l12 4l-2 5q-1 18 -1.5 34t-0.5 31q-5 9 -7.5 16t-2.5 13q0 4 1 11.5t1 10.5v19q0 56 65.5 96.5t135.5 40.5q18 0 35 -6.5t34 -20.5q-3 -90 -7.5 -187t-4.5 -106q0 -17 7.5 -26t28.5 -14l17 -5q26 10 58 14.5t75 4.5h29q8 -6 12.5 -8 t8.5 -2q9 0 13 0.5t9 3.5q7 4 12.5 6t10.5 2t13.5 -1t11.5 -1q7 1 14.5 1.5t17.5 0.5q26 0 39 -17t16 -56q0 -32 0.5 -45.5t1.5 -24.5v-11q0 -18 -9 -29.5t-28 -17.5h-9q-64 2 -136 2h-188q-16 0 -24.5 -13.5t-8.5 -39.5v-66q0 -40 1.5 -78.5t4.5 -74.5h-14l8 -8 q0 -15 0.5 -21t1.5 -10l-2 -14l2 -21q0 -8 -3 -17.5t-7 -16.5q1 -9 1.5 -17.5t0.5 -28.5q0 -15 3 -42q1 -3 1 -5q3 -6 9 -24t15 -25v-25q17 -27 40 -41t50 -14q17 0 33.5 5t34.5 16q17 6 27.5 25t15.5 51q2 15 4 43q9 100 55 100q2 0 10 -2t11 -2z" />
<glyph unicode="u" horiz-adv-x="1008" d="M358 328v-9q0 -14 23 -54q17 -29 27 -48q9 -2 16.5 -6t13.5 -10l35 -11l21 -4q102 14 139 69.5t37 223.5v64q0 49 2.5 79.5t7.5 53.5q-10 80 -16.5 152t-6.5 98q0 22 18 33.5t58 15.5q6 -1 13 -1.5t18 -0.5q15 0 38.5 2t33.5 2q25 0 47.5 -7.5t44.5 -23.5 q-4 -60 -6 -119.5t-2 -119.5v-41q0 -80 -5.5 -186t-5.5 -132q0 -22 0.5 -31t1.5 -15v-34q0 -95 35 -187q8 -22 8 -28q0 -28 -36.5 -43.5t-104.5 -15.5h-12h-23l-6 8q-5 -5 -8 -7t-6 -3q-18 8 -30 21.5t-28 43.5l-6 12q-9 -12 -23 -21t-34 -17q-10 -10 -22 -15.5t-25 -5.5 q-8 -6 -21 -16q-23 -6 -44.5 -9t-43.5 -3q-26 0 -78 6q-8 1 -12 2h-22q-50 0 -85 13.5t-69 45.5l-9 9q-15 9 -25.5 19.5t-18.5 24.5q-1 4 -4 8.5t-13 14.5q-22 132 -34.5 252t-12.5 190q0 17 1 42.5t1 33.5v84q0 20 -1.5 40.5t-4.5 41.5v70q0 4 -1 16.5t-1 19.5 q0 24 12 38.5t36 19.5l10 2q10 0 19 -2t17 -6q12 7 26.5 10.5t31.5 3.5q10 0 36.5 -3t43.5 -3q9 -8 16.5 -15.5t13.5 -15.5v-24l-4 -11l-2 -18v-17q0 -13 -2 -45.5t-2 -51.5q3 -8 4.5 -14.5t1.5 -12.5q0 -3 -2.5 -17.5t-3.5 -25.5l4 -17q-3 -40 -4.5 -74t-1.5 -61 q0 -37 2 -68.5t6 -60.5l-2 -18q0 -14 1 -28.5t3 -30.5q4 -8 5 -12t1 -9z" />
<glyph unicode="v" horiz-adv-x="901" d="M749 983q3 -6 10.5 -11.5t22.5 -10.5q71 -20 89 -34t18 -40q0 -40 -68 -153l-10 -17q-68 -183 -91.5 -258.5t-33.5 -130.5q-9 -5 -16.5 -13t-12.5 -19q-3 -40 -15.5 -67t-35.5 -45v-14q0 -49 -14 -87t-37 -54q-4 -9 -13.5 -15.5t-33.5 -13.5q-6 0 -12 1.5t-11 4.5 q-8 -4 -15 -6t-13 -2h-6l-9 6q-10 -3 -24 -4.5t-31 -1.5h-27q-16 0 -27.5 7.5t-19.5 23.5q-4 8 -11 23q-19 38 -33 50q0 7 1.5 15.5t3.5 24.5q-13 22 -28.5 56t-21.5 39v7q3 17 3 23q-7 23 -28 71.5t-21 75.5v8q-20 28 -52.5 147.5t-78.5 196.5q-17 39 -25 67.5t-8 51.5 q0 44 69 63q68 19 118 43l11 2q24 -1 39.5 -26.5t25.5 -80.5q4 -7 7 -16.5t5 -22.5q11 -32 16.5 -59.5t5.5 -52.5v-10q6 -6 9 -9.5t6 -7.5q1 -16 23 -95.5t36 -137.5l21 -24v-7q0 -5 2 -14.5t6 -19.5q8 -17 12 -37t4 -47v-17l4 -14h4q5 3 8 8t5 13l2 16l2 8q28 121 78 259.5 t55 164.5q3 20 10.5 37t19.5 33q10 85 26 122t42 37h6l10 2v2q5 0 18 -4t29 -10z" />
<glyph unicode="w" horiz-adv-x="1313" d="M985 637l-2 4l6 21q7 27 19 76q34 143 34 173v7q0 20 4.5 37t12.5 30q15 7 33 10.5t36 3.5q22 0 42 -4t40 -12q2 0 4 1q12 3 21 3q24 0 44.5 -12.5t24.5 -29.5q-2 -27 -15.5 -58t-14.5 -35l-6 -21q-2 -10 -6.5 -23t-14.5 -38l-8 -18q0 -4 2 -8.5t6 -10.5 q-19 -12 -60 -186q-10 -42 -16 -66q-11 -23 -22 -51t-21 -61v-4q0 -8 -2 -20t-2 -15v-8q-24 -41 -34 -97t-19 -71q-13 -23 -17.5 -56.5t-9.5 -46.5l-6 -18q-6 -17 -15.5 -24t-27.5 -7h-24l-6 -2l-21 6l-4 -4h-16l-14 2q-3 -1 -10 -3t-15 -3h-49q-34 12 -53.5 33.5 t-24.5 51.5l-2 13l4 8l-15 9v4q-10 8 -24 46q-8 21 -12 31q-5 15 -7.5 23.5t-5.5 18.5q-2 8 -6 22q-13 45 -14 57q-6 12 -8 20t-2 17q-2 10 -4 25q-12 78 -29 82l-12 -6v-17l-9 -14q-6 -37 -18 -66t-30 -50l-4.5 -27l-2.5 -15q1 -3 2 -9t2 -9q-9 -13 -13.5 -25t-4.5 -24 l-12 -12q1 -7 1 -12v-15q-11 -6 -25.5 -47t-27.5 -68l-6 -8q-16 -18 -35 -26.5t-43 -8.5q-12 0 -35 3q-4 1 -6 1q-7 -2 -18 -3t-23 -1h-4q-2 0 -12.5 1.5l-31.5 4.5q-16 5 -24.5 16.5t-11.5 31.5q-29 140 -47 214t-30 107l4 12q-3 10 -5.5 21t-2.5 13q-4 12 -5.5 26t-1.5 31 q-5 14 -7.5 24.5t-2.5 19.5v8v21q-16 24 -25 44.5t-12 39.5l10 29l-14 -2q-9 20 -15 41t-10 43q-11 15 -28 62t-33 110q6 22 19 33.5t34 15.5l13 -2q11 8 27 14.5t34 9.5l-2 -6q17 11 32.5 18t27.5 9l20 2h6q22 0 37.5 -11t17.5 -28q4 -28 8 -43.5t8 -23.5q1 -9 0 -16.5 t-3 -13.5q4 -5 6 -13t2 -19l8 -15q10 -71 25 -139t34 -133l-14 -18l16 2q6 -12 12 -94q1 -6 1 -9l6 -16q2 -13 4.5 -25.5t5.5 -25.5l2 -10q2 3 4 7q8 16 13 21q0 19 7.5 42.5t24.5 55.5q5 18 7 26.5t4 17.5q26 45 44 89.5t27 90.5l4 10l11 18v21q12 13 18 30t6 35 q8 25 28.5 35.5t78.5 13.5l14 -8l-2 4q5 0 15.5 1t15.5 1q15 0 25.5 -7.5t15.5 -21.5q9 -17 13.5 -36.5t4.5 -42.5q3 -7 7.5 -12t10.5 -8q1 -2 1 -4q24 -91 24 -119v-7q6 -7 8.5 -12t4.5 -11q2 -5 3.5 -12.5t1.5 -17.5v-10l3 -11q4 -14 9.5 -37t8.5 -28q11 -11 18 -29.5 t11 -48.5q6 -6 10 -18.5t8 -40.5q2 -4 4.5 -8.5t7.5 -11.5q7 4 10 10.5t3 23.5v17q5 10 7.5 19t2.5 15q4 26 6 44.5t2 27.5v8q1 5 4 9t8 8q4 15 9 39q14 62 14 77v13z" />
<glyph unicode="x" horiz-adv-x="967" d="M731 330q8 -6 18.5 -12t32.5 -19l1 -21q7 -4 13.5 -10.5t10.5 -15.5l18 -12q6 -13 13 -26t17 -28l22 -10q4 -24 18 -43.5t41 -38.5q4 -6 8.5 -14t11.5 -22l2 -13v-4q0 -23 -59 -38t-170 -19q-37 18 -63.5 48t-47.5 74q-11 16 -31 43.5t-28 36.5l-10 15q-14 23 -26 30 l-1 23q-7 10 -24 34t-27 36l-8 -11l-43 -51q-2 -14 -7 -25t-14 -20q-6 -9 -18 -23q-29 -33 -29 -55q-8 -5 -14.5 -12t-13.5 -18q-19 -24 -42 -65q-33 -58 -63 -58h-2l-19 2q-14 1 -47 3q-94 6 -147 23q-1 5 -2.5 14t-1.5 11q0 15 6 26t19 22v15q39 30 71 66t58 78l22 24 q1 3 4 7t10 12l5 14q23 32 58.5 74.5t80.5 91.5l4 10l2 4v6q-10 6 -15.5 15.5t-5.5 22.5q-5 8 -13 15.5t-19 14.5q-21 24 -71.5 97.5t-88.5 117.5q-15 23 -26.5 43.5t-18.5 36.5q-17 14 -25 25t-8 22q0 20 45.5 44.5t139.5 56.5q4 3 11.5 5.5t16.5 2.5q31 0 49.5 -57 t46.5 -85q2 -3 7 -14t8 -21q1 -1 3 -4q25 -37 26 -43q2 -3 11.5 -20t20.5 -29v-16q2 -3 11.5 -13t43.5 -44q12 14 17.5 29.5t5.5 33.5h4q6 0 11 3.5t8 9.5q6 13 17 36q19 39 19 51l1 5q13 9 21.5 17t14.5 17q48 87 71 113t49 31h5q26 0 69.5 -18t96.5 -50q4 -5 8 -12t6 -14 q-3 -13 -9 -21.5t-15 -13.5l-8 -20l-10 -14q-68 -98 -95 -147l-14 -18l-6 -8q-15 -19 -43 -54q-66 -82 -82 -120q-8 -3 -11 -4.5t-4 -1.5l2 -5v-6q13 -10 26.5 -24t26.5 -28l13 -15l2 -4h-4l20 -18q4 -10 9 -17t12 -13z" />
<glyph unicode="y" horiz-adv-x="901" d="M522 481q18 66 41 146t25 92q1 1 6.5 6t7.5 8v12q0 30 6.5 58t20.5 55l6 25l4 12q10 53 26 78t42 28l10 -2q51 -25 122 -45q66 -18 66 -51q0 -5 -0.5 -10t-3.5 -18q-43 -96 -79.5 -199.5t-68.5 -217.5q-3 -5 -9.5 -13.5t-10.5 -14.5q0 -21 -12 -49t-37 -64v-28 q-13 -20 -24 -52t-15 -41q-1 -9 -5.5 -20t-12.5 -24q-7 -6 -13 -20t-14 -40v-22q0 -40 -63 -229q-37 -109 -58 -175q-3 -18 -10.5 -35t-19.5 -34q-8 -80 -24.5 -118t-43.5 -40q-13 0 -32 3.5t-25 4.5q-6 8 -13.5 13.5t-18.5 9.5q-70 19 -88 33t-18 40q0 39 52 127 q17 29 26 45q4 15 40 110t65 179l2 14q-7 15 -17.5 22t-27.5 9l-15 2h-6q-5 0 -11 2.5t-13 7.5q-21 11 -35.5 51t-14.5 93q0 9 1 15.5t1 11.5q-13 12 -18.5 29.5t-5.5 45.5v41q-4 11 -8.5 18t-12.5 13q-16 62 -57.5 175.5t-56.5 166.5q-32 39 -48 78.5t-16 79.5q0 31 13 49 t38 24q16 3 37 10t27 7q12 4 20.5 9.5t14.5 12.5q5 1 21.5 6.5t28.5 7.5l15 -6q27 -40 43 -80t21 -77q-2 8 -3 15t-1 13l13 -42q63 -206 136 -418q4 -32 9 -46.5t14 -17.5q5 3 10 9t10 16v4q0 15 12.5 43.5t14.5 42.5z" />
<glyph unicode="z" horiz-adv-x="752" d="M610 195h6q31 4 43 4h37q13 -3 18 -4t8 -2q11 -9 16 -21.5t5 -30.5v-5q-2 -16 -2 -32q-7 -16 -11 -48t-7 -46q-14 -9 -28 -13.5t-29 -4.5q-12 0 -34.5 2t-33.5 2h-6q-11 -3 -16.5 -3.5t-12.5 -0.5q-17 5 -33.5 7.5t-31.5 2.5h-37q-7 0 -16.5 1t-26.5 3l-19 -4l-20 2h-4 l-19 6l-18 -2q-35 -4 -76 -6t-94 -2h-12q-5 0 -28 1t-42 1h-20q-9 0 -16 3t-13 9q-7 14 -9.5 31.5t-2.5 52.5v7q2 25 2 47v12q9 6 13.5 14t4.5 17v14q25 6 38.5 22.5t16.5 44.5h15l16 15l-4 14q15 8 25 16t18 19l8 16l6 -4l-2 15l10 9q2 6 5 11t8 10l6 17q34 40 68 86.5 t67 99.5v4l12 19l2 6l2 4v6l25 20l-4 3l4 4q13 26 21 46t8 27v4q12 11 18 22t6 23v5h-4l-16 -9q-10 0 -19.5 1.5t-22.5 4.5l-17 -3q-5 0 -11 0.5t-16 0.5l-4 -4q-6 0 -26 1t-34 1t-29 -2t-39 -8h-42q-12 -7 -24 -11.5t-21 -4.5q-13 0 -25.5 7t-25.5 21q0 6 1 14t1 23v25 q0 29 6.5 59.5t19.5 59.5h14l9 12h39q5 0 21 2q8 2 11 2q5 -6 36 -10q11 -1 18 -2l13 -2q14 1 30.5 3.5t19.5 2.5q7 0 15 -2t16 -6l4 2q3 1 11 2.5t16 1.5l8 -6q23 6 45 9t43 3q3 0 53.5 -3t97.5 -3h33q8 2 17.5 3t29.5 1h10q16 0 28.5 -45.5t12.5 -110.5q0 -11 -0.5 -18 t-1.5 -13q-10 -19 -22.5 -35t-28.5 -30q-3 -6 -6 -10.5t-6 -7.5l-4 -4l-74 -142h-14q-6 -7 -12 -12t-14 -10q-3 -7 -7 -14t-8 -11q-1 -5 -3 -10.5t-7 -15.5l-1 -19q-5 -1 -10 -4t-14 -12l-4 -9q-4 -6 -9 -12t-12 -12q0 -4 1.5 -9t4.5 -14q-19 -8 -33 -27t-26 -55l-20 -12 l-4 -12l-9 -27q-13 -13 -24.5 -29.5t-22.5 -37.5l-4 -4h17q15 0 29 -3.5t26 -9.5q18 6 47.5 9.5t69.5 3.5h73z" />
<glyph unicode="{" horiz-adv-x="700" d="M256 1300l-6 7q6 14 13 23t16 16q10 31 23 44.5t34 16.5l16 -2q16 11 34.5 16.5t39.5 5.5l9 -3q6 2 19 8q55 22 87 22q1 0 27 -6t48 -8q19 -11 27 -23.5t8 -30.5q0 -2 -1.5 -11l-2.5 -15l-2 -4l-2 -8q-8 -29 -19.5 -42.5t-27.5 -13.5h-39q-31 0 -54.5 -9t-43.5 -30h-4 q-48 0 -74.5 -76.5t-26.5 -215.5v-68q0 -62 -20 -112.5t-60 -90.5q41 -21 60.5 -55.5t19.5 -81.5q0 -6 -1.5 -25.5t-4.5 -56.5l-6 -14q0 -4 1.5 -9.5t6.5 -15.5l6 -31q-4 -16 -6 -41.5t-2 -62.5q0 -73 24.5 -128t67.5 -79q25 -24 52 -37t58 -16l19 4h15q32 0 46.5 -13 t14.5 -42q0 -59 -24.5 -81t-83.5 -22q-14 0 -40 6.5t-65 18.5q-134 23 -205 129t-71 282v28q2 14 3 22t1 14q0 2 -1.5 25t-2.5 44q-2 7 -3 15t-1 18q0 15 6 44t6 42q0 5 -3 16q-1 4 -1 5q-37 20 -97.5 31.5t-60.5 44.5v22q0 47 5.5 61.5t21.5 20.5q24 9 77.5 11.5t57.5 29.5 q-6 29 -8 45.5t-2 30.5q0 3 2 29t2 49v26q0 6 5 20.5t7 22.5q-3 11 -4.5 23t-1.5 37q0 13 5 32t13 39q2 7 5.5 11.5t9.5 7.5v6q0 20 11 46.5t34 59.5z" />
<glyph unicode="|" horiz-adv-x="1829" d="M1739 606v-22q0 -11 1 -54.5t1 -76.5v-295q0 -32 1 -50t3 -34v-66l-2 -18q0 -6 1 -19t1 -20q0 -30 -12 -47t-36 -21l-14 -2q-5 0 -13 1.5t-22 4.5q-11 -7 -26 -10.5t-35 -3.5q-4 0 -28.5 3.5t-44.5 4.5q-8 8 -16 17.5t-15 19.5v23l4 10v8l4 14q0 6 -1 19t-1 20 q0 13 3 47.5t3 54.5q-3 5 -4.5 14t-1.5 22q0 11 3 42q1 6 1 9l-2 18v12q4 139 4 205q0 29 -1 55.5t-3 55.5l2 16q-2 13 -5 33q-5 37 -5 42q-2 6 -5 18q-10 41 -28 69q-2 12 -20 34q-6 8 -9 11q-9 2 -16.5 6t-13.5 10l-40 11q-6 3 -11.5 4.5t-10.5 1.5q-37 0 -81.5 -33 t-55.5 -76q-12 -18 -17.5 -42.5t-5.5 -71.5v-39q0 -16 1 -52.5t1 -56.5q0 -44 -2.5 -75.5t-7.5 -57.5q8 -21 12.5 -51.5t4.5 -69.5q-6 -8 -8.5 -12.5t-2.5 -7.5q0 -6 0.5 -9.5t1.5 -6.5q4 -4 6 -10t5 -19l-2 -23q1 -10 1.5 -18t0.5 -15q0 -28 -17 -41t-57 -16 q-13 1 -24.5 1.5t-24.5 0.5q-5 0 -22 -1t-29 -1q-30 0 -53 7t-41 21q2 82 3.5 141.5t2.5 98.5v39q0 57 5 169t5 167q0 14 -0.5 30.5t-1.5 35.5l2 16q-1 7 -2 21t-2 23q1 6 2 11.5t4 16.5q-2 28 -3 56t-1 54q0 39 2 51t5 16q-8 13 -11 150v29l-9 -2q-5 5 -12.5 7.5t-19.5 2.5 q-11 0 -26 -3.5t-34 -10.5q-5 5 -9.5 8.5t-8.5 5.5l-12 -2q-16 1 -39.5 3.5t-32.5 2.5q-3 0 -12 -1.5l-15 -2.5q-41 -10 -51 -24.5t-10 -49.5v-32q0 -14 -2 -46t-2 -51q0 -27 3 -45t9 -32q-9 -15 -12 -69v-13l4 -21h-8l14 -18q-4 -23 -6 -46t-2 -50q0 -20 -1.5 -38t-4.5 -35 q4 -8 6 -14.5t2 -13.5l-2 -31v-12q2 -4 4 -7.5t4 -7.5q-1 -29 -7.5 -93t-6.5 -99q0 -33 6 -66t18 -63q-5 -15 -7.5 -28t-2.5 -23q0 -18 12 -48.5t13 -45.5v-6q0 -16 -32 -24.5t-91 -8.5q-12 0 -21.5 2t-17.5 6q-11 -1 -40 -4.5t-46 -3.5q-30 0 -44 12t-18 41q8 22 15 58 t12 49q-4 13 -6 26.5t-2 36.5v6q2 17 2 31l14 14l-4 -2l4 23l-2 6q-3 5 -4.5 12t-1.5 17q0 4 4 18t4 25v8q-1 6 -1.5 11.5t-0.5 17.5l2 14q-4 23 -6 46t-2 46v75q-4 6 -6 11t-2 10v9l2 12q2 8 3.5 18t2.5 13l4 22q-3 6 -5.5 8.5t-4.5 3.5q0 12 3.5 26.5t10.5 33.5l-4 14 q0 8 1.5 15t4.5 14q-3 26 -10 160q-4 72 -6 115l2 16q-6 49 -52 62q-6 2 -10 3q-1 0 -5 1q-18 3 -27 3q-2 0 -22.5 -2.5t-41.5 -3.5l-12 2q-3 -1 -7 -4t-12 -10q-3 1 -11 4q-28 11 -48 16h-8q-6 0 -10 -3.5t-9 -12.5q-3 1 -6.5 1.5t-11.5 0.5q-2 0 -11 -1.5t-13 -2.5 q-7 -2 -14 -3t-13 -1t-13 2.5t-16 7.5q-9 9 -15 55q-2 17 -3 26q2 11 4.5 25.5t3.5 18.5q-3 12 -4.5 23t-1.5 22q0 9 7 21t22 26q66 -3 142 -8.5t87 -5.5q24 0 57 2t72 6l15 -2q33 3 49 4.5t22 1.5q10 0 17.5 -2t14.5 -6l1 -6l16 4q11 7 24.5 10.5t28.5 3.5q12 0 32.5 -2.5 t29.5 -3.5l10 2q55 -3 93 -4.5t56 -1.5h15l6 -21q33 12 58 18t50 9q-6 49 -8 69.5t-2 34.5q0 27 6.5 40.5t18.5 13.5h5q24 -3 38 -3.5t26 -0.5q17 0 65 4.5t80 5.5q2 -1 4 -3q24 -20 30 -28v-24l-5 -11l-4 -18l2 -23v-6q0 -4 -3 -32t-3 -51q3 -8 4.5 -14.5t1.5 -12.5 q0 -4 -1.5 -20.5t-2.5 -26.5l2 -14q-3 -58 -4.5 -111.5t-1.5 -102.5q0 -18 1 -56t1 -56q13 16 36 34q1 1 3 2q7 7 19 12.5t28 8.5q5 5 11 9t11 7q30 6 53 9.5t40 3.5q9 0 27.5 -2t40.5 -5h12q55 0 94 -14.5t70 -46.5q24 -12 55 -51q13 -17 20 -24q0 -7 11.5 -30t15.5 -42 l2 -9l2 -14v-8q1 -3 2.5 -8t3.5 -14l1 -20q9 -10 13.5 -25t4.5 -36v-32z" />
<glyph unicode="}" horiz-adv-x="700" d="M385 721q-42 47 -62 93.5t-20 98.5q0 12 0.5 17.5t1.5 12.5q-9 195 -25.5 258t-52.5 63h-6q-24 19 -48.5 27.5t-55.5 8.5h-54q-16 0 -27.5 13.5t-19.5 42.5l-2 8l-2 4q-2 7 -3 13.5t-1 19.5q0 11 9.5 23.5t25.5 21.5q3 0 10 1q50 7 74 7q19 0 37.5 -3.5t37.5 -10.5l17 -2 l6 2l6 6q18 0 38 -5t42 -16h4q50 0 93 -66q16 -25 26 -36q5 -11 15 -30q24 -51 24 -72v-4l-2 -23q0 -1 1 -2t1 -2q-2 0 -4 -2q1 -3 4 -7t4 -7q10 -23 14.5 -42.5t4.5 -37.5q0 -12 -2 -25t-4 -24q1 -10 6.5 -25t5.5 -21l-2 -26v-8q0 -8 2 -31t2 -39q0 -10 -2 -24t-6 -29 q0 -19 57 -24l27 -3q51 -6 65 -21t14 -73q0 -59 -67 -68q-59 -8 -92 -28q-3 -14 -3.5 -20t-0.5 -13q0 -19 6 -52.5t6 -47.5q0 -4 -2 -18q-2 -9 -2 -13q0 -12 -2 -38t-2 -40q0 -7 1 -13.5t3 -15.5v-30q0 -91 -14.5 -157t-43.5 -101q-30 -71 -80 -111t-118 -49q-25 -9 -54 -13 t-65 -4q-17 0 -34.5 3.5t-37.5 11.5q-24 11 -32.5 22t-10.5 41l-2 23v4q0 26 18.5 40.5t51.5 14.5h8q10 -4 21 -6t24 -2q21 0 41 7.5t39 23.5q45 27 69.5 89.5t24.5 149.5q0 28 -2 52t-6 47q2 16 8 31.5l6 15.5l2 8l-6 14q0 7 -1 23q-3 61 -3 86q0 40 14.5 70t45.5 55z" />
<glyph unicode="~" horiz-adv-x="1706" d="M1530 784v-184q-103 -71 -197.5 -106t-183.5 -35q-44 0 -92.5 8.5t-98.5 26.5q-25 8 -76 26q-212 74 -319 74q-82 0 -174 -38t-211 -122v187q106 72 202 107.5t185 35.5q62 0 125.5 -12t168.5 -48q13 -4 42 -15q164 -58 250 -58q85 0 177 37t202 116z" />
<glyph unicode="&#xa1;" horiz-adv-x="551" d="M158 1231l-8 14q-2 1 -2.5 4t-0.5 8v21v14l25 27h-12l4 4l2 4q14 18 29.5 30.5t33.5 20.5q11 3 21 4.5t20 1.5q14 0 49 -6t52 -8q33 -29 48 -57t15 -62v-6q-10 -23 -20 -65q-18 -73 -60 -84h-14q-8 -10 -22 -17t-31 -10q-12 10 -57 28q-29 12 -46 20q-7 14 -11 24t-5 16 l-6 28q-2 7 -7 19q-2 5 -3 9zM123 242v10q0 9 1.5 19t6.5 30l2 14q1 6 6 23q25 83 25 160v20l-4 14q-2 6 -3 13.5t-1 21.5q0 11 3 23.5t9 28.5q-1 5 -1.5 13t-0.5 21q0 12 1 26.5t1 16.5t-1 7.5t-1 7.5l10 20l-12 29l16 22q-2 15 -3 23t-1 14q0 17 4 48t4 46q0 8 -1 16 t-3 19q18 21 81 43q28 10 44 17q36 -4 52 -22.5t16 -55.5q0 -4 -3 -25t-3 -39q0 -23 3 -68t13 -144q-2 -7 -3 -14.5t-1 -23.5q0 -8 1 -22.5t1 -20.5v-45q0 -37 -2.5 -58t-7.5 -31v-13q0 -1 1 -6q3 -15 3 -29q0 -1 -1 -6.5t-1 -9.5q0 -9 2 -28.5t2 -28.5q-3 -10 -4.5 -23.5 t-1.5 -15.5q3 -40 5.5 -86.5t4.5 -136.5q-19 -32 -40 -48t-42 -16q-7 0 -20.5 5t-20.5 5q-4 0 -9.5 -1t-10.5 -3l-15 -2q-64 3 -87 31t-23 112q0 26 2.5 51t7.5 52z" />
<glyph unicode="&#xa2;" horiz-adv-x="817" d="M510 1110q29 -2 58 -7t59 -13q61 -34 89.5 -76t28.5 -100q4 -27 8.5 -50.5t10.5 -44.5q-4 -6 -6 -14t-2 -17v-14q0 -9 -1 -15t-4 -12q-9 -9 -26.5 -15t-44.5 -9h-84q-11 0 -18 7t-11 24q-1 7 -2.5 16.5l-1.5 9.5q0 12 -2.5 34t-7.5 50l-12 10q0 19 -9.5 32.5t-27.5 21.5 q1 -2 2 -13q1 -8 2 -14l-2 -19q1 -10 1.5 -19t0.5 -19l-1.5 -9t-2.5 -17q2 -10 3 -26.5t1 -35.5q0 -14 -1.5 -49t-4.5 -93l2 -20q-1 -7 -1.5 -13.5t-0.5 -13.5v-8q0 -5 1.5 -10.5t4.5 -12.5q-1 -36 -2.5 -77t-1.5 -45q8 3 21 8t16 6q3 5 8.5 7.5t17.5 4.5l13 13 q20 20 39.5 29.5t41.5 11.5l19 -2q17 -7 29 -19t20 -31l4 -2q10 -10 15.5 -19t5.5 -18q0 -20 -31 -60t-72 -62q-23 -21 -55 -32.5t-75 -14.5l-19 2v-31q0 -34 3 -82t3 -64v-18q0 -17 -6.5 -27t-22.5 -18q-16 -1 -34 -1.5t-46 -0.5q-23 0 -34.5 7.5t-18.5 27.5q1 17 4 87.5 t8 116.5v5q-68 10 -115.5 33.5t-74.5 60.5q-8 8 -11 11.5t-5 6.5l6 4l-22 16q-4 17 -13.5 27t-26.5 15q-28 92 -37.5 141t-9.5 88q0 20 1.5 41t4.5 42l15 13l-11 1q-3 6 -4.5 13t-1.5 19t9.5 35t27.5 57v26q13 18 24.5 35t22.5 33v15q28 31 41.5 48.5t18.5 27.5q42 29 77 44 t64 15h16h2l15 2q-3 2 -3.5 5t-0.5 11l4 15l-2 18q-7 23 -10 49t-3 56q0 22 0.5 33.5t1.5 20.5l-2 13q0 3 1.5 7.5t5.5 11.5q9 7 23 10.5t36 3.5h55l20 -2q13 -4 18 -12.5t5 -32.5q0 -3 -1.5 -22.5t-2.5 -36.5l-2 -7q0 -4 -3 -19q-1 -4 -1 -5v-9q2 -24 2 -45q0 -12 -0.5 -22 t-1.5 -21v-18zM365 436v109q0 6 -1 15.5l-3 28.5q3 42 4.5 71t1.5 49q0 7 -0.5 17t-1.5 22l-3 28q0 12 1.5 23.5t3.5 23.5q-1 2 -1 7q-3 58 -4 85v7l-13 -10q-3 -6 -6 -10.5t-7 -8.5l-4 -4q-26 -30 -43 -86t-17 -117q0 -10 1 -38.5t1 -47.5q8 -60 27 -99.5t51 -62.5z" />
<glyph unicode="&#xa3;" horiz-adv-x="1141" d="M668 227q28 -20 57 -30.5t61 -12.5l23 4q49 8 65 169v9q4 33 18.5 50.5t37.5 17.5q2 0 12 -1.5t18 -2.5l7 2l20 2q10 0 29.5 -2.5t42.5 -7.5q5 2 14.5 7.5t11.5 6.5q6 -23 8.5 -47t2.5 -53q0 -11 -2 -35t-2 -37q0 -4 -0.5 -10.5t-1.5 -13.5q0 -6 1 -14t1 -10 q-8 -10 -15 -33t-16 -72q-11 -30 -33 -56t-59 -55q-13 -2 -50.5 -15.5t-64.5 -17.5l-20 2q-2 0 -7 -1q-47 -7 -69 -7q-4 0 -10.5 1t-17.5 3h-9q-86 0 -247 102q-35 22 -55 34q-29 25 -57 40t-47 15q-27 0 -60 -39t-83 -131q-5 -1 -11 -2.5t-15 -3.5q-19 1 -34.5 10.5 t-29.5 27.5l-5 1q-5 1 -10.5 3t-15.5 7q-4 6 -18 14t-19 21q-3 9 -16.5 20.5t-13.5 22.5l4 14l6 8q0 5 1 11t3 17q14 5 28 22l1 1l6 8q8 13 18 22.5t24 18.5q19 22 52 60q69 80 88 115q3 33 4.5 59.5t1.5 46.5q0 18 -0.5 25t-1.5 12q-11 8 -22 12t-23 4h-16q-6 0 -12 1.5 t-14 4.5l-5 -2q-8 -2 -15.5 -3t-13.5 -1l-14 4h-10q-15 0 -24.5 7t-14.5 22q-3 18 -4.5 36.5t-1.5 37.5q0 13 0.5 25t1.5 24q3 23 16.5 33t44.5 10h37q9 0 19.5 0.5t33.5 3.5l15 -2q8 3 12 10.5t4 28.5v29q0 34 2 55t6 41l-2 -4q-4 30 -6 60.5t-2 62.5q0 51 9 93.5t28 80.5 q5 31 27.5 53.5t62.5 34.5q17 28 40.5 41.5t53.5 13.5h23q31 10 66 15t75 5q31 0 48 -1.5t32 -6.5q7 1 14 1.5t17 0.5q59 0 121.5 -29t91.5 -71q26 -30 38.5 -87t12.5 -157q0 -39 -8 -67.5t-23 -44.5q-5 -2 -17.5 -5t-18.5 -5q-7 -4 -13 -5.5t-19 -1.5q-6 0 -13.5 1.5 t-13.5 2.5q-6 -1 -12.5 -1.5t-19.5 -0.5q-28 0 -46 13.5t-30 44.5q0 10 1 36t1 41q0 57 -18 87.5t-56 40.5q-8 11 -19 16.5t-40 5.5h-12q-55 0 -86.5 -28.5t-41.5 -86.5l-9 -4l6 -6q0 -2 -1 -7q-3 -45 -3 -65v-43v-14q4 -66 4 -129q0 -32 13 -43.5t61 -11.5h34q43 0 190 8 q86 5 136 8q18 -13 26.5 -30.5t8.5 -41.5q0 -7 -1 -21t-1 -22q0 -10 0.5 -15t1.5 -9q-4 -43 -17 -58.5t-45 -15.5q-8 0 -13.5 0.5t-12.5 1.5q-6 0 -17.5 -2t-17.5 -2q-10 0 -16.5 2.5t-10.5 7.5q-3 0 -8 1.5l-15 4.5l-11 -6q-68 0 -137 -3q-16 -1 -19 -1h-25q-17 0 -27 2 t-19 6q-13 0 -23 -1.5t-17 -4.5q-12 -2 -17 -9t-5 -21q0 -9 0.5 -14.5t1.5 -11.5v-7v-6q2 -21 2 -39q0 -1 -1 -7q-1 -24 -1 -47q0 -19 1.5 -33.5t4.5 -25.5q10 -6 40 -27.5t49 -28.5q7 -6 46 -26t66 -35z" />
<glyph unicode="&#xa4;" horiz-adv-x="598" d="M55 258q2 15 7.5 28.5t15.5 27.5l6 12q30 59 51 114.5t35 108.5v14q0 28 6.5 46.5t22.5 33.5q6 29 14.5 64.5t9.5 41.5q6 9 8.5 12t6.5 7q0 6 -3 24q-1 4 -2 7l21 18q0 26 20 77.5t21 82.5q25 18 92 24q27 2 43 5q27 -11 38 -26.5t11 -39.5q0 -6 -26.5 -107.5 t-36.5 -207.5q-11 -33 -29 -107t-35 -98q-2 -20 -14 -70t-17 -82q-5 -9 -9 -17.5t-7 -17.5q-5 -35 -15.5 -90t-27.5 -129q-20 -21 -40.5 -32t-41.5 -11q-14 0 -33.5 11.5t-33.5 11.5h-4h-15q-51 15 -68.5 35t-17.5 63q0 26 12 68.5t35 97.5zM342 1257l-4 -2l-2 11l2 4v4 q0 1 3 16t5 29l31 20h-4l-8 4l4 3l4 4q8 9 26.5 18t46.5 16q33 0 108 -31q19 -8 28 -12q18 -28 26 -53.5t8 -52.5q0 -3 -1.5 -13.5l-2.5 -17.5q-16 -21 -37 -59q-34 -64 -75 -64h-15q-11 -6 -22 -9t-25 -3h-10q-18 19 -59 49q-20 13 -29 21q-3 12 -4.5 23t-1.5 22v28 q0 9 -0.5 15t-1.5 14z" />
<glyph unicode="&#xa5;" horiz-adv-x="1161" d="M931 661q21 -2 29.5 -13t8.5 -36q0 -90 -10 -113.5t-46 -23.5q-7 0 -19.5 1t-16.5 1h-5q-2 0 -13 -1.5t-19 -2.5q-5 0 -11.5 2.5t-13.5 7.5l-20 6l-13 -6q-53 -2 -80 -2h5l-2 -8l-5 -24q0 -9 2.5 -17t6.5 -14l12 -8q19 -1 53 -2q73 -2 96 -2h27t10 1q17 -1 30 -21.5 t13 -47.5v-10l-2 -21l-2 -10q0 -6 2 -15.5t6 -18.5q-2 -19 -23.5 -29.5t-58.5 -10.5q-9 0 -14.5 0.5t-12.5 1.5q-5 -2 -14.5 -3t-21.5 -1l-5 8q-7 -3 -16 -4.5t-18 -1.5h-29q-8 0 -14.5 -0.5t-14.5 -1.5h-15q-4 -5 -5.5 -9.5t-1.5 -8.5v-4q-4 -14 -6 -29t-2 -33q0 -23 3 -49 t9 -55q-7 -15 -19 -24t-28 -11l-20 4l-15 -6q-11 0 -21 2.5t-20 7.5l-15 2q-19 -2 -45 -6t-34 -4q-17 0 -32.5 5t-30.5 15q-4 9 -5 16.5t-1 24.5q0 10 3.5 32.5t10.5 53.5q-2 7 -3 14.5t-1 24.5v41l-12 -4q-7 6 -15.5 9t-19.5 3q-4 0 -12 -1t-28 -5q-10 -4 -22.5 -6 t-38.5 -2q-65 0 -88.5 15t-23.5 61v33q0 42 12.5 57.5t48.5 15.5h17q8 -2 17.5 -3t29.5 -1q2 0 15 3q43 8 85 8h14l11 4v6q0 29 -6 44t-17 15h-6q-7 0 -35.5 2t-50.5 2q-8 0 -16.5 1.5t-17.5 4.5l-10 -2q-9 -2 -15 -3t-11 -1l-12 4h-4q-4 0 -14 -1t-17 -1t-12 3.5t-8 10.5 q-2 6 -3 19t-1 31q0 3 1 19.5t1 29.5v13q7 23 19.5 31.5t39.5 8.5h41q18 0 25.5 1t12.5 3q0 2 -1 6q-5 12 -6 20q-20 20 -30 40.5t-13 45.5l-11 15l-2 6h9l-21 21q0 15 -5 28t-15 23q-4 16 -6.5 29t-2.5 22v4q-5 6 -13 12t-25 19l-1 27q-10 9 -16 19.5t-8 22.5l-14 15 q-10 22 -17.5 41.5t-11.5 36.5l-14 14q-5 40 -40.5 94.5t-35.5 81.5q0 13 7 22t24 15q36 20 89.5 31t127.5 14l10 -12v4q17 0 26 -8t9 -25v-8l14 -26l-6 -19q3 -16 10.5 -27t19.5 -18q-2 -8 -2.5 -11t-1.5 -5q1 -3 5.5 -13.5l7.5 -17.5q1 -2 8.5 -8t11.5 -10q0 -13 4 -31.5 t4 -26.5l1 -9q1 -5 5.5 -9.5t11.5 -7.5q4 -8 9 -21q12 -34 23 -47v-25q20 -38 52.5 -120t59.5 -111v-6q0 -8 3 -15t7 -9l7 -23l5 7q7 -9 10 -15.5t3 -10.5v-4q8 -20 12 -29.5t8 -16.5q7 10 10.5 19.5t6.5 22.5q12 16 23 59t34 60q37 88 53.5 136t16.5 69v3l10.5 7t7.5 6l4 8 l2 6q2 21 21.5 61.5t19.5 63.5q8 8 16 17l3 4l8 8q19 69 47 111.5t68 64.5q64 0 112 -10.5t76 -30.5q3 -9 4.5 -17t1.5 -16q0 -15 -6 -27t-18 -22v-22q-43 -61 -76.5 -125.5t-56.5 -134.5l-13 -21q-12 -19 -46.5 -87t-76.5 -155q-4 -9 -7 -18t-5 -19l-4 -13q27 1 56.5 3.5 t61.5 5.5z" />
<glyph unicode="&#xa6;" d="M424 408h178v-758h-178v758zM424 1432h178v-758h-178v758z" />
<glyph unicode="&#xa7;" horiz-adv-x="930" d="M662 -168q-16 -11 -32 -15.5t-36 -4.5h-16q-11 -12 -59 -19.5t-120 -7.5q-52 0 -105.5 8.5t-111.5 26.5q-39 22 -61.5 40.5t-32.5 37.5l-6 4l-4 2q-9 7 -14 15t-5 15v5l-8 14q-13 20 -16.5 70t-13.5 78q5 9 7.5 16.5t2.5 13.5q0 1 -1 11t-1 20q2 12 3.5 19.5t2.5 13.5 q16 15 46.5 19t39.5 7h88l16 -14l1 6q20 -3 26 -122q2 -45 4 -73q14 -21 32 -32t40 -11h8q21 -8 41.5 -12t44.5 -4t46 4.5t44 13.5h4q47 0 77 39t30 105v12q-26 66 -125 102q-25 9 -39 15l-18 -4q-14 2 -21.5 6.5t-11.5 13.5q-4 4 -8.5 6t-8.5 2q-6 -2 -12.5 -3t-20.5 -1 q-13 0 -36.5 5.5t-63.5 17.5q-9 1 -18.5 5.5t-18.5 10.5l-6 6q-59 25 -94 56.5t-46 69.5q-5 4 -8 8.5t-4 9.5v6q-11 26 -16.5 60.5t-5.5 82.5v35q0 40 23 84t67 86l21 2l-5 2l-4 -4q-30 20 -46.5 42.5t-22.5 49.5q-5 5 -7.5 9.5t-3.5 9.5v6q-16 7 -24 18t-10 28q1 8 3.5 16 t6.5 16q0 20 -1 28.5t-3 13.5l2 -6q-2 9 -3 16.5t-1 14.5q0 11 2 19t6 14q0 37 22 79t68 91l33 2l-10 4q4 2 10 4t18 4q11 25 35 39.5t55 14.5h13q8 8 21 12t32 4l8 -8q24 11 52.5 16.5t64.5 5.5q47 0 101 -9t114 -28q29 -17 50.5 -34.5t37.5 -36.5q21 -15 29 -24t8 -15 q-2 -2 -2 -4l6 -19q11 -17 17 -67.5t26 -75.5q-7 -8 -10.5 -17.5t-3.5 -21.5q1 -6 1.5 -12t0.5 -17q0 -3 -3 -16q-1 -7 -1 -10q-19 -17 -60 -22q-18 -2 -29 -5q-25 0 -56 2h-9q-9 0 -16.5 -0.5t-13.5 -1.5l-17 12v-5q-26 8 -28 77q-1 37 -3 58l-2 14l2 20q-17 34 -65 55 t-107 21q-37 0 -68.5 -10.5t-54.5 -30.5q-3 -6 -7.5 -12t-10.5 -10l-2 -9v-11q-13 -4 -20 -11.5t-9 -19.5q4 -13 8 -38.5t13 -36.5q30 -35 119 -55t114 -45q9 7 14.5 9.5t12.5 2.5q13 -1 22.5 -5t16.5 -11q20 -2 44.5 -8.5t55.5 -18.5q87 -50 130.5 -116t43.5 -148 q0 -37 -7 -73t-22 -72q-8 -33 -25.5 -60.5t-43.5 -48.5q49 -44 73.5 -96.5t24.5 -114.5q0 -32 -7 -68.5t-22 -76.5q-6 -44 -48.5 -88t-112.5 -80zM623 602q-7 35 -40.5 60t-95.5 38q-27 10 -51.5 15.5t-44.5 5.5q-25 0 -46 -8.5t-37 -23.5q-4 -7 -8.5 -13t-10.5 -10l-2 -9 l-1 -10q-11 -4 -18.5 -12t-9.5 -18q5 -14 7 -36.5t7 -29.5q20 -39 106.5 -60.5t121.5 -37.5l19 -2q24 1 41 7t28 17q17 13 26 41.5t9 71.5v14z" />
<glyph unicode="&#xa8;" d="M795 1227q5 -7 7.5 -12t2.5 -6q-2 -13 -4 -21t-4 -12q-3 -23 -21 -42t-20 -24q-13 -3 -25 -4.5t-24 -1.5q-21 0 -42.5 5.5t-44.5 17.5q-16 21 -23 37.5t-7 31.5l2 18l4 11l-2 8q0 7 1.5 13.5t4.5 13.5q2 8 9.5 17t23.5 21l2 5q18 11 34.5 16.5t32.5 5.5q27 0 50.5 -13.5 t29.5 -30.5q3 -7 5 -13.5t4 -16.5l6 -10zM430 1227q6 -8 8 -12t2 -7q-1 -9 -4.5 -20.5t-3.5 -12.5q-3 -23 -20.5 -41t-20.5 -24q-12 -3 -25 -4.5t-26 -1.5q-21 0 -42 5.5t-44 16.5q-13 18 -20 35t-9 35l2 18l4 11l-2 8q0 16 9 32t29 34l4 4q16 10 33 16t32 6q25 0 50 -14 t32 -31q3 -3 5.5 -9.5t4.5 -19.5l4 -10z" />
<glyph unicode="&#xa9;" horiz-adv-x="721" d="M381 1462q121 0 207 -85.5t86 -207.5t-87 -207t-212 -85q-116 0 -201.5 88.5t-85.5 212.5q0 114 87 199t206 85zM381 1419q-103 0 -176.5 -73.5t-73.5 -176.5q0 -101 74.5 -175t175.5 -74q103 0 176.5 73t73.5 176q0 104 -73 177t-177 73zM516 1235h-69q-4 27 -21 42 t-43 15q-37 0 -56.5 -30.5t-19.5 -90.5q0 -56 20.5 -86t57.5 -30q28 0 45 17t19 46h69q-2 -59 -38.5 -92t-100.5 -33q-67 0 -107.5 49t-40.5 132q0 78 42 126t110 48q59 0 95 -30.5t38 -82.5z" />
<glyph unicode="&#xaa;" horiz-adv-x="918" d="M637 784q4 -11 9 -16t13 -6q17 1 24 9t7 28q0 21 9 62q2 11 3 17q8 19 19.5 29.5t23.5 10.5h5l24 -3l16 4q10 -1 17.5 -2.5l12.5 -2.5l9 1q14 -4 19.5 -13t5.5 -30q0 -12 -4 -46t-4 -56q-17 -62 -36 -93.5t-44 -41.5l-6 -6q-21 -21 -50.5 -32t-62.5 -11q-48 0 -82 9.5 t-57 29.5l-6 8q-6 6 -10 12.5t-7 13.5h-4q-47 -38 -87 -55.5t-79 -17.5h-6q-28 0 -67 13q-11 4 -15 5l-20 -2h-4q-12 0 -25.5 6t-25.5 17q-8 0 -13 2.5t-8 7.5q-1 2 -4 7q-7 12 -10 15l-13 13q-25 25 -39 67.5t-14 96.5q0 22 3 42.5t9 42.5q2 6 4 16q8 32 25 36q27 46 64 72 t75 26h5l14 2q9 2 16.5 3t16.5 1h16q20 16 65.5 24.5t51.5 43.5l4 18l-8 17l2 12q-2 3 -8 7.5t-12 6.5q-4 8 -11 11.5t-21 3.5q-12 0 -24 -3.5t-25 -9.5q-14 -5 -22 -17.5t-8 -29.5v-10q0 -5 -1.5 -7.5t-6.5 -4.5l4 -9v-4q0 -12 -26.5 -17t-96.5 -5q-20 0 -36 5.5t-31 16.5 q-4 6 -5.5 12t-1.5 19q0 17 5.5 45t16.5 72l7 10v4q0 7 5 14t15 13q6 16 30 32t34 25q23 10 60 15.5t85 5.5q81 0 139.5 -15.5t79.5 -42.5q10 -15 20.5 -30t20.5 -29q16 -31 24.5 -77.5t8.5 -104.5q0 -13 -1 -40.5t-1 -41.5q0 -12 1 -23t3 -18q-2 -17 -3 -35.5t-1 -50.5 q0 -24 1.5 -48.5t4.5 -50.5zM371 926l-13 4q-3 -2 -5.5 -6.5t-2.5 -9.5q-40 -4 -63 -20.5t-23 -41.5v-23q0 -19 6 -28t21 -13q0 -7 2.5 -11.5t8.5 -6.5h11q6 -4 12 -6t11 -2h4q21 0 44.5 15t31.5 35q2 23 3.5 53.5t2.5 37.5q0 13 -5.5 19t-17.5 6q-2 0 -11.5 -1t-16.5 -1z " />
<glyph unicode="&#xab;" horiz-adv-x="1032" d="M657 473q48 -47 83 -83.5t51 -53.5l16 -12q33 -50 71.5 -90.5t82.5 -71.5v-10q11 -10 16.5 -21.5t5.5 -26.5l-2 -20q-72 -16 -162 -22q-24 -1 -33 -3l-16 -2q-35 3 -69 58q-19 32 -33 49q-4 2 -14 11.5t-19 15.5q0 18 -31 50q-8 8 -12 13q-7 4 -10.5 10t-3.5 12v7l-7 16 q-8 2 -28 22t-43 51q-3 8 -4.5 11t-3.5 6l-11 12l-2 5q-44 35 -60 57t-16 45q0 19 7.5 33.5t24.5 28.5l46 40q17 22 36 40.5t40 35.5v16q11 8 18.5 19t10.5 22l10 2l4 -2l4 -8v8q0 12 6 26t16 27l7 -10l8 33q22 15 36 66t48 51q6 0 13 -2t13 -6q91 -26 138 -49t47 -41 q0 -10 -8.5 -21t-25.5 -22q-21 -42 -133 -169q-59 -68 -93 -108l-7 -9q-4 -5 -9.5 -10t-9.5 -7l-1 -7zM381 653q-19 -20 -52.5 -55t-80.5 -84l-6 -10v-6q7 -6 12 -11t6 -8l6 -8q5 -9 11 -15.5t15 -12.5q25 -29 68 -79q116 -133 132 -169q16 -11 24 -21.5t8 -21.5 q0 -9 -3.5 -15t-12.5 -12q-14 -30 -56.5 -46t-109.5 -18q-7 -3 -13.5 -4.5t-13.5 -1.5q-34 0 -47.5 49t-34.5 66l-8 33l-8 -10q-11 13 -16.5 26.5t-5.5 26.5v8l-5 -8l-4 -2l-8 2q-5 13 -12.5 23t-17.5 17l-1 17q-22 21 -40 39.5t-33 36.5l-49 41q-17 14 -24 29t-7 32 q0 24 17 47t61 56l2 4l8 12l8 16q29 36 45.5 53t26.5 21l8 17l-4 -2q0 10 4.5 18t14.5 13q5 6 16 17q26 28 26 46q13 10 19.5 15.5t11.5 10.5q14 18 35 50q34 55 67 57l16 -2q8 -1 34 -3q90 -5 163 -22l2 -18q0 -16 -6 -28t-18 -22v-10q-46 -34 -84 -74t-68 -85z" />
<glyph unicode="&#xac;" horiz-adv-x="598" d="M557 1098q-3 -15 -8.5 -28.5t-13.5 -26.5l-7 -13q-32 -65 -53 -119.5t-33 -103.5v-14q0 -26 -6.5 -45t-21.5 -35q-7 -29 -15.5 -64.5t-9.5 -42.5q-5 -7 -8 -11t-6 -7q0 -3 1.5 -13.5l2.5 -17.5l-21 -18q-1 -30 -21 -81t-20 -79q-23 -18 -90 -24q-30 -3 -45 -5 q-26 10 -38.5 25.5t-12.5 40.5q0 7 11 42q40 135 55 273q8 25 25 98t38 107q2 20 14.5 70t16.5 81q4 6 12 25q3 7 4 10q13 76 23.5 130t19.5 89q20 22 40.5 32.5t41.5 10.5q13 0 33.5 -11t34.5 -11h4h14q50 -17 68 -36.5t18 -53.5q0 -32 -12 -76.5t-35 -97.5zM270 98l4 2 v-18q0 -2 -3 -16.5t-5 -28.5l-30 -21h4l8 -4l-4 -2l-4 -4q-17 -13 -35.5 -21.5t-38.5 -13.5h-4q-27 0 -94 28q-24 10 -37 15q-19 27 -28 51t-9 48q0 9 1.5 18.5t4.5 20.5q15 20 35 57q36 66 78 67l14 -2q11 7 22.5 10t24.5 3h10q10 -14 66 -54q14 -10 22 -16q3 -15 4.5 -26 t2.5 -19v-39l2 -18z" />
<glyph unicode="&#xad;" horiz-adv-x="770" d="M383 463h-12q-9 0 -29.5 -1t-32.5 -1q-8 0 -14.5 0.5t-11.5 1.5q-10 -4 -33.5 -5.5t-33.5 -2.5l-17 10l-4 -2h-4q-22 -14 -44 -20.5t-49 -6.5q-12 0 -36 4h-4q-9 4 -16 33t-7 68q0 4 0.5 9t3.5 15q-1 5 -2 12q-6 52 -6 76q0 8 0.5 15t3.5 21q0 12 6.5 18t19.5 6 q8 0 22.5 -2.5t31.5 -5.5l8 -9q3 0 5.5 -0.5t10.5 -3.5l13 4q3 1 6 1q21 3 28 3q14 0 26.5 -3.5t25.5 -10.5q6 2 17 6t17 6l23 -2l16 6l41 -8q9 -1 18 -2.5t11 -1.5h4l14 8q27 -2 53 -3t58 -1q11 0 65 9q39 6 64 10q3 0 10.5 2t9.5 2q19 -5 27 -16.5t8 -32.5v-15 q0 -7 1 -26.5t1 -30.5q0 -10 -1.5 -19t-4.5 -18l6 -8l2 -10v-19q0 -30 -7.5 -50t-25.5 -36q-32 4 -52.5 9t-34.5 14l-21 -6l-22 2l-11 12v-4l-20 4l-31 4q-11 -3 -20 -4.5t-17 -1.5q-6 -2 -13 -3t-17 -1t-19 1q-3 1 -4 1z" />
<glyph unicode="&#xae;" horiz-adv-x="721" d="M381 1462q121 0 207 -85.5t86 -207.5t-87 -207t-212 -85q-116 0 -201.5 88.5t-85.5 212.5q0 114 87 199t206 85zM381 1419q-103 0 -176.5 -73.5t-73.5 -176.5q0 -101 74.5 -175t175.5 -74q103 0 176.5 73t73.5 176q0 104 -73 177t-177 73zM264 1327h113q69 0 102 -22.5 t33 -69.5q0 -30 -17.5 -51.5t-49.5 -30.5l69 -141h-76l-59 129h-47v-129h-68v315zM332 1278v-90h47q33 0 48 10t15 33q0 25 -15.5 36t-51.5 11h-43z" />
<glyph unicode="&#xaf;" d="M455 1151q-11 -2 -20 -3t-17 -1q-7 0 -24 1t-25 1q-12 0 -18 -0.5t-11 -1.5l-10 4h-4q-16 -8 -26 -11t-17 -3h-7l-22 2q-7 12 -10.5 36t-3.5 62v20q0 16 4.5 22.5t13.5 6.5q6 0 12.5 -1t13.5 -3l5 -4l10 -2q2 0 5 1q15 3 24 3q5 0 11 -2t13 -6l15 2h28q5 0 10.5 0.5 t18.5 3.5l12 -2h25l8 4q7 -1 29 -3.5t34 -2.5l11 2l18 -2l11 4q64 2 126 6l62 4q12 0 18 -13.5t6 -39.5q0 -5 -2 -24q-1 -5 -2 -9l4 -14v-6q0 -14 -4.5 -25t-14.5 -20q-21 1 -40.5 4t-36.5 8l-12 -4l-12 2l-7 4l-10 2l-10 -2q-11 3 -17 3.5t-14 0.5q-10 0 -48.5 -4t-65.5 -4 q-7 0 -25 2q-7 1 -12 2z" />
<glyph unicode="&#xb0;" horiz-adv-x="588" d="M447 1265q5 -17 7.5 -36.5t2.5 -40.5l-6 -8q-10 -49 -25.5 -77.5t-38.5 -41.5q-16 -15 -37 -23.5t-49 -11.5l-14 -2q-6 1 -11.5 1.5t-15.5 0.5l-10 -2q-29 2 -53.5 10t-49.5 23l-8 6l-2 10q-14 17 -25 25q-15 20 -21.5 42t-6.5 54q0 1 2.5 22t3.5 39l4 9l4 6 q15 33 24.5 48t21.5 22l9 11q11 8 20.5 12.5t18.5 6.5q18 7 39.5 10.5t47.5 3.5h4q57 0 104 -34t60 -85zM246 1108l8 -2q3 4 7.5 7.5t8.5 4.5l15 -2h4q7 0 14.5 4t15.5 12q9 6 14 17t9 31l2 20q-1 7 -1.5 14t-0.5 21q-12 32 -27 44.5t-39 12.5h-14q-32 0 -50.5 -23.5 t-18.5 -64.5q0 -3 1.5 -11.5t2.5 -12.5l2 -15v-8l12 -20l12 -7l15 -10z" />
<glyph unicode="&#xb1;" horiz-adv-x="1325" d="M717 -74q1 48 3 141q7 260 7 388q0 9 -4 30t-4 31q0 9 2 16.5t6 14.5q0 27 3 66t3 51q0 10 -1.5 24t-4.5 35q0 2 1 12t1 17l-6 16q-5 6 -40 10q-22 2 -36 4l-4 -2q-5 -1 -20 -2.5t-33 -1.5h-37q-6 0 -14 1t-19 3q-20 0 -40 -1t-44 -3q-10 0 -16 -2.5t-6 -7.5v-4 q0 -3 -1 -19q-3 -90 -3 -184q0 -43 2 -109t2 -90v-14q0 -2 -1 -9q-1 -28 -1 -54v-18q2 -55 2 -103q3 -5 5.5 -11t4.5 -16q-1 -7 -1.5 -13t-0.5 -11v-5q0 -11 1 -25t1 -18q0 -30 -17 -45t-55 -18q-12 1 -23 1.5t-24 0.5q-8 0 -22 -1t-21 -1q-34 0 -57 7.5t-41 25.5 q5 136 7.5 282t2.5 316q-1 6 -1.5 12t-0.5 14q0 19 4 36v3l2 11l4 4l-8 12q0 7 0.5 13.5t1.5 13.5l-6 16q-4 6 -31.5 8.5t-43.5 5.5l-5 -2q-5 -1 -10 -1.5t-17 -0.5l-14 2h-12q-24 0 -33.5 21.5t-9.5 79.5q0 9 1 26.5t1 26.5q3 22 17 31.5t44 9.5q5 0 16 -1t19 -1h4 q74 0 84 92q2 24 4 38q-1 28 -1.5 54t-0.5 68q0 26 4.5 52t14.5 55q3 42 20.5 79t50.5 70l35 16q8 3 43 16t60 23l-4 -4q28 7 64.5 10.5t94.5 3.5h33q5 1 11.5 1.5t13.5 0.5q15 0 47.5 -8.5t50.5 -9.5q32 -14 54 -27t38 -26l25 24q24 20 48.5 29.5t49.5 9.5h6l25 4l20 4 q11 4 17.5 5t13.5 1q5 0 15.5 -2t23.5 -6q3 1 8 1.5t18 0.5q16 0 54.5 -8.5t64.5 -9.5q84 -32 119 -101.5t35 -214.5q0 -40 -7.5 -62t-23.5 -30q-12 -2 -22.5 -5t-14.5 -5q-6 -3 -13 -4.5t-15 -1.5q-9 0 -25 3q-3 1 -4 1l-26 -4q-27 3 -38.5 16t-11.5 39v10 q0 107 -17.5 141.5t-64.5 41.5q-9 0 -13 0.5t-8 1.5q-27 0 -45.5 -9.5t-29.5 -29.5l-2 -24q-5 -23 -7.5 -52.5t-2.5 -73.5v-39q2 -24 3 -47.5t1 -58.5q0 -32 15 -43.5t69 -11.5h24q47 0 100.5 4t118.5 12q19 -14 27 -30t8 -38q0 -6 -1 -19t-1 -20v-10l2 -22q-4 -44 -17 -58 t-52 -14q-6 0 -11 0.5t-10 1.5q-3 0 -15 -1.5t-22 -2.5q-7 0 -18 6l-4 2q-11 3 -15 4t-7 2l-13 -6q-12 0 -38 -2t-38 -2q-13 0 -24 2t-20 6q-33 -3 -48.5 -6t-15.5 -6q0 -2 2 -2l2 -5q-1 -17 -1.5 -35t-0.5 -44q0 -13 2 -97t2 -155q0 -51 -2.5 -96.5t-7.5 -86.5 q6 -19 10 -52.5t6 -87.5q-6 -8 -8 -13.5t-2 -13.5l2 -25q5 -5 7.5 -12.5t2.5 -17.5q0 -1 -1 -10t-1 -18q1 -8 1.5 -17t0.5 -23q0 -30 -16.5 -44.5t-54.5 -18.5q-10 1 -17 1.5t-17 0.5q-9 0 -31.5 -1t-35.5 -1q-26 0 -47 7.5t-41 24.5zM735 1240q-9 49 -41.5 75.5t-95.5 36.5 h-18q-73 0 -114.5 -25.5t-43.5 -70.5q-5 -28 -7.5 -50t-2.5 -41v-39q2 -18 3 -38.5t1 -57.5q0 -41 11.5 -53t59.5 -12h23q145 0 182 13t37 52q0 37 1.5 50t4.5 20q-1 18 -2.5 38.5t-1.5 22.5q0 25 4 73v6z" />
<glyph unicode="&#xb2;" horiz-adv-x="643" d="M211 1200q-2 -5 -4.5 -10t-5.5 -10q-7 -23 -10 -39t-3 -29q0 -11 1 -17t3 -11q-5 -32 -29 -39.5t-27 -11.5q-7 3 -14.5 5t-12.5 2q-3 0 -12 -1t-17 -1h-6q-4 0 -13 1t-13 1q-4 5 -8 9t-9 8v4q0 4 1.5 7.5t6.5 10.5q-2 5 -3 11.5t-1 17.5q0 2 1.5 15t2.5 24l-2 10l10 10 h-4q0 5 1.5 9.5t4.5 7.5q3 30 16.5 60.5t36.5 58.5v18h23q20 17 35 26t29 13l57 12l8 -2q13 5 28.5 7.5t36.5 2.5q10 0 44 -2q15 -1 24 -2q4 -4 9.5 -6t15.5 -2q6 2 16 2q4 0 12.5 -2.5t14.5 -3.5v-10v-2q6 -2 22 -6.5t23 -6.5q5 -3 21.5 -18t33.5 -25v-10q16 -23 26 -49 t13 -53l2 -8q-1 -6 -4 -16t-4 -15l2 -4q2 -7 3 -14.5t1 -22.5q0 -21 -7 -44t-20 -45q-3 -13 -8 -25t-14 -25q-25 -49 -51 -85.5t-51 -57.5q-9 -14 -18.5 -24.5t-21.5 -17.5q-1 -2 -2 -3.5t-6 -6.5l-4 4v-16q-16 -15 -34 -34t-22 -22l-7 -8l10 -10q6 0 11.5 -0.5t13.5 -1.5 q27 0 45 -0.5t34 -1.5q7 2 13 3t14 1h3q12 -2 22 -2l-5 -6l23 4l-4 2q9 0 20 1.5t23 4.5h12q4 0 8.5 -1t7.5 -3q7 -5 10 -13.5t3 -23.5q0 -7 -1 -22t-1 -21q0 -7 0.5 -13t1.5 -12q-2 -14 -9.5 -22t-20.5 -10q-14 1 -43.5 3.5t-43.5 2.5q-4 0 -19 -3q-4 -1 -5 -1h-19 q-3 0 -6.5 1t-7.5 3q-4 -2 -8.5 -3t-14.5 -1q-1 0 -7.5 1t-10.5 1l-17 2h-16l-2 1q-10 5 -14 5h-12q-12 -5 -25 -7.5t-31 -2.5h-16q-1 0 -15.5 1t-27.5 1h-27q-22 0 -42 -1.5t-35 -4.5q-6 2 -12 3t-17 1h-11q-4 1 -11 2.5t-9 1.5q-12 9 -17 20t-6 29q0 39 34 65q16 12 26 21 h12q31 14 51 28t31 29q30 16 47 31t25 31q12 5 17.5 8.5t8.5 7.5l6 6q2 1 7.5 6t9.5 7l2 2l4 4l2 12q15 19 26 34t17 28q0 1 8 5q5 2 6 3l4 4v10q12 11 21 25.5t16 31.5q6 9 8.5 11.5t4.5 3.5l8 15q7 24 9.5 38t2.5 25q0 7 -2.5 16.5t-7.5 21.5q4 5 6 8.5t2 5.5 q-1 3 -1.5 5.5t-0.5 9.5v2l-8 11v9q-8 10 -14.5 23.5t-9.5 15.5l-19 21q-10 4 -24.5 6t-45.5 4h-4q-29 0 -50.5 -13t-37.5 -40z" />
<glyph unicode="&#xb3;" horiz-adv-x="627" d="M407 1055q12 -5 47 -14q8 -2 11 -3q8 -7 28 -20.5t29 -22.5q2 -5 4 -8t4 -4q13 -8 24.5 -27t27.5 -57l-4 -12l4 -25q-3 -7 -3.5 -10t-0.5 -4q0 -12 2 -31.5t2 -28.5q0 -6 -2 -15t-5 -18q-3 -6 -6 -13.5t-6 -17.5q-4 -35 -33.5 -72t-87.5 -81l-4 7l-2 -5q-1 0 -4 -2.5 t-14 -13.5q-3 0 -7.5 -1t-11.5 -3h-4q-2 -2 -5 -3t-11 -1q-17 -7 -38 -9.5t-65 -2.5h-32h-8h-23l-14 10v-6h-6l-15 2q-7 0 -15.5 2t-10.5 2q-1 0 -4.5 -1l-10.5 -3q-6 7 -21 16l-9 6q-20 2 -37 15.5t-39 46.5v8l-11 9q-5 17 -7.5 33t-2.5 32v16q-2 12 -3 19.5t-1 12.5 q2 4 6 22.5t17 27.5q7 2 11 3t7 1h14q9 0 12 0.5t7 1.5q7 0 20.5 -2t20.5 -2q4 0 16 3q3 1 4 1q7 -10 10 -19t3 -20v-22l2 -13q0 -1 1 -5q12 -50 25 -58l21 -10l8 -2h4q4 0 10.5 -2t11.5 -4q11 -1 27.5 -3t22.5 -2q13 0 25 3.5t27 10.5q8 3 13.5 5t10.5 4h2q10 10 16 16.5 t10 12.5l2 8l2 6q9 14 12.5 29t4.5 16q0 16 1 37.5t1 27.5q0 19 -6.5 39t-18.5 41q-12 10 -26.5 21t-14.5 12q-5 2 -19 5.5t-23 6.5q-13 -2 -27 -3t-29 -1h-8q-8 0 -12.5 -1.5t-8.5 -4.5q-9 -7 -15.5 -9.5t-15.5 -2.5q-3 0 -8 2t-10 6l-4 2q-3 2 -8.5 4l-5.5 2q-3 7 -9.5 12 t-23.5 11q2 3 5 6.5t3 5.5l-4 8q0 3 -3 11q0 1 -1 3q1 9 12 18.5t13 15.5q5 4 14 11q33 28 49 37q3 7 16.5 19.5t50.5 42.5v10q20 15 35.5 31.5t28.5 36.5l4 8h-14h-29q-7 0 -13 -1t-13 -3q-2 1 -5 3q-7 5 -10 5q-2 -1 -5 -1.5t-9 -0.5q-9 -3 -19 -4.5t-22 -1.5h-17 q-18 0 -31.5 -2t-24.5 -6q-6 3 -11.5 4.5t-9.5 1.5q-5 0 -22 -3q-5 -1 -7 -1l-8 -2q-2 0 -8 1t-11 1q-7 4 -11.5 11t-4.5 13v4l2 15q2 19 2 47q1 55 27 57l18 -4q49 -4 74 -4q-19 0 -56 2h7h10h16q4 0 9 -1.5t10 -4.5h2h-2l26 -2l-4 2l8 2q14 2 23.5 3t17.5 1h35h17l12 -6h2 q4 4 9 6t11 2q4 -1 8 -1.5t12 -0.5q12 -3 17.5 -3.5t12.5 -0.5q6 0 16.5 1t13.5 1h8q2 1 7.5 2t7.5 2l8 -2h2q2 -2 6 -4.5t4 -3.5l2 4q6 1 15 2q45 6 59 6q12 0 27.5 -2t19.5 -2q-1 -2 -1.5 -4.5t-0.5 -7.5q0 -1 1.5 -10t2.5 -16q-5 -12 -7.5 -30t-2.5 -48q-5 -3 -8.5 -8 t-6.5 -14q-11 -10 -33 -28q-38 -33 -47 -49q-15 -4 -29.5 -23t-25.5 -27q-6 -7 -12 -16l-12 -18q8 -3 11 -3.5t5 -0.5l7.5 -4.5t4.5 -3.5z" />
<glyph unicode="&#xb4;" d="M606 1348l6 6l4 5q10 14 21 21t27 11q18 -2 79 -82q8 -11 13 -17q2 -3 3.5 -6.5t4.5 -12.5v-1q0 -16 -76 -65q-69 -45 -115 -79l-10 -6l-10 -2q-9 -12 -20 -18t-25 -6l-12 -9q-4 0 -6.5 -3t-4.5 -9l-11.5 1t-22.5 1l-13 -4q-10 6 -15 11.5t-7 10.5q-14 4 -21.5 11 t-11.5 20q2 7 5.5 12t8.5 9q1 1 20 19t36 36l14 19l6 -2l80 73l8 4q5 10 13 21t20 22z" />
<glyph unicode="&#xb5;" horiz-adv-x="1208" d="M205 1081h229l-125 -635q-6 -29 -9 -55t-3 -49q0 -96 46.5 -146.5t135.5 -50.5q122 0 193.5 88.5t111.5 292.5l109 555h225l-145 -739q-10 -49 -14.5 -81.5t-4.5 -51.5q0 -36 15.5 -51t52.5 -15q13 0 20.5 0.5t13.5 1.5l-32 -159q-32 -9 -68.5 -13t-81.5 -4 q-74 0 -111.5 31.5t-37.5 93.5v15q-41 -67 -108 -104.5t-146 -37.5q-81 0 -137.5 26t-97.5 83l-99 -506h-229z" />
<glyph unicode="&#xb6;" horiz-adv-x="1077" d="M879 1382l16 -2l47 2h6q23 0 38 -11.5t24 -35.5q-5 -102 -9 -154t-10 -91q3 -11 4.5 -18.5t1.5 -12.5q0 -2 -1 -13.5t-1 -19.5l-18 -18h12q0 -5 -2 -12t-6 -15l2 -6q2 -8 4 -19t4 -31l-2 -12q0 -1 -1 -5q-5 -25 -5 -54q0 -3 1 -15t1 -20l-2 -26q3 -24 4.5 -49t1.5 -50 q0 -32 -1 -76.5t-1 -56.5q0 -18 0.5 -25.5t1.5 -12.5v-31q0 -14 -1.5 -28.5t-4.5 -31.5q4 -38 6 -75t2 -72q0 -2 -1 -43t-1 -80q0 -15 1 -34l3 -57l-12 -20h4v-20q10 -35 15.5 -74.5t5.5 -83.5q0 -10 -1 -22.5t-1 -24.5q-4 -7 -7.5 -11t-9.5 -8l-4 -2q-9 -4 -27.5 -8.5 t-48.5 -9.5l-12 4v6q-16 -4 -33 -6t-35 -2q-11 0 -17.5 2.5t-8.5 7.5l5 -1q-9 8 -13.5 19.5t-4.5 35.5q0 2 3.5 22.5t5.5 38.5l12 12h-6q0 6 1 10.5t3 8.5q-3 20 -4.5 44t-1.5 48q0 14 3.5 32.5t10.5 43.5l-3 45t-1 26q0 6 1 32t1 46q0 21 -1.5 40t-4.5 36v18q0 7 -1 24 t-1 28q0 5 0.5 11t3.5 19l-4 19h10l-16 18q8 65 11.5 135t4.5 76q-3 8 -4.5 16.5t-1.5 18.5q0 7 1 20t1 19q0 5 -1.5 11.5t-4.5 14.5q0 24 2 74q4 111 4 170q0 92 -5 120t-18 30q-28 0 -41.5 0.5t-24.5 0.5l-7 -7v-21q0 -24 -4.5 -48.5t-14.5 -50.5q3 -23 3.5 -37.5 t0.5 -27.5q0 -10 -1 -37t-1 -45q0 -26 2 -45t7 -33v-18q0 -11 1 -28t1 -23q0 -4 -3 -19q-1 -8 -1 -12l4 -18h-11l17 -19q-8 -64 -13 -134.5t-6 -76.5q5 -8 7 -16.5t2 -18.5q0 -4 -2.5 -16.5t-2.5 -21.5t2.5 -15.5t6.5 -12.5q0 -8 -1 -41q-3 -126 -3 -239q0 -43 5 -127 t7 -115l4 -22q-2 -22 -13.5 -33t-33.5 -14q-10 -2 -21 -3t-28 -1q-14 0 -19.5 0.5t-9.5 1.5h-4q-5 -1 -10 -1.5t-15 -0.5q-24 0 -40 11.5t-23 34.5q1 22 3 65q7 144 15 181q-3 7 -4.5 14.5t-1.5 19.5l1 9.5t1 20.5l17 19h-13q0 7 2.5 14.5t5.5 11.5l-2 7q-3 15 -4.5 28.5 t-1.5 24.5v7q3 13 4.5 25.5t1.5 26.5q0 5 -1 18.5t-1 22.5q0 11 0.5 17t1.5 11q0 4 -1 11t-1 10q0 5 1 11.5t1 7.5q0 29 -9.5 42t-31.5 13q-6 0 -16 -1.5t-22 -4.5q-74 6 -138.5 28t-120.5 60q-13 6 -35 27.5t-40 21.5v10q0 5 -42 89.5t-42 197.5q0 43 5 93.5t15 113.5 q12 22 34 34q6 3 7 5l4 8q8 13 14 21t13 14l2 10q10 19 24 36.5t31 33.5l6 4v3q4 4 12.5 11t12.5 10q22 21 45 32.5t48 15.5q11 6 23.5 10t24.5 6l6 2q27 10 37 10q21 5 37.5 7.5t30.5 2.5q4 0 30 -2t46 -2h10q25 0 64.5 4t54.5 4q21 0 44.5 -5.5t49.5 -16.5l16 6 q3 1 16 3.5t21 2.5l14 -4q20 7 28.5 9.5t12.5 2.5h9z" />
<glyph unicode="&#xb7;" horiz-adv-x="475" d="M369 717q8 -5 11 -10.5t3 -14.5q0 -28 -19 -65t-51 -66q-22 -5 -41.5 -7.5t-38.5 -2.5q-26 0 -52 7.5t-50 23.5q-20 25 -30.5 49.5t-10.5 48.5q0 9 0.5 13.5t1.5 8.5l6 11l-4 16q0 9 2 18t6 16q3 12 13 24.5t30 31.5l7 -4v11q21 13 44.5 19.5t49.5 6.5q40 0 66.5 -14.5 t37.5 -42.5q12 -11 17 -46q2 -13 4 -20l-2 -6v-6z" />
<glyph unicode="&#xb8;" d="M562 -234q-16 3 -24 4t-14 1q-14 0 -27.5 2t-25.5 6q-10 2 -17 6t-12 10q-29 16 -40 31t-11 37v6q0 12 8.5 42.5t26.5 84.5q4 31 16 51.5t27 20.5q8 0 22 -8q5 -3 9 -5q9 1 21.5 2.5t15.5 1.5q10 0 15 -3.5t7 -12.5l-4 -20q-8 -19 -10.5 -26.5t-3.5 -14.5l-6 -13v-12 l2 -4l-5 -19v-4q-5 -8 -6.5 -11l-3.5 -7l13 -6h12l20 -8h4l17 2l8 -2l6 -2q9 0 19 -3t17 -7q27 -17 43 -34t21 -34q17 -17 25 -38.5t8 -47.5q0 -21 -5 -41t-15 -37q-5 -20 -18 -36t-35 -28h-7q-4 -5 -9 -10t-9 -8q-8 -7 -19 -10.5t-26 -3.5l-14 -6q-18 -4 -35.5 -5.5 t-46.5 -1.5q-20 0 -43.5 4.5t-51.5 14.5q-12 6 -23 15t-24 24l-4 2q-4 3 -7 8.5t-5 13.5l-4 8l-4 18q1 17 10 30t27 25q11 13 21 18.5t26 5.5q13 0 26 -10.5t23 -28.5q5 -8 26 -16.5t35 -8.5q9 0 28 7q4 1 5 1l10 -4v15q11 4 15 9.5t4 16.5v14q-3 15 -9 24.5t-15 14.5z" />
<glyph unicode="&#xb9;" horiz-adv-x="430" d="M81 1181l-11 -12h-9q-4 -3 -20.5 -8t-28.5 -10q-8 0 -15.5 7t-18.5 29q-1 8 -2 22.5t-1 23.5q0 11 4 22t10 18q41 14 68.5 25t45.5 21q20 5 37 14.5t32 24.5q13 6 47 7.5t53 6.5l4 -4l15 2h2q15 0 28 -9t19 -24q-2 -7 -5 -18q-6 -22 -9 -26v-9q0 -2 1.5 -4.5t4.5 -5.5 q0 -29 -2.5 -56t-7.5 -54l2 -7l-2 -12q0 -2 1 -5.5t3 -6.5v-119l-7 -10l1 -7q4 -6 6 -14t2 -18q0 -5 -3 -17.5t-10 -32.5q2 -21 4 -61.5t5 -60.5q0 -3 0.5 -4l1.5 -3q0 -1 -1 -6q-3 -24 -3 -47q-3 -2 -4.5 -4.5l-4.5 -7.5l2 -12q2 -5 3 -11.5t1 -19.5v-35v-10q0 -4 3 -10 q0 -5 1 -10t3 -11l2 -6v-10q0 -19 -10 -28t-29 -9q-5 0 -11 1.5t-12 4.5l-6 -6q-26 0 -53 2h-6q-6 0 -15.5 -1t-13.5 -1q-7 0 -13 4t-10 13l-14 12q0 6 2.5 11t7.5 9v4q0 9 3.5 24.5t3.5 22.5q-1 7 -2.5 13t-3.5 9q4 19 8 50t10 41q-3 4 -4.5 10t-1.5 21v26q-3 11 -4.5 15.5 t-3.5 8.5l6 6t4 6q0 6 -0.5 8.5t-1.5 4.5v6v33q0 14 0.5 22.5t1.5 17.5v196q0 20 -3 33.5t-10 21.5l-8 2q-3 -1 -8 -2.5t-14 -3.5q-5 -3 -13.5 -6t-22.5 -7z" />
<glyph unicode="&#xba;" horiz-adv-x="831" d="M723 1178h10q12 -31 17.5 -63t5.5 -79q0 -114 -19.5 -199t-52.5 -116l-4 -6q-21 -29 -41 -47.5t-47 -34.5q-13 -14 -28.5 -20.5t-33.5 -6.5h-6q-9 -5 -19 -7.5t-24 -2.5l-4 -2q-4 -2 -9 -4q-22 -10 -28 -10h-10h-6h-4h-3q-19 4 -34 4q-2 0 -7.5 -1.5t-10.5 -2.5h-9 q-56 0 -103.5 20.5t-96.5 67.5h-31q-9 25 -18.5 46.5t-20.5 39.5v10l-12 12v12h-13q-10 44 -15 88.5t-5 90.5q0 59 9 103t28 85v21q12 12 22.5 27t20.5 34v14q8 11 19 23.5t34 38.5h12l-2 6l12 10l3 2q36 29 61 29h10q7 4 13 6t16 4l4 4q1 1 6 4.5t8 5.5q13 3 23 4t20 1 q1 0 11.5 1t21.5 1q3 0 23.5 -1t38.5 -1q51 0 88 -12t63 -38q15 -15 31 -25t33 -16q1 -16 26 -58q10 -17 15 -26v-14l10 -10zM313 813q7 -7 17 -15t23 -16q5 -4 10.5 -6t11.5 -2h8q9 0 15.5 1t13.5 3h8q21 0 35 8t26 27q17 11 28 40t15 74q4 13 6 27.5t2 28.5q0 22 -2 45.5 t-2 26.5q-3 10 -5.5 18t-2.5 12q-3 4 -7 18l-3 9q0 7 -3 12t-9 8l-4 1l-8 7q-3 5 -10.5 15.5t-11.5 16.5l-6 2q-4 1 -9 4.5t-8 6.5q-16 4 -26.5 5.5t-15.5 1.5q-13 0 -25.5 -3.5t-28.5 -12.5q-21 -14 -40 -46.5t-24 -66.5l2 -12q-7 -19 -10 -41t-3 -52l1 -27q3 -4 5.5 -10.5 t2.5 -15.5v-10l3.5 -10.5t3.5 -11.5l-7 8l10 -27z" />
<glyph unicode="&#xbb;" horiz-adv-x="1032" d="M803 707l8 -17q10 -4 25 -19t47 -55l8 -16l10 -12l2 -4q40 -31 58 -55t18 -48q0 -17 -7.5 -32t-23.5 -29l-47 -41q-17 -20 -36.5 -39.5t-39.5 -36.5v-16q-11 -6 -18 -16t-10 -25l-11 -2l-4 2l-4 8v-8q0 -11 -5.5 -24.5t-16.5 -28.5l-8 10l-7 -33q-21 -15 -35.5 -65 t-48.5 -50q-5 0 -12 2t-12 4q-69 2 -111.5 18t-54.5 46q-10 6 -14 12.5t-4 16.5q0 8 8 18.5t24 22.5q14 34 121 156q66 74 105 120l6 9q5 6 10 10.5t10 7.5v6l-8 12q-62 60 -129 133l-4 4l-10 19l-7 -6q-31 46 -69.5 86.5t-83.5 74.5v10q-11 9 -17 21t-6 27l2 20 q71 16 162 22q26 2 33 3l18 2q36 -4 68 -59q19 -32 32 -47q6 -4 15 -13.5t16 -13.5q0 -21 33 -52q8 -7 13 -12q9 -7 12.5 -14.5t3.5 -15.5zM369 735l4 8l4 2l10 -2q6 -15 12.5 -24t15.5 -16l1 -17q23 -18 41.5 -37t33.5 -38l48 -42q15 -13 22.5 -28.5t7.5 -32.5 q0 -24 -17.5 -48t-57.5 -54l-2 -5l-10 -11q-3 -2 -5 -5.5t-4 -11.5q-18 -27 -37 -46.5t-33 -27.5l-8 -16l4 2q0 -10 -4.5 -17.5t-13.5 -13.5q-4 -4 -12 -13q-31 -32 -31 -50q-8 -6 -19 -15.5t-14 -11.5q-12 -17 -31 -46q-39 -61 -67 -61h-2l-18 2q-8 1 -33 3q-90 7 -162 22 l-2 18q0 16 6.5 28.5t17.5 20.5v11q47 35 84.5 75.5t67.5 86.5l2 -7l16 19q21 23 56 60t75 79l9 10l-1 7q-5 2 -10 6.5t-10 11.5l-4 8q-4 7 -10.5 14.5t-16.5 14.5q-27 32 -75 87q-115 134 -123 161q-19 10 -28 21t-9 22q0 17 46.5 40t137.5 50q7 4 14.5 6t16.5 2 q31 0 44.5 -52t35.5 -65l8 -33l8 11q10 -17 15.5 -31t5.5 -23v-8z" />
<glyph unicode="&#xbc;" horiz-adv-x="1382" d="M1258 -2l-3 -2h-8h-10l-12 2q-7 0 -16 -1t-13 -1t-10 1l-6 1q-3 -1 -7 -1.5t-16 -0.5h-13q-24 2 -34.5 6t-11.5 10v19q0 19 3 39.5t9 40.5q-2 2 -3 4t-1 6q0 3 1 10t1 10q0 1 2 5t2 8v4q-13 1 -23.5 1.5t-19.5 0.5q-21 0 -42 -3l-21 -3q-5 4 -6.5 5t-2.5 1 q-19 -4 -39.5 -6t-44.5 -2q-1 0 -26.5 2t-48.5 2q-6 0 -13.5 -0.5t-15.5 -1.5h-2q-6 -1 -13.5 -1.5t-23.5 -0.5h-18q-13 0 -20 11.5t-7 33.5v2q0 17 1 34t3 35q2 3 11.5 15.5t41.5 56.5h8q3 4 7.5 8t11.5 8l4 2q0 5 3.5 9t10.5 8q0 9 1.5 14.5t2.5 7.5l-1 13q11 1 24 16 q6 7 10 10q0 4 -0.5 6.5t-3.5 8.5q17 6 27.5 19t19.5 42q32 35 77.5 100t68.5 90q20 33 35.5 47t31.5 17l13 -4q5 0 8 0.5t6 1.5q12 1 22.5 1.5t24.5 0.5q9 0 37 -3q8 -1 12 -1h2q7 0 12 -6.5t5 -16.5q0 -5 -1 -12t-1 -12l-3 -10v-3l-6 -6v-12q1 -8 2.5 -21.5t1.5 -17.5 q0 -9 -2 -18t-8 -23q3 -13 3.5 -19.5t0.5 -13.5v-3q-2 -14 -2 -29q0 -12 1.5 -23t4.5 -20v-11q0 -2 1 -10t1 -12q0 -3 -0.5 -6t-2.5 -11l3 -10h-4l8 -11q-3 -14 -4.5 -28t-1.5 -28q0 -4 -1 -19.5t-1 -25.5q2 -2 3 -5.5t1 -11.5q0 -6 -0.5 -12t-0.5 -13l1 -3q7 -1 14.5 -2 t16.5 -1q5 3 9.5 4t13.5 1q1 0 13 -1t24 -1h10q7 -8 10.5 -14.5t3.5 -12.5q0 -4 -3 -12.5t-3 -14.5v-16q0 -19 -4 -32.5t-12 -24.5q-5 0 -9 0.5t-11 2.5l-7 -5l-37 4q-1 0 -7.5 -1t-10.5 -1h-4h-7q0 -7 -2 -18.5t-2 -14.5q0 -8 2 -15.5t4 -10.5q0 -2 -1 -5.5t-1 -9.5 q0 -8 1.5 -19t5.5 -31q3 -3 4.5 -7t1.5 -9q0 -4 -3.5 -8.5t-6.5 -5.5zM1100 500v20q0 5 -1 12t-3 15l-4 -6q-5 -4 -28.5 -34.5t-45.5 -55.5q-23 -34 -49.5 -70.5t-54.5 -72.5q-2 -8 -4.5 -14.5l-2.5 -6.5q0 -5 3.5 -8t17.5 -7q6 0 9 -0.5t5 -1.5q7 2 14 3t13 1q5 0 11 -1 t11 -3q7 2 13 3t12 1q7 0 33 -1t45 -1l2 -2l10 2v17q0 1 -1 6l-3 15q3 28 4.5 43.5t1.5 19.5q0 8 -1 18t-1 12l-2 19q0 7 3 21q1 4 1 6q-4 10 -6 23t-2 28zM870 1354q22 4 38 6.5t30 3.5h18q15 0 29.5 -1.5t27.5 -4.5h5q10 -1 15 -6t7 -16l-2 -15q-10 -18 -21.5 -36 t-25.5 -38l-16 -12l-8 -14q-18 -42 -40 -77t-48 -63q-14 -33 -50.5 -94t-50.5 -94l-49 -80l-8 -20h-8l8 -13q-35 -46 -72.5 -105.5t-42.5 -66.5q-8 -19 -23.5 -46t-15.5 -36v-4q-99 -154 -199 -342t-124 -188q-1 0 -3 1t-3 1q-7 1 -13.5 1.5t-13.5 0.5q-2 0 -12 -1 q-36 -5 -68 -5q-20 3 -31.5 14.5t-11.5 28.5v12q70 106 97.5 146t39.5 55q5 16 12 31.5t19 33.5l8 4q3 4 6.5 8t9.5 10q3 14 36.5 69t54.5 92q20 45 69 129t131 215q23 48 122 221q31 54 48 84q10 8 15 14t8 15q7 33 26 73.5t54 94.5q3 4 7 7.5t11 8.5zM78 1194l-10 -10h-11 q-3 -4 -19 -9t-26 -10q-9 0 -16.5 8t-15.5 29q0 6 -1.5 20t-1.5 21q0 11 3.5 20t9.5 17q55 19 75.5 27t33.5 16q20 5 36 13.5t28 20.5q14 8 47 10.5t50 6.5l4 -6l12 2h5q14 0 25.5 -8t17.5 -23q-1 -3 -3 -10q-5 -24 -9 -30l-1 -9q0 -1 2 -4.5t4 -5.5q0 -28 -2.5 -53 t-7.5 -49l2 -4l-2 -15l1 -2.5l3 -7.5v-111l-6 -10v-4q4 -7 6 -14.5t2 -16.5q0 -6 -2.5 -16t-9.5 -31q2 -19 4 -57.5t4 -57.5q0 -1 1 -3t1 -3v-5q-4 -24 -4 -44q-2 -2 -3.5 -4.5l-4.5 -7.5l2 -10q2 -5 3 -11t1 -18v-33v-8q0 -3 0.5 -5.5t1.5 -4.5q0 -4 1 -8.5t3 -9.5l2 -7 v-10q0 -17 -9.5 -26t-29.5 -9q-3 0 -9 2t-11 4l-6 -6q-23 0 -49 2h-9q-4 0 -13 -1t-13 -1q-6 0 -11.5 3.5t-9.5 10.5l-14 13q0 6 2.5 11t7.5 7v4q0 9 3 23.5t3 21.5t-1.5 12t-3.5 8q2 15 6 44.5t9 39.5q-3 8 -4 14t-1 15v25q-1 2 -2.5 10.5t-3.5 14.5q2 1 5 3.5t3 4.5v12v6 q0 1 -1 4q-1 13 -1 27q0 4 1 16t1 21v182q-1 20 -3.5 33.5t-6.5 19.5l-8 2q-5 -1 -9 -2t-15 -4q-3 -3 -11 -6t-21 -6z" />
<glyph unicode="&#xbd;" horiz-adv-x="1331" d="M918 606q-1 -4 -3.5 -8.5t-7.5 -10.5q-6 -25 -8 -39t-2 -24q0 -11 1 -17t3 -12q-5 -27 -28.5 -33.5t-27.5 -10.5q-8 3 -14 4.5t-12 1.5q-1 0 -10 -1t-16 -1h-5q-4 0 -13 1t-13 1q-3 4 -7 8t-9 8l-1 2q1 4 2 7t6 11q-1 5 -2 11t-1 16q0 3 1.5 15.5t2.5 21.5v8l8 10h-4 q0 4 2 8.5t4 6.5q3 29 15.5 57t35.5 55v17h23q16 15 30.5 23.5t28.5 13.5l55 10h6q14 4 29.5 6t34.5 2q9 0 41 -2q14 -1 22 -2q6 -4 11 -6t14 -2q6 2 16 2q5 0 19 -3q4 -1 6 -1v-10v-2l43 -13q7 -3 22.5 -17t28.5 -22v-10q17 -23 26.5 -46.5t12.5 -49.5l2 -7q-1 -5 -4 -15 t-4 -13l2 -4q2 -7 3 -14t1 -21q0 -19 -6 -40t-18 -41q-4 -14 -9.5 -25.5t-13.5 -22.5q-23 -45 -47.5 -78.5t-50.5 -56.5q-8 -12 -17 -21.5t-20 -15.5l-4.5 -7.5l-1.5 -2.5l-4 4l-3 -17q-14 -13 -31 -30t-22 -21l-6 -8l10 -8h3q11 -2 20 -2q7 0 33.5 -1t44.5 -1q5 1 10 1.5 t14 0.5h23l-4 -6l22 4h-6q11 0 20.5 1.5t22.5 4.5l12 2q3 0 7 -1t8 -3q6 -5 9 -13t3 -22q0 -7 -1 -21t-1 -20q0 -7 0.5 -12t1.5 -10q-2 -15 -9 -22t-21 -9q-13 1 -40 3.5t-41 2.5q-4 0 -18 -3q-4 -1 -6 -1h-17q-2 0 -5 0.5t-9 3.5q-4 -2 -8.5 -3t-13.5 -1q-2 0 -7 1t-10 1 l-16 2h-17q-5 3 -8 4l-6 2l-12 -2q-11 -4 -24 -6t-27 -2h-17q-2 0 -15.5 1t-25.5 1h-26q-21 0 -39.5 -1.5t-34.5 -4.5q-5 2 -11.5 3t-15.5 1h-12q-3 1 -8.5 2.5t-7.5 1.5q-14 9 -19.5 19.5t-5.5 25.5q0 37 33 62q14 11 25 20h12q30 13 48.5 25.5t29.5 27.5q30 16 46 29 t24 29q7 1 13 4.5t10 8.5l7 7q2 1 7.5 5.5t8.5 6.5v2l4 5l2 9q18 20 27.5 33.5t13.5 24.5q1 1 3.5 2.5t11.5 5.5l4 2v10q11 10 20 23.5t17 32.5q2 4 5 7.5t5 4.5l8 13q2 7 5 20q7 28 7 39q0 9 -2.5 18t-7.5 19q3 4 4.5 7.5t1.5 6.5v12v2l-8 9v10q-7 8 -13.5 21.5t-9.5 15.5 l-18 18q-10 4 -24 6t-43 4h-5q-25 0 -46 -12t-37 -37zM870 1354q22 4 38 6.5t30 3.5h18q15 0 29.5 -1.5t27.5 -4.5h5q10 -1 15 -6t7 -16l-2 -15q-10 -18 -21.5 -36t-25.5 -38l-16 -12l-8 -14q-18 -42 -40 -77t-48 -63q-14 -33 -50.5 -94t-50.5 -94l-49 -80l-8 -20h-8l8 -13 q-35 -46 -72.5 -105.5t-42.5 -66.5q-8 -19 -23.5 -46t-15.5 -36v-4q-99 -154 -199 -342t-124 -188q-1 0 -3 1t-3 1q-7 1 -13.5 1.5t-13.5 0.5q-2 0 -12 -1q-36 -5 -68 -5q-20 3 -31.5 14.5t-11.5 28.5v12q70 106 97.5 146t39.5 55q5 16 12 31.5t19 33.5l8 4q3 4 6.5 8 t9.5 10q3 14 36.5 69t54.5 92q20 45 69 129t131 215q23 48 122 221q31 54 48 84q10 8 15 14t8 15q7 33 26 73.5t54 94.5q3 4 7 7.5t11 8.5zM78 1194l-10 -10h-11q-3 -4 -19 -9t-26 -10q-9 0 -16.5 8t-15.5 29q0 6 -1.5 20t-1.5 21q0 11 3.5 20t9.5 17q55 19 75.5 27t33.5 16 q20 5 36 13.5t28 20.5q14 8 47 10.5t50 6.5l4 -6l12 2h5q14 0 25.5 -8t17.5 -23q-1 -3 -3 -10q-5 -24 -9 -30l-1 -9q0 -1 2 -4.5t4 -5.5q0 -28 -2.5 -53t-7.5 -49l2 -4l-2 -15l1 -2.5l3 -7.5v-111l-6 -10v-4q4 -7 6 -14.5t2 -16.5q0 -6 -2.5 -16t-9.5 -31q2 -19 4 -57.5 t4 -57.5q0 -1 1 -3t1 -3v-5q-4 -24 -4 -44q-2 -2 -3.5 -4.5l-4.5 -7.5l2 -10q2 -5 3 -11t1 -18v-33v-8q0 -3 0.5 -5.5t1.5 -4.5q0 -4 1 -8.5t3 -9.5l2 -7v-10q0 -17 -9.5 -26t-29.5 -9q-3 0 -9 2t-11 4l-6 -6q-23 0 -49 2h-9q-4 0 -13 -1t-13 -1q-6 0 -11.5 3.5t-9.5 10.5 l-14 13q0 6 2.5 11t7.5 7v4q0 9 3 23.5t3 21.5t-1.5 12t-3.5 8q2 15 6 44.5t9 39.5q-3 8 -4 14t-1 15v25q-1 2 -2.5 10.5t-3.5 14.5q2 1 5 3.5t3 4.5v12v6q0 1 -1 4q-1 13 -1 27q0 4 1 16t1 21v182q-1 20 -3.5 33.5t-6.5 19.5l-8 2q-5 -1 -9 -2t-15 -4q-3 -3 -11 -6t-21 -6z " />
<glyph unicode="&#xbe;" horiz-adv-x="1571" d="M1446 -2l-2 -2h-8h-11l-12 2q-7 0 -16 -1t-13 -1q-3 0 -9 1l-6 1q-3 -1 -7.5 -1.5t-15.5 -0.5h-13q-25 2 -35 5.5t-12 11.5v18q0 19 3.5 40t8.5 40q-2 2 -3 4t-1 6q0 3 1 10t1 10q0 1 2 5t2 8v4q-12 1 -23 1.5t-20 0.5q-20 0 -41 -3t-22 -3q-4 4 -6 5l-2 1q-20 -4 -40 -6 t-44 -2q-2 0 -27.5 2t-48.5 2q-5 0 -12.5 -0.5t-16.5 -1.5h-1q-8 -2 -15 -2h-23h-18q-13 0 -20 11.5t-7 33.5v2q0 17 1 34t4 36q2 3 11 15l42 56h7q3 3 8 7.5t11 8.5l4 2q1 6 3.5 9t11.5 8q0 10 1 14.5t3 8.5l-2 11q12 3 24 16q6 7 11 12q0 2 -1 5l-3 9q16 6 26.5 19 t20.5 42q31 35 76.5 100t68.5 90q21 33 36 47t32 17l12 -4q5 0 8 0.5t7 1.5q11 1 22 1.5t24 0.5q10 0 38 -3q8 -1 12 -1h2q8 -1 12 -7t4 -16q0 -5 -0.5 -11.5t-1.5 -12.5l-2 -10v-3l-6 -6v-12l2.5 -22.5t1.5 -16.5q0 -8 -2.5 -18t-7.5 -22q2 -13 3 -20.5t1 -13.5l-1 -3 q-1 -13 -1 -29q0 -13 1.5 -24t4.5 -20v-10q0 -2 1 -10t1 -12q0 -2 -1 -5.5t-3 -11.5l4 -10h-4l8 -10q-3 -14 -4.5 -28t-1.5 -29q0 -4 -1 -19.5t-1 -25.5q2 -3 3 -6.5t1 -10.5q0 -6 -0.5 -11.5t-1.5 -12.5l2 -4q8 -2 14.5 -2.5t16.5 -0.5q5 3 8.5 3.5t13.5 1.5q1 0 13 -1 t24 -1h10q8 -8 11.5 -14.5t3.5 -12.5q0 -4 -3.5 -12.5t-3.5 -14.5v-16q0 -19 -4 -33t-12 -24q-5 0 -9 0.5t-12 2.5l-6 -5l-36 4q-2 0 -8 -1t-11 -1h-4h-6q0 -7 -2 -18.5t-2 -14.5q0 -9 1.5 -15.5t4.5 -11.5q-1 -2 -1.5 -5t-0.5 -9q0 -9 1.5 -20t4.5 -29q3 -3 4.5 -7t1.5 -10 q0 -4 -2.5 -8t-7.5 -6zM1288 500v20q0 5 -1 12t-3 15l-4 -6q-5 -4 -28.5 -34.5t-45.5 -55.5q-22 -34 -48.5 -70.5t-55.5 -73.5q-1 -6 -3.5 -12.5t-2.5 -7.5q0 -6 3.5 -8.5t17.5 -6.5q5 0 8.5 -0.5t4.5 -0.5l14 2t13 1t11.5 -1t11.5 -3q6 2 12 3t12 1q8 0 34 -1t44 -1l2 -2 l10 2v17q0 2 -0.5 6t-3.5 14q3 29 4.5 44t1.5 20q0 8 -1 18t-1 12l-2 19q0 6 3 21q1 4 1 6q-4 10 -6 23t-2 28zM1059 1354q22 4 37.5 6.5t30.5 3.5h18q14 0 28.5 -1.5t28.5 -4.5h4q9 0 15 -6t8 -17l-2 -14q-10 -18 -21.5 -36t-25.5 -38l-17 -12l-8 -14q-18 -42 -40 -77 t-48 -63q-14 -33 -50.5 -94t-49.5 -94l-49 -80l-9 -20h-8l8 -13q-34 -46 -71.5 -105t-42.5 -66q-9 -20 -24 -47t-15 -36v-4q-99 -154 -199.5 -342t-124.5 -188q-1 0 -3 1t-3 1q-7 1 -13.5 1.5t-13.5 0.5q-2 0 -11 -1q-36 -5 -69 -5q-20 3 -31 14t-12 29v12q70 106 97.5 146 t39.5 54q5 16 12.5 32t18.5 34l9 5q3 4 6.5 8t9.5 10q3 14 36.5 68.5t53.5 91.5q21 45 70 129t131 215q23 48 122 221q31 54 48 84q10 8 14.5 14t7.5 14q7 33 26.5 74t53.5 94q3 4 7 8t12 9zM390 1077q7 -3 17 -6t37 -10q8 -7 28 -19.5t28 -20.5q0 -4 1.5 -7t3.5 -4 q13 -7 24.5 -25t25.5 -53l-2 -12l2 -23q-1 -3 -2 -7.5t-2 -7.5q1 -8 3.5 -26t2.5 -27q0 -8 -7 -28q-1 -3 -1 -4q-3 -5 -6 -14l-4 -12q-5 -35 -32.5 -69.5t-82.5 -74.5l-6 4l-2 -2l-17 -17q-3 0 -6.5 -0.5t-12.5 -3.5h-1q-3 -2 -6.5 -3t-10.5 -1q-20 -6 -42.5 -9t-55.5 -3 q-3 0 -14 1t-19 1h-6q-8 0 -22 -2l-13 10v-6h-8l-12 2q-5 1 -13 2.5t-12 1.5q-1 0 -6 -1t-8 -1q-6 6 -19 13q-7 4 -9 5q-19 2 -36.5 15.5t-37.5 42.5v8l-11 8q-4 13 -6 27.5t-2 34.5v16q-2 8 -3 15.5t-1 12.5q3 6 6 22.5t15 25.5q3 1 6.5 1.5t11.5 0.5h14q4 0 8.5 1t8.5 3 q7 0 20 -2t19 -2q7 0 11.5 1t8.5 3q5 -10 7.5 -19t2.5 -18v-22l2 -11q1 -2 2 -6q12 -47 25 -53l21 -8l6 -4h4q4 0 9.5 -1.5t10.5 -2.5q9 -1 26 -4t23 -3q9 0 19.5 3t30.5 12q7 2 12 4t11 4h1q2 2 11.5 12t14.5 14l1 9l3 3q8 14 11 28t4 16q0 14 1 34t1 27q0 18 -6 37t-18 39 q-14 9 -25 17.5t-14 11.5q-5 2 -18.5 5.5t-22.5 6.5q-10 -2 -23.5 -3t-27.5 -1h-9q-8 0 -12.5 -1.5t-7.5 -4.5q-7 -6 -13 -8t-16 -2q-4 0 -8 1.5t-9 4.5l-5 2q-4 2 -8 3.5t-5 2.5q-2 7 -7.5 11.5t-22.5 10.5q4 5 5 6.5t1 4.5l-2 6q-2 4 -3 7t-1 7q0 8 9.5 16.5t10.5 14.5 q25 20 38.5 29.5t25.5 15.5q3 10 52 49l11 8v11q17 12 32.5 28t29.5 35l2 8l-13 -2l-9.5 1t-18.5 1q-2 0 -11 -1.5t-14 -2.5q-1 1 -4 3q-7 5 -11 5q-2 -1 -4 -1.5t-8 -0.5q-9 -3 -18.5 -4.5t-19.5 -1.5h-17q-18 0 -31 -2t-24 -6q-5 3 -9.5 4.5t-9.5 1.5q-4 0 -21 -3 q-5 -1 -7 -1l-8 -2q-1 0 -6.5 1t-9.5 1q-9 5 -13 11t-4 14v2l2 14q2 17 2 43q2 53 27 53l16 -4q47 -2 72 -4h-6q-23 3 -47 4h3l11 -2h16q7 0 10.5 -1t6.5 -3h2l-2 -2h26l-4 2l8 2q7 1 14.5 1.5t24.5 0.5h33q6 0 14 2l13 -6h1q5 3 10.5 4.5t10.5 1.5h18q5 -2 10.5 -3t16.5 -1 h33h6q4 2 8 3t6 1h7h4q1 -1 4 -4.5t4 -3.5l2 4q22 3 40 4.5t32 1.5q11 0 21.5 -1t21.5 -3v-10q0 -6 0.5 -12t1.5 -13q-5 -9 -7 -22.5t-2 -49.5q-6 -4 -9 -8.5t-5 -11.5q-8 -7 -23 -20q-43 -36 -53 -54q-14 -2 -29 -20.5t-23 -23.5q-7 -8 -14.5 -18.5t-10.5 -14.5 q3 -1 9 -2.5t9 -2.5l2.5 -1.5t8.5 -4.5z" />
<glyph unicode="&#xbf;" horiz-adv-x="965" d="M723 821l8 -18l-10 -17v-8q0 -40 -39.5 -81.5t-106.5 -69.5q-14 -16 -28 -24.5t-28 -10.5q-30 -15 -56.5 -23.5t-50.5 -11.5l-21 4q-12 -4 -24 -9.5t-24 -12.5q-29 -13 -46 -40t-23 -71v-16q0 -62 12 -100t36 -54q6 -21 18.5 -32.5t34.5 -14.5l8 2q25 -12 49.5 -18.5 t48.5 -6.5t40 5t30 16l8 -2q30 6 51.5 22t36.5 43q10 42 15.5 78.5t5.5 65.5q0 16 -1.5 31.5t-4.5 34.5q6 21 26.5 30.5t59.5 9.5h40q9 -4 21 -6t31 -2q17 0 33 -6.5t28 -18.5q0 -1 1 -5q3 -18 3 -27q0 -6 -1 -20.5t-1 -22.5q0 -14 2.5 -23t7.5 -17q-16 -30 -24.5 -90.5 t-22.5 -84.5l-10 -27v-4q0 -11 -5 -18.5t-15 -12.5l-13 -12q-8 -18 -31 -39t-71 -55q-46 -24 -95.5 -34.5t-115.5 -10.5q-67 0 -122.5 5.5t-94.5 16.5l6 -4q-126 8 -195 112t-69 287q0 97 45.5 173.5t130.5 123.5q42 24 123 56q146 58 153 134l2 22q-2 15 -3 24t-1 18 q0 29 20.5 47.5t53.5 18.5h16q5 -1 11 -1.5t14 -0.5q4 0 12.5 2t14.5 2t19.5 -3t21.5 -3q11 0 23 1.5t24 4.5q12 -3 18 -9.5t6 -17.5q0 -2 -1.5 -14.5t-2.5 -22.5l-2 -5q8 -7 11 -14.5t4 -23.5q0 -22 -6.5 -46t-18.5 -48zM635 1108q-5 -8 -11 -11t-16 -3q-9 0 -24 6t-23 6 q-24 0 -56 32q-13 14 -22 22q-6 16 -9 35t-3 40q0 28 7 54.5t22 51.5q32 22 53.5 30.5t40.5 8.5q7 0 13 -0.5t12 -1.5l14 -6q7 0 12.5 0.5t12.5 1.5l20 -4q14 -3 27.5 -14t27.5 -31l-4 -6l11 1q12 -19 19 -41t7 -46q0 -40 -18 -72t-43 -41q-9 -4 -16 -6t-13 -2h-6l-13 -6 q-5 0 -13 1t-9 1z" />
<glyph unicode="&#xc0;" horiz-adv-x="1155" d="M293 109q-8 -6 -13.5 -12t-9.5 -14q-1 -16 -7 -28t-17 -20l-2 -12q-3 -22 -35 -103q-16 -39 -25 -61q-6 -5 -13 -6.5t-19 -2.5q-18 0 -39.5 7t-49.5 22q-10 -2 -18 -3t-14 -1q-43 20 -59.5 32.5t-16.5 24.5v7q0 21 7.5 46.5t20.5 52.5q3 8 15 35.5t12 47.5v4 q12 6 17.5 15t5.5 22q3 1 5.5 5.5l2.5 4.5q2 0 4 1t4 3q3 12 11 29.5t8 23.5q6 8 16 17l2 2q15 54 31 115.5t19 69.5q12 15 23.5 41t26.5 75q21 45 32.5 67.5t21.5 36.5v11q0 15 5 38.5t15 53.5q18 18 60 130.5t81 258.5q21 43 31 65t19 41v50q13 22 29 37.5t34 23.5l18 8 l15 -2l10 -2q7 -2 13.5 -3t15.5 -1q12 0 37 5t39 5q11 0 21.5 -2.5t23.5 -7.5l8 -2q7 1 20 3q30 5 39 5q6 0 15.5 -1.5t23.5 -4.5q18 -8 30 -49q6 -22 11 -35q40 -253 111 -501q16 -58 16 -66q0 -5 -2 -22.5t-2 -29.5v-6l16 -16q5 -26 11.5 -47.5t15.5 -40.5l-4 -6 q16 -37 26 -77.5t12 -83.5l-9 -10q3 -5 10 -18q16 -27 22 -36q9 -40 22 -102q18 -82 19 -91q6 -17 8 -28.5t2 -22.5l5 -17l4 -20q0 -17 -15 -25t-55 -12q-4 0 -19.5 1.5t-39.5 4.5q-4 -7 -8.5 -9.5t-20.5 -2.5q-3 0 -18.5 2.5t-28.5 3.5q-35 8 -47 17.5t-17 26.5 q-4 22 -11 64q-15 92 -26 128q-2 19 -6 53q-6 51 -6 65v8q-9 11 -17.5 19t-15.5 12l-30 -2l-4 8q-18 -3 -33 -4.5t-29 -1.5h-49q-4 0 -13.5 -1.5t-14.5 -2.5q-9 5 -14.5 7.5t-8.5 2.5q-10 -4 -20.5 -6t-22.5 -2q-9 0 -38 4.5t-46 5.5l-21 -2q-41 -6 -58.5 -16t-19.5 -27 q-13 -20 -22 -39t-12 -34q-6 -10 -21 -90q-10 -52 -16 -84zM633 1051l-4 -9q-7 -19 -19.5 -46t-13.5 -35l-1 -3q-28 -66 -28 -92v-6q-12 -10 -18 -15.5t-10 -10.5q-7 -43 -22.5 -84.5t-41.5 -83.5v-7l-4 -16.5t-6 -31.5l-8 -9v-4q18 -5 41 -7.5t55 -2.5q25 0 62 2.5 t130 11.5q6 8 9.5 16.5t3.5 18.5q-15 62 -26 98t-23 64q2 2 2 4q0 12 -11 62t-43 182l-8 4l-12 -2zM727 1575q11 -11 31 -29.5t22 -23.5q5 -4 9 -8.5t7 -11.5q-3 -13 -12 -20.5t-24 -10.5q-4 -10 -9.5 -15.5t-13.5 -7.5l-8 4q-9 0 -21.5 -1t-15.5 -1l-8 13l-8 4l-9 2 q-11 3 -22 9.5t-21 16.5l-10 4l-12 5q-49 39 -118 81.5t-69 59.5v4l7 18q40 47 53 63t18 23q3 6 7.5 8.5t11.5 2.5q13 -1 24.5 -8.5t19.5 -19.5q5 -4 10 -9t7 -6l8 -9q12 -7 20 -16.5t13 -23.5l10 -5q16 -15 45 -41t35 -32l6 2q8 -4 11.5 -8.5t5.5 -12.5z" />
<glyph unicode="&#xc1;" horiz-adv-x="1155" d="M293 109q-8 -6 -13.5 -12t-9.5 -14q-1 -16 -7 -28t-17 -20l-2 -12q-3 -22 -35 -103q-16 -39 -25 -61q-6 -5 -13 -6.5t-19 -2.5q-18 0 -39.5 7t-49.5 22q-10 -2 -18 -3t-14 -1q-43 20 -59.5 32.5t-16.5 24.5v7q0 21 7.5 46.5t20.5 52.5q3 8 15 35.5t12 47.5v4 q12 6 17.5 15t5.5 22q3 1 5.5 5.5l2.5 4.5q2 0 4 1t4 3q3 12 11 29.5t8 23.5q6 8 16 17l2 2q15 54 31 115.5t19 69.5q12 15 23.5 41t26.5 75q21 45 32.5 67.5t21.5 36.5v11q0 15 5 38.5t15 53.5q18 18 60 130.5t81 258.5q21 43 31 65t19 41v50q13 22 29 37.5t34 23.5l18 8 l15 -2l10 -2q7 -2 13.5 -3t15.5 -1q12 0 37 5t39 5q11 0 21.5 -2.5t23.5 -7.5l8 -2q7 1 20 3q30 5 39 5q6 0 15.5 -1.5t23.5 -4.5q18 -8 30 -49q6 -22 11 -35q40 -253 111 -501q16 -58 16 -66q0 -5 -2 -22.5t-2 -29.5v-6l16 -16q5 -26 11.5 -47.5t15.5 -40.5l-4 -6 q16 -37 26 -77.5t12 -83.5l-9 -10q3 -5 10 -18q16 -27 22 -36q9 -40 22 -102q18 -82 19 -91q6 -17 8 -28.5t2 -22.5l5 -17l4 -20q0 -17 -15 -25t-55 -12q-4 0 -19.5 1.5t-39.5 4.5q-4 -7 -8.5 -9.5t-20.5 -2.5q-3 0 -18.5 2.5t-28.5 3.5q-35 8 -47 17.5t-17 26.5 q-4 22 -11 64q-15 92 -26 128q-2 19 -6 53q-6 51 -6 65v8q-9 11 -17.5 19t-15.5 12l-30 -2l-4 8q-18 -3 -33 -4.5t-29 -1.5h-49q-4 0 -13.5 -1.5t-14.5 -2.5q-9 5 -14.5 7.5t-8.5 2.5q-10 -4 -20.5 -6t-22.5 -2q-9 0 -38 4.5t-46 5.5l-21 -2q-41 -6 -58.5 -16t-19.5 -27 q-13 -20 -22 -39t-12 -34q-6 -10 -21 -90q-10 -52 -16 -84zM633 1051l-4 -9q-7 -19 -19.5 -46t-13.5 -35l-1 -3q-28 -66 -28 -92v-6q-12 -10 -18 -15.5t-10 -10.5q-7 -43 -22.5 -84.5t-41.5 -83.5v-7l-4 -16.5t-6 -31.5l-8 -9v-4q18 -5 41 -7.5t55 -2.5q25 0 62 2.5 t130 11.5q6 8 9.5 16.5t3.5 18.5q-15 62 -26 98t-23 64q2 2 2 4q0 12 -11 62t-43 182l-8 4l-12 -2zM745 1717l6 6l4 5q10 14 21 21t27 11q18 -2 79 -82q8 -11 13 -17q2 -3 3.5 -6.5t4.5 -12.5v-1q0 -16 -76 -65q-69 -45 -115 -79l-10 -6l-10 -2q-9 -12 -20 -18t-25 -6 l-12 -9q-4 0 -6.5 -3t-4.5 -9l-11.5 1t-22.5 1l-13 -4q-10 6 -15 11.5t-7 10.5q-14 4 -21.5 11t-11.5 20q2 7 5.5 12t8.5 9q1 1 20 19t36 36l14 19l6 -2l80 73l8 4q5 10 13 21t20 22z" />
<glyph unicode="&#xc2;" horiz-adv-x="1155" d="M293 109q-8 -6 -13.5 -12t-9.5 -14q-1 -16 -7 -28t-17 -20l-2 -12q-3 -22 -35 -103q-16 -39 -25 -61q-6 -5 -13 -6.5t-19 -2.5q-18 0 -39.5 7t-49.5 22q-10 -2 -18 -3t-14 -1q-43 20 -59.5 32.5t-16.5 24.5v7q0 21 7.5 46.5t20.5 52.5q3 8 15 35.5t12 47.5v4 q12 6 17.5 15t5.5 22q3 1 5.5 5.5l2.5 4.5q2 0 4 1t4 3q3 12 11 29.5t8 23.5q6 8 16 17l2 2q15 54 31 115.5t19 69.5q12 15 23.5 41t26.5 75q21 45 32.5 67.5t21.5 36.5v11q0 15 5 38.5t15 53.5q18 18 60 130.5t81 258.5q21 43 31 65t19 41v50q13 22 29 37.5t34 23.5l18 8 l15 -2l10 -2q7 -2 13.5 -3t15.5 -1q12 0 37 5t39 5q11 0 21.5 -2.5t23.5 -7.5l8 -2q7 1 20 3q30 5 39 5q6 0 15.5 -1.5t23.5 -4.5q18 -8 30 -49q6 -22 11 -35q40 -253 111 -501q16 -58 16 -66q0 -5 -2 -22.5t-2 -29.5v-6l16 -16q5 -26 11.5 -47.5t15.5 -40.5l-4 -6 q16 -37 26 -77.5t12 -83.5l-9 -10q3 -5 10 -18q16 -27 22 -36q9 -40 22 -102q18 -82 19 -91q6 -17 8 -28.5t2 -22.5l5 -17l4 -20q0 -17 -15 -25t-55 -12q-4 0 -19.5 1.5t-39.5 4.5q-4 -7 -8.5 -9.5t-20.5 -2.5q-3 0 -18.5 2.5t-28.5 3.5q-35 8 -47 17.5t-17 26.5 q-4 22 -11 64q-15 92 -26 128q-2 19 -6 53q-6 51 -6 65v8q-9 11 -17.5 19t-15.5 12l-30 -2l-4 8q-18 -3 -33 -4.5t-29 -1.5h-49q-4 0 -13.5 -1.5t-14.5 -2.5q-9 5 -14.5 7.5t-8.5 2.5q-10 -4 -20.5 -6t-22.5 -2q-9 0 -38 4.5t-46 5.5l-21 -2q-41 -6 -58.5 -16t-19.5 -27 q-13 -20 -22 -39t-12 -34q-6 -10 -21 -90q-10 -52 -16 -84zM633 1051l-4 -9q-7 -19 -19.5 -46t-13.5 -35l-1 -3q-28 -66 -28 -92v-6q-12 -10 -18 -15.5t-10 -10.5q-7 -43 -22.5 -84.5t-41.5 -83.5v-7l-4 -16.5t-6 -31.5l-8 -9v-4q18 -5 41 -7.5t55 -2.5q25 0 62 2.5 t130 11.5q6 8 9.5 16.5t3.5 18.5q-15 62 -26 98t-23 64q2 2 2 4q0 12 -11 62t-43 182l-8 4l-12 -2zM823 1612l20 2q7 -13 23 -37q3 -4 5 -6h11q15 -11 22 -23.5t7 -25.5q0 -6 -1.5 -14t-5.5 -21q-16 0 -24 -3.5t-16 -12.5q-6 -9 -15.5 -14t-23.5 -7l-16 2q-26 19 -54 45.5 t-34 30.5q-4 12 -9 21t-12 16q-9 9 -37 21q-6 3 -7 3q-17 -7 -44 -31l-18 -15q-3 -13 -12 -23t-25 -16l-6 -7q-20 -24 -37 -35.5t-33 -11.5q-6 0 -12.5 2t-13.5 6q-5 2 -20 10.5t-28 8.5q-9 7 -13.5 14.5t-4.5 14.5v4v-2q4 10 8 32q7 10 15.5 16t23.5 11q6 12 16 20t25 13 l4 8l18 18h-4q8 6 14.5 8.5t12.5 2.5l4 14l23 27h12q14 21 32.5 32t41.5 11h8l12 12q2 0 8 -1t11 -1l18 8l8 -2l-10 -29l24 17q2 -1 7 -6t9 -8l1 -4q13 -11 25.5 -20.5t24.5 -17.5h7l21 -20l-2 6q4 -6 6 -11.5t2 -10.5q2 -4 4 -8.5t4 -12.5z" />
<glyph unicode="&#xc3;" horiz-adv-x="1155" d="M293 109q-8 -6 -13.5 -12t-9.5 -14q-1 -16 -7 -28t-17 -20l-2 -12q-3 -22 -35 -103q-16 -39 -25 -61q-6 -5 -13 -6.5t-19 -2.5q-18 0 -39.5 7t-49.5 22q-10 -2 -18 -3t-14 -1q-43 20 -59.5 32.5t-16.5 24.5v7q0 21 7.5 46.5t20.5 52.5q3 8 15 35.5t12 47.5v4 q12 6 17.5 15t5.5 22q3 1 5.5 5.5l2.5 4.5q2 0 4 1t4 3q3 12 11 29.5t8 23.5q6 8 16 17l2 2q15 54 31 115.5t19 69.5q12 15 23.5 41t26.5 75q21 45 32.5 67.5t21.5 36.5v11q0 15 5 38.5t15 53.5q18 18 60 130.5t81 258.5q21 43 31 65t19 41v50q13 22 29 37.5t34 23.5l18 8 l15 -2l10 -2q7 -2 13.5 -3t15.5 -1q12 0 37 5t39 5q11 0 21.5 -2.5t23.5 -7.5l8 -2q7 1 20 3q30 5 39 5q6 0 15.5 -1.5t23.5 -4.5q18 -8 30 -49q6 -22 11 -35q40 -253 111 -501q16 -58 16 -66q0 -5 -2 -22.5t-2 -29.5v-6l16 -16q5 -26 11.5 -47.5t15.5 -40.5l-4 -6 q16 -37 26 -77.5t12 -83.5l-9 -10q3 -5 10 -18q16 -27 22 -36q9 -40 22 -102q18 -82 19 -91q6 -17 8 -28.5t2 -22.5l5 -17l4 -20q0 -17 -15 -25t-55 -12q-4 0 -19.5 1.5t-39.5 4.5q-4 -7 -8.5 -9.5t-20.5 -2.5q-3 0 -18.5 2.5t-28.5 3.5q-35 8 -47 17.5t-17 26.5 q-4 22 -11 64q-15 92 -26 128q-2 19 -6 53q-6 51 -6 65v8q-9 11 -17.5 19t-15.5 12l-30 -2l-4 8q-18 -3 -33 -4.5t-29 -1.5h-49q-4 0 -13.5 -1.5t-14.5 -2.5q-9 5 -14.5 7.5t-8.5 2.5q-10 -4 -20.5 -6t-22.5 -2q-9 0 -38 4.5t-46 5.5l-21 -2q-41 -6 -58.5 -16t-19.5 -27 q-13 -20 -22 -39t-12 -34q-6 -10 -21 -90q-10 -52 -16 -84zM633 1051l-4 -9q-7 -19 -19.5 -46t-13.5 -35l-1 -3q-28 -66 -28 -92v-6q-12 -10 -18 -15.5t-10 -10.5q-7 -43 -22.5 -84.5t-41.5 -83.5v-7l-4 -16.5t-6 -31.5l-8 -9v-4q18 -5 41 -7.5t55 -2.5q25 0 62 2.5 t130 11.5q6 8 9.5 16.5t3.5 18.5q-15 62 -26 98t-23 64q2 2 2 4q0 12 -11 62t-43 182l-8 4l-12 -2zM590 1550q-10 1 -16.5 7.5t-6.5 15.5v6l-4 2q-11 11 -20.5 16t-20.5 5q-9 0 -18.5 -3.5t-25.5 -13.5l-11 -8q-5 -11 -8 -20.5t-5 -17.5l4 -17v-10q0 -13 -10 -22t-26 -9 q-6 0 -12 2t-13 6l-10 4h-4l-19 -6q-9 2 -17 7t-13 13v72l6 -10l4 14l-6 16q1 9 3 14t5 10q5 9 11 15t13 9v6q24 35 59.5 51.5t92.5 18.5l21 -2q5 1 10.5 1.5t17.5 0.5q9 0 16.5 -2.5t11.5 -5.5h9q12 0 27.5 -6t35.5 -19l11 -4q14 -26 27.5 -43t27.5 -25q10 -10 21.5 -15 t23.5 -5q9 0 16.5 2t14.5 6l10 2l4 2q8 13 12.5 25t4.5 22v12q0 13 6.5 19t19.5 8l10 -2l17 2l14 -4l21 2h6q8 0 14.5 -3.5t11.5 -10.5q0 -13 3 -28t3 -17q0 -9 -1.5 -14t-5.5 -10l3 -7q0 -5 -1 -9t-5 -12v-8q0 -13 -6 -22.5t-18 -16.5l-7 -18q-17 -9 -24.5 -14t-11.5 -10 q-23 -19 -53.5 -27t-75.5 -8q-5 0 -15 2l-8 2l-16 -4l-6 2h-11q-14 0 -32.5 6.5t-42.5 21.5v6q-9 2 -14 5t-9 10l-8 8q-7 3 -10 19q-1 8 -2 13z" />
<glyph unicode="&#xc4;" horiz-adv-x="1155" d="M293 109q-8 -6 -13.5 -12t-9.5 -14q-1 -16 -7 -28t-17 -20l-2 -12q-3 -22 -35 -103q-16 -39 -25 -61q-6 -5 -13 -6.5t-19 -2.5q-18 0 -39.5 7t-49.5 22q-10 -2 -18 -3t-14 -1q-43 20 -59.5 32.5t-16.5 24.5v7q0 21 7.5 46.5t20.5 52.5q3 8 15 35.5t12 47.5v4 q12 6 17.5 15t5.5 22q3 1 5.5 5.5l2.5 4.5q2 0 4 1t4 3q3 12 11 29.5t8 23.5q6 8 16 17l2 2q15 54 31 115.5t19 69.5q12 15 23.5 41t26.5 75q21 45 32.5 67.5t21.5 36.5v11q0 15 5 38.5t15 53.5q18 18 60 130.5t81 258.5q21 43 31 65t19 41v50q13 22 29 37.5t34 23.5l18 8 l15 -2l10 -2q7 -2 13.5 -3t15.5 -1q12 0 37 5t39 5q11 0 21.5 -2.5t23.5 -7.5l8 -2q7 1 20 3q30 5 39 5q6 0 15.5 -1.5t23.5 -4.5q18 -8 30 -49q6 -22 11 -35q40 -253 111 -501q16 -58 16 -66q0 -5 -2 -22.5t-2 -29.5v-6l16 -16q5 -26 11.5 -47.5t15.5 -40.5l-4 -6 q16 -37 26 -77.5t12 -83.5l-9 -10q3 -5 10 -18q16 -27 22 -36q9 -40 22 -102q18 -82 19 -91q6 -17 8 -28.5t2 -22.5l5 -17l4 -20q0 -17 -15 -25t-55 -12q-4 0 -19.5 1.5t-39.5 4.5q-4 -7 -8.5 -9.5t-20.5 -2.5q-3 0 -18.5 2.5t-28.5 3.5q-35 8 -47 17.5t-17 26.5 q-4 22 -11 64q-15 92 -26 128q-2 19 -6 53q-6 51 -6 65v8q-9 11 -17.5 19t-15.5 12l-30 -2l-4 8q-18 -3 -33 -4.5t-29 -1.5h-49q-4 0 -13.5 -1.5t-14.5 -2.5q-9 5 -14.5 7.5t-8.5 2.5q-10 -4 -20.5 -6t-22.5 -2q-9 0 -38 4.5t-46 5.5l-21 -2q-41 -6 -58.5 -16t-19.5 -27 q-13 -20 -22 -39t-12 -34q-6 -10 -21 -90q-10 -52 -16 -84zM633 1051l-4 -9q-7 -19 -19.5 -46t-13.5 -35l-1 -3q-28 -66 -28 -92v-6q-12 -10 -18 -15.5t-10 -10.5q-7 -43 -22.5 -84.5t-41.5 -83.5v-7l-4 -16.5t-6 -31.5l-8 -9v-4q18 -5 41 -7.5t55 -2.5q25 0 62 2.5 t130 11.5q6 8 9.5 16.5t3.5 18.5q-15 62 -26 98t-23 64q2 2 2 4q0 12 -11 62t-43 182l-8 4l-12 -2zM934 1596q5 -7 7.5 -12t2.5 -6q-2 -13 -4 -21t-4 -12q-3 -23 -21 -42t-20 -24q-13 -3 -25 -4.5t-24 -1.5q-21 0 -42.5 5.5t-44.5 17.5q-16 21 -23 37.5t-7 31.5l2 18l4 11 l-2 8q0 7 1.5 13.5t4.5 13.5q2 8 9.5 17t23.5 21l2 5q18 11 34.5 16.5t32.5 5.5q27 0 50.5 -13.5t29.5 -30.5q3 -7 5 -13.5t4 -16.5l6 -10zM569 1596q6 -8 8 -12t2 -7q-1 -9 -4.5 -20.5t-3.5 -12.5q-3 -23 -20.5 -41t-20.5 -24q-12 -3 -25 -4.5t-26 -1.5q-21 0 -42 5.5 t-44 16.5q-13 18 -20 35t-9 35l2 18l4 11l-2 8q0 16 9 32t29 34l4 4q16 10 33 16t32 6q25 0 50 -14t32 -31q3 -3 5.5 -9.5t4.5 -19.5l4 -10z" />
<glyph unicode="&#xc5;" horiz-adv-x="1155" d="M293 109q-8 -6 -13.5 -12t-9.5 -14q-1 -16 -7 -28t-17 -20l-2 -12q-3 -22 -35 -103q-16 -39 -25 -61q-6 -5 -13 -6.5t-19 -2.5q-18 0 -39.5 7t-49.5 22q-10 -2 -18 -3t-14 -1q-43 20 -59.5 32.5t-16.5 24.5v7q0 21 7.5 46.5t20.5 52.5q3 8 15 35.5t12 47.5v4 q12 6 17.5 15t5.5 22q1 3 2.5 4.5t3.5 1.5t2 -2h2v2q0 1 1 2.5t5 5.5q3 12 11 29.5t8 23.5q6 8 16 17l2 2q15 54 31 115.5t19 69.5q12 15 23.5 41t26.5 75q21 45 32.5 67.5t21.5 36.5v11q0 15 5 38.5t15 53.5q18 18 60 130.5t81 258.5q21 43 31 65t19 41v50q13 22 29 37.5 t34 23.5l18 8l15 -2l10 -2q7 -2 13.5 -3t15.5 -1q12 0 37 5t39 5q11 0 21.5 -2.5t23.5 -7.5l8 -2q7 1 20 3q30 5 39 5q6 0 15.5 -1.5t23.5 -4.5q18 -8 30 -49q6 -22 11 -35q40 -253 111 -501q16 -58 16 -66q0 -5 -2 -22.5t-2 -29.5v-6l16 -16q5 -26 11.5 -47.5t15.5 -40.5 l-4 -6q16 -37 26 -77.5t12 -83.5l-9 -10q3 -5 10 -18q16 -27 22 -36q9 -40 22 -102q18 -82 19 -91q6 -17 8 -28.5t2 -22.5l5 -17l4 -20q0 -17 -15 -25t-55 -12q-4 0 -19.5 1.5t-39.5 4.5q-4 -7 -8.5 -9.5t-20.5 -2.5q-3 0 -18.5 2.5t-28.5 3.5q-35 8 -47 17.5t-17 26.5 q-4 22 -11 64q-15 92 -26 128q-2 19 -6 53q-6 51 -6 65v8q-9 11 -17.5 19t-15.5 12l-30 -2l-4 8q-18 -3 -33 -4.5t-29 -1.5h-49q-4 0 -13.5 -1.5t-14.5 -2.5q-9 5 -14.5 7.5t-8.5 2.5q-10 -4 -20.5 -6t-22.5 -2q-9 0 -38 4.5t-46 5.5l-21 -2q-41 -6 -58.5 -16t-19.5 -27 q-13 -20 -22 -39t-12 -34q-6 -10 -21 -90q-10 -52 -16 -84zM633 1051l-4 -9q-7 -19 -19.5 -46t-13.5 -35l-1 -3q-28 -66 -28 -92v-6q-12 -10 -18 -15.5t-10 -10.5q-7 -43 -22.5 -84.5t-41.5 -83.5v-7l-4 -16.5t-6 -31.5l-8 -9v-4q18 -5 41 -7.5t55 -2.5q25 0 62 2.5 t130 11.5q6 8 9.5 16.5t3.5 18.5q-15 62 -26 98t-23 64q2 2 2 4q0 12 -11 62t-43 182l-8 4l-12 -2zM821 1618q6 -20 8 -36.5t2 -33.5l-6 -8q-7 -40 -21.5 -66.5t-34.5 -39.5q-17 -15 -35.5 -22t-42.5 -9l-15 -4q-6 0 -14 1t-11 1h-6q-21 0 -43.5 7t-48.5 22l-8 6l-2 8 q-13 14 -21 22q-14 21 -20 39t-6 39q0 12 2.5 33t3.5 31l2 8l4 6q12 28 21.5 42.5t19.5 18.5l10 13q20 14 48 21t61 7h6q51 0 94.5 -31.5t52.5 -74.5zM641 1477l8 -4q2 4 5 7t10 5l13 -2q12 2 18.5 5t13.5 9q8 13 13 23.5t5 15.5v4l4 16q0 7 -2 17.5t-2 15.5 q-8 25 -21.5 36.5t-35.5 12.5h-15q-29 0 -44 -20t-15 -59v-19l2 -14v-6l12 -21l11 -4l12 -8z" />
<glyph unicode="&#xc6;" horiz-adv-x="1675" d="M250 27q-11 -34 -42 -90t-41 -81q-6 -4 -13.5 -6t-24.5 -2q-16 0 -38.5 8.5t-41.5 22.5q-15 -2 -23 -3t-14 -1q-1 1 -5 3q-58 31 -62 48q-3 6 -4.5 12.5t-1.5 14.5q0 12 12 35.5t34 51.5q4 14 18.5 41.5t16.5 44.5q13 5 20.5 14t10.5 23q4 4 8 7.5t9 8.5q3 12 12 28.5 t11 22.5q2 1 4.5 4.5l2.5 3.5q2 0 9 6l8 6q7 25 25 72.5t44 111.5q17 23 55.5 100.5t75.5 120.5v4q0 15 8 41t23 58q19 14 74 127t110 262q28 43 41 65t23 42l8 49q21 26 36.5 39.5t31.5 19.5q3 2 7 4t11 4l14 -2l11 -2q1 0 4 -1q16 -3 24 -3q14 0 40 5t38 5q11 0 33 -7 q7 -2 10 -3l8 -2q2 0 7 1q42 7 59 7q7 0 13 -1t14 -3l22 2h6q10 0 45 -4t60 -4q12 0 19 1t13 3h74q1 -6 5.5 -11.5t9.5 -7.5q9 4 14.5 8t7.5 7l8 10l13 -4q9 1 17 2.5t15 3.5l17 -10q40 4 94 10t63 6h15q6 2 12 2q0 -1 5 -3q1 0 3 -1q13 -13 19 -25.5t6 -27.5 q0 -3 -1.5 -13.5t-4.5 -30.5l1 -3q3 -8 3 -10q0 -4 -2 -9q0 -7 1.5 -8t2.5 -4q-2 -52 -13.5 -75t-35.5 -23q-11 0 -27.5 5t-24.5 5h-6q-17 6 -27.5 8t-19.5 2q-4 0 -13.5 -2t-20.5 -6q-5 6 -9.5 9.5t-9.5 4.5q-3 0 -10 -1.5t-11 -2.5q-4 1 -12.5 2.5t-11.5 1.5 q-5 0 -9.5 -0.5t-9.5 -1.5h-43q-28 0 -52 -0.5t-48 -1.5l-4 2q-8 -4 -18.5 -6t-22.5 -2q-10 0 -21 0.5t-24 1.5q-4 -5 -6 -21t-2 -46q0 -40 7 -103.5t19 -125.5q4 -22 10 -29t21 -7q3 0 16 1.5t23 1.5q3 0 21 -1.5t32 -1.5h27q18 1 29.5 2.5t16.5 3.5q12 -5 21.5 -7.5 t18.5 -2.5q4 0 27.5 5t40.5 7l6 -12h65q30 0 65 4t76 13h7q23 0 35 -17.5t12 -52.5q0 -8 -1.5 -25t-4.5 -45l4 -22q-4 -24 -11 -40.5t-18 -27.5q-2 0 -7 -2q-17 -6 -23 -6q-16 2 -29.5 5t-14.5 3h-4q-13 0 -41.5 2t-44.5 2q-14 0 -27.5 -2.5t-25.5 -7.5q-6 8 -17.5 12 t-27.5 5q-7 0 -18 -1.5t-28 -4.5l-7 8h-7l-20 4h-12q-3 0 -11.5 -1t-15.5 -1h-6q-19 -5 -38 -7.5t-40 -3.5q-20 0 -29.5 -6.5t-9.5 -21.5q0 -9 2 -20t6 -23l-10 -6q12 -31 18.5 -63.5t6.5 -65.5q0 -1 -1 -11.5t-1 -22.5q2 -7 4 -21q4 -29 14 -42q2 -47 10.5 -69t26.5 -29 l23 -6l22 -2h6q23 2 43 2l23 -4l14 -2l21 2l12 -2h8q13 0 22.5 4t18.5 14q22 -4 47 -20q0 2 12 2h9q5 2 9 5t9 9l16 -2h4q16 5 28 7.5t22 2.5q4 0 21 -5q5 -2 7 -3q10 -10 15 -57q2 -18 4 -29q-1 -4 -4 -24.5t-8 -33.5v-5q4 -19 4 -25q0 -15 -6.5 -27.5t-18.5 -23.5 q-16 -3 -23.5 -3.5t-15.5 -0.5q-23 0 -65.5 5t-61.5 5h-20l2 4l-19 -10q-9 0 -24 4q-5 1 -9 2q-6 -2 -19 -10q-5 -3 -7 -4q-3 4 -6.5 6t-8.5 2q-19 4 -41 6t-49 2q-13 0 -44.5 -1t-49.5 -1q-20 0 -31.5 1t-23.5 3h-12q-4 -6 -9 -8t-20 -2q-3 0 -17.5 2.5t-27.5 3.5 q-4 1 -9.5 2t-9.5 2l-6 2q-15 5 -23 14t-12 26q-6 106 -9 142t-7 50v65q0 20 1 36t3 26q-8 11 -14.5 17.5t-14.5 10.5l-16 -2l-20 17l-1 -9q-15 -3 -30 -4.5t-29 -1.5h-37q-7 0 -14.5 -0.5t-25.5 -3.5q-5 3 -9.5 5.5t-12.5 4.5q-9 -4 -20 -6t-24 -2q-9 0 -38 4.5t-45 5.5 l-20 -2q-28 0 -49 -11t-37 -34q-21 -25 -37.5 -60t-27.5 -79l-19 -14q-6 -17 -9.5 -29t-4.5 -20l2 -16q-12 -4 -34 -55q-13 -33 -23 -54zM831 638q-1 11 -4 31q-13 88 -26 131q0 8 1 16.5t1 10.5q-14 146 -21.5 187t-15.5 47q-36 -50 -63 -104.5t-37 -98.5 q-9 -6 -16.5 -12.5t-14.5 -14.5q-14 -48 -34.5 -89.5t-47.5 -77.5v-5q0 -3 -5 -17t-13 -34l-13 -8v-4q17 -4 36.5 -6t53.5 -2q29 0 68.5 2.5t130.5 11.5q9 11 13 18.5t7 17.5z" />
</font>
</defs>
</svg>
