<?xml version="1.0" standalone="no"?>
<!DOCTYPE svg PUBLIC "-//W3C//DTD SVG 1.1//EN" "http://www.w3.org/Graphics/SVG/1.1/DTD/svg11.dtd" >
<svg xmlns="http://www.w3.org/2000/svg">
<metadata></metadata>
<defs>
<font id="laurenscriptregular" horiz-adv-x="500" >
<font-face units-per-em="1000" ascent="800" descent="-200" />
<missing-glyph horiz-adv-x="500" />
<glyph unicode="&#xd;" />
<glyph unicode=" " />
<glyph unicode="!" horiz-adv-x="282" d="M235 1074q-2 -5 -6.5 -232t-21.5 -370q-25 -211 -81 -243v52q8 18 12 61.5t4 95.5q0 72 -1 111q-5 197 -5 205q0 147 12 224q16 104 57 140h30v-44zM125 71q0 -20 -20 -34q-15 -11 -25 -11q-17 0 -30.5 12.5t-13.5 27.5q0 17 14.5 32.5t35.5 15.5q20 0 29.5 -8.5 t9.5 -34.5z" />
<glyph unicode="&#x22;" horiz-adv-x="372" d="M160 921q6 -24 6 -46q0 -48 -35 -120q-20 -40 -39 -80l-36 -10l-6 22q22 30 35 55q22 43 22 78q0 11 -3.5 24.5t-41.5 34.5t-46 52q-3 12 -3 23q0 22 13.5 34t40.5 19q10 2 14 2q26 0 47 -24t32 -64zM344 921q6 -24 6 -46q0 -48 -35 -120q-20 -40 -39 -80l-36 -10l-6 22 q22 30 35 55q22 43 22 78q0 11 -3.5 24.5t-41.5 34.5t-46 52q-3 12 -3 23q0 22 13.5 34t40.5 19q10 2 14 2q26 0 47 -24t32 -64z" />
<glyph unicode="#" />
<glyph unicode="$" />
<glyph unicode="%" />
<glyph unicode="&#x26;" horiz-adv-x="708" d="M515 -124l-21 8q-22 9 -39 64.5t-30 60t-25 4.5q-8 0 -28 -3t-36 -3q-24 0 -41.5 3.5t-53.5 15.5q-96 35 -162 116q-69 85 -69 181q0 24 3.5 44t11.5 42q26 72 85 122.5t120 100.5q2 5 2 22q0 14 -5 72t-5 93q0 58 12 93q16 44 46 64.5t65 20.5q15 0 32 -5q36 -14 62 -60 t26 -98q0 -30 -11 -60l-24 -67q-14 -40 -72 -108q-19 -22 -55 -60q-4 -10 24 -114.5t61 -199.5q40 -116 69 -153q26 12 47 29q26 21 35 39q9 26 9 49q0 57 -47 116q-105 94 -113 104q23 24 54 24q22 0 51 -12q59 -21 89 -71q27 -45 27 -105q0 -23 -4 -45t-12 -46 q-17 -45 -66 -93q-16 -16 -48 -40q-6 -14 15 -60q18 -39 33 -56zM380 751l38 103q-7 6 -13.5 39t-30.5 42q-6 2 -12 2q-17 0 -35.5 -11t-26.5 -31l-23 -65q-4 -11 -6 -26t-2 -29q0 -24 3.5 -47t8.5 -49q32 0 52.5 34t46.5 38zM400 59q-8 18 -43 126q-15 46 -63 198 q-33 104 -33 105q-51 -58 -54 -62q-34 -42 -43 -68l-20 -57q-9 -24 -9 -50q0 -59 39.5 -112.5t96.5 -73.5q32 -12 69 -12q27 0 60 6z" />
<glyph unicode="'" horiz-adv-x="192" d="M190 662q0 -45 -24 -88q-4 -8 -105 -132h-38v22q48 40 70 73.5t22 63.5q0 16 -31 46t-31 62q0 34 18.5 47t50.5 13q31 0 49.5 -29.5t18.5 -77.5z" />
<glyph unicode="(" horiz-adv-x="312" d="M315 1014q10 0 10 -9q0 -18 -65 -106q-88 -119 -122 -175q-66 -109 -66 -173q0 -68 40 -203q27 -90 76 -221q22 -59 44 -117q5 -22 5 -29l-60 68q-64 110 -113 241q-61 161 -61 257q0 130 79 246q55 80 149 155z" />
<glyph unicode=")" horiz-adv-x="679" d="M309 547q0 -90 -52 -236q-42 -119 -103 -232q-57 -106 -74 -106q-4 0 -4 9q0 6 1.5 14t2.5 14l44 116q49 131 76 221q40 135 40 204q0 65 -65 172q-34 56 -122 175q-66 89 -66 107q0 9 10 9q41 -33 83 -65q94 -74 149 -155q80 -117 80 -247z" />
<glyph unicode="*" horiz-adv-x="1808" d="M1281 866h-303v102h303v-102zM338 560l-50 -120h14l4 9v-9l-39 -78l-7 6v12l70 201h8v-21zM905 767q0 -69 -39 -120q-48 -63 -141 -75q-63 -9 -68 -14q-28 -28 -73 -184h64q0 36 18.5 80t31.5 49l-39 -96v-15q24 0 68 54t52 54q-19 -32 -26 -52q-10 -27 -10 -59h-14v30 h-7l-63 -51l144 -390v-10h-402l96 253h102v6l-50 141l35 3q-1 1 -6 5q-1 1 -5 4q0 16 -1 18q-19 -12 -37 -23q-28 -16 -43 -16q-7 0 -11 16q0 2 -2 8q0 23 36 65.5t66 42.5q4 0 16 -13q4 -4 9 -8q5 11 16.5 44t18.5 55h-138v252h102v-150h106q13 0 35 12q57 31 57 84 q0 33 -31 66t-61 33h-258v102h261q79 0 135 -61t56 -140zM1581 530q-45 -24 -75 -41t-55 -49h24q12 0 31.5 7.5t53.5 7.5q-12 -27 -46.5 -53t-61.5 -28q6 7 36 26t41 40h-11l-75 -24h-10v15q0 12 57 57t78 45zM936 530q-18 -19 -43 -27q-50 -16 -87 -63h25q12 0 26 4 q38 11 57 11q-5 -12 -10 -19q-31 -44 -95 -62q6 8 50 38q15 11 25 28h-11q-25 -11 -54 -19q-9 -2 -24 -5q-10 0 -10 15q3 5 6 9q17 22 54 48l58 38q12 7 20 7zM1422 509q0 -52 -70.5 -77t-70.5 -40q0 -6 10 -12t16 -6q14 0 53 23q47 28 59 31q-24 -28 -58.5 -47t-53.5 -19 q-13 0 -21 12t-8 27q0 6 -1 9q-3 5 -3 6q1 1 53 67q32 41 79 41q16 0 16 -15zM1254 512l-43 -114v-9q0 -10 -9 -17q-5 -4 -14 -10q1 3 0 9q0 2 -1 6l60 141zM465 470q0 -12 -12 -55t-24 -47v15q6 19 12 38.5t12 51.5q-29 -8 -57 -47q-22 -31 -40 -49h-11q8 27 17 54 q18 52 28 60v-15q-3 -8 -6 -19.5t-4 -19.5q12 4 33 26t40 28h12v-21zM1281 569h-256q-6 -9 -14 -24t-12 -24h18q9 4 21.5 7t17.5 5h21v-15q-9 -4 -14 -4q-6 4 -20 4q-46 0 -66 -34q-18 -46 -30 -68v-15h10q0 -18 -3 -27h113q0 27 19.5 53t40.5 52q-15 10 -29 21h18l6 -6 q7 -6 15 -6q1 0 15 6t21 6l11 -3q-21 -11 -40 -34q-30 -37 -46 -92q94 -27 137 -75t43 -126q0 -82 -62 -144q-58 -58 -128 -58h-212v253h102v-150h107q30 0 60.5 33.5t30.5 65.5q0 31 -31 65t-60 34h-209v102h57q0 23 8 49q19 63 19 68q-7 -7 -19 -12v12q18 12 36 25 q17 19 30 56h-29v252h303v-102h-201v-48h201v-102zM1757 -32h-401l95 253h102v6l-50 144h110l144 -393v-10zM327 -32h-102v247q0 16 -12 33q-15 21 -37 21q-19 0 -34.5 -16.5t-15.5 -37.5v-345h-102v360q0 56 48 102q41 39 104 39q60 0 105.5 -43.5t45.5 -97.5v-262z M1278 872v93h-295v-93h295zM1278 572v93h-201v57h201v96h-295v-246h24q2 20 26 62q7 13 23 37h14v-12q-2 -3 -20 -41q-8 -18 -22 -46h214q5 9 15 9q5 0 11 -3zM1412 500v15h-11q-23 0 -51 -26q-47 -60 -48 -61q22 3 51 20q35 21 59 52zM591 440q0 11 -2 16q-3 6 -13 17 q-20 -11 -31 -18q-38 -23 -56 -78h14q10 0 47 24q41 27 41 39zM1124 437v12q-14 -13 -24.5 -31.5t-19.5 -34.5q19 5 28 24q14 28 16 30zM1754 -28l-144 396h-102l112 -291v-9h-127v9l60 138l-99 3l-92 -235v-11h392zM1275 170q0 27 -15.5 66.5t-39.5 64.5t-54 43 q-40 24 -74 24h-141q-6 -12 -22 -12v12h-48v-96h211q28 0 57.5 -30.5t29.5 -71.5q0 -39 -28.5 -70.5t-58.5 -31.5h-117v150h-94v-246h204q69 0 129.5 58.5t60.5 139.5zM800 -28l-146 396h-102h5l108 -291v-9h-126v9l60 138l-99 3l-92 -235v-11h392zM1610 74q-4 6 -26 66.5 t-24 68.5q-9 -15 -21 -46q-28 -76 -36 -89h107zM654 74l-49 135q-17 -34 -32 -80q-11 -34 -24 -55h105zM324 -28v255q0 37 -41 85q-48 56 -107 56q-54 0 -101.5 -43.5t-47.5 -97.5v-354h96v348q0 21 16 36t37 15q18 0 35 -16t17 -35v-249h96zM600 665l2 153h-95v-246h131 l25 72l20 3l-24 -75h60q9 4 26 5t34 7q40 17 77 63q46 57 46 120q0 69 -53 130q-59 68 -138 68h-253v-93h261q25 0 54 -31q33 -35 33 -74q0 -63 -58 -89q-19 -8 -58 -13h-90z" />
<glyph unicode="+" />
<glyph unicode="," horiz-adv-x="192" d="M150 54q0 -45 -24 -88q-4 -8 -105 -132h-38v22q48 40 70 73.5t22 63.5q0 16 -31 46t-31 62q0 34 18.5 47t50.5 13q31 0 49.5 -29.5t18.5 -77.5z" />
<glyph unicode="-" horiz-adv-x="336" d="M0 488q2 10 2 14t-2 18h176q21 0 41 -0.5t39 -0.5q18 0 24 1v-39q-19 -5 -32.5 -7.5t-22.5 -2.5q-8 0 -21 1.5t-16 1.5q-16 0 -27 -2q-62 4 -104.5 5.5t-56.5 10.5z" />
<glyph unicode="." horiz-adv-x="181" d="M150 72q0 -33 -32 -55q-24 -17 -39 -17q-27 0 -49 20t-22 43q0 25 22 50q26 29 58 29q39 0 53 -25q9 -16 9 -45z" />
<glyph unicode="/" horiz-adv-x="282" d="M288 1061q-5 -8 -52 -302q-56 -345 -100 -533q-69 -290 -129 -312l9 52q26 38 63 322q52 399 72 507q51 275 115 314l30 -5z" />
<glyph unicode="0" horiz-adv-x="856" d="M775 531q0 -66 -46 -184q-55 -142 -134 -233q-100 -115 -213 -115h-101q-90 0 -178 93q-102 108 -102 263v23t2 26q-3 11 -5 16q0 1 -1 3q2 -2 3 -2q3 1 3 21q0 100 57 233t143 223q96 101 192 101h139q14 0 62 -25q72 -37 116 -93q63 -79 63 -186v-164zM597 556v215 q0 63 -63 120q-21 19 -63 45q-78 0 -147 -108q-49 -77 -89 -201q-15 -55 -30 -109v-241q9 -63 21 -94q38 -95 118 -95q82 0 145 96q50 76 82 201q26 102 26 171z" />
<glyph unicode="1" horiz-adv-x="611" d="M555 938q-85 -214 -115 -481q-36 -323 -39 -333q-32 -124 -142 -124q-74 0 -74 74q0 81 45 208q42 109 86.5 225t44.5 177q0 17 -3 32l-334 -333h-24v49l506 568h49v-62z" />
<glyph unicode="2" horiz-adv-x="839" d="M763 738q0 -130 -118 -232q-51 -44 -230 -148q-133 -77 -152 -133l300 -100q21 0 102 65q45 36 73 48v-50q-84 -118 -146 -153t-142 -35q-71 0 -161 50t-139 50q-15 0 -77 -46q-37 -27 -73 -41v50q55 91 221 235q201 174 256 236q123 139 123 266q0 66 -59 112 q-49 38 -91 38q-65 0 -134 -48q-91 -63 -91 -164q0 -74 62 -98q50 -20 76 -40q-27 -24 -38.5 -32.5t-19.5 -8.5q-2 0 -19 2t-36 2q-85 0 -123.5 42.5t-38.5 119.5q0 115 124 203q102 72 176 72h137q73 0 145 -60q93 -77 93 -202z" />
<glyph unicode="3" horiz-adv-x="825" d="M750 775q0 -58 -58 -122q-132 -105 -142 -115q1 -2 112 -73q63 -41 63 -165q0 -96 -75 -172q-58 -58 -150 -97q-74 -31 -112 -31h-163q-71 0 -135 44q-90 62 -90 181q0 72 22.5 98.5t77.5 26.5q48 0 68 -12t20 -50q0 -35 -31.5 -69.5t-31.5 -68.5q0 -49 45 -76 q40 -24 105 -24q113 0 187 85q88 101 88 190q0 100 -101 138q-63 24 -172 24h-27.5h-11.5v51q89 21 175.5 43.5t119.5 59.5q42 47 42 147q0 137 -112 137h-100q-32 0 -81 -38q-57 -44 -57 -87q0 -37 37 -53q28 -12 75 -12q20 0 35 1t28 2v-38q-39 -11 -81 -35 q-26 -15 -69 -15q-53 0 -90 36q-47 46 -47 89q14 29 29 58q43 67 112 108q98 59 234 59q96 0 176 -63q86 -68 86 -162z" />
<glyph unicode="4" horiz-adv-x="746" d="M678 378q-38 -18 -66 -26t-50 -8q-29 0 -43 17q-4 5 -8 17q-27 0 -37 -98q-14 -138 -29 -182q-32 -98 -112 -98q-24 0 -45 22t-21 45l88 266v34q-99 0 -148.5 -2t-112.5 -4q-35 0 -94 6v33q138 173 199 340q28 98 56 197q23 63 100 63q78 0 78 -56q0 -34 -64 -146 q-60 -104 -130 -208q-63 -93 -106 -146h222q44 0 76.5 64.5t63.5 129.5q44 80 105 106v-44q-22 -55 -41.5 -123t-47.5 -99v-67h167v-33z" />
<glyph unicode="5" horiz-adv-x="811" d="M737 963q-15 -59 -79 -99q-81 -51 -146 -51h-225q-51 0 -73 -86.5t-27 -101.5q17 -4 40.5 -7.5t37.5 -3.5q16 0 60 5.5t62 5.5q134 0 228 -61q110 -72 110 -201q0 -163 -121 -265q-116 -98 -292 -98q-121 0 -210 56q-102 64 -102 169q0 36 18 67q27 46 82 46 q40 0 57.5 -17.5t17.5 -57.5q0 -32 -19 -65t-19 -60q0 -38 59 -59q45 -16 91 -16q122 0 199 114q64 95 64 198q0 99 -61 146q-54 42 -152 42q-103 0 -158.5 -56.5t-78.5 -56.5q-15 0 -26.5 11.5t-11.5 26.5l50 132q61 159 100 247q59 133 75 133q40 -12 62 -18 q71 -19 101 -19q117 0 163 4l60 12q4 0 23.5 -5.5t40.5 -10.5z" />
<glyph unicode="6" horiz-adv-x="786" d="M714 345q0 -146 -118 -249q-110 -96 -251 -96q-164 0 -263 128q-82 106 -82 229q0 159 133 321q110 134 273 233q147 89 225 89q13 0 15 -3q10 -13 20 -21q-13 -21 -115 -78q-122 -67 -187 -131q-107 -105 -150 -255q27 4 107 46q70 37 155 37q106 0 172 -71t66 -179z M535 274v166q-29 15 -58 49q-19 23 -61 23q-59 0 -108 -46q-72 -68 -106 -85v-167q0 -41 41.5 -92t89.5 -51q88 0 130 55z" />
<glyph unicode="7" horiz-adv-x="755" d="M687 916q-176 -287 -274 -549q-49 -143 -97 -285q-36 -82 -123 -82q-46 0 -65 10.5t-19 37.5q0 69 106 236l196 290q107 160 107 209q-30 10 -183 51q-78 21 -82 21q-106 0 -139 -126.5t-77 -126.5q-23 0 -30 10t-7 29v10l121 349h36v-60q62 11 102 33q26 15 91 15 t116 -36t101 -36q37 0 49 14q18 21 71 34v-48z" />
<glyph unicode="8" horiz-adv-x="880" d="M800 763q0 -46 -40 -92q-10 -11 -148 -121q78 -63 109 -93q54 -53 54 -157q0 -139 -106.5 -219.5t-293.5 -80.5q-197 0 -294 78q-81 65 -81 172q0 54 60 117q46 48 112 93q32 20 65 40q-42 47 -84 95q-28 49 -28 118q0 88 91 179q108 108 259 108q119 0 216 -62 q109 -70 109 -175zM650 775q0 70 -68 116q-51 34 -82 34q-88 0 -150.5 -45.5t-62.5 -104.5q0 -57 91 -114q77 -48 109 -48q78 0 126 66q37 51 37 96zM612 225q0 64 -74 119q-54 40 -138 71q-63 23 -75 23q-54 0 -111 -79q-52 -72 -52 -121q0 -59 50 -113q46 -50 88 -50h162 q32 0 83 36q67 48 67 114z" />
<glyph unicode="9" horiz-adv-x="795" d="M723 566q0 -96 -107.5 -231t-253.5 -231q-158 -104 -278 -104h-48v48q197 79 296 164q117 101 162 258h-60q-63 -43 -93 -55q-41 -17 -100 -17q-94 0 -167.5 78.5t-73.5 162.5q0 144 108.5 252.5t253.5 108.5q110 0 201 -54q74 -44 120 -112q40 -59 40 -99v-169zM518 699 q0 5 1.5 25t1.5 26q0 72 -24 114q-36 64 -123 64q-82 0 -129 -80q-40 -69 -40 -161v-109q0 -36 29 -60t67 -24q67 0 136 53q81 62 81 152z" />
<glyph unicode=":" horiz-adv-x="181" d="M150 72q0 -33 -32 -55q-24 -17 -39 -17q-27 0 -49 20t-22 43q0 25 22 50q26 29 58 29q39 0 53 -25q9 -16 9 -45zM168 396q0 -33 -32 -55q-24 -17 -39 -17q-27 0 -49 20t-22 43q0 25 22 50q26 29 58 29q39 0 53 -25q9 -16 9 -45z" />
<glyph unicode=";" horiz-adv-x="181" d="M168 396q0 -33 -32 -55q-24 -17 -39 -17q-27 0 -49 20t-22 43q0 25 22 50q26 29 58 29q39 0 53 -25q9 -16 9 -45zM150 54q0 -45 -24 -88q-4 -8 -105 -132h-38v22q48 40 70 73.5t22 63.5q0 16 -31 46t-31 62q0 34 18.5 47t50.5 13q31 0 49.5 -29.5t18.5 -77.5z" />
<glyph unicode="&#x3c;" />
<glyph unicode="=" />
<glyph unicode="&#x3e;" />
<glyph unicode="?" horiz-adv-x="693" d="M375 72q0 -33 -32 -55q-24 -17 -39 -17q-27 0 -49 20t-22 43q0 25 22 50q26 29 58 29q39 0 53 -25q9 -16 9 -45zM510 800q0 66 -59 112q-49 38 -91 38q-65 0 -134 -48q-91 -63 -91 -164q0 -74 62 -98q50 -20 76 -40q-27 -24 -38.5 -32.5t-19.5 -8.5q-2 0 -19 2t-36 2 q-85 0 -123.5 42.5t-38.5 119.5q0 115 124 203q102 72 176 72h137q73 0 145 -60q93 -77 93 -202q0 -130 -81 -223q-37 -42 -160 -130q-97 -69 -115 -124q8 15 115 192q45 74 61.5 141.5t16.5 205.5z" />
<glyph unicode="@" />
<glyph unicode="A" horiz-adv-x="806" d="M814 806q0 -11 -6.5 -28t-17.5 -36h-32q8 58 16 81l16 32q-10 21 -18 33q-52 72 -143 72q-157 0 -284 -160q-98 -123 -164 -316q-52 -151 -52 -218v-97q0 -56 49 -96q41 -33 72 -33q150 0 228 188q30 71 92 362q45 208 107 233h57q-5 -35 -39.5 -194.5t-53.5 -264.5 q-28 -156 -28 -235q0 -20 9 -42t23 -22q25 0 59 38q85 94 102 99v-33q-42 -70 -93 -111.5t-100 -41.5q-64 0 -92 69q-19 50 -37 100q-104 -131 -131 -150q-49 -35 -111 -35q-103 0 -176 86q-66 78 -66 164v113q0 99 88 248q95 161 229 265q159 124 320 124q68 0 122.5 -41 t54.5 -88v-65z" />
<glyph unicode="B" horiz-adv-x="764" d="M780 846q0 -80 -41 -155q-30 -55 -77 -101q-17 -17 -44 -37q69 -44 107.5 -82t38.5 -89v-73q0 -88 -104 -195q-111 -114 -221 -114q-57 0 -101.5 36.5t-44.5 85.5q0 28 23 70q17 31 34 52h40v-24q-65 -52 -65 -98q0 -29 28.5 -51t77.5 -22q72 0 133.5 91t61.5 210 q0 48 -19 88q-24 50 -62 50q-10 0 -73 -33q-30 -16 -49 -16q-6 0 -19.5 12t-13.5 21q0 27 69 56q96 40 130 70q70 61 70 166v73q0 28 -39 63t-75 35q-35 0 -117 -48q-95 -56 -95 -107q0 -15 7 -39q18 -63 18 -115q0 -101 -38 -252t-94 -254q-65 -120 -128 -120q-43 0 -73 61 q-25 50 -25 93q0 83 59 230q40 99 109 234q60 117 60 122q0 35 -19.5 54t-45.5 19q-37 -16 -56 -46q-32 -49 -50 -141h-24v65q33 103 80 144q41 35 98 35q27 0 52 -10q23 -12 46 -23l42 42q54 48 110 78q82 43 157 43q69 0 115.5 -43.5t46.5 -110.5zM236 504v138 q-47 -70 -89 -176q-35 -88 -58.5 -175.5t-23.5 -119.5v-65q2 -16 5 -24q9 -25 28 -25q36 0 72 113q26 83 48 212q18 106 18 122z" />
<glyph unicode="C" horiz-adv-x="701" d="M734 839q0 -22 -19 -62q-35 -74 -122 -179q-118 -143 -319 -324v-121q14 -38 27 -56q40 -57 102 -57q111 0 194 100q72 87 72 166q0 34 -25 56q-20 17 -39 17q-55 0 -84 -69t-29 -181h-33q-16 23 -24 41.5t-8 31.5v64q0 49 53 103q57 58 116 58q57 0 83 -37 q22 -31 22 -84q0 -127 -92.5 -216.5t-221.5 -89.5q-103 0 -170 72q-40 48 -80 97q-40 -45 -50.5 -56.5t-46.5 -72.5h-40v33q137 159 137 169v105q0 108 82 265.5t192 266.5q122 121 218 121q47 0 70 -28t35 -37v-96zM677 895q0 26 -11 41.5t-37 15.5q-93 0 -177 -142 q-60 -102 -109 -264q-19 -72 -37 -143v-24q115 93 204 203q78 96 125 187q42 82 42 126z" />
<glyph unicode="D" horiz-adv-x="910" d="M910 488q0 -179 -120.5 -333.5t-261.5 -154.5q-66 0 -111 20.5t-68 20.5q-49 -16 -92 -28.5t-87 -12.5q-65 0 -113 27q-57 32 -57 87q0 36 31 61q25 20 42 20h89q14 0 89 -32q25 -10 74 -33q33 0 59.5 124t53.5 254q40 167 98 248q12 17 35.5 57t45.5 40q13 0 33 -7 q-28 -47 -56 -93q-25 -56 -25 -103v-233v-59q-8 -66 -48 -136q-30 -53 -70 -97q-32 -36 -37 -36q29 -22 68 -35t62 -13q111 0 191 103q94 121 94 336q0 160 -77 299q-91 164 -232 164h-138q-73 0 -162 -74q-99 -83 -99 -178q0 -69 54 -115q46 -39 93 -39q7 0 38.5 12.5 t67.5 19.5v-32q-31 -51 -82 -81q-44 -25 -81 -25q-71 0 -133 56t-62 131q0 69 48 152q56 97 149 157q113 73 258 73q176 0 305 -106q134 -110 134 -268v-138zM268 89q-57 25 -97.5 41t-65.5 16q-29 0 -47 -13.5t-18 -26.5q0 -21 34 -35t80 -14q29 0 50 4q38 7 64 28z" />
<glyph unicode="E" horiz-adv-x="642" d="M650 862q0 -68 -57 -113q-53 -42 -122 -42q-12 0 -14 4q-6 10 -10 13q11 19 75 46q47 20 47 92q0 55 -35 79q-26 18 -71 18q-79 0 -131 -78q-40 -60 -40 -109v-65q0 -49 26 -68q19 -14 59 -14q16 0 32 1l32 2q23 0 34.5 -7t11.5 -28q0 -19 -18.5 -33.5t-46.5 -14.5h-89 q-81 0 -142 -117q-53 -102 -53 -200q0 -93 53 -142q49 -45 134 -45q115 0 198 87q78 82 78 181q0 36 -20 62.5t-53 26.5q-44 0 -87 -58t-43 -112v-98q-42 9 -61.5 41t-19.5 81q0 80 57.5 137.5t137.5 57.5q58 0 94 -39t36 -99q0 -54 -28 -117q-36 -81 -104 -130 q-86 -62 -210 -62q-137 0 -218.5 70.5t-81.5 189.5q0 93 50 167q37 55 108 106q51 34 102 69q-46 21 -68 53.5t-22 68.5v65q0 59 78 133q82 78 158 78h98q55 0 97 -33q49 -39 49 -105z" />
<glyph unicode="F" horiz-adv-x="764" d="M797 943q0 -46 -34 -62q-23 -11 -68 -11h-20q0 -11 -44 -146q-21 -64 -21 -131q0 -32 6.5 -40t24.5 -8h17q18 0 37 5.5t69 26.5v-81q-12 -37 -16 -91.5t-33 -54.5q-22 0 -25 69t-48 69h-24v-98q0 -153 -88 -268q-93 -122 -229 -122h-106q-65 0 -127 52q-68 57 -68 135 q0 44 24 79t57 35q30 -4 45 -8q45 -14 45 -41q0 -11 -38 -64q-19 -27 -19 -50q0 -46 38 -71.5t100 -25.5q100 0 151 79q36 56 56 170q25 144 29 157v33h-49q-18 -7 -41.5 -12.5t-48.5 -5.5q-16 0 -24 1q11 50 87 56t100 99q18 68 52 126q5 8 78 118q-25 22 -114 56 q-106 41 -170 41q-83 0 -127 -39t-44 -107q0 -50 38 -86t92 -36q43 0 48 -1q14 -6 41 -15q-17 -25 -63 -51q-39 -22 -50 -22h-98q-39 0 -79 50q-43 53 -43 112q0 107 100 179q79 57 144 57h122l252 -41q25 5 44 13.5t37 19.5h25q0 -6 1 -17.5t1 -16.5t-2 -15z" />
<glyph unicode="G" horiz-adv-x="685" d="M686 541q-35 0 -47.5 -31.5t-12.5 -89.5q0 -25 1 -52l2 -54q0 -122 -74 -216q-77 -98 -183 -98h-138q-19 0 -63.5 16.5t-58.5 16.5q-8 0 -22 -15.5t-50 -65.5h-33v40q13 18 41 42q16 14 16 31q-25 32 -43 64q-21 37 -21 81q0 62 34.5 95.5t85.5 33.5q36 0 46.5 -8.5 t10.5 -38.5q0 -37 -34 -65q-44 -36 -53 -57v-49q47 0 112 110q57 96 57 117q-58 40 -100 101q-47 67 -47 148q0 115 82 249q94 154 209 154q40 0 74 -25q39 -29 39 -70v-81q0 -46 -67 -199q-61 -140 -77 -157v-25h62q77 16 135 93q72 96 93 110h24q0 -33 -8 -52 q-10 -15 -19 -30q0 -3 5.5 -8t21.5 -15zM434 807v105q-16 15 -22 21q-12 11 -24 11q-56 0 -100 -107q-38 -92 -38 -159v-81q0 -38 20 -73t51 -47q39 77 70 168q21 62 34 118q4 22 9 44zM508 388q-180 -65 -208 -83q-20 -12 -38 -61q-24 -65 -108 -161q7 -4 53 -20 q14 -5 43 -15q113 0 190 119q68 105 68 221z" />
<glyph unicode="H" horiz-adv-x="1105" d="M1113 911q-74 -103 -118 -257q-30 -104 -50.5 -248.5t-26.5 -161.5v-90h25q50 0 90 41t72 41q0 -74 -81 -103q-41 -14 -81 -27q-23 -10 -25 -54t-65 -44q-44 0 -55 12.5t-11 49.5v17t1 19q-63 0 -139 40.5t-88 40.5q-20 -24 -39 -48q-50 -55 -105 -90q-77 -49 -149 -49 h-81q-67 0 -124 45q-63 49 -63 118q0 105 89 105q22 0 41 -14q24 -18 24 -43q-16 -28 -28.5 -52t-12.5 -45t24 -40q31 -25 82 -25q75 0 163.5 80.5t88.5 155.5q-11 21 -16 35q-16 42 -16 78q0 83 37 108q35 21 71 42q38 43 38 167v114q0 67 -44 94q-32 20 -94 20 q-100 0 -172 -103q-56 -81 -56 -133q0 -42 31.5 -73.5t74.5 -31.5q24 0 39 8q1 1 42 40h33q1 -4 1 -7v-7q-1 -14 -1 -18q0 -64 -41 -105t-106 -41q-76 0 -128 61q-42 49 -42 93v65q0 83 105 194q109 115 204 115h73q97 0 160 -82q59 -76 59 -178q0 -39 -10.5 -96.5 t-21.5 -115.5q0 -15 51 -80q35 -44 63 -98q44 38 75 187q40 192 65 252q56 134 168 162v-40zM788 163v81q-28 73 -42 106q-26 58 -72 89q-17 -67 -39.5 -122t-41.5 -73l147 -81h48zM520 463q-10 -3 -16.5 -8t-16.5 -16v-57q20 20 26.5 35t6.5 46z" />
<glyph unicode="I" horiz-adv-x="679" d="M705 623q0 -129 -36 -236q-25 -75 -66 -138q-37 -57 -37 -60q0 -16 55.5 -56t59.5 -67q-12 -4 -25 -4q-26 0 -76 58q-24 28 -47 28q-52 -57 -131 -100q-88 -48 -189 -48q-64 0 -132 41q-81 49 -81 115v65q0 38 45.5 84.5t85.5 46.5q34 0 58 -14.5t24 -42.5 q0 -23 -100 -86q-47 -30 -47 -70q0 -25 36.5 -57.5t61.5 -32.5h82q48 0 126.5 75.5t78.5 113.5q0 2 -36 66q-39 69 -66 136q-37 91 -37 150v156q0 65 45 149q56 105 135 105q116 0 171 -126q42 -97 42 -251zM574 656v205q0 22 -15 50q-22 40 -59 40q-69 0 -93 -87 q-29 -104 -38 -110v-213q5 -3 40 -96q25 -66 67 -150q27 55 64 197q34 131 34 164z" />
<glyph unicode="J" horiz-adv-x="584" d="M585 366q-17 -30 -73.5 -52.5t-70.5 -44.5l-50 -180q-61 -200 -134 -316q-106 -169 -231 -169q-45 0 -82 42q-40 46 -40 111q0 118 110 263q117 155 284 234v24q-69 42 -119 149q-43 92 -43 157v95q0 96 63 199q75 122 180 122q60 0 101.5 -45.5t41.5 -106.5v-185 l-54 -306l6 -15q27 9 50 24q16 10 25 10q10 0 36 -10zM427 864q0 49 -20 75q-16 21 -45 21q-57 0 -98 -84q-36 -99 -71 -197v-143q16 -56 39 -111.5t83 -107.5q31 88 60 225q19 90 38 216q14 92 14 106zM289 184q-34 7 -111 -62q-83 -75 -140 -173q-69 -119 -69 -224 q0 -27 14 -50.5t34 -23.5q83 0 143 130q36 78 77 248q35 143 52 155z" />
<glyph unicode="K" horiz-adv-x="1093" d="M1105 991q-69 -55 -108 -133q-100 -203 -118 -222q-10 -10 -103 -65q-43 -25 -63 -49q116 -116 160 -239q13 -36 33 -163q9 -59 51 -59q16 0 69 71q33 44 69 69q1 -7 1 -19q0 -86 -88 -144q-70 -46 -121 -46q-73 0 -112 68q-35 61 -35 157v104q0 59 -27 111 q-33 64 -87 64q-18 0 -28 -92t-59 -203q-22 -54 -92 -120q-86 -81 -159 -81h-105q-74 0 -128.5 59.5t-54.5 131.5q0 40 28 88q40 69 111 69q88 0 88 -60q0 -24 -70 -67t-70 -91q0 -26 32 -57q40 -38 98 -38q89 0 166 162q55 117 98 302q16 81 32 163q-5 -1 -87 -50 q-64 -38 -147 -38q-81 0 -119 37.5t-38 110.5q0 33 19 76.5t42 72.5h44v-26q-12 -21 -17 -37q-9 -26 -9 -52q0 -55 42 -78q30 -16 78 -16q98 0 185 77q52 46 125 152q65 94 91 110q2 -6 -17 -73q-14 -52 -45 -151q-27 -89 -50 -159v-70q105 18 173 110q55 94 111 188 q74 120 176 181h35v-36z" />
<glyph unicode="L" horiz-adv-x="866" d="M875 767q0 -89 -80 -183q-57 -67 -151 -133q-43 -30 -86 -59l-100 -250q22 -15 100.5 -45t107.5 -30q55 0 102 37q39 31 73 88h25v-34q-45 -76 -104 -115q-64 -43 -146 -43q-63 0 -154 33q-30 11 -79 34q-43 -22 -69 -33q-80 -34 -123 -34q-75 0 -126 22q-65 28 -65 86 q0 44 38 72t87 28h83q36 0 84.5 -16.5t57.5 -16.5q10 0 17 19q15 61 33 114v59q-60 0 -101 5q-99 12 -158 49q-83 52 -83 146q0 51 27 97q47 80 165 136h41v-25q-44 -49 -88 -97q-37 -56 -37 -111q0 -69 50 -116q54 -51 142 -51q37 0 82 155q62 214 101 289q82 156 209 156 q55 0 90 -36t35 -89v-108zM825 833q0 54 -19 85.5t-56 31.5q-65 0 -108 -97q-30 -67 -50 -185q-9 -55 -17 -110v-91q116 62 190 192q60 105 60 174zM291 100q-29 20 -73.5 35t-84.5 15q-39 0 -60 -8q-32 -12 -32 -42q0 -21 46 -38q15 -5 46 -12q55 0 91.5 11.5t66.5 38.5z " />
<glyph unicode="M" horiz-adv-x="1354" d="M1354 125q-40 -44 -79 -87q-66 -63 -114 -63q-49 0 -84 44t-35 97v77l119 505q0 13 -19 36t-32 23q-96 0 -174 -194q-57 -142 -98 -360q-15 -98 -30 -195q-4 -4 -31.5 -10.5t-61.5 -6.5q-26 -1 -31 -1q-7 0 -9 8t-9 18l150 723q0 33 -11 50.5t-31 17.5q-87 0 -171 -189 q-62 -139 -118 -369q-28 -125 -56 -249h-142v33q16 36 59 188q50 177 79 316q39 185 39 279q0 67 -36.5 100.5t-100.5 33.5q-94 0 -167 -85q-67 -78 -67 -159q0 -64 26 -91t83 -27q34 0 53 13q3 2 40 38h23v-33q0 -53 -42.5 -93.5t-107.5 -40.5q-66 0 -117 47.5t-51 94.5v76 q0 89 115 197q120 113 229 113h77q40 0 91 -37q69 -50 69 -131q0 -52 -1 -74t-8 -68q29 0 84.5 84.5t133.5 84.5q37 0 72 -22q46 -29 46 -80v-109l8 -18q61 78 92 111q54 58 127 58q40 0 80 -45q48 -53 48 -132q0 -26 -31.5 -162.5t-62.5 -264.5l-34 -136q0 -4 18 -19.5 t25 -15.5q33 0 84 61q20 24 67 91h25v-51z" />
<glyph unicode="N" horiz-adv-x="1033" d="M1033 157q-34 -56 -73 -98q-62 -67 -109 -67q-56 0 -96 49q-36 44 -36 91v91l115 513q-6 28 -14 37q-11 12 -35 12q-47 0 -97 -55q-42 -58 -44 -60q-64 -76 -103 -197q-24 -74 -49.5 -210t-45.5 -188q-3 -21 -5 -31q-6 -32 -12 -35l-82 -9q-20 0 -35 8.5t-15 24.5 q1 0 40 146q49 181 76 298q41 177 41 234v132q0 51 -39 77q-33 22 -85 22q-68 0 -136 -57q-87 -73 -87 -191q0 -60 34 -83q23 -16 65 -16q20 0 39 8t52 34h25v-75q-30 -41 -42 -51q-45 -40 -99 -40q-83 0 -138 78q-43 61 -43 112q0 39 39 111q50 91 123 147q96 73 218 73 q93 0 152 -58q56 -55 56 -132q0 -26 -10 -58v-66q68 72 118 113q54 44 114 44q43 0 88 -43q36 -34 36 -81v-124l-108 -496q0 -36 5 -42.5t28 -6.5q26 0 63 42q87 100 111 106v-33z" />
<glyph unicode="O" horiz-adv-x="740" d="M740 537q0 -104 -64 -232t-163 -211q-112 -94 -228 -94q-90 0 -180 95q-105 110 -105 263q0 99 61 244q69 164 172 270q124 128 263 128h73q46 0 94 -33q54 -38 61 -89v-24h-33q-32 63 -63.5 84t-90.5 21q-125 0 -256 -190q-135 -195 -135 -395v-130q0 -79 55 -138 q45 -49 116 -49q114 0 198 122q59 86 99 226q14 61 28 123v106q0 90 -16 124q-22 47 -89 47q-62 0 -146 -106q-98 -124 -98 -268q0 -13 4 -64t4 -82q0 -34 -3.5 -58.5t-12.5 -47.5q-21 24 -31 54t-10 52v113q0 62 30 159q38 121 98 199q76 98 173 98q92 0 149 -86 q46 -69 46 -134v-97z" />
<glyph unicode="P" horiz-adv-x="785" d="M785 576q0 -74 -71 -169t-130 -95h-63q-21 0 -48 22q-35 29 -35 69q0 42 17.5 62.5t51.5 20.5v-28l-32 -24q-3 -3 -3 -24q0 -32 19 -44t51 -12q46 0 86 51q46 59 46 144v173q-15 31 -29 63q-40 72 -94 117q-76 63 -169 63q-94 0 -185 -60q-106 -70 -106 -169 q0 -36 26 -64q30 -33 78 -33q28 0 32 1q8 2 30 20h28v-35q-27 -38 -61.5 -60.5t-77.5 -22.5q-42 0 -91 37q-55 41 -55 88v62q0 82 117 173q125 98 258 98h70q116 0 224 -87q116 -93 116 -212v-125zM514 868q-4 0 -25 -42q-29 -60 -47 -139q-25 -113 -25 -256v-63 q-7 -48 -13 -95q-18 -115 -37 -177q-29 -96 -61 -96h-70q-19 0 -26.5 10t-7.5 18q16 45 33 117q35 144 71 327q20 101 36 159q30 106 67 171q47 82 105 94v-28z" />
<glyph unicode="Q" horiz-adv-x="816" d="M816 142q-26 -32 -46 -56q-73 -86 -137 -86h-92q-26 0 -77.5 19t-105.5 39q-44 -23 -91 -40.5t-109 -17.5q-63 0 -106 22q-52 27 -52 78q0 47 54 73.5t129 26.5q70 0 142 -21q24 -7 58 -21q20 0 75 70q66 84 110 194q57 142 57 286q0 90 -35 162q-43 88 -115 88h-67 q-12 0 -58 -23q-66 -33 -108 -82q-59 -70 -59 -161q0 -65 39.5 -116t93.5 -51q63 0 99 46q55 71 68 79v-58q0 -87 -55 -135.5t-145 -48.5q-75 0 -133.5 63.5t-58.5 153.5q0 114 77 209q61 75 157 125q79 41 125 41h75q75 0 152 -73q98 -92 98 -235q0 -136 -80 -273 q-55 -94 -148 -190q-81 -84 -81 -87q0 -26 100 -49q33 -7 100 -18q40 0 66 22.5t59 77.5q8 -4 17 -8q-2 5 8 8v-33zM283 75q-18 23 -73.5 40.5t-84.5 17.5q-31 0 -53 -10t-22 -31q0 -19 26 -32q21 -10 40 -10h67q18 0 73 16q10 2 27 9z" />
<glyph unicode="R" horiz-adv-x="823" d="M823 126l-74 -82q-57 -52 -127 -52q-73 0 -103 62q-23 47 -23 131q0 11 12.5 90t12.5 120q0 30 -6 48.5t-27 45.5h-119q-19 -67 -38 -133q-44 -146 -91 -232q-68 -124 -139 -124q-34 0 -65 35q-36 41 -36 100q0 105 63 256q38 90 117 234q63 114 63 132q0 29 -13.5 52 t-37.5 23q-44 0 -76 -53q-38 -70 -75 -139v66q52 105 57 111q49 66 129 66q33 0 60 -17t40 -17q65 59 135 103q77 48 134 48h85q54 0 101 -50q41 -43 41 -109q0 -96 -76 -182l-192 -154q45 -35 64 -106q13 -48 13 -112q0 -13 -0.5 -24t-0.5 -19q0 -68 10 -109q16 -67 56 -67 q19 0 45 27q75 78 81 81v-50zM689 816q0 48 -30 78q-39 39 -88 39q-39 0 -110 -40q-83 -47 -83 -94v-252h118q36 0 109 84q84 96 84 185zM252 505v135q-49 -40 -96 -160q-38 -97 -66 -218q-24 -104 -24 -144q0 -28 9 -48t26 -20q36 0 75 112q29 82 55 213q21 104 21 130z " />
<glyph unicode="S" horiz-adv-x="675" d="M675 300q0 -130 -111 -218q-103 -82 -239 -82q-79 0 -138 32q-29 16 -48 16q-15 0 -52.5 -48.5t-62.5 -48.5h-24v32q20 11 51 43q38 38 38 55q-22 34 -32 56q-33 67 -33 115q0 91 47 154q54 73 148 73q37 0 61 -9.5t37 -40.5q-86 -39 -171 -77q-73 -56 -73 -133 q0 -13 12 -37q16 -31 45 -60q40 26 120 125q69 85 133 177.5t64 102.5q-22 50 -32 79q-32 88 -32 133v74q0 71 50 129t104 58q42 0 75 -32q38 -37 38 -99q0 -47 -30 -119l-68 -158q48 -77 85.5 -144t37.5 -148zM578 804v74q0 27 -20 46t-38 19q-26 0 -44 -28 q-21 -34 -29 -37v-115q25 -12 33 -53.5t40 -52.5q26 43 42 79.5t16 67.5zM520 235v65q0 21 -11 57q-5 15 -38 105q-35 -46 -70 -91l-132 -172q-73 -93 -89 -110q39 -21 70 -31t60 -10q77 0 143.5 56t66.5 131z" />
<glyph unicode="T" horiz-adv-x="781" d="M781 919q-30 -37 -45 -43t-61 -6q0 -27 -19 -83l-38 -112v-301q0 -143 -87 -251q-99 -123 -263 -123q-101 0 -180 49q-88 55 -88 138q0 47 36 80.5t70 33.5q24 0 48.5 -16.5t24.5 -32.5q-22 -25 -38 -52q-19 -32 -19 -70q0 -37 41 -63t97 -26q132 0 177 148 q29 165 59 331q46 225 163 342q-22 21 -139.5 59t-161.5 38q-58 0 -105 -33q-58 -41 -58 -113q0 -69 47 -99q35 -22 94 -22q26 0 43 2.5t28 4.5v-24q-36 -46 -81 -66q-35 -16 -74 -16q-71 0 -121 52t-50 119q0 94 71 154q51 43 137 66q42 8 85 16l309 -41q26 5 51.5 13.5 t46.5 11.5v-65z" />
<glyph unicode="U" horiz-adv-x="1000" d="M1000 163q-55 -78 -83 -103q-49 -44 -112 -44q-68 0 -95 53q-19 38 -19 110h-24q-32 -49 -63 -97q-70 -82 -157 -82q-67 0 -110 63q-36 52 -36 108q0 41 42 176q39 124 79.5 258t40.5 200q0 88 -50 123q-33 23 -88 23q-100 0 -174 -75q-70 -71 -70 -152q0 -51 32.5 -82.5 t81.5 -31.5q37 0 62.5 24.5t35.5 24.5t17 -12t7 -29q0 -41 -45 -83q-51 -47 -118 -47q-64 0 -113 55q-41 46 -41 83v81q0 113 131 206q123 87 251 87q89 0 156 -71q55 -59 55 -100v-81l-178 -650q5 -22 16 -35.5t32 -13.5q123 0 201 202q54 187 109 375q62 203 146 203 q12 0 22 -7.5t10 -24.5q-2 0 -40 -134q-45 -157 -74 -287q-40 -178 -40 -262q0 -20 11 -34.5t29 -14.5q32 0 81 59q56 68 82 79v-40z" />
<glyph unicode="V" horiz-adv-x="953" d="M951 589q-8 -78 -55 -204q-59 -159 -137 -258q-100 -127 -211 -127q-54 0 -105 47q-64 59 -64 155v121l105 500q0 73 -43 104q-34 25 -95 25q-101 0 -170 -85q-63 -78 -63 -173q0 -46 31 -78q26 -27 65 -27q30 0 59 18q41 25 62 78l10.5 -10.5t5.5 -13.5q0 -68 -44 -121 q-53 -64 -141 -64q-77 0 -125 78q-36 59 -36 107q0 143 138 249q117 90 217 90q97 0 169 -58.5t72 -143.5v-121l-112 -540q6 -54 18 -69q16 -20 62 -20q97 0 172 110q61 90 97 234q30 120 30 213q0 127 -50 168q-23 19 -23 42q0 30 31 59t50 29q31 0 55.5 -46t24.5 -131 q0 -19 0.5 -42t1.5 -51v-16q0 -7 -1 -15.5t-1 -12.5z" />
<glyph unicode="W" horiz-adv-x="1139" d="M1141 727q0 -31 -31 -96t-63 -131q-40 -88 -55 -153q-30 -130 -50 -240q-15 -82 -20 -94.5t-29 -12.5q-27 0 -66 54q-50 69 -50 161v140q0 7 17.5 117.5t23.5 130.5v33q-22 -13 -62 -83q-72 -126 -120 -201q-106 -164 -256 -352h-49v41q44 75 104.5 262t60.5 267v157 q0 84 -51 127q-46 39 -123 39q-98 0 -169 -86q-62 -75 -62 -154q0 -50 33 -83t83 -33q52 0 86 42q43 52 54 57q4 -28 4 -40q0 -7 -2 -10t-2 -7q0 -83 -51 -127q-45 -39 -114 -39q-80 0 -131 58t-51 141q0 43 38 117q48 94 123 153q97 77 219 77q101 0 178.5 -64.5 t77.5 -150.5v-132q0 -8 -22.5 -101t-26.5 -106v-25q42 20 125 175q44 82 138 283q72 153 84 162h33v-74l-66 -480v-198q22 24 60 133q60 175 70 200q44 112 85 146h25zM818 645v16v-16z" />
<glyph unicode="X" horiz-adv-x="1271" d="M1156 852q0 -20 -21 -47q-27 -35 -61 -35q-29 0 -43.5 14.5t-14.5 35.5q0 10 7 25q18 40 18 48q0 16 -13.5 28.5t-35.5 12.5q-56 0 -132 -80q-80 -85 -134 -212q-62 -148 -62 -298v-98q0 -91 44 -148t120 -57q74 0 158 77q88 80 88 161v65q0 32 -23 54q-29 28 -59 28 q-49 0 -82 -57.5t-33 -130.5q0 -20 8 -47q13 -45 16 -60q-47 0 -75 50q-23 42 -23 89q0 84 57 144.5t123 60.5q47 0 85 -34t38 -80v-82q0 -119 -108 -205q-93 -74 -179 -74q-115 0 -175 69q-52 92 -103 185q-60 -115 -151 -184.5t-194 -69.5q-79 0 -137.5 50.5t-58.5 113.5 q0 98 90 98q23 0 40 -17t17 -40q0 -8 -20.5 -31.5t-20.5 -58.5q0 -38 46 -59q33 -15 69 -15q58 0 138 76q88 84 146 216q69 157 69 331v156q0 44 -35 87.5t-80 43.5h-66q-65 0 -131 -74t-66 -156q0 -58 31.5 -94.5t83.5 -36.5q38 0 64 26q22 22 43 32h24v-58 q-27 -52 -62 -81q-42 -34 -93 -34q-65 0 -118 58q-46 50 -46 90v82q0 77 96 179q109 116 232 116q114 0 166 -63q39 -92 79 -183q73 100 147 158q80 63 165 63q51 0 99.5 -40t48.5 -83z" />
<glyph unicode="Y" horiz-adv-x="865" d="M864 856q-25 -68 -43 -143q-21 -84 -21 -185q0 -274 -116 -409q-102 -119 -284 -119q-93 0 -174.5 64.5t-81.5 135.5q0 34 25 66q30 38 71 38q64 0 64 -48q0 -18 -24 -57t-24 -63q0 -41 35.5 -64.5t100.5 -23.5q105 0 168 83q46 61 71 167q12 63 25 126v24 q-52 -43 -80 -62q-50 -34 -104 -34q-46 0 -83 33t-37 71v88q0 21 40 168q13 49 40 144q0 37 -23 63q-29 33 -81 33q-96 0 -163 -75q-61 -68 -61 -149q0 -54 29 -78q22 -18 59 -18q17 0 52 24l44 32q2 -5 5 -12t3 -12q0 -48 -52 -92t-100 -44q-62 0 -101 36q-43 39 -43 108 q0 131 117 235q105 93 203 93q92 0 155 -52q69 -57 69 -156q0 -49 -24 -128q-8 -27 -46 -137q-26 -76 -26 -95q0 -25 7 -33t20 -8q9 1 13 1q63 0 121 74q38 48 106 185q86 171 125 237h24q2 -10 2 -14q-2 -15 -2 -18z" />
<glyph unicode="Z" horiz-adv-x="670" d="M670 362q-68 -38 -105.5 -62t-37.5 -36q12 -14 16 -25q9 -22 9 -43v-98q0 -72 -69 -193t-161 -205q-106 -97 -195 -97q-55 0 -95 45t-40 100q0 107 103 231q65 78 193 185q104 87 104 100q0 22 -25.5 48.5t-47.5 26.5q-10 0 -47 -25t-79 -25h-20q-18 0 -23 8t-5 23 q0 49 76 63q104 19 161.5 82t93.5 135t36 129v95q0 49 -40 87q-45 43 -113 43q-102 0 -176 -96q-63 -81 -63 -152q0 -39 27 -68t67 -29q60 0 95 64q21 47 42 95h24v-56q-32 -63 -64 -125q-50 -74 -135 -74q-57 0 -98 34q-45 37 -45 94q0 110 71 199q59 73 153 120 q81 40 143 40q107 0 178 -57q77 -62 77 -166q0 -94 -58 -181q-41 -61 -114 -125q-77 -68 -83 -76q10 -9 57 -42q16 -11 47 -33q22 10 35 16q76 38 107 59h24v-33zM392 140q4 4 4 12v9q-3 10 -4 16q-140 -121 -225 -238q-62 -85 -88 -158q-15 -42 -15 -65q0 -19 16 -40 q20 -25 47 -25q92 0 180 170q85 164 85 319z" />
<glyph unicode="[" />
<glyph unicode="\" horiz-adv-x="282" d="M293 -86q-59 22 -128 311q-47 197 -101 533q-48 296 -52 303l-8 43l30 5q63 -39 114 -313q20 -106 72 -507q37 -283 64 -323z" />
<glyph unicode="]" />
<glyph unicode="^" />
<glyph unicode="_" />
<glyph unicode="`" />
<glyph unicode="a" horiz-adv-x="610" d="M621 184q-12 -58 -63 -115q-61 -69 -129 -69q-39 0 -69 39q-16 21 -27 49h-27q-25 -37 -47 -54q-45 -34 -110 -34q-69 0 -111 55q-38 50 -38 120q0 115 102 208q89 81 160 81q31 0 64 -18t50 -43q20 18 31 26q35 26 57 26q18 0 22 -10t4 -34q0 -4 -26.5 -112t-26.5 -141 v-106q79 8 112 66.5t72 65.5zM350 333q0 33 -16.5 51.5t-53.5 18.5q-47 0 -88 -75q-28 -52 -52 -139q-9 -38 -18 -75q0 -20 26 -43q8 -7 27 -19q68 0 124 101q51 92 51 180z" />
<glyph unicode="b" horiz-adv-x="459" d="M482 188q-27 -38 -63 -49q-45 -7 -89 -14q-31 -57 -71.5 -91t-106.5 -34q-63 0 -107.5 41.5t-44.5 101.5v152q0 33 37 187q49 206 115 337q90 181 196 181q39 0 64.5 -30.5t25.5 -76.5q0 -88 -85 -231q-80 -126 -160 -251q-86 -147 -86 -241v-81q0 -37 21 -48q9 -5 33 -5 q22 0 73 33q61 39 61 74q-21 35 -31 53q-32 56 -32 63v80q0 29 30 74q34 51 68 51q19 0 39 -22q24 -26 24 -58v-71q-2 -12 -3 -20q-9 -47 -24 -79v-35h54q10 5 21.5 9.5t16.5 4.5q3 0 10.5 -2.5t13.5 -2.5zM375 893v12q0 21 -10 31t-26 10q-59 0 -106 -149 q-36 -176 -72 -351q18 19 66 96q61 98 98 179q50 109 50 172zM348 321q0 10 -10 20q-16 16 -25 34h-36q4 -7 5.5 -16t1.5 -10q0 -6 -3.5 -18t-3.5 -18q0 -39 5 -56q10 -32 40 -43q3 12 14.5 52t11.5 55z" />
<glyph unicode="c" horiz-adv-x="455" d="M455 161q-29 -54 -84 -102q-69 -59 -131 -59h-80q-47 0 -97 44q-63 56 -63 144q0 80 73 173q81 103 176 103h72q23 0 58 -27q40 -31 40 -62q0 -25 -17 -46q-21 -25 -54 -25q-39 0 -51.5 18.5t-12.5 53.5v21t1 23h-45q-58 -59 -81 -115q-26 -62 -26 -153q0 -55 22 -85.5 t68 -30.5q53 0 126 66q99 90 106 94v-35z" />
<glyph unicode="d" horiz-adv-x="619" d="M624 187q-10 -68 -57 -120q-52 -58 -121 -58q-46 0 -76 38q-24 30 -41 43q-42 -43 -61 -57q-45 -33 -117 -33q-30 4 -47 11q-104 41 -104 167q0 116 87 203q83 83 181 83q35 0 51 -6.5t46 -29.5q5 3 8 8l1 1q4 -5 18 -9q0 119 35 252q42 158 98 158q45 0 48 -3 q2 -14 6 -34l-142 -702q4 -8 4 -17q0 -8 -4 -28h54q36 29 66 72q25 36 67 61zM347 268v88q0 27 -20.5 45t-39.5 18q-70 0 -117 -122q-37 -95 -37 -164q0 -55 6 -63q15 -7 30 -25q60 19 89 40q89 64 89 183z" />
<glyph unicode="e" horiz-adv-x="499" d="M499 140q-46 -47 -76 -70q-90 -70 -160 -70h-88q-52 0 -108 50q-67 60 -67 143q0 36 32 95q40 73 100 118q78 58 174 58q74 0 105 -30q26 -25 26 -75q0 -75 -77 -130q-40 -29 -143 -72q-77 -32 -77 -52t28 -40.5t68 -20.5q77 0 127 33q68 53 136 107v-44zM324 359 q0 31 -10 42t-34 11q-48 0 -76 -49t-55 -100v-79q58 22 87 41q88 57 88 134z" />
<glyph unicode="f" horiz-adv-x="391" d="M411 861q0 -107 -74 -268q-46 -99 -139 -252q-75 -123 -75 -134l42 -66q44 -66 55 -66q19 0 89.5 70.5t85.5 75.5q-35 -118 -139 -163q-43 -18 -43 -41q8 -22 11 -37q11 -47 11 -95v-94q0 -54 -31 -99q-37 -54 -94 -54q-48 0 -81 41q-29 36 -29 76v406q0 37 20 49t24 33 l18 198q28 225 78 362q72 196 180 196q39 0 65 -39t26 -99zM359 882q0 16 -9 36q-12 26 -30 26q-54 0 -95 -142q-34 -169 -67 -338v-34q77 93 127 198q39 80 59 162q15 60 15 92zM123 82q15 29 15 33q0 2 -2 2q-11 1 -13 2v-37zM191 -185v172q-13 8 -17 22t-27 29h-24 q-18 -51 -27 -117t-9 -151q0 -13 -1 -25.5t-2 -25.5q0 -21 7 -32.5t28 -11.5q31 0 45 66t27 74z" />
<glyph unicode="g" horiz-adv-x="508" d="M527 135q-15 -63 -50 -88q-62 -45 -66 -50q-41 -47 -64.5 -153t-83.5 -176t-123 -70q-33 0 -59 23t-26 47v57q0 59 60 117l112 90q60 49 60 84q0 16 -8 29q-34 -16 -67.5 -30.5t-63.5 -14.5q-62 0 -105 43t-43 113q0 134 104 229q86 78 158 78q34 0 68 -26t45 -26 q7 0 19 -28t35 -28q12 0 17 -8t5 -20t-21 -106q-24 -106 -36 -121v-57q24 0 50 18q34 24 64 74h19zM348 332q0 21 -21 50t-38 29q-65 0 -115 -110q-43 -94 -43 -170q0 -11 -0.5 -21t-0.5 -19q0 -22 6 -30.5t29 -8.5q83 0 140 123q43 93 43 157zM267 -119v28h-21l-94 -96 q-48 -56 -48 -115q0 -23 8.5 -40t27.5 -17q48 0 85 103q21 69 42 137z" />
<glyph unicode="h" horiz-adv-x="590" d="M625 134q-64 -90 -104.5 -116.5t-91.5 -26.5q-57 0 -80 46q-18 35 -18 97q0 20 17 103t36 129v27q-86 0 -141 -101q-42 -95 -83 -189q-51 -103 -124 -103q-20 0 -28 18t-8 44q0 14 11 86q17 110 38 213q29 139 76 317q22 83 41 131q33 82 73 126q51 56 118 56 q50 0 76 -37q23 -32 23 -79q0 -79 -69 -205q-27 -49 -140 -223q-85 -130 -104 -188v-36q27 18 113 139q66 93 137 93q45 0 69 -53q20 -44 20 -99q0 -30 -13 -86q-40 -171 -40 -172h44q40 20 63 44q31 32 54 90h35v-45zM402 893q0 9 -16.5 26.5t-28.5 17.5q-48 0 -92 -122 q-32 -90 -58 -228q-10 -62 -19 -123q0 -24 8 -24q14 0 53 74q32 62 64 138q22 51 59 154q30 83 30 87z" />
<glyph unicode="i" horiz-adv-x="303" d="M231 687q0 -33 -32 -55q-24 -17 -39 -17q-27 0 -49 20t-22 43q0 25 22 50q26 29 58 29q39 0 53 -25q9 -16 9 -45zM311 170q0 -43 -56 -102q-65 -68 -139 -68q-54 0 -89 52q-27 40 -27 73v71q16 90 29 134q40 134 95 134q28 0 37 -9t9 -29q-1 -16 -1 -25 q0 -19 -26.5 -147.5t-26.5 -163.5q0 -36 35 -36q21 0 56 38l96 104q5 -4 6 -6q2 -3 2 -20z" />
<glyph unicode="j" horiz-adv-x="425" d="M312 697q0 -37 -21 -61t-45 -24q-34 0 -50 21t-16 55q0 41 18 63t58 22q29 0 44 -24q12 -20 12 -52zM425 272q-107 -108 -142 -150q-83 -101 -83 -218v-97q0 -53 -31 -118q-38 -79 -90 -79q-22 0 -43 23q-25 27 -25 60v75q0 30 31 112q35 88 71 175q2 64 4 99 q6 106 15 146q-38 -8 -66 -70t-66 -62v38q0 44 79 144q88 111 157 111q30 0 40 -11q7 -8 7 -31v-15q-4 -42 -7 -65q-11 -71 -30 -95v-29q13 1 18 1q6 0 10 -1q20 4 78 60q32 31 73 44v-47zM102 -337q-4 7 -6 26t-2 43q0 37 2.5 73.5t5.5 75.5q-13 -13 -33.5 -75t-20.5 -75 q0 -43 7 -53.5t47 -14.5z" />
<glyph unicode="k" horiz-adv-x="538" d="M538 144q-56 -79 -89 -108q-52 -45 -118 -45q-46 0 -63.5 27.5t-17.5 71.5q0 21 6 60t6 52q0 23 -12 23q-74 0 -122 -89q-65 -120 -85 -136h-81v99q6 18 50 288t96 404q78 200 196 200q55 0 84 -42q24 -35 24 -84q0 -78 -78 -207l-146 -222q-79 -126 -79 -191 q0 -20 6 -38l50 74q52 70 100 111q69 58 129 58q31 0 41 -5q22 -11 22 -49q0 -54 -54 -54q-22 0 -44.5 13.5t-36.5 13.5q-12 0 -40 -19q-38 -26 -68 -71q12 -9 25 -17q8 -5 9 -5q0 3 4 6q9 7 34 7q38 0 68.5 -29.5t30.5 -69.5q0 -6 -13.5 -37.5t-13.5 -70.5q0 -30 14 -30 q16 0 55 41q96 100 111 106v-36zM340 874v17q0 21 -5 33.5t-22 12.5q-57 0 -92 -95q-17 -46 -44 -193q-22 -121 -44 -153v-64q54 85 108 171q51 82 72 135q27 68 27 136z" />
<glyph unicode="l" horiz-adv-x="340" d="M340 151q-61 -86 -116 -121q-46 -30 -92 -30q-66 0 -101 47q-31 41 -31 104v160q0 92 37 252q42 181 97 295q69 142 140 142q12 0 27 -9q39 -23 39 -66v-151q0 -92 -58 -208q-55 -100 -110 -199q-59 -118 -59 -207q5 -38 9 -56q14 -57 38 -57q41 0 103 75q42 50 77 76 v-47zM302 774v169q-9 -3 -13 -3q-8 3 -15 3q-33 0 -67 -137q-26 -102 -48 -259q-18 -126 -18 -151q72 144 133 315q21 58 28 63z" />
<glyph unicode="m" horiz-adv-x="926" d="M926 154q-47 -79 -88 -116q-52 -47 -110 -47q-32 0 -62 35q-37 43 -37 109q0 48 20.5 115.5t42.5 137.5q0 15 -9.5 21t-25.5 6q-45 0 -100 -87q-37 -59 -89 -177q-57 -129 -64 -142h-90v90q12 38 25.5 137l19.5 143v27h-37q-122 -123 -169 -234q-20 -66 -39 -131 q-15 -41 -80 -41q-16 0 -26 10.5t-10 39.5v22q0 130 25 238q35 150 101 150q21 0 33.5 -10.5t12.5 -26.5l-37 -134v-37q33 17 73 74q51 74 68 90q45 44 103 44q42 0 60 -30q15 -25 15 -71q0 -27 -3 -53v-54q72 91 120 147q52 61 114 61q47 0 79 -43q29 -40 29 -93 q0 -45 -19 -107l-44 -136q0 -36 37 -36q24 0 57 36q93 102 104 108v-35z" />
<glyph unicode="n" horiz-adv-x="595" d="M622 189q-13 -90 -87 -149q-62 -49 -112 -49q-40 0 -69.5 38.5t-29.5 96.5q0 72 32 174q10 34 32 88q0 9 -12 18t-25 9q-58 0 -119 -107l-98 -200q-55 -108 -98 -108q-16 0 -26 9t-10 35v20q0 116 26 233q36 163 100 163q21 0 29 -9t8 -28q0 -11 -22 -100 q-11 -45 -11 -73q0 -24 5 -42q10 24 36 68q43 74 88 120q63 64 120 64q30 0 64.5 -36.5t34.5 -62.5v-82l-55 -188v-46h37q52 27 85 71q29 43 50 73h27z" />
<glyph unicode="o" horiz-adv-x="586" d="M586 158q-41 -47 -82 -93q-69 -65 -145 -65h-175q-54 0 -101 40q-42 50 -83 100v96q0 66 103 158q78 70 177 70q91 0 144 -56q49 -52 49 -136q0 -55 -26 -106t-88 -113h35q104 54 130 85q47 58 62 64v-44zM359 254v70q0 33 -25 60.5t-62 27.5q-54 0 -97.5 -69t-43.5 -141 q0 -61 15 -99q20 -50 64 -50q62 0 108 71q41 64 41 130z" />
<glyph unicode="p" horiz-adv-x="592" d="M592 161q-38 -65 -97 -110q-67 -51 -135 -51h-80q-55 0 -101 47q-42 43 -42 86q0 20 11 38q15 25 43 25q17 0 31 -13t14 -32q0 -9 -12 -21q-28 -29 -33 -58h71q57 55 68 71q30 41 30 89v80q0 36 -22.5 62.5t-57.5 26.5q-43 0 -91 -58q-57 -69 -91 -190q-41 -146 -41 -348 q0 -35 -1 -67t-2 -60q0 -41 3 -70h-98v392q6 35 12 71q17 89 33 179q22 121 44 231q10 63 21 127q22 93 68 114h45v-44q0 -36 -14 -95q-31 -131 -31 -147v-89q56 54 84 77q49 40 113 40q82 0 120 -52q30 -41 30 -109q0 -84 -57 -159q-67 -69 -84 -90h52q56 7 116 64 q40 39 81 78v-35z" />
<glyph unicode="q" horiz-adv-x="597" d="M597 184q-39 -76 -91 -131q-83 -89 -83 -98q16 -24 23 -39q24 -46 24 -74q0 -91 -41.5 -166t-97.5 -75q-33 0 -56 26q-26 29 -26 79q0 35 18 133t18 141q0 42 -13 65q-7 -2 -62 -30q-30 -15 -69 -15q-54 0 -97.5 41.5t-43.5 81.5v87q0 87 88.5 170.5t183.5 83.5 q26 0 52.5 -17t53.5 -35q8 0 25 17.5t27 26.5h43q4 -20 4 -28q-4 -5 -4 -16q0 -56 -37 -215q-32 -138 -45 -169v-27q29 0 66 47l66 98q41 61 74 83v-45zM343 326q0 24 -21.5 55t-40.5 31q-52 0 -95 -77q-32 -57 -55 -143q-9 -39 -17 -78q0 -28 10.5 -45t33.5 -17 q79 0 138 119q47 95 47 155zM436 -186q0 62 -22 89.5t-23 30.5q-10 -11 -30.5 -110t-29.5 -118v-59h32q42 64 57.5 101t15.5 66z" />
<glyph unicode="r" horiz-adv-x="355" d="M384 219q-15 -11 -29 -22q-11 -6 -34 -6q-50 0 -82 49l-46 78q-62 -103 -90 -169q-28 -75 -55 -149h-100v91q11 35 24.5 147.5t29.5 154.5q27 71 82 71q8 0 27 -20t19 -25l-37 -119v-36q44 34 107 134q41 66 111 66q21 0 29 -4q17 -8 17 -32q0 -16 -27 -74t-27 -81 q0 -30 34 -38t47 -16z" />
<glyph unicode="s" horiz-adv-x="417" d="M417 131q-26 -44 -78 -83q-63 -48 -115 -48h-85q-44 0 -84 34q-55 46 -55 129q0 22 78 161.5t92 139.5q24 0 29 -10q2 -4 2 -21v-54q0 -33 54 -92t54 -117q-5 -22 -8 -35q-10 -40 -15 -57q54 7 71 36q21 35 60 49v-32zM193 155v69q0 16 -17 54q-11 23 -22 47 q-28 -14 -44.5 -43t-32.5 -58q15 -9 23 -21.5t8 -32.5q0 -26 -15.5 -48t-15.5 -29q0 -9 12 -20t19 -11q17 0 47 24q38 31 38 69z" />
<glyph unicode="t" horiz-adv-x="248" d="M280 481q-20 -6 -35.5 -8t-28.5 -2q-19 1 -26 1q-10 0 -14 -1q-7 -2 -16 -7.5t-34 -123.5q-30 -140 -30 -245q0 -17 7.5 -28t24.5 -11q15 0 42 25q37 34 78 103h24v-48q-37 -63 -84.5 -99.5t-91.5 -36.5q-38 0 -67 27t-29 68v98q0 36 24 148q8 37 25 107q0 9 -13 18 q-22 13 -36 22q2 10 2 14t-2 18q75 0 97 100t63 100q18 0 29 -15t11 -41q0 -20 -6.5 -43.5t-17.5 -52.5v-48q21 0 41 -0.5t39 -0.5q18 0 24 1v-39z" />
<glyph unicode="u" horiz-adv-x="572" d="M591 145q0 -38 -59.5 -96.5t-104.5 -58.5q-73 0 -90 64q-24 89 -37 100q-46 -77 -82 -109q-50 -45 -119 -45q-56 0 -80 50q-19 39 -19 104q4 38 8 77q14 89 39 145q35 78 89 78q10 0 18 -6.5t27 -29.5q-28 -28 -44 -128q-22 -135 -28 -154v-91h45q99 78 149 187 q27 75 55 151q25 62 78 62q9 0 16.5 -0.5t14.5 -0.5q8 0 15 1v-73q-26 -29 -35 -99q-12 -94 -20 -119v-100q43 0 72 23q34 27 73 104q19 -14 19 -36z" />
<glyph unicode="v" horiz-adv-x="484" d="M508 188l-78 -48q-104 -63 -156 -91q-91 -49 -114 -49q-54 14 -80 32q-80 56 -80 173q0 64 25.5 145.5t63.5 113.5h71v-44q-4 -10 -20 -80.5t-16 -89.5v-134q0 -38 24 -52q17 -10 48 -10q26 0 55 20q34 23 78 78q-39 31 -58 67q-22 42 -22 102t18 96q23 47 72 47 q54 0 74 -33q15 -25 15 -83q0 -38 -8 -70t-28 -55v-27q17 -4 28.5 -5.5t14.5 -1.5q7 0 11 1q15 4 20 4q12 0 42 -6zM365 215q-9 15 -9 23q0 5 2 12q7 23 7 45q0 89 -36 89q-11 0 -26 -17q-18 -21 -18 -46q0 -47 22 -75q16 -16 32 -31h26z" />
<glyph unicode="w" horiz-adv-x="746" d="M774 191q-36 -30 -66 -45q-22 -11 -37 -11q-6 0 -16 3t-14 3q-6 0 -13 -4q-21 -37 -50 -70q-58 -67 -123 -67q-69 0 -104 53q-25 38 -41 120q-31 -6 -78 -93q-43 -80 -131 -80q-36 0 -63 29q-38 41 -38 80v110q0 83 38 171q32 74 81 74q22 0 29 -13.5t7 -31.5 q-17 -72 -31 -132t-14 -114v-127q81 8 134 114q36 96 73 195.5t84 99.5q22 0 29.5 -7.5t7.5 -22.5q-1 -16 -1 -25q0 -57 0.5 -107.5t1.5 -94.5v-18q-2 -10 -2 -16q-3 -9 -5 -19q-5 -21 -5 -39q0 -26 12.5 -43t43.5 -17q26 0 63 44t37 65q-21 24 -38 67t-17 106 q0 65 20.5 100.5t70.5 35.5q38 0 62 -41q20 -34 20 -68q-8 -27 -13 -46q-25 -86 -33 -118q39 0 56.5 3t31.5 7q6 0 31 -10zM637 291q0 20 -11 48q-7 17 -16 34q-32 -11 -39 -18.5t-7 -28.5v-26v-25q0 -16 11.5 -29t25.5 -27q17 14 26.5 34.5t9.5 37.5z" />
<glyph unicode="x" horiz-adv-x="537" d="M537 155q-44 -72 -81 -107q-51 -48 -111 -48q-35 0 -68 25q-43 32 -59 94q-39 -11 -80 -68q-37 -51 -75 -51q-31 0 -47 18t-16 46q0 19 18 37t36 18h46q38 0 69 35.5t31 91.5q0 49 -16 103q-24 79 -66 79q-14 0 -29.5 -19.5t-15.5 -35.5v-63v-19q0 -12 -2 -15t-11 -3h-15 q-30 0 -37.5 15t-7.5 48q0 60 41 94t105 34t102 -40l52 -60q41 51 54 63q40 37 82 37q25 0 44.5 -16t19.5 -29q0 -25 -15.5 -36t-38.5 -11q-17 0 -38 5q-7 1 -17 5q-21 0 -51.5 -42.5t-30.5 -75.5q0 -31 28 -109q33 -91 63 -91q20 0 76 70q33 41 61 57v-36z" />
<glyph unicode="y" horiz-adv-x="545" d="M582 192q-17 -71 -88 -141l-158 -130q-4 -8 -13 -82q-1 -12 -4 -33q-37 -90 -57 -122q-53 -85 -116 -85q-37 0 -51.5 25t-14.5 64q0 68 56 131q64 51 129 102q8 45 12 70q14 73 23 101v26q-21 -14 -107 -86q-38 -32 -85 -32q-43 0 -75.5 30.5t-32.5 69.5v101 q13 88 25 131q36 132 92 132q22 0 38.5 -9t16.5 -27q-24 -78 -36 -122q-36 -134 -36 -197q0 -34 8 -49t36 -15q74 0 130 121q53 145 107 290h93v-46q-42 -124 -69 -213q-1 -3 -37 -125q-16 -55 -26 -79v-25q35 12 105.5 91.5t97.5 132.5h37zM244 -116q-59 -15 -97 -95 q-30 -63 -30 -107q0 -21 7.5 -34t14.5 -13q51 0 83 124q10 41 22 125z" />
<glyph unicode="z" horiz-adv-x="414" d="M414 48q-40 -33 -71 -58q-61 -50 -61 -57q4 -4 5 -7q6 -11 6 -24v-44q0 -58 -66 -143q-71 -91 -133 -91q-27 0 -45.5 21t-18.5 47q0 56 59 121q64 60 129 120q0 18 -10 58.5t-22 40.5q-7 0 -31.5 -15.5t-50.5 -15.5h-13q-18 0 -18 19q0 33 49 42q67 13 104 54 q23 23 48 64q37 61 37 107v61q0 32 -26 57q-29 28 -74 28q-66 0 -115 -62q-41 -52 -41 -98q0 -26 18 -45t44 -19q39 0 62 41q13 31 27 62h15v-36l-40 -82q-32 -48 -88 -48q-37 0 -65 23t-28 60q0 104 93 176q76 59 144 59q70 0 116 -37q51 -41 51 -109q0 -69 -46 -130 q-61 -59 -121 -118l69 -50q25 12 38 19q38 20 55 31h15v-22zM218 -124q2 7 0 17q-72 -63 -112.5 -122.5t-40.5 -92.5q0 -10 8 -20.5t21 -10.5q43 0 83.5 78t40.5 151z" />
<glyph unicode="{" />
<glyph unicode="|" />
<glyph unicode="}" />
<glyph unicode="~" />
<glyph unicode="&#xa0;" />
<glyph unicode="&#xb8;" horiz-adv-x="1000" d="M1000 328q-87 -149 -186 -230q-120 -98 -255 -98q-71 0 -120 20q-68 28 -117 37q-112 21 -322 21v94q143 179 277 292q51 43 194 140q94 64 144 128q-105 23 -189 53q-58 22 -115 45q-48 18 -79 18q-32 0 -54.5 -13.5t-22.5 -44.5v-117q0 -6 3 -23t3 -26q0 -21 -14 -33.5 t-51 -12.5q-30 0 -63 39t-33 76q0 131 112.5 219t293.5 88q101 0 193 -38.5t172 -38.5q46 0 78 16.5t35 16.5q12 0 29 -15t49 -54q-194 -214 -349 -338q-46 -37 -180 -126q-62 -41 -86 -95q8 -5 86 -34t156 -52q94 -28 123 -28q69 0 130 65q100 105 158 144v-95z" />
<glyph unicode="&#xdf;" horiz-adv-x="417" d="M190 662q0 -45 -24 -88q-4 -8 -105 -132h-38v22q48 40 70 73.5t22 63.5q0 16 -31 46t-31 62q0 34 18.5 47t50.5 13q31 0 49.5 -29.5t18.5 -77.5zM419 152q-20 -75 -96 -119q-57 -33 -102 -33h-69q-65 0 -108.5 51t-43.5 109q0 15 45 92q32 56 87 140q47 72 50 72l15 -15 q16 -17 16 -23q-10 -11 -15 -17q-16 -22 -16 -37q51 -50 89 -105q42 -60 42 -107q0 -22 -3.5 -32t-5.5 -17q0 -8 9 -27q4 1 51 41q22 19 55 27zM198 182q0 32 -12.5 65.5t-33.5 65.5q-38 -26 -57 -59q-6 -10 -11 -26q0 -8 15.5 -25.5t15.5 -35.5q0 -21 -19 -50 q-6 -10 -20 -26q4 -10 8 -15q12 -15 31 -15q38 0 62 43q21 37 21 78z" />
<glyph unicode="&#x3a9;" horiz-adv-x="464" d="M464 152q-40 -67 -87 -106q-56 -46 -118 -46q-34 0 -60 11q-60 25 -199 25v44q73 92 143 147t142 112q-53 12 -96 28q-70 26 -82 26q-13 0 -18 -2q-17 -6 -17 -25v-54q3 -15 3 -23q0 -10 -6 -15.5t-24 -5.5q-13 0 -29 18t-16 35q0 61 52 102t136 41q46 0 89 -18t80 -18 q22 0 40 10q9 5 13 5q5 0 12.5 -6.5t23.5 -25.5q-89 -99 -161 -156q-15 -12 -84 -58q-28 -19 -40 -45q13 -10 102 -37q52 -16 67 -16q31 0 60 30q47 49 74 67v-44z" />
<glyph unicode="&#x2018;" horiz-adv-x="168" d="M138 931q-8 -31 -46 -52t-41.5 -34.5t-3.5 -25.5q0 -35 22 -78q10 -20 35 -54l-6 -22l-36 10q-25 52 -49.5 105t-24.5 96q0 21 6 45q10 40 31.5 64t47.5 24q4 0 14 -2q54 -14 54 -54q0 -10 -3 -22z" />
<glyph unicode="&#x2019;" horiz-adv-x="176" d="M160 921q6 -24 6 -46q0 -48 -35 -120q-20 -40 -39 -80l-36 -10l-6 22q22 30 35 55q22 43 22 78q0 11 -3.5 24.5t-41.5 34.5t-46 52q-3 12 -3 23q0 22 13.5 34t40.5 19q10 2 14 2q26 0 47 -24t32 -64z" />
<glyph unicode="&#x201c;" horiz-adv-x="328" d="M322 931q-8 -31 -46 -52t-41.5 -34.5t-3.5 -25.5q0 -35 22 -78q10 -20 35 -54l-6 -22l-36 10q-25 52 -49.5 105t-24.5 96q0 21 6 45q10 40 31.5 64t47.5 24q4 0 14 -2q54 -14 54 -54q0 -10 -3 -22zM138 931q-8 -31 -46 -52t-41.5 -34.5t-3.5 -25.5q0 -35 22 -78 q10 -20 35 -54l-6 -22l-36 10q-25 52 -49.5 105t-24.5 96q0 21 6 45q10 40 31.5 64t47.5 24q4 0 14 -2q54 -14 54 -54q0 -10 -3 -22z" />
<glyph unicode="&#x201d;" horiz-adv-x="372" d="M160 921q6 -24 6 -46q0 -48 -35 -120q-20 -40 -39 -80l-36 -10l-6 22q22 30 35 55q22 43 22 78q0 11 -3.5 24.5t-41.5 34.5t-46 52q-3 12 -3 23q0 22 13.5 34t40.5 19q10 2 14 2q26 0 47 -24t32 -64zM344 921q6 -24 6 -46q0 -48 -35 -120q-20 -40 -39 -80l-36 -10l-6 22 q22 30 35 55q22 43 22 78q0 11 -3.5 24.5t-41.5 34.5t-46 52q-3 12 -3 23q0 22 13.5 34t40.5 19q10 2 14 2q26 0 47 -24t32 -64z" />
<glyph unicode="&#x25fc;" horiz-adv-x="465" d="M0 465h465v-465h-465v465z" />
</font>
</defs>
</svg>
