<?xml version="1.0" standalone="no"?>
<!DOCTYPE svg PUBLIC "-//W3C//DTD SVG 1.1//EN" "http://www.w3.org/Graphics/SVG/1.1/DTD/svg11.dtd" >
<svg xmlns="http://www.w3.org/2000/svg">
<metadata></metadata>
<defs>
<font id="legacy_sans_itc_ttbold" horiz-adv-x="500" >
<font-face units-per-em="1000" ascent="800" descent="-200" />
<missing-glyph horiz-adv-x="193" />
<glyph horiz-adv-x="193" />
<glyph unicode="&#xd;" horiz-adv-x="193" />
<glyph unicode=" "  horiz-adv-x="193" />
<glyph unicode="&#x09;" horiz-adv-x="193" />
<glyph unicode="&#xa0;" horiz-adv-x="193" />
<glyph unicode="!" horiz-adv-x="370" d="M258 515l-48 -341h-50l-48 341v128h146v-128zM264 66q0 -32 -23.5 -55t-55.5 -23t-55.5 23t-23.5 55q0 34 23 57t57 23q32 0 55 -23.5t23 -56.5z" />
<glyph unicode="&#x22;" horiz-adv-x="556" d="M413 545l-24 -221h-55l-25 221v89h104v-89zM247 545l-24 -221h-56l-24 221v89h104v-89z" />
<glyph unicode="#" horiz-adv-x="593" d="M592 458l-20 -75h-139l-32 -118h138l-20 -75h-138l-52 -190h-59l52 190h-123l-52 -190h-59l52 190h-139l20 75h139l32 118h-138l20 75h138l48 176h59l-48 -176h123l48 176h59l-48 -176h139zM374 383h-123l-32 -118h123z" />
<glyph unicode="$" horiz-adv-x="556" d="M498 178q0 -70 -48 -116.5t-137 -60.5v-100h-65v97q-65 -2 -150 20q-27 7 -32.5 10t-5.5 12l-3 77q0 6 8 9l19 7q5 2 9 2q3 0 18 -10q74 -48 137 -48v196q-101 48 -129 72q-54 46 -54 109q0 80 62 125q43 31 121 44v69h65v-69q58 0 129 -16q18 -4 22.5 -7.5t4.5 -13.5 l1 -65q0 -11 -7 -13l-18 -6l-7 -1q-2 0 -15 8q-58 37 -110 37v-183q104 -45 144.5 -85.5t40.5 -99.5zM250 391v159q-67 -6 -67 -67q0 -54 67 -92zM378 159q0 28 -14.5 47t-52.5 39v-167q67 14 67 81z" />
<glyph unicode="%" horiz-adv-x="796" d="M771 163q0 -82 -46.5 -128.5t-128.5 -46.5q-77 0 -121 43.5t-44 119.5q0 84 47 131t130 47q75 0 119 -45t44 -121zM654 634l-436 -646h-79l435 646h80zM365 480q0 -82 -46.5 -128.5t-128.5 -46.5q-77 0 -121.5 43.5t-44.5 119.5q0 84 47 131t130 47q76 0 120 -44.5 t44 -121.5zM667 160q0 107 -65 107q-31 0 -49 -30.5t-18 -82.5q0 -104 64 -104q32 0 50 29.5t18 80.5zM261 477q0 107 -66 107q-31 0 -49 -30.5t-18 -82.5q0 -104 64 -104q32 0 50.5 30t18.5 80z" />
<glyph unicode="&#x26;" horiz-adv-x="648" d="M659 60l-10 -60q-29 -4 -61 -4q-53 0 -85.5 15t-73.5 59q-91 -80 -203 -80q-90 0 -143 46.5t-53 125.5q0 114 134 171q-70 49 -70 124q0 73 53 116.5t142 43.5q78 0 121 -34t43 -96q0 -91 -112 -139q66 -35 123 -120q37 53 52 138h101q-20 -111 -104 -210 q37 -53 68 -74.5t72 -21.5h6zM339 477q0 67 -62 67t-62 -66q0 -53 67 -93q57 25 57 92zM380 137q-66 111 -149 154q-69 -36 -69 -104q0 -43 27.5 -68t74.5 -25q64 0 116 43z" />
<glyph unicode="'" horiz-adv-x="370" d="M237 545l-24 -221h-56l-24 221v89h104v-89z" />
<glyph unicode="(" horiz-adv-x="389" d="M328 -194l-65 -63q-97 92 -149.5 215t-52.5 259t52.5 259.5t149.5 215.5l65 -64q-146 -178 -146 -411q0 -231 146 -411z" />
<glyph unicode=")" horiz-adv-x="389" d="M328 217q0 -281 -202 -474l-65 63q146 180 146 411t-146 411l65 64q202 -193 202 -475z" />
<glyph unicode="*" horiz-adv-x="555" d="M458 432h-47l-103 22l70 -78l24 -41l-67 -39l-24 40l-33 100l-34 -100l-24 -40l-67 39l24 41l70 78l-103 -22h-47v77h47l103 -23l-70 79l-24 41l67 39l24 -40l34 -100l33 100l24 40l67 -39l-24 -41l-70 -79l103 23h47v-77z" />
<glyph unicode="+" horiz-adv-x="556" d="M500 297q0 -15 -3.5 -18t-21.5 -3h-156v-162q0 -13 -3.5 -16t-17.5 -3h-40q-14 0 -17.5 3t-3.5 16v162h-163q-13 0 -16 3.5t-3 17.5v40q0 14 3 17.5t16 3.5h163v163q0 14 3 16.5t18 2.5h40q16 0 18.5 -3t2.5 -22v-157h162q14 0 16.5 -3t2.5 -18v-40z" />
<glyph unicode="," horiz-adv-x="278" d="M229 30q0 -85 -87 -160q-53 -46 -66 -46q-3 0 -9 7l-35 40v4q93 64 93 113q0 14 -22 25q-25 12 -33 21q-10 13 -10 37q0 29 22 48.5t53 19.5q41 0 67.5 -30.5t26.5 -78.5z" />
<glyph unicode="-" horiz-adv-x="333" d="M298 290l-23 -102h-240l23 102h240z" />
<glyph unicode="." horiz-adv-x="278" d="M218 66q0 -32 -23.5 -55t-55.5 -23t-55.5 23t-23.5 55q0 34 23 57t57 23q32 0 55 -23.5t23 -56.5z" />
<glyph unicode="/" horiz-adv-x="445" d="M387 634l-303 -814h-81l302 814h82z" />
<glyph unicode="0" horiz-adv-x="556" d="M513 330q0 -197 -80 -279q-62 -63 -161 -63q-228 0 -228 313q0 345 245 345q114 0 175 -93q49 -74 49 -223zM378 323q0 159 -27 206q-25 44 -71 44q-63 0 -84 -77q-17 -62 -17 -215q0 -131 25 -175.5t71 -44.5q55 0 79 61.5t24 200.5z" />
<glyph unicode="1" horiz-adv-x="555" d="M365 0h-129v509l-136 -62h-22v75l240 119h47v-641z" />
<glyph unicode="2" horiz-adv-x="556" d="M505 108l-23 -108h-431v54q148 144 226 243q67 85 67 155q0 103 -91 103q-110 0 -137 -110q-1 -6 -9 -6h-12q-11 0 -14 11l-11 47q-3 13 -3 14q0 20 38 60q71 75 183 75q88 0 138 -46t50 -126q0 -89 -82 -179q-54 -59 -198 -187h309z" />
<glyph unicode="3" horiz-adv-x="556" d="M484 212q0 -50 -23 -97t-62 -76q-67 -51 -177 -51q-117 0 -168 63q-16 20 -16 44q0 20 7 24l39 22q12 7 23 7h16q10 0 14 -15q22 -72 105 -72q50 0 79.5 34t29.5 92q0 117 -107 117q-32 0 -80 -16l-16 55q109 47 135 69q33 28 33 78q0 75 -75 75q-93 0 -124 -72 q-2 -5 -10 -5h-11q-10 0 -12 9l-11 48q-2 6 -2 11q0 8 32 34q70 56 173 56q78 0 123 -35t45 -95q0 -79 -107 -141q68 -6 107.5 -50t39.5 -113z" />
<glyph unicode="4" horiz-adv-x="555" d="M535 149h-103v-149h-119v149h-292v73l326 412h85v-391h103v-94zM313 243v245l-192 -245h192z" />
<glyph unicode="5" horiz-adv-x="555" d="M491 634l-19 -108h-248l-25 -95q137 -16 212 -76t75 -153q0 -91 -69 -152.5t-172 -61.5q-115 0 -167 62q-13 15 -13 39q0 26 11 34l32 22q10 7 19 7h20q9 0 12 -11q10 -36 39.5 -58t67.5 -22q44 0 73.5 31.5t29.5 79.5q0 73 -75 109q-49 23 -167 41l-26 32l73 280h317z " />
<glyph unicode="6" horiz-adv-x="555" d="M518 214q0 -104 -65.5 -165t-177.5 -61q-107 0 -166.5 69t-59.5 193q0 174 112.5 285t288.5 111q11 0 16 -8l24 -48l-11 -17h-13q-112 0 -193 -70q-63 -55 -82 -141q71 44 145 44q83 0 132.5 -52.5t49.5 -139.5zM383 195q0 57 -26.5 90t-72.5 33q-52 0 -103 -42 q-1 -11 -1 -24q0 -99 35 -150q28 -41 74 -41q43 0 68.5 36.5t25.5 97.5z" />
<glyph unicode="7" horiz-adv-x="556" d="M497 574l-311 -600l-116 23l301 521h-312v116h438v-60z" />
<glyph unicode="8" horiz-adv-x="555" d="M513 171q0 -83 -66.5 -133t-178.5 -50q-105 0 -165 44t-60 121q0 108 138 163q-110 54 -110 151q0 74 52 124q57 55 177 55q88 0 137 -38.5t49 -108.5q0 -95 -120 -150q72 -35 98 -60q49 -46 49 -118zM365 483q0 93 -85 93q-88 0 -88 -88q0 -36 23.5 -59.5t90.5 -51.5 q59 34 59 106zM387 158q0 40 -25.5 62t-123.5 66q-69 -30 -69 -112q0 -113 109 -113q50 0 79.5 26t29.5 71z" />
<glyph unicode="9" horiz-adv-x="556" d="M507 387q0 -133 -61.5 -229t-175.5 -141q-77 -30 -162 -30q-14 0 -18 8l-23 47l13 18q119 0 193 56.5t92 162.5q-70 -43 -144 -43q-82 0 -132.5 52.5t-50.5 137.5q0 98 67.5 159.5t176.5 61.5q225 0 225 -260zM376 397q0 83 -28 130t-77 47q-46 0 -72 -33t-26 -90 t27.5 -92.5t71.5 -35.5q52 0 101 42q3 20 3 32z" />
<glyph unicode=":" horiz-adv-x="278" d="M218 352q0 -32 -23.5 -55t-55.5 -23t-55.5 23t-23.5 55q0 34 23 57t57 23q32 0 55 -23.5t23 -56.5zM218 66q0 -32 -23.5 -55t-55.5 -23t-55.5 23t-23.5 55q0 34 23 57t57 23q32 0 55 -23.5t23 -56.5z" />
<glyph unicode=";" horiz-adv-x="278" d="M223 352q0 -32 -23.5 -55t-55.5 -23t-55.5 23t-23.5 55q0 34 23 57t57 23q32 0 55 -23.5t23 -56.5zM229 30q0 -86 -90 -163q-50 -43 -63 -43q-3 0 -9 7l-35 40v4q93 64 93 113q0 14 -22 25q-25 12 -33 21q-10 13 -10 37q0 29 22 48.5t53 19.5q41 0 67.5 -30.5t26.5 -78.5 z" />
<glyph unicode="&#x3c;" horiz-adv-x="555" d="M484 66l-412 208v99l412 208v-97l-316 -161l316 -161v-96z" />
<glyph unicode="=" horiz-adv-x="556" d="M500 360q0 -15 -3.5 -18t-21.5 -3h-401q-13 0 -16 3.5t-3 17.5v37q0 14 3 17.5t16 3.5h407q14 0 16.5 -3t2.5 -18v-37zM500 237q0 -15 -3.5 -18t-21.5 -3h-401q-13 0 -16 3.5t-3 17.5v36q0 22 19 22h407q13 0 16 -3.5t3 -17.5v-37z" />
<glyph unicode="&#x3e;" horiz-adv-x="555" d="M484 273l-412 -208v97l316 161l-316 161v96l412 -208v-99z" />
<glyph unicode="?" horiz-adv-x="407" d="M370 443q0 -70 -60 -117q-23 -18 -102 -62q-29 -16 -35 -28.5t-7 -57.5h-71l-2 31q-3 47 -3 75q0 30 16 47.5t79 57.5q50 32 65.5 50t15.5 44q0 62 -74 62q-49 0 -97 -29h-34l-21 58q-3 8 -3 23q0 14 6 19q35 30 114 30q105 0 168 -80q45 -57 45 -123zM211 66 q0 -32 -23.5 -55t-55.5 -23t-55.5 23t-23.5 55q0 34 23 57t57 23q32 0 55 -23.5t23 -56.5z" />
<glyph unicode="@" horiz-adv-x="815" d="M778 390q0 -78 -47.5 -141.5t-126.5 -90.5q-55 -19 -105 -19q-59 0 -59 49q0 28 10 71q-87 -120 -161 -120q-37 0 -59.5 28.5t-22.5 74.5q0 95 80.5 168.5t197.5 84.5l1 4q2 8 14 8h77q11 0 9 -6q-1 -3 -1 -7l-39 -260q-2 -13 -2 -26q0 -14 15 -14q24 0 57 32 q26 25 42.5 70t16.5 90q0 89 -61 143.5t-160 54.5q-128 0 -220.5 -89t-92.5 -213q0 -111 72.5 -174.5t199.5 -63.5q79 0 156 26q6 2 9 2q7 0 12.5 -11t5.5 -23q0 -7 -22 -16q-81 -33 -182 -33q-163 0 -259.5 78.5t-96.5 211.5q0 152 123.5 259t300.5 107q125 0 209 -55 q49 -33 79 -87.5t30 -112.5zM468 414q0 9 -16 9q-52 0 -93 -50.5t-41 -112.5q0 -30 14 -30q39 0 126 107l7 48q3 21 3 29z" />
<glyph unicode="A" horiz-adv-x="667" d="M667 0h-153l-70 189h-246l-76 -189h-122l303 634h103zM415 264l-89 240l-97 -240h186z" />
<glyph unicode="B" horiz-adv-x="630" d="M590 195q0 -90 -71.5 -142.5t-193.5 -52.5h-247v634l238 5q114 0 166 -29q68 -38 68 -110q0 -86 -107 -133q147 -33 147 -172zM404 475q0 50 -26.5 70.5t-90.5 20.5l-33 -1q-10 0 -39 -1v-186h47q85 0 113.5 23t28.5 74zM444 188q0 70 -49 98q-33 19 -132 19h-48v-228 q7 -1 85 -1q144 0 144 112z" />
<glyph unicode="C" horiz-adv-x="648" d="M627 600l-7 -62q-1 -7 -8 -10l-10 -6q-6 -2 -7 -2q-2 0 -21 9q-81 38 -184 38q-102 0 -156.5 -61t-54.5 -175q0 -119 62 -192t163 -73q97 0 186 52q3 2 5 2q4 0 7 -2l10 -6q7 -3 7 -7l-2 -8l-9 -64q-2 -12 -17 -17q-88 -28 -200 -28q-131 0 -218 54q-66 41 -103 111 t-37 154q0 155 107 247t286 92q49 0 109.5 -8.5t82.5 -18.5q11 -5 9 -19z" />
<glyph unicode="D" horiz-adv-x="759" d="M726 340q0 -104 -44 -181.5t-125 -116.5q-88 -42 -275 -42h-204v634l271 7q173 0 260 -57q117 -76 117 -244zM580 323q0 146 -78 199q-60 41 -167 40l-118 -1v-483h108q131 0 185 46q70 59 70 199z" />
<glyph unicode="E" horiz-adv-x="574" d="M550 0h-472v634h461v-79h-322v-182h288v-79h-288v-210h333v-84z" />
<glyph unicode="F" horiz-adv-x="537" d="M550 550h-333v-185h280v-84h-280v-281h-139v634h472v-84z" />
<glyph unicode="G" horiz-adv-x="722" d="M660 23q-142 -35 -261 -35q-148 0 -237 60q-129 87 -129 258q0 151 111 246t288 95q42 0 102.5 -9t81.5 -18q9 -4 10 -20l4 -68q0 -4 -6 -7l-18 -10q-2 -1 -6 -2q-3 0 -20 11q-69 44 -166 44q-109 0 -172 -65.5t-63 -179.5q0 -122 63 -189.5t178 -67.5q42 0 101 14v235 h139v-292z" />
<glyph unicode="H" horiz-adv-x="741" d="M662 0h-139v297h-306v-297h-139v634h139v-256h306v256h139v-634z" />
<glyph unicode="I" horiz-adv-x="296" d="M217 0h-139v634h139v-634z" />
<glyph unicode="J" horiz-adv-x="296" d="M218 101q0 -82 -13 -123.5t-51 -81.5q-79 -84 -184 -84q-60 0 -86 19q-6 4 -6 28q0 26 8 34l36 37q8 8 14 8h11q6 0 21 -8q19 -10 48 -10q48 0 58 40q5 18 5 83v591h139v-533z" />
<glyph unicode="K" horiz-adv-x="629" d="M654 0h-180l-249 338l273 296h151l-280 -270zM217 0h-139v634h139v-634z" />
<glyph unicode="L" d="M511 0h-433v634h139v-550h294v-84z" />
<glyph unicode="M" horiz-adv-x="889" d="M821 0h-134l-15 447l-229 -433l-63 -10l-221 462l-7 -466h-102l43 634h125l220 -456l233 456h127z" />
<glyph unicode="N" horiz-adv-x="759" d="M678 634l-1 -627l-82 -21l-427 467l8 -453h-100l4 634h100l406 -445l-8 445h100z" />
<glyph unicode="O" horiz-adv-x="796" d="M764 321q0 -149 -105 -241.5t-274 -92.5q-150 0 -244 80q-108 92 -108 245q0 157 122 250q110 84 258 84q158 0 254.5 -89.5t96.5 -235.5zM618 303q0 117 -64.5 190.5t-166.5 73.5q-92 0 -150 -67.5t-58 -174.5q0 -112 65 -185.5t164 -73.5q75 0 132 47q78 65 78 190z " />
<glyph unicode="P" horiz-adv-x="592" d="M581 441q0 -110 -98 -168q-66 -39 -197 -39q-33 0 -69 2v-236h-139v634l235 5q127 0 188 -40q80 -53 80 -158zM435 433q0 89 -67 115q-32 12 -89 12q-55 0 -62 -1v-243q35 -3 62 -3q83 0 117 27q39 31 39 93z" />
<glyph unicode="Q" horiz-adv-x="796" d="M764 321q0 -117 -64 -199t-183 -117q103 -100 215 -103l3 -59q-34 -7 -66 -7q-181 0 -312 152q-107 7 -180 53q-68 42 -106 114t-38 158q0 153 122 249q106 84 253 84q162 0 259 -88.5t97 -236.5zM618 303q0 117 -64.5 190.5t-166.5 73.5q-92 0 -150 -67.5t-58 -174.5 q0 -112 65 -185.5t164 -73.5q75 0 132 47q78 65 78 190z" />
<glyph unicode="R" horiz-adv-x="648" d="M671 48l-10 -40q-5 -20 -78 -20q-110 0 -184 103q-36 49 -98 177q-36 -2 -51 -2q-19 0 -33 1v-267h-139v634l238 5q135 3 194 -34q79 -49 79 -142q0 -126 -149 -170q66 -136 117.5 -190.5t110.5 -49.5zM443 455q0 74 -61 97q-29 11 -93 11q-32 0 -72 -1v-223q53 -2 73 -2 q153 0 153 118z" />
<glyph unicode="S" horiz-adv-x="519" d="M486 186q0 -85 -72.5 -141.5t-180.5 -56.5q-107 0 -181 25q-14 5 -15 17l-8 69q-1 3 -1 9q0 5 6 8l24 13q4 3 7 3q4 -1 6 -3q84 -58 174 -58q53 0 84 23.5t31 63.5q0 33 -22 51.5t-102 52.5q-109 47 -149 85q-46 44 -46 114q0 83 70 134t185 51q35 0 82.5 -7t64.5 -14 q9 -4 10 -16l8 -68q0 -3 -7 -7l-23 -12q-6 -3 -8 -3q-3 0 -19 11q-55 37 -129 37q-50 0 -79 -21.5t-29 -58.5t27 -56q23 -16 108 -55q102 -46 136 -78q48 -45 48 -112z" />
<glyph unicode="T" horiz-adv-x="593" d="M615 550h-249v-550h-139v550h-249v84h637v-84z" />
<glyph unicode="U" horiz-adv-x="722" d="M652 634l-8 -330q-3 -116 -21.5 -168t-69.5 -90q-79 -58 -216 -58t-203 63q-33 31 -44 71.5t-11 127.5v384h139v-378q0 -70 6 -91q24 -82 147 -82q107 0 152 60q21 27 25 76q2 16 2 82v333h102z" />
<glyph unicode="V" horiz-adv-x="630" d="M658 634l-301 -634h-99l-258 634h154l180 -487l200 487h124z" />
<glyph unicode="W" horiz-adv-x="981" d="M1000 634l-274 -634h-99l-144 414l-154 -414h-99l-239 634h150l159 -475l171 475h74l159 -475l173 475h123z" />
<glyph unicode="X" horiz-adv-x="611" d="M621 0h-169l-155 247l-171 -247h-136l255 321l-221 313h159l144 -224l157 224h136l-240 -297z" />
<glyph unicode="Y" horiz-adv-x="556" d="M589 634l-246 -354v-280h-139v276l-229 358h166l159 -270l155 270h134z" />
<glyph unicode="Z" horiz-adv-x="574" d="M569 84l-15 -84h-546v56l377 494h-354v84h536v-54l-377 -496h379z" />
<glyph unicode="[" horiz-adv-x="389" d="M336 -250h-236v935h236v-75h-119v-785h119v-75z" />
<glyph unicode="\" horiz-adv-x="444" d="M441 -180h-82l-302 814h81z" />
<glyph unicode="]" horiz-adv-x="389" d="M288 -250h-236v75h119v785h-119v75h236v-935z" />
<glyph unicode="^" horiz-adv-x="475" d="M471 318h-129l-105 221l-104 -221h-129l152 320h163z" />
<glyph unicode="_" horiz-adv-x="476" d="M476 -155h-476v111h476v-111z" />
<glyph unicode="`" d="M325 474l-56 -9l-172 133v27l102 29z" />
<glyph unicode="a" d="M506 42q0 -13 -14 -20q-63 -32 -121 -32q-46 0 -67 40q-106 -40 -163 -40q-51 0 -80.5 32.5t-29.5 89.5q0 69 47 94.5t215 46.5q0 61 -7 74q-12 23 -62 23q-78 0 -129 -54l-35 9l-3 60q1 12 8 17q77 51 194 51q97 0 136 -47q24 -29 24 -92v-27l-3 -151q-1 -37 22 -37 q25 0 64 14l4 -3v-48zM293 94v95q-58 -8 -100 -17q-24 -5 -32 -13.5t-8 -32.5q0 -47 52 -47q43 0 82 13z" />
<glyph unicode="b" horiz-adv-x="555" d="M526 236q0 -127 -97 -196q-73 -52 -209 -52q-95 0 -154 16q-10 3 -10 12v674h127v-295q99 38 166 38q80 0 128.5 -54t48.5 -143zM394 214q0 128 -108 128q-52 0 -103 -21v-237q43 -13 90 -13q121 0 121 143z" />
<glyph unicode="c" horiz-adv-x="426" d="M419 379q0 -16 -7 -24l-36 -43h-21q-47 30 -103 30q-51 0 -73.5 -26t-22.5 -84q0 -149 120 -149q62 0 123 33l9 -5v-45q0 -13 -15 -23q-79 -55 -176 -55q-85 0 -136 53.5t-51 142.5q0 109 74.5 179t190.5 70q83 0 118 -31q6 -5 6 -23z" />
<glyph unicode="d" horiz-adv-x="555" d="M499 0h-127l2 40q-72 -50 -154 -50q-85 0 -138 53t-53 138q0 103 77.5 174.5t190.5 71.5q30 0 75 -8v271h127v-690zM372 104v212q-46 20 -97 20q-114 0 -114 -116q0 -67 31 -105t85 -38q46 0 95 27z" />
<glyph unicode="e" horiz-adv-x="463" d="M441 201l-279 -19q13 -103 109 -103q76 0 143 41l7 -2l17 -50q1 -1 1 -4q0 -6 -16 -16q-92 -60 -198 -60q-92 0 -143.5 55t-51.5 153q0 112 70 180q58 57 154 57q120 0 164 -97q22 -47 23 -135zM301 261q-1 25 -2 36q-3 21 -11 35q-18 31 -51 31q-70 0 -76 -113z" />
<glyph unicode="f" horiz-adv-x="315" d="M416 641q0 -7 -7 -18l-31 -48h-26q-36 28 -85 28q-37 0 -55 -27q-14 -21 -14 -95v-59h143v-79h-143v-343h-128v343h-68v55l68 20v18q0 74 16 114.5t60 77.5q75 63 158 63q40 0 76 -16t36 -34z" />
<glyph unicode="g" horiz-adv-x="518" d="M518 346h-94q28 -38 28 -87q0 -94 -90 -136q-29 -13 -102 -33q-14 -4 -49 -13q-17 -4 -17 -15q0 -15 30 -20q9 -3 92 -12q74 -8 100 -14.5t48 -21.5q45 -31 45 -83q0 -74 -93 -127t-221 -53q-88 0 -140 28.5t-52 77.5q0 39 38 67t127 54q-45 9 -63.5 26t-18.5 49 q0 33 35 49q11 5 57 22q-134 31 -134 151q0 79 58.5 128.5t150.5 49.5q36 0 98 -14l167 2v-75zM330 253q0 52 -21.5 82t-59.5 30t-60.5 -27t-22.5 -72q0 -101 91 -117q73 20 73 104zM410 -120q0 36 -62.5 48t-101.5 12q-122 -31 -122 -79q0 -27 32.5 -43.5t84.5 -16.5 q67 0 118 23.5t51 55.5z" />
<glyph unicode="h" horiz-adv-x="537" d="M482 0h-128v256q0 43 -13 60.5t-45 17.5q-42 0 -113 -34v-300h-127v690h127v-304q95 47 168 47q71 0 106 -48q25 -34 25 -129v-256z" />
<glyph unicode="i" horiz-adv-x="241" d="M193 624q0 -29 -21.5 -50t-50.5 -21t-50.5 21t-21.5 50q0 31 21 52t52 21q29 0 50 -21.5t21 -51.5zM185 0h-129v422h129v-422z" />
<glyph unicode="j" horiz-adv-x="241" d="M192 624q0 -29 -21.5 -50t-50.5 -21t-50.5 21t-21.5 50q0 31 21 52t52 21q29 0 50 -21.5t21 -51.5zM184 -33q0 -120 -68 -182q-63 -57 -145 -57q-52 0 -73 16q-6 4 -6 18q0 21 9 30l42 42h18q23 -11 48 -11q37 0 43 26q3 8 3 75v498h129v-455z" />
<glyph unicode="k" horiz-adv-x="518" d="M532 0h-169l-175 228l186 194h148l-200 -167zM183 0h-127v690h127v-690z" />
<glyph unicode="l" horiz-adv-x="241" d="M185 0h-129v690h129v-690z" />
<glyph unicode="m" horiz-adv-x="815" d="M760 0h-129v250q0 49 -9 63q-13 21 -43 21q-41 0 -106 -38v-296h-129v260q0 42 -9 54q-15 20 -47 20q-40 0 -103 -42v-292h-129v422h129l-2 -46q82 57 158 57q77 0 108 -64q94 64 170 64q94 0 126 -65q15 -31 15 -118v-250z" />
<glyph unicode="n" horiz-adv-x="537" d="M482 0h-128v230q0 61 -7 77q-12 27 -49 27q-52 0 -113 -44v-290h-129v422h129l-2 -51q95 62 171 62q80 0 112 -60q16 -30 16 -114v-259z" />
<glyph unicode="o" horiz-adv-x="555" d="M526 212q0 -100 -70.5 -162.5t-183.5 -62.5q-112 0 -177 60t-65 162t73.5 163t195.5 61q101 0 164 -61.5t63 -159.5zM388 189q0 75 -32.5 121.5t-84.5 46.5q-48 0 -76 -34t-28 -92q0 -75 33.5 -121.5t87.5 -46.5q46 0 73 33.5t27 92.5z" />
<glyph unicode="p" horiz-adv-x="555" d="M526 242q0 -102 -77.5 -174t-187.5 -72q-26 0 -78 8v-254q0 -8 -8 -8h-111q-8 0 -8 8v664q0 8 8 8h111q8 0 8 -5v-3l-2 -30q54 27 80 36q38 13 85 13q75 0 120 -42q60 -56 60 -149zM394 211q0 131 -105 131q-52 0 -106 -29v-203q55 -27 100 -27q111 0 111 128z" />
<glyph unicode="q" horiz-adv-x="555" d="M499 -250q0 -8 -8 -8h-111q-8 0 -8 8v277q-101 -37 -163 -37q-84 0 -132 50.5t-48 139.5q0 116 78 184.5t210 68.5q114 0 176 -22q6 -2 6 -9v-652zM372 101v236q-40 13 -81 13q-125 0 -125 -135q0 -134 111 -134q52 0 95 20z" />
<glyph unicode="r" horiz-adv-x="370" d="M392 401q0 -15 -4 -23l-28 -72h-18q-19 15 -41 15q-61 0 -116 -107v-214h-129v422h129l-4 -103q68 114 145 114q37 0 60 -16q6 -4 6 -16z" />
<glyph unicode="s" horiz-adv-x="426" d="M398 135q0 -65 -55.5 -105t-146.5 -40q-90 0 -149 21q-6 2 -8 13l-10 71l33 15q59 -44 144 -44q69 0 69 44q0 25 -33 38l-53 16q-80 23 -106 42q-43 31 -43 86q0 64 53.5 101t144.5 37q77 0 115 -13q7 -2 8 -15l7 -64l-32 -15q-57 34 -116 34q-62 0 -62 -39 q0 -19 13.5 -27t75.5 -27q85 -26 118 -54t33 -75z" />
<glyph unicode="t" horiz-adv-x="352" d="M365 39q0 -5 -23 -15q-86 -37 -156 -37q-68 0 -95 49q-17 30 -17 96v10l3 205h-60v33l146 147h34l-2 -105h165v-72h-165v-181q0 -54 13 -76.5t44 -22.5q43 0 94 21l8 -3l11 -45v-4z" />
<glyph unicode="u" horiz-adv-x="537" d="M481 0h-124l2 44q-81 -54 -165 -54q-87 0 -120 58q-19 34 -19 136v238h129v-237q0 -57 10 -75q14 -25 49 -25q49 0 110 38v299h128v-422z" />
<glyph unicode="v" horiz-adv-x="444" d="M464 422l-207 -422h-87l-178 422h146l103 -279l111 279h112z" />
<glyph unicode="w" horiz-adv-x="704" d="M719 422l-197 -422h-97l-78 241l-94 -241h-97l-158 422h137l91 -293l104 293h84l87 -293l109 293h109z" />
<glyph unicode="x" horiz-adv-x="463" d="M473 422l-173 -197l171 -225h-149l-100 144l-103 -144h-132l182 214l-160 208h147l93 -127l93 127h131z" />
<glyph unicode="y" horiz-adv-x="444" d="M469 422l-353 -691l-111 24l155 240l-162 427h147l89 -286l123 286h112z" />
<glyph unicode="z" horiz-adv-x="426" d="M419 75l-16 -75h-397v54l244 293h-218v75h384v-55l-243 -292h246z" />
<glyph unicode="{" horiz-adv-x="389" d="M349 -252q-16 -1 -36 -1q-115 0 -153 47q-21 26 -26 76q-1 14 -1 83q0 149 -2 164q-4 32 -25.5 46.5t-68.5 17.5l-16 1v70l16 1q54 3 75 23.5t21 71.5v146q0 67 3 87q9 50 41 74q41 31 140 31h32v-74q-44 0 -54 -2q-31 -6 -40 -30q-4 -16 -4 -54v-157q0 -69 -17.5 -102.5 t-64.5 -49.5q41 -15 59.5 -40.5t21.5 -73.5q1 -15 1 -157v-57q0 -41 16 -54.5t63 -13.5q11 0 19 1v-74z" />
<glyph unicode="|" horiz-adv-x="476" d="M300 -159h-124v793h124v-793z" />
<glyph unicode="}" horiz-adv-x="389" d="M368 182l-16 -1q-55 -3 -75.5 -23.5t-20.5 -72.5v-145q0 -67 -3 -88q-9 -50 -41 -74q-41 -31 -137 -31q-19 0 -35 1v74q8 -1 19 -1q44 0 60 11.5t18 43.5q2 39 1 187q-1 70 17 104t65 50q-82 28 -82 134v193q0 49 -28 62q-14 6 -70 6v74h32q93 0 134 -26t48 -90 q3 -24 2 -212q0 -59 20 -80t76 -25l16 -1v-70z" />
<glyph unicode="~" horiz-adv-x="634" d="M549 671q-36 -77 -73.5 -102t-77.5 -25q-25 0 -98 26q-59 21 -76 21q-26 0 -45 -17q-8 -9 -25 -41l-68 44q0 1 7 16q31 69 62 93t75 24q32 0 99 -24q62 -22 82 -22q39 0 68 47z" />
<glyph unicode="&#xa1;" horiz-adv-x="370" d="M264 354q0 -34 -23 -57t-56 -23t-56 23t-23 56t23 56t57 23q32 0 55 -23t23 -55zM258 -222h-146v128l48 340h50l48 -340v-128z" />
<glyph unicode="&#xa2;" horiz-adv-x="556" d="M477 213q0 -11 -53 -42q-38 -23 -77 -31v-92h-63v86q-69 4 -111 41q-63 56 -63 156q0 84 46 139t128 70v66h63v-62q64 -2 104 -28q15 -10 15 -32q0 -18 -8 -26l-36 -34h-28q-19 28 -47 31v-225q44 3 80 47h13l35 -57q1 -1 2 -7zM284 234v221q-64 -14 -64 -99 q0 -98 64 -122z" />
<glyph unicode="&#xa3;" horiz-adv-x="555" d="M543 53q0 -13 -11 -22q-54 -43 -132 -43q-31 0 -121 16q-45 8 -69 8q-41 0 -71 -18q-15 -9 -17 -9q-3 0 -9 9l-19 32q-5 8 -5 10q0 5 16 16q67 47 67 106q0 34 -18 100h-97v75h76q-14 65 -14 95q0 102 81 164q74 55 179 55q70 0 111.5 -28.5t41.5 -75.5q0 -32 -16 -38 l-70 -26l-28 12q0 73 -81 73q-92 0 -92 -93q0 -50 26 -138h138v-75h-121q4 -17 4 -39q0 -60 -59 -113q28 5 48 5q28 0 84 -8q63 -9 82 -9q48 0 74 25l22 -10v-56z" />
<glyph unicode="&#xa4;" horiz-adv-x="556" d="M516 133q0 -3 -6 -9l-32 -32q-6 -6 -9 -6q-4 0 -12 8l-72 72q-54 -32 -107 -32q-55 0 -107 32l-72 -72q-8 -8 -11 -8q-5 0 -10 6l-32 32q-6 5 -6 9t8 12l72 72q-33 55 -33 107q0 54 33 107l-72 73q-8 6 -8 11q0 3 6 9l31 32q6 6 10 6t10 -6l74 -74q53 33 107 33t107 -33 l72 72q8 8 11 8q4 0 10 -6l32 -32q6 -6 6 -9t-7 -10l-73 -74q32 -52 32 -107q0 -54 -32 -107l72 -72q8 -8 8 -12zM375 325q0 40 -29 68.5t-70 28.5q-39 0 -67.5 -28.5t-28.5 -68.5t29 -69t69 -29t68.5 29t28.5 69z" />
<glyph unicode="&#xa5;" horiz-adv-x="555" d="M577 634l-166 -256h124v-56h-160l-27 -42v-31h187v-56h-187v-193h-136v193h-170v56h170v27l-27 46h-143v56h110l-152 256h161l143 -273l143 273h130z" />
<glyph unicode="&#xa6;" horiz-adv-x="476" d="M300 304h-124v330h124v-330zM300 -159h-124v305h124v-305z" />
<glyph unicode="&#xa7;" horiz-adv-x="555" d="M491 183q0 -79 -83 -147q47 -47 47 -105q0 -78 -74 -136.5t-172 -58.5q-92 0 -138 42q-8 7 -8 24q0 22 6 30l40 55h25q39 -60 118 -60q39 0 62.5 18.5t23.5 49.5q0 27 -21.5 49t-88.5 63q-96 59 -128.5 95.5t-32.5 86.5q0 78 79 142q-57 51 -57 116q0 81 72 140t171 59 q91 0 127 -43q6 -7 6 -27q0 -24 -9 -32l-42 -37h-31q-27 52 -94 52q-38 0 -60.5 -18.5t-22.5 -49.5q0 -30 23 -53t99 -69q95 -57 129 -96t34 -90zM380 132q0 28 -19.5 51t-72.5 57q-22 14 -87 57q-24 -27 -24 -59q0 -29 19 -50.5t74 -56.5l86 -55q24 25 24 56z" />
<glyph unicode="&#xa8;" d="M408 550q0 -25 -17.5 -42t-41.5 -17t-41.5 17t-17.5 41q0 26 17.5 43t42.5 17q24 0 41 -17.5t17 -41.5zM209 550q0 -25 -17 -42t-42 -17q-24 0 -41.5 17t-17.5 41q0 26 17.5 43t42.5 17q24 0 41 -17.5t17 -41.5z" />
<glyph unicode="&#xa9;" horiz-adv-x="766" d="M721 317q0 -136 -99 -232t-239 -96q-141 0 -239.5 96.5t-98.5 233.5q0 136 100.5 231t243.5 95q135 0 233.5 -97.5t98.5 -230.5zM648 318q0 109 -78 185t-191 76q-107 0 -184 -77.5t-77 -185.5q0 -110 77.5 -188t187.5 -78q111 0 188 78t77 190zM545 477l-4 -35 q-1 -10 -5 -12l-5 -3l-5 -1l-2 1q-53 23 -113 23q-102 0 -102 -124q0 -64 30.5 -102t81.5 -38q57 0 94 23q8 5 12 5q2 0 4 -1l5 -3q4 -3 4 -6v-6l-6 -41q-1 -7 -9 -10q-48 -16 -113 -16q-92 0 -147 49t-55 131q0 88 60 140t161 52q46 0 103 -13q11 -3 11 -10v-3z" />
<glyph unicode="&#xaa;" horiz-adv-x="333" d="M336 282q0 -10 -11 -15q-41 -19 -80 -19q-32 0 -47 22l-31 -10q-37 -12 -73 -12q-34 0 -54.5 20.5t-20.5 54.5q0 43 30.5 58.5t139.5 28.5q0 30 -4 37q-6 12 -35 12q-53 0 -84 -32l-28 7l-3 42q0 13 46 26.5t89 13.5q109 0 109 -84v-18l-2 -88q0 -18 11 -18q18 0 42 9 l6 -5v-30zM189 316v48h-4l-19 -3q-18 -3 -37 -5q-23 -7 -23 -23q0 -25 30 -25q21 0 53 8z" />
<glyph unicode="&#xab;" horiz-adv-x="519" d="M477 84l-52 -29l-179 183l179 182l52 -29l-102 -153zM273 84l-51 -29l-180 183l180 182l51 -29l-101 -153z" />
<glyph unicode="&#xac;" horiz-adv-x="476" d="M444 0h-124v138h-288v115h412v-253z" />
<glyph unicode="&#xad;" horiz-adv-x="333" d="M298 290l-23 -102h-240l23 102h240z" />
<glyph unicode="&#xae;" horiz-adv-x="766" d="M721 317q0 -136 -99 -232t-239 -96q-141 0 -239.5 96.5t-98.5 233.5q0 136 100.5 231t243.5 95q135 0 233.5 -97.5t98.5 -230.5zM648 318q0 109 -78 185t-191 76q-107 0 -184 -77.5t-77 -185.5q0 -110 77.5 -188t187.5 -78q111 0 188 78t77 190zM565 178l-6 -26 q-3 -11 -50 -11q-49 0 -82.5 32.5t-77.5 120.5h-31v-146h-88v358l132 2q82 0 114 -19q46 -27 46 -79q0 -72 -86 -100q64 -129 123 -129h4zM430 405q0 38 -32 50q-13 5 -54 5h-26v-118q18 -1 32 -1q80 0 80 64z" />
<glyph unicode="&#xaf;" d="M384 498h-268v94h268v-94z" />
<glyph unicode="&#xb0;" horiz-adv-x="555" d="M440 482q0 -66 -48 -113.5t-115 -47.5q-66 0 -114 47.5t-48 113.5q0 69 47.5 116.5t116.5 47.5q67 0 114 -48t47 -116zM362 482q0 37 -24.5 62t-61.5 25q-34 0 -58.5 -25.5t-24.5 -60.5t24.5 -60t59.5 -25t60 24.5t25 59.5z" />
<glyph unicode="&#xb1;" horiz-adv-x="556" d="M500 297q0 -15 -3.5 -18t-21.5 -3h-156v-162q0 -13 -3.5 -16t-17.5 -3h-40q-14 0 -17.5 3t-3.5 16v162h-163q-13 0 -16 3.5t-3 17.5v40q0 14 3 17.5t16 3.5h163v163q0 14 3 16.5t18 2.5h40q16 0 18.5 -3t2.5 -22v-157h162q14 0 16.5 -3t2.5 -18v-40zM500 5 q0 -15 -3.5 -18t-21.5 -3h-401q-13 0 -16 3.5t-3 17.5v40q0 14 3 17.5t16 3.5h407q14 0 16.5 -3t2.5 -18v-40z" />
<glyph unicode="&#xb2;" horiz-adv-x="352" d="M329 327l-18 -73h-287v37q107 96 147 145.5t40 85.5q0 51 -52 51q-42 0 -67 -27q-4 -5 -18 -33q-2 -6 -10 -6h-8q-8 0 -11 10l-9 31q0 2 -1 12q3 15 26 36q51 45 121 45q59 0 93 -28t34 -77q0 -54 -54 -108q-29 -29 -117 -101h191z" />
<glyph unicode="&#xb3;" horiz-adv-x="352" d="M316 383q0 -66 -58 -105q-46 -31 -119 -31q-76 0 -112 38q-11 12 -11 30q0 16 6 19l26 13q10 5 17 5h10q9 0 11 -6q15 -44 67 -44q30 0 48 18t18 48q0 62 -66 62q-21 0 -54 -8l-12 40q52 21 65 27t24 14q20 15 20 43q0 36 -44 36q-58 0 -77 -39q-2 -5 -10 -5h-7 q-11 0 -12 9l-7 30q-2 6 -2 8q0 7 22 23q46 33 116 33q53 0 84 -21.5t31 -58.5q0 -44 -62 -80q88 -22 88 -98z" />
<glyph unicode="&#xb4;" d="M404 598l-172 -133l-56 9l126 180l102 -29v-27z" />
<glyph unicode="&#xb6;" horiz-adv-x="685" d="M712 569q0 -21 -48 -28q-29 -5 -111 -6v-561q0 -114 -52 -158q-43 -36 -100 -36q-16 0 -21 25l-7 35l11 15q53 9 74 26q41 32 41 96v64q-59 -3 -96 -3q-119 0 -191 31q-77 33 -119.5 97.5t-42.5 149.5q0 131 90 202q77 61 218 61q68 0 141 -3v110h54v-110q107 1 125 44 h17l14 -36q3 -8 3 -15zM499 81v454h-76q-30 0 -36.5 -12.5t-6.5 -72.5v-280q0 -72 12 -82q9 -7 31 -7h76z" />
<glyph unicode="&#xb7;" horiz-adv-x="278" d="M218 240q0 -32 -23.5 -55t-55.5 -23t-55.5 23t-23.5 55q0 34 23 57t57 23q32 0 55 -23.5t23 -56.5z" />
<glyph unicode="&#xb8;" d="M328 -117q0 -41 -41 -74.5t-90 -33.5q-27 0 -50 12.5t-23 26.5q0 4 4 8l33 29h12q21 -24 46 -24q26 0 26 23q0 13 -11.5 22.5t-49.5 29.5v24l56 74h64l-27 -46v-9q51 -21 51 -62z" />
<glyph unicode="&#xb9;" horiz-adv-x="352" d="M239 254h-94v294l-84 -35h-19v53l159 73h38v-385z" />
<glyph unicode="&#xba;" horiz-adv-x="370" d="M340 382q0 -61 -44 -98.5t-115 -37.5q-70 0 -110.5 36t-40.5 98t46 99t122 37q63 0 102.5 -37.5t39.5 -96.5zM243 369q0 43 -17 69t-45 26q-54 0 -54 -70q0 -43 18 -69t47 -26q51 0 51 70z" />
<glyph unicode="&#xbb;" horiz-adv-x="519" d="M477 238l-180 -183l-51 29l101 154l-101 153l51 29zM273 238l-179 -183l-52 29l102 154l-102 153l52 29z" />
<glyph unicode="&#xbc;" horiz-adv-x="815" d="M758 87h-66v-87h-87v87h-190v48l213 246h64v-231h66v-63zM631 634l-435 -646h-79l435 646h79zM249 254h-94v294l-84 -35h-19v53l159 73h38v-385zM605 150v130l-111 -130h111z" />
<glyph unicode="&#xbd;" horiz-adv-x="815" d="M756 73l-18 -73h-287v37q114 105 150.5 150t36.5 82q0 51 -52 51q-65 0 -85 -60q-2 -6 -10 -6h-8q-8 0 -11 9l-9 32l-1 10q0 14 26 38q48 45 121 45q59 0 93 -28t34 -77q0 -54 -54 -108q-25 -25 -117 -102h191zM619 634l-436 -646h-79l435 646h80zM231 254h-94v294 l-84 -35h-19v53l159 73h38v-385z" />
<glyph unicode="&#xbe;" horiz-adv-x="815" d="M788 87h-66v-87h-87v87h-191v48l214 246h64v-231h66v-63zM683 634l-436 -646h-78l434 646h80zM333 383q0 -66 -58 -105q-46 -31 -119 -31q-76 0 -112 38q-11 12 -11 30q0 16 6 19l26 13q10 5 17 5h10q9 0 11 -6q15 -44 67 -44q30 0 48 18t18 48q0 62 -66 62q-21 0 -54 -8 l-12 40q52 21 65 27t24 14q20 15 20 43q0 36 -44 36q-58 0 -77 -39q-2 -5 -10 -5h-7q-11 0 -12 9l-7 30q-2 6 -2 8q0 7 22 23q46 33 116 33q53 0 84 -21.5t31 -58.5q0 -44 -62 -80q88 -22 88 -98zM635 150v130l-112 -130h112z" />
<glyph unicode="&#xbf;" horiz-adv-x="407" d="M354 354q0 -34 -23 -57t-56 -23t-56 23t-23 56t23.5 56t56.5 23q32 0 55 -23t23 -55zM370 -177q0 -14 -6 -19q-37 -30 -114 -30q-105 0 -168 80q-45 57 -45 123q0 70 60 117q21 16 102 62q29 16 35 28.5t8 57.5h70l2 -31q4 -62 4 -75q0 -30 -16 -48t-79 -57 q-51 -32 -66.5 -49.5t-15.5 -44.5q0 -61 74 -61q49 0 97 29h35l20 -59q3 -9 3 -23z" />
<glyph unicode="&#xc0;" horiz-adv-x="667" d="M422 700l-57 -17l-198 113l-4 28l102 45zM667 0h-153l-70 189h-246l-76 -189h-122l303 634h103zM415 264l-89 240l-97 -240h186z" />
<glyph unicode="&#xc1;" horiz-adv-x="667" d="M518 824l-4 -28l-198 -113l-57 17l157 169zM667 0h-153l-70 189h-246l-76 -189h-122l303 634h103zM415 264l-89 240l-97 -240h186z" />
<glyph unicode="&#xc2;" horiz-adv-x="667" d="M528 698l-47 -26l-133 93l-133 -93l-47 26l147 167h67zM667 0h-153l-70 189h-246l-76 -189h-122l303 634h103zM415 264l-89 240l-97 -240h186z" />
<glyph unicode="&#xc3;" horiz-adv-x="667" d="M531 807q-33 -117 -122 -117q-29 0 -79 22q-34 15 -52 15q-34 0 -49 -37h-6l-42 21q42 115 124 115q27 0 88 -26q26 -11 41 -11q33 0 51 38h6zM667 0h-153l-70 189h-246l-76 -189h-122l303 634h103zM415 264l-89 240l-97 -240h186z" />
<glyph unicode="&#xc4;" horiz-adv-x="667" d="M513 760q0 -25 -18 -42.5t-43 -17.5t-42.5 17.5t-17.5 42.5q0 26 18 43.5t43 17.5t42.5 -18t17.5 -43zM308 760q0 -25 -18 -42.5t-43 -17.5t-42.5 17.5t-17.5 42.5q0 26 18 43.5t43 17.5t42.5 -18t17.5 -43zM667 0h-153l-70 189h-246l-76 -189h-122l303 634h103zM415 264 l-89 240l-97 -240h186z" />
<glyph unicode="&#xc5;" horiz-adv-x="667" d="M479 778q0 -47 -35.5 -79.5t-87.5 -32.5q-51 0 -87 32.5t-36 78.5q0 48 36 81t88 33q50 0 86 -33t36 -80zM667 0h-153l-70 189h-246l-76 -189h-122l303 634h103zM408 777q0 27 -15 44.5t-38 17.5q-22 0 -36.5 -17.5t-14.5 -44.5q0 -26 15.5 -44t38.5 -18q22 0 36 17.5 t14 44.5zM415 264l-89 240l-97 -240h186z" />
<glyph unicode="&#xc6;" horiz-adv-x="926" d="M902 0h-463v219h-225l-142 -219h-131l445 634h505v-79h-322v-182h288v-79h-288v-210h333v-84zM439 294v261h-7l-167 -261h174z" />
<glyph unicode="&#xc7;" horiz-adv-x="648" d="M626 600l-7 -62q-1 -7 -8 -10l-10 -6q-3 -2 -7 -2q-2 0 -21 9q-81 38 -183 38t-156.5 -61t-54.5 -175q0 -119 62 -192t163 -73q96 0 185 52q3 2 6 2q2 0 6 -3l10 -5q7 -3 7 -8q0 -2 -1 -8l-10 -63q-2 -14 -21 -19q-77 -22 -163 -26l-22 -36v-9q52 -22 52 -63 q0 -43 -41.5 -77.5t-92.5 -34.5q-27 0 -50.5 12.5t-23.5 27.5q0 5 3 8l34 30h13q21 -24 46 -24q26 0 26 23q0 22 -61 53v25l49 66q-85 5 -146 33q-82 37 -129 113t-47 172q0 154 106.5 246.5t285.5 92.5q49 0 110 -8.5t82 -18.5q11 -5 9 -19z" />
<glyph unicode="&#xc8;" horiz-adv-x="574" d="M403 700l-57 -17l-198 113l-4 28l102 45zM550 0h-472v634h461v-79h-322v-182h288v-79h-288v-210h333v-84z" />
<glyph unicode="&#xc9;" horiz-adv-x="574" d="M471 824l-4 -28l-198 -113l-57 17l157 169zM550 0h-472v634h461v-79h-322v-182h288v-79h-288v-210h333v-84z" />
<glyph unicode="&#xca;" horiz-adv-x="574" d="M483 698l-47 -26l-133 93l-133 -93l-47 26l147 167h67zM550 0h-472v634h461v-79h-322v-182h288v-79h-288v-210h333v-84z" />
<glyph unicode="&#xcb;" horiz-adv-x="574" d="M477 760q0 -25 -18 -42.5t-43 -17.5t-42.5 17.5t-17.5 42.5q0 26 18 43.5t43 17.5t42.5 -18t17.5 -43zM272 760q0 -25 -18 -42.5t-43 -17.5t-42.5 17.5t-17.5 42.5q0 26 18 43.5t43 17.5t42.5 -18t17.5 -43zM550 0h-472v634h461v-79h-322v-182h288v-79h-288v-210h333v-84 z" />
<glyph unicode="&#xcc;" horiz-adv-x="296" d="M226 700l-57 -17l-198 113l-4 28l102 45zM218 0h-139v634h139v-634z" />
<glyph unicode="&#xcd;" horiz-adv-x="296" d="M332 824l-4 -28l-198 -113l-57 17l157 169zM217 0h-139v634h139v-634z" />
<glyph unicode="&#xce;" horiz-adv-x="296" d="M306 698l-46 -26l-111 93l-111 -93l-47 26l124 167h67zM218 0h-139v634h139v-634z" />
<glyph unicode="&#xcf;" horiz-adv-x="296" d="M288 760q0 -25 -18 -42.5t-43 -17.5t-42.5 17.5t-17.5 42.5q0 26 18 43.5t43 17.5t42.5 -18t17.5 -43zM128 760q0 -25 -18 -42.5t-43 -17.5t-42.5 17.5t-17.5 42.5q0 26 18 43.5t43 17.5t42.5 -18t17.5 -43zM217 0h-139v634h139v-634z" />
<glyph unicode="&#xd0;" horiz-adv-x="759" d="M726 339q0 -104 -44 -181t-125 -116q-88 -42 -274 -42h-205v305h-79v73h79v256l271 7q173 0 260 -57q117 -77 117 -245zM580 323q0 146 -78 199q-59 40 -167 40q-87 0 -118 -1v-183h201v-73h-201v-227h109q130 0 184 46q70 59 70 199z" />
<glyph unicode="&#xd1;" horiz-adv-x="759" d="M569 807q-33 -117 -122 -117q-29 0 -79 22q-34 15 -52 15q-34 0 -49 -37h-6l-42 21q42 115 124 115q27 0 88 -26q26 -11 41 -11q33 0 51 38h6zM678 634l-1 -627l-82 -21l-427 467l8 -453h-100l4 634h100l406 -445l-8 445h100z" />
<glyph unicode="&#xd2;" horiz-adv-x="796" d="M476 700l-57 -17l-198 113l-4 28l102 45zM764 321q0 -149 -105 -241.5t-274 -92.5q-150 0 -244 80q-108 92 -108 245q0 157 122 250q110 84 258 84q158 0 254.5 -89.5t96.5 -235.5zM618 303q0 117 -64.5 190.5t-166.5 73.5q-92 0 -150 -67.5t-58 -174.5q0 -112 65 -185.5 t164 -73.5q75 0 132 47q78 65 78 190z" />
<glyph unicode="&#xd3;" horiz-adv-x="796" d="M582 824l-4 -28l-198 -113l-57 17l157 169zM764 321q0 -149 -105 -241.5t-274 -92.5q-150 0 -244 80q-108 92 -108 245q0 157 122 250q110 84 258 84q158 0 254.5 -89.5t96.5 -235.5zM618 303q0 117 -64.5 190.5t-166.5 73.5q-92 0 -150 -67.5t-58 -174.5 q0 -112 65 -185.5t164 -73.5q75 0 132 47q78 65 78 190z" />
<glyph unicode="&#xd4;" horiz-adv-x="796" d="M578 698l-47 -26l-133 93l-133 -93l-47 26l147 167h67zM764 321q0 -149 -105 -241.5t-274 -92.5q-150 0 -244 80q-108 92 -108 245q0 157 122 250q110 84 258 84q158 0 254.5 -89.5t96.5 -235.5zM618 303q0 117 -64.5 190.5t-166.5 73.5q-92 0 -150 -67.5t-58 -174.5 q0 -112 65 -185.5t164 -73.5q75 0 132 47q78 65 78 190z" />
<glyph unicode="&#xd5;" horiz-adv-x="796" d="M579 807q-33 -117 -122 -117q-29 0 -79 22q-34 15 -52 15q-34 0 -49 -37h-6l-42 21q42 115 124 115q27 0 88 -26q26 -11 41 -11q33 0 51 38h6zM764 321q0 -149 -105 -241.5t-274 -92.5q-150 0 -244 80q-108 92 -108 245q0 157 122 250q110 84 258 84q158 0 254.5 -89.5 t96.5 -235.5zM618 303q0 117 -64.5 190.5t-166.5 73.5q-92 0 -150 -67.5t-58 -174.5q0 -112 65 -185.5t164 -73.5q75 0 132 47q78 65 78 190z" />
<glyph unicode="&#xd6;" horiz-adv-x="796" d="M561 760q0 -25 -18 -42.5t-43 -17.5t-42.5 17.5t-17.5 42.5q0 26 18 43.5t43 17.5t42.5 -18t17.5 -43zM356 760q0 -25 -18 -42.5t-43 -17.5t-42.5 17.5t-17.5 42.5q0 26 18 43.5t43 17.5t42.5 -18t17.5 -43zM764 321q0 -149 -105 -241.5t-274 -92.5q-150 0 -244 80 q-108 92 -108 245q0 157 122 250q110 84 258 84q158 0 254.5 -89.5t96.5 -235.5zM618 303q0 117 -64.5 190.5t-166.5 73.5q-92 0 -150 -67.5t-58 -174.5q0 -112 65 -185.5t164 -73.5q75 0 132 47q78 65 78 190z" />
<glyph unicode="&#xd7;" horiz-adv-x="556" d="M468 182q0 -6 -10 -16l-29 -28q-9 -11 -16 -11q-2 0 -12 10l-123 122l-122 -122q-10 -10 -13 -10q-5 0 -16 11l-29 28q-10 10 -10 15t9 14l123 122l-123 123q-9 9 -9 13t11 15l28 29q11 11 15 11t18 -14l118 -119l123 123q10 10 13 10q4 0 15 -11l29 -29q10 -10 10 -15 q0 -4 -13 -17l-119 -119l123 -122q9 -9 9 -13z" />
<glyph unicode="&#xd8;" horiz-adv-x="796" d="M764 321q0 -149 -104.5 -241.5t-273.5 -92.5q-94 0 -172 34l-55 -73h-76l78 103q-128 98 -128 262q0 154 122 250q107 84 252 84q97 0 179 -36l51 67h76l-73 -97q124 -95 124 -260zM618 303q0 108 -57 183l-277 -382q58 -38 125 -38q75 0 131 47q78 66 78 190zM516 528 q-58 40 -128 40q-93 0 -151 -67.5t-58 -174.5q0 -104 60 -182z" />
<glyph unicode="&#xd9;" horiz-adv-x="722" d="M454 700l-57 -17l-198 113l-4 28l102 45zM652 634l-8 -330q-3 -116 -21.5 -168t-69.5 -90q-79 -58 -216 -58t-203 63q-33 31 -44 71.5t-11 127.5v384h139v-378q0 -70 6 -91q24 -82 147 -82q107 0 152 60q21 27 25 76q2 16 2 82v333h102z" />
<glyph unicode="&#xda;" horiz-adv-x="722" d="M549 824l-4 -28l-198 -113l-57 17l157 169zM652 634l-8 -330q-3 -116 -21.5 -168t-69.5 -90q-79 -58 -216 -58t-203 63q-33 31 -44 71.5t-11 127.5v384h139v-378q0 -70 6 -91q24 -82 147 -82q107 0 152 60q21 27 25 76q2 16 2 82v333h102z" />
<glyph unicode="&#xdb;" horiz-adv-x="722" d="M556 698l-47 -26l-133 93l-133 -93l-47 26l147 167h67zM652 634l-8 -330q-3 -116 -21.5 -168t-69.5 -90q-79 -58 -216 -58t-203 63q-33 31 -44 71.5t-11 127.5v384h139v-378q0 -70 6 -91q24 -82 147 -82q107 0 152 60q21 27 25 76q2 16 2 82v333h102z" />
<glyph unicode="&#xdc;" horiz-adv-x="722" d="M539 760q0 -25 -18 -42.5t-43 -17.5t-42.5 17.5t-17.5 42.5q0 26 18 43.5t43 17.5t42.5 -18t17.5 -43zM334 760q0 -25 -18 -42.5t-43 -17.5t-42.5 17.5t-17.5 42.5q0 26 18 43.5t43 17.5t42.5 -18t17.5 -43zM652 634l-8 -330q-3 -116 -21.5 -168t-69.5 -90 q-79 -58 -216 -58t-203 63q-33 31 -44 71.5t-11 127.5v384h139v-378q0 -70 6 -91q24 -82 147 -82q107 0 152 60q21 27 25 76q2 16 2 82v333h102z" />
<glyph unicode="&#xdd;" horiz-adv-x="556" d="M463 824l-4 -28l-198 -113l-57 17l157 169zM586 634l-246 -354v-280h-139v276l-229 358h166l159 -270l155 270h134z" />
<glyph unicode="&#xde;" horiz-adv-x="592" d="M581 340q0 -110 -98 -168q-66 -39 -195 -39q-32 0 -71 2v-135h-139v634h139v-101q48 5 99 5q125 0 185 -40q80 -53 80 -158zM435 332q0 89 -67 115q-31 12 -98 12q-19 0 -53 -1v-243q24 -3 65 -3q80 0 114 27q39 31 39 93z" />
<glyph unicode="&#xdf;" horiz-adv-x="574" d="M554 135q0 -67 -55 -107t-146 -40q-85 0 -129 21q-8 3 -9 14l-8 62l34 23q52 -44 114 -44q30 0 48.5 14.5t18.5 38.5q0 18 -14 30t-62 35q-82 39 -109 68.5t-27 78.5q0 39 21.5 68t76.5 66q38 26 51.5 44.5t13.5 47.5q0 60 -87 60q-79 0 -100 -56q-10 -25 -10 -98v-461 h-129v455q0 79 13.5 116.5t51.5 65.5q74 54 205 54q89 0 138.5 -33.5t49.5 -94.5q0 -43 -24 -73t-83 -61q-46 -24 -60 -38t-14 -34q0 -22 16.5 -35.5t79.5 -43.5q77 -36 105.5 -66.5t28.5 -76.5z" />
<glyph unicode="&#xe0;" d="M336 474l-56 -9l-172 133v27l102 29zM506 42q0 -13 -14 -20q-63 -32 -121 -32q-46 0 -67 40q-106 -40 -163 -40q-51 0 -80.5 32.5t-29.5 89.5q0 69 47 94.5t215 46.5q0 61 -7 74q-12 23 -62 23q-78 0 -129 -54l-35 9l-3 60q1 12 8 17q77 51 194 51q97 0 136 -47 q24 -29 24 -92v-27l-3 -151q-1 -37 22 -37q25 0 64 14l4 -3v-48zM293 94v95q-58 -8 -100 -17q-24 -5 -32 -13.5t-8 -32.5q0 -47 52 -47q43 0 82 13z" />
<glyph unicode="&#xe1;" d="M404 598l-172 -133l-56 9l126 180l102 -29v-27zM506 42q0 -13 -14 -20q-63 -32 -121 -32q-46 0 -67 40q-106 -40 -163 -40q-51 0 -80.5 32.5t-29.5 89.5q0 69 47 94.5t215 46.5q0 61 -7 74q-12 23 -62 23q-78 0 -129 -54l-35 9l-3 60q1 12 8 17q77 51 194 51 q97 0 136 -47q24 -29 24 -92v-27l-3 -151q-1 -37 22 -37q25 0 64 14l4 -3v-48zM293 94v95q-58 -8 -100 -17q-24 -5 -32 -13.5t-8 -32.5q0 -47 52 -47q43 0 82 13z" />
<glyph unicode="&#xe2;" d="M396 474l-43 -19l-103 87l-103 -87l-43 19l111 170h70zM506 42q0 -13 -14 -20q-63 -32 -121 -32q-46 0 -67 40q-106 -40 -163 -40q-51 0 -80.5 32.5t-29.5 89.5q0 69 47 94.5t215 46.5q0 61 -7 74q-12 23 -62 23q-78 0 -129 -54l-35 9l-3 60q1 12 8 17q77 51 194 51 q97 0 136 -47q24 -29 24 -92v-27l-3 -151q-1 -37 22 -37q25 0 64 14l4 -3v-48zM293 94v95q-58 -8 -100 -17q-24 -5 -32 -13.5t-8 -32.5q0 -47 52 -47q43 0 82 13z" />
<glyph unicode="&#xe3;" d="M412 611q-28 -119 -112 -119q-27 0 -73 30q-33 21 -48 21q-32 0 -46 -51h-5l-39 27q38 118 113 118q24 0 78 -33q29 -18 43 -18q28 0 47 51h5zM506 42q0 -13 -14 -20q-63 -32 -121 -32q-46 0 -67 40q-106 -40 -163 -40q-51 0 -80.5 32.5t-29.5 89.5q0 69 47 94.5 t215 46.5q0 61 -7 74q-12 23 -62 23q-78 0 -129 -54l-35 9l-3 60q1 12 8 17q77 51 194 51q97 0 136 -47q24 -29 24 -92v-27l-3 -151q-1 -37 22 -37q25 0 64 14l4 -3v-48zM293 94v95q-58 -8 -100 -17q-24 -5 -32 -13.5t-8 -32.5q0 -47 52 -47q43 0 82 13z" />
<glyph unicode="&#xe4;" d="M409 550q0 -25 -17.5 -42t-41.5 -17t-41.5 17t-17.5 41q0 26 17.5 43t42.5 17q24 0 41 -17.5t17 -41.5zM210 550q0 -25 -17 -42t-42 -17q-24 0 -41.5 17t-17.5 41q0 26 17.5 43t42.5 17q24 0 41 -17.5t17 -41.5zM506 42q0 -13 -14 -20q-63 -32 -121 -32q-46 0 -67 40 q-106 -40 -163 -40q-51 0 -80.5 32.5t-29.5 89.5q0 69 47 94.5t215 46.5q0 61 -7 74q-12 23 -62 23q-78 0 -129 -54l-35 9l-3 60q1 12 8 17q77 51 194 51q97 0 136 -47q24 -29 24 -92v-27l-3 -151q-1 -37 22 -37q25 0 64 14l4 -3v-48zM293 94v95q-58 -8 -100 -17 q-24 -5 -32 -13.5t-8 -32.5q0 -47 52 -47q43 0 82 13z" />
<glyph unicode="&#xe5;" d="M370 581q0 -45 -35 -76.5t-85 -31.5t-84.5 31.5t-34.5 76.5q0 47 35 79t86 32q49 0 83.5 -32.5t34.5 -78.5zM506 42q0 -13 -14 -20q-63 -32 -121 -32q-46 0 -67 40q-106 -40 -163 -40q-51 0 -80.5 32.5t-29.5 89.5q0 69 47 94.5t215 46.5q0 61 -7 74q-12 23 -62 23 q-78 0 -129 -54l-35 9l-3 60q1 12 8 17q77 51 194 51q97 0 136 -47q24 -29 24 -92v-27l-3 -151q-1 -37 22 -37q25 0 64 14l4 -3v-48zM301 581q0 27 -14 44t-37 17q-22 0 -36 -17.5t-14 -43.5q0 -25 15 -42.5t38 -17.5q21 0 34.5 17t13.5 43zM293 94v95q-58 -8 -100 -17 q-24 -5 -32 -13.5t-8 -32.5q0 -47 52 -47q43 0 82 13z" />
<glyph unicode="&#xe6;" horiz-adv-x="722" d="M701 59q0 -5 -33 -23l-6 -3q-92 -48 -184 -48q-89 0 -136 44q-103 -41 -179 -41q-132 0 -132 120q0 47 24 72.5t81 40.5q48 12 161 29q-1 24 -5 64q-11 41 -66 41q-81 0 -135 -57l-29 9l-8 63l-2 10q0 8 30 21q74 32 169 32q75 0 126 -36q64 36 135 36q88 0 137.5 -50 t49.5 -139q0 -17 -1 -27l-281 -23q4 -64 30.5 -92.5t81.5 -28.5q73 0 146 41l7 -1l18 -48q1 -3 1 -6zM560 276q-3 87 -68 87q-70 0 -75 -101zM307 93q-11 37 -11 88q-62 -3 -97.5 -16t-35.5 -48q0 -46 45 -46q50 0 99 22z" />
<glyph unicode="&#xe7;" horiz-adv-x="426" d="M419 379q0 -16 -7 -24l-36 -43h-21q-47 30 -103 30q-51 0 -73.5 -26t-22.5 -84q0 -149 119 -149q63 0 124 33l9 -5v-44q0 -13 -15 -24q-48 -34 -110 -47l-25 -42v-9q51 -21 51 -62t-41 -74.5t-90 -33.5q-27 0 -49.5 12t-22.5 27q0 4 4 8l33 29h12q21 -24 45 -24 q26 0 26 23q0 21 -60 52v24l46 62q-84 2 -133 55t-49 141q0 109 74.5 179t189.5 70q84 0 119 -31q6 -5 6 -23z" />
<glyph unicode="&#xe8;" horiz-adv-x="463" d="M323 474l-56 -9l-172 133v27l102 29zM441 201l-279 -19q13 -103 109 -103q76 0 143 41l7 -2l17 -50q1 -1 1 -4q0 -6 -16 -16q-92 -60 -198 -60q-92 0 -143.5 55t-51.5 153q0 112 70 180q58 57 154 57q120 0 164 -97q22 -47 23 -135zM301 261q-1 25 -2 36q-3 21 -11 35 q-18 31 -51 31q-70 0 -76 -113z" />
<glyph unicode="&#xe9;" horiz-adv-x="463" d="M385 598l-172 -133l-56 9l126 180l102 -29v-27zM441 201l-279 -19q13 -103 109 -103q76 0 143 41l7 -2l17 -50q1 -1 1 -4q0 -6 -16 -16q-92 -60 -198 -60q-92 0 -143.5 55t-51.5 153q0 112 70 180q58 57 154 57q120 0 164 -97q22 -47 23 -135zM301 261q-1 25 -2 36 q-3 21 -11 35q-18 31 -51 31q-70 0 -76 -113z" />
<glyph unicode="&#xea;" horiz-adv-x="463" d="M388 474l-43 -19l-103 87l-103 -87l-43 19l111 170h70zM441 201l-279 -19q13 -103 109 -103q76 0 143 41l7 -2l17 -50q1 -1 1 -4q0 -6 -16 -16q-92 -60 -198 -60q-92 0 -143.5 55t-51.5 153q0 112 70 180q58 57 154 57q120 0 164 -97q22 -47 23 -135zM301 261 q-1 25 -2 36q-3 21 -11 35q-18 31 -51 31q-70 0 -76 -113z" />
<glyph unicode="&#xeb;" horiz-adv-x="463" d="M404 550q0 -25 -17.5 -42t-41.5 -17t-41.5 17t-17.5 41q0 26 17.5 43t42.5 17q24 0 41 -17.5t17 -41.5zM205 550q0 -25 -17 -42t-42 -17q-24 0 -41.5 17t-17.5 41q0 26 17.5 43t42.5 17q24 0 41 -17.5t17 -41.5zM441 201l-279 -19q13 -103 109 -103q76 0 143 41l7 -2 l17 -50q1 -1 1 -4q0 -6 -16 -16q-92 -60 -198 -60q-92 0 -143.5 55t-51.5 153q0 112 70 180q58 57 154 57q120 0 164 -97q22 -47 23 -135zM301 261q-1 25 -2 36q-3 21 -11 35q-18 31 -51 31q-70 0 -76 -113z" />
<glyph unicode="&#xec;" horiz-adv-x="241" d="M185 468l-57 -6l-164 142l1 27l104 23zM184 0h-128v422h128v-422z" />
<glyph unicode="&#xed;" horiz-adv-x="241" d="M277 604l-165 -142l-56 6l116 186l103 -23zM185 0h-129v422h129v-422z" />
<glyph unicode="&#xee;" horiz-adv-x="241" d="M250 474l-44 -19l-86 87l-86 -87l-43 19l95 170h69zM184 0h-128v422h128v-422z" />
<glyph unicode="&#xef;" horiz-adv-x="241" d="M256 550q0 -25 -17.5 -42t-41.5 -17t-41.5 17t-17.5 42t17.5 42t42.5 17q24 0 41 -17.5t17 -41.5zM102 550q0 -25 -17 -42t-42 -17q-24 0 -41.5 17t-17.5 41q0 26 17.5 43t42.5 17q24 0 41 -17.5t17 -41.5zM185 0h-129v422h129v-422z" />
<glyph unicode="&#xf0;" horiz-adv-x="555" d="M526 205q0 -95 -72 -156.5t-182 -61.5q-112 0 -177 60t-65 163q0 101 73 162t194 61q25 0 59 -6q-19 44 -51 99l-79 -41l-28 50l78 41q-13 25 -41 74l74 40q17 -25 42 -69l83 45l29 -50l-80 -43q143 -234 143 -368zM388 189q0 75 -32.5 121.5t-84.5 46.5q-48 0 -76 -34 t-28 -92q0 -75 33.5 -121.5t87.5 -46.5q46 0 73 33.5t27 92.5z" />
<glyph unicode="&#xf1;" horiz-adv-x="537" d="M441 611q-28 -119 -112 -119q-27 0 -73 30q-33 21 -48 21q-32 0 -46 -51h-5l-39 27q38 118 113 118q24 0 78 -33q29 -18 43 -18q28 0 47 51h5zM482 0h-128v230q0 61 -7 77q-12 27 -49 27q-52 0 -113 -44v-290h-129v422h129l-2 -51q95 62 171 62q80 0 112 -60 q16 -30 16 -114v-259z" />
<glyph unicode="&#xf2;" horiz-adv-x="555" d="M353 474l-56 -9l-172 133v27l102 29zM526 212q0 -100 -70.5 -162.5t-183.5 -62.5q-112 0 -177 60t-65 162t73.5 163t195.5 61q101 0 164 -61.5t63 -159.5zM388 189q0 75 -32.5 121.5t-84.5 46.5q-48 0 -76 -34t-28 -92q0 -75 33.5 -121.5t87.5 -46.5q46 0 73 33.5 t27 92.5z" />
<glyph unicode="&#xf3;" horiz-adv-x="555" d="M431 598l-172 -133l-56 9l126 180l102 -29v-27zM526 212q0 -100 -70.5 -162.5t-183.5 -62.5q-112 0 -177 60t-65 162t73.5 163t195.5 61q101 0 164 -61.5t63 -159.5zM388 189q0 75 -32.5 121.5t-84.5 46.5q-48 0 -76 -34t-28 -92q0 -75 33.5 -121.5t87.5 -46.5 q46 0 73 33.5t27 92.5z" />
<glyph unicode="&#xf4;" horiz-adv-x="555" d="M424 474l-43 -19l-103 87l-103 -87l-43 19l111 170h70zM526 212q0 -100 -70.5 -162.5t-183.5 -62.5q-112 0 -177 60t-65 162t73.5 163t195.5 61q101 0 164 -61.5t63 -159.5zM388 189q0 75 -32.5 121.5t-84.5 46.5q-48 0 -76 -34t-28 -92q0 -75 33.5 -121.5t87.5 -46.5 q46 0 73 33.5t27 92.5z" />
<glyph unicode="&#xf5;" horiz-adv-x="555" d="M445 611q-28 -119 -112 -119q-27 0 -73 30q-33 21 -48 21q-32 0 -46 -51h-5l-39 27q38 118 113 118q24 0 78 -33q29 -18 43 -18q28 0 47 51h5zM526 212q0 -100 -70.5 -162.5t-183.5 -62.5q-112 0 -177 60t-65 162t73.5 163t195.5 61q101 0 164 -61.5t63 -159.5zM388 189 q0 75 -32.5 121.5t-84.5 46.5q-48 0 -76 -34t-28 -92q0 -75 33.5 -121.5t87.5 -46.5q46 0 73 33.5t27 92.5z" />
<glyph unicode="&#xf6;" horiz-adv-x="555" d="M436 550q0 -25 -17.5 -42t-41.5 -17t-41.5 17t-17.5 41q0 26 17.5 43t42.5 17q24 0 41 -17.5t17 -41.5zM237 550q0 -25 -17 -42t-42 -17q-24 0 -41.5 17t-17.5 41q0 26 17.5 43t42.5 17q24 0 41 -17.5t17 -41.5zM526 212q0 -100 -70.5 -162.5t-183.5 -62.5 q-112 0 -177 60t-65 162t73.5 163t195.5 61q101 0 164 -61.5t63 -159.5zM388 189q0 75 -32.5 121.5t-84.5 46.5q-48 0 -76 -34t-28 -92q0 -75 33.5 -121.5t87.5 -46.5q46 0 73 33.5t27 92.5z" />
<glyph unicode="&#xf7;" horiz-adv-x="556" d="M346 466q0 -28 -20.5 -48t-48.5 -20t-48 20t-20 48q0 29 20 49t49 20q28 0 48 -20t20 -49zM500 297q0 -15 -3.5 -18t-21.5 -3h-401q-13 0 -16 3.5t-3 17.5v40q0 14 3 17.5t16 3.5h407q14 0 16.5 -3t2.5 -18v-40zM346 167q0 -28 -20.5 -48t-48.5 -20t-48 20t-20 48 q0 29 20 49t49 20q28 0 48 -20t20 -49z" />
<glyph unicode="&#xf8;" horiz-adv-x="555" d="M526 212q0 -100 -70.5 -162.5t-182.5 -62.5q-62 0 -113 20l-40 -54l-61 2l56 76q-85 61 -85 179q0 100 73 161.5t192 61.5q59 0 104 -19l35 47h63l-54 -73q83 -63 83 -176zM337 338q-27 23 -64 23q-52 0 -81.5 -34.5t-29.5 -93.5q0 -58 27 -112zM394 190q0 54 -26 106 l-146 -214q30 -23 67 -23q48 0 76.5 35t28.5 96z" />
<glyph unicode="&#xf9;" horiz-adv-x="537" d="M343 474l-56 -9l-172 133v27l102 29zM481 0h-124l2 44q-81 -54 -165 -54q-87 0 -120 58q-19 34 -19 136v238h129v-237q0 -57 10 -75q14 -25 49 -25q49 0 110 38v299h128v-422z" />
<glyph unicode="&#xfa;" horiz-adv-x="537" d="M422 598l-172 -133l-56 9l126 180l102 -29v-27zM481 0h-124l2 44q-81 -54 -165 -54q-87 0 -120 58q-19 34 -19 136v238h129v-237q0 -57 10 -75q14 -25 49 -25q49 0 110 38v299h128v-422z" />
<glyph unicode="&#xfb;" horiz-adv-x="537" d="M414 474l-43 -19l-103 87l-103 -87l-43 19l111 170h70zM481 0h-124l2 44q-81 -54 -165 -54q-87 0 -120 58q-19 34 -19 136v238h129v-237q0 -57 10 -75q14 -25 49 -25q49 0 110 38v299h128v-422z" />
<glyph unicode="&#xfc;" horiz-adv-x="537" d="M427 550q0 -25 -17.5 -42t-41.5 -17t-41.5 17t-17.5 41q0 26 17.5 43t42.5 17q24 0 41 -17.5t17 -41.5zM228 550q0 -25 -17 -42t-42 -17q-24 0 -41.5 17t-17.5 41q0 26 17.5 43t42.5 17q24 0 41 -17.5t17 -41.5zM481 0h-124l2 44q-81 -54 -165 -54q-87 0 -120 58 q-19 34 -19 136v238h129v-237q0 -57 10 -75q14 -25 49 -25q49 0 110 38v299h128v-422z" />
<glyph unicode="&#xfd;" horiz-adv-x="444" d="M392 598l-172 -133l-56 9l126 180l102 -29v-27zM469 422l-353 -691l-111 24l155 240l-162 427h147l89 -286l123 286h112z" />
<glyph unicode="&#xfe;" horiz-adv-x="555" d="M526 242q0 -102 -77.5 -174t-188.5 -72q-28 0 -75 8v-254q0 -8 -10 -8h-111q-8 0 -8 8v932q0 8 8 8h111q8 0 8 -8v-298l16 8q80 41 147 41q75 0 120 -42q60 -56 60 -149zM394 211q0 131 -105 131q-51 0 -106 -29v-203q57 -27 100 -27q111 0 111 128z" />
<glyph unicode="&#xff;" horiz-adv-x="444" d="M397 550q0 -25 -17.5 -42t-41.5 -17t-41.5 17t-17.5 41q0 26 17.5 43t42.5 17q24 0 41 -17.5t17 -41.5zM198 550q0 -25 -17 -42t-42 -17q-24 0 -41.5 17t-17.5 41q0 26 17.5 43t42.5 17q24 0 41 -17.5t17 -41.5zM469 422l-353 -691l-111 24l155 240l-162 427h147l89 -286 l123 286h112z" />
<glyph unicode="&#x131;" horiz-adv-x="241" d="M185 0h-129v422h129v-422z" />
<glyph unicode="&#x141;" d="M512 0h-433v238l-75 -55v82l75 55v314h139v-236l138 103v-82l-138 -103v-232h294v-84z" />
<glyph unicode="&#x142;" horiz-adv-x="278" d="M303 424l-88 -64v-360h-128v290l-82 -62v78l82 61v323h128v-252l88 64v-78z" />
<glyph unicode="&#x152;" horiz-adv-x="1000" d="M977 0h-450v13q-68 -25 -151 -25q-149 0 -237 80q-105 95 -105 251q0 172 135 261q101 66 232 66q67 0 126 -22v10h438v-79h-316v-182h283v-79h-283v-210h328v-84zM519 102v440q-61 25 -116 25q-100 0 -161.5 -67t-61.5 -176q0 -112 62.5 -185t159.5 -73q61 0 117 36z " />
<glyph unicode="&#x153;" horiz-adv-x="833" d="M812 226q0 -9 -1 -15l-280 -26q8 -114 121 -114q64 0 126 42l8 -2l17 -50q1 -1 1 -4q0 -6 -19 -18q-81 -51 -168 -51q-107 0 -158 70q-83 -70 -200 -70q-103 0 -166 59t-63 155q0 103 74.5 167t194.5 64q103 0 170 -58q61 58 153 58q117 0 164 -83q26 -46 26 -124z M672 267q0 96 -66 96q-71 0 -76 -110zM411 204q0 72 -33 112.5t-91 40.5q-55 0 -87.5 -35.5t-32.5 -95.5q0 -70 37 -116t93 -46q53 0 83.5 37.5t30.5 102.5z" />
<glyph unicode="&#x160;" horiz-adv-x="519" d="M456 850l-146 -167h-67l-147 167l47 26l133 -93l133 93zM486 186q0 -85 -72.5 -141.5t-180.5 -56.5q-107 0 -181 25q-14 5 -15 17l-8 69q-1 3 -1 9q0 5 6 8l24 13q4 3 7 3q4 -1 6 -3q84 -58 174 -58q53 0 84 23.5t31 63.5q0 33 -22 51.5t-102 52.5q-109 47 -149 85 q-46 44 -46 114q0 83 70 134t185 51q35 0 82.5 -7t64.5 -14q9 -4 10 -16l8 -68q0 -3 -7 -7l-23 -12q-6 -3 -8 -3q-3 0 -19 11q-55 37 -129 37q-50 0 -79 -21.5t-29 -58.5t27 -56q23 -16 108 -55q102 -46 136 -78q48 -45 48 -112z" />
<glyph unicode="&#x161;" horiz-adv-x="426" d="M364 642l-111 -170h-70l-111 170l43 19l103 -88l103 88zM398 135q0 -65 -55.5 -105t-146.5 -40q-90 0 -149 21q-6 2 -8 13l-10 71l33 15q59 -44 144 -44q69 0 69 44q0 25 -33 38l-53 16q-80 23 -106 42q-43 31 -43 86q0 64 53.5 101t144.5 37q77 0 115 -13q7 -2 8 -15 l7 -64l-32 -15q-57 34 -116 34q-62 0 -62 -39q0 -19 13.5 -27t75.5 -27q85 -26 118 -54t33 -75z" />
<glyph unicode="&#x178;" horiz-adv-x="556" d="M456 760q0 -25 -18 -42.5t-43 -17.5t-42.5 17.5t-17.5 42.5q0 26 18 43.5t43 17.5t42.5 -18t17.5 -43zM251 760q0 -25 -18 -42.5t-43 -17.5t-42.5 17.5t-17.5 42.5q0 26 18 43.5t43 17.5t42.5 -18t17.5 -43zM589 634l-246 -354v-280h-139v276l-229 358h166l159 -270 l155 270h134z" />
<glyph unicode="&#x17d;" horiz-adv-x="574" d="M479 850l-146 -167h-67l-147 167l47 26l133 -93l133 93zM569 84l-15 -84h-546v56l377 494h-354v84h536v-54l-377 -496h379z" />
<glyph unicode="&#x17e;" horiz-adv-x="426" d="M370 642l-111 -170h-70l-111 170l43 19l103 -88l103 88zM419 75l-16 -75h-397v54l244 293h-218v75h384v-55l-243 -292h246z" />
<glyph unicode="&#x192;" horiz-adv-x="556" d="M592 578q0 -7 -5 -25q-4 -13 -16 -19l-47 -23h-37q-15 38 -65 38q-46 0 -61 -38q-5 -13 -25 -98l-16 -69h107l-17 -75h-106l-18 -83q-33 -154 -45.5 -193t-39.5 -77q-30 -43 -77.5 -68.5t-96.5 -25.5q-37 0 -63 11.5t-26 27.5v8q0 9 7 17l42 47h29q32 -21 46 -21 q21 0 32 29q10 26 34 133l43 195h-82l14 64l84 11l7 33q18 83 36.5 120.5t59.5 71.5q92 77 182 77q47 0 83.5 -20.5t36.5 -47.5z" />
<glyph unicode="&#x2c6;" d="M396 474l-43 -19l-103 87l-103 -87l-43 19l111 170h70z" />
<glyph unicode="&#x2c7;" d="M396 642l-111 -170h-70l-111 170l43 19l103 -88l103 88z" />
<glyph unicode="&#x2d8;" d="M387 608q0 -61 -37.5 -99t-99.5 -38t-99.5 38.5t-37.5 102.5v14h56q3 -67 81 -67t81 67h55q1 -7 1 -18z" />
<glyph unicode="&#x2d9;" d="M312 549q0 -25 -18.5 -43t-43.5 -18t-43.5 18.5t-18.5 43.5q0 26 18 44t45 18q25 0 43 -18.5t18 -44.5z" />
<glyph unicode="&#x2da;" d="M370 581q0 -45 -35 -76.5t-85 -31.5t-84.5 31.5t-34.5 76.5q0 47 35 79t86 32q49 0 83.5 -32.5t34.5 -78.5zM301 581q0 27 -14 44t-37 17q-22 0 -36 -17.5t-14 -43.5q0 -25 15 -42.5t38 -17.5q21 0 34.5 17t13.5 43z" />
<glyph unicode="&#x2db;" d="M385 -143l-3 -20q-2 -11 -3 -14.5t-7 -6.5q-30 -18 -77 -18q-44 0 -71.5 23.5t-27.5 61.5q0 56 75 117h70q-57 -67 -57 -106q0 -40 52 -40q24 0 39 3h10z" />
<glyph unicode="&#x2dc;" d="M411 600q-28 -119 -112 -119q-27 0 -73 30q-33 21 -48 21q-32 0 -46 -51h-5l-39 27q38 118 113 118q24 0 78 -33q29 -18 43 -18q28 0 47 51h5z" />
<glyph unicode="&#x2dd;" d="M480 603l-131 -147l-57 4l110 190l76 -20zM332 603l-131 -147l-57 4l109 190l77 -20z" />
<glyph unicode="&#x394;" horiz-adv-x="612" d="M595 0h-574l276 672h22zM471 32l-198 491l-201 -491h399z" />
<glyph unicode="&#x3a9;" horiz-adv-x="768" d="M718 408q0 -108 -72 -177q-65 -61 -176 -82v-59h123q50 0 67 17.5t21 68.5h23l-10 -176h-252v170q80 16 122 88q36 63 36 150q0 103 -56 170q-59 71 -160 71q-102 0 -161 -71q-55 -66 -55 -170q0 -88 36 -150q41 -72 122 -88v-170h-252l-10 176h23q3 -50 21 -68t67 -18 h123v59q-112 21 -176 82q-72 69 -72 177q0 131 105 204q91 63 229 63t229 -63q105 -73 105 -204z" />
<glyph unicode="&#x3bc;" horiz-adv-x="537" d="M481 0h-120l2 47q-77 -57 -134 -57q-33 0 -59 18q6 -38 6 -93v-173h-121v680h127v-237q0 -58 10 -75q15 -25 51 -25q52 0 114 40v297h124v-422z" />
<glyph unicode="&#x3c0;" horiz-adv-x="549" d="M526 469q0 -51 -23 -70.5t-75 -20.5h-24q-4 -132 -4 -196v-86q6 -63 39 -63q39 0 51 43q7 24 7 75h25q0 -161 -106 -161q-66 0 -87 53q-16 40 -16 151q0 -6 4 184h-137q0 -227 -13 -294q-18 -94 -80 -94q-46 0 -61 48q-9 28 -9 86h24q1 -52 37 -52q45 0 62 75 q14 62 16 231h-22q-77 0 -87 -52h-23q4 74 46 101q34 22 113 22h254q66 0 66 22v1h23v-3z" />
<glyph unicode="&#x2013;" d="M463 199h-426v69h426v-69z" />
<glyph unicode="&#x2014;" horiz-adv-x="759" d="M728 199h-696v69h696v-69z" />
<glyph unicode="&#x2018;" horiz-adv-x="278" d="M237 608q-93 -65 -93 -113q0 -14 22 -26q29 -16 34 -22q9 -11 9 -33q0 -28 -21 -46.5t-53 -18.5q-41 0 -67 29t-26 76q0 83 77 153q56 51 75 51q1 0 6 -5l37 -41v-4z" />
<glyph unicode="&#x2019;" horiz-adv-x="278" d="M237 554q0 -84 -77 -154q-17 -15 -43.5 -33t-31.5 -18q-3 0 -6 4l-37 42v4q93 61 93 113q0 14 -22 26q-29 17 -34 22q-9 11 -9 33q0 28 21 46.5t53 18.5q41 0 67 -29t26 -75z" />
<glyph unicode="&#x201a;" horiz-adv-x="278" d="M237 37q0 -84 -77 -154q-17 -15 -43.5 -33t-31.5 -18q-2 0 -6 5l-37 42v3q93 64 93 114q0 15 -23 25.5t-31 19.5q-11 12 -11 35q0 28 21 46.5t53 18.5q41 0 67 -29t26 -75z" />
<glyph unicode="&#x201c;" d="M459 608q-93 -65 -93 -113q0 -14 22 -26q29 -16 34 -22q9 -11 9 -33q0 -28 -21 -46.5t-53 -18.5q-41 0 -67 29t-26 75q0 83 77 154q17 16 43 33.5t32 17.5q1 0 6 -5l37 -41v-4zM237 608q-93 -65 -93 -113q0 -14 22 -26q29 -16 34 -22q9 -11 9 -33q0 -28 -21 -46.5 t-53 -18.5q-41 0 -67 29t-26 76q0 83 77 153q56 51 75 51q1 0 6 -5l37 -41v-4z" />
<glyph unicode="&#x201d;" d="M459 553q0 -82 -77 -153q-17 -16 -43 -33.5t-32 -17.5q-3 0 -6 4l-37 42v4q93 63 93 113q0 14 -37 32q-28 13 -28 49q0 28 21 46.5t53 18.5q41 0 67 -29t26 -76zM237 554q0 -84 -77 -154q-17 -15 -43.5 -33t-31.5 -18q-3 0 -6 4l-37 42v4q93 61 93 113q0 14 -22 26 q-29 17 -34 22q-9 11 -9 33q0 28 21 46.5t53 18.5q41 0 67 -29t26 -75z" />
<glyph unicode="&#x201e;" d="M459 37q0 -84 -77 -154q-17 -15 -43.5 -33t-31.5 -18q-2 0 -6 5l-37 42v3q93 65 93 113q0 16 -23 26.5t-31 19.5q-11 12 -11 35q0 28 21 46.5t53 18.5q41 0 67 -29t26 -75zM237 37q0 -84 -77 -154q-17 -15 -43.5 -33t-31.5 -18q-2 0 -6 5l-37 42v3q93 64 93 114 q0 15 -23 25.5t-31 19.5q-11 12 -11 35q0 28 21 46.5t53 18.5q41 0 67 -29t26 -75z" />
<glyph unicode="&#x2020;" horiz-adv-x="556" d="M508 314h-69l-117 11l9 -156l-10 -438h-85l-10 438l9 156l-118 -11h-69v94h69l118 -8l-10 161v73h107v-73l-10 -161l117 8h69v-94z" />
<glyph unicode="&#x2021;" horiz-adv-x="556" d="M508 3h-63l-125 7l10 -164v-114h-104v114l10 164l-125 -7h-63v94h63l125 -7l-9 139l9 111l-125 -7h-63v94h63l125 -7l-11 141v73h107v-73l-12 -141l125 7h63v-94h-63l-126 7l10 -111l-10 -139l126 7h63v-94z" />
<glyph unicode="&#x2022;" horiz-adv-x="634" d="M450 323q0 -55 -38.5 -93.5t-93.5 -38.5t-93.5 38.5t-38.5 93.5t39 93.5t95 38.5q53 0 91.5 -39t38.5 -93z" />
<glyph unicode="&#x2026;" horiz-adv-x="833" d="M774 66q0 -32 -23 -55t-56 -23q-32 0 -55.5 23t-23.5 55q0 34 23 57t57 23q32 0 55 -23.5t23 -56.5zM496 66q0 -32 -23.5 -55t-55.5 -23t-55.5 23t-23.5 55q0 34 23 57t57 23q32 0 55 -23.5t23 -56.5zM218 66q0 -32 -23.5 -55t-55.5 -23t-55.5 23t-23.5 55q0 34 23 57 t57 23q32 0 55 -23.5t23 -56.5z" />
<glyph unicode="&#x2030;" horiz-adv-x="1185" d="M1160 163q0 -82 -46.5 -128.5t-128.5 -46.5q-77 0 -121.5 43.5t-44.5 119.5q0 84 47 131t131 47q75 0 119 -45t44 -121zM771 163q0 -82 -46.5 -128.5t-128.5 -46.5q-77 0 -121 43.5t-44 119.5q0 84 47 131t130 47q75 0 119 -45t44 -121zM654 634l-436 -646h-79l435 646 h80zM365 480q0 -82 -46.5 -128.5t-128.5 -46.5q-77 0 -121.5 43.5t-44.5 119.5q0 84 47 131t130 47q76 0 120 -44.5t44 -121.5zM1056 160q0 107 -66 107q-31 0 -49 -30.5t-18 -82.5q0 -104 64 -104q32 0 50.5 29.5t18.5 80.5zM667 160q0 107 -65 107q-31 0 -49 -30.5 t-18 -82.5q0 -104 64 -104q32 0 50 29.5t18 80.5zM261 477q0 107 -66 107q-31 0 -49 -30.5t-18 -82.5q0 -104 64 -104q32 0 50.5 30t18.5 80z" />
<glyph unicode="&#x2039;" horiz-adv-x="315" d="M273 84l-51 -29l-180 183l180 182l51 -29l-101 -153z" />
<glyph unicode="&#x203a;" horiz-adv-x="315" d="M273 238l-179 -183l-52 29l102 154l-102 153l52 29z" />
<glyph unicode="&#x2044;" horiz-adv-x="111" d="M308 634l-435 -646h-79l435 646h79z" />
<glyph unicode="&#x2122;" horiz-adv-x="741" d="M708 317h-83l-8 224l-114 -217l-32 -5l-110 231l-4 -233h-62l21 317h89l96 -201l104 201h91zM287 580h-116v-263h-86v263h-116v54h318v-54z" />
<glyph unicode="&#x2202;" horiz-adv-x="494" d="M436 367q0 -130 -47 -238q-61 -142 -175 -142q-74 0 -116 59q-36 51 -36 129q0 79 49 140q52 65 129 65q87 0 118 -93q12 45 12 148q0 167 -63 167q-17 0 -50 -35t-56 -35q-37 0 -37 32q0 34 36 54q30 17 66 17q93 0 137 -93q33 -71 33 -175zM341 224q0 125 -85 125 q-65 0 -97 -84q-23 -60 -23 -137q0 -119 84 -119q63 0 96 81q25 61 25 134z" />
<glyph unicode="&#x220f;" horiz-adv-x="823" d="M797 -216h-264v32h84v896h-407v-896h84v-32h-264v32h88v896h-88v32h767v-32h-88v-896h88v-32z" />
<glyph unicode="&#x2211;" horiz-adv-x="713" d="M661 20q-10 -43 -53 -236h-572l398 436l-384 524h550l33 -230h-34q-33 108 -92.5 153t-171.5 45h-142l325 -446l-359 -394h212q109 0 158 25q61 30 97 123h35z" />
<glyph unicode="&#x2212;" horiz-adv-x="556" d="M500 297q0 -15 -3.5 -18t-21.5 -3h-401q-13 0 -16 3.5t-3 17.5v40q0 14 3 17.5t16 3.5h407q14 0 16.5 -3t2.5 -18v-40z" />
<glyph unicode="&#x2219;" horiz-adv-x="278" d="M218 240q0 -32 -23.5 -55t-55.5 -23t-55.5 23t-23.5 55q0 34 23 57t57 23q32 0 55 -23.5t23 -56.5z" />
<glyph unicode="&#x221a;" horiz-adv-x="549" d="M594 764h-57l-290 -784h-32l-156 431l-61 -22l-12 39l138 48l125 -346l252 681h93v-47z" />
<glyph unicode="&#x221e;" horiz-adv-x="713" d="M659 300q0 -75 -34 -127q-40 -59 -111 -59q-93 0 -148 124q-65 -124 -157 -124q-71 0 -115 58q-41 53 -41 126q0 75 35 127q39 59 111 59q91 0 148 -124q63 124 157 124q71 0 115 -58q40 -53 40 -126zM635 303q0 54 -29 88.5t-81 34.5q-77 0 -149 -162q46 -86 142 -86 q53 0 85 36t32 89zM336 334q-47 86 -141 86q-53 0 -85 -36t-32 -89q0 -51 28 -87t78 -36q51 0 95 59q23 32 57 103z" />
<glyph unicode="&#x222b;" horiz-adv-x="274" d="M364 690q0 -48 -49 -48q-26 0 -43.5 37t-29.5 37q-38 0 -48 -109q-3 -31 -12 -309q-9 -272 -47 -362q-50 -117 -144 -117q-33 0 -57 17.5t-24 49.5q0 47 49 47q26 0 44 -36.5t30 -36.5q36 0 47 109q6 58 9 220q4 169 11 250q11 135 39 201q49 117 144 117q33 0 57 -17.5 t24 -49.5z" />
<glyph unicode="&#x2248;" horiz-adv-x="549" d="M531 297q-81 -54 -146 -54q-34 0 -105.5 23.5t-109.5 23.5q-60 0 -152 -65v69q86 56 157 56q38 0 84 -14q29 -10 88 -28q21 -5 43 -5q54 0 141 63v-69zM531 178q-79 -54 -146 -54q-32 0 -105.5 23.5t-114.5 23.5q-55 0 -147 -65v69q89 57 158 57q35 0 84 -15l81 -25 q26 -8 49 -8q53 0 141 64v-70z" />
<glyph unicode="&#x2260;" horiz-adv-x="549" d="M501 139h-279l-117 -117l-39 40l77 77h-95v58h148l79 78h-227v58h279l117 117l40 -40l-78 -77h95v-58h-147l-79 -78h226v-58z" />
<glyph unicode="&#x2264;" horiz-adv-x="549" d="M503 127l-456 143v61l456 143v-64l-351 -110l351 -109v-64zM503 0h-457v62h457v-62z" />
<glyph unicode="&#x2265;" horiz-adv-x="549" d="M503 270l-457 -143v64l351 109l-351 110v64l457 -143v-61zM503 0h-457v62h457v-62z" />
<glyph unicode="&#x25ca;" horiz-adv-x="494" d="M491 289l-244 -522l-244 522l244 518zM435 289l-188 399l-188 -399l188 -403z" />
<glyph unicode="&#x25fc;" horiz-adv-x="420" d="M0 420h420v-420h-420v420z" />
<glyph unicode="&#xf000;" horiz-adv-x="790" d="M566 808q0 -52 -2 -62q-8 -42 -34 -68q-30 -30 -68 -53q-7 -4 -56 -9q-3 30 6 52.5t34 67.5q28 35 54 48q38 19 66 24zM733 213q-61 -131 -109 -174q-14 -12 -27 -24q-17 -11 -47 -16q-8 -1 -17 -1q-29 0 -55 12q-43 20 -69 20q-25 0 -69 -20q-27 -13 -53 -13q-9 0 -18 2 q-37 7 -63 30q-60 54 -109 160q-41 89 -41 190q0 23 3 41q20 108 86 160q51 40 132 40q27 0 69 -16t63 -16q22 0 47 11q36 14 42 16q18 5 44 5q81 0 132 -40q14 -11 38 -38q-47 -34 -67 -68q-27 -46 -26 -100q1 -56 33 -98q23 -31 43 -44q19 -9 38 -19z" />
<glyph unicode="&#xf001;" horiz-adv-x="537" d="M481 0h-127v422h127v-422zM467 621q0 -12 -7 -18l-51 -47h-20q-45 48 -98 48q-50 0 -74 -27q-20 -23 -20 -96v-59h120v-79h-120v-343h-127v343h-68v55l68 20v18q0 126 85 198q69 58 172 58q36 0 77 -14q51 -18 61 -45q2 -4 2 -12z" />
<glyph unicode="&#xf002;" horiz-adv-x="537" d="M481 0h-127v575q-39 29 -82 29q-30 0 -48 -13q-21 -15 -25 -50q-2 -12 -2 -60v-59h120v-79h-120v-343h-127v343h-68v55l68 20v18q0 74 15.5 115.5t56.5 78.5q69 61 148 61q34 0 68 -17v16h123v-690z" />
<glyph horiz-adv-x="193" />
<glyph horiz-adv-x="193" />
</font>
</defs>
</svg>
