<?xml version="1.0" standalone="no"?>
<!DOCTYPE svg PUBLIC "-//W3C//DTD SVG 1.1//EN" "http://www.w3.org/Graphics/SVG/1.1/DTD/svg11.dtd" >
<svg xmlns="http://www.w3.org/2000/svg">
<metadata></metadata>
<defs>
<font id="souvenir_lt_btlight" horiz-adv-x="1024" >
<font-face units-per-em="2048" ascent="1638" descent="-410" />
<missing-glyph horiz-adv-x="561" />
<glyph unicode="&#xd;" horiz-adv-x="561" />
<glyph unicode=" "  horiz-adv-x="561" />
<glyph unicode="&#x09;" horiz-adv-x="561" />
<glyph unicode="&#xa0;" horiz-adv-x="561" />
<glyph unicode="!" horiz-adv-x="561" d="M213 610l-45 701q0 7 -1 21t-1 20q0 83 25 122t79 39q53 0 78 -31t25 -96q0 -23 -0.5 -39t-1.5 -32l-54 -705q-1 -18 -3 -49q-13 -180 -50 -180q-36 0 -50 220q-1 6 -1 9zM160 82q0 46 32 78.5t78 32.5t78.5 -32.5t32.5 -78.5t-32.5 -78.5t-78.5 -32.5q-45 0 -77.5 32.5 t-32.5 78.5z" />
<glyph unicode="&#x22;" horiz-adv-x="678" d="M518 864h-31l-65 457q0 2 -1 6q-3 22 -3 33q0 49 22.5 75.5t63.5 26.5q40 0 62 -26t22 -74q0 -14 -0.5 -23t-1.5 -18zM190 864h-32l-64 457q-2 17 -3 26t-1 15q0 48 22 74t62 26q41 0 63.5 -26t22.5 -74q0 -9 -3 -34q-1 -5 -1 -7z" />
<glyph unicode="#" horiz-adv-x="1575" d="M700 868l-100 -286h289l102 286h-291zM778 1456h133l-168 -471h287l168 471h131l-166 -471h307l-40 -117h-310l-100 -286h332l-43 -115h-330l-166 -469h-133l166 469h-287l-166 -469h-131l166 469h-324l43 115h322l100 286h-348l43 117h348z" />
<glyph unicode="$" horiz-adv-x="1124" d="M516 1394q-111 -4 -175.5 -66t-64.5 -165q0 -85 56.5 -143.5t183.5 -104.5v479zM614 94q132 20 204.5 92t72.5 183q0 103 -62 171t-215 128v-574zM614 -182q0 -33 -9.5 -44.5t-39.5 -11.5q-29 0 -39 12t-10 46v171q-79 5 -145.5 29.5t-122.5 69.5q-63 52 -101 114.5 t-38 112.5q0 35 17.5 56.5t45.5 21.5q18 0 30 -9.5t21 -30.5q4 -10 18.5 -61t37.5 -81q37 -53 100 -84.5t137 -33.5v620q-196 80 -281 177.5t-85 237.5q0 151 96.5 246t269.5 115v102q0 33 10 44.5t39 11.5t39 -11.5t10 -44.5v-102q149 -13 235.5 -86t86.5 -184 q0 -40 -15.5 -59t-48.5 -19q-53 0 -56 71q-2 31 -5 45q-14 64 -60 96t-137 40v-521q220 -88 317 -191.5t97 -246.5q0 -177 -110 -294t-304 -144v-180z" />
<glyph unicode="%" horiz-adv-x="1788" d="M1122 334q0 -141 52.5 -216t150.5 -75t150.5 75t52.5 216t-52.5 217t-150.5 76t-150.5 -76t-52.5 -217zM963 334q0 162 100 262t262 100q161 0 261 -100t100 -262q0 -163 -100 -263t-261 -100t-261.5 101t-100.5 262zM465 20l760 1346q-49 -28 -106.5 -42.5t-121.5 -14.5 q-53 0 -97.5 8.5t-82.5 25.5q26 -42 38.5 -90t12.5 -108q0 -162 -100 -262.5t-262 -100.5t-261.5 100t-99.5 263t99.5 262.5t261.5 99.5q90 0 207 -49q23 -10 35 -14q70 -28 134.5 -41.5t121.5 -13.5q64 0 127 21.5t123 64.5q10 7 28 23q44 40 78 40q12 0 20.5 -10t8.5 -23 q-1 -6 -3.5 -13.5t-9.5 -19.5l-825 -1470q-15 -26 -29 -36.5t-35 -10.5q-15 0 -25.5 8.5t-10.5 22.5q0 6 3.5 14.5t10.5 19.5zM305 1145q0 -142 52 -217.5t149 -75.5q98 0 150.5 75.5t52.5 217.5q0 141 -52.5 216t-150.5 75t-149.5 -75t-51.5 -216z" />
<glyph unicode="&#x26;" horiz-adv-x="1575" d="M541 889q188 113 245.5 177t57.5 140q0 94 -61 151.5t-160 57.5q-95 0 -159.5 -62t-64.5 -153q0 -58 35 -135t107 -176zM915 147q-92 -93 -198.5 -139.5t-231.5 -46.5q-187 0 -309.5 113.5t-122.5 283.5q0 135 85 246.5t255 200.5q-75 105 -111 191.5t-36 158.5 q0 160 110 259t289 99q142 0 236 -85.5t94 -213.5q0 -108 -80.5 -199.5t-288.5 -209.5q78 -116 167.5 -229.5t191.5 -223.5q86 101 131 185t45 143q0 23 -13 38t-52 31q-9 4 -22 9q-44 16 -44 45q0 20 17.5 29.5t53.5 9.5h281q57 0 74.5 -11.5t17.5 -39.5q0 -30 -46 -46 q-17 -6 -26 -10q-35 -15 -58 -33t-50 -59q-10 -14 -35 -62q-93 -175 -197 -300q81 -87 157 -127.5t157 -40.5q31 0 75.5 10t59.5 10q21 0 34 -9.5t13 -25.5q0 -49 -70.5 -85t-175.5 -36q-106 0 -202 43.5t-175 126.5zM846 231q-107 122 -208 246t-196 252 q-113 -66 -170 -151t-57 -189q0 -129 89 -213t226 -84q85 0 163 34.5t153 104.5z" />
<glyph unicode="'" horiz-adv-x="348" d="M190 864h-32l-66 457q-1 8 -1.5 16t-0.5 23q0 50 21.5 76t62.5 26t63.5 -26t22.5 -74q0 -9 -3 -34q-1 -5 -1 -7z" />
<glyph unicode="(" horiz-adv-x="674" d="M319 588q0 -177 33 -350.5t101 -352.5q18 -50 48.5 -113.5t30.5 -76.5q0 -16 -10.5 -25.5t-27.5 -9.5q-33 0 -62 32.5t-74 123.5q-91 189 -137.5 383t-46.5 389q0 171 34.5 340t102.5 327q68 159 105 210t76 51q18 0 30.5 -9.5t12.5 -23.5t-31.5 -79.5t-50.5 -115.5 q-68 -176 -101 -349.5t-33 -350.5z" />
<glyph unicode=")" horiz-adv-x="674" d="M352 588q0 177 -33 350.5t-100 349.5q-18 48 -49 114t-31 81q0 14 11.5 23.5t29.5 9.5q33 0 63 -34t72 -122q92 -192 137.5 -384.5t45.5 -387.5q0 -171 -35 -340t-103 -330q-66 -154 -104.5 -206t-77.5 -52q-18 0 -28.5 9.5t-10.5 25.5q0 13 30.5 76.5t49.5 113.5 q67 179 100 352.5t33 350.5z" />
<glyph unicode="*" horiz-adv-x="1006" d="M518 1069v-14q0 -77 38 -167t38 -114q0 -42 -24 -67t-66 -25q-44 0 -69 23.5t-25 64.5q0 28 37.5 115.5t37.5 163.5v24q-82 -48 -131 -119q-3 -5 -4 -6q-49 -67 -76.5 -86.5t-58.5 -19.5q-36 0 -62 27t-26 65q0 47 35.5 71.5t113.5 30.5q69 5 115.5 20t77.5 42 q-68 48 -199 60q-18 2 -28 3q-54 5 -84.5 32t-30.5 69q0 36 26 64t62 28q56 0 116 -85q11 -16 17 -24q29 -40 63 -69.5t76 -51.5v11q0 75 -37.5 168t-37.5 122q0 39 24.5 62.5t65.5 23.5q44 0 68 -22t24 -64q0 -26 -37 -117t-37 -167v-21q55 36 83 63t52 62q48 68 76 87.5 t62 19.5q32 0 59 -28.5t27 -63.5q0 -37 -31 -65t-74 -32q-107 -9 -154.5 -24.5t-82.5 -44.5q72 -49 196 -57q21 -2 31 -3q53 -5 84 -33t31 -71q0 -34 -29.5 -62t-63.5 -28q-52 0 -118 93q-7 10 -11 16q-32 43 -65 71.5t-74 48.5z" />
<glyph unicode="+" horiz-adv-x="1706" d="M795 1221h118v-551h539v-117h-539v-553h-118v553h-541v117h541v551z" />
<glyph unicode="," horiz-adv-x="561" d="M176 -330q0 17 33 51q20 22 31 36q36 44 55.5 88.5t19.5 78.5q0 27 -9.5 39t-31.5 12q-6 0 -19 -1t-17 -1q-44 0 -68.5 25.5t-24.5 71.5q0 53 33.5 86.5t85.5 33.5q64 0 99.5 -49t35.5 -137q0 -59 -19.5 -119t-57.5 -118q-38 -56 -71.5 -88.5t-53.5 -32.5 q-10 0 -15.5 6.5t-5.5 17.5z" />
<glyph unicode="-" horiz-adv-x="670" d="M86 428v88q0 15 7 21t32 6h422q26 0 31.5 -5.5t5.5 -21.5v-88q0 -16 -6 -21.5t-27 -5.5h-430q-21 0 -28 6t-7 21z" />
<glyph unicode="." horiz-adv-x="561" d="M170 82q0 46 32 78.5t79 32.5q46 0 78 -32.5t32 -78.5t-32 -78.5t-78 -32.5q-47 0 -79 32.5t-32 78.5z" />
<glyph unicode="/" horiz-adv-x="551" d="M455 1452q10 35 22.5 48t32.5 13q19 0 28 -7t9 -23q0 -9 -1 -15.5t-3 -13.5l-496 -1583q-11 -35 -23 -48t-32 -13t-28.5 7t-8.5 23q0 9 1 15.5t3 13.5z" />
<glyph unicode="0" horiz-adv-x="1124" d="M254 739q0 -368 70.5 -517.5t236.5 -149.5q167 0 238 150.5t71 516.5q0 367 -71 517.5t-238 150.5q-166 0 -236.5 -149.5t-70.5 -518.5zM61 739q0 372 129.5 570t370.5 198q242 0 372 -198.5t130 -569.5q0 -370 -130 -569t-372 -199q-241 0 -370.5 198.5t-129.5 569.5z " />
<glyph unicode="1" horiz-adv-x="1124" d="M506 330v780q0 97 -25.5 123.5t-105.5 26.5q-60 -1 -123 -5q-16 -2 -19 -2q-25 0 -41 14.5t-16 37.5q0 12 7 22t18 14q23 8 97 18t122 25q72 24 145 72.5t82 48.5q18 0 24.5 -12.5t6.5 -58.5v-19v-1089q0 -103 10.5 -140t36.5 -51q40 -19 108 -29q15 -2 24 -4 q55 -8 68 -19t13 -36q0 -26 -21.5 -36.5t-87.5 -10.5h-516q-57 0 -74.5 9t-17.5 32q0 17 7.5 31t19.5 18q25 10 79 16.5t79 14.5q59 20 79.5 60t20.5 149z" />
<glyph unicode="2" horiz-adv-x="1124" d="M858 0h-747q-52 0 -68 10t-16 35q0 48 80 172t210 270q105 118 244.5 248t157.5 156q57 83 80.5 146t23.5 128q0 112 -75.5 177t-204.5 65q-121 0 -206 -67.5t-85 -157.5q0 -29 27.5 -76.5t27.5 -67.5q0 -33 -25.5 -54t-66.5 -21q-63 0 -99 44t-36 121q0 156 142 269.5 t345 113.5t324 -101t121 -269q0 -130 -68 -239t-274 -277q-200 -165 -295 -268.5t-139 -198.5h438q70 0 110.5 12t69.5 41q11 11 29 32q53 60 86 60q21 0 31 -11t10 -36q0 -20 -13 -71.5t-34 -112.5q-16 -46 -34.5 -59t-70.5 -13z" />
<glyph unicode="3" horiz-adv-x="1124" d="M623 807q196 -37 296.5 -132.5t100.5 -246.5q0 -213 -149.5 -337t-409.5 -124q-193 0 -315.5 88t-122.5 221q0 56 25.5 90.5t66.5 34.5q23 0 41 -11t32 -35q5 -8 7.5 -52t9.5 -74q18 -74 91.5 -121t174.5 -47q164 0 257 93.5t93 257.5q0 161 -90.5 245t-265.5 84 q-5 0 -27.5 -1t-40.5 -1q-32 0 -49.5 13t-17.5 36q0 43 89 53q79 9 134 23q107 28 164 103t57 188q0 118 -73 188t-197 70q-93 0 -159 -51t-66 -115q0 -12 7 -37t7 -36q0 -33 -23 -53.5t-61 -20.5q-49 0 -76 29t-27 81q0 117 125 208t297 91q196 0 315.5 -100t119.5 -262 q0 -126 -90 -216t-250 -124z" />
<glyph unicode="4" horiz-adv-x="1124" d="M678 526v793q-167 -151 -296.5 -352.5t-213.5 -440.5h510zM608 0q-41 0 -56 7.5t-15 25.5q0 37 61 59q24 9 36 14q23 10 33.5 33t10.5 64v192h-576q-45 0 -64.5 15t-19.5 51q0 26 20 83.5t64 164.5q53 122 130 247t182 256q122 152 211 225.5t151 73.5q36 0 51 -22.5 t15 -81.5v-881h178q55 0 70.5 -13.5t15.5 -51.5q0 -37 -17.5 -51.5t-68.5 -14.5h-178v-198q0 -26 4 -44.5t12 -27.5t36 -19q17 -6 26 -10q31 -13 42 -26t11 -33t-16.5 -28.5t-61.5 -8.5h-287z" />
<glyph unicode="5" horiz-adv-x="1124" d="M303 1310l-29 -466q74 38 149 57t157 19q211 0 337.5 -116.5t126.5 -309.5q0 -243 -150 -383t-411 -140q-193 0 -318.5 86t-125.5 213q0 46 30 77.5t74 31.5q42 0 67.5 -27t25.5 -71q0 -6 -2.5 -22t-2.5 -26q0 -72 69.5 -116.5t182.5 -44.5q163 0 264 106.5t101 278.5 q0 171 -79 264.5t-222 93.5q-39 0 -81.5 -9t-96.5 -30q-38 -14 -92 -46t-72 -32q-32 0 -45 10t-13 33q0 83 19.5 301.5t19.5 352.5q0 1 -1 8.5t-1 11.5q0 34 12 52t33 18q4 0 25 -3q124 -16 254 -16q150 0 317 22q42 5 52 5q27 0 39 -10.5t12 -34.5q0 -59 -138 -101 t-348 -42q-31 0 -66 1.5t-73 3.5z" />
<glyph unicode="6" horiz-adv-x="1124" d="M877 438q0 177 -78 269t-228 92q-60 0 -117 -17t-106 -49q-58 -38 -77 -70.5t-19 -93.5q0 -240 86 -369.5t244 -129.5q139 0 217 96.5t78 271.5zM268 774q93 71 186 106t187 35q192 0 307 -123t115 -329q0 -218 -138.5 -356t-357.5 -138q-232 0 -365.5 163.5 t-133.5 451.5q0 260 92 454.5t274 319.5q105 71 225 111t228 40q37 0 54 -11t17 -34q0 -21 -13 -31t-57 -18q-8 -1 -31 -5q-160 -24 -269 -93q-143 -89 -225 -229t-95 -314z" />
<glyph unicode="7" horiz-adv-x="1124" d="M616 707l273 618h-502q-67 0 -95 -16t-46 -62q-7 -17 -15 -47q-18 -63 -55 -63q-25 0 -36 16.5t-11 58.5q0 87 4 151.5t10 82.5q9 22 27 30.5t74 8.5h702q73 0 88 -8.5t15 -32.5q-1 -12 -3.5 -24t-7.5 -26l-223 -573q-167 -433 -250 -746q-3 -11 -4 -14q-15 -50 -41 -70 t-76 -20q-44 0 -69 16.5t-25 45.5q0 31 73 216.5t193 457.5z" />
<glyph unicode="8" horiz-adv-x="1124" d="M616 866q120 60 181 137t61 171q0 103 -83.5 171t-213.5 68q-138 0 -223.5 -69t-85.5 -179q0 -104 85 -174t279 -125zM389 752q-143 67 -213 158t-70 210q0 170 130 278.5t337 108.5q195 0 314 -89.5t119 -233.5q0 -106 -74 -197t-217 -162q185 -77 269.5 -177t84.5 -242 q0 -192 -151 -313.5t-394 -121.5q-210 0 -341.5 105.5t-131.5 271.5q0 126 80 222t258 182zM489 707q-138 -65 -213 -160.5t-75 -206.5q0 -122 95.5 -200.5t248.5 -78.5q160 0 259 80.5t99 206.5q0 120 -97.5 205t-316.5 154z" />
<glyph unicode="9" horiz-adv-x="1124" d="M854 705q-92 -70 -184.5 -105t-188.5 -35q-192 0 -307 123.5t-115 329.5q0 217 138.5 354t357.5 137q233 0 366.5 -162.5t133.5 -449.5q0 -260 -92.5 -454.5t-274.5 -319.5q-106 -72 -226.5 -113t-225.5 -41q-36 0 -54 12t-18 35q0 20 12.5 30t56.5 17q9 2 27 5 q161 26 272 96q144 90 227 229t95 312zM246 1040q0 -176 77.5 -267t227.5 -91q60 0 117 16.5t106 49.5q57 37 75.5 69t18.5 94q0 241 -85 370.5t-242 129.5q-139 0 -217 -97.5t-78 -273.5z" />
<glyph unicode=":" horiz-adv-x="561" d="M170 82q0 46 32 78.5t79 32.5q46 0 78 -32.5t32 -78.5t-32 -78.5t-78 -32.5q-47 0 -79 32.5t-32 78.5zM170 801q0 45 32 76.5t79 31.5q46 0 78 -31.5t32 -76.5q0 -46 -32 -78.5t-78 -32.5q-47 0 -79 32.5t-32 78.5z" />
<glyph unicode=";" horiz-adv-x="561" d="M143 795q0 47 33.5 80.5t81.5 33.5t81.5 -33.5t33.5 -80.5q0 -48 -33.5 -81.5t-81.5 -33.5q-49 0 -82 32.5t-33 82.5zM176 -330q0 17 33 51q20 22 31 36q36 44 55.5 88.5t19.5 78.5q0 27 -9.5 39t-31.5 12q-6 0 -19 -1t-17 -1q-44 0 -69.5 26t-25.5 71q0 53 34 86.5 t87 33.5q64 0 99.5 -49t35.5 -137q0 -59 -19.5 -119t-57.5 -118q-38 -56 -71.5 -88.5t-53.5 -32.5q-10 0 -15.5 6.5t-5.5 17.5z" />
<glyph unicode="&#x3c;" horiz-adv-x="1706" d="M1442 1145v-127l-1000 -408l1000 -405v-129l-1178 483v103z" />
<glyph unicode="=" horiz-adv-x="1706" d="M254 477h1198v-117h-1198v117zM254 860h1198v-117h-1198v117z" />
<glyph unicode="&#x3e;" horiz-adv-x="1706" d="M264 1145l1178 -483v-103l-1178 -483v129l1000 405l-1000 408v127z" />
<glyph unicode="?" horiz-adv-x="905" d="M240 82q0 46 32 78.5t78 32.5t78.5 -32.5t32.5 -78.5t-32.5 -78.5t-78.5 -32.5t-78 32.5t-32 78.5zM289 463v201q0 49 70 82q35 16 57 28q151 83 203.5 160t52.5 196q0 143 -71 222.5t-198 79.5q-75 0 -123.5 -35t-48.5 -88q0 -15 5.5 -36.5t5.5 -29.5q0 -43 -27 -67.5 t-74 -24.5q-40 0 -66 25.5t-26 64.5q0 110 111.5 190t275.5 80q178 0 284.5 -109t106.5 -290q0 -111 -43 -205.5t-122 -156.5q-69 -56 -194 -105q-24 -9 -36 -14q-28 -12 -37 -27.5t-12 -52.5q-2 -28 -3 -72q-3 -110 -46 -110q-26 0 -35.5 17t-9.5 77z" />
<glyph unicode="@" horiz-adv-x="2019" d="M1190 336q-62 -106 -139 -158.5t-170 -52.5q-125 0 -201 92t-76 244q0 108 49 216t138 193q65 64 144 100t155 36q87 0 143 -49.5t78 -145.5l53 180h143l-170 -610q0 -2 -1 -5q-17 -59 -17 -104q0 -47 25.5 -74.5t68.5 -27.5q34 0 79 17.5t85 48.5q122 90 187 231t65 315 q0 140 -50 252t-153 203q-90 79 -216 122.5t-267 43.5q-187 0 -341.5 -58.5t-275.5 -175.5q-130 -126 -197 -293.5t-67 -369.5q0 -175 57 -304.5t181 -234.5q114 -97 261 -146.5t320 -49.5q163 0 317.5 52t295.5 154l30 -36q-148 -110 -313 -166t-342 -56q-187 0 -342 46.5 t-274 138.5q-151 113 -229.5 274.5t-78.5 358.5q0 204 86 381t250 313q131 110 291 165.5t344 55.5q347 0 553.5 -187t206.5 -499q0 -157 -58 -297t-163 -236q-57 -52 -123.5 -80t-134.5 -28q-97 0 -149 52.5t-58 158.5zM1098 965q-54 0 -99 -31t-92 -100 q-72 -108 -114.5 -234t-42.5 -225q0 -93 40.5 -147t108.5 -54q66 0 126 44.5t116 133.5q57 94 91 202.5t34 197.5q0 93 -47.5 153t-120.5 60z" />
<glyph unicode="A" horiz-adv-x="1350" d="M371 633h544q-52 154 -119.5 312.5t-150.5 324.5q-80 -153 -148 -312t-126 -325zM330 514q-45 -124 -68.5 -212.5t-23.5 -129.5q0 -19 9.5 -34t28.5 -27q10 -7 30 -17q38 -19 38 -51q0 -22 -22 -32.5t-70 -10.5h-178q-52 0 -73 10.5t-21 34.5q0 20 26.5 37.5t32.5 26.5 q14 23 96 258.5t164 441.5q131 327 228.5 514.5t134.5 187.5q50 0 171.5 -231.5t260.5 -599.5q55 -149 112 -332.5t72 -208.5q8 -14 45 -42.5t37 -57.5q0 -22 -23 -30.5t-90 -8.5h-186q-53 0 -73.5 10.5t-20.5 36.5q0 35 57 65q17 9 27 15q8 5 12 17t4 30q0 30 -27 115.5 t-79 224.5h-631z" />
<glyph unicode="B" horiz-adv-x="1352" d="M152 0q-49 0 -67.5 10t-18.5 35q0 27 51 55q21 11 33 19q18 12 26 37t8 77v1014q0 44 -4.5 65t-15.5 35q-10 13 -54 36t-44 51q0 24 18.5 34.5t67.5 10.5h591q231 0 345 -82.5t114 -249.5q0 -106 -86 -198t-239 -146q195 -23 310.5 -132t115.5 -270q0 -97 -44.5 -182 t-123.5 -139q-64 -43 -145.5 -61.5t-274.5 -18.5h-563zM367 655v-372q0 -109 35 -140.5t214 -31.5q243 0 364.5 74t121.5 223q0 124 -96.5 211t-268.5 116q-139 -33 -230.5 -52.5t-139.5 -27.5zM367 768q323 53 481 147t158 234q0 116 -91 168.5t-294 52.5 q-178 0 -216 -24.5t-38 -151.5v-426z" />
<glyph unicode="C" horiz-adv-x="1432" d="M782 -45q-325 0 -518.5 208t-193.5 558q0 172 50.5 312t151.5 249q107 116 246 173.5t311 57.5q150 0 285 -42t178 -93q17 -19 25 -84t8 -178q0 -31 -8 -42t-29 -11q-37 0 -60 56q-17 41 -34 67q-70 108 -169 163.5t-222 55.5q-232 0 -377 -185t-145 -485 q0 -299 145 -473t393 -174q100 0 185 29.5t172 95.5q36 28 85.5 86.5t71.5 58.5q20 0 35.5 -15.5t15.5 -35.5q0 -35 -34 -88.5t-88 -97.5q-103 -84 -221 -125t-259 -41z" />
<glyph unicode="D" horiz-adv-x="1485" d="M184 233v1014q0 44 -4.5 65t-15.5 35q-10 13 -54 36t-44 51q0 22 17.5 33.5t53.5 11.5q4 0 19 -1q60 -1 116 -1q61 0 173 3t163 3q370 0 586.5 -199t216.5 -539q0 -354 -217 -549.5t-612 -195.5h-430q-49 0 -67.5 10t-18.5 35q0 27 51 55q21 11 33 19q18 12 26 37t8 77z M365 373q0 -194 36.5 -233.5t155.5 -39.5q313 0 479 165.5t166 477.5q0 308 -161 470.5t-466 162.5q-89 0 -123 -9t-55 -32q-18 -19 -25 -50.5t-7 -98.5v-74v-739z" />
<glyph unicode="E" horiz-adv-x="1262" d="M152 0q-49 0 -67.5 10t-18.5 35q0 27 51 55q21 11 33 19q18 12 26 37t8 77v1014q0 44 -4.5 65t-15.5 35q-10 13 -54 36t-44 51q0 24 18.5 34.5t67.5 10.5h876q96 0 117.5 -33t21.5 -182q0 -23 -7 -33t-23 -10q-18 0 -55 37t-68 57q-44 28 -132 40.5t-247 12.5 q-108 0 -158.5 -7t-77.5 -24q-19 -11 -26.5 -36.5t-7.5 -112.5v-326h403q52 0 82.5 4t43.5 12q12 7 32 22q34 26 53 26q20 0 28.5 -13t8.5 -51v-112q0 -36 -8.5 -51t-28.5 -15q-19 0 -53 26q-20 15 -31 21q-14 9 -44.5 13t-82.5 4h-403v-443q0 -126 28.5 -157t130.5 -31h217 q108 0 183.5 13.5t130.5 43.5q36 19 78.5 64t62.5 45q21 0 30 -10.5t9 -34.5q0 -64 -13.5 -127t-23.5 -78q-15 -18 -49 -25.5t-115 -7.5h-882z" />
<glyph unicode="F" horiz-adv-x="1157" d="M365 233q0 -45 4.5 -66.5t15.5 -35.5q10 -12 61.5 -33t51.5 -51q0 -26 -19 -36.5t-71 -10.5h-265q-52 0 -72 10.5t-20 36.5q0 30 58 55q27 12 41 19q18 10 26 36t8 76v1014q0 44 -4.5 65t-15.5 35q-10 13 -54 36t-44 51q0 24 18.5 34.5t67.5 10.5h813q117 0 146.5 -41 t29.5 -164q0 -29 -8.5 -40t-28.5 -11t-58.5 39.5t-70.5 54.5q-61 29 -172.5 44t-263.5 15q-109 0 -141.5 -31t-32.5 -133v-397h253q68 0 112.5 2.5t75.5 7.5q30 6 75.5 25.5t62.5 19.5q28 0 38.5 -13.5t10.5 -53.5v-96q0 -37 -11 -51.5t-38 -14.5q-15 0 -61 23.5t-76 29.5 q-34 7 -83 11t-106 4h-253v-476z" />
<glyph unicode="G" horiz-adv-x="1583" d="M1458 205q0 -26 -24 -53.5t-72 -55.5q-127 -72 -254 -105.5t-277 -33.5q-173 0 -309.5 51.5t-236.5 155.5q-104 105 -157.5 242.5t-53.5 298.5q0 188 69.5 346t204.5 276q105 93 238 139.5t291 46.5q136 0 258.5 -34.5t195.5 -92.5q30 -22 46 -80.5t16 -148.5 q0 -39 -12 -58.5t-35 -19.5q-24 0 -53 60q-17 36 -29 57q-61 102 -163 155.5t-237 53.5q-123 0 -226.5 -49t-184.5 -146q-79 -93 -124.5 -226.5t-45.5 -272.5q0 -287 168.5 -468.5t435.5 -181.5q91 0 172 26t139 73q39 31 55.5 85t16.5 163q0 118 -8 156.5t-29 51.5 q-26 16 -72.5 23.5t-122.5 7.5q-57 0 -72.5 11t-15.5 38q0 31 25 42.5t123 11.5h24q35 0 86.5 1t69.5 1q108 0 140 -19.5t32 -77.5q0 -17 -3 -89t-3 -128q0 -96 11 -200q3 -26 3 -33z" />
<glyph unicode="H" horiz-adv-x="1579" d="M1214 750h-849v-517q0 -44 4.5 -65.5t15.5 -36.5q9 -12 54.5 -35t45.5 -51q0 -25 -18.5 -35t-67.5 -10h-247q-49 0 -67.5 10t-18.5 35q0 27 51 55q21 11 33 19q18 12 26 37t8 77v1014q0 44 -4.5 65t-15.5 35q-10 13 -54 36t-44 51q0 24 18.5 34.5t67.5 10.5h247 q49 0 67.5 -10.5t18.5 -34.5q0 -27 -51 -55q-23 -11 -35 -19q-19 -12 -26.5 -36.5t-7.5 -76.5v-379h849v379q0 44 -4.5 65t-15.5 36q-10 12 -55 35t-45 51q0 24 18.5 34.5t67.5 10.5h247q49 0 67.5 -10.5t18.5 -34.5q0 -28 -50 -55q-22 -12 -33 -19q-19 -12 -27 -36.5 t-8 -76.5v-1014q0 -44 4.5 -65.5t15.5 -36.5q9 -12 53.5 -35t44.5 -51q0 -25 -18.5 -35t-67.5 -10h-247q-49 0 -67.5 10t-18.5 35q0 27 51 54q23 12 35 20q18 12 26 37t8 77v517z" />
<glyph unicode="I" horiz-adv-x="563" d="M406 1479q48 0 67 -10.5t19 -34.5q0 -28 -51 -55q-22 -12 -33 -19q-19 -12 -27 -36.5t-8 -76.5v-1014q0 -44 4.5 -65.5t15.5 -36.5q9 -12 54 -35t45 -51q0 -25 -19 -35t-67 -10h-250q-49 0 -67.5 10t-18.5 35q0 27 51 54q23 12 35 20q18 12 26 37t8 77v1014q0 44 -4.5 65 t-15.5 36q-10 12 -55 35t-45 51q0 24 18.5 34.5t67.5 10.5h250z" />
<glyph unicode="J" horiz-adv-x="938" d="M584 362v885q0 41 -5 64t-16 37q-10 11 -47 25q-19 7 -28 11q-35 15 -43.5 25.5t-8.5 26.5q0 24 17 33.5t67 9.5h268q49 0 67.5 -10.5t18.5 -34.5q0 -28 -47 -53q-24 -13 -36 -21q-15 -11 -21 -34.5t-6 -78.5v-885q0 -201 -99.5 -304t-293.5 -103q-179 0 -280 81.5 t-101 225.5q0 115 58.5 186.5t152.5 71.5q43 0 71.5 -23t28.5 -59q0 -29 -16.5 -46t-69.5 -34q-60 -18 -80 -41.5t-20 -66.5q0 -80 64.5 -133.5t164.5 -53.5q125 0 182.5 71.5t57.5 227.5z" />
<glyph unicode="K" horiz-adv-x="1278" d="M365 233q0 -44 4.5 -65.5t15.5 -36.5q9 -12 54.5 -35t45.5 -51q0 -25 -18.5 -35t-67.5 -10h-247q-49 0 -67.5 10t-18.5 35q0 27 51 55q21 11 33 19q18 12 26 37t8 77v1014q0 44 -4.5 65t-15.5 35q-10 13 -54 36t-44 51q0 24 18.5 34.5t67.5 10.5h247q49 0 67.5 -10.5 t18.5 -34.5q0 -27 -51 -55q-23 -11 -35 -19q-19 -12 -26.5 -36.5t-7.5 -76.5v-553q258 239 411.5 410t153.5 217q0 16 -7.5 27.5t-31.5 27.5q-7 5 -20 12q-37 21 -37 52q0 21 22 30t78 9h225q57 0 77.5 -10t20.5 -35t-54.5 -54.5t-88.5 -68.5l-15 -18q-253 -294 -370 -406 q118 -107 233 -271t228 -385q6 -11 16 -33q28 -60 47 -71q10 -6 28 -16q48 -27 48 -54q0 -29 -23.5 -43t-74.5 -14h-193q-65 0 -86.5 10.5t-21.5 38.5q0 14 7.5 24.5t30.5 26.5q7 4 17 9q25 11 25 36q0 78 -113 259.5t-289 359.5q-54 -53 -115 -109.5t-128 -115.5v-306z" />
<glyph unicode="L" horiz-adv-x="1194" d="M152 0q-49 0 -67.5 10t-18.5 35q0 27 51 55q21 11 33 19q18 12 26 37t8 77v1014q0 44 -4.5 65t-15.5 35q-10 13 -54 36t-44 51q0 24 18.5 34.5t67.5 10.5h247q62 0 81.5 -9t19.5 -32q0 -33 -53 -55q-28 -12 -44 -21q-21 -13 -29.5 -38.5t-8.5 -76.5v-981 q0 -106 38 -130.5t222 -24.5q163 0 247 14t152 47q26 13 76 46.5t71 33.5q18 0 25.5 -10t7.5 -33q0 -56 -11.5 -110.5t-21.5 -68.5q-13 -16 -38.5 -23t-104.5 -7h-876z" />
<glyph unicode="M" horiz-adv-x="1686" d="M166 283l31 983v8q0 27 -8 50t-23 38q-5 5 -35 14q-25 7 -41 13q-25 8 -34 18t-9 29q0 24 20 33.5t78 9.5h164q69 0 90 -12.5t37 -53.5q9 -21 36 -88q173 -441 366 -852q127 242 231 476t184 458q17 45 37 58.5t80 13.5h154q65 0 90.5 -11.5t25.5 -37.5q0 -16 -6.5 -27.5 t-18.5 -18.5q-16 -9 -52 -19t-47 -22q-13 -12 -18 -37.5t-5 -76.5l14 -934q2 -76 7 -110.5t16 -49.5q7 -10 17.5 -18.5t33.5 -20.5q7 -3 20 -9q41 -18 41 -46q0 -23 -19.5 -32t-90.5 -9h-238q-57 0 -75.5 8.5t-18.5 30.5q0 31 53 50q29 11 43 20q17 10 24 30.5t7 65.5v31 l-14 985q-25 -82 -111 -280.5t-225 -491.5q-13 -27 -35 -75q-83 -181 -123 -181q-35 0 -147 237.5t-346 814.5l-19 -1012q0 -42 4 -66t12 -35q12 -15 48 -31q10 -4 16 -7q3 -1 7 -3q46 -20 46 -50q0 -24 -19 -32.5t-85 -8.5h-219q-58 0 -75 8t-17 31q0 29 51 51q32 14 49 25 q21 13 30 42.5t11 125.5z" />
<glyph unicode="N" horiz-adv-x="1489" d="M172 352v867q0 54 -3.5 78t-13.5 37q-13 18 -56 34q-8 3 -11 4q-9 4 -25 9q-55 19 -55 51q0 26 16.5 36.5t75.5 10.5h168q30 0 49 -1.5t30 -5.5q26 -12 79 -69t195 -234q151 -187 294 -383t277 -399v819q0 87 -4 114t-12 37q-12 16 -47 28q-7 2 -10 3q-8 3 -20 7 q-42 14 -42 43q0 23 16.5 32t61.5 9h200q69 0 90 -8.5t21 -30.5q0 -32 -42 -51t-54 -31q-16 -15 -22.5 -39.5t-6.5 -83.5v-25v-1116q0 -78 -8.5 -95t-32.5 -17q-36 0 -118 134q-34 55 -54 87q-182 288 -383.5 555.5t-419.5 509.5v-977q0 -41 5 -77t14 -63q5 -14 16.5 -24 t41.5 -22q16 -6 42 -14q55 -16 55 -48q0 -24 -20.5 -33.5t-75.5 -9.5h-279q-44 0 -64 8.5t-20 28.5q0 14 4.5 24t12.5 15q11 6 49 21t54 35q17 21 24.5 70.5t7.5 149.5z" />
<glyph unicode="O" horiz-adv-x="1575" d="M281 735q0 -309 135.5 -487t369.5 -178q235 0 370.5 178t135.5 487q0 310 -135.5 487t-370.5 177q-234 0 -369.5 -177t-135.5 -487zM72 735q0 184 57.5 329.5t175.5 260.5q95 91 217.5 138.5t263.5 47.5q143 0 266 -47t218 -139q117 -114 174 -259t57 -331t-57 -331.5 t-174 -260.5q-95 -91 -218 -138.5t-266 -47.5q-142 0 -264 47t-217 139q-118 116 -175.5 262t-57.5 330z" />
<glyph unicode="P" horiz-adv-x="1241" d="M365 690q310 8 475.5 108t165.5 279q0 145 -111 220t-326 75q-117 0 -160.5 -40t-43.5 -148v-494zM365 233q0 -45 5 -66.5t17 -35.5q9 -8 41 -21q18 -7 29 -12l4 -2q51 -24 51 -51q0 -25 -18.5 -35t-67.5 -10h-274q-49 0 -67.5 10t-18.5 35q0 27 51 55q21 11 33 19 q18 12 26 37t8 77v1014q0 44 -4.5 65t-15.5 35q-10 13 -54 36t-44 51q0 24 18.5 34.5t67.5 10.5h448q310 0 459 -95.5t149 -293.5q0 -239 -219 -372t-624 -140v-345z" />
<glyph unicode="Q" horiz-adv-x="1575" d="M811 72q-25 63 -38 125t-13 114q0 30 11.5 46t33.5 16q41 0 52 -76q3 -21 5 -33q13 -69 27 -110.5t33 -67.5q181 62 275.5 227.5t94.5 421.5q0 310 -135.5 487t-370.5 177q-234 0 -369.5 -177t-135.5 -487q0 -302 134.5 -483.5t354.5 -181.5q104 0 129 0.5t25 1.5h-113z M876 -41q-11 -1 -25 -1.5t-42 -0.5q-335 0 -536 212.5t-201 565.5q0 186 57 331t174 259q94 91 217.5 138.5t265.5 47.5q143 0 265 -47t217 -139q117 -114 175 -261t58 -329q0 -272 -128 -464.5t-369 -282.5q48 -53 119.5 -82t154.5 -29q26 0 59 1t39 1q56 0 83.5 -20 t27.5 -60q0 -46 -38 -71t-110 -25q-130 0 -253.5 68.5t-209.5 187.5z" />
<glyph unicode="R" horiz-adv-x="1319" d="M365 233q0 -45 4.5 -66.5t15.5 -35.5q5 -6 30 -16t38 -17q28 -12 38.5 -23.5t10.5 -29.5q0 -25 -19.5 -35t-83.5 -10h-247q-49 0 -67.5 10t-18.5 35q0 27 51 55q21 11 33 19q18 12 26 37t8 77v1014q0 44 -4.5 65t-15.5 35q-10 13 -54 36t-44 51q0 24 18.5 34.5t67.5 10.5 h503q308 0 438 -79t130 -259q0 -134 -84.5 -234.5t-249.5 -163.5q131 -173 257 -452q31 -69 46 -98q14 -30 34 -53t52 -46q5 -4 15 -10q34 -21 34 -45q0 -22 -17.5 -30.5t-64.5 -8.5h-276q-43 0 -59.5 8.5t-16.5 30.5q0 16 7.5 26.5t25.5 20.5q10 6 27 14q44 21 44 56 q0 74 -80.5 223t-214.5 311q-60 -17 -142.5 -30t-194.5 -23v-404zM365 756q335 37 494 126t159 238q0 126 -105 186t-325 60q-147 0 -185 -24t-38 -130v-456z" />
<glyph unicode="S" horiz-adv-x="1194" d="M569 -43q-121 0 -222 34t-181 101q-65 57 -105.5 124t-40.5 116q0 31 18 49t48 18q38 0 71 -67q22 -45 40 -70q69 -95 159.5 -141.5t208.5 -46.5q182 0 293 87t111 228q0 118 -76 180.5t-291 104.5q-185 37 -256 62t-119 61q-67 50 -103 122t-36 156q0 198 132.5 317 t354.5 119q123 0 230.5 -29t165.5 -77q23 -19 32 -44t9 -101v-35q0 -42 -6.5 -53t-24.5 -11q-17 0 -63 51.5t-84 85.5q-66 57 -138 85t-149 28q-132 0 -211.5 -71.5t-79.5 -188.5q0 -103 63 -165t201 -95q52 -12 149 -31q196 -36 269 -78q94 -53 141 -137t47 -196 q0 -223 -153 -357.5t-404 -134.5z" />
<glyph unicode="T" horiz-adv-x="1235" d="M463 0q-40 0 -56 9.5t-16 31.5q0 32 52 53q26 10 41 19q19 12 26.5 36.5t7.5 90.5v1026q0 71 -18 88.5t-70 17.5q-70 0 -128.5 -16.5t-113.5 -50.5q-27 -18 -72 -61.5t-75 -43.5q-17 0 -24 9t-7 34q0 71 12 133t23 76q11 15 32 21t75 6h24h864q64 0 85.5 -3.5t33.5 -11.5 q20 -14 33.5 -75.5t13.5 -145.5q0 -26 -6 -34.5t-22 -8.5q-32 0 -79 46q-23 22 -38 34q-60 47 -126.5 69.5t-148.5 22.5q-52 0 -70 -17.5t-18 -88.5v-33v-993q0 -57 5 -79t16 -36t58.5 -33t47.5 -51q0 -22 -16 -31.5t-55 -9.5h-291z" />
<glyph unicode="U" horiz-adv-x="1456" d="M147 1479h222q63 0 87.5 -12t24.5 -40q0 -37 -48 -59t-56 -33q-25 -29 -46.5 -229.5t-21.5 -462.5q0 -166 23.5 -264t77.5 -162q56 -67 139 -103t182 -36q89 0 171 29.5t134 80.5q68 69 97.5 170.5t29.5 284.5q0 288 -14.5 472.5t-38.5 215.5q-10 14 -65.5 41.5 t-55.5 65.5q0 22 20 31.5t72 9.5h205q62 0 81 -10t19 -37q0 -31 -38 -50q-7 -4 -11 -6q-35 -19 -45 -34.5t-10 -41.5q0 -23 14.5 -248.5t14.5 -428.5q0 -333 -152 -499.5t-454 -166.5q-295 0 -434.5 165t-139.5 515q0 208 15.5 428.5t15.5 232.5q0 18 -9 34.5t-22 23.5 q-5 2 -14 6q-64 29 -64 70q0 25 21 36t73 11z" />
<glyph unicode="V" horiz-adv-x="1350" d="M102 1479h187q62 0 80 -9.5t18 -33.5q0 -23 -36 -44q-9 -5 -14 -8t-14 -8q-47 -26 -47 -82q0 -75 38.5 -220t109.5 -337q60 -162 124.5 -295.5t135.5 -244.5q88 141 166 315t147 385q51 156 74 248t23 141q0 33 -6.5 49t-20.5 25q-16 10 -44 23q-56 26 -56 61 q0 19 18.5 27t77.5 8h192q50 0 67 -9t17 -32q0 -20 -26 -48.5t-37 -50.5q-11 -21 -47.5 -154t-71.5 -239q-141 -430 -285.5 -709.5t-214.5 -279.5q-54 0 -162 195t-233 522q-48 125 -95.5 281t-96.5 345q-11 42 -41.5 81.5t-30.5 58.5q0 22 20 30.5t84 8.5z" />
<glyph unicode="W" horiz-adv-x="1903" d="M80 1479h233q56 0 76.5 -9t20.5 -30q0 -35 -54 -54q-27 -10 -43 -18q-19 -10 -28 -32.5t-9 -59.5q0 -109 75.5 -404t199.5 -634q148 337 234.5 628.5t86.5 423.5q0 25 -5.5 40.5t-18.5 27.5q-11 9 -46.5 26.5t-35.5 42.5q0 28 18.5 40t63.5 12h211q54 0 75 -11t21 -38 q0 -29 -36 -48q-11 -6 -17 -10q-38 -22 -49 -43t-11 -63q0 -133 90.5 -419.5t241.5 -606.5q127 330 202 620.5t75 417.5q0 31 -7 47.5t-24 26.5q-16 10 -49 24q-55 23 -55 58q0 22 19 33.5t56 11.5h199q54 0 73 -10.5t19 -36.5q0 -24 -36 -54.5t-50 -56.5q-13 -25 -35 -149 q-11 -61 -18 -96q-42 -214 -100 -426.5t-132 -420.5l-1 -5q-95 -267 -156 -267q-63 0 -162 241q-6 13 -8 19q-84 199 -148 381t-104 334q-144 -490 -247 -732.5t-167 -242.5q-53 0 -114 147t-166 541q-61 226 -124 533q-18 86 -26 120q-7 30 -14 46t-17 24q-4 5 -18 13 q-37 21 -37 51q0 24 19 35.5t59 11.5z" />
<glyph unicode="X" horiz-adv-x="1354" d="M643 649q-139 -186 -224 -329t-85 -183q0 -16 8.5 -28t30.5 -25q9 -6 23 -12q30 -14 30 -35t-16 -29t-62 -8h-264q-29 0 -42 8.5t-13 28.5q0 26 49 53.5t72 52.5q17 21 148.5 219.5t264.5 370.5q-187 222 -354 500q-20 33 -29 47q-1 2 -3 5q-37 60 -66 83q-12 9 -35 22 q-41 23 -41 48q0 21 16 31t49 10h256q59 0 77 -8.5t18 -30.5q0 -24 -42 -49t-42 -48q0 -52 78.5 -170.5t234.5 -300.5q148 178 222.5 293.5t74.5 169.5q0 18 -9 29.5t-43 28.5q-5 2 -18 7q-37 14 -37 40q0 21 18 30t62 9h215q58 0 79.5 -8.5t21.5 -28.5q0 -24 -33 -40 q-16 -8 -24 -13q-20 -12 -39.5 -33t-55.5 -72q-13 -18 -48 -71q-157 -241 -312 -425q200 -217 410 -543q15 -23 22 -34q3 -5 9 -14q42 -66 76 -86q13 -7 33 -17q48 -23 48 -49q0 -24 -19 -34.5t-65 -10.5h-260q-37 0 -55.5 11t-18.5 32q0 24 33 42l2 1q3 2 9 5q26 13 26 30 q0 70 -91.5 204.5t-269.5 323.5z" />
<glyph unicode="Y" horiz-adv-x="1348" d="M762 233q0 -44 5 -66t15 -36q10 -12 54.5 -35t44.5 -51q0 -25 -18.5 -35t-67.5 -10h-248q-49 0 -67.5 10t-18.5 35q0 27 51 55q21 11 33 19q19 12 28 38.5t9 75.5v316q0 55 -128 222q-113 148 -182 253q-51 78 -115 187.5t-83 129.5q-14 16 -63.5 39.5t-49.5 57.5 q0 21 19 31t59 10h258q53 0 73.5 -9t20.5 -30q0 -35 -45 -59q-14 -7 -20 -11q-12 -6 -19.5 -18.5t-7.5 -26.5q0 -33 115 -207.5t291 -398.5q199 258 284.5 399t85.5 207q0 26 -41 50q-11 6 -16 9q0 1 -1 1q-46 26 -46 55q0 18 16.5 28.5t46.5 10.5h203q70 0 89.5 -8 t19.5 -29q0 -19 -37.5 -50t-61.5 -69q-112 -177 -233.5 -356t-251.5 -361v-373z" />
<glyph unicode="Z" horiz-adv-x="1128" d="M182 0q-100 0 -125.5 16t-25.5 60q0 57 70.5 176t226.5 326l126 166q400 528 400 597q0 19 -21 27t-69 8h-207q-84 0 -152.5 -14t-111.5 -41t-83 -72t-56 -45q-19 0 -27 12t-8 41q0 162 17 192t89 30h713q86 0 109.5 -16t23.5 -58q0 -60 -86.5 -203t-265.5 -379 q-223 -294 -341 -470t-118 -214q0 -15 13.5 -21.5t41.5 -6.5h256q124 0 197 15t135 50q44 24 92.5 72.5t67.5 48.5q13 0 20.5 -11.5t8.5 -33.5q0 -66 -11 -132t-24 -99q-6 -12 -21.5 -16.5t-48.5 -4.5h-805z" />
<glyph unicode="[" horiz-adv-x="674" d="M340 -158q0 -21 5.5 -26.5t29.5 -5.5h127q29 0 38 -7.5t9 -31.5v-39q0 -21 -9 -28t-42 -7h-238q-42 0 -50.5 8t-8.5 43v1679q0 35 8.5 43.5t50.5 8.5h238q33 0 42 -7.5t9 -27.5v-39q0 -24 -9 -31.5t-38 -7.5h-127q-23 0 -29 -6t-6 -27v-1491z" />
<glyph unicode="\" horiz-adv-x="551" d="M543 -131q2 -7 3 -13.5t1 -15.5q0 -15 -9.5 -22.5t-27.5 -7.5q-20 0 -32.5 13t-22.5 48l-496 1583q-2 7 -3 13.5t-1 15.5q0 15 9 22.5t28 7.5q20 0 32 -13t23 -48z" />
<glyph unicode="]" horiz-adv-x="674" d="M334 -158v1491q0 21 -6.5 27t-30.5 6h-125q-30 0 -38.5 7.5t-8.5 31.5v39q0 21 8 28t41 7h240q42 0 50.5 -8.5t8.5 -43.5v-1679q0 -35 -8.5 -43t-50.5 -8h-240q-33 0 -41 7t-8 28v39q0 24 8.5 31.5t38.5 7.5h125q24 0 30.5 6t6.5 26z" />
<glyph unicode="^" horiz-adv-x="2048" d="M934 1462h178l520 -565h-92l-518 436l-520 -436h-90z" />
<glyph unicode="_" d="M0 -365h1024v-118h-1024v118z" />
<glyph unicode="`" d="M688 1083h-67l-330 205q-31 20 -46.5 40.5t-15.5 41.5q0 32 20.5 52t53.5 20q20 0 40.5 -12t55.5 -48z" />
<glyph unicode="a" horiz-adv-x="1053" d="M764 158q-66 -93 -162 -140t-221 -47q-149 0 -236.5 79.5t-87.5 213.5q0 183 162 281t467 98h45q-12 106 -89.5 165.5t-203.5 59.5q-72 0 -154 -48t-106 -48q-28 0 -46.5 15.5t-18.5 39.5q0 63 93 104.5t243 41.5q247 0 356.5 -115.5t109.5 -378.5v-305q0 -22 6 -35.5 t31 -34.5q9 -6 29 -15q45 -20 45 -48q0 -30 -32.5 -40.5t-162.5 -10.5q-38 0 -52.5 14.5t-14.5 52.5v101zM752 551h-27q-234 0 -361.5 -73.5t-127.5 -207.5q0 -81 55.5 -132.5t144.5 -51.5q50 0 98.5 13t86.5 36q74 46 102.5 98t28.5 146v172z" />
<glyph unicode="b" horiz-adv-x="1118" d="M291 702v-303q0 -161 65.5 -244t194.5 -83q143 0 225 107.5t82 295.5q0 177 -77.5 276t-215.5 99q-78 0 -150 -38.5t-124 -109.5zM133 399v830q0 49 -7.5 68t-27.5 30q-14 8 -41 17q-47 16 -47 45q0 17 13.5 31.5t50.5 33.5q53 28 97.5 43.5t68.5 15.5q29 0 40 -18.5 t11 -83.5v-51v-524q73 68 157 102.5t179 34.5q187 0 297 -124.5t110 -336.5q0 -244 -138 -392.5t-364 -148.5q-209 0 -304 101.5t-95 326.5z" />
<glyph unicode="c" horiz-adv-x="905" d="M836 248q22 0 35.5 -9t13.5 -24q0 -29 -30 -72.5t-79 -81.5q-57 -45 -126.5 -67.5t-153.5 -22.5q-187 0 -308.5 132.5t-121.5 336.5q0 229 134 381t335 152q135 0 227 -56.5t92 -132.5q0 -33 -25 -57.5t-59 -24.5q-41 0 -86 59q-7 9 -10 13q-44 57 -77.5 73.5t-82.5 16.5 q-121 0 -196.5 -111.5t-75.5 -293.5q0 -166 81 -265.5t216 -99.5q40 0 79.5 11t75.5 32q44 25 87.5 68t54.5 43z" />
<glyph unicode="d" horiz-adv-x="1139" d="M803 762q-49 52 -116.5 80t-141.5 28q-145 0 -232.5 -111.5t-87.5 -299.5q0 -172 81 -270.5t222 -98.5q69 0 133 22t107 60q19 16 27 38.5t8 70.5v16v465zM823 109q-71 -69 -155.5 -103.5t-182.5 -34.5q-191 0 -313.5 132.5t-122.5 340.5q0 231 133.5 380t339.5 149 q75 0 145.5 -21t135.5 -63v352q0 40 -12 60.5t-41 33.5q-12 6 -33 14q-43 17 -43 37q0 10 9.5 23t25.5 25q54 37 105.5 58t84.5 21q34 0 48 -25.5t14 -92.5v-1145q0 -52 3.5 -80.5t12.5 -40.5q12 -17 60 -39t48 -51q0 -20 -15.5 -29.5t-49.5 -9.5h-102q-47 0 -62.5 18 t-32.5 91z" />
<glyph unicode="e" horiz-adv-x="1010" d="M223 455q272 26 399.5 91.5t127.5 176.5q0 74 -51.5 116t-141.5 42q-147 0 -240.5 -114t-93.5 -296v-16zM238 352q25 -117 107 -185.5t196 -68.5q61 0 115 15t106 47q25 15 62 43q51 37 67 37t26.5 -12t10.5 -31q0 -31 -41.5 -74.5t-110.5 -83.5q-58 -34 -122.5 -51 t-135.5 -17q-211 0 -337 125.5t-126 335.5q0 230 149.5 385.5t368.5 155.5q167 0 257 -69t90 -195q0 -149 -166.5 -235.5t-515.5 -121.5z" />
<glyph unicode="f" horiz-adv-x="563" d="M381 0h-256q-29 0 -42 9.5t-13 31.5q0 34 70 60q13 5 19 7q13 6 18 26t5 67v628h-80q-39 0 -55 13.5t-16 46.5t16 46t55 13h80v117q0 213 78.5 330.5t218.5 117.5q64 0 101.5 -30t37.5 -80q0 -37 -22.5 -59.5t-58.5 -22.5q-32 0 -50 15t-26 48q-2 9 -3 26q-1 26 -16 26 q-46 0 -74 -106t-28 -290v-92h127q40 0 56 -13t16 -46t-16 -46.5t-56 -13.5h-127v-626q0 -59 6 -76t21 -23q13 -5 40 -12q54 -15 54 -47q0 -24 -18 -34.5t-62 -10.5z" />
<glyph unicode="g" horiz-adv-x="1016" d="M217 514q0 -175 70 -269.5t200 -94.5q133 0 203 93.5t70 270.5q0 167 -72 259.5t-201 92.5q-128 0 -199 -92t-71 -260zM756 131q109 -39 162 -97t53 -138q0 -137 -134.5 -218t-363.5 -81q-196 0 -303 47.5t-107 134.5q0 49 34 87t77 38q14 0 23.5 -11t9.5 -28 q0 -9 -5 -23.5t-5 -19.5q0 -46 72.5 -71t205.5 -25q160 0 247 43.5t87 124.5q0 55 -39.5 96t-128.5 78q-60 -12 -100.5 -17.5t-67.5 -5.5q-188 0 -307 129t-119 334q0 207 122 336t318 129q55 0 143 -11.5t124 -11.5q8 0 57.5 2t89.5 2q49 0 74.5 -16t25.5 -47 q0 -33 -30.5 -47.5t-104.5 -14.5q-2 0 -10 1q-28 1 -53 1q60 -58 92.5 -140.5t32.5 -176.5q0 -117 -43.5 -213.5t-128.5 -169.5z" />
<glyph unicode="h" horiz-adv-x="1133" d="M319 180q0 -40 2.5 -54t8.5 -22q5 -6 41.5 -25.5t36.5 -45.5q0 -18 -14 -25.5t-50 -7.5h-207q-36 0 -49.5 7.5t-13.5 25.5q0 26 44 49q17 9 25 14q11 8 15 22t4 62v1051q0 50 -4.5 73.5t-14.5 28.5q-12 8 -37 16q-43 14 -43 40q0 16 10.5 28.5t37.5 26.5q80 43 115 57.5 t55 14.5q21 0 29.5 -23t8.5 -86v-563q64 64 144.5 96.5t173.5 32.5q170 0 250 -108t80 -339v-346q0 -40 2 -54t8 -22q5 -6 41.5 -25.5t36.5 -45.5q0 -18 -14 -25.5t-50 -7.5h-207q-36 0 -49.5 7.5t-13.5 25.5q0 26 44 49q17 9 25 14q11 8 15 22t4 62v348q0 167 -56.5 244.5 t-177.5 77.5q-50 0 -99 -17.5t-89 -50.5q-37 -30 -52.5 -62.5t-15.5 -107.5v-12v-420z" />
<glyph unicode="i" horiz-adv-x="498" d="M121 1266q0 46 32.5 75t84.5 29q51 0 82.5 -29t31.5 -75q0 -48 -32 -76.5t-84 -28.5q-53 0 -84 28.5t-31 76.5zM176 721q0 36 -7.5 50t-29.5 28q-9 6 -27 15q-36 18 -36 38q0 15 10.5 27t36.5 26l14 8q122 64 162 64q21 0 29 -19t8 -88v-702q0 -26 6 -43t18 -23 q14 -6 34 -14q52 -21 52 -49q0 -22 -17 -30.5t-64 -8.5h-215q-43 0 -58.5 8.5t-15.5 28.5q0 15 8 26t29 21q8 4 22 10q41 17 41 70v557z" />
<glyph unicode="j" horiz-adv-x="485" d="M102 1266q0 46 32.5 75t84.5 29t83.5 -29t31.5 -75q0 -48 -31.5 -77.5t-83.5 -29.5t-84.5 29.5t-32.5 77.5zM338 104q0 -235 -78 -363t-221 -128q-64 0 -102.5 29t-38.5 75q0 38 23.5 59t64.5 21q27 0 46 -19t19 -46q0 -11 -5 -23.5t-5 -15.5q0 -5 4 -8.5t10 -3.5 q64 0 94.5 98t30.5 301v620q0 45 -8.5 63.5t-29.5 28.5q-15 8 -45 15q-50 12 -50 41q0 17 15 31t57 34q78 37 113 49.5t57 12.5q24 0 36.5 -20t12.5 -60v-791z" />
<glyph unicode="k" horiz-adv-x="987" d="M307 180q0 -40 2.5 -54t7.5 -21q5 -6 41.5 -26t36.5 -46q0 -18 -13.5 -25.5t-49.5 -7.5h-207q-36 0 -50 7.5t-14 25.5q0 26 45 49q16 9 26 15q9 6 13.5 20.5t4.5 62.5v1049q0 49 -8 68t-27 30q-14 8 -42 17q-46 16 -46 45q0 17 13.5 31.5t49.5 33.5q54 28 98 43.5 t68 15.5q29 0 40 -18.5t11 -83.5v-51v-885q174 133 257 215t83 121q0 22 -28.5 51t-28.5 49t16 28.5t53 8.5h201q39 0 55.5 -8t16.5 -27q0 -16 -52 -59.5t-96 -89.5q-42 -45 -89.5 -90t-106.5 -96q91 -90 168 -193.5t141 -222.5q24 -44 61 -70.5t37 -44.5q0 -23 -17.5 -35 t-51.5 -12h-187q-38 0 -56.5 11.5t-18.5 35.5q0 20 34.5 43.5t34.5 40.5q0 40 -65 129t-189 217q-38 -31 -81 -61.5t-91 -61.5v-174z" />
<glyph unicode="l" horiz-adv-x="457" d="M145 1264q0 35 -7.5 49t-28.5 28q-9 6 -26 15q-36 18 -36 39q0 15 11 28.5t36 26.5l6 3q126 67 168 67q21 0 29 -18.5t8 -86.5v-1247q0 -26 7 -43.5t18 -22.5q10 -4 31 -12q57 -22 57 -51q0 -21 -17.5 -30t-64.5 -9h-215q-43 0 -59.5 8.5t-16.5 28.5q0 14 8.5 25t30.5 22 q8 4 21 9q40 16 40 71v1100z" />
<glyph unicode="m" horiz-adv-x="1698" d="M158 627v53q0 55 -5.5 78t-19.5 37q-10 10 -48 25.5t-38 37.5q0 11 16 28t46 38t60 35t40 14q29 0 50 -48t26 -126q61 84 144 129t175 45q97 0 175 -44t118 -120q74 84 152 124t170 40q146 0 229.5 -93t83.5 -257v-459q0 -32 5 -46.5t18 -21.5q11 -6 30 -14 q45 -19 45 -49q0 -19 -17 -26t-65 -7h-194q-35 0 -51.5 8.5t-16.5 26.5q0 23 30 40q6 3 9 5l14 7q39 19 39 83v467q0 99 -51.5 151t-148.5 52q-116 0 -187 -57.5t-71 -151.5v-467q0 -32 5 -46.5t17 -21.5q11 -6 31 -14q47 -19 47 -49q0 -19 -18 -26t-74 -7h-185 q-34 0 -50.5 8.5t-16.5 26.5q0 23 30 40q6 3 9 5q4 2 13 6q38 19 38 84v446q0 114 -48.5 169t-150.5 55q-109 0 -182.5 -65.5t-73.5 -162.5v-448q0 -32 5 -46t18 -22q10 -5 30 -13q46 -20 46 -50q0 -18 -16.5 -25.5t-59.5 -7.5h-207q-32 0 -45.5 7t-13.5 24q0 25 37 47l4 2 q3 2 7 4q42 24 42 86v457z" />
<glyph unicode="n" horiz-adv-x="1133" d="M174 170v457q0 97 -7 126.5t-26 43.5q-12 9 -46 22.5t-34 36.5q0 27 60.5 72t99.5 45q28 0 51 -41.5t41 -124.5q64 82 147.5 124t182.5 42q169 0 252.5 -110.5t83.5 -336.5v-362q0 -33 4 -47t15 -21q9 -6 26 -15q41 -22 41 -46q0 -19 -15.5 -27t-52.5 -8h-204 q-37 0 -52.5 7.5t-15.5 25.5q0 25 33 40l14 7q35 17 42 32t7 56v360q0 168 -56.5 245t-178.5 77q-116 0 -185 -67t-69 -181v-457q0 -21 3 -31.5t11 -17.5q9 -6 29 -16q39 -20 39 -43q0 -21 -15.5 -29t-58.5 -8h-190q-38 0 -52 7t-14 24q0 15 7 24.5t34 24.5q4 2 11 6 q38 21 38 84z" />
<glyph unicode="o" horiz-adv-x="1139" d="M242 471q0 -178 90 -285.5t237 -107.5t236.5 107.5t89.5 285.5q0 179 -89.5 287t-236.5 108q-146 0 -236.5 -109t-90.5 -286zM66 471q0 221 140.5 361.5t362.5 140.5q223 0 362.5 -140t139.5 -362q0 -221 -139.5 -360.5t-362.5 -139.5t-363 139.5t-140 360.5z" />
<glyph unicode="p" horiz-adv-x="1133" d="M317 -184q0 -40 6 -59t21 -29q13 -9 38 -21q52 -24 52 -57q0 -23 -18 -32t-64 -9h-227q-43 0 -58.5 7t-15.5 26q0 35 44 61l9 6t9 5q47 28 47 100v827q0 86 -9 112.5t-30 39.5q-17 10 -62 20.5t-45 40.5t60.5 74.5t111.5 44.5q45 0 71.5 -41.5t39.5 -130.5 q70 82 156.5 126t179.5 44q199 0 318.5 -136t119.5 -362q0 -231 -130 -367.5t-349 -136.5q-102 0 -167 28t-65 69q0 24 13.5 36.5t38.5 12.5q12 0 70 -18.5t106 -18.5q142 0 224.5 107.5t82.5 293.5q0 159 -83 259t-214 100q-111 0 -196 -62.5t-85 -146.5v-813z" />
<glyph unicode="q" horiz-adv-x="1122" d="M815 522q0 178 -70.5 265t-214.5 87q-142 0 -222.5 -109t-80.5 -304q0 -172 80 -271.5t217 -99.5q48 0 94 14t91 41q59 37 82.5 74t23.5 119v184zM971 -209q0 -34 5.5 -47.5t18.5 -26.5q5 -5 40.5 -21t35.5 -44q0 -24 -18.5 -33.5t-67.5 -9.5h-215q-44 0 -59 8.5 t-15 30.5q0 30 60 54q21 8 32 13q14 6 20.5 29.5t6.5 67.5v290q-71 -68 -155 -101.5t-185 -33.5q-193 0 -308.5 128t-115.5 343q0 239 133.5 388t345.5 149q72 0 141 -20t142 -62q40 38 72 58t55 20q18 0 24.5 -15.5t6.5 -70.5v-1094z" />
<glyph unicode="r" horiz-adv-x="678" d="M162 205v440q0 63 -9.5 89t-31.5 42q-16 13 -48 27q-46 21 -46 51q0 12 13 29.5t36 34.5q32 25 58.5 39t41.5 14q46 0 78.5 -74t38.5 -196q51 132 121 204t145 72q53 0 82 -39.5t29 -112.5q0 -23 -14.5 -38t-37.5 -15q-24 0 -65.5 20.5t-58.5 20.5q-66 0 -120.5 -112 t-54.5 -273v-219q0 -63 7.5 -82t26.5 -27q15 -6 47 -14q61 -16 61 -49q0 -20 -15.5 -28.5t-58.5 -8.5h-256q-42 0 -56 7.5t-14 27.5q0 26 45 48q24 12 35 19q12 8 16.5 24t4.5 54v25z" />
<glyph unicode="s" horiz-adv-x="784" d="M25 186q0 29 18.5 47.5t46.5 18.5q31 0 74 -54q13 -15 20 -24q41 -46 92 -69t115 -23q90 0 147.5 47t57.5 121q0 104 -236 161q-13 3 -21 5q-147 36 -210 97t-63 165q0 134 90 214.5t241 80.5q144 0 222.5 -41.5t78.5 -116.5q0 -55 -8 -73.5t-31 -18.5q-27 0 -64 44 q-15 17 -24 26q-38 39 -90 60t-112 21q-72 0 -120 -41.5t-48 -103.5q0 -52 31.5 -82t121.5 -55q29 -8 82 -21q131 -31 174 -59q62 -40 92.5 -94t30.5 -123q0 -145 -97.5 -234.5t-256.5 -89.5q-135 0 -244.5 72.5t-109.5 142.5z" />
<glyph unicode="t" horiz-adv-x="563" d="M172 129v702h-63q-53 0 -73 13t-20 45q0 23 13.5 37.5t35.5 17.5q9 1 23 2q64 5 82 25q22 23 39 165q5 41 8 64q2 12 4 32q12 101 66 101q24 0 32.5 -15.5t8.5 -88.5v-281h143q52 0 73 -13.5t21 -45.5q0 -30 -22.5 -44t-71.5 -14h-143v-595q0 -60 9.5 -86.5t33.5 -34.5 q29 -11 110.5 -15.5t81.5 -42.5q0 -33 -18.5 -45t-93.5 -12h-191q-54 0 -71 19t-17 110z" />
<glyph unicode="u" horiz-adv-x="1133" d="M944 874v-557q0 -71 3 -115.5t7 -53.5q11 -23 26 -37t50 -27q5 -2 13 -5q36 -14 36 -40q0 -28 -34.5 -38.5t-143.5 -10.5q-56 0 -78 25t-22 89q0 5 1 17t1 18q-63 -84 -143.5 -125t-184.5 -41q-176 0 -256 105.5t-80 341.5v315q0 49 -11.5 67t-45.5 40q-1 0 -2 1 q-41 24 -41 48q0 29 61 55.5t136 26.5q33 0 47 -24t14 -85v-448q0 -166 57 -244t178 -78q117 0 185.5 66t68.5 180v410q0 32 -7 47.5t-23 25.5q-6 4 -18 11q-44 25 -44 49q0 32 61 61t128 29q33 0 47 -22t14 -77z" />
<glyph unicode="v" horiz-adv-x="1018" d="M59 948h193q58 0 77 -8t19 -29q0 -11 -5 -20t-14 -15q-2 -1 -9 -5q-70 -43 -70 -85q0 -61 39 -179.5t108 -262.5q35 -72 65.5 -119t59.5 -71q31 31 62 79t63 115q67 138 107.5 264.5t40.5 182.5q0 28 -42 59l-15 12q-22 17 -26.5 26t-4.5 23q0 18 15 25.5t54 7.5h146 q41 0 59 -8.5t18 -28.5q0 -23 -25.5 -46t-29.5 -32q-12 -23 -37.5 -118t-48.5 -160q-89 -254 -192 -419t-166 -165q-51 0 -139 133.5t-175 346.5q-44 109 -81 236t-46 143q-7 11 -38 31t-31 44q0 23 16 33t53 10z" />
<glyph unicode="w" horiz-adv-x="1466" d="M721 506q-107 -269 -185.5 -402t-129.5 -133q-26 0 -45.5 16t-47.5 62q-67 115 -123.5 262t-93.5 301q-15 66 -26 137t-15 79q-6 12 -32.5 38.5t-26.5 53.5q0 16 15.5 22t70.5 6h154q40 0 54.5 -7.5t14.5 -27.5q0 -21 -30 -39q-12 -7 -19 -12q-24 -17 -31.5 -30t-7.5 -35 q0 -106 59 -285.5t158 -357.5q108 163 171 334.5t63 293.5q0 24 -5 39t-16 27q-8 9 -27 22q-32 23 -32 45q0 19 16.5 26t61.5 7h141q45 0 62.5 -7.5t17.5 -25.5q0 -25 -27 -40q-5 -3 -9 -5q-30 -19 -37 -33.5t-7 -43.5q0 -93 64.5 -273.5t170.5 -361.5q103 171 163.5 341.5 t60.5 278.5q0 25 -5 41.5t-15 27.5q-9 10 -38.5 26.5t-29.5 41.5q0 19 17 26t71 7h84q52 0 68 -8t16 -31q0 -17 -18 -42t-21 -35q-5 -17 -17 -75q-41 -212 -104 -380q-67 -177 -139.5 -291.5t-114.5 -114.5q-54 0 -131 138t-168 397z" />
<glyph unicode="x" horiz-adv-x="1018" d="M414 475q-91 100 -184.5 225.5t-110.5 141.5q-13 12 -52.5 31.5t-39.5 41.5q0 19 14 26t59 7h199q47 0 62.5 -7t15.5 -26q0 -12 -26.5 -35t-26.5 -42q0 -28 50.5 -96t141.5 -160q82 82 133 154t51 102q0 17 -30.5 39t-30.5 38q0 19 16.5 26t67.5 7h141q41 0 54.5 -6 t13.5 -22q0 -22 -35 -39.5t-49 -32.5q-10 -10 -91.5 -126t-170.5 -210q97 -105 205.5 -239t132.5 -154q13 -12 53.5 -34t40.5 -46q0 -22 -17.5 -30.5t-66.5 -8.5h-209q-35 0 -51.5 10.5t-16.5 32.5q0 18 24 40.5t24 35.5q0 35 -59 108t-169 174q-90 -101 -137 -168.5 t-47 -97.5q0 -27 37 -49t37 -45q0 -22 -18.5 -31.5t-59.5 -9.5h-209q-30 0 -43.5 10t-13.5 31q0 29 53 52t69 42q11 13 44 59q114 160 225 281z" />
<glyph unicode="y" horiz-adv-x="1018" d="M580 84q-28 -15 -55.5 -23t-55.5 -8q-132 0 -222 134t-143 409q-10 57 -18 137.5t-16 97.5q-10 19 -40 41.5t-30 45.5q0 17 18 23.5t74 6.5h135q69 0 87 -8t18 -31q0 -24 -31 -41q-7 -4 -10 -6q-33 -20 -43 -42t-10 -81q0 -63 19 -151t56 -191q43 -119 95.5 -175 t121.5 -56q62 0 101.5 38.5t81.5 147.5q38 100 61 213t23 201q0 30 -7 50t-22 32q-12 9 -35 20q-39 18 -39 43q0 21 16.5 29t69.5 8h109q54 0 74 -10t20 -35q0 -11 -19.5 -36t-27.5 -48q-10 -27 -31.5 -162.5t-52.5 -238.5q-108 -362 -305.5 -586.5t-392.5 -224.5 q-54 0 -84.5 23t-30.5 63q0 32 24 50.5t66 18.5q12 0 39 -5t43 -5q96 0 197.5 90.5t171.5 241.5z" />
<glyph unicode="z" horiz-adv-x="784" d="M123 0q-71 0 -97 12t-26 41q0 63 107 200l8 9l104 130q295 369 342 454h-244q-59 0 -87.5 -6t-43.5 -21q-17 -16 -41 -49q-34 -49 -63 -49q-16 0 -22.5 11t-6.5 40q0 98 30.5 137t111.5 39h423q71 0 96 -15.5t25 -53.5q0 -60 -198 -310q-60 -77 -95 -120 q-44 -58 -116 -148q-121 -152 -121 -172q0 -16 10.5 -22.5t40.5 -6.5h33l140 7q78 3 127 17.5t66 38.5q7 10 16 24q43 65 69 65q19 0 26.5 -10t7.5 -35q0 -51 -12.5 -106.5t-23.5 -71.5q-12 -16 -31.5 -22.5t-79.5 -6.5h-475z" />
<glyph unicode="{" d="M846 1516v-51q-142 -2 -194 -55.5t-52 -209.5v-143q0 -226 -61 -308.5t-226 -113.5q165 -31 226 -113.5t61 -308.5v-143q0 -156 51.5 -208.5t194.5 -54.5v-51h-10q-217 0 -298 73.5t-81 272.5v213q0 158 -59 218t-222 73v60q165 15 223 74t58 216v213q0 200 81 273.5 t298 73.5h10z" />
<glyph unicode="|" d="M449 1565h126v-2048h-126v2048z" />
<glyph unicode="}" d="M178 1516h10q216 0 297.5 -74t81.5 -273v-213q0 -157 58 -216t223 -74v-60q-163 -13 -222 -73t-59 -218v-213q0 -198 -81.5 -272t-297.5 -74h-10v51q143 2 194.5 54.5t51.5 208.5v143q0 226 61 308.5t226 113.5q-165 31 -226 113.5t-61 308.5v143q0 156 -52 209.5 t-194 55.5v51z" />
<glyph unicode="~" horiz-adv-x="1706" d="M1530 758v-131q-101 -72 -197.5 -108t-189.5 -36q-43 0 -90.5 9t-100.5 26q-30 10 -87 31q-202 72 -302 72q-83 0 -173.5 -37.5t-211.5 -122.5v133q105 73 202 109t185 36q56 0 116.5 -12.5t174.5 -52.5q12 -4 35 -13q164 -59 254 -59q85 0 176 36.5t209 119.5z" />
<glyph unicode="&#xa1;" horiz-adv-x="561" d="M328 868l45 -700q0 -7 1 -21t1 -20q0 -84 -25.5 -123t-79.5 -39q-51 0 -76.5 32t-25.5 97q0 23 0.5 39t1.5 31l53 704q2 18 4 51q13 179 49 179q37 0 51 -220q0 -7 1 -10zM381 1397q0 -46 -32 -77.5t-79 -31.5q-46 0 -78 31.5t-32 77.5t32 78t78 32q45 0 78 -32.5 t33 -77.5z" />
<glyph unicode="&#xa2;" horiz-adv-x="1124" d="M637 -188q0 -28 -13.5 -43t-39.5 -15q-24 0 -39 16t-15 42v188q-200 20 -315 149.5t-115 335.5q0 211 114.5 349.5t315.5 171.5v208q0 28 14 43t40 15q23 0 38 -16t15 -42v-208q129 -15 211 -69t82 -122q0 -36 -26 -61t-62 -25q-27 0 -47.5 14t-53.5 62q-39 56 -76 76 t-92 20q-125 0 -208.5 -108t-83.5 -273q0 -183 86 -288t235 -105q43 0 83 11.5t85 37.5q41 24 80 67.5t53 43.5q20 0 33.5 -11t13.5 -26q0 -64 -94 -143.5t-219 -100.5v-194z" />
<glyph unicode="&#xa3;" horiz-adv-x="1124" d="M342 678h-219q-37 0 -51.5 11.5t-14.5 39.5q0 32 14 43.5t52 11.5h182q-29 78 -44 151t-15 138q0 193 123 313.5t321 120.5q178 0 295 -96.5t117 -236.5q0 -59 -26.5 -94.5t-69.5 -35.5q-34 0 -54 28t-20 75q0 11 2 30.5t2 26.5q0 91 -70 149t-182 58q-122 0 -193 -78 t-71 -213q0 -56 17.5 -132t60.5 -204h276q38 0 52 -10.5t14 -38.5q0 -32 -14.5 -44.5t-51.5 -12.5h-243q7 -32 10.5 -65.5t3.5 -67.5q0 -104 -44 -197t-130 -172q53 20 95.5 29.5t78.5 9.5q84 0 230.5 -44t209.5 -44q27 0 52 9.5t59 35.5q9 8 23 22q21 21 30 21 q15 0 26 -8.5t11 -20.5q0 -16 -16.5 -45t-45.5 -61q-43 -50 -109 -77.5t-143 -27.5q-23 0 -55 4.5t-86 16.5q-26 6 -84 27q-151 53 -252 53q-36 0 -73.5 -7.5t-71.5 -21.5q-31 -12 -78 -35q-61 -28 -78 -28q-19 0 -35 13.5t-16 29.5t71 61.5t119 91.5q75 72 110.5 145 t35.5 156q0 47 -9 95.5t-28 101.5z" />
<glyph unicode="&#xa4;" horiz-adv-x="1241" d="M623 1200q-130 0 -222 -92t-92 -221q0 -131 91.5 -223.5t222.5 -92.5q129 0 221 93t92 223q0 129 -91.5 221t-221.5 92zM158 1419l207 -207q60 46 122.5 68.5t133.5 22.5t135.5 -22.5t124.5 -68.5l204 207l72 -73l-205 -205q43 -57 64.5 -121t21.5 -135t-21.5 -135.5 t-64.5 -120.5l205 -205l-72 -74l-204 207q-57 -44 -121.5 -66t-138.5 -22t-136.5 21.5t-119.5 66.5l-207 -207l-72 74l207 205q-44 58 -66 122t-22 134q0 69 22 133.5t66 122.5l-207 205z" />
<glyph unicode="&#xa5;" horiz-adv-x="1346" d="M756 233q0 -43 4.5 -64t15.5 -36q9 -12 53.5 -35t44.5 -51q0 -25 -19 -36t-67 -11h-233q-47 0 -66.5 11t-19.5 36q0 28 48 52q23 12 36 20q19 12 27 37t8 77v318q0 14 -3 29t-10 30h-483q-26 0 -35.5 8t-9.5 31t10 32t35 9h432q-40 51 -75.5 98t-69.5 95h-287 q-26 0 -35.5 9t-9.5 32q0 22 9.5 30.5t35.5 8.5h232q-67 102 -146.5 233t-95.5 149q-13 15 -63 39.5t-50 59.5q0 21 19 31t59 10h244q53 0 73.5 -9t20.5 -30q0 -37 -50 -62l-16 -8q-11 -6 -18.5 -19t-7.5 -28q0 -33 115.5 -208t289.5 -398q191 246 281 393.5t90 212.5 q0 27 -45 54q-8 5 -13 8q-3 2 -12 7q-34 20 -34 46q0 19 16.5 30t46.5 11h203q70 0 89 -8t19 -29q0 -23 -29 -44.5t-40 -35.5q-13 -15 -100.5 -152t-168.5 -253h248q26 0 36.5 -9.5t10.5 -29.5q0 -22 -10.5 -31.5t-36.5 -9.5h-303q-26 -41 -59 -88t-76 -105h438 q25 0 36 -9.5t11 -31.5q0 -21 -10 -30t-37 -9h-493v-377z" />
<glyph unicode="&#xa6;" d="M449 408h126v-758h-126v758zM449 1432h126v-758h-126v758z" />
<glyph unicode="&#xa7;" horiz-adv-x="1006" d="M242 762q0 -37 21.5 -76.5t72.5 -93.5q85 -92 150 -136t114 -44q69 0 115.5 43.5t46.5 107.5q0 44 -27 90t-96 115q-83 81 -136 114t-97 33q-71 0 -117.5 -43.5t-46.5 -109.5zM584 367q100 -78 149 -152.5t49 -148.5q0 -108 -88 -179t-223 -71q-123 0 -205 58.5 t-82 143.5q0 53 28.5 84t76.5 31q38 0 64 -25.5t26 -62.5q0 -36 -32 -71t-32 -44q0 -30 43 -50.5t111 -20.5q84 0 136 44t52 113q0 54 -38.5 109.5t-135.5 138.5l-182 156q-88 76 -131 146t-43 139q0 109 76.5 181t195.5 72h19q-105 88 -149 156.5t-44 140.5q0 110 81.5 184 t203.5 74q118 0 196 -60t78 -148q0 -50 -27.5 -79.5t-74.5 -29.5q-40 0 -66 23t-26 57q0 31 32.5 69.5t32.5 53.5q0 26 -41.5 47.5t-97.5 21.5q-75 0 -122.5 -43.5t-47.5 -111.5q0 -54 38.5 -110t143.5 -146l177 -152q89 -75 131.5 -146t42.5 -145q0 -108 -77 -177.5 t-196 -69.5h-22z" />
<glyph unicode="&#xa8;" d="M588 1237q0 40 30 70t70 30t69 -30t29 -70q0 -42 -28 -70t-70 -28t-71 28t-29 70zM238 1237q0 40 29 70t69 30t70 -30t30 -70q0 -42 -29 -70t-71 -28t-70 28t-28 70z" />
<glyph unicode="&#xa9;" horiz-adv-x="1683" d="M1120 1096h35l2 -314h-41q-34 137 -104 206t-176 69q-123 0 -185.5 -94.5t-62.5 -278.5q0 -189 67 -285t199 -96q86 0 156 43t127 131l34 -24q-58 -105 -143 -157t-199 -52q-167 0 -285 123t-118 297q0 186 116 312t285 126q74 0 148 -34t82 -34q27 0 42 14.5t21 47.5z M844 1303q-123 0 -237.5 -48.5t-200.5 -136.5q-88 -89 -134.5 -202.5t-46.5 -237.5q0 -125 47 -238.5t136 -201.5q88 -89 198.5 -135t235.5 -46q126 0 236.5 46t197.5 135q88 90 135 203t47 237t-47.5 240.5t-132.5 201.5q-86 87 -200.5 135t-233.5 48zM844 1382 q137 0 266.5 -53.5t226.5 -150.5q98 -97 152.5 -228.5t54.5 -271.5t-53 -268t-154 -230q-98 -100 -225 -152.5t-270 -52.5t-269 52.5t-227 152.5t-154 227t-53 271q0 140 53 268.5t152 229.5q98 99 228 152.5t272 53.5z" />
<glyph unicode="&#xaa;" horiz-adv-x="791" d="M573 926q-48 -65 -120.5 -98t-165.5 -33q-112 0 -178 55.5t-66 148.5q0 129 121.5 198t349.5 69h35q-10 74 -68 115.5t-151 41.5q-56 0 -117 -33.5t-80 -33.5q-20 0 -34.5 11t-14.5 28q0 44 70 73t182 29q185 0 267.5 -80.5t82.5 -265.5v-213q0 -27 26 -47q1 -1 3 -2 q7 -5 21 -11q34 -14 34 -34t-22.5 -27.5t-122.5 -7.5q-30 0 -41 10t-11 37v70zM563 1200h-18q-177 0 -273 -51.5t-96 -144.5q0 -57 42.5 -93.5t109.5 -36.5q35 0 71 9.5t66 25.5q56 33 77 69t21 103v119z" />
<glyph unicode="&#xab;" horiz-adv-x="834" d="M727 225l12 -15q23 -29 23 -40q0 -17 -13 -25t-40 -8q-31 0 -52 11.5t-47 44.5l-188 231q-11 15 -16 26t-5 21q0 13 5.5 25t15.5 24l188 232q27 33 47.5 43t61.5 10q21 0 32 -7.5t11 -23.5q0 -11 -23 -40l-12 -15l-168 -209q-10 -13 -15 -22t-5 -15t4 -14.5t16 -24.5z M389 225q5 -6 12 -15q23 -29 23 -40q0 -17 -13 -25t-40 -8q-30 0 -50 11t-47 45l-190 231q-11 15 -16 26t-5 21q0 13 5.5 25t15.5 24l190 232q28 33 47.5 43t59.5 10q21 0 32 -7.5t11 -23.5q0 -11 -23 -40l-12 -15l-166 -209q-12 -16 -17 -24.5t-5 -12.5q0 -9 18 -33 q3 -4 4 -6z" />
<glyph unicode="&#xac;" horiz-adv-x="1706" d="M254 858h1198v-502h-115v385h-1083v117z" />
<glyph unicode="&#xad;" horiz-adv-x="670" d="M86 428v88q0 15 7 21t32 6h422q26 0 31.5 -5.5t5.5 -21.5v-88q0 -16 -6 -21.5t-27 -5.5h-430q-21 0 -28 6t-7 21z" />
<glyph unicode="&#xae;" horiz-adv-x="1683" d="M729 719q16 -1 32 -1.5t34 -0.5q112 0 173.5 45.5t61.5 128.5q0 73 -53 117.5t-143 44.5q-52 0 -78.5 -18.5t-26.5 -53.5v-262zM469 1092h393q147 0 232.5 -54.5t85.5 -146.5q0 -76 -69.5 -124t-217.5 -75q93 -29 142 -77.5t71 -133.5q6 -22 11 -63q13 -88 59 -88 q32 0 49.5 34t17.5 99h43v-12q0 -88 -40.5 -133.5t-119.5 -45.5q-46 0 -78.5 17t-48.5 49q-18 40 -21 113.5t-9 95.5q-20 68 -70.5 100.5t-136.5 32.5h-33v-248q0 -54 26.5 -75.5t98.5 -25.5v-40h-385v40q72 3 99.5 24.5t27.5 76.5v516q0 55 -26 76t-101 25v43zM844 1303 q-122 0 -236 -48t-202 -137t-134.5 -202.5t-46.5 -237.5q0 -127 46.5 -239t136.5 -201q88 -89 198.5 -135t235.5 -46q126 0 236.5 46t197.5 135q88 90 135 203t47 237t-47.5 241.5t-132.5 200.5q-86 87 -200.5 135t-233.5 48zM844 1382q138 0 268.5 -54t228.5 -152 q97 -97 150 -228t53 -272q0 -137 -55.5 -267.5t-157.5 -232.5q-99 -99 -224.5 -150t-270.5 -51q-137 0 -263 52.5t-227 152.5t-154 227t-53 271q0 140 53 268.5t152 229.5q98 99 228 152.5t272 53.5z" />
<glyph unicode="&#xaf;" d="M258 1149v119h508v-119h-508z" />
<glyph unicode="&#xb0;" horiz-adv-x="674" d="M338 1372q-84 0 -143.5 -58.5t-59.5 -142.5t59.5 -143t143.5 -59t142.5 59t58.5 143t-58.5 142.5t-142.5 58.5zM338 1454q117 0 200 -83t83 -200q0 -116 -83.5 -199t-201.5 -83t-199.5 82t-81.5 200q0 119 82.5 201t200.5 82z" />
<glyph unicode="&#xb1;" horiz-adv-x="1706" d="M254 158h1198v-117h-1198v117zM795 1180h118v-344h539v-117h-539v-344h-118v344h-541v117h541v344z" />
<glyph unicode="&#xb2;" horiz-adv-x="741" d="M567 592h-493q-35 0 -45.5 5.5t-10.5 20.5q0 29 52.5 104t138.5 163q70 71 162 148.5t104 92.5q37 50 52.5 88t15.5 76q0 68 -49.5 107t-135.5 39q-79 0 -135.5 -40.5t-56.5 -95.5q0 -17 18.5 -45t18.5 -41q0 -19 -17.5 -32t-44.5 -13q-41 0 -64.5 26.5t-23.5 74.5 q0 93 94 161t228 68q133 0 213 -61t80 -162q0 -79 -45.5 -144.5t-180.5 -164.5q-130 -98 -193.5 -161t-92.5 -120h288q48 0 74 7.5t45 25.5q8 7 21 21q33 34 55 34q14 0 20.5 -6.5t6.5 -22.5q0 -11 -8.5 -42.5t-22.5 -67.5q-9 -27 -21.5 -35t-46.5 -8z" />
<glyph unicode="&#xb3;" horiz-adv-x="741" d="M412 1075q129 -21 195.5 -79t66.5 -148q0 -128 -99 -202.5t-270 -74.5q-128 0 -209.5 53.5t-81.5 133.5q0 33 17.5 54.5t44.5 21.5q16 -1 27.5 -7.5t21.5 -21.5q2 -4 3.5 -30.5t6.5 -45.5q12 -44 60.5 -72t115.5 -28q109 0 170.5 56t61.5 155q0 96 -60 146t-176 50h-45 q-21 0 -33 7.5t-12 21.5q0 26 61 32q51 5 87 13q70 17 107.5 61.5t37.5 112.5q0 71 -48 113.5t-130 42.5q-61 0 -104.5 -31t-43.5 -70q0 -7 4.5 -22t4.5 -21q0 -20 -15 -32.5t-41 -12.5q-32 0 -49.5 18t-17.5 50q0 69 82.5 123.5t195.5 54.5q129 0 208 -60t79 -157 q0 -75 -59 -129.5t-164 -75.5z" />
<glyph unicode="&#xb4;" d="M336 1083l289 299q35 36 55.5 48t40.5 12q33 0 53.5 -20t20.5 -52q0 -21 -15.5 -41.5t-46.5 -40.5l-330 -205h-67z" />
<glyph unicode="&#xb5;" horiz-adv-x="1120" d="M164 193q-27 -136 -52 -339q-34 -272 -112 -272q-37 0 -58.5 23.5t-21.5 64.5q0 40 64.5 273.5t105.5 427.5l109 514h147l-104 -492q-6 -30 -9.5 -58.5t-3.5 -53.5q0 -83 42 -129t118 -46q98 0 163.5 68.5t94.5 200.5l111 510h149l-114 -531q-13 -59 -17 -87.5t-4 -49.5 q0 -48 26 -78t66 -30q35 0 65.5 18t51.5 51t41 93.5t39 60.5q12 0 19 -10t7 -27q0 -25 -11 -66.5t-29 -83.5q-38 -82 -95 -122.5t-135 -40.5q-68 0 -108.5 51t-40.5 139v23q-46 -110 -116 -164t-165 -54q-96 0 -152.5 54.5t-70.5 161.5z" />
<glyph unicode="&#xb6;" d="M948 1479v-78h-125v-1401h-94v1401h-182v-1401h-96v782q-173 8 -274 102.5t-101 245.5q0 157 107.5 253t285.5 96h479z" />
<glyph unicode="&#xb7;" horiz-adv-x="561" d="M172 774q0 47 31.5 79t77.5 32t78 -32.5t32 -78.5t-32 -77t-78 -31q-47 0 -78 31t-31 77z" />
<glyph unicode="&#xb8;" d="M274 -371l35 78q61 -34 119.5 -53t103.5 -19q64 0 92.5 22t28.5 71q0 42 -29.5 66t-82.5 24q-14 0 -29 -1.5t-33 -4.5v188h64v-112q16 2 31.5 3.5t29.5 2.5q87 0 134.5 -43.5t47.5 -120.5q0 -82 -58 -129t-161 -47q-54 0 -121.5 17t-171.5 58z" />
<glyph unicode="&#xb9;" horiz-adv-x="741" d="M334 791v466q0 59 -16.5 75t-69.5 16q-40 0 -83 -4q-9 -1 -11 -1q-16 0 -26.5 9t-10.5 22q0 8 4.5 14t12.5 9q13 4 61.5 10t80.5 16q49 14 97.5 43t54.5 29q11 0 15.5 -8t5.5 -35v-10v-656q0 -62 6.5 -83.5t23.5 -28.5q26 -13 68 -18q13 -2 19 -3q34 -4 43 -10.5t9 -21.5 q0 -17 -14 -23t-57 -6h-340q-39 0 -50.5 5.5t-11.5 18.5q0 11 6 19.5t13 9.5q17 7 53.5 11t51.5 8q38 12 51.5 37t13.5 90z" />
<glyph unicode="&#xba;" horiz-adv-x="854" d="M182 1145q0 -125 67.5 -200t178.5 -75q110 0 177 75t67 200t-67 200.5t-177 75.5t-178 -75.5t-68 -200.5zM49 1145q0 155 106 253.5t273 98.5q166 0 270.5 -98.5t104.5 -253.5t-104.5 -252.5t-270.5 -97.5q-168 0 -273.5 97.5t-105.5 252.5z" />
<glyph unicode="&#xbb;" horiz-adv-x="834" d="M445 716q-5 6 -12 15q-23 30 -23 41q0 16 12 23.5t41 7.5q31 0 51 -11t45 -42l191 -234q12 -16 16 -25.5t4 -19.5q0 -13 -5 -25t-15 -24l-191 -232q-28 -33 -47 -43t-59 -10q-22 0 -32.5 8t-10.5 23q0 11 23 41q7 9 12 15l165 208q12 16 17.5 24.5t5.5 12.5q0 9 -19 34 l-3 4zM111 716q-5 7 -12 16q-23 29 -23 40q0 16 12 23.5t41 7.5q31 0 51 -11t45 -42l191 -234q12 -16 16 -25.5t4 -19.5q0 -13 -5 -25t-15 -24l-191 -232q-27 -33 -46.5 -43t-59.5 -10q-22 0 -32.5 8t-10.5 23q0 11 23 40q7 9 12 16l165 208q13 16 18 24.5t5 12.5 q0 9 -18 33q-3 4 -4 5z" />
<glyph unicode="&#xbc;" horiz-adv-x="1757" d="M1479 295v444q-106 -84 -187.5 -197t-134.5 -247h322zM1434 0q-25 0 -35 4t-10 14q0 20 37 33q16 5 23 8q16 6 23 19t7 35v108h-363q-29 0 -41 8.5t-12 28.5q0 16 13.5 51.5t39.5 87.5q32 67 80 136.5t115 146.5q76 83 132.5 124.5t96.5 41.5q23 0 32 -12t9 -46v-493h113 q33 0 43 -8t10 -29t-11 -29t-42 -8h-113v-110q0 -14 2.5 -24t7.5 -17q4 -4 17.5 -8.5t22.5 -8.5q19 -7 25.5 -14t6.5 -19q0 -11 -11 -15.5t-38 -4.5h-180zM1268 1460q15 26 29 36.5t32 10.5t27.5 -7.5t9.5 -20.5q0 -6 -4 -16.5t-10 -20.5l-865 -1424q-16 -27 -29 -37 t-30 -10t-28 8t-11 21q0 6 4 16t10 21zM319 836v438q0 53 -16 67.5t-67 14.5q-37 0 -77 -2h-12q-16 0 -26 7.5t-10 20.5q0 7 4.5 12.5t11.5 8.5q14 4 61 10t77 15q45 12 91 39.5t52 27.5q10 0 14 -6.5t4 -34.5v-10v-610q0 -55 7 -77t24 -30q23 -10 64 -16q12 -1 17 -2 q35 -4 43.5 -10.5t8.5 -20.5q0 -15 -14 -21t-54 -6h-325q-36 0 -47 5.5t-11 17.5q0 9 4.5 17t11.5 11q18 6 52 9.5t49 7.5q37 11 50 34t13 83z" />
<glyph unicode="&#xbd;" horiz-adv-x="1757" d="M1591 0h-471q-33 0 -43 5.5t-10 19.5q0 27 51 96.5t133 150.5q66 68 153.5 140.5t98.5 86.5q36 45 51 80.5t15 73.5q0 63 -47.5 99t-128.5 36q-76 0 -130.5 -38t-54.5 -88q0 -17 18.5 -43t18.5 -37q0 -19 -16.5 -31t-42.5 -12q-40 0 -62 24.5t-22 69.5q0 87 89.5 150 t217.5 63t203.5 -56.5t75.5 -150.5q0 -73 -43 -134t-172 -155q-123 -90 -184 -149t-91 -113h277q43 0 69 7t45 24q7 6 18 18q33 33 54 33q14 0 20.5 -6.5t6.5 -20.5q0 -11 -8.5 -39.5t-22.5 -62.5q-9 -25 -21 -33t-45 -8zM1268 1460q15 26 29 36.5t32 10.5t27.5 -7.5 t9.5 -20.5q0 -6 -4 -16.5t-10 -20.5l-865 -1424q-16 -27 -29 -37t-30 -10t-28 8t-11 21q0 6 4 16t10 21zM319 836v438q0 53 -16 67.5t-67 14.5q-37 0 -77 -2h-12q-16 0 -26 7.5t-10 20.5q0 7 4.5 12.5t11.5 8.5q14 4 61 10t77 15q45 12 91 39.5t52 27.5q10 0 14 -6.5 t4 -34.5v-10v-610q0 -55 7 -77t24 -30q23 -10 64 -16q12 -1 17 -2q35 -4 43.5 -10.5t8.5 -20.5q0 -15 -14 -21t-54 -6h-325q-36 0 -47 5.5t-11 17.5q0 9 4.5 17t11.5 11q18 6 52 9.5t49 7.5q37 11 50 34t13 83z" />
<glyph unicode="&#xbe;" horiz-adv-x="1759" d="M1479 295v444q-106 -84 -187.5 -197t-134.5 -247h322zM1434 0q-25 0 -35 4t-10 14q0 20 37 33q16 5 23 8q16 6 23 19t7 35v108h-363q-29 0 -41 8.5t-12 28.5q0 16 13.5 51.5t39.5 87.5q32 67 80 136.5t115 146.5q76 83 132.5 124.5t96.5 41.5q23 0 32 -12t9 -46v-493h113 q33 0 43 -8t10 -29t-11 -29t-42 -8h-113v-110q0 -14 2.5 -24t7.5 -17q4 -4 17.5 -8.5t22.5 -8.5q19 -7 25.5 -14t6.5 -19q0 -11 -11 -15.5t-38 -4.5h-180zM1268 1460q15 26 29 36.5t32 10.5t27.5 -7.5t9.5 -20.5q0 -6 -4 -16.5t-10 -20.5l-865 -1424q-16 -27 -29 -37 t-30 -10t-28 8t-11 21q0 6 4 16t10 21zM393 1104q124 -22 187 -75.5t63 -137.5q0 -120 -94 -189t-258 -69q-121 0 -199 49.5t-78 124.5q0 30 16.5 50t41.5 20q14 0 25 -6.5t22 -20.5q2 -4 4 -28.5t6 -41.5q12 -42 57.5 -68t110.5 -26q103 0 162 52.5t59 144.5 q0 89 -57.5 136.5t-167.5 47.5q-3 0 -17 -1t-26 -1q-21 0 -32 7.5t-11 21.5q0 23 58 29q49 4 83 12q68 15 103.5 57t35.5 106q0 66 -45.5 105t-124.5 39q-58 0 -99.5 -28.5t-41.5 -63.5q0 -8 4 -21.5t4 -19.5q0 -19 -14.5 -30t-38.5 -11q-30 0 -46.5 16t-16.5 45 q0 66 78.5 117t187.5 51q122 0 197 -56t75 -147q0 -70 -56 -120.5t-157 -69.5z" />
<glyph unicode="&#xbf;" horiz-adv-x="905" d="M590 1020v-201q0 -48 -67 -79q-37 -17 -60 -29q-150 -83 -203 -161t-53 -198q0 -142 71 -221.5t197 -79.5q76 0 125 35t49 88q0 14 -5 35.5t-5 30.5q0 43 26.5 68.5t71.5 25.5q41 0 66.5 -25.5t25.5 -64.5q0 -111 -111.5 -192t-275.5 -81q-176 0 -282.5 110t-106.5 292 q0 112 42.5 206t121.5 156q67 54 189 101q28 11 40 16q28 11 37.5 27.5t12.5 54.5q1 27 3 73q3 107 46 107q26 0 35.5 -17.5t9.5 -76.5zM639 1403q0 -46 -32.5 -78.5t-78.5 -32.5t-78 32.5t-32 78.5t32 77t78 31q47 0 79 -31t32 -77z" />
<glyph unicode="&#xc0;" horiz-adv-x="1350" d="M371 633h544q-52 154 -119.5 312.5t-150.5 324.5q-80 -153 -148 -312t-126 -325zM330 514q-45 -124 -68.5 -212.5t-23.5 -129.5q0 -19 9.5 -34t28.5 -27q10 -7 30 -17q38 -19 38 -51q0 -22 -22 -32.5t-70 -10.5h-178q-52 0 -73 10.5t-21 34.5q0 20 26.5 37.5t32.5 26.5 q14 23 96 258.5t164 441.5q131 327 228.5 514.5t134.5 187.5q50 0 171.5 -231.5t260.5 -599.5q55 -149 112 -332.5t72 -208.5q8 -14 45 -42.5t37 -57.5q0 -22 -23 -30.5t-90 -8.5h-186q-53 0 -73.5 10.5t-20.5 36.5q0 35 57 65q17 9 27 15q8 5 12 17t4 30q0 30 -27 115.5 t-79 224.5h-631zM852 1624h-67l-330 205q-31 20 -46.5 40.5t-15.5 41.5q0 32 20.5 52t53.5 20q20 0 40.5 -12t55.5 -48z" />
<glyph unicode="&#xc1;" horiz-adv-x="1350" d="M371 633h544q-52 154 -119.5 312.5t-150.5 324.5q-80 -153 -148 -312t-126 -325zM330 514q-45 -124 -68.5 -212.5t-23.5 -129.5q0 -19 9.5 -34t28.5 -27q10 -7 30 -17q38 -19 38 -51q0 -22 -22 -32.5t-70 -10.5h-178q-52 0 -73 10.5t-21 34.5q0 20 26.5 37.5t32.5 26.5 q14 23 96 258.5t164 441.5q131 327 228.5 514.5t134.5 187.5q50 0 171.5 -231.5t260.5 -599.5q55 -149 112 -332.5t72 -208.5q8 -14 45 -42.5t37 -57.5q0 -22 -23 -30.5t-90 -8.5h-186q-53 0 -73.5 10.5t-20.5 36.5q0 35 57 65q17 9 27 15q8 5 12 17t4 30q0 30 -27 115.5 t-79 224.5h-631zM500 1624l289 299q35 36 55.5 48t40.5 12q33 0 53.5 -20t20.5 -52q0 -21 -15.5 -41.5t-46.5 -40.5l-330 -205h-67z" />
<glyph unicode="&#xc2;" horiz-adv-x="1350" d="M371 633h544q-52 154 -119.5 312.5t-150.5 324.5q-80 -153 -148 -312t-126 -325zM330 514q-45 -124 -68.5 -212.5t-23.5 -129.5q0 -19 9.5 -34t28.5 -27q10 -7 30 -17q38 -19 38 -51q0 -22 -22 -32.5t-70 -10.5h-178q-52 0 -73 10.5t-21 34.5q0 20 26.5 37.5t32.5 26.5 q14 23 96 258.5t164 441.5q131 327 228.5 514.5t134.5 187.5q50 0 171.5 -231.5t260.5 -599.5q55 -149 112 -332.5t72 -208.5q8 -14 45 -42.5t37 -57.5q0 -22 -23 -30.5t-90 -8.5h-186q-53 0 -73.5 10.5t-20.5 36.5q0 35 57 65q17 9 27 15q8 5 12 17t4 30q0 30 -27 115.5 t-79 224.5h-631zM385 1624l232 349h118l232 -349h-58l-233 209l-233 -209h-58z" />
<glyph unicode="&#xc3;" horiz-adv-x="1350" d="M371 633h544q-52 154 -119.5 312.5t-150.5 324.5q-80 -153 -148 -312t-126 -325zM330 514q-45 -124 -68.5 -212.5t-23.5 -129.5q0 -19 9.5 -34t28.5 -27q10 -7 30 -17q38 -19 38 -51q0 -22 -22 -32.5t-70 -10.5h-178q-52 0 -73 10.5t-21 34.5q0 20 26.5 37.5t32.5 26.5 q14 23 96 258.5t164 441.5q131 327 228.5 514.5t134.5 187.5q50 0 171.5 -231.5t260.5 -599.5q55 -149 112 -332.5t72 -208.5q8 -14 45 -42.5t37 -57.5q0 -22 -23 -30.5t-90 -8.5h-186q-53 0 -73.5 10.5t-20.5 36.5q0 35 57 65q17 9 27 15q8 5 12 17t4 30q0 30 -27 115.5 t-79 224.5h-631zM963 1921q-20 -103 -68.5 -153.5t-126.5 -50.5q-15 0 -32.5 2t-41.5 8l-109 29q-12 3 -24 4.5t-24 1.5q-39 0 -60.5 -20t-36.5 -71h-51q19 106 68 158.5t129 52.5q17 0 32.5 -2t30.5 -6l110 -28q24 -6 36.5 -8.5t19.5 -2.5q36 0 58 20t36 66h54z" />
<glyph unicode="&#xc4;" horiz-adv-x="1350" d="M371 633h544q-52 154 -119.5 312.5t-150.5 324.5q-80 -153 -148 -312t-126 -325zM330 514q-45 -124 -68.5 -212.5t-23.5 -129.5q0 -19 9.5 -34t28.5 -27q10 -7 30 -17q38 -19 38 -51q0 -22 -22 -32.5t-70 -10.5h-178q-52 0 -73 10.5t-21 34.5q0 20 26.5 37.5t32.5 26.5 q14 23 96 258.5t164 441.5q131 327 228.5 514.5t134.5 187.5q50 0 171.5 -231.5t260.5 -599.5q55 -149 112 -332.5t72 -208.5q8 -14 45 -42.5t37 -57.5q0 -22 -23 -30.5t-90 -8.5h-186q-53 0 -73.5 10.5t-20.5 36.5q0 35 57 65q17 9 27 15q8 5 12 17t4 30q0 30 -27 115.5 t-79 224.5h-631zM752 1778q0 40 30 70t70 30t69 -30t29 -70q0 -42 -28 -70t-70 -28t-71 28t-29 70zM402 1778q0 40 29 70t69 30t70 -30t30 -70q0 -42 -29 -70t-71 -28t-70 28t-28 70z" />
<glyph unicode="&#xc5;" horiz-adv-x="1350" d="M520 1720q0 -63 43.5 -107t106.5 -44q62 0 105.5 44t43.5 107q0 62 -44 106t-105 44q-62 0 -106 -43.5t-44 -106.5zM371 633h544q-52 154 -119.5 312.5t-150.5 324.5q-80 -153 -148 -312t-126 -325zM330 514q-45 -124 -68.5 -212.5t-23.5 -129.5q0 -19 9.5 -34t28.5 -27 q10 -7 30 -17q38 -19 38 -51q0 -22 -22 -32.5t-70 -10.5h-178q-52 0 -73 10.5t-21 34.5t33 44q7 4 11 7q22 18 71 160q15 43 24 68q139 398 259 676t240 481q-86 19 -138 83.5t-52 151.5q0 101 71 171.5t173 70.5q101 0 171 -70t70 -172q0 -88 -52.5 -151t-145.5 -86 q142 -228 264.5 -514.5t265.5 -741.5q16 -48 24.5 -66t18.5 -30q8 -9 29 -24q43 -32 43 -64q0 -22 -23 -30.5t-90 -8.5h-186q-53 0 -73.5 10.5t-20.5 36.5q0 35 57 65q17 9 27 15q8 5 12 17t4 30q0 30 -27 115.5t-79 224.5h-631z" />
<glyph unicode="&#xc6;" horiz-adv-x="2021" d="M969 868v457q0 20 -3.5 25.5t-11.5 5.5q-26 0 -140.5 -144.5t-229.5 -343.5h385zM969 737h-441q-48 0 -148 -196q-13 -24 -20 -37q-56 -111 -93.5 -206t-37.5 -116q0 -15 9 -31t24 -26q12 -8 33 -20q51 -30 51 -60q0 -24 -21.5 -34.5t-70.5 -10.5h-195q-41 0 -61.5 12 t-20.5 37q0 27 34.5 55t41.5 37q13 16 104.5 222.5t194.5 390.5q131 233 268.5 420t243.5 280q16 14 36 19.5t67 5.5h805q71 0 90.5 -31t19.5 -158v-22q0 -28 -6 -35.5t-23 -7.5q-21 0 -56 40.5t-71 59.5q-42 22 -116.5 34.5t-165.5 12.5h-141q-85 0 -119.5 -27t-34.5 -92 v-385h405q20 0 35.5 1.5t18.5 2.5q32 8 57 35t43 27q17 0 25 -16t8 -50v-116q0 -39 -10.5 -56.5t-32.5 -17.5q-17 0 -38.5 21.5t-33.5 25.5q-16 6 -47 9t-74 3h-356v-514q0 -67 28 -90.5t113 -23.5h174q91 0 157 8t110 24q66 27 119 81t61 54q18 0 28.5 -14t10.5 -39 q0 -55 -11 -111.5t-24 -82.5q-9 -16 -29.5 -22.5t-62.5 -6.5h-885q-46 0 -65 10t-19 33q0 34 56 65q16 9 26 15q17 11 25 29.5t8 48.5v536z" />
<glyph unicode="&#xc7;" horiz-adv-x="1432" d="M782 -45q-325 0 -518.5 208t-193.5 558q0 172 50.5 312t151.5 249q107 116 246 173.5t311 57.5q150 0 285 -42t178 -93q17 -19 25 -84t8 -178q0 -31 -8 -42t-29 -11q-37 0 -60 56q-17 41 -34 67q-70 108 -169 163.5t-222 55.5q-232 0 -377 -185t-145 -485 q0 -299 145 -473t393 -174q100 0 185 29.5t172 95.5q36 28 85.5 86.5t71.5 58.5q20 0 35.5 -15.5t15.5 -35.5q0 -35 -34 -88.5t-88 -97.5q-103 -84 -221 -125t-259 -41zM528 -371l35 78q61 -34 119.5 -53t103.5 -19q64 0 92.5 22t28.5 71q0 42 -29.5 66t-82.5 24 q-14 0 -29 -1.5t-33 -4.5v188h64v-112q16 2 31.5 3.5t29.5 2.5q87 0 134.5 -43.5t47.5 -120.5q0 -82 -58 -129t-161 -47q-54 0 -121.5 17t-171.5 58z" />
<glyph unicode="&#xc8;" horiz-adv-x="1262" d="M152 0q-49 0 -67.5 10t-18.5 35q0 27 51 55q21 11 33 19q18 12 26 37t8 77v1014q0 44 -4.5 65t-15.5 35q-10 13 -54 36t-44 51q0 24 18.5 34.5t67.5 10.5h876q96 0 117.5 -33t21.5 -182q0 -23 -7 -33t-23 -10q-18 0 -55 37t-68 57q-44 28 -132 40.5t-247 12.5 q-108 0 -158.5 -7t-77.5 -24q-19 -11 -26.5 -36.5t-7.5 -112.5v-326h403q52 0 82.5 4t43.5 12q12 7 32 22q34 26 53 26q20 0 28.5 -13t8.5 -51v-112q0 -36 -8.5 -51t-28.5 -15q-19 0 -53 26q-20 15 -31 21q-14 9 -44.5 13t-82.5 4h-403v-443q0 -126 28.5 -157t130.5 -31h217 q108 0 183.5 13.5t130.5 43.5q36 19 78.5 64t62.5 45q21 0 30 -10.5t9 -34.5q0 -64 -13.5 -127t-23.5 -78q-15 -18 -49 -25.5t-115 -7.5h-882zM842 1624h-67l-330 205q-31 20 -46.5 40.5t-15.5 41.5q0 32 20.5 52t53.5 20q20 0 40.5 -12t55.5 -48z" />
<glyph unicode="&#xc9;" horiz-adv-x="1262" d="M152 0q-49 0 -67.5 10t-18.5 35q0 27 51 55q21 11 33 19q18 12 26 37t8 77v1014q0 44 -4.5 65t-15.5 35q-10 13 -54 36t-44 51q0 24 18.5 34.5t67.5 10.5h876q96 0 117.5 -33t21.5 -182q0 -23 -7 -33t-23 -10q-18 0 -55 37t-68 57q-44 28 -132 40.5t-247 12.5 q-108 0 -158.5 -7t-77.5 -24q-19 -11 -26.5 -36.5t-7.5 -112.5v-326h403q52 0 82.5 4t43.5 12q12 7 32 22q34 26 53 26q20 0 28.5 -13t8.5 -51v-112q0 -36 -8.5 -51t-28.5 -15q-19 0 -53 26q-20 15 -31 21q-14 9 -44.5 13t-82.5 4h-403v-443q0 -126 28.5 -157t130.5 -31h217 q108 0 183.5 13.5t130.5 43.5q36 19 78.5 64t62.5 45q21 0 30 -10.5t9 -34.5q0 -64 -13.5 -127t-23.5 -78q-15 -18 -49 -25.5t-115 -7.5h-882zM490 1624l289 299q35 36 55.5 48t40.5 12q33 0 53.5 -20t20.5 -52q0 -21 -15.5 -41.5t-46.5 -40.5l-330 -205h-67z" />
<glyph unicode="&#xca;" horiz-adv-x="1262" d="M152 0q-49 0 -67.5 10t-18.5 35q0 27 51 55q21 11 33 19q18 12 26 37t8 77v1014q0 44 -4.5 65t-15.5 35q-10 13 -54 36t-44 51q0 24 18.5 34.5t67.5 10.5h876q96 0 117.5 -33t21.5 -182q0 -23 -7 -33t-23 -10q-18 0 -55 37t-68 57q-44 28 -132 40.5t-247 12.5 q-108 0 -158.5 -7t-77.5 -24q-19 -11 -26.5 -36.5t-7.5 -112.5v-326h403q52 0 82.5 4t43.5 12q12 7 32 22q34 26 53 26q20 0 28.5 -13t8.5 -51v-112q0 -36 -8.5 -51t-28.5 -15q-19 0 -53 26q-20 15 -31 21q-14 9 -44.5 13t-82.5 4h-403v-443q0 -126 28.5 -157t130.5 -31h217 q108 0 183.5 13.5t130.5 43.5q36 19 78.5 64t62.5 45q21 0 30 -10.5t9 -34.5q0 -64 -13.5 -127t-23.5 -78q-15 -18 -49 -25.5t-115 -7.5h-882zM375 1624l232 349h118l232 -349h-58l-233 209l-233 -209h-58z" />
<glyph unicode="&#xcb;" horiz-adv-x="1262" d="M152 0q-49 0 -67.5 10t-18.5 35q0 27 51 55q21 11 33 19q18 12 26 37t8 77v1014q0 44 -4.5 65t-15.5 35q-10 13 -54 36t-44 51q0 24 18.5 34.5t67.5 10.5h876q96 0 117.5 -33t21.5 -182q0 -23 -7 -33t-23 -10q-18 0 -55 37t-68 57q-44 28 -132 40.5t-247 12.5 q-108 0 -158.5 -7t-77.5 -24q-19 -11 -26.5 -36.5t-7.5 -112.5v-326h403q52 0 82.5 4t43.5 12q12 7 32 22q34 26 53 26q20 0 28.5 -13t8.5 -51v-112q0 -36 -8.5 -51t-28.5 -15q-19 0 -53 26q-20 15 -31 21q-14 9 -44.5 13t-82.5 4h-403v-443q0 -126 28.5 -157t130.5 -31h217 q108 0 183.5 13.5t130.5 43.5q36 19 78.5 64t62.5 45q21 0 30 -10.5t9 -34.5q0 -64 -13.5 -127t-23.5 -78q-15 -18 -49 -25.5t-115 -7.5h-882zM742 1778q0 40 30 70t70 30t69 -30t29 -70q0 -42 -28 -70t-70 -28t-71 28t-29 70zM392 1778q0 40 29 70t69 30t70 -30t30 -70 q0 -42 -29 -70t-71 -28t-70 28t-28 70z" />
<glyph unicode="&#xcc;" horiz-adv-x="563" d="M406 1479q48 0 67 -10.5t19 -34.5q0 -28 -51 -55q-22 -12 -33 -19q-19 -12 -27 -36.5t-8 -76.5v-1014q0 -44 4.5 -65.5t15.5 -36.5q9 -12 54 -35t45 -51q0 -25 -19 -35t-67 -10h-250q-49 0 -67.5 10t-18.5 35q0 27 51 54q23 12 35 20q18 12 26 37t8 77v1014q0 44 -4.5 65 t-15.5 36q-10 12 -55 35t-45 51q0 24 18.5 34.5t67.5 10.5h250zM459 1624h-67l-330 205q-31 20 -46.5 40.5t-15.5 41.5q0 32 20.5 52t53.5 20q20 0 40.5 -12t55.5 -48z" />
<glyph unicode="&#xcd;" horiz-adv-x="563" d="M406 1479q48 0 67 -10.5t19 -34.5q0 -28 -51 -55q-22 -12 -33 -19q-19 -12 -27 -36.5t-8 -76.5v-1014q0 -44 4.5 -65.5t15.5 -36.5q9 -12 54 -35t45 -51q0 -25 -19 -35t-67 -10h-250q-49 0 -67.5 10t-18.5 35q0 27 51 54q23 12 35 20q18 12 26 37t8 77v1014q0 44 -4.5 65 t-15.5 36q-10 12 -55 35t-45 51q0 24 18.5 34.5t67.5 10.5h250zM107 1624l289 299q35 36 55.5 48t40.5 12q33 0 53.5 -20t20.5 -52q0 -21 -15.5 -41.5t-46.5 -40.5l-330 -205h-67z" />
<glyph unicode="&#xce;" horiz-adv-x="563" d="M406 1479q48 0 67 -10.5t19 -34.5q0 -28 -51 -55q-22 -12 -33 -19q-19 -12 -27 -36.5t-8 -76.5v-1014q0 -44 4.5 -65.5t15.5 -36.5q9 -12 54 -35t45 -51q0 -25 -19 -35t-67 -10h-250q-49 0 -67.5 10t-18.5 35q0 27 51 54q23 12 35 20q18 12 26 37t8 77v1014q0 44 -4.5 65 t-15.5 36q-10 12 -55 35t-45 51q0 24 18.5 34.5t67.5 10.5h250zM-8 1624l232 349h118l232 -349h-58l-233 209l-233 -209h-58z" />
<glyph unicode="&#xcf;" horiz-adv-x="563" d="M406 1479q48 0 67 -10.5t19 -34.5q0 -28 -51 -55q-22 -12 -33 -19q-19 -12 -27 -36.5t-8 -76.5v-1014q0 -44 4.5 -65.5t15.5 -36.5q9 -12 54 -35t45 -51q0 -25 -19 -35t-67 -10h-250q-49 0 -67.5 10t-18.5 35q0 27 51 54q23 12 35 20q18 12 26 37t8 77v1014q0 44 -4.5 65 t-15.5 36q-10 12 -55 35t-45 51q0 24 18.5 34.5t67.5 10.5h250zM359 1778q0 40 30 70t70 30t69 -30t29 -70q0 -42 -28 -70t-70 -28t-71 28t-29 70zM9 1778q0 40 29 70t69 30t70 -30t30 -70q0 -42 -29 -70t-71 -28t-70 28t-28 70z" />
<glyph unicode="&#xd0;" horiz-adv-x="1493" d="M375 373q0 -196 36.5 -234.5t153.5 -38.5q313 0 479 165.5t166 477.5q0 308 -160 470.5t-464 162.5q-90 0 -124 -9t-54 -32q-18 -19 -25.5 -50.5t-7.5 -98.5v-74v-256h342q28 0 36.5 -9t8.5 -38t-8.5 -38t-36.5 -9h-342v-389zM195 233v529h-142q-27 0 -35 8.5t-8 38.5 t8 38.5t35 8.5h142v391q0 44 -5 65t-16 36q-9 12 -54.5 35t-45.5 51q0 23 18 35t53 12q4 0 19 -1q62 -3 119 -3q61 0 172.5 2t162.5 2q372 0 587.5 -198.5t215.5 -537.5q0 -354 -217.5 -549.5t-613.5 -195.5h-430q-49 0 -67.5 10t-18.5 35q0 27 51 54q23 12 35 20 q19 12 27 37t8 77z" />
<glyph unicode="&#xd1;" horiz-adv-x="1489" d="M172 352v867q0 54 -3.5 78t-13.5 37q-13 18 -56 34q-8 3 -11 4q-9 4 -25 9q-55 19 -55 51q0 26 16.5 36.5t75.5 10.5h168q30 0 49 -1.5t30 -5.5q26 -12 79 -69t195 -234q151 -187 294 -383t277 -399v819q0 87 -4 114t-12 37q-12 16 -47 28q-7 2 -10 3q-8 3 -20 7 q-42 14 -42 43q0 23 16.5 32t61.5 9h200q69 0 90 -8.5t21 -30.5q0 -32 -42 -51t-54 -31q-16 -15 -22.5 -39.5t-6.5 -83.5v-25v-1116q0 -78 -8.5 -95t-32.5 -17q-36 0 -118 134q-34 55 -54 87q-182 288 -383.5 555.5t-419.5 509.5v-977q0 -41 5 -77t14 -63q5 -14 16.5 -24 t41.5 -22q16 -6 42 -14q55 -16 55 -48q0 -24 -20.5 -33.5t-75.5 -9.5h-279q-44 0 -64 8.5t-20 28.5q0 14 4.5 24t12.5 15q11 6 49 21t54 35q17 21 24.5 70.5t7.5 149.5zM1032 1921q-20 -103 -68.5 -153.5t-126.5 -50.5q-15 0 -32.5 2t-41.5 8l-109 29q-12 3 -24 4.5t-24 1.5 q-39 0 -60.5 -20t-36.5 -71h-51q19 106 68 158.5t129 52.5q17 0 32.5 -2t30.5 -6l110 -28q24 -6 36.5 -8.5t19.5 -2.5q36 0 58 20t36 66h54z" />
<glyph unicode="&#xd2;" horiz-adv-x="1575" d="M281 735q0 -309 135.5 -487t369.5 -178q235 0 370.5 178t135.5 487q0 310 -135.5 487t-370.5 177q-234 0 -369.5 -177t-135.5 -487zM72 735q0 184 57.5 329.5t175.5 260.5q95 91 217.5 138.5t263.5 47.5q143 0 266 -47t218 -139q117 -114 174 -259t57 -331t-57 -331.5 t-174 -260.5q-95 -91 -218 -138.5t-266 -47.5q-142 0 -264 47t-217 139q-118 116 -175.5 262t-57.5 330zM964 1624h-67l-330 205q-31 20 -46.5 40.5t-15.5 41.5q0 32 20.5 52t53.5 20q20 0 40.5 -12t55.5 -48z" />
<glyph unicode="&#xd3;" horiz-adv-x="1575" d="M281 735q0 -309 135.5 -487t369.5 -178q235 0 370.5 178t135.5 487q0 310 -135.5 487t-370.5 177q-234 0 -369.5 -177t-135.5 -487zM72 735q0 184 57.5 329.5t175.5 260.5q95 91 217.5 138.5t263.5 47.5q143 0 266 -47t218 -139q117 -114 174 -259t57 -331t-57 -331.5 t-174 -260.5q-95 -91 -218 -138.5t-266 -47.5q-142 0 -264 47t-217 139q-118 116 -175.5 262t-57.5 330zM612 1624l289 299q35 36 55.5 48t40.5 12q33 0 53.5 -20t20.5 -52q0 -21 -15.5 -41.5t-46.5 -40.5l-330 -205h-67z" />
<glyph unicode="&#xd4;" horiz-adv-x="1575" d="M281 735q0 -309 135.5 -487t369.5 -178q235 0 370.5 178t135.5 487q0 310 -135.5 487t-370.5 177q-234 0 -369.5 -177t-135.5 -487zM72 735q0 184 57.5 329.5t175.5 260.5q95 91 217.5 138.5t263.5 47.5q143 0 266 -47t218 -139q117 -114 174 -259t57 -331t-57 -331.5 t-174 -260.5q-95 -91 -218 -138.5t-266 -47.5q-142 0 -264 47t-217 139q-118 116 -175.5 262t-57.5 330zM497 1624l232 349h118l232 -349h-58l-233 209l-233 -209h-58z" />
<glyph unicode="&#xd5;" horiz-adv-x="1575" d="M281 735q0 -309 135.5 -487t369.5 -178q235 0 370.5 178t135.5 487q0 310 -135.5 487t-370.5 177q-234 0 -369.5 -177t-135.5 -487zM72 735q0 184 57.5 329.5t175.5 260.5q95 91 217.5 138.5t263.5 47.5q143 0 266 -47t218 -139q117 -114 174 -259t57 -331t-57 -331.5 t-174 -260.5q-95 -91 -218 -138.5t-266 -47.5q-142 0 -264 47t-217 139q-118 116 -175.5 262t-57.5 330zM1075 1921q-20 -103 -68.5 -153.5t-126.5 -50.5q-15 0 -32.5 2t-41.5 8l-109 29q-12 3 -24 4.5t-24 1.5q-39 0 -60.5 -20t-36.5 -71h-51q19 106 68 158.5t129 52.5 q17 0 32.5 -2t30.5 -6l110 -28q24 -6 36.5 -8.5t19.5 -2.5q36 0 58 20t36 66h54z" />
<glyph unicode="&#xd6;" horiz-adv-x="1575" d="M281 735q0 -309 135.5 -487t369.5 -178q235 0 370.5 178t135.5 487q0 310 -135.5 487t-370.5 177q-234 0 -369.5 -177t-135.5 -487zM72 735q0 184 57.5 329.5t175.5 260.5q95 91 217.5 138.5t263.5 47.5q143 0 266 -47t218 -139q117 -114 174 -259t57 -331t-57 -331.5 t-174 -260.5q-95 -91 -218 -138.5t-266 -47.5q-142 0 -264 47t-217 139q-118 116 -175.5 262t-57.5 330zM864 1778q0 40 30 70t70 30t69 -30t29 -70q0 -42 -28 -70t-70 -28t-71 28t-29 70zM514 1778q0 40 29 70t69 30t70 -30t30 -70q0 -42 -29 -70t-71 -28t-70 28t-28 70z " />
<glyph unicode="&#xd7;" horiz-adv-x="1706" d="M381 1169l477 -477l475 477l82 -82l-475 -477l475 -475l-82 -82l-475 475l-477 -475l-80 82l475 475l-475 477z" />
<glyph unicode="&#xd8;" horiz-adv-x="1575" d="M430 205l627 1138q-55 38 -121 57t-143 19q-242 0 -389.5 -190t-147.5 -504q0 -156 45.5 -292t128.5 -228zM1135 1276l-631 -1137q51 -37 115.5 -55t142.5 -18q251 0 403 184t152 491q0 184 -47 322t-135 213zM360 82q-144 106 -216 269t-72 384q0 184 57.5 329.5 t175.5 260.5q95 91 217.5 138.5t263.5 47.5q97 0 177 -18t147 -55l123 204q8 12 13 21.5t5 11.5q0 4 12 10.5t23 6.5q23 0 38 -15t15 -37q0 -12 -14 -36q-4 -7 -6 -11l-119 -207q150 -108 225.5 -271.5t75.5 -379.5q0 -350 -201 -564t-530 -214q-97 0 -177 19.5t-144 58.5 l-175 -305q-10 -18 -20.5 -25.5t-24.5 -7.5q-22 0 -36.5 13.5t-14.5 35.5q0 13 14 36q2 4 3 5z" />
<glyph unicode="&#xd9;" horiz-adv-x="1456" d="M147 1479h222q63 0 87.5 -12t24.5 -40q0 -37 -48 -59t-56 -33q-25 -29 -46.5 -229.5t-21.5 -462.5q0 -166 23.5 -264t77.5 -162q56 -67 139 -103t182 -36q89 0 171 29.5t134 80.5q68 69 97.5 170.5t29.5 284.5q0 288 -14.5 472.5t-38.5 215.5q-10 14 -65.5 41.5 t-55.5 65.5q0 22 20 31.5t72 9.5h205q62 0 81 -10t19 -37q0 -31 -38 -50q-7 -4 -11 -6q-35 -19 -45 -34.5t-10 -41.5q0 -23 14.5 -248.5t14.5 -428.5q0 -333 -152 -499.5t-454 -166.5q-295 0 -434.5 165t-139.5 515q0 208 15.5 428.5t15.5 232.5q0 18 -9 34.5t-22 23.5 q-5 2 -14 6q-64 29 -64 70q0 25 21 36t73 11zM926 1624h-67l-330 205q-31 20 -46.5 40.5t-15.5 41.5q0 32 20.5 52t53.5 20q20 0 40.5 -12t55.5 -48z" />
<glyph unicode="&#xda;" horiz-adv-x="1456" d="M147 1479h222q63 0 87.5 -12t24.5 -40q0 -37 -48 -59t-56 -33q-25 -29 -46.5 -229.5t-21.5 -462.5q0 -166 23.5 -264t77.5 -162q56 -67 139 -103t182 -36q89 0 171 29.5t134 80.5q68 69 97.5 170.5t29.5 284.5q0 288 -14.5 472.5t-38.5 215.5q-10 14 -65.5 41.5 t-55.5 65.5q0 22 20 31.5t72 9.5h205q62 0 81 -10t19 -37q0 -31 -38 -50q-7 -4 -11 -6q-35 -19 -45 -34.5t-10 -41.5q0 -23 14.5 -248.5t14.5 -428.5q0 -333 -152 -499.5t-454 -166.5q-295 0 -434.5 165t-139.5 515q0 208 15.5 428.5t15.5 232.5q0 18 -9 34.5t-22 23.5 q-5 2 -14 6q-64 29 -64 70q0 25 21 36t73 11zM574 1624l289 299q35 36 55.5 48t40.5 12q33 0 53.5 -20t20.5 -52q0 -21 -15.5 -41.5t-46.5 -40.5l-330 -205h-67z" />
<glyph unicode="&#xdb;" horiz-adv-x="1456" d="M147 1479h222q63 0 87.5 -12t24.5 -40q0 -37 -48 -59t-56 -33q-25 -29 -46.5 -229.5t-21.5 -462.5q0 -166 23.5 -264t77.5 -162q56 -67 139 -103t182 -36q89 0 171 29.5t134 80.5q68 69 97.5 170.5t29.5 284.5q0 288 -14.5 472.5t-38.5 215.5q-10 14 -65.5 41.5 t-55.5 65.5q0 22 20 31.5t72 9.5h205q62 0 81 -10t19 -37q0 -31 -38 -50q-7 -4 -11 -6q-35 -19 -45 -34.5t-10 -41.5q0 -23 14.5 -248.5t14.5 -428.5q0 -333 -152 -499.5t-454 -166.5q-295 0 -434.5 165t-139.5 515q0 208 15.5 428.5t15.5 232.5q0 18 -9 34.5t-22 23.5 q-5 2 -14 6q-64 29 -64 70q0 25 21 36t73 11zM459 1624l232 349h118l232 -349h-58l-233 209l-233 -209h-58z" />
<glyph unicode="&#xdc;" horiz-adv-x="1456" d="M147 1479h222q63 0 87.5 -12t24.5 -40q0 -37 -48 -59t-56 -33q-25 -29 -46.5 -229.5t-21.5 -462.5q0 -166 23.5 -264t77.5 -162q56 -67 139 -103t182 -36q89 0 171 29.5t134 80.5q68 69 97.5 170.5t29.5 284.5q0 288 -14.5 472.5t-38.5 215.5q-10 14 -65.5 41.5 t-55.5 65.5q0 22 20 31.5t72 9.5h205q62 0 81 -10t19 -37q0 -31 -38 -50q-7 -4 -11 -6q-35 -19 -45 -34.5t-10 -41.5q0 -23 14.5 -248.5t14.5 -428.5q0 -333 -152 -499.5t-454 -166.5q-295 0 -434.5 165t-139.5 515q0 208 15.5 428.5t15.5 232.5q0 18 -9 34.5t-22 23.5 q-5 2 -14 6q-64 29 -64 70q0 25 21 36t73 11zM826 1778q0 40 30 70t70 30t69 -30t29 -70q0 -42 -28 -70t-70 -28t-71 28t-29 70zM476 1778q0 40 29 70t69 30t70 -30t30 -70q0 -42 -29 -70t-71 -28t-70 28t-28 70z" />
<glyph unicode="&#xdd;" horiz-adv-x="1348" d="M762 233q0 -44 5 -66t15 -36q10 -12 54.5 -35t44.5 -51q0 -25 -18.5 -35t-67.5 -10h-248q-49 0 -67.5 10t-18.5 35q0 27 51 55q21 11 33 19q19 12 28 38.5t9 75.5v316q0 55 -128 222q-113 148 -182 253q-51 78 -115 187.5t-83 129.5q-14 16 -63.5 39.5t-49.5 57.5 q0 21 19 31t59 10h258q53 0 73.5 -9t20.5 -30q0 -35 -45 -59q-14 -7 -20 -11q-12 -6 -19.5 -18.5t-7.5 -26.5q0 -33 115 -207.5t291 -398.5q199 258 284.5 399t85.5 207q0 26 -41 50q-11 6 -16 9q0 1 -1 1q-46 26 -46 55q0 18 16.5 28.5t46.5 10.5h203q70 0 89.5 -8 t19.5 -29q0 -19 -37.5 -50t-61.5 -69q-112 -177 -233.5 -356t-251.5 -361v-373zM498 1624l289 299q35 36 55.5 48t40.5 12q33 0 53.5 -20t20.5 -52q0 -21 -15.5 -41.5t-46.5 -40.5l-330 -205h-67z" />
<glyph unicode="&#xde;" horiz-adv-x="1262" d="M365 457q310 7 475.5 107t165.5 280q0 145 -111.5 221t-325.5 76q-117 0 -160.5 -40t-43.5 -149v-495zM184 1247q0 45 -4.5 66t-15.5 34q-9 12 -53.5 35t-44.5 56q0 22 18.5 31.5t67.5 9.5h247q49 0 67.5 -10.5t18.5 -34.5q0 -27 -51 -55q-23 -11 -35 -19 q-17 -10 -25.5 -34.5t-8.5 -63.5v-15h235q309 0 458.5 -96t149.5 -295q0 -238 -218.5 -371t-624.5 -141v-111q0 -45 5 -66.5t17 -35.5q8 -9 38 -20q20 -7 32 -13l4 -2q51 -24 51 -51q0 -25 -18.5 -35t-67.5 -10h-274q-48 0 -67 11t-19 36q0 27 48 52q23 12 36 20 q18 12 26 37t8 77v1014z" />
<glyph unicode="&#xdf;" horiz-adv-x="1358" d="M168 197v792q0 135 25 215.5t83 145.5q71 78 177.5 119.5t234.5 41.5q230 0 365 -99t135 -265q0 -120 -78.5 -201.5t-228.5 -118.5q197 -39 301 -145.5t104 -267.5q0 -190 -134 -307t-353 -117q-182 0 -286.5 78.5t-104.5 212.5q0 99 46.5 169t104.5 70q24 0 40.5 -15.5 t16.5 -37.5q0 -28 -38 -63l-1 -1q-31 -29 -40 -51.5t-9 -58.5q0 -85 70.5 -139t185.5 -54q152 0 239 84t87 230q0 185 -112 265.5t-377 80.5q-28 0 -58.5 -1t-32.5 -1q-29 0 -46 13t-17 36q0 54 106 55h35q213 7 308.5 73t95.5 206q0 132 -86.5 204t-243.5 72 q-184 0 -270 -101t-86 -319v-819q0 -17 2.5 -29t9.5 -22q8 -10 23 -24q30 -28 30 -52q0 -28 -20.5 -39.5t-81.5 -11.5h-176q-48 0 -67 9t-19 30q0 48 80 73q26 8 40 13q11 3 16 21t5 51z" />
<glyph unicode="&#xe0;" horiz-adv-x="1053" d="M764 158q-66 -93 -162 -140t-221 -47q-149 0 -236.5 79.5t-87.5 213.5q0 183 162 281t467 98h45q-12 106 -89.5 165.5t-203.5 59.5q-72 0 -154 -48t-106 -48q-28 0 -46.5 15.5t-18.5 39.5q0 63 93 104.5t243 41.5q247 0 356.5 -115.5t109.5 -378.5v-305q0 -22 6 -35.5 t31 -34.5q9 -6 29 -15q45 -20 45 -48q0 -30 -32.5 -40.5t-162.5 -10.5q-38 0 -52.5 14.5t-14.5 52.5v101zM752 551h-27q-234 0 -361.5 -73.5t-127.5 -207.5q0 -81 55.5 -132.5t144.5 -51.5q50 0 98.5 13t86.5 36q74 46 102.5 98t28.5 146v172zM672 1083h-67l-330 205 q-31 20 -46.5 40.5t-15.5 41.5q0 32 20.5 52t53.5 20q20 0 40.5 -12t55.5 -48z" />
<glyph unicode="&#xe1;" horiz-adv-x="1053" d="M764 158q-66 -93 -162 -140t-221 -47q-149 0 -236.5 79.5t-87.5 213.5q0 183 162 281t467 98h45q-12 106 -89.5 165.5t-203.5 59.5q-72 0 -154 -48t-106 -48q-28 0 -46.5 15.5t-18.5 39.5q0 63 93 104.5t243 41.5q247 0 356.5 -115.5t109.5 -378.5v-305q0 -22 6 -35.5 t31 -34.5q9 -6 29 -15q45 -20 45 -48q0 -30 -32.5 -40.5t-162.5 -10.5q-38 0 -52.5 14.5t-14.5 52.5v101zM752 551h-27q-234 0 -361.5 -73.5t-127.5 -207.5q0 -81 55.5 -132.5t144.5 -51.5q50 0 98.5 13t86.5 36q74 46 102.5 98t28.5 146v172zM320 1083l289 299 q35 36 55.5 48t40.5 12q33 0 53.5 -20t20.5 -52q0 -21 -15.5 -41.5t-46.5 -40.5l-330 -205h-67z" />
<glyph unicode="&#xe2;" horiz-adv-x="1053" d="M764 158q-66 -93 -162 -140t-221 -47q-149 0 -236.5 79.5t-87.5 213.5q0 183 162 281t467 98h45q-12 106 -89.5 165.5t-203.5 59.5q-72 0 -154 -48t-106 -48q-28 0 -46.5 15.5t-18.5 39.5q0 63 93 104.5t243 41.5q247 0 356.5 -115.5t109.5 -378.5v-305q0 -22 6 -35.5 t31 -34.5q9 -6 29 -15q45 -20 45 -48q0 -30 -32.5 -40.5t-162.5 -10.5q-38 0 -52.5 14.5t-14.5 52.5v101zM752 551h-27q-234 0 -361.5 -73.5t-127.5 -207.5q0 -81 55.5 -132.5t144.5 -51.5q50 0 98.5 13t86.5 36q74 46 102.5 98t28.5 146v172zM205 1083l232 349h118 l232 -349h-58l-233 209l-233 -209h-58z" />
<glyph unicode="&#xe3;" horiz-adv-x="1053" d="M764 158q-66 -93 -162 -140t-221 -47q-149 0 -236.5 79.5t-87.5 213.5q0 183 162 281t467 98h45q-12 106 -89.5 165.5t-203.5 59.5q-72 0 -154 -48t-106 -48q-28 0 -46.5 15.5t-18.5 39.5q0 63 93 104.5t243 41.5q247 0 356.5 -115.5t109.5 -378.5v-305q0 -22 6 -35.5 t31 -34.5q9 -6 29 -15q45 -20 45 -48q0 -30 -32.5 -40.5t-162.5 -10.5q-38 0 -52.5 14.5t-14.5 52.5v101zM752 551h-27q-234 0 -361.5 -73.5t-127.5 -207.5q0 -81 55.5 -132.5t144.5 -51.5q50 0 98.5 13t86.5 36q74 46 102.5 98t28.5 146v172zM783 1380 q-20 -103 -68.5 -153.5t-126.5 -50.5q-15 0 -32.5 2t-41.5 8l-109 29q-12 3 -24 4.5t-24 1.5q-39 0 -60.5 -20t-36.5 -71h-51q19 106 68 158.5t129 52.5q17 0 32.5 -2t30.5 -6l110 -28q24 -6 36.5 -8.5t19.5 -2.5q36 0 58 20t36 66h54z" />
<glyph unicode="&#xe4;" horiz-adv-x="1053" d="M764 158q-66 -93 -162 -140t-221 -47q-149 0 -236.5 79.5t-87.5 213.5q0 183 162 281t467 98h45q-12 106 -89.5 165.5t-203.5 59.5q-72 0 -154 -48t-106 -48q-28 0 -46.5 15.5t-18.5 39.5q0 63 93 104.5t243 41.5q247 0 356.5 -115.5t109.5 -378.5v-305q0 -22 6 -35.5 t31 -34.5q9 -6 29 -15q45 -20 45 -48q0 -30 -32.5 -40.5t-162.5 -10.5q-38 0 -52.5 14.5t-14.5 52.5v101zM752 551h-27q-234 0 -361.5 -73.5t-127.5 -207.5q0 -81 55.5 -132.5t144.5 -51.5q50 0 98.5 13t86.5 36q74 46 102.5 98t28.5 146v172zM572 1237q0 40 30 70t70 30 t69 -30t29 -70q0 -42 -28 -70t-70 -28t-71 28t-29 70zM222 1237q0 40 29 70t69 30t70 -30t30 -70q0 -42 -29 -70t-71 -28t-70 28t-28 70z" />
<glyph unicode="&#xe5;" horiz-adv-x="1053" d="M272 1280q0 101 69.5 170.5t170.5 69.5q102 0 172 -69.5t70 -170.5t-70.5 -171.5t-171.5 -70.5t-170.5 70t-69.5 172zM362 1280q0 -63 43.5 -107.5t106.5 -44.5t106.5 44.5t43.5 107.5q0 61 -44.5 105.5t-105.5 44.5q-62 0 -106 -44t-44 -106zM764 158q-66 -93 -162 -140 t-221 -47q-149 0 -236.5 79.5t-87.5 213.5q0 183 162 281t467 98h45q-12 106 -89.5 165.5t-203.5 59.5q-72 0 -154 -48t-106 -48q-28 0 -46.5 15.5t-18.5 39.5q0 63 93 104.5t243 41.5q247 0 356.5 -115.5t109.5 -378.5v-305q0 -22 6 -35.5t31 -34.5q9 -6 29 -15 q45 -20 45 -48q0 -30 -32.5 -40.5t-162.5 -10.5q-38 0 -52.5 14.5t-14.5 52.5v101zM752 551h-27q-234 0 -361.5 -73.5t-127.5 -207.5q0 -81 55.5 -132.5t144.5 -51.5q50 0 98.5 13t86.5 36q74 46 102.5 98t28.5 146v172z" />
<glyph unicode="&#xe6;" horiz-adv-x="1698" d="M819 170q-71 -99 -169 -149t-222 -50q-162 0 -259 83.5t-97 221.5q0 140 113.5 230t293.5 90q40 0 93.5 -6t156.5 -23v23q0 127 -75.5 204.5t-198.5 77.5q-77 0 -162 -49t-107 -49q-23 0 -41 18t-18 42q0 53 97.5 98t230.5 45q149 0 249.5 -53.5t145.5 -157.5 q67 102 168.5 156.5t224.5 54.5q164 0 260 -71t96 -191q0 -142 -135.5 -217.5t-392.5 -75.5q-26 0 -78 2.5t-73 3.5v-8q0 -142 89.5 -232t229.5 -90q70 0 132.5 22t107.5 62q11 10 30 28q40 38 62 38q19 0 30 -12t11 -31q0 -74 -127 -154t-283 -80q-119 0 -214 49.5 t-169 149.5zM739 457q-65 15 -124.5 22.5t-110.5 7.5q-119 0 -195 -63t-76 -160q0 -81 58 -126.5t162 -45.5q130 0 209 87t79 231q0 18 -0.5 28.5t-1.5 18.5zM918 532q45 -4 87.5 -6t77.5 -2q167 0 260 55t93 152q0 68 -53 111t-138 43q-131 0 -219.5 -94.5t-107.5 -258.5z " />
<glyph unicode="&#xe7;" horiz-adv-x="905" d="M836 248q22 0 35.5 -9t13.5 -24q0 -29 -30 -72.5t-79 -81.5q-57 -45 -126.5 -67.5t-153.5 -22.5q-187 0 -308.5 132.5t-121.5 336.5q0 229 134 381t335 152q135 0 227 -56.5t92 -132.5q0 -33 -25 -57.5t-59 -24.5q-41 0 -86 59q-7 9 -10 13q-44 57 -77.5 73.5t-82.5 16.5 q-121 0 -196.5 -111.5t-75.5 -293.5q0 -166 81 -265.5t216 -99.5q40 0 79.5 11t75.5 32q44 25 87.5 68t54.5 43zM245 -371l35 78q61 -34 119.5 -53t103.5 -19q64 0 92.5 22t28.5 71q0 42 -29.5 66t-82.5 24q-14 0 -29 -1.5t-33 -4.5v188h64v-112q16 2 31.5 3.5t29.5 2.5 q87 0 134.5 -43.5t47.5 -120.5q0 -82 -58 -129t-161 -47q-54 0 -121.5 17t-171.5 58z" />
<glyph unicode="&#xe8;" horiz-adv-x="1010" d="M223 455q272 26 399.5 91.5t127.5 176.5q0 74 -51.5 116t-141.5 42q-147 0 -240.5 -114t-93.5 -296v-16zM238 352q25 -117 107 -185.5t196 -68.5q61 0 115 15t106 47q25 15 62 43q51 37 67 37t26.5 -12t10.5 -31q0 -31 -41.5 -74.5t-110.5 -83.5q-58 -34 -122.5 -51 t-135.5 -17q-211 0 -337 125.5t-126 335.5q0 230 149.5 385.5t368.5 155.5q167 0 257 -69t90 -195q0 -149 -166.5 -235.5t-515.5 -121.5zM727 1083h-67l-330 205q-31 20 -46.5 40.5t-15.5 41.5q0 32 20.5 52t53.5 20q20 0 40.5 -12t55.5 -48z" />
<glyph unicode="&#xe9;" horiz-adv-x="1010" d="M223 455q272 26 399.5 91.5t127.5 176.5q0 74 -51.5 116t-141.5 42q-147 0 -240.5 -114t-93.5 -296v-16zM238 352q25 -117 107 -185.5t196 -68.5q61 0 115 15t106 47q25 15 62 43q51 37 67 37t26.5 -12t10.5 -31q0 -31 -41.5 -74.5t-110.5 -83.5q-58 -34 -122.5 -51 t-135.5 -17q-211 0 -337 125.5t-126 335.5q0 230 149.5 385.5t368.5 155.5q167 0 257 -69t90 -195q0 -149 -166.5 -235.5t-515.5 -121.5zM375 1083l289 299q35 36 55.5 48t40.5 12q33 0 53.5 -20t20.5 -52q0 -21 -15.5 -41.5t-46.5 -40.5l-330 -205h-67z" />
<glyph unicode="&#xea;" horiz-adv-x="1010" d="M223 455q272 26 399.5 91.5t127.5 176.5q0 74 -51.5 116t-141.5 42q-147 0 -240.5 -114t-93.5 -296v-16zM238 352q25 -117 107 -185.5t196 -68.5q61 0 115 15t106 47q25 15 62 43q51 37 67 37t26.5 -12t10.5 -31q0 -31 -41.5 -74.5t-110.5 -83.5q-58 -34 -122.5 -51 t-135.5 -17q-211 0 -337 125.5t-126 335.5q0 230 149.5 385.5t368.5 155.5q167 0 257 -69t90 -195q0 -149 -166.5 -235.5t-515.5 -121.5zM260 1083l232 349h118l232 -349h-58l-233 209l-233 -209h-58z" />
<glyph unicode="&#xeb;" horiz-adv-x="1010" d="M223 455q272 26 399.5 91.5t127.5 176.5q0 74 -51.5 116t-141.5 42q-147 0 -240.5 -114t-93.5 -296v-16zM238 352q25 -117 107 -185.5t196 -68.5q61 0 115 15t106 47q25 15 62 43q51 37 67 37t26.5 -12t10.5 -31q0 -31 -41.5 -74.5t-110.5 -83.5q-58 -34 -122.5 -51 t-135.5 -17q-211 0 -337 125.5t-126 335.5q0 230 149.5 385.5t368.5 155.5q167 0 257 -69t90 -195q0 -149 -166.5 -235.5t-515.5 -121.5zM627 1237q0 40 30 70t70 30t69 -30t29 -70q0 -42 -28 -70t-70 -28t-71 28t-29 70zM277 1237q0 40 29 70t69 30t70 -30t30 -70 q0 -42 -29 -70t-71 -28t-70 28t-28 70z" />
<glyph unicode="&#xec;" horiz-adv-x="498" d="M176 721q0 36 -7.5 50t-29.5 28q-9 6 -27 15q-36 18 -36 38q0 15 10.5 27t36.5 26l14 8q122 64 162 64q21 0 29 -19t8 -88v-702q0 -26 6 -43t18 -23q14 -6 34 -14q52 -21 52 -49q0 -22 -17 -30.5t-64 -8.5h-215q-43 0 -58.5 8.5t-15.5 28.5q0 15 8 26t29 21q8 4 22 10 q41 17 41 70v557zM426 1083h-67l-330 205q-31 20 -46.5 40.5t-15.5 41.5q0 32 20.5 52t53.5 20q20 0 40.5 -12t55.5 -48z" />
<glyph unicode="&#xed;" horiz-adv-x="498" d="M176 721q0 36 -7.5 50t-29.5 28q-9 6 -27 15q-36 18 -36 38q0 15 10.5 27t36.5 26l14 8q122 64 162 64q21 0 29 -19t8 -88v-702q0 -26 6 -43t18 -23q14 -6 34 -14q52 -21 52 -49q0 -22 -17 -30.5t-64 -8.5h-215q-43 0 -58.5 8.5t-15.5 28.5q0 15 8 26t29 21q8 4 22 10 q41 17 41 70v557zM74 1083l289 299q35 36 55.5 48t40.5 12q33 0 53.5 -20t20.5 -52q0 -21 -15.5 -41.5t-46.5 -40.5l-330 -205h-67z" />
<glyph unicode="&#xee;" horiz-adv-x="498" d="M176 721q0 36 -7.5 50t-29.5 28q-9 6 -27 15q-36 18 -36 38q0 15 10.5 27t36.5 26l14 8q122 64 162 64q21 0 29 -19t8 -88v-702q0 -26 6 -43t18 -23q14 -6 34 -14q52 -21 52 -49q0 -22 -17 -30.5t-64 -8.5h-215q-43 0 -58.5 8.5t-15.5 28.5q0 15 8 26t29 21q8 4 22 10 q41 17 41 70v557zM-41 1083l232 349h118l232 -349h-58l-233 209l-233 -209h-58z" />
<glyph unicode="&#xef;" horiz-adv-x="498" d="M176 721q0 36 -7.5 50t-29.5 28q-9 6 -27 15q-36 18 -36 38q0 15 10.5 27t36.5 26l14 8q122 64 162 64q21 0 29 -19t8 -88v-702q0 -26 6 -43t18 -23q14 -6 34 -14q52 -21 52 -49q0 -22 -17 -30.5t-64 -8.5h-215q-43 0 -58.5 8.5t-15.5 28.5q0 15 8 26t29 21q8 4 22 10 q41 17 41 70v557zM326 1237q0 40 30 70t70 30t69 -30t29 -70q0 -42 -28 -70t-70 -28t-71 28t-29 70zM-24 1237q0 40 29 70t69 30t70 -30t30 -70q0 -42 -29 -70t-71 -28t-70 28t-28 70z" />
<glyph unicode="&#xf0;" horiz-adv-x="1139" d="M690 950q-48 69 -91 123t-85 101l-180 -91q-25 -12 -40 -17t-26 -5q-21 0 -33 9t-12 26q0 16 12 28.5t58 36.5l156 86q-52 65 -124.5 131t-72.5 84q0 16 15 27.5t36 11.5q31 0 97.5 -50t166.5 -148l209 108q24 12 40.5 17.5t29.5 5.5q19 0 30 -9.5t11 -25.5 q0 -18 -14.5 -32t-53.5 -34l-186 -96q247 -251 342.5 -421.5t95.5 -344.5q0 -221 -139.5 -360.5t-362.5 -139.5t-363 139.5t-140 360.5t140.5 361.5t362.5 140.5q31 0 60.5 -5.5t60.5 -17.5zM569 866q-147 0 -237 -108.5t-90 -286.5t90 -286.5t237 -108.5t236.5 108 t89.5 287q0 178 -90 286.5t-236 108.5z" />
<glyph unicode="&#xf1;" horiz-adv-x="1133" d="M174 170v457q0 97 -7 126.5t-26 43.5q-12 9 -46 22.5t-34 36.5q0 27 60.5 72t99.5 45q28 0 51 -41.5t41 -124.5q64 82 147.5 124t182.5 42q169 0 252.5 -110.5t83.5 -336.5v-362q0 -33 4 -47t15 -21q9 -6 26 -15q41 -22 41 -46q0 -19 -15.5 -27t-52.5 -8h-204 q-37 0 -52.5 7.5t-15.5 25.5q0 25 33 40l14 7q35 17 42 32t7 56v360q0 168 -56.5 245t-178.5 77q-116 0 -185 -67t-69 -181v-457q0 -21 3 -31.5t11 -17.5q9 -6 29 -16q39 -20 39 -43q0 -21 -15.5 -29t-58.5 -8h-190q-38 0 -52 7t-14 24q0 15 7 24.5t34 24.5q4 2 11 6 q38 21 38 84zM877 1380q-20 -103 -68.5 -153.5t-126.5 -50.5q-15 0 -32.5 2t-41.5 8l-109 29q-12 3 -24 4.5t-24 1.5q-39 0 -60.5 -20t-36.5 -71h-51q19 106 68 158.5t129 52.5q17 0 32.5 -2t30.5 -6l110 -28q24 -6 36.5 -8.5t19.5 -2.5q36 0 58 20t36 66h54z" />
<glyph unicode="&#xf2;" horiz-adv-x="1139" d="M242 471q0 -178 90 -285.5t237 -107.5t236.5 107.5t89.5 285.5q0 179 -89.5 287t-236.5 108q-146 0 -236.5 -109t-90.5 -286zM66 471q0 221 140.5 361.5t362.5 140.5q223 0 362.5 -140t139.5 -362q0 -221 -139.5 -360.5t-362.5 -139.5t-363 139.5t-140 360.5zM745 1083 h-67l-330 205q-31 20 -46.5 40.5t-15.5 41.5q0 32 20.5 52t53.5 20q20 0 40.5 -12t55.5 -48z" />
<glyph unicode="&#xf3;" horiz-adv-x="1139" d="M242 471q0 -178 90 -285.5t237 -107.5t236.5 107.5t89.5 285.5q0 179 -89.5 287t-236.5 108q-146 0 -236.5 -109t-90.5 -286zM66 471q0 221 140.5 361.5t362.5 140.5q223 0 362.5 -140t139.5 -362q0 -221 -139.5 -360.5t-362.5 -139.5t-363 139.5t-140 360.5zM393 1083 l289 299q35 36 55.5 48t40.5 12q33 0 53.5 -20t20.5 -52q0 -21 -15.5 -41.5t-46.5 -40.5l-330 -205h-67z" />
<glyph unicode="&#xf4;" horiz-adv-x="1139" d="M242 471q0 -178 90 -285.5t237 -107.5t236.5 107.5t89.5 285.5q0 179 -89.5 287t-236.5 108q-146 0 -236.5 -109t-90.5 -286zM66 471q0 221 140.5 361.5t362.5 140.5q223 0 362.5 -140t139.5 -362q0 -221 -139.5 -360.5t-362.5 -139.5t-363 139.5t-140 360.5zM278 1083 l232 349h118l232 -349h-58l-233 209l-233 -209h-58z" />
<glyph unicode="&#xf5;" horiz-adv-x="1139" d="M242 471q0 -178 90 -285.5t237 -107.5t236.5 107.5t89.5 285.5q0 179 -89.5 287t-236.5 108q-146 0 -236.5 -109t-90.5 -286zM66 471q0 221 140.5 361.5t362.5 140.5q223 0 362.5 -140t139.5 -362q0 -221 -139.5 -360.5t-362.5 -139.5t-363 139.5t-140 360.5zM856 1380 q-20 -103 -68.5 -153.5t-126.5 -50.5q-15 0 -32.5 2t-41.5 8l-109 29q-12 3 -24 4.5t-24 1.5q-39 0 -60.5 -20t-36.5 -71h-51q19 106 68 158.5t129 52.5q17 0 32.5 -2t30.5 -6l110 -28q24 -6 36.5 -8.5t19.5 -2.5q36 0 58 20t36 66h54z" />
<glyph unicode="&#xf6;" horiz-adv-x="1139" d="M242 471q0 -178 90 -285.5t237 -107.5t236.5 107.5t89.5 285.5q0 179 -89.5 287t-236.5 108q-146 0 -236.5 -109t-90.5 -286zM66 471q0 221 140.5 361.5t362.5 140.5q223 0 362.5 -140t139.5 -362q0 -221 -139.5 -360.5t-362.5 -139.5t-363 139.5t-140 360.5zM645 1237 q0 40 30 70t70 30t69 -30t29 -70q0 -42 -28 -70t-70 -28t-71 28t-29 70zM295 1237q0 40 29 70t69 30t70 -30t30 -70q0 -42 -29 -70t-71 -28t-70 28t-28 70z" />
<glyph unicode="&#xf7;" horiz-adv-x="1706" d="M854 365q47 0 81 -34t34 -81t-33.5 -81t-81.5 -34t-81.5 33.5t-33.5 81.5t34 81.5t81 33.5zM254 670h1198v-117h-1198v117zM854 1085q48 0 81.5 -33.5t33.5 -80.5q0 -48 -33.5 -81.5t-81.5 -33.5q-49 0 -82 33.5t-33 81.5q0 47 34 80.5t81 33.5z" />
<glyph unicode="&#xf8;" horiz-adv-x="1139" d="M176 -96l92 153q-100 72 -151 174.5t-51 235.5q0 224 139.5 365t363.5 141q65 0 121 -12.5t107 -38.5l82 139q13 24 25 33.5t28 9.5q25 0 39 -9.5t14 -25.5q0 -4 -2 -10t-8 -18l-101 -169q97 -65 147 -167.5t50 -233.5q0 -225 -140.5 -362.5t-373.5 -137.5q-68 0 -119 10 t-86 29l-86 -133q-20 -30 -33 -39.5t-30 -9.5q-18 0 -30.5 9t-12.5 22q0 9 4.5 21t11.5 24zM416 113q32 -20 69 -29.5t82 -9.5q149 0 240.5 117t91.5 309q0 80 -23 146.5t-67 113.5zM336 166l399 657q-45 24 -87.5 35.5t-86.5 11.5q-142 0 -236 -119t-94 -305 q0 -98 28 -171.5t77 -108.5z" />
<glyph unicode="&#xf9;" horiz-adv-x="1133" d="M944 874v-557q0 -71 3 -115.5t7 -53.5q11 -23 26 -37t50 -27q5 -2 13 -5q36 -14 36 -40q0 -28 -34.5 -38.5t-143.5 -10.5q-56 0 -78 25t-22 89q0 5 1 17t1 18q-63 -84 -143.5 -125t-184.5 -41q-176 0 -256 105.5t-80 341.5v315q0 49 -11.5 67t-45.5 40q-1 0 -2 1 q-41 24 -41 48q0 29 61 55.5t136 26.5q33 0 47 -24t14 -85v-448q0 -166 57 -244t178 -78q117 0 185.5 66t68.5 180v410q0 32 -7 47.5t-23 25.5q-6 4 -18 11q-44 25 -44 49q0 32 61 61t128 29q33 0 47 -22t14 -77zM723 1083h-67l-330 205q-31 20 -46.5 40.5t-15.5 41.5 q0 32 20.5 52t53.5 20q20 0 40.5 -12t55.5 -48z" />
<glyph unicode="&#xfa;" horiz-adv-x="1133" d="M944 874v-557q0 -71 3 -115.5t7 -53.5q11 -23 26 -37t50 -27q5 -2 13 -5q36 -14 36 -40q0 -28 -34.5 -38.5t-143.5 -10.5q-56 0 -78 25t-22 89q0 5 1 17t1 18q-63 -84 -143.5 -125t-184.5 -41q-176 0 -256 105.5t-80 341.5v315q0 49 -11.5 67t-45.5 40q-1 0 -2 1 q-41 24 -41 48q0 29 61 55.5t136 26.5q33 0 47 -24t14 -85v-448q0 -166 57 -244t178 -78q117 0 185.5 66t68.5 180v410q0 32 -7 47.5t-23 25.5q-6 4 -18 11q-44 25 -44 49q0 32 61 61t128 29q33 0 47 -22t14 -77zM371 1083l289 299q35 36 55.5 48t40.5 12q33 0 53.5 -20 t20.5 -52q0 -21 -15.5 -41.5t-46.5 -40.5l-330 -205h-67z" />
<glyph unicode="&#xfb;" horiz-adv-x="1133" d="M944 874v-557q0 -71 3 -115.5t7 -53.5q11 -23 26 -37t50 -27q5 -2 13 -5q36 -14 36 -40q0 -28 -34.5 -38.5t-143.5 -10.5q-56 0 -78 25t-22 89q0 5 1 17t1 18q-63 -84 -143.5 -125t-184.5 -41q-176 0 -256 105.5t-80 341.5v315q0 49 -11.5 67t-45.5 40q-1 0 -2 1 q-41 24 -41 48q0 29 61 55.5t136 26.5q33 0 47 -24t14 -85v-448q0 -166 57 -244t178 -78q117 0 185.5 66t68.5 180v410q0 32 -7 47.5t-23 25.5q-6 4 -18 11q-44 25 -44 49q0 32 61 61t128 29q33 0 47 -22t14 -77zM256 1083l232 349h118l232 -349h-58l-233 209l-233 -209h-58 z" />
<glyph unicode="&#xfc;" horiz-adv-x="1133" d="M944 874v-557q0 -71 3 -115.5t7 -53.5q11 -23 26 -37t50 -27q5 -2 13 -5q36 -14 36 -40q0 -28 -34.5 -38.5t-143.5 -10.5q-56 0 -78 25t-22 89q0 5 1 17t1 18q-63 -84 -143.5 -125t-184.5 -41q-176 0 -256 105.5t-80 341.5v315q0 49 -11.5 67t-45.5 40q-1 0 -2 1 q-41 24 -41 48q0 29 61 55.5t136 26.5q33 0 47 -24t14 -85v-448q0 -166 57 -244t178 -78q117 0 185.5 66t68.5 180v410q0 32 -7 47.5t-23 25.5q-6 4 -18 11q-44 25 -44 49q0 32 61 61t128 29q33 0 47 -22t14 -77zM623 1237q0 40 30 70t70 30t69 -30t29 -70q0 -42 -28 -70 t-70 -28t-71 28t-29 70zM273 1237q0 40 29 70t69 30t70 -30t30 -70q0 -42 -29 -70t-71 -28t-70 28t-28 70z" />
<glyph unicode="&#xfd;" horiz-adv-x="1018" d="M580 84q-28 -15 -55.5 -23t-55.5 -8q-132 0 -222 134t-143 409q-10 57 -18 137.5t-16 97.5q-10 19 -40 41.5t-30 45.5q0 17 18 23.5t74 6.5h135q69 0 87 -8t18 -31q0 -24 -31 -41q-7 -4 -10 -6q-33 -20 -43 -42t-10 -81q0 -63 19 -151t56 -191q43 -119 95.5 -175 t121.5 -56q62 0 101.5 38.5t81.5 147.5q38 100 61 213t23 201q0 30 -7 50t-22 32q-12 9 -35 20q-39 18 -39 43q0 21 16.5 29t69.5 8h109q54 0 74 -10t20 -35q0 -11 -19.5 -36t-27.5 -48q-10 -27 -31.5 -162.5t-52.5 -238.5q-108 -362 -305.5 -586.5t-392.5 -224.5 q-54 0 -84.5 23t-30.5 63q0 32 24 50.5t66 18.5q12 0 39 -5t43 -5q96 0 197.5 90.5t171.5 241.5zM334 1083l289 299q35 36 55.5 48t40.5 12q33 0 53.5 -20t20.5 -52q0 -21 -15.5 -41.5t-46.5 -40.5l-330 -205h-67z" />
<glyph unicode="&#xfe;" horiz-adv-x="1133" d="M160 1264q0 30 -8.5 46.5t-31.5 31.5q-8 5 -25 14q-38 19 -38 43q0 28 100 76q32 15 50 24q21 10 40 15.5t34 5.5q20 0 28 -19t8 -86v-598q63 74 144.5 114t171.5 40q199 0 318.5 -136t119.5 -362q0 -230 -130.5 -367t-348.5 -137q-104 0 -168 28t-64 71q0 22 14 34.5 t38 12.5q12 0 70 -18.5t106 -18.5q142 0 224.5 107.5t82.5 293.5q0 161 -83.5 260t-219.5 99q-107 0 -191 -63t-84 -146v-813q0 -49 9 -67t47 -38q6 -3 17 -8q44 -20 44 -53q0 -23 -18 -32t-64 -9h-227q-41 0 -58.5 8t-17.5 27q0 35 46 60q7 4 9 5q5 3 12 7q44 26 44 98 v1450z" />
<glyph unicode="&#xff;" horiz-adv-x="1018" d="M580 84q-28 -15 -55.5 -23t-55.5 -8q-132 0 -222 134t-143 409q-10 57 -18 137.5t-16 97.5q-10 19 -40 41.5t-30 45.5q0 17 18 23.5t74 6.5h135q69 0 87 -8t18 -31q0 -24 -31 -41q-7 -4 -10 -6q-33 -20 -43 -42t-10 -81q0 -63 19 -151t56 -191q43 -119 95.5 -175 t121.5 -56q62 0 101.5 38.5t81.5 147.5q38 100 61 213t23 201q0 30 -7 50t-22 32q-12 9 -35 20q-39 18 -39 43q0 21 16.5 29t69.5 8h109q54 0 74 -10t20 -35q0 -11 -19.5 -36t-27.5 -48q-10 -27 -31.5 -162.5t-52.5 -238.5q-108 -362 -305.5 -586.5t-392.5 -224.5 q-54 0 -84.5 23t-30.5 63q0 32 24 50.5t66 18.5q12 0 39 -5t43 -5q96 0 197.5 90.5t171.5 241.5zM586 1237q0 40 30 70t70 30t69 -30t29 -70q0 -42 -28 -70t-70 -28t-71 28t-29 70zM236 1237q0 40 29 70t69 30t70 -30t30 -70q0 -42 -29 -70t-71 -28t-70 28t-28 70z" />
<glyph unicode="&#x106;" horiz-adv-x="1432" d="M782 -45q-325 0 -518.5 208t-193.5 558q0 172 50.5 312t151.5 249q107 116 246 173.5t311 57.5q150 0 285 -42t178 -93q17 -19 25 -84t8 -178q0 -31 -8 -42t-29 -11q-37 0 -60 56q-17 41 -34 67q-70 108 -169 163.5t-222 55.5q-232 0 -377 -185t-145 -485 q0 -299 145 -473t393 -174q100 0 185 29.5t172 95.5q36 28 85.5 86.5t71.5 58.5q20 0 35.5 -15.5t15.5 -35.5q0 -35 -34 -88.5t-88 -97.5q-103 -84 -221 -125t-259 -41zM643 1624l289 299q35 36 55.5 48t40.5 12q33 0 53.5 -20t20.5 -52q0 -21 -15.5 -41.5t-46.5 -40.5 l-330 -205h-67z" />
<glyph unicode="&#x107;" horiz-adv-x="905" d="M836 248q22 0 35.5 -9t13.5 -24q0 -29 -30 -72.5t-79 -81.5q-57 -45 -126.5 -67.5t-153.5 -22.5q-187 0 -308.5 132.5t-121.5 336.5q0 229 134 381t335 152q135 0 227 -56.5t92 -132.5q0 -33 -25 -57.5t-59 -24.5q-41 0 -86 59q-7 9 -10 13q-44 57 -77.5 73.5t-82.5 16.5 q-121 0 -196.5 -111.5t-75.5 -293.5q0 -166 81 -265.5t216 -99.5q40 0 79.5 11t75.5 32q44 25 87.5 68t54.5 43zM346 1083l289 299q35 36 55.5 48t40.5 12q33 0 53.5 -20t20.5 -52q0 -21 -15.5 -41.5t-46.5 -40.5l-330 -205h-67z" />
<glyph unicode="&#x10c;" horiz-adv-x="1432" d="M782 -45q-325 0 -518.5 208t-193.5 558q0 172 50.5 312t151.5 249q107 116 246 173.5t311 57.5q150 0 285 -42t178 -93q17 -19 25 -84t8 -178q0 -31 -8 -42t-29 -11q-37 0 -60 56q-17 41 -34 67q-70 108 -169 163.5t-222 55.5q-232 0 -377 -185t-145 -485 q0 -299 145 -473t393 -174q100 0 185 29.5t172 95.5q36 28 85.5 86.5t71.5 58.5q20 0 35.5 -15.5t15.5 -35.5q0 -35 -34 -88.5t-88 -97.5q-103 -84 -221 -125t-259 -41zM528 1973h58l233 -211l233 211h58l-232 -349h-118z" />
<glyph unicode="&#x10d;" horiz-adv-x="905" d="M836 248q22 0 35.5 -9t13.5 -24q0 -29 -30 -72.5t-79 -81.5q-57 -45 -126.5 -67.5t-153.5 -22.5q-187 0 -308.5 132.5t-121.5 336.5q0 229 134 381t335 152q135 0 227 -56.5t92 -132.5q0 -33 -25 -57.5t-59 -24.5q-41 0 -86 59q-7 9 -10 13q-44 57 -77.5 73.5t-82.5 16.5 q-121 0 -196.5 -111.5t-75.5 -293.5q0 -166 81 -265.5t216 -99.5q40 0 79.5 11t75.5 32q44 25 87.5 68t54.5 43zM231 1432h58l233 -211l233 211h58l-232 -349h-118z" />
<glyph unicode="&#x111;" horiz-adv-x="1149" d="M803 762q-46 50 -115 79t-143 29q-145 0 -232.5 -111.5t-87.5 -299.5q0 -172 81 -270.5t222 -98.5q69 0 133.5 22t106.5 60q19 16 27 39t8 72v14v465zM823 109q-71 -69 -156 -103.5t-182 -34.5q-190 0 -313 133t-123 340q0 229 133.5 379t339.5 150q75 0 147 -21.5 t134 -62.5v244h-287q-27 0 -36 7t-9 29q0 24 9 31.5t36 7.5h287v33q0 40 -12 60.5t-41 33.5q-10 4 -27 11q-49 18 -49 40q0 29 84.5 78t140.5 49q34 0 48 -25.5t14 -92.5v-187h133q26 0 35.5 -8t9.5 -31q0 -22 -8 -29t-37 -7h-133v-883q0 -51 3.5 -79.5t12.5 -41.5 q12 -17 60 -38.5t48 -51.5q0 -20 -15.5 -29.5t-49.5 -9.5h-102q-48 0 -63 18.5t-32 90.5z" />
<glyph unicode="&#x11e;" horiz-adv-x="1583" d="M1458 205q0 -26 -24 -53.5t-72 -55.5q-127 -72 -254 -105.5t-277 -33.5q-173 0 -309.5 51.5t-236.5 155.5q-104 105 -157.5 242.5t-53.5 298.5q0 188 69.5 346t204.5 276q105 93 238 139.5t291 46.5q136 0 258.5 -34.5t195.5 -92.5q30 -22 46 -80.5t16 -148.5 q0 -39 -12 -58.5t-35 -19.5q-24 0 -53 60q-17 36 -29 57q-61 102 -163 155.5t-237 53.5q-123 0 -226.5 -49t-184.5 -146q-79 -93 -124.5 -226.5t-45.5 -272.5q0 -287 168.5 -468.5t435.5 -181.5q91 0 172 26t139 73q39 31 55.5 85t16.5 163q0 118 -8 156.5t-29 51.5 q-26 16 -72.5 23.5t-122.5 7.5q-57 0 -72.5 11t-15.5 38q0 31 25 42.5t123 11.5h24q35 0 86.5 1t69.5 1q108 0 140 -19.5t32 -77.5q0 -17 -3 -89t-3 -128q0 -96 11 -200q3 -26 3 -33zM500 1934h51q17 -74 75 -108t167 -34t166 33.5t74 108.5h51q-20 -133 -94 -202t-197 -69 q-122 0 -197 69t-96 202z" />
<glyph unicode="&#x11f;" horiz-adv-x="1016" d="M217 514q0 -175 70 -269.5t200 -94.5q133 0 203 93.5t70 270.5q0 167 -72 259.5t-201 92.5q-128 0 -199 -92t-71 -260zM756 131q109 -39 162 -97t53 -138q0 -137 -134.5 -218t-363.5 -81q-196 0 -303 47.5t-107 134.5q0 49 34 87t77 38q14 0 23.5 -11t9.5 -28 q0 -9 -5 -23.5t-5 -19.5q0 -46 72.5 -71t205.5 -25q160 0 247 43.5t87 124.5q0 55 -39.5 96t-128.5 78q-60 -12 -100.5 -17.5t-67.5 -5.5q-188 0 -307 129t-119 334q0 207 122 336t318 129q55 0 143 -11.5t124 -11.5q8 0 57.5 2t89.5 2q49 0 74.5 -16t25.5 -47 q0 -33 -30.5 -47.5t-104.5 -14.5q-2 0 -10 1q-28 1 -53 1q60 -58 92.5 -140.5t32.5 -176.5q0 -117 -43.5 -213.5t-128.5 -169.5zM215 1393h51q17 -74 75 -108t167 -34t166 33.5t74 108.5h51q-20 -133 -94 -202t-197 -69q-122 0 -197 69t-96 202z" />
<glyph unicode="&#x130;" horiz-adv-x="563" d="M406 1479q48 0 67 -10.5t19 -34.5q0 -28 -51 -55q-22 -12 -33 -19q-19 -12 -27 -36.5t-8 -76.5v-1014q0 -44 4.5 -65.5t15.5 -36.5q9 -12 54 -35t45 -51q0 -25 -19 -35t-67 -10h-250q-49 0 -67.5 10t-18.5 35q0 27 51 54q23 12 35 20q18 12 26 37t8 77v1014q0 44 -4.5 65 t-15.5 36q-10 12 -55 35t-45 51q0 24 18.5 34.5t67.5 10.5h250zM179 1780q0 43 30.5 73.5t73.5 30.5q42 0 73 -31t31 -73q0 -44 -30.5 -75t-73.5 -31q-44 0 -74 30.5t-30 75.5z" />
<glyph unicode="&#x131;" horiz-adv-x="498" d="M176 721q0 36 -7.5 50t-29.5 28q-9 6 -27 15q-36 18 -36 38q0 15 10.5 27t36.5 26l14 8q122 64 162 64q21 0 29 -19t8 -88v-702q0 -26 6 -43t18 -23q14 -6 34 -14q52 -21 52 -49q0 -22 -17 -30.5t-64 -8.5h-215q-43 0 -58.5 8.5t-15.5 28.5q0 15 8 26t29 21q8 4 22 10 q41 17 41 70v557z" />
<glyph unicode="&#x141;" horiz-adv-x="1204" d="M162 0q-49 0 -67.5 10t-18.5 35q0 27 51 55q21 11 33 19q19 12 27 37t8 77v422l-116 -80q-3 -2 -8 -6q-9 -8 -18 -8q-15 0 -33 21t-18 36q0 11 5 18.5t19 16.5l169 115v479q0 44 -5 65t-16 36q-9 12 -53.5 35t-44.5 51q0 24 18.5 34.5t67.5 10.5h248q61 0 80.5 -9 t19.5 -32q0 -33 -53 -54q-29 -12 -45 -22q-21 -12 -29 -36.5t-8 -78.5v-381l295 207q1 1 6 4q13 8 22 8q16 0 33 -20.5t17 -36.5q0 -15 -23 -31l-2 -2l-348 -243v-486q0 -106 38 -130.5t222 -24.5q163 0 247 14t152 47q26 13 75 46.5t71 33.5q18 0 26 -10.5t8 -32.5 q0 -55 -12 -109.5t-23 -69.5q-14 -17 -38.5 -23.5t-102.5 -6.5h-876z" />
<glyph unicode="&#x142;" horiz-adv-x="477" d="M156 682l-93 -64q-9 -7 -17 -10.5t-15 -3.5q-12 0 -24.5 14t-12.5 27q0 10 5.5 17.5t20.5 17.5l136 94v490q0 35 -8 49t-30 29q-9 6 -27 15q-36 18 -36 38q0 15 11.5 28t37.5 27l6 3q127 67 169 67q21 0 28.5 -18.5t7.5 -86.5v-551l93 66q9 7 17 10.5t15 3.5 q12 0 24.5 -14.5t12.5 -26.5q0 -15 -23 -32q-3 -2 -3 -3l-136 -96v-604q0 -26 7 -43.5t17 -21.5q11 -5 31 -13q56 -22 56 -51q0 -21 -17.5 -30t-64.5 -9h-215q-43 0 -58.5 8.5t-15.5 28.5q0 15 8.5 26t28.5 21q8 4 23 10q41 16 41 70v518z" />
<glyph unicode="&#x152;" horiz-adv-x="2259" d="M1229 365v770q0 97 -12.5 131.5t-42.5 58.5q-45 35 -138.5 56.5t-210.5 21.5q-276 0 -416.5 -168.5t-140.5 -499.5q0 -321 134 -493t382 -172q239 0 342 68t103 227zM1417 0q-156 0 -363 -17.5t-261 -17.5q-345 0 -532 200t-187 570q0 367 198 569.5t557 202.5 q64 0 252.5 -14t313.5 -14h643q90 0 110.5 -32.5t20.5 -184.5q0 -24 -6.5 -32.5t-22.5 -8.5t-50 37t-67 59q-41 27 -125.5 39t-234.5 12q-102 0 -150 -7t-73 -24q-19 -12 -26 -40t-7 -109v-326h385q50 0 78 4t43 13q9 5 35 26t43 21q18 0 26 -12.5t8 -51.5v-112 q0 -36 -8 -51t-26 -15t-43.5 20.5t-34.5 26.5q-15 9 -43 13t-78 4h-385v-443q0 -127 27.5 -157.5t124.5 -30.5h206q102 0 173 13t124 42q35 20 76 65.5t60 45.5q18 0 26 -10t8 -33q0 -65 -12.5 -129t-21.5 -78q-15 -18 -47 -25.5t-109 -7.5h-625z" />
<glyph unicode="&#x153;" horiz-adv-x="1802" d="M948 188q-79 -112 -182.5 -166.5t-241.5 -54.5q-207 0 -341 136.5t-134 347.5q0 222 143 372t357 150q134 0 238 -57t178 -171q84 112 192.5 170t235.5 58q148 0 242 -74.5t94 -189.5q0 -159 -157 -242.5t-515 -112.5q23 -115 114.5 -187.5t212.5 -72.5q62 0 115.5 18 t102.5 54q15 12 40 37q40 39 60 39q17 0 29 -13t12 -32q0 -24 -26.5 -60.5t-69.5 -68.5q-68 -51 -143.5 -76t-162.5 -25q-129 0 -230 57t-163 164zM555 872q-146 0 -239 -111t-93 -290q0 -174 88.5 -283.5t227.5 -109.5q152 0 243.5 113t91.5 303q0 161 -93 269.5 t-226 108.5zM1047 457q257 10 387.5 75.5t130.5 184.5q0 71 -53.5 117.5t-135.5 46.5q-140 0 -234 -119.5t-95 -304.5z" />
<glyph unicode="&#x15e;" horiz-adv-x="1194" d="M569 -43q-121 0 -222 34t-181 101q-65 57 -105.5 124t-40.5 116q0 31 18 49t48 18q38 0 71 -67q22 -45 40 -70q69 -95 159.5 -141.5t208.5 -46.5q182 0 293 87t111 228q0 118 -76 180.5t-291 104.5q-185 37 -256 62t-119 61q-67 50 -103 122t-36 156q0 198 132.5 317 t354.5 119q123 0 230.5 -29t165.5 -77q23 -19 32 -44t9 -101v-35q0 -42 -6.5 -53t-24.5 -11q-17 0 -63 51.5t-84 85.5q-66 57 -138 85t-149 28q-132 0 -211.5 -71.5t-79.5 -188.5q0 -103 63 -165t201 -95q52 -12 149 -31q196 -36 269 -78q94 -53 141 -137t47 -196 q0 -223 -153 -357.5t-404 -134.5zM350 -371l35 78q61 -34 119.5 -53t103.5 -19q64 0 92.5 22t28.5 71q0 42 -29.5 66t-82.5 24q-14 0 -29 -1.5t-33 -4.5v188h64v-112q16 2 31.5 3.5t29.5 2.5q87 0 134.5 -43.5t47.5 -120.5q0 -82 -58 -129t-161 -47q-54 0 -121.5 17 t-171.5 58z" />
<glyph unicode="&#x15f;" horiz-adv-x="784" d="M25 186q0 29 18.5 47.5t46.5 18.5q31 0 74 -54q13 -15 20 -24q41 -46 92 -69t115 -23q90 0 147.5 47t57.5 121q0 104 -236 161q-13 3 -21 5q-147 36 -210 97t-63 165q0 134 90 214.5t241 80.5q144 0 222.5 -41.5t78.5 -116.5q0 -55 -8 -73.5t-31 -18.5q-27 0 -64 44 q-15 17 -24 26q-38 39 -90 60t-112 21q-72 0 -120 -41.5t-48 -103.5q0 -52 31.5 -82t121.5 -55q29 -8 82 -21q131 -31 174 -59q62 -40 92.5 -94t30.5 -123q0 -145 -97.5 -234.5t-256.5 -89.5q-135 0 -244.5 72.5t-109.5 142.5zM155 -371l35 78q61 -34 119.5 -53t103.5 -19 q64 0 92.5 22t28.5 71q0 42 -29.5 66t-82.5 24q-14 0 -29 -1.5t-33 -4.5v188h64v-112q16 2 31.5 3.5t29.5 2.5q87 0 134.5 -43.5t47.5 -120.5q0 -82 -58 -129t-161 -47q-54 0 -121.5 17t-171.5 58z" />
<glyph unicode="&#x160;" horiz-adv-x="1194" d="M569 -43q-121 0 -222 34t-181 101q-65 57 -105.5 124t-40.5 116q0 31 18 49t48 18q38 0 71 -67q22 -45 40 -70q69 -95 159.5 -141.5t208.5 -46.5q182 0 293 87t111 228q0 118 -76 180.5t-291 104.5q-185 37 -256 62t-119 61q-67 50 -103 122t-36 156q0 198 132.5 317 t354.5 119q123 0 230.5 -29t165.5 -77q23 -19 32 -44t9 -101v-35q0 -42 -6.5 -53t-24.5 -11q-17 0 -63 51.5t-84 85.5q-66 57 -138 85t-149 28q-132 0 -211.5 -71.5t-79.5 -188.5q0 -103 63 -165t201 -95q52 -12 149 -31q196 -36 269 -78q94 -53 141 -137t47 -196 q0 -223 -153 -357.5t-404 -134.5zM307 1973h58l233 -211l233 211h58l-232 -349h-118z" />
<glyph unicode="&#x161;" horiz-adv-x="784" d="M25 186q0 29 18.5 47.5t46.5 18.5q31 0 74 -54q13 -15 20 -24q41 -46 92 -69t115 -23q90 0 147.5 47t57.5 121q0 104 -236 161q-13 3 -21 5q-147 36 -210 97t-63 165q0 134 90 214.5t241 80.5q144 0 222.5 -41.5t78.5 -116.5q0 -55 -8 -73.5t-31 -18.5q-27 0 -64 44 q-15 17 -24 26q-38 39 -90 60t-112 21q-72 0 -120 -41.5t-48 -103.5q0 -52 31.5 -82t121.5 -55q29 -8 82 -21q131 -31 174 -59q62 -40 92.5 -94t30.5 -123q0 -145 -97.5 -234.5t-256.5 -89.5q-135 0 -244.5 72.5t-109.5 142.5zM102 1432h58l233 -211l233 211h58l-232 -349 h-118z" />
<glyph unicode="&#x178;" horiz-adv-x="1348" d="M762 233q0 -44 5 -66t15 -36q10 -12 54.5 -35t44.5 -51q0 -25 -18.5 -35t-67.5 -10h-248q-49 0 -67.5 10t-18.5 35q0 27 51 55q21 11 33 19q19 12 28 38.5t9 75.5v316q0 55 -128 222q-113 148 -182 253q-51 78 -115 187.5t-83 129.5q-14 16 -63.5 39.5t-49.5 57.5 q0 21 19 31t59 10h258q53 0 73.5 -9t20.5 -30q0 -35 -45 -59q-14 -7 -20 -11q-12 -6 -19.5 -18.5t-7.5 -26.5q0 -33 115 -207.5t291 -398.5q199 258 284.5 399t85.5 207q0 26 -41 50q-11 6 -16 9q0 1 -1 1q-46 26 -46 55q0 18 16.5 28.5t46.5 10.5h203q70 0 89.5 -8 t19.5 -29q0 -19 -37.5 -50t-61.5 -69q-112 -177 -233.5 -356t-251.5 -361v-373zM750 1778q0 40 30 70t70 30t69 -30t29 -70q0 -42 -28 -70t-70 -28t-71 28t-29 70zM400 1778q0 40 29 70t69 30t70 -30t30 -70q0 -42 -29 -70t-71 -28t-70 28t-28 70z" />
<glyph unicode="&#x17d;" horiz-adv-x="1128" d="M182 0q-100 0 -125.5 16t-25.5 60q0 57 70.5 176t226.5 326l126 166q400 528 400 597q0 19 -21 27t-69 8h-207q-84 0 -152.5 -14t-111.5 -41t-83 -72t-56 -45q-19 0 -27 12t-8 41q0 162 17 192t89 30h713q86 0 109.5 -16t23.5 -58q0 -60 -86.5 -203t-265.5 -379 q-223 -294 -341 -470t-118 -214q0 -15 13.5 -21.5t41.5 -6.5h256q124 0 197 15t135 50q44 24 92.5 72.5t67.5 48.5q13 0 20.5 -11.5t8.5 -33.5q0 -66 -11 -132t-24 -99q-6 -12 -21.5 -16.5t-48.5 -4.5h-805zM274 1973h58l233 -211l233 211h58l-232 -349h-118z" />
<glyph unicode="&#x17e;" horiz-adv-x="784" d="M123 0q-71 0 -97 12t-26 41q0 63 107 200l8 9l104 130q295 369 342 454h-244q-59 0 -87.5 -6t-43.5 -21q-17 -16 -41 -49q-34 -49 -63 -49q-16 0 -22.5 11t-6.5 40q0 98 30.5 137t111.5 39h423q71 0 96 -15.5t25 -53.5q0 -60 -198 -310q-60 -77 -95 -120 q-44 -58 -116 -148q-121 -152 -121 -172q0 -16 10.5 -22.5t40.5 -6.5h33l140 7q78 3 127 17.5t66 38.5q7 10 16 24q43 65 69 65q19 0 26.5 -10t7.5 -35q0 -51 -12.5 -106.5t-23.5 -71.5q-12 -16 -31.5 -22.5t-79.5 -6.5h-475zM102 1432h58l233 -211l233 211h58l-232 -349 h-118z" />
<glyph unicode="&#x192;" horiz-adv-x="1124" d="M524 881q37 310 131.5 469t243.5 159q57 0 94 -31.5t37 -78.5q0 -36 -22.5 -60t-55.5 -24q-17 0 -50.5 23.5t-55.5 23.5q-46 0 -80 -78.5t-55 -234.5l-25 -168h148q34 0 45.5 -11.5t11.5 -44.5q0 -40 -10 -48.5t-45 -8.5h-162l-78 -588q-36 -274 -129.5 -416.5 t-237.5 -142.5q-65 0 -108 33.5t-43 81.5q0 39 23.5 63.5t62.5 24.5q23 0 61 -26.5t56 -26.5q60 0 93.5 89t67.5 378l64 530h-131q-31 0 -42 11t-11 46q0 34 10.5 45t46.5 11h145z" />
<glyph unicode="&#x2c6;" d="M221 1083l232 349h118l232 -349h-58l-233 209l-233 -209h-58z" />
<glyph unicode="&#x2c7;" d="M221 1432h58l233 -211l233 211h58l-232 -349h-118z" />
<glyph unicode="&#x2d8;" d="M219 1393h51q17 -74 75 -108t167 -34t166 33.5t74 108.5h51q-20 -133 -94 -202t-197 -69q-122 0 -197 69t-96 202z" />
<glyph unicode="&#x2d9;" d="M408 1239q0 43 30.5 73.5t73.5 30.5q42 0 73 -31t31 -73q0 -44 -30.5 -75t-73.5 -31q-44 0 -74 30.5t-30 75.5z" />
<glyph unicode="&#x2da;" d="M362 1305q0 -63 43.5 -106.5t106.5 -43.5t106.5 43.5t43.5 106.5q0 61 -44.5 105t-105.5 44q-62 0 -106 -43.5t-44 -105.5zM272 1305q0 101 69.5 170t170.5 69q102 0 172 -69t70 -170q0 -102 -70.5 -172t-171.5 -70t-170.5 70t-69.5 172z" />
<glyph unicode="&#x2db;" d="M688 31q-91 -72 -136.5 -138t-45.5 -129q0 -54 27.5 -86t72.5 -32q40 0 69.5 18t49.5 55l31 -18q-36 -72 -91.5 -111t-121.5 -39q-70 0 -114 40.5t-44 103.5q0 88 62 170.5t190 165.5h51z" />
<glyph unicode="&#x2dc;" d="M799 1380q-20 -103 -68.5 -153.5t-126.5 -50.5q-15 0 -32.5 2t-41.5 8l-109 29q-12 3 -24 4.5t-24 1.5q-39 0 -60.5 -20t-36.5 -71h-51q19 106 68 158.5t129 52.5q17 0 32.5 -2t30.5 -6l110 -28q24 -6 36.5 -8.5t19.5 -2.5q36 0 58 20t36 66h54z" />
<glyph unicode="&#x2dd;" d="M594 1083l143 279q24 44 45.5 63t46.5 19q28 0 48 -20t20 -48q0 -16 -11 -36.5t-30 -41.5l-203 -215h-59zM319 1083l144 279q24 44 45.5 63t46.5 19q28 0 48 -20t20 -48q0 -16 -11 -36.5t-30 -41.5l-205 -215h-58z" />
<glyph unicode="&#x3a9;" horiz-adv-x="1567" d="M1100 188v-26h313l66 203h61l-108 -365h-500q134 233 202 451t68 413q0 271 -107.5 416t-308.5 145t-309 -145t-108 -416q0 -195 68 -411t204 -453h-500l-110 365h61l68 -203h311v26q-165 203 -234 361.5t-69 327.5q0 272 174.5 446t443.5 174t443 -174.5t174 -445.5 q0 -169 -69 -327.5t-234 -361.5z" />
<glyph unicode="&#x3c0;" horiz-adv-x="1354" d="M1329 885l-35 -162h-329q-34 -179 -54 -452q-23 -314 -120 -314q-38 0 -58 24.5t-20 69.5q0 58 77 280.5t117 391.5h-375q-33 -177 -53 -448q-25 -318 -123 -318q-37 0 -57 25t-20 71q0 56 77.5 277t118.5 393h-133q-136 0 -180 -43.5t-72 -171.5h-59q37 207 117.5 292 t238.5 85h942z" />
<glyph unicode="&#x2013;" d="M0 410v122h1024v-122h-1024z" />
<glyph unicode="&#x2014;" horiz-adv-x="2048" d="M0 535h2048v-125h-2048v125z" />
<glyph unicode="&#x2018;" horiz-adv-x="561" d="M416 1493q0 -17 -35 -54q-19 -21 -29 -34q-36 -45 -56 -89t-20 -79q0 -26 10 -37.5t31 -11.5q7 0 19.5 1t17.5 1q43 0 67.5 -26t24.5 -72q0 -53 -32.5 -86t-85.5 -33q-64 0 -99.5 48.5t-35.5 135.5q0 60 19.5 119.5t57.5 118.5q38 55 71.5 88t53.5 33q10 -1 15.5 -7 t5.5 -16z" />
<glyph unicode="&#x2019;" horiz-adv-x="561" d="M145 993q0 17 33 51q20 22 31 35q36 45 56 89.5t20 78.5q0 27 -10 39t-31 12q-7 0 -19.5 -1t-17.5 -1q-44 0 -68 25.5t-24 71.5q0 53 33 86.5t85 33.5q64 0 100 -49t36 -137q0 -59 -19.5 -119t-58.5 -118q-37 -56 -71 -88.5t-54 -32.5q-9 0 -15 6.5t-6 17.5z" />
<glyph unicode="&#x201a;" horiz-adv-x="561" d="M176 -330q0 17 33 51q20 22 31 36q36 44 55.5 88.5t19.5 78.5q0 27 -9.5 39t-31.5 12q-6 0 -19 -1t-17 -1q-44 0 -68.5 25.5t-24.5 71.5q0 53 33.5 86.5t85.5 33.5q64 0 99.5 -49t35.5 -137q0 -59 -19.5 -119t-57.5 -118q-38 -56 -71.5 -88.5t-53.5 -32.5 q-10 0 -15.5 6.5t-5.5 17.5z" />
<glyph unicode="&#x201c;" horiz-adv-x="948" d="M803 1493q0 -17 -34 -54q-19 -21 -30 -34q-36 -45 -55.5 -89t-19.5 -79q0 -26 9.5 -37.5t31.5 -11.5q6 0 19 1t17 1q43 0 68 -26t25 -72q0 -53 -33 -86t-86 -33q-65 0 -101 48.5t-36 135.5q0 60 19.5 119.5t57.5 118.5q37 55 72 88t55 33q10 -1 15.5 -7t5.5 -16z M416 1493q0 -17 -35 -54q-19 -21 -29 -34q-36 -45 -56 -89t-20 -79q0 -26 10 -37.5t31 -11.5q7 0 19.5 1t17.5 1q43 0 67.5 -26t24.5 -72q0 -53 -32.5 -86t-85.5 -33q-64 0 -99.5 48.5t-35.5 135.5q0 60 19.5 119.5t57.5 118.5q38 55 71.5 88t53.5 33q10 -1 15.5 -7t5.5 -16 z" />
<glyph unicode="&#x201d;" horiz-adv-x="948" d="M530 993q0 17 33 51q20 22 31 35q37 46 57.5 90.5t20.5 77.5q0 26 -11 38.5t-32 12.5q-7 0 -18.5 -1t-16.5 -1q-44 0 -68 25.5t-24 71.5q0 53 33 86.5t86 33.5q63 0 99 -49t36 -137q0 -59 -19.5 -119t-58.5 -118q-37 -55 -72 -88t-55 -33q-9 0 -15 6.5t-6 17.5zM145 993 q0 17 33 51q20 22 31 35q36 45 56 89.5t20 78.5q0 27 -10 39t-31 12q-7 0 -19.5 -1t-17.5 -1q-44 0 -68 25.5t-24 71.5q0 53 33 86.5t85 33.5q64 0 100 -49t36 -137q0 -59 -19.5 -119t-58.5 -118q-37 -56 -71 -88.5t-54 -32.5q-9 0 -15 6.5t-6 17.5z" />
<glyph unicode="&#x201e;" horiz-adv-x="948" d="M176 -330q0 17 33 53q18 21 29 33q36 46 56.5 90.5t20.5 77.5q0 27 -9.5 39t-31.5 12q-6 0 -19 -1t-17 -1q-44 0 -68.5 25.5t-24.5 71.5q0 53 33.5 86.5t85.5 33.5q64 0 99.5 -48t35.5 -136q0 -60 -19.5 -120.5t-57.5 -118.5q-37 -55 -71 -87t-54 -32q-10 0 -15.5 6 t-5.5 16zM561 -330q0 17 33 51q20 22 31 36q37 45 57 89.5t20 77.5q0 26 -10.5 38.5t-32.5 12.5q-6 0 -17.5 -1t-16.5 -1q-44 0 -68.5 25.5t-24.5 71.5q0 53 32.5 86.5t84.5 33.5q65 0 101 -48.5t36 -135.5q0 -60 -19.5 -120.5t-57.5 -118.5q-36 -55 -71 -87t-56 -32 q-10 0 -15 5.5t-6 16.5z" />
<glyph unicode="&#x2020;" horiz-adv-x="1006" d="M387 643q46 79 69 159.5t23 164.5q0 7 -1 21t-1 21q-73 -2 -164.5 -38.5t-117.5 -36.5q-50 0 -78.5 25.5t-28.5 70.5q0 41 29.5 68.5t72.5 27.5q29 0 117.5 -34.5t155.5 -34.5h14q1 8 1.5 18t0.5 29q0 98 -36.5 196.5t-36.5 110.5q0 45 27 72.5t73 27.5q42 0 69 -28 t27 -72q0 -29 -30 -94q-17 -38 -25 -59q-9 -28 -14 -78t-5 -121h23q64 0 149 33.5t109 33.5q48 0 77 -26.5t29 -69.5q0 -45 -28 -70.5t-78 -25.5q-25 0 -114.5 38t-168.5 38q0 -118 23 -208.5t69 -158.5q-35 -150 -55 -316t-24 -345q-1 -34 -1 -87q-1 -118 -34 -118 q-30 0 -31 106q0 59 -2 99q-6 185 -27 350t-57 311z" />
<glyph unicode="&#x2021;" horiz-adv-x="1006" d="M387 643q46 79 69 159.5t23 164.5q0 7 -1 21t-1 21q-73 -2 -164.5 -38.5t-117.5 -36.5q-50 0 -78.5 25.5t-28.5 70.5q0 41 29.5 68.5t72.5 27.5q29 0 117.5 -34.5t155.5 -34.5h14q1 8 1.5 18t0.5 29q0 98 -36.5 196.5t-36.5 110.5q0 46 26.5 73t71.5 27q42 0 70 -28 t28 -72q0 -28 -25 -81t-32 -72q-9 -26 -13 -73.5t-4 -125.5h23q64 0 149 33.5t109 33.5q48 0 77 -26.5t29 -69.5q0 -45 -28 -70.5t-78 -25.5q-25 0 -115.5 38t-169.5 37q2 -122 24.5 -209t69.5 -159q-46 -79 -69 -159.5t-23 -164.5q0 -7 1 -21t1 -21q73 2 164.5 38.5 t118.5 36.5q50 0 78.5 -25.5t28.5 -70.5q0 -41 -29.5 -68.5t-73.5 -27.5q-28 0 -116.5 34.5t-155.5 34.5h-14q-2 -9 -2.5 -18.5t-0.5 -28.5q0 -98 38 -196.5t38 -110.5q0 -45 -28.5 -73.5t-73.5 -28.5q-42 0 -68 28.5t-26 73.5q0 30 29 97q16 36 24 57q9 28 13.5 77t4.5 121 h-22q-64 0 -149 -33.5t-109 -33.5q-48 0 -77.5 26.5t-29.5 69.5q0 45 28.5 70.5t78.5 25.5q24 0 114 -38t168 -38q0 121 -22.5 211t-69.5 158z" />
<glyph unicode="&#x2022;" horiz-adv-x="1208" d="M307 762q0 123 87 209t210 86q122 0 208.5 -86.5t86.5 -208.5t-87.5 -209.5t-209.5 -87.5q-123 0 -209 87t-86 210z" />
<glyph unicode="&#x2026;" horiz-adv-x="2048" d="M231 82q0 46 32 78.5t79 32.5q46 0 78 -32.5t32 -78.5t-32 -78.5t-78 -32.5q-47 0 -79 32.5t-32 78.5zM913 82q0 46 32 78.5t79 32.5q46 0 78 -32.5t32 -78.5t-32 -78.5t-78 -32.5q-47 0 -79 32.5t-32 78.5zM1597 82q0 46 32 78.5t79 32.5q46 0 78 -32.5t32 -78.5 t-32 -78.5t-78 -32.5q-47 0 -79 32.5t-32 78.5z" />
<glyph unicode="&#x2030;" horiz-adv-x="2599" d="M1960 334q0 -141 52.5 -216t150.5 -75q97 0 148.5 74.5t51.5 216.5t-51.5 217.5t-148.5 75.5q-98 0 -150.5 -76t-52.5 -217zM1800 334q0 162 100.5 262t262.5 100q161 0 260.5 -100t99.5 -262q0 -163 -99.5 -263t-260.5 -100q-162 0 -262.5 101t-100.5 262zM1122 334 q0 -141 52.5 -216t150.5 -75t150.5 75t52.5 216t-52.5 217t-150.5 76t-150.5 -76t-52.5 -217zM963 334q0 162 100 262t262 100q161 0 261 -100t100 -262q0 -163 -100 -263t-261 -100t-261.5 101t-100.5 262zM465 20l760 1346q-49 -28 -106.5 -42.5t-121.5 -14.5 q-53 0 -97.5 8.5t-82.5 25.5q26 -42 38.5 -90t12.5 -108q0 -162 -100 -262.5t-262 -100.5t-261.5 100t-99.5 263t99.5 262.5t261.5 99.5q90 0 207 -49q23 -10 35 -14q70 -28 134.5 -41.5t121.5 -13.5q64 0 127 21.5t123 64.5q10 7 28 23q44 40 78 40q12 0 20.5 -10t8.5 -23 q-1 -6 -3.5 -13.5t-9.5 -19.5l-825 -1470q-15 -26 -29 -36.5t-35 -10.5q-15 0 -25.5 8.5t-10.5 22.5q0 6 3.5 14.5t10.5 19.5zM305 1145q0 -142 52 -217.5t149 -75.5q98 0 150.5 75.5t52.5 217.5q0 141 -52.5 216t-150.5 75t-149.5 -75t-51.5 -216z" />
<glyph unicode="&#x2039;" horiz-adv-x="498" d="M389 225q5 -6 12 -15q23 -29 23 -40q0 -17 -13 -25t-40 -8q-30 0 -50 11t-47 45l-190 231q-11 15 -16 26t-5 21q0 13 5.5 25t15.5 24l190 232q28 33 47.5 43t59.5 10q21 0 32 -7.5t11 -23.5q0 -11 -23 -40l-12 -15l-166 -209q-12 -16 -17 -24.5t-5 -12.5q0 -9 18 -33 q3 -4 4 -6z" />
<glyph unicode="&#x203a;" horiz-adv-x="498" d="M111 716q-5 7 -12 16q-23 29 -23 40q0 16 12 23.5t41 7.5q31 0 51 -11t45 -42l191 -234q12 -16 16 -25.5t4 -19.5q0 -13 -5 -25t-15 -24l-191 -232q-27 -33 -46.5 -43t-59.5 -10q-22 0 -32.5 8t-10.5 23q0 11 23 40q7 9 12 16l165 208q13 16 18 24.5t5 12.5q0 9 -18 33 q-3 4 -4 5z" />
<glyph unicode="&#x20a3;" horiz-adv-x="1835" d="M365 233q0 -45 4.5 -66.5t15.5 -35.5q10 -12 61.5 -33t51.5 -51q0 -26 -19 -36.5t-71 -10.5h-265q-52 0 -72 10.5t-20 36.5q0 30 58 55q27 12 41 19q18 10 26 36t8 76v1014q0 44 -4.5 65t-15.5 35q-10 13 -54 36t-44 51q0 24 18.5 34.5t67.5 10.5h813q117 0 146.5 -41 t29.5 -164q0 -29 -8.5 -40t-28.5 -11t-58.5 39.5t-70.5 54.5q-61 29 -172.5 44t-263.5 15q-109 0 -141.5 -31t-32.5 -133v-397h253q68 0 112.5 2.5t75.5 7.5q30 6 75.5 25.5t62.5 19.5q28 0 38.5 -13.5t10.5 -53.5v-96q0 -37 -11 -51.5t-38 -14.5q-15 0 -61 23.5t-76 29.5 q-34 7 -83 11t-106 4h-253v-476zM1319 205v440q0 63 -9.5 89t-31.5 42q-16 13 -48 27q-46 21 -46 51q0 12 13 29.5t36 34.5q32 25 58.5 39t41.5 14q46 0 78.5 -74t38.5 -196q51 132 121 204t145 72q53 0 82 -39.5t29 -112.5q0 -23 -14.5 -38t-37.5 -15q-24 0 -65.5 20.5 t-58.5 20.5q-66 0 -120.5 -112t-54.5 -273v-219q0 -63 7.5 -82t26.5 -27q15 -6 47 -14q61 -16 61 -49q0 -20 -15.5 -28.5t-58.5 -8.5h-256q-42 0 -56 7.5t-14 27.5q0 26 45 48q24 12 35 19q12 8 16.5 24t4.5 54v25z" />
<glyph unicode="&#x2122;" horiz-adv-x="1683" d="M788 1438h183l141 -400l148 400h174v-25l-30 -2q-22 -2 -34 -15.5t-12 -37.5v-373q0 -24 12 -37.5t34 -15.5l30 -2v-27h-236v27l31 2q21 2 33 16t12 37v395l-178 -479h-15l-174 479v-395q0 -23 12.5 -37t34.5 -16l31 -2v-27h-197v27l34 2q21 2 32.5 16t11.5 37v371 q0 23 -12.5 37t-34.5 16l-31 2v27zM256 1438h440l11 -178h-25q-8 79 -40.5 115t-96.5 36h-21v-426q0 -23 12 -37t33 -16l31 -2v-27h-248v27l31 2q21 1 33 15.5t12 37.5v426h-20q-64 0 -97 -36t-41 -115h-26z" />
<glyph unicode="&#x2202;" horiz-adv-x="1044" d="M754 604q13 81 19.5 161.5t6.5 158.5q0 140 -39.5 216.5t-111.5 76.5q-53 0 -117 -63.5t-109 -63.5q-29 0 -51 21.5t-22 51.5q0 59 68 105.5t163 46.5q171 0 273 -152.5t102 -412.5q0 -335 -139 -555t-344 -220q-147 0 -241.5 106.5t-94.5 272.5q0 189 108.5 316 t266.5 127q99 0 162.5 -47t99.5 -146zM709 483q0 117 -45 180.5t-127 63.5q-113 0 -184.5 -127.5t-71.5 -333.5q0 -117 44 -178t128 -61q111 0 183.5 128t72.5 328z" />
<glyph unicode="&#x2206;" horiz-adv-x="1208" d="M555 1212l-389 -1042h768zM596 1497h29l555 -1497h-1151z" />
<glyph unicode="&#x220f;" horiz-adv-x="1595" d="M57 1473h1479v-70h-186v-1727h186v-69h-555v69h197v1727h-762v-1727h196v-69h-555v69h187v1727h-187v70z" />
<glyph unicode="&#x2211;" horiz-adv-x="1434" d="M12 1473h1135l98 -340h-74l-67 219q-8 27 -32 39t-73 12h-741l864 -850v-37l-858 -756h893q60 0 77.5 13t29.5 51l71 229h74l-135 -446h-1260v28l959 838l-961 950v50z" />
<glyph unicode="&#x2212;" horiz-adv-x="1706" d="M254 670h1198v-119h-1198v119z" />
<glyph unicode="&#x2215;" horiz-adv-x="342" d="M559 1460q16 26 30 36.5t32 10.5q17 0 26.5 -7.5t9.5 -20.5q0 -6 -3.5 -16.5t-10.5 -20.5l-864 -1424q-17 -27 -29.5 -37t-30.5 -10q-18 1 -28 8t-10 21q0 6 3.5 16t10.5 21z" />
<glyph unicode="&#x2219;" horiz-adv-x="561" d="M172 774q0 47 31.5 79t77.5 32t78 -32.5t32 -78.5t-32 -77t-78 -31q-47 0 -78 31t-31 77z" />
<glyph unicode="&#x221a;" horiz-adv-x="1288" d="M1106 1647h182v-82h-119l-594 -1606h-53l-323 893l-119 -43l-23 68l262 92l265 -729z" />
<glyph unicode="&#x221e;" horiz-adv-x="1706" d="M905 559q51 -95 119 -141.5t156 -46.5q102 0 168.5 71t66.5 181q0 108 -61 179.5t-152 71.5q-85 0 -153.5 -72.5t-143.5 -242.5zM803 666q-51 95 -119 142.5t-154 47.5q-105 0 -171 -71t-66 -183q0 -108 61 -179t152 -71q85 0 152 69t145 245zM866 494 q-71 -138 -148 -201.5t-173 -63.5q-134 0 -226 109t-92 272q0 172 82.5 277.5t214.5 105.5q97 0 172 -63t144 -203q67 138 146 204t175 66q134 0 226 -108.5t92 -272.5q0 -171 -82 -277t-213 -106q-96 0 -169 60t-149 201z" />
<glyph unicode="&#x222b;" horiz-adv-x="1020" d="M301 -268q103 0 116 664q3 141 5 216q12 503 102 719.5t281 216.5q76 0 122 -39t46 -104q0 -48 -31 -77.5t-82 -29.5q-53 0 -85 35t-32 92q0 8 -6 15.5t-14 7.5q-105 0 -119 -634q-3 -157 -6 -245q-10 -308 -31.5 -461t-62.5 -247q-49 -114 -123 -173t-168 -59 q-73 0 -119.5 38t-46.5 97q0 53 31.5 84t83.5 31q47 0 79.5 -29t32.5 -67q0 -24 7.5 -37.5t19.5 -13.5z" />
<glyph unicode="&#x2248;" horiz-adv-x="1706" d="M1530 584v-131q-107 -75 -202 -110.5t-187 -35.5q-98 0 -288 69.5t-290 69.5q-82 0 -169.5 -35.5t-215.5 -123.5v131q108 74 203.5 110.5t183.5 36.5q111 0 301.5 -69.5t276.5 -69.5q85 0 173.5 35.5t213.5 122.5zM1530 934v-131q-104 -73 -200 -108.5t-187 -35.5 q-100 0 -290 69t-290 69q-83 0 -171.5 -36t-213.5 -122v131q106 73 202 109t185 36q111 0 300.5 -68.5t277.5 -68.5q87 0 175 35t212 121z" />
<glyph unicode="&#x2260;" horiz-adv-x="1706" d="M1210 1180l88 -70l-196 -250h350v-115h-424l-211 -270h635v-115h-709l-251 -319l-89 70l197 249h-346v115h420l211 270h-631v115h704z" />
<glyph unicode="&#x2264;" horiz-adv-x="1706" d="M262 150h1182v-117h-1182v117zM1444 1192v-125l-977 -324l977 -323v-125l-1182 399v101z" />
<glyph unicode="&#x2265;" horiz-adv-x="1706" d="M262 150h1182v-117h-1182v117zM262 1192l1182 -397v-101l-1182 -399v125l979 323l-979 324v125z" />
<glyph unicode="&#x25ca;" horiz-adv-x="1012" d="M506 1409l-385 -817l385 -825l385 825zM506 1653l500 -1061l-500 -1069l-500 1069z" />
<glyph unicode="&#x25fc;" horiz-adv-x="950" d="M0 950h950v-950h-950v950z" />
<glyph unicode="&#xf000;" horiz-adv-x="1618" d="M836 1216q-1 6 -1.5 14t-0.5 23q0 124 95 229.5t236 131.5q1 -10 1.5 -23t0.5 -39q0 -131 -103.5 -234.5t-203.5 -103.5h-8q-3 0 -7.5 1t-8.5 1zM1505 403q-114 -247 -205 -342.5t-204 -95.5q-50 0 -131.5 33t-122.5 33q-45 0 -131 -33t-127 -33q-64 0 -128.5 44 t-129.5 132q-102 140 -157.5 295.5t-55.5 300.5q0 219 125 356.5t323 137.5q68 0 155 -34t124 -34q34 0 121.5 35t152.5 35q110 0 198 -40t161 -124q-102 -65 -151.5 -145.5t-49.5 -182.5q0 -113 60 -200t173 -138z" />
<glyph unicode="&#xf001;" horiz-adv-x="1071" d="M125 0q-29 0 -42 9.5t-13 31.5q0 34 70 60q13 5 19 7q13 6 18 26t5 67v628h-80q-39 0 -55 13.5t-16 46.5t16 46t55 13h80v117q0 227 104 337.5t316 110.5q137 0 220 -51t83 -133q0 -45 -26.5 -71.5t-71.5 -26.5q-44 0 -73 26t-29 64q0 20 11 44.5t11 29.5 q0 14 -38.5 28.5t-90.5 14.5q-133 0 -195.5 -96.5t-62.5 -301.5v-92h303q112 0 211 24q19 5 23 5q18 0 25 -21.5t7 -85.5v-702q0 -26 6.5 -43t18.5 -23q13 -6 35 -15q51 -20 51 -48q0 -21 -17.5 -30t-64.5 -9h-215q-43 0 -58.5 8.5t-15.5 28.5q0 15 8.5 26t28.5 21 q8 4 23 10q41 17 41 70v530q0 83 -34.5 109t-168.5 26h-207v-626q0 -59 6 -76t21 -23q13 -5 40 -12q54 -15 54 -47q0 -24 -18 -34.5t-62 -10.5h-256z" />
<glyph unicode="&#xf002;" horiz-adv-x="1063" d="M340 948h410v371q0 63 -36 91t-116 28q-133 0 -195.5 -96.5t-62.5 -301.5v-92zM340 829v-626q0 -59 6 -76t21 -23q13 -5 40 -12q54 -15 54 -47q0 -24 -18 -34.5t-62 -10.5h-256q-29 0 -42 9.5t-13 31.5q0 34 70 60q13 5 19 7q13 6 18 26t5 67v628h-80q-39 0 -55 13.5 t-16 46.5t16 46t55 13h80v117q0 226 103 337t311 111q38 0 94 -6t74 -6q24 0 60 9.5t48 9.5q22 0 29.5 -18.5t7.5 -86.5v-1247q0 -26 7 -43.5t17 -21.5q11 -5 32 -13q57 -22 57 -51q0 -21 -17.5 -30t-64.5 -9h-215q-43 0 -59.5 8.5t-16.5 28.5q0 14 9 25t30 22q8 4 21 9 q40 16 41 71v665h-410z" />
</font>
</defs>
</svg>
