<?xml version="1.0" standalone="no"?>
<!DOCTYPE svg PUBLIC "-//W3C//DTD SVG 1.1//EN" "http://www.w3.org/Graphics/SVG/1.1/DTD/svg11.dtd" >
<svg xmlns="http://www.w3.org/2000/svg">
<metadata></metadata>
<defs>
<font id="staypuftmedium" horiz-adv-x="350" >
<font-face units-per-em="1000" ascent="800" descent="-200" />
<missing-glyph horiz-adv-x="500" />
<glyph unicode=" " />
<glyph unicode="!" horiz-adv-x="250" d="M96 760q-58 -48 -59 -139q0 -9 1 -19l5 -125v-11l-13 -164q-2 -89 46 -136q28 -27 67 -8q8 5 15 11q58 50 59 142l-6 150v7l9 153q0 82 -38 134l-1 1q-1 2 -3 4q-22 28 -62 12q-11 -4 -20 -12zM74 122q32 32 77 11q6 -3 13 -8q36 -26 33 -62q-2 -12 -9 -22 q-24 -36 -70 -32q-28 2 -47 20q-29 27 -13 68q6 14 16 25z" />
<glyph unicode="&#x22;" horiz-adv-x="250" d="M146 753q-25 -129 0 -207q6 -19 35 -18h4l1 1q21 3 23 17q20 130 9 207q-3 20 -34 21q-31 0 -38 -21zM39 753q-25 -129 0 -207q6 -19 35 -18q9 0 16 4q8 3 11 10v1l1 1v2q20 130 9 207q-3 20 -34 21q-31 0 -38 -21z" />
<glyph unicode="#" horiz-adv-x="670" d="M297 468q44 28 81 4q8 -5 15 -13q33 -39 14 -87q-7 -19 -23 -33q-38 -34 -86 -24q-30 6 -46 30q-28 43 11 92q14 18 34 31zM345 765q-33 -21 -34 -81q-1 -62 -4 -75l-1 -1q-7 -26 -27 -41q-31 -22 -88 -4q-56 19 -74 18q-22 -1 -39 -14q-38 -30 -33 -69q1 -13 9 -24 q15 -22 60 -11q46 11 59 6h1q9 -4 15 -13q26 -40 -12 -84q-8 -10 -18 -18q-17 -13 -54 -1q-38 11 -54 -2q-36 -30 -31 -67q2 -11 10 -23q13 -16 52 -2q38 14 50 6q3 -3 6 -7q22 -35 -25 -82l-54 -53q-36 -39 -17 -72q19 -34 67 -19q12 4 23 10q34 20 40 80q6 61 10 74 q9 27 31 41q66 43 119 24q22 -8 37 -27q21 -28 -13 -76t-37 -53q-16 -32 2 -54q27 -33 75 -13q17 6 30 19q24 23 13 75t-7 69q3 16 15 27q19 19 65 8q45 -10 62 -1h1l1 1q5 3 9 7q35 35 27 74v1q-4 16 -15 27q-19 19 -62 -3t-57 -22h-2q-11 1 -20 10q-32 32 -10 81 q8 17 22 30q23 22 73 9q49 -13 66 -9h1q12 3 22 12q37 33 30 71v1q-3 13 -12 24q-19 22 -67 2q-47 -19 -61 -18q-15 0 -25 13q-23 30 13 80q-60 -82 27 35q38 50 17 83q-20 29 -59 15q-10 -3 -19 -9q-30 -21 -27 -79q3 -59 -1 -75v-1q-6 -21 -23 -34q-33 -25 -60 -10l-1 1 q-6 3 -11 9q-24 29 9 81q35 53 35 52v1q19 38 1 64q-16 22 -45 9q-3 -1 -6 -3z" />
<glyph unicode="$" horiz-adv-x="563" d="M222 762q-15 -15 -7 -52q0 4 1 -2v-1q7 -33 -3 -50q-17 -29 -67 -47q-50 -17 -67 -34q-7 -7 -13 -15q-57 -90 -35 -148q4 -12 11 -23q27 -41 90 -46q-67 5 55 -3q35 -3 59 -11q18 -6 89 -11h1q58 -5 69 -31v-1q3 -7 3 -17q2 -49 -63 -65v0q-11 -2 -99 -12q-4 0 -9 -1 q-35 -5 -97 28q-54 29 -77 26q-18 -2 -33 -18q-21 -24 -5 -58q10 -22 29 -29q18 -6 84 -19q50 -9 78 -38q9 -9 10 -38q0 -20 11 -28q41 -29 75 -8l1 1q4 3 8 7q11 11 1 39q-9 24 -1 36q20 28 76 28q55 0 72 8l1 1q14 7 22 20q58 88 11 182q-13 24 -32 46q-36 42 -107 43 q79 -1 -60 -1q-66 0 -109 24q-26 15 -22 54q3 34 28 45q58 25 136 -9l75 -33q19 -7 35 -9q32 -4 50 25q10 15 7 32q-5 36 -51 48l-72 15q-29 10 -45 30q-14 19 -11 65q4 44 -13 59q-2 3 -6 5q-35 25 -72 1z" />
<glyph unicode="%" horiz-adv-x="500" d="M353 178q-26 -23 -15 -54q3 -10 10 -17q22 -23 52 -10q8 4 15 11q22 24 4 54v1q-3 6 -8 10q-23 24 -50 10q-4 -2 -8 -5zM324 213q38 33 87 12q17 -8 30 -21q40 -41 28 -92q-6 -22 -21 -38q-35 -38 -87 -28q-16 3 -30 12q-9 6 -16 13q-38 40 -22 94q8 26 27 45q2 1 4 3z M108 701q-25 -22 -15 -54q4 -9 11 -17q22 -23 51 -9q9 4 15 10q22 24 5 55q-3 6 -8 11q-23 23 -50 10q-5 -3 -9 -6zM80 736q38 34 87 12q17 -7 30 -20q39 -41 27 -92q-4 -18 -15 -32v-1l-6 -6q-35 -38 -86 -28q-27 6 -46 26q-38 39 -22 94q8 28 31 47zM319 759q14 25 57 28 q40 2 45 -20v-1q1 -3 0 -7q-23 -178 -96 -391q-1 -3 -2 -5q-54 -158 -59 -169q-33 -83 -86 -155q-18 -26 -64 -20q-42 6 -47 31q-1 5 0 10q13 76 68 212q29 72 43 112l88 257q26 67 53 118z" />
<glyph unicode="&#x26;" horiz-adv-x="752" d="M320 208q-2 -57 -50 -92q-40 -28 -84 -18q-50 11 -58 72q-3 24 2 49q13 58 59 76q16 7 35 7q53 -1 81 -43q16 -23 15 -51zM482 578q53 0 80 34l1 1l1 1q13 18 12 40q-7 86 -104 123q-60 23 -131 18q-174 -13 -252 -211q-13 -34 5 -86q20 -55 16 -86q-6 -41 -45 -99l-1 -2 q-37 -55 -40 -92q-1 -10 0 -21q9 -137 90 -179q8 -4 16 -7q52 -20 115 20l72 47q45 25 86 23q51 -4 116 -52q-61 45 18 -13q50 -36 83 -42q40 -8 78 17q33 22 19 48q-24 46 -91 71q-67 26 -76 30q-38 21 -54 58q-12 28 28 50l57 30q29 19 29 44q1 54 -42 80q-17 11 -37 13 q-31 4 -59 -35q-27 -40 -37 -48q-4 -3 -9 -6q-1 -1 -2 -1q-10 -5 -21 -6q-75 -7 -139 57q-9 10 -20 22q-61 71 -62 123q0 21 7 42q27 80 106 99q23 6 49 5q33 -1 62 -45q28 -42 38 -51q17 -14 38 -14z" />
<glyph unicode="'" horiz-adv-x="140" d="M37 753q-25 -129 0 -207q6 -19 35 -18q9 0 16 4q8 3 11 10v1l1 1v2q20 130 9 207q-3 20 -34 21q-31 0 -38 -21z" />
<glyph unicode="(" horiz-adv-x="340" d="M212 756q-147 -102 -180 -278q-7 -36 -9 -73q-9 -212 162 -372q30 -28 80 -23q45 5 51 35q1 5 1 9q0 53 -55 125q-58 76 -65 87q-37 59 -42 115q-2 77 59 164l60 87q38 60 40 115q1 30 -43 28q-34 -2 -59 -19z" />
<glyph unicode=")" horiz-adv-x="340" d="M128 28q147 102 180 278q7 36 9 73q9 212 -162 372q-30 28 -80 23q-45 -5 -51 -35q-1 -5 -1 -9q0 -53 55 -125q58 -76 65 -87q37 -59 42 -115q2 -77 -59 -164l-60 -87q-38 -60 -40 -115q-1 -30 43 -28q34 2 59 19z" />
<glyph unicode="*" horiz-adv-x="700" d="M355 694q-31 -21 -36 -76q5 49 -2 -23q-6 -56 -34 -78q-33 -25 -99 -14q-62 12 -82 8q-24 -4 -41 -21q-46 -44 -35 -96q4 -16 14 -30q19 -26 74 -15q54 11 69 9q19 -4 28 -21q20 -37 -26 -86q22 23 -39 -38q-47 -48 -36 -82q2 -5 5 -10q23 -43 82 -33q22 4 41 15 q35 20 37 93q2 68 6 81q9 31 41 33q40 2 53 -47l16 -96q12 -46 42 -61q54 -28 89 -2l1 1q7 5 12 13q22 34 -16 87l-40 54q-26 41 -7 72q18 31 74 24q-152 19 34 -6q57 -7 78 21q34 45 7 95q-5 9 -12 17l-1 1q-1 2 -3 4q-28 29 -118 10q-68 -15 -81 -12q-18 5 -11 29l38 100 q13 48 -14 80q-34 38 -92 9q-8 -4 -16 -9z" />
<glyph unicode="+" horiz-adv-x="450" d="M191 617q-22 -21 -10 -70q-12 50 4 -15q13 -49 -9 -71q-19 -19 -64 -6q-44 13 -61 6q-7 -3 -13 -9q-35 -36 -20 -82q6 -16 17 -29q19 -21 66 -7t63 9q10 -3 18 -11q21 -22 3 -71q-18 -48 -15 -64q2 -14 12 -24q36 -35 84 -23q26 6 42 26q20 23 -6 68q32 -56 -10 19 q-26 45 -8 69q17 21 62 8t59 -8q10 3 17 12q30 39 -1 86q-8 12 -20 22q-15 14 -54 2q-37 -11 -51 1l-3 3q-20 23 5 73q23 47 24 61v0v1q-1 16 -14 27q-54 45 -100 11q-8 -6 -17 -14z" />
<glyph unicode="," horiz-adv-x="250" d="M93 123q27 27 65 12q12 -5 21 -13q2 -3 4 -5q53 -61 3 -169q-7 -13 -15 -29q-62 -117 -108 -96q-4 2 -9 6q-22 17 5 50l35 42q12 16 14 31q5 28 -18 84q-19 49 -8 72q4 8 11 15z" />
<glyph unicode="-" horiz-adv-x="450" d="M225 459q-18 0 -88 14q-61 11 -92 -15q-4 -3 -7 -6q-35 -36 -20 -82q6 -16 17 -29q31 -34 91 -26q-92 -12 52 9q21 3 38 3q19 0 94 -13q68 -11 99 16q7 6 13 14q29 38 -1 85v1l-1 1q-8 12 -19 21q-33 29 -93 19q-67 -12 -83 -12z" />
<glyph unicode="." horiz-adv-x="250" d="M87 45q-26 48 6 78q30 26 65 13q16 -5 25 -19q24 -35 1 -74q-10 -18 -26 -27l-8 -4q-33 -14 -60 27q-1 3 -3 6z" />
<glyph unicode="/" horiz-adv-x="400" d="M273 759q14 25 57 28q9 0 17 -1q17 -3 24 -12h1v-1q4 -6 3 -14q-23 -178 -96 -391q-1 -3 -2 -5q-54 -158 -59 -169q-33 -83 -86 -155q-19 -26 -64 -20q-42 6 -47 31q-1 5 0 10q12 76 67 212q30 72 44 112l88 257q25 67 53 118z" />
<glyph unicode="0" d="M132 608q17 27 55 23q28 -2 40 -23q35 -60 30 -170q1 23 -4 -80q-5 -92 -7 -101q-7 -43 -31 -79q-17 -26 -51 -23q-21 2 -32 17q-30 43 -31 130v65l-3 123q2 67 34 118zM102 753q-57 -91 -57 -218q0 8 5 -150q1 -18 1 -34l1 -159q6 -103 50 -165q25 -36 76 -28 q41 6 62 37q50 75 58 181l5 119q9 176 9 209q-3 125 -51 208q-23 40 -78 40t-81 -40z" />
<glyph unicode="1" d="M38 633q11 -24 66 -7q51 17 62 15q12 -2 13 -17q4 -65 -2 -191q0 -18 -1 -34q-1 -19 6 -113q5 -75 -18 -130q-11 -27 -62 -54q-44 -24 -52 -38q-7 -14 0 -31q12 -30 60 -22l61 10h1h7q7 0 63 -10q47 -8 66 19q17 24 -4 62q-24 44 -26 61q-10 76 -7 211q1 36 1 62 q0 27 10 214q4 81 -1 128q-7 68 -165 -30q-58 -36 -72 -56q-18 -24 -6 -49z" />
<glyph unicode="2" d="M50 477q57 -2 48 -5q-3 -2 -7 -1q-3 1 3 3q3 2 7 3q34 10 23 62l-18 71q-6 40 16 59q29 24 60 12q12 -5 19 -15q50 -65 13 -156v-1l-1 -1q-10 -24 -31 -64q-47 -86 -60 -123q-13 -39 -63 -102q-45 -57 -52 -95q-4 -21 -1 -43q4 -27 35 -41q140 -64 219 -30q26 11 48 33 q33 32 36 47q6 25 -33 45q-27 14 -111 -1q-54 -10 -58 1q-2 5 4 16l62 106q10 20 19 43q11 26 63 130q49 96 45 160q-2 33 -15 67q-36 93 -142 96h-5q-86 1 -115 -62q-3 -6 -5 -13l-33 -102q-26 -97 30 -99z" />
<glyph unicode="3" d="M110 351q-34 39 -12 87q9 19 41 30q29 10 40 21l45 40q20 22 21 50q3 64 -41 87q-7 4 -16 6q-22 5 -46 -21q-25 -27 -44 -33q-37 -9 -45 -8q-9 2 -15 11q-32 51 28 110q13 14 29 25q88 60 160 23q14 -7 26 -17q54 -46 46 -136q0 1 -16 -101q-3 -22 -29 -58 q-20 -29 -22 -53q-1 -30 23 -75q20 -37 22 -63l15 -119q4 -77 -45 -118q-68 -58 -161 -9q-12 7 -25 15q-63 43 -67 93q-2 23 10 42q11 17 47 7q11 -3 13 -4q18 -4 44 -33q24 -26 46 -21q49 12 57 93q7 62 -36 102q-13 13 -49 13q-31 -1 -44 14z" />
<glyph unicode="4" d="M116 440q-41 48 -1 115q1 1 1 2q15 23 36 42q23 20 42 6l3 -3q41 -44 11 -109q-13 -28 -36 -49q-25 -22 -47 -10q-5 2 -9 6zM175 33q28 -26 64 -6q9 4 17 12q32 34 13 101l-20 72q-10 49 16 79q8 10 37 7q23 -3 32 8q29 38 9 77q-5 9 -12 16q-9 9 -41 -2q-23 -8 -25 5 q-8 46 1 167q10 127 -10 193q-10 33 -66 2q-10 -5 -18 -11q-76 -55 -108 -155q-1 -6 -32 -130q-5 -21 -10 -39l-21 -60q-5 -24 9 -42q18 -25 67 -17q50 7 65 2q14 -4 24 -15q31 -36 9 -108q-22 -73 -21 -72q-12 -55 21 -84z" />
<glyph unicode="5" d="M322 762q-120 26 -134 28q-120 16 -146 -56v-1v-1l-1 -1q-1 -2 -1 -5q-38 -132 -25 -236q6 -46 22 -103q7 -27 41 -4l54 36q32 17 52 7q67 -34 69 -138q1 -18 0 -42q-5 -96 -48 -131v-1q-11 -9 -24 -15q-25 -12 -68 16q-39 26 -55 25q-11 0 -21 -8q-33 -26 -17 -72 q5 -17 17 -30q47 -55 132 -18q94 41 131 146q10 28 18 64q30 142 -2 216q-18 41 -54 72q-23 20 -75 3q-49 -16 -65 -13q-13 4 -22 16q-41 55 -15 171q9 40 63 25l94 -32q54 -13 80 13q20 21 16 48v2v0v1q-3 15 -16 18z" />
<glyph unicode="6" d="M117 312q49 38 107 10q30 -14 49 -42q30 -42 11 -87q-7 -19 -23 -31q-48 -38 -106 -13q-30 14 -50 41q-31 42 -12 89q7 20 24 33zM260 519q9 -19 35 -5q11 6 17 14q48 67 21 144q-15 44 -52 74q-53 44 -116 30q-40 -8 -64 -39q-78 -100 -90 -225v-1q-3 -40 -2 -162v-19 v-118q6 -92 63 -146q72 -70 143 -53q20 5 37 17q91 61 83 186q-5 84 -53 162q-19 31 -79 33q-59 3 -74 10q-20 9 -27 30q-21 57 -12 90q3 8 7 18q2 5 5 12q30 66 62 76q11 3 24 1q38 -7 54 -67q16 -59 18 -62z" />
<glyph unicode="7" d="M39 744q-39 -42 -22 -93q6 -14 16 -27q23 -28 97 -12q61 12 74 10q21 -3 21 -28q-2 -80 -42 -175q-34 -80 -39 -95q-17 -43 -70 -133q-48 -81 -56 -143q-5 -37 44 -49q53 -12 99 12q19 10 28 25q40 65 62 183q18 103 19 105q6 33 43 156q33 110 21 192q-5 28 -13 57 q-12 38 -69 37q35 0 -55 -4h-23l-79 6q-35 -1 -56 -24z" />
<glyph unicode="8" d="M225 262q-28 22 -64 9q-10 -3 -17 -9q-47 -38 -27 -91q10 -27 37 -48t58 -8q6 2 10 6q49 35 39 86q-6 32 -36 55zM111 406q-2 39 -43 89q-38 47 -46 72q-5 15 -5 31q0 92 33 136q20 27 57 47q69 38 132 3q68 -37 77 -113v-1v-1v-1q2 -21 1 -76q0 -38 -37 -89 q-36 -49 -42 -75q-3 -12 -3 -25q2 -40 43 -91q40 -47 48 -70q7 -18 7 -37q0 -92 -33 -136q-20 -27 -57 -47q-69 -38 -132 -3q-66 36 -76 111q-1 8 -1 18v1q-1 12 -1 62q0 39 36 92q35 51 40 80q2 11 2 23zM140 544q29 -22 65 -9q9 3 16 9q47 38 28 91q-7 18 -21 33 q-3 4 -6 7l-10 8q-27 21 -58 8q-6 -2 -11 -6q-48 -35 -38 -86q6 -32 35 -55z" />
<glyph unicode="9" d="M192 376q-125 31 -164 154q-7 25 -11 53q-14 116 90 183q69 44 132 3q51 -34 66 -108l12 -84q10 -57 -4 -140q-5 -30 -7 -43q-17 -114 -36 -170l-10 -26l-35 -99q-21 -45 -60 -69q-83 -49 -121 -18q-7 6 -12 15q-24 44 23 88q-3 -3 56 47q48 39 62 75q32 84 34 106 q3 29 -15 33zM140 529q29 -22 65 -9q9 3 16 9q47 38 28 91q-7 18 -21 33q-3 4 -6 7l-10 8q-27 21 -58 8q-6 -2 -11 -6q-48 -35 -38 -86q6 -32 35 -55z" />
<glyph unicode=":" horiz-adv-x="250" d="M77 295q-26 48 6 78q30 26 65 13h1v0q15 -6 24 -19q24 -35 1 -74q-12 -22 -34 -31q-33 -14 -60 27v1q-2 2 -3 5zM77 45q-26 48 6 78q30 26 65 13h1v0q15 -6 24 -19q24 -35 1 -74q-12 -22 -34 -31q-33 -14 -60 27q-1 3 -3 6z" />
<glyph unicode=";" horiz-adv-x="250" d="M91 123q27 27 65 12q15 -6 25 -18q53 -61 3 -169q-7 -13 -15 -29q-62 -117 -108 -96q-5 2 -9 6q-22 17 4 50l36 42q11 16 14 31q5 28 -18 84q-19 49 -8 72q4 8 11 15zM77 295q-26 48 6 78q30 26 65 13h1v0q15 -6 24 -19q24 -35 1 -74q-12 -22 -34 -31q-33 -14 -60 27v1 q-2 2 -3 5z" />
<glyph unicode="&#x3c;" horiz-adv-x="340" d="M313 648q18 39 -31 0q-28 -22 -146 -136l-75 -64q-31 -31 -33 -67q-4 -61 53 -117q14 -13 55 -48q102 -87 145 -96q21 -5 17 18q-8 42 -47 88q-29 34 -40 50q-8 12 -42 46q-29 28 -30 56q-1 36 34 75q35 38 44 52q12 18 34 39q6 5 10 10q20 23 52 94z" />
<glyph unicode="=" horiz-adv-x="450" d="M225 359q-18 0 -88 14q-61 11 -92 -15q-4 -3 -7 -6q-35 -36 -20 -82q6 -16 17 -29q31 -34 91 -26q-92 -12 52 9q21 3 38 3q19 0 94 -13q68 -11 99 16q7 6 13 14q29 38 -1 85v1l-1 1q-8 12 -19 21q-33 29 -93 19q-67 -12 -83 -12zM225 559q-18 0 -88 14q-61 11 -92 -15 q-4 -3 -7 -6q-35 -36 -20 -82q6 -16 17 -29q31 -34 91 -26q-92 -12 52 9q21 3 38 3q19 0 94 -13q68 -11 99 16q7 6 13 14q29 38 -1 85v1l-1 1q-8 12 -19 21q-33 29 -93 19q-67 -12 -83 -12z" />
<glyph unicode="&#x3e;" horiz-adv-x="340" d="M32 138q-18 -39 31 0q28 22 146 136l75 64q31 31 33 67q4 61 -53 117q-14 13 -55 48q-102 87 -145 96q-21 5 -17 -18q8 -42 47 -88q29 -34 40 -50q8 -12 42 -46q29 -28 30 -56q1 -36 -34 -75q-35 -38 -44 -52q-12 -18 -34 -39q-6 -5 -10 -10q-20 -23 -52 -94z" />
<glyph unicode="?" d="M127 45q-26 48 6 78q30 26 65 13q16 -5 25 -19q24 -35 1 -74q-12 -22 -34 -31q-33 -14 -60 27q-1 3 -3 6zM18 549q19 -26 53 -25q25 1 34 19q8 14 11 65q3 48 28 64q42 26 82 1q10 -6 17 -16q44 -53 22 -137q1 5 -30 -92q-4 -12 -7 -23q-12 -43 -55 -104 q-41 -56 -53 -100q-5 -21 24 -24q38 -3 72 18q43 28 54 92l13 86q1 6 2 11l46 154q17 71 7 140q-8 66 -82 90q-34 11 -73 9q-55 -3 -98 -60v-1l-1 -1q-8 -11 -23 -33q-6 -10 -7 -10q-34 -52 -38 -60q-16 -36 2 -63z" />
<glyph unicode="@" horiz-adv-x="706" d="M415 483q49 8 87 -29q30 -29 27 -67q-4 -42 -59 -52q-17 -3 -34 -2q-57 4 -73 49q-1 5 -2 11q-9 47 23 75q13 12 31 15zM376 585q-69 -22 -92 -58v-1q-6 -10 -10 -22q-43 -124 11 -203q19 -28 49 -46q86 -53 182 -17q64 25 106 83q74 106 53 228q-19 104 -101 171 q-108 87 -246 58q-102 -21 -180 -100q-123 -123 -121 -287q1 -119 73 -226q98 -147 274 -159q80 -5 167 21q66 20 89 64q12 24 4 50q-21 64 -104 66h-1q-13 0 -111 -9q-106 -10 -152 26q-11 8 -19 19q-87 108 -66 226q11 61 51 113q61 80 155 84q59 3 112 -27q27 -16 27 -43 v-1q0 -11 -6 -19q-19 -24 -60 -8q-48 18 -60 19q-13 2 -24 -2z" />
<glyph unicode="A" horiz-adv-x="793" d="M411 579q56 13 89 -57q15 -32 19 -69q7 -67 -37 -97q-9 -5 -19 -9q-48 -15 -83 25q-8 10 -14 22q-30 65 -13 125q14 49 58 60zM426 243q59 0 100 -64l55 -96q24 -35 52 -52q15 -9 33 -13q66 -15 90 8q9 9 9 22q0 151 -73 308q-24 50 -70 134q-2 5 -5 10q-2 4 -5 9l-3 6 l-6 10q-59 108 -78 133q-44 62 -113 104q-72 44 -143 33q-57 -9 -79 -57q-12 -27 22 -54q41 -31 42 -32q17 -16 20 -34q32 -147 -17 -286q-16 -45 -44 -103l-20 -40q-15 -31 -77 -64q-52 -28 -63 -44q-15 -19 -4 -45q22 -50 115 -17q11 4 44 17q48 19 87 86t44 73 q35 48 87 48z" />
<glyph unicode="B" horiz-adv-x="796" d="M402 357q74 42 144 -6q55 -38 39 -90q-17 -55 -96 -71q-11 -2 -24 -4q-86 -13 -116 11q-12 10 -19 25q-26 60 43 116q13 10 29 19zM594 636q19 -77 -30 -113q-18 -13 -48 -25q-105 0 -142 24q-26 18 -32 51q-11 63 62 101l1 1q32 16 69 21q49 7 99 -39zM42 757 q-13 -39 34 -61q-7 4 65 -24q37 -14 55 -30q13 -12 20 -27q80 -184 17 -353q-17 -46 -44 -94q-16 -28 -81 -44q-56 -14 -67 -26t-5 -32q24 -76 109 -65q33 4 97 25q120 40 164 47q39 6 71 2q37 -4 103 -41q59 -33 94 -29q17 2 34 10q58 28 65 117q1 13 1 30q1 59 -56 144 q-45 68 -52 88l-1 1v1q-6 18 -3 33v1q0 3 1 5q12 38 58 105v1q40 58 40 96q0 20 -8 41q-42 103 -162 121q-41 6 -87 0l-180 -29l-18 -2q-38 -4 -127 20q-78 20 -107 7q-21 -10 -30 -38z" />
<glyph unicode="C" horiz-adv-x="768" d="M195 465q-2 82 76 146q80 65 182 61q42 -2 72 -62l35 -74q15 -25 33 -33h1h1q14 -6 31 -1q53 14 67 77q11 54 -15 102q-78 140 -322 90q-178 -36 -259 -170l-1 -1q-17 -29 -31 -63q-85 -205 20 -386q13 -21 28 -43q69 -99 192 -107q13 -1 27 -1h143q116 6 202 69 q53 39 63 122q11 83 -31 127q-1 1 -3 2v1q-18 16 -41 21q-37 8 -47 -39l-13 -97q-10 -45 -38 -59q-135 -70 -264 29q-7 6 -15 13q-31 26 -72 174q-20 74 -21 102z" />
<glyph unicode="D" horiz-adv-x="922" d="M398 192q-87 73 -80 196q6 114 87 199q3 4 6 7q63 64 153 45q43 -8 80 -36q95 -71 116 -175q19 -90 -29 -167q-50 -81 -144 -106q-103 -28 -180 30q-5 3 -9 7zM50 756q-21 -35 19 -73q-12 11 41 -36q37 -33 46 -62q43 -133 37 -223q-3 -45 -16 -98q-11 -43 -74 -96 q-53 -44 -64 -59q-28 -36 -4 -73q33 -51 103 -27q8 2 89 39q66 30 109 30q65 0 169 -41q93 -37 136 -40q54 -3 102 27q180 110 150 388q-1 13 -3 26q-29 216 -179 308q-26 15 -55 28q-57 25 -133 -2q158 55 -58 -21q-50 -18 -90 -19q-49 -2 -146 36q-83 33 -117 30 q-39 -4 -62 -42z" />
<glyph unicode="E" horiz-adv-x="755" d="M47 730q-39 -28 -3 -78q6 -9 16 -20q50 -60 56 -70q19 -28 24 -52q29 -141 19 -235q-5 -41 -16 -89q-6 -26 -47 -66q-35 -35 -36 -54q0 -12 8 -24q37 -55 114 -33q10 3 98 38q78 32 128 28q41 -3 109 -39q62 -32 98 -30q19 1 38 9q47 20 57 60q4 18 -2 36q-34 97 -179 97 q-27 0 -55 -4q-11 -2 -72 -19q-55 -16 -87 10q-44 37 -40 93q2 33 24 57q29 32 91 10l69 -26q45 -12 74 10q42 33 43 79q0 17 -8 32q-3 6 -8 12q-30 36 -94 12q39 14 -56 -24q-69 -28 -105 0q-52 40 -57 98q-3 39 21 68q45 54 136 24l137 -54q91 -30 141 17q42 40 46 101 q0 8 -1 17v1q-4 48 -42 65q-14 6 -112 -13q-117 -23 -188 -26q-35 -1 -129 16q-97 18 -155 -4q-28 -11 -55 -30z" />
<glyph unicode="F" horiz-adv-x="755" d="M306 111q-2 17 -21 101q-17 76 7 125l8 14q23 37 84 25q-42 8 53 -12q65 -14 96 14q46 42 42 88q-2 16 -11 29l-4 6q-30 36 -94 12q36 13 -55 -24q-69 -27 -106 0q-45 33 -56 82q-10 43 20 65q54 41 148 4l120 -52h1q92 -33 145 15q42 38 46 99q3 47 -24 72v1 q-8 7 -19 12q-14 6 -112 -13q-117 -23 -188 -26q-35 -1 -129 16q-97 18 -155 -4q-28 -11 -55 -30q-39 -28 -3 -78q6 -9 16 -20q50 -60 56 -70q19 -28 24 -52q15 -71 6 -181q-7 -89 -3 -143q1 -18 -9 -92q-9 -66 16 -78q7 -4 18 -4q134 -4 146 33q4 11 -1 32q-6 29 -7 34z " />
<glyph unicode="G" horiz-adv-x="768" d="M201 468q8 84 86 146q79 62 174 56q41 -3 70 -64q-29 60 22 -50q24 -53 53 -56q9 -1 20 2q54 15 67 80q13 60 -18 111q-73 121 -277 86q-20 -3 -42 -8q-174 -39 -253 -161q-22 -33 -38 -73q-85 -205 20 -386q13 -21 28 -43q69 -99 192 -107q13 -1 27 -1h143q116 6 202 69 q32 23 43 97q9 60 -6 107t-80 79l-4 2q-41 19 -121 28q-81 9 -83 -16l-4 -39v-1v-2v-1q2 -19 16 -26q20 -10 104 -27q63 -13 62 -32q0 -2 -1 -4q-12 -37 -37 -51q-131 -73 -266 3q-47 26 -81 151q-22 84 -18 131z" />
<glyph unicode="H" horiz-adv-x="720" d="M185 429q-5 107 -39 178q-9 19 -21 40q-11 19 -57 42q-38 19 -41 35l-1 1v1q-1 8 3 17q25 60 109 48q60 -9 110 -48q37 -29 31 -99l-5 -75q1 -50 34 -74q43 -31 90 0q6 4 12 9q34 31 26 99q12 -103 -5 41q-8 69 23 99q2 1 4 3q54 46 115 48q52 1 74 -39q13 -23 -18 -48 q-38 -29 -40 -32q-10 -9 -14 -19q-46 -99 -52 -180q-2 -20 -2 -44q-1 -131 29 -212q13 -35 34 -73q11 -20 56 -43h1q38 -19 41 -34q2 -9 -2 -19q-25 -60 -109 -48q-61 9 -110 48q-38 30 -32 103l7 77q0 53 -35 78q-43 31 -89 1q-7 -5 -13 -10q-35 -32 -27 -102q9 -72 9 -79 q-1 -46 -30 -71q-53 -46 -114 -48q-53 -2 -75 39q-13 23 19 48q37 28 42 34q7 8 11 17q49 116 52 223q1 28 -1 62v6z" />
<glyph unicode="I" horiz-adv-x="591" d="M236 759l-108 -1q-80 -6 -90 -62q-7 -39 42 -58l84 -28q41 -18 51 -49q39 -123 22 -229q-1 -9 -3 -19q-4 -24 -34 -142q-7 -28 -61 -23q-56 4 -67 1q-18 -4 -19 -23q-3 -70 90 -90q32 -6 149 -12h7q108 -6 129 -4q92 7 102 73q5 31 -38 43q31 -9 -48 11h-2v0 q-49 13 -56 42q-29 121 -29 226q0 47 5 149q2 37 63 51l79 16q38 12 39 37q0 5 -1 10q-12 80 -118 88q-30 2 -151 -5h-2q-1 0 -2 -1q-18 -1 -33 -1z" />
<glyph unicode="J" horiz-adv-x="591" d="M325 105q44 136 59 392q2 29 3 67q2 37 63 51l79 16q38 12 39 37q0 5 -1 10q-12 77 -112 86q-18 2 -41 2l-153 -7l-132 5q-89 -3 -103 -61q-1 -3 -2 -7q-7 -41 45 -59l97 -25q49 -17 59 -51q45 -141 25 -274q-7 -52 -30 -143q-7 -30 -98 59q-51 51 -49 49q-24 23 -41 -19 q-15 -38 -7 -65q43 -141 134 -163q66 -16 122 34q32 28 44 66z" />
<glyph unicode="K" horiz-adv-x="692" d="M635 18q52 43 2 109q-15 19 -45 50q-72 72 -89 95q-13 17 -22 32q-8 14 -43 48q-32 32 -23 55q1 4 3 7q22 37 100 121q93 98 126 164q9 18 16 37q9 24 -9 39q-5 3 -10 5q-68 20 -119 -61q-13 -21 -30 -57q87 182 -23 -48q-43 -91 -81 -112q-29 -17 -64 -7q-45 12 -45 74 q0 -11 3 71q3 76 -34 103q-65 48 -134 49q-64 1 -85 -49q-11 -26 25 -46q-59 32 32 -17q29 -16 39 -33q48 -82 57 -174q2 -19 3 -44q6 -129 -27 -227q-9 -30 -24 -64q-8 -18 -44 -45q-32 -23 -32 -39q0 -7 4 -15q29 -54 106 -34q46 11 83 43q35 30 22 108q-11 74 -12 81 q-1 47 34 61l4 2q67 24 130 -73q10 -15 66 -120q48 -90 84 -103q27 -10 56 14z" />
<glyph unicode="L" horiz-adv-x="640" d="M26 748q-33 -42 -3 -104q-8 16 32 -61q23 -43 27 -76l24 -163q8 -80 -10 -158q-6 -28 -50 -69q-36 -35 -39 -53q-2 -14 8 -28q35 -49 103 -24l122 54q42 16 75 15q45 -1 121 -42q67 -36 98 -36q29 0 55 21q46 38 31 103q-9 35 -34 62q-39 42 -109 30q29 5 -67 -14 q-77 -16 -128 11q-72 38 -77 129q-2 26 2 76q5 81 3 113q-2 35 26 101v1l1 1v1q24 59 12 89v1q-5 12 -15 23q-45 50 -115 45q-59 -5 -93 -48z" />
<glyph unicode="M" horiz-adv-x="842" d="M410 121q-54 2 -71 107l-17 131q-11 55 -40 40q-5 -2 -10 -6q-14 -10 -1 -86q19 -119 12 -170q-8 -57 -41 -87q-53 -48 -120 -47q-62 0 -90 47q-21 35 16 75l50 51q21 25 26 49q28 123 6 248q-6 37 -20 97q-8 30 -49 77l-1 1q-38 42 -39 65q0 16 11 31q39 57 153 -1 q4 -3 10 -5l1 -1q1 -1 4 -2q63 -34 120 -158q-139 301 32 -69q32 -70 56 -75q7 -1 14 2q29 -11 59 49l62 134q45 88 99 117q111 60 155 24l1 -1h1l6 -6v-1l1 -1l1 -1q2 -3 3 -5q23 -33 -11 -76l-46 -55q-16 -22 -21 -43q-34 -147 -30 -232q2 -53 16 -113q7 -32 54 -78 q39 -38 45 -57q6 -20 -7 -40q-33 -56 -110 -46q-57 7 -100 46q-58 53 -37 201l15 107q2 28 -8 35q-38 29 -55 -29v-1q-6 -19 -12 -58q-18 -107 -33 -139q-22 -46 -60 -45z" />
<glyph unicode="N" horiz-adv-x="788" d="M49 744q-23 -33 12 -76l45 -55q16 -22 21 -43q35 -147 31 -232q-2 -53 -16 -113q-7 -32 -54 -78q-39 -38 -45 -57q-6 -20 6 -40q34 -56 111 -46q57 7 99 46q58 53 38 201l-16 107q-1 28 8 35q83 62 172 -48q69 -85 103 -211q1 -7 3 -13q3 -14 -18 -41q-18 -23 -8 -36 q33 -41 103 -43q67 -1 94 37q9 13 10 30q24 335 -15 673q-4 33 -52 42q-49 9 -80 -15q-12 -10 -15 -24q-9 -47 9 -169q14 -100 1 -125q-6 -11 -16 -15q-29 -11 -91 56l-110 123q-88 92 -162 121q-75 29 -83 31q-59 16 -85 -22z" />
<glyph unicode="O" horiz-adv-x="814" d="M435 637q117 -6 188 -95v-1q51 -65 56 -151q7 -111 -61 -190q-11 -13 -24 -24q-52 -45 -119 -50q-117 -10 -210 68q-90 77 -100 189q-1 15 0 30q2 104 91 171q78 58 179 53zM429 789q-150 6 -267 -87q-115 -91 -133 -231q-3 -20 -3 -42q-2 -157 107 -277 q103 -113 253 -135q42 -6 85 -3q145 9 238 125q90 111 86 262v5q-6 159 -111 269q-104 108 -255 114z" />
<glyph unicode="P" horiz-adv-x="615" d="M206 621q51 56 131 41q46 -9 82 -41q46 -40 39 -97q-3 -28 -21 -50q-48 -58 -125 -52q-51 3 -91 37q-47 40 -42 100q0 4 1 9v1q6 30 26 52zM39 675q5 -23 34 -98q14 -37 20 -70q19 -109 9 -199q-2 -9 -3 -20q-5 -36 -43 -97q-35 -55 -34 -86q1 -18 11 -36q28 -51 88 -55 q32 -2 61 13q51 26 57 101q-2 -27 3 74q4 79 42 116q34 33 109 33q71 1 91 6q33 10 52 39q58 91 23 187q-19 49 -59 86q-95 87 -182 108q-38 9 -88 10q-24 0 -54 -1q-60 -3 -105 -37q-12 -10 -20 -20v-1q-18 -25 -12 -53z" />
<glyph unicode="Q" horiz-adv-x="847" d="M430 637q117 -6 188 -95v0q51 -66 57 -152q1 -28 -20 -73q-11 -21 -20 -25q-16 -7 -44 23q-31 33 -46 36q-6 2 -12 1q-29 -5 -48 -31q-12 -15 -7 -27q7 -16 47 -44q42 -29 48 -50q1 -3 1 -5q4 -25 -58 -53q-32 -15 -46 -16q-117 -10 -209 68q-91 77 -100 189q-2 15 -1 30 q3 104 91 171q79 58 179 53zM424 789q-150 6 -266 -87q-34 -27 -61 -60q-75 -94 -76 -213q-2 -157 107 -277q104 -113 253 -135q43 -6 86 -3q117 7 203 88q3 3 70 -68l16 -16q6 -6 7 -6q37 -10 56 30q12 27 4 51q-7 24 -56 63l-2 1q-33 26 -29 35q58 115 54 214 q-6 159 -111 269h-1q-75 78 -179 104q-37 8 -75 10z" />
<glyph unicode="R" horiz-adv-x="643" d="M234 621q51 56 131 41q46 -9 82 -41q46 -40 39 -97q-3 -28 -21 -50q-48 -58 -125 -52q-51 3 -91 37q-47 40 -42 100q0 4 1 9v1q6 30 26 52zM39 675q6 -28 36 -95l1 -1q17 -39 23 -72q20 -106 9 -194q-1 -11 -3 -25q-5 -37 -46 -97q-37 -54 -37 -84q0 -19 11 -38 q32 -58 103 -59q39 -2 74 17q43 22 46 99q-4 -94 0 59q2 70 37 88q4 2 9 4q3 1 7 2q32 8 132 -132l85 -121l2 -2q25 -17 59 5q35 21 27 52q-2 6 -5 12q-17 29 -96 94q-79 66 -96 95q-10 18 -7 33q1 5 4 9q11 18 102 51l3 1h2v0l1 1h1q38 14 41 19q58 91 23 187 q-19 49 -59 86q-95 87 -182 108q-38 9 -88 10q-24 0 -54 -1q-61 -3 -117 -35q-58 -33 -48 -76z" />
<glyph unicode="S" horiz-adv-x="674" d="M124 237q-53 13 -65 13q-22 -1 -34 -19q-33 -51 14 -111q18 -22 43 -38q168 -108 342 -65q100 24 183 97q41 36 21 108q-31 112 -122 155q-12 6 -25 11q-28 10 -119 55q-45 21 -91 38q-49 18 -71 63q-19 39 2 71q51 81 214 2q11 -5 23 -11q189 -97 216 -9q28 95 -116 140 l-1 1v0q-39 12 -183 39q-119 22 -191 -9q-30 -12 -58 -34q-102 -78 -81 -175q30 -138 190 -195q26 -9 56 -16q131 -30 175 -71q37 -35 35 -85q-3 -65 -92 -82q-24 -5 -52 -5q-50 0 -99 48q-48 48 -51 50q-30 26 -63 34z" />
<glyph unicode="T" horiz-adv-x="769" d="M78 759q-47 -14 -64 -68q-16 -54 13 -97q24 -36 87 -21l77 19q47 7 73 -19q63 -65 53 -170q-2 -14 -22 -130q-7 -37 -10 -66q-2 -22 -29 -68q-25 -42 -12 -66q2 -3 5 -7q45 -59 125 -63q82 -5 130 51q3 3 5 6q19 25 -5 64q-28 43 -31 52q-5 11 -6 22l-28 183 q-11 112 48 178q5 6 10 11q28 28 89 12q60 -15 73 -15q31 0 49 21q39 46 36 108q-4 62 -51 78q-79 27 -213 24l-90 -3q-144 -3 -172 -6q-62 -7 -140 -30z" />
<glyph unicode="U" horiz-adv-x="845" d="M68 753q-75 -89 -37 -215q12 -40 41 -100q64 -137 67 -145q11 -26 19 -50l32 -111q20 -52 64 -78q175 -104 333 -21q26 14 51 33q36 27 41 87q8 71 10 81q14 62 74 193q55 119 60 179q5 80 -53 141q-49 51 -128 22q-39 -15 -70 -46q-68 -68 -64 -181q1 -17 3 -38 q-9 98 10 -94q9 -81 0 -137q-8 -52 -69 -64l-12 -2q-69 -8 -95 34q-4 8 -7 17q-20 68 -8 197q12 118 5 166q-12 80 -72 132q-56 48 -123 39q-44 -6 -72 -39z" />
<glyph unicode="V" horiz-adv-x="845" d="M450 186q-14 46 -39 198q-28 169 -81 269q-28 53 -67 100q-39 48 -106 44q-57 -2 -89 -44q-79 -102 -20 -243q22 -54 104 -184q27 -43 43 -71q106 -183 201 -237q32 -18 60 -18q73 0 196 186q43 66 52 87l90 195q54 133 19 216q-15 33 -43 63q-42 44 -109 33 q-61 -9 -89 -57q-78 -131 -99 -315q6 55 -13 -145q-5 -44 -10 -77z" />
<glyph unicode="W" horiz-adv-x="1031" d="M493 738q-60 -105 -119 -402q-18 -92 -26 -150q-8 41 -30 210q-25 189 -80 302q-14 28 -30 55q-24 40 -79 34q-42 -4 -67 -34q-78 -95 -33 -231q15 -44 48 -109l75 -146q3 -6 5 -12q55 -121 127 -204q44 -51 69 -51q63 0 153 203q30 70 33 70q20 -9 71 -100 q64 -113 95 -142l1 -1q20 -20 38 -20q57 -1 151 195q29 60 35 78l69 202q44 146 2 234q-9 20 -22 38q-26 36 -80 26q-50 -10 -68 -50q-61 -136 -76 -333q35 458 -9 -131q-3 -41 -7 -73q-6 29 -27 215q-28 243 -78 318q-4 7 -9 12q-33 41 -83 31q-8 -2 -15 -5l-2 -1 q-16 -7 -26 -20z" />
<glyph unicode="X" horiz-adv-x="862" d="M40 732q-19 -56 39 -105q13 -12 40 -31q67 -47 89 -75q20 -27 25 -58q10 -74 -59 -167l-75 -97q-55 -80 -28 -141q5 -10 12 -20q40 -61 138 -23q15 6 30 14q49 26 68 114q-30 -138 13 65q15 74 51 91q14 7 33 8q58 2 84 -64q4 -9 7 -20l30 -106q24 -66 69 -88 q104 -51 153 -11q11 9 18 23q37 69 -30 139q-17 17 -94 80q-84 68 -105 120q-12 32 -9 65q6 64 90 115q-8 -5 82 46h2q72 41 85 79q7 24 -2 54q-25 73 -138 53q-27 -4 -55 -14q-52 -17 -84 -93l-36 -89l-1 -1q-23 -45 -56 -57q-10 -4 -22 -4q-5 -1 -9 -1q-56 1 -84 66 l-29 82q-28 78 -73 98q-6 3 -13 5q-75 23 -123 -9q-15 -9 -24 -23q-6 -9 -9 -20z" />
<glyph unicode="Y" horiz-adv-x="757" d="M18 738q-24 -58 34 -105q16 -13 62 -42q77 -49 103 -87q8 -13 14 -27q28 -72 13 -189q-15 -104 -14 -134q3 -58 31 -100q31 -46 97 -49q65 -3 97 41q4 5 7 11q36 70 23 173q-15 108 -14 98q-6 77 21 137q23 51 108 95q81 42 84 44q64 39 53 96q0 1 -1 2q0 3 -1 6 q-18 64 -104 64q-42 0 -85 -16q-48 -18 -71 -97q17 60 -17 -63q-19 -69 -53 -82h-1h-1q-13 -5 -28 -4q-49 2 -66 61v1l-22 113l-1 1v1q-15 53 -52 72q-88 46 -154 30q-45 -10 -62 -51z" />
<glyph unicode="Z" horiz-adv-x="883" d="M112 756q-47 -15 -67 -65q-18 -49 7 -88q59 -94 321 -41l209 46h3q38 6 39 -6v0q-1 -11 -26 -35q-74 -71 -202 -132q-158 -76 -165 -80q-80 -42 -152 -91q-43 -29 -45 -92q-1 -62 40 -88q5 -4 11 -6q208 -89 396 -68q120 13 270 71q52 20 56 49q4 35 -47 98 q-55 67 -257 -12q45 17 -111 -47q-45 -19 -57 -17q-7 0 -7 6v1v0q1 8 15 27q47 65 142 120l127 72q1 1 2 1q29 19 56 38l112 80q24 20 34 41l1 1q12 25 27 103q22 118 -142 142q-43 7 -102 8h-38l-213 2q-126 -3 -237 -38z" />
<glyph unicode="[" horiz-adv-x="340" d="M280 654q34 40 14 88q-6 14 -17 26q-20 21 -63 14q30 5 -14 -2q-17 -3 -28 -3l-73 8q-24 -1 -35 -20q-47 -76 -39 -197l14 -171q1 -21 1 -40l-11 -198q0 -72 23 -120q17 -37 62 -31q-45 -5 42 8h1q14 2 24 2l65 -4q24 2 40 19q40 43 28 93q-5 20 -19 36q-20 21 -74 1 q-48 -18 -61 -15t-18 17q-21 55 -17 153q3 64 2 93l-10 135q0 41 10 90q6 28 49 18l59 -13q25 -3 39 7l1 1z" />
<glyph unicode="\" horiz-adv-x="400" d="M122 759q-14 25 -57 28q-9 0 -17 -1q-17 -3 -24 -12h-1v-1q-4 -6 -3 -14q23 -178 96 -391q1 -3 2 -5q54 -158 59 -169q33 -83 86 -155q19 -26 64 -20q42 6 47 31q1 5 0 10q-12 76 -67 212q-30 72 -44 112l-88 257q-25 67 -53 118z" />
<glyph unicode="]" horiz-adv-x="340" d="M60 654q-34 40 -14 88q6 14 17 26q20 21 63 14q-30 5 14 -2q17 -3 28 -3l73 8q24 -1 35 -20q47 -76 39 -197l-14 -171q-1 -21 -1 -40l11 -198q0 -72 -23 -120q-17 -37 -62 -31q45 -5 -42 8h-1q-14 2 -24 2l-65 -4q-24 2 -40 19q-40 43 -28 93q5 20 19 36q20 21 74 1 q48 -18 61 -15t18 17q21 55 17 153q-3 64 -2 93l10 135q0 41 -10 90q-6 28 -49 18l-59 -13q-25 -3 -39 7l-1 1z" />
<glyph unicode="^" d="M18 591q-2 -36 74 -3q7 3 13 6q19 9 34 49q14 35 30 40h1q5 1 10 1q23 -1 33 -34q12 -42 16 -49q6 -10 17 -16q56 -30 78 0t-12 84q12 -19 -21 33q-35 55 -48 68q-26 25 -60 25q-36 0 -65 -41q41 57 -19 -28l-1 -1l-1 -1q-5 -7 -10 -13q-45 -55 -52 -67q-15 -26 -17 -53z " />
<glyph unicode="_" horiz-adv-x="675" d="M337 147q-27 0 -131 13q-91 12 -138 -13q-5 -3 -11 -7q-46 -31 -33 -74q7 -21 29 -37q46 -34 137 -26q-180 -16 77 9q32 3 57 3q28 0 142 -13q101 -11 148 16l1 1q10 5 18 13q40 35 5 78q-6 8 -15 15l-1 1l-1 1q-9 7 -19 13q-50 29 -139 19q-102 -12 -126 -12z" />
<glyph unicode="`" horiz-adv-x="250" d="M21 747q-1 33 47 31q43 -2 73 -25q42 -32 74 -139q27 -89 12 -110q-10 -13 -38 21q-21 26 -86 84q-60 53 -75 96q-6 20 -7 42z" />
<glyph unicode="a" horiz-adv-x="483" d="M130 201q33 37 78 30q21 -4 36 -18q30 -28 16 -70q-6 -17 -19 -29q-35 -32 -81 -14q-17 7 -30 20q-28 29 -10 66q4 8 10 15zM49 456q-27 -33 -7 -66l1 -1l6 -8q24 -26 79 -12q55 15 71 14q21 -2 36 -17q22 -23 3 -51t-71 -29q-53 -1 -70 -9q-12 -6 -21 -16 q-69 -79 -58 -156q3 -28 19 -51q44 -67 118 -49q6 1 75 26q50 18 80 11l81 -28q24 -5 48 4q39 15 33 42q-5 23 -41 30q-41 7 -52 17q-6 4 -9 10q-31 53 -4 142l27 89q17 72 -23 117q-34 38 -101 31l-85 -10l-81 -1q-34 -4 -54 -29z" />
<glyph unicode="b" horiz-adv-x="526" d="M194 190q46 -46 105 -37q32 4 56 27q47 47 37 115q-7 43 -37 73q-3 4 -7 7q-47 40 -109 17q-32 -12 -54 -39q-43 -52 -21 -115q9 -27 30 -48zM169 454q3 -23 33 -5l47 29q12 5 20 6l87 16q38 4 63 -20q145 -135 36 -382q-27 -62 -106 -80q-35 -8 -86 18q-52 25 -83 23 q-3 -1 -7 -1q-16 -2 -40 -24q-20 -18 -38 -18q-28 0 -42 22q-30 50 -17 124q14 86 14 92q1 11 1 22q2 183 -16 324l-10 82v1q-2 63 50 103q30 22 60 0l4 -4q40 -36 37 -106l-5 -91v-1v-1v-1v-12q1 -9 -2 -77q-1 -20 0 -39z" />
<glyph unicode="c" horiz-adv-x="365" d="M320 434q31 -32 16 -74q-5 -16 -16 -27q-20 -20 -65 -5q-46 16 -62 13q-11 -2 -20 -10q-43 -39 -35 -92q3 -24 18 -43q19 -23 66 -11q49 12 64 9l1 -1q12 -3 21 -11q38 -38 28 -84q-4 -18 -16 -31q-57 -65 -147 -50q-52 9 -96 42q-52 41 -52 125q0 2 4 89q4 80 11 103 q12 37 44 60q84 60 166 38q40 -10 70 -40z" />
<glyph unicode="d" horiz-adv-x="526" d="M315 190q-46 -46 -105 -37q-32 4 -56 27q-47 47 -37 115q7 43 37 73q3 4 7 7q47 40 109 17q32 -12 54 -39q43 -52 21 -115q-9 -27 -30 -48zM340 454q-3 -23 -33 -5l-47 29q-12 5 -20 6l-87 16q-38 4 -63 -20q-145 -135 -36 -382q27 -62 106 -80q35 -8 86 18q52 25 83 23 q3 -1 7 -1q16 -2 40 -24q20 -18 38 -18q28 0 42 22q30 50 17 124q-14 86 -14 92q-1 11 -1 22q-2 183 16 324l10 82v1q2 63 -50 103q-30 22 -60 0l-4 -4q-40 -36 -37 -106l5 -91v-1v-1v-1v-12q-1 -9 2 -77q1 -20 0 -39z" />
<glyph unicode="e" horiz-adv-x="365" d="M264 369q-28 32 -74 21q-27 -7 -44 -28q-12 -16 8 -34q42 -38 87 -18q7 4 13 9q22 16 16 39v1q-2 6 -6 10zM300 125q36 -35 20 -58q-46 -65 -136 -53q-58 8 -107 45q-52 41 -52 125q0 2 4 89q4 80 11 103l1 1q12 37 43 59q82 58 161 42q44 -10 75 -44q53 -61 22 -144 q-15 -39 -46 -71q-1 -1 -46 12q-92 26 -121 -9q-23 -29 8 -66q4 -5 9 -9q32 -30 133 -22q20 1 21 0z" />
<glyph unicode="f" horiz-adv-x="450" d="M134 30q16 -27 58 -25q40 2 50 34q11 56 -3 156q-12 88 -6 138q3 24 39 15q50 -11 54 -11h2h1q20 -1 30 11q25 29 7 62v1l-1 1l-1 1v1l-1 1q-3 4 -7 8q-18 17 -68 -3q-43 -17 -54 -10q-7 4 -10 13q-29 90 -30 116q-2 37 21 79q40 72 114 63q17 -2 33 -27q15 -25 30 -30 q63 -23 83 -15q13 4 19 18q29 68 -78 121q-24 11 -51 20q-146 48 -228 -45q-49 -56 -39 -152q-2 15 13 -88q4 -26 5 -45q1 -14 -14 -10q4 -1 -37 15q-30 12 -42 1q-28 -27 -12 -65v-1q5 -10 12 -18q12 -13 54 -1q33 9 38 -2v-1v0v0v-1q1 -2 1 -4q4 -44 -5 -155 q-9 -99 15 -151q4 -8 8 -15z" />
<glyph unicode="g" horiz-adv-x="430" d="M273 200q-39 -38 -88 -27q-24 5 -41 23q-46 47 -22 115q9 25 26 45q3 5 8 10q53 56 129 16q49 -25 35 -94q-10 -51 -47 -88zM69 -30q-37 -34 -29 -81q4 -23 20 -39q63 -66 161 -43q54 13 100 52q64 55 68 153q0 16 -3 108q-2 48 1 82q1 18 19 104q16 78 -10 118 q-7 11 -18 21q-71 65 -167 50q-69 -11 -119 -62q-84 -86 -74 -204q7 -86 65 -156q23 -28 81 -18q56 9 72 7q22 -3 37 -19q29 -31 15 -63q-4 -7 -9 -13q-27 -29 -85 -7q-64 23 -49 18q-49 16 -76 -8z" />
<glyph unicode="h" horiz-adv-x="509" d="M30 33q-7 74 4 235q5 85 5 143q1 25 -7 211q-3 82 1 146q2 26 41 26q40 0 59 -23q4 -6 5 -12q23 -87 11 -213q-9 -110 -11 -144q0 -28 10 -28h1q10 1 51 42q60 62 92 61q78 -4 117 -72q143 -248 9 -384q-27 -28 -65 -14q-12 5 -22 14q-31 31 -14 92l19 70q8 40 -8 69 q-35 66 -91 63q-46 -2 -77 -60q-3 -5 -7 -12q-16 -34 0 -98q14 -58 8 -81q-5 -17 -20 -31q-28 -27 -70 -28q-38 0 -41 28z" />
<glyph unicode="i" horiz-adv-x="207" d="M52 479q27 -38 69 -30q26 4 42 26q30 40 6 94q-7 16 -18 29q-31 35 -67 20q-11 -4 -20 -13q-34 -35 -27 -86q3 -23 15 -40zM46 40q31 -36 72 -20q15 6 27 20q29 31 21 96q-9 74 -9 91q1 15 14 84q12 60 -14 92q-32 42 -78 31q-22 -5 -39 -24q-27 -31 -15 -92 q-30 154 9 -42q6 -28 6 -49q1 -19 -11 -91q-10 -63 17 -96z" />
<glyph unicode="j" horiz-adv-x="207" d="M33 367q-28 -30 -13 -85q17 -64 17 -70q2 -11 2 -21l5 -109q-1 -29 -11 -58q-11 -31 -55 -66q-40 -32 -50 -50t-7 -40q5 -43 41 -60q16 -8 34 -6q66 7 100 82q4 9 37 102q2 7 5 14q19 51 18 133q-1 55 3 87q2 19 25 73v1q20 49 0 76l-4 4q-37 40 -94 25q-31 -8 -53 -32z M52 479q27 -38 69 -30q26 4 42 26q30 40 6 94q-7 16 -18 29q-31 35 -67 20q-11 -4 -20 -13q-34 -35 -27 -86q3 -23 15 -40z" />
<glyph unicode="k" horiz-adv-x="454" d="M45 698q-43 -34 -35 -104q-3 24 10 -70q5 -34 4 -59q-11 -200 -11 -229q0 -55 5 -116q8 -108 41 -109q9 -1 23 6l32 16q21 9 11 44q-11 40 -11 51q1 21 -15 96q-13 65 9 84q8 6 21 9q44 10 63 -44q0 1 21 -77q10 -36 22 -56q7 -12 24 -65q14 -42 44 -57q59 -29 99 -7 q16 8 24 25q19 38 -19 81q13 -15 -36 38q-24 25 -34 45q-11 21 -57 72q-42 47 -38 77q2 13 10 26q34 53 53 63q12 6 22 18q8 9 46 37q35 26 29 56q-8 32 -54 28q-3 -1 -6 -1q-30 -5 -55 -40q-27 -37 -44 -49l-86 -69q-37 -25 -37 6q0 46 11 150q5 53 4 112q-1 27 -39 28 q-31 0 -51 -16z" />
<glyph unicode="l" horiz-adv-x="200" d="M50 762q-13 -74 0 -193q9 -86 9 -134q1 -49 -14 -187q-13 -122 8 -200q8 -26 48 -30q41 -4 52 18q2 4 2 9q10 93 0 242q-5 81 -6 136l8 254q-1 41 -5 79q-2 26 -41 32q-40 6 -56 -15q-4 -5 -5 -11z" />
<glyph unicode="m" horiz-adv-x="562" d="M103 26q-23 -23 -49 -20q-14 2 -20 14q-21 47 -12 118q9 60 9 83q1 28 -13 116q-12 78 14 128q5 10 11 20q16 23 47 10q9 -4 16 -10q11 -9 3 -40q-7 -27 6 -33q18 -7 35 19q-6 -10 6 8q14 23 28 28q62 23 95 13q11 -4 22 -10q9 -5 13 -31l1 -1v-1v-2l1 -1q3 -12 12 -15 q16 -4 35 17q16 18 28 22l57 18q33 7 54 -12q39 -33 32 -99q5 46 -9 -61q-4 -32 -2 -56q2 -22 18 -93q14 -62 -3 -138q-5 -22 -37 -15q-11 2 -20 8v0h-1q-2 2 -5 4q-40 36 -31 104q-6 -40 10 66q6 38 3 67q0 6 4 48q3 30 -16 42q-42 27 -93 -27q-13 -14 -14 -49v-1v-1 q0 -11 -1 -18q-4 -33 11 -113q13 -69 -5 -98q-5 -8 -12 -14q-23 -22 -56 -3q-17 10 -25 27q-14 34 2 95q17 64 15 96q-3 50 -8 64q-4 8 -10 17q-15 24 -35 25q-43 3 -75 -39q-14 -18 -15 -59q-1 -15 -3 -25q-4 -26 6 -93q8 -60 -16 -90q-3 -5 -8 -9z" />
<glyph unicode="n" horiz-adv-x="373" d="M342 321q0 -2 -3 -71v-5q-1 -27 13 -110q13 -74 -10 -105q-4 -5 -9 -10q-23 -22 -56 -3q-18 10 -25 27q-15 34 2 95q17 64 15 96q-3 50 -9 64q-3 8 -9 17q-16 24 -35 25q-43 3 -75 -39q-14 -18 -16 -59q-1 -15 -2 -25q-4 -26 5 -93q9 -60 -15 -90q-4 -5 -8 -9 q-23 -23 -49 -20q-15 2 -20 14q-22 47 -12 118q9 60 9 83q0 28 -13 116q-12 78 13 128q5 10 12 20q15 23 47 10q9 -4 16 -10q10 -9 2 -40q-7 -27 7 -33q17 -7 35 19q-7 -10 5 8q15 23 29 28q62 23 95 13q11 -4 22 -10q15 -9 23 -39q3 -8 4 -12q9 -30 12 -93v-5z" />
<glyph unicode="o" horiz-adv-x="522" d="M261 374q63 2 99 -48l1 -1q19 -27 21 -61q5 -65 -44 -108q-32 -26 -72 -29q-63 -3 -102 49q-24 32 -25 71q-1 65 52 104q31 22 70 23zM261 492q-108 -4 -178 -84q-62 -71 -60 -164q3 -104 81 -174q72 -65 167 -60q106 6 173 91q61 77 54 176q-6 103 -87 166 q-66 52 -150 49z" />
<glyph unicode="p" horiz-adv-x="522" d="M245 255q4 -51 45 -76q23 -14 49 -11q43 6 60 50q8 24 4 49q-7 47 -49 65q-20 9 -42 7q-42 -5 -60 -45q-8 -19 -7 -39zM192 -155q-34 -39 -88 -40q-51 -1 -71 37q-29 57 -15 156l18 118q2 21 2 40q1 29 -13 134q-14 102 13 155q11 22 30 41q31 31 73 14q13 -5 23 -14 q16 -14 4 -56q-10 -39 1 -50q3 -3 7 -5q33 -16 68 27q-27 -34 28 39q37 49 72 42q101 -19 143 -117q22 -49 22 -108q1 -120 -71 -188q-40 -38 -97 -49q-32 -6 -66 41q-32 44 -38 50q-22 20 -46 8q-39 -20 -28 -80q-5 29 14 -61q5 -24 5 -42q1 -11 14 -48q10 -28 -4 -44z" />
<glyph unicode="q" horiz-adv-x="522" d="M277 255q-4 -51 -45 -76q-23 -14 -49 -11q-43 6 -60 50q-8 24 -4 49q7 47 49 65q20 9 42 7q43 -5 61 -46q7 -18 6 -38zM330 -155q34 -39 88 -40q51 -1 71 37q29 57 15 156l-18 118q-2 21 -2 40q-1 29 13 134q14 102 -13 155q-11 22 -30 41q-31 31 -73 14q-10 -3 -18 -9 l-1 -1v-1q-2 -1 -4 -3q-16 -14 -4 -56q10 -39 -1 -50q-3 -3 -7 -5q-33 -16 -68 27q27 -34 -28 39q-37 49 -72 42q-101 -19 -143 -117q-22 -49 -22 -108q-1 -120 71 -188q40 -38 97 -49q32 -6 66 41q32 44 38 50q22 20 46 8q39 -20 28 -80q5 29 -14 -61q-5 -24 -5 -42 q-1 -11 -14 -48q-10 -28 4 -44z" />
<glyph unicode="r" horiz-adv-x="461" d="M189 32q-41 -40 -97 -27q-27 7 -47 27q-32 32 -19 92q-19 -84 12 50q7 27 7 48q1 32 -17 118q-15 78 6 117q9 16 23 29q41 39 103 3q3 -1 5 -3q12 -8 15 -39q3 -28 18 -33q18 -5 38 18q-1 -2 3 3q19 21 34 24q59 11 96 -18q108 -87 69 -162q-19 -36 -63 -35q-24 1 -42 14 q-15 10 -6 48q-1 -2 0 1q8 35 -9 44q-60 22 -113 -81l-1 -1q-5 -11 -12 -26q-7 -14 -2 -47q2 -11 2 -19q0 -14 12 -71q10 -49 -15 -74z" />
<glyph unicode="s" horiz-adv-x="475" d="M33 146q-27 -24 -6 -64q4 -8 9 -15q48 -59 144 -58q24 0 72 4q93 9 127 26q37 19 55 58q37 82 -32 158q-7 8 -15 14v1l-1 1q-3 3 -7 6q-31 26 -89 21q-58 -4 -81 0h-59q-13 3 -17 17q-9 36 52 60q7 2 32 11q38 13 102 -9l10 -3q59 -21 90 -8q10 4 19 11q28 21 14 55 q-20 44 -91 50q-4 1 -9 1q-155 10 -230 -36q-39 -25 -66 -67q-2 -2 -4 -5q-38 -62 -2 -123q9 -14 21 -26q40 -40 117 -31q-103 -12 59 8q53 6 86 -5q32 -10 3 -54q-18 -27 -42 -42l-1 -1q-3 -2 -6 -3q-26 -14 -67 3q16 -6 -10 4q-21 9 -36 12q-17 3 -67 28q-45 22 -74 1z " />
<glyph unicode="t" horiz-adv-x="355" d="M38 504q11 13 39 0q29 -12 42 0q10 11 4 43v1q-6 28 5 39q38 40 83 23q19 -7 34 -23q10 -12 0 -48q-6 -21 -3 -31v0v-1q2 -6 6 -10q11 -12 37 3t38 4q31 -33 20 -106q-5 -34 -14 -43q-12 -11 -36 8v0q-25 19 -36 13l-1 -1h-1l-1 -2q-30 -27 -31 -46l1 -53l-5 -77 q2 -26 20 -52q10 -15 39 -7q0 -1 4 0q30 8 41 -7q22 -33 3 -69q-4 -8 -9 -14q-57 -60 -131 -43q-48 12 -82 54q-32 38 -21 109l14 88q0 5 1 10q0 11 14 51v2q9 26 -2 43q-10 15 -39 5q-29 -11 -39 -1q-2 2 -3 4q-32 44 -12 99q7 20 21 35z" />
<glyph unicode="u" horiz-adv-x="462" d="M41 462q-36 -34 -23 -97l18 -83q2 -15 2 -29q0 -22 -14 -91q-13 -62 11 -100q2 -2 3 -4q34 -48 112 -51h4h22h6q20 1 51 25q29 21 51 17q8 -1 16 -16q5 -8 11 -11q45 -19 66 0q48 42 44 121q1 -20 -8 80q-4 40 -1 69q2 16 20 77q17 55 -7 84q-1 2 -3 4q-32 36 -80 24 q-19 -5 -34 -18q-29 -25 -22 -79q-12 92 5 -34q4 -34 -1 -58l-13 -98q-9 -36 -38 -55q-38 -24 -71 0q-5 3 -10 9q-28 31 -14 87q16 64 17 75v18q0 8 6 63q5 43 -18 65q-36 35 -80 22q-16 -5 -28 -16z" />
<glyph unicode="v" horiz-adv-x="425" d="M3 395q-2 59 74 18q19 -10 38 -24q25 -18 43 -90q17 -64 32 -77q9 -8 22 -7q29 2 41 61l16 81q10 35 28 49q73 59 101 0q27 -57 -13 -156q7 16 -30 -70q-43 -101 -56 -123q-36 -57 -83 -57q-43 0 -75 62q9 -17 -36 76q-7 14 -13 25q-54 99 -61 115q-25 58 -28 117z" />
<glyph unicode="w" horiz-adv-x="702" d="M375 406q-43 25 -78 0q-30 -21 -28 -90q2 -62 -3 -76l-1 -2v-1q-9 -20 -33 -22q-36 -3 -47 42l-16 82q-11 36 -34 50q-48 30 -86 29q-27 0 -26 -23q3 -77 51 -164q-14 25 38 -68q7 -13 36 -86q25 -63 57 -74q14 -5 31 -3q49 5 66 81l17 95v1q3 11 9 21q21 34 42 -9 q-1 2 32 -84q38 -98 83 -104q4 -1 8 -1q60 1 94 70q9 17 22 51q16 43 23 59q44 97 51 132q12 53 -8 94q-18 37 -76 13q-9 -3 -17 -8q-4 -2 -8 -5q-31 -20 -36 -89q6 81 -2 -28q-4 -57 -27 -69l-1 -1q-8 -4 -19 -4q-40 -3 -54 46q2 -7 -14 65v0v2q-13 60 -46 78z" />
<glyph unicode="x" horiz-adv-x="505" d="M18 432q15 49 74 57q31 4 61 -6q34 -12 46 -69q12 -59 17 -69l1 -1v-1q9 -17 24 -24q6 -3 14 -4q41 -5 70 48l36 72q21 33 48 38q7 1 14 1q43 -2 60 -45q6 -15 6 -33q0 -35 -44 -63q-45 -29 -51 -34q-22 -19 -25 -44q-4 -43 48 -92q46 -43 51 -49q30 -36 12 -72 q-20 -42 -83 -25q-11 2 -22 7q-32 14 -47 74q-14 56 -23 69q-6 9 -14 14q0 1 -1 1q-9 6 -23 7q-44 4 -70 -49q8 17 -25 -56q-27 -60 -67 -72q-64 -20 -81 18q-19 43 28 88l64 57q37 38 34 77q-2 40 -55 77q-51 35 -58 42q-25 24 -21 52q1 5 2 9z" />
<glyph unicode="y" horiz-adv-x="475" d="M48 445q-56 -81 -6 -197q14 -33 63 -119q17 -30 74 -54q49 -21 62 -35q15 -16 14 -40q-1 -55 -81 -82h-1q-14 -5 -35 -10q-22 -5 -62 17q-37 20 -54 9q-4 -2 -7 -5q-25 -24 -7 -60q6 -12 16 -21q118 -99 312 18q50 30 74 97q5 14 16 52q44 150 27 349q-6 63 -15 93 q-11 34 -61 17q-30 -11 -50 -32q-34 -36 -9 -125q23 -80 24 -85q9 -56 -36 -64q-63 -12 -87 59v1q-7 20 -24 123q-13 77 -33 115q-18 33 -65 15q-32 -11 -49 -36z" />
<glyph unicode="z" horiz-adv-x="531" d="M68 473q-32 -10 -42 -46q-7 -25 6 -45q38 -60 216 -20q108 23 107 23q19 3 20 -3t-15 -22q-47 -45 -138 -87q-112 -53 -173 -95q-30 -20 -27 -62q2 -37 30 -49q140 -60 271 -37q58 11 129 38q36 14 33 37q-2 19 -28 52q-35 42 -172 -15q-74 -31 -81 -31q-11 -1 0 16l1 1 v1l2 2q30 41 97 79q71 40 99 60l71 51q9 8 14 17q10 15 20 67q13 70 -85 85q-32 5 -85 5l-140 1q-67 -3 -130 -23z" />
<glyph unicode="{" horiz-adv-x="340" d="M303 776q-46 34 -100 18q-14 -4 -26 -12q-48 -30 -64 -98l-20 -94v-1q-4 -13 -9 -25q-5 -13 -37 -72q-26 -49 -23 -92q2 -29 31 -67q21 -28 29 -48q15 -39 13 -125q-1 -76 19 -107q12 -19 34 -33q49 -30 113 -18q32 7 52 24q35 31 15 83q-9 24 -27 41q-14 13 -47 3 q-35 -11 -49 1q-25 21 -26 68q0 50 -7 69q-5 15 -32 56q-18 27 -20 53q-3 41 25 96q20 42 27 67q2 6 3 46v1l1 1v2v1q1 20 14 32q16 16 59 10q40 -5 55 9l1 1l1 1l1 2q30 38 15 78v2q-6 16 -21 27z" />
<glyph unicode="|" horiz-adv-x="200" d="M60 781q-10 -37 1 -101q6 -38 7 -62q0 -23 -13 -97q-9 -59 8 -97q7 -16 46 -15q33 0 35 13q8 46 -1 127q-3 36 -3 63l5 129q0 19 -3 37q-3 16 -43 16q-35 1 -39 -13zM60 381q-10 -37 1 -101q6 -38 7 -62q0 -23 -13 -97q-9 -59 8 -97q7 -16 46 -15q33 0 35 13q8 46 -1 127 q-3 36 -3 63l5 129q0 19 -3 37q-3 16 -43 16q-35 1 -39 -13z" />
<glyph unicode="}" horiz-adv-x="340" d="M57 776q46 34 100 18q14 -4 26 -12q48 -30 64 -98l20 -94v-1q4 -13 9 -25q5 -13 37 -72q26 -49 23 -92q-2 -29 -31 -67q-21 -28 -29 -48q-15 -39 -13 -125q1 -76 -19 -107q-12 -19 -34 -33q-49 -30 -113 -18q-32 7 -52 24q-35 31 -15 83q9 24 27 41q14 13 47 3 q35 -11 49 1q25 21 26 68q0 50 7 69q5 15 32 56q18 27 20 53q3 41 -25 96q-20 42 -27 67q-2 6 -3 46v1l-1 1v2v1q-1 20 -14 32q-16 16 -59 10q-40 -5 -55 9l-1 1l-1 1l-1 2q-30 38 -15 78v2q6 16 21 27z" />
<glyph unicode="~" horiz-adv-x="373" d="M30 396q-32 -64 -1 -89q3 -2 7 -4q25 -13 52 21q30 38 33 41q18 17 38 16q24 -1 47 -35q22 -32 36 -39q7 -3 16 -4q58 -4 90 54q41 74 14 109q-6 9 -17 14q-19 9 -38 -20q-22 -33 -30 -39q-9 -7 -19 -7q-23 -1 -47 30q-24 29 -39 34h-1q-6 2 -12 2q-87 0 -129 -84z" />
<glyph horiz-adv-x="1597" d="M1372 532q4 -9 22 -23l1 -1q6 -5 11 -10q12 -14 33 6v1q8 8 11 17q5 17 -18 39q-25 23 -25 38q0 2 1 5q1 6 15 13q9 4 11 11q7 20 -6 27q-11 7 -34 -6q-8 -5 -13 -7l-26 -16h-1q-20 -6 -70 -2l-59 1h-1q-16 3 -29 15q-8 7 -9 30v1q0 7 -2 13l-3 28q-1 2 -3 4q-2 1 -4 1 q-11 1 -16 -15q3 10 -3 -11v-1l-1 -1v-1l-1 -1v-1q0 -2 -1 -3l-9 -37l-2 -4q-15 -21 -53 -42h-1q-27 -15 -42 -29l-49 -46q-20 -22 -26 -51q-10 -47 -13 -115v0q-1 -12 -1 -23l-3 -103q-1 -19 25 -32q24 -12 30 -16q4 -3 57 -35v0l1 -1v0q9 -5 17 -11l35 -24q18 -14 27 -25 q7 -9 21 10l1 1v1q8 11 13 15l20 18h1l1 1q7 4 36 9h1q9 1 17 5q36 17 37 18q6 5 -1 9q-15 6 -39 1h-1q-8 -2 -14 -1l-38 -5q-5 1 -7 8q-6 87 3 206q5 67 20 147q9 51 117 35q3 0 7 -1q16 -3 32 -34zM772 516l-27 92q-4 12 -9 22l-35 80l-1 1q-18 33 -48 54q-37 26 -99 27 l-37 1q-43 1 -94 -14q-69 -21 -140 -65q-90 -56 -137 -104l-1 -1q-12 -12 -24 -26q-38 -42 -66 -105q-16 -34 -21 -70q-14 -91 -4 -155q1 -6 2 -13q14 -79 24 -101q11 -26 33 -49q36 -38 102 -55q-191 48 48 -11q67 -17 167 -15q28 1 31 1l61 1q17 2 33 9q48 20 83 62 q7 8 18 22v0q1 2 3 4l94 123l29 60q2 2 3 1q8 -6 27 -85q16 -70 31 -84q57 -54 111 -76q10 -4 21 -8q85 -29 189 -26q18 1 57 3q87 5 125 17q17 6 35 15q34 16 67 56l1 1v0q2 2 6 7q61 72 74 93q25 40 36 89l31 139q12 71 -5 149q-15 68 -48 111v1l-12 14q-37 43 -88 62 l-1 1h-1l-6 2q-71 25 -159 20v0h-1h-1q-13 -1 -33 -3q-53 -4 -124 -32q-89 -35 -143 -74q-5 -4 -11 -8q-64 -49 -146 -188q-5 -8 -8 -14q-2 -3 -4 8q8 -32 -5 23v1l-1 2q-1 5 -2 8zM812 376q8 74 61 144q1 1 51 62q41 50 101 88l1 1q5 3 12 7q75 46 125 59q14 3 29 6 q95 17 149 6q21 -4 45 -13q52 -19 76 -58l1 -1v-1l1 -1l1 -1v-1l1 -1q43 -74 41 -169q0 -23 -3 -69q-8 -123 -50 -210q-12 -26 -30 -56q-28 -47 -66 -71v0l-1 -1v0h-1l-6 -4q-40 -23 -103 -29h-1h-1q-4 0 -11 -1q-35 -3 -92 8q-90 17 -102 21q-31 9 -60 27q-70 42 -110 101 q-2 2 -3 5q-9 13 -19 30q-34 58 -37 94v20q1 4 1 8zM346 64q-57 2 -124 29q-56 23 -66 29q-17 11 -30 28q-41 53 -47 131v1q-1 15 -3 48q-3 68 20 119q1 2 2 5q29 61 87 113q10 10 33 29q79 67 119 89q35 18 77 29q70 19 118 4l16 -6q47 -19 80 -66l1 -1l1 -1v-1l1 -1 q5 -7 11 -16q29 -44 46 -119q7 -30 10 -43l21 -81q5 -27 1 -55q-8 -56 -48 -111q-5 -7 -12 -16q-48 -63 -91 -89q-16 -10 -35 -19q-68 -31 -152 -30q-15 0 -36 1zM340 606q22 1 84 0l72 -4h2q35 2 51 7q8 3 37 21q1 1 6 3q4 3 8 -8q2 -5 4 -7l10 -14q1 -2 0 -6q-1 -3 -12 -7 q-4 -1 -6 -4q-5 -7 -2 -14q3 -8 22 -16q13 -6 14 -15q1 -8 -14 -22q-16 -16 -32 -18q-13 -2 -43 9q-13 5 -24 5q-85 4 -130 -14q-11 -5 -3 -26q4 -11 5 -17l4 -48q2 -21 36 -14q-52 -11 23 5q20 4 32 3q5 -1 55 2h1q36 2 43 -21q2 -9 -13 -16l-2 -1h-1q-9 -5 -13 -9l-19 -29 l-1 -1q-3 -3 -8 -5q-13 -5 -39 3v1q-11 3 -19 4l-36 8q-7 0 -13 -4q-15 -11 -14 -42v-1q1 -12 0 -19q-5 -56 -4 -68q2 -13 7 -27q3 -9 -14 -19q-7 -5 -10 -7l-20 -19q-6 -3 -13 -3q-11 0 -26 17l-1 1l-7 7q-2 1 -3 3l-33 29q-7 5 -16 7q-13 2 -41 -14q-18 -10 -30 -23 l-8 -21l-1 -1h-1h-1l-1 -1q-5 0 -10 10l-1 1l-1 1v1l-1 1l-2 2l-16 6q-1 2 0 3q10 38 42 60q2 2 6 4q23 15 74 18q25 2 39 6q15 4 12 33q-1 12 0 17q1 35 -7 50q-7 12 -21 17q-6 1 -31 -2l-35 -10l-1 1q-6 0 -10 5q-4 7 6 18v1q4 5 6 8q17 28 25 34q2 2 5 3q7 5 25 7l17 -2 l2 1q16 14 12 50q0 -1 -1 3q-3 24 0 37l3 67v2l1 1q4 15 20 16zM1126 202q-3 -16 -36 5q-14 9 -18 11l-39 19q-6 4 -9 9q-4 6 -3 15q2 16 8 119l2 28q8 89 13 125q2 12 23 19h2q9 3 14 6l24 14q4 1 11 0q20 -4 22 -22q2 -15 1 -52q-1 -36 -6 -143l-5 -119q-1 -17 -4 -34z " />
<glyph unicode="&#xa0;" />
<glyph unicode="&#xa1;" horiz-adv-x="250" d="M96 25q-58 48 -59 139q0 9 1 19l5 125v11l-13 164q-2 89 46 136q28 27 67 8q8 -5 15 -11q58 -50 59 -142l-6 -150v-7l9 -153q0 -82 -38 -134l-1 -1q-1 -2 -3 -4q-22 -28 -62 -12q-11 4 -20 12zM74 663q32 -32 77 -11q6 3 13 8q36 26 33 62q-2 12 -9 22q-24 36 -70 32 q-28 -2 -47 -20q-29 -27 -13 -68q6 -14 16 -25z" />
<glyph unicode="&#xa2;" horiz-adv-x="365" d="M174 753q3 26 23 27q19 1 26 -22q2 -5 2 -11q3 -57 0 -254q-1 -42 -1 -79l5 -293q0 -42 -2 -85q-2 -26 -21 -28q-9 0 -17 6q-11 8 -13 25q-11 81 -2 238q5 93 5 149l-9 247q1 40 4 80zM320 534q31 -32 16 -74q-5 -16 -16 -27q-20 -20 -65 -5q-46 16 -62 13 q-11 -2 -20 -10q-43 -39 -35 -92q3 -24 18 -43q19 -23 66 -11q49 12 64 9q13 -3 22 -12q38 -38 28 -84q-4 -18 -16 -31q-57 -65 -147 -50q-52 9 -96 42q-52 41 -52 125v1q0 1 4 88q4 80 11 103h1q11 37 43 60q84 60 166 38q40 -10 70 -40z" />
<glyph unicode="&#xa3;" horiz-adv-x="565" d="M111 396q3 -27 0 -46q-2 -9 -2 -27l-1 -89q-2 -21 -8 -48q-6 -28 -50 -69q-36 -35 -39 -53q-2 -14 8 -28q34 -48 102 -23q16 6 43 18q81 40 114 47q22 4 41 3q34 -2 92 -40q49 -32 74 -31q18 1 35 14q47 36 31 102q-9 36 -34 63q-28 31 -73 22q110 22 -41 -10 q-62 -14 -117 15l-55 28q-10 7 -13 37q1 -11 -1 21l-10 65q0 14 8 31q10 22 48 9q44 -14 57 -12q10 2 17 9q31 31 19 70v1q-4 12 -13 22q-18 19 -72 1q-46 -16 -56 -10q-4 2 -6 5v1q-1 2 -2 5q-1 2 -1 4q-12 79 -13 82q-2 45 24 79q46 60 114 39q21 -7 32 -44q-2 4 2 -7 q10 -37 30 -46q66 -30 100 -3q9 7 14 18q30 63 -76 127q-154 93 -297 15q-28 -15 -40 -59q0 1 -5 -19q-9 -32 1 -91v0q8 -49 0 -82q-4 -14 -31 -11q-29 4 -37 -7q-27 -38 2 -77l4 -4q10 -12 48 -5q29 4 33 -12z" />
<glyph unicode="&#xa4;" horiz-adv-x="800" d="M299 504q-50 -54 -31 -128q10 -41 41 -71q49 -50 115 -42q37 5 67 32q54 50 45 124q-6 51 -42 87q-50 49 -119 38q-45 -7 -76 -40zM268 680q107 -28 173 -18q29 4 61 15q25 8 53 45q26 35 45 41l1 1q9 3 18 3q77 3 113 -47q11 -16 16 -37q6 -28 -25 -57q17 16 -12 -11 q-26 -25 -32 -46q-32 -117 -19 -193q6 -36 22 -75q8 -20 44 -41q32 -18 37 -34q3 -7 3 -15q-1 -75 -69 -115q-31 -19 -69 -23q-27 -3 -56 28q-30 32 -47 39l-8 2q-78 20 -159 -2h-1q-9 -2 -20 -6q-5 -1 -11 -3q-19 -6 -48 -35q-26 -27 -51 -25q-85 6 -123 62q-15 23 -18 52 q-2 21 26 39q29 19 35 32l2 4q36 98 15 177q-5 19 -13 40q-11 28 -56 53q-42 23 -52 38v1q-9 13 -9 30q0 75 67 116q28 16 62 22q26 4 55 -23q31 -29 50 -34z" />
<glyph unicode="&#xa5;" horiz-adv-x="757" d="M18 738q-24 -58 34 -105q8 -7 81 -54q78 -51 98 -102q13 -34 16 -51q0 -3 -134 -9q-62 -3 -62 -6l-7 -32v-2q-1 -22 24 -27q28 -5 141 -1q40 1 40 -4l12 -26q3 -14 -9 -19q-38 -15 -163 -8q-39 3 -39 -1l-9 -30v-1v-1v-2l-1 -1q-1 -23 19 -25l180 -12l2 -1 q-11 -77 -11 -82q0 -36 31 -82t97 -49q65 -3 97 41q4 5 7 11q30 57 27 95q-1 5 -8 55q-1 4 48 5q109 1 134 7q23 5 7 50v2q-3 7 -4 8q-12 12 -77 6q-76 -7 -103 6q-15 7 -12 54q0 4 87 4q61 0 84 5q34 7 19 45l-1 3l-1 1v1l-1 1q-1 4 -1 6t-136 10h-2q-47 3 -46 5q1 7 16 39 q23 51 108 95q81 42 84 44q64 39 53 96q0 1 -1 2q0 3 -1 6q-18 64 -104 64q-42 0 -85 -16q-48 -18 -71 -97l-25 -90q-20 -52 -58 -58q-8 -1 -17 -1q-49 2 -66 61l-22 114l-1 1q-15 54 -52 73q-88 46 -154 30q-45 -10 -62 -51z" />
<glyph unicode="&#xa6;" horiz-adv-x="200" d="M60 781q-10 -37 1 -101q6 -38 7 -62q0 -23 -13 -97q-9 -59 8 -97q7 -16 46 -15q33 0 35 13q8 46 -1 127q-3 36 -3 63l5 129q0 19 -3 37q-3 16 -43 16q-35 1 -39 -13zM60 381q-10 -37 1 -101q6 -38 7 -62q0 -23 -13 -97q-9 -59 8 -97q7 -16 46 -15q33 0 35 13q8 46 -1 127 q-3 36 -3 63l5 129q0 19 -3 37q-3 16 -43 16q-35 1 -39 -13z" />
<glyph unicode="&#xa7;" horiz-adv-x="522" d="M302 447q20 -24 7 -48q-3 -5 -7 -9q-37 -35 -87 -21q-28 8 -45 30q-19 24 0 51q5 7 12 12q44 32 92 7q16 -8 28 -22zM155 139q-19 3 -60 33q-34 26 -50 15q-4 -3 -7 -7q-32 -39 23 -90q22 -20 49 -33q150 -73 279 8q27 17 51 40q53 51 52 142q-1 16 -7 92q-8 84 -25 117 q-14 25 -37 45q-30 25 -88 23q15 0 -14 -1q-53 -2 -82 14q-45 24 -55 36q-12 14 -14 33q-6 62 54 94q6 3 12 5q32 13 79 -8q-17 8 14 -6q23 -10 39 -14q15 -4 57 -31q37 -25 55 -9h1q2 2 4 5q31 40 -24 90q-21 20 -48 33q-151 73 -279 -8q-27 -17 -51 -40q-54 -51 -52 -142 v-1q0 -16 7 -91q7 -84 25 -117q13 -25 37 -44q37 -31 103 -33q65 -1 81 -3q11 -1 54 7h1h1h1h1l1 1q29 4 40 -15q32 -56 -47 -118q-9 -7 -19 -14q-42 -27 -107 -17q147 -23 -48 8q-4 0 -7 1z" />
<glyph unicode="&#xa8;" horiz-adv-x="454" d="M131 456q-47 -26 -78 6q-25 30 -13 65l1 1v1q6 14 18 23q35 24 75 1q21 -12 30 -34q14 -33 -27 -60q-3 -1 -6 -3zM381 456q-47 -26 -78 6q-25 30 -13 65l1 1v1q6 14 18 23q35 24 75 1q21 -12 30 -34q14 -33 -27 -60h-1q-2 -2 -5 -3z" />
<glyph unicode="&#xa9;" horiz-adv-x="707" d="M210 627q-99 -93 -116 -224q-19 -140 67 -239q8 -9 16 -17q76 -75 189 -56q95 15 162 89q92 102 90 234q-3 127 -93 216q-74 73 -178 61q-78 -9 -137 -64zM150 666q92 92 216 98q123 6 210 -77q108 -104 109 -257q0 -148 -98 -265q-7 -7 -14 -15q-90 -96 -216 -111 q-136 -16 -230 72q-4 3 -7 6q-108 106 -100 264q7 146 109 262l16 18zM491 584q31 -32 16 -74q-5 -16 -16 -27q-20 -20 -65 -5q-46 16 -62 13q-11 -2 -20 -10q-43 -39 -35 -92q3 -24 18 -43q19 -23 66 -11q-44 -11 18 5q47 12 68 -8q38 -38 28 -84q-4 -18 -16 -31 q-57 -65 -147 -50q-52 9 -96 42q-52 41 -52 125v1q0 1 4 88q4 80 11 103l1 1q12 37 43 59q84 60 166 38q40 -10 70 -40z" />
<glyph unicode="&#xaa;" horiz-adv-x="348" d="M172 435q-8 0 -59 10q-40 7 -60 -14q-26 -26 -11 -58l1 -1v-1q3 -6 8 -11q20 -23 65 -16q39 7 51 7q7 0 64 -9q47 -7 68 20q20 27 -4 59q-4 5 -10 10q-22 19 -66 10q-33 -6 -47 -6zM100 601q23 26 53 17q8 -3 15 -9q21 -20 8 -47l-1 -1v-1l-1 -1q-3 -6 -8 -10 q-24 -22 -54 -6q-7 4 -12 10q-19 20 -4 44l1 1l1 1zM51 754q-19 -23 0 -45q15 -16 53 -5q39 11 54 1l5 -5q13 -13 2 -30q-12 -17 -48 -18q-37 0 -50 -15q-48 -55 -32 -106q3 -9 9 -18q29 -43 80 -27l57 20q15 3 27 0l50 -17q14 -2 27 3q23 8 20 25q-3 14 -28 18l-3 1 q-24 4 -30 15q-20 33 0 94q19 57 17 77q-2 21 -17 38q-22 24 -69 18q-37 -5 -43 -6l-52 -1q-18 -3 -29 -17z" />
<glyph unicode="&#xab;" horiz-adv-x="540" d="M513 648q18 39 -31 0q-28 -22 -146 -136l-75 -64q-31 -31 -33 -67q-4 -61 53 -117q14 -13 55 -48q102 -87 145 -96q21 -5 17 18q-8 42 -47 88q-29 34 -40 50q-8 12 -42 46q-29 28 -30 56q-1 36 34 75q35 38 44 52q12 18 34 39q6 5 10 10q20 23 52 94zM313 648 q18 39 -31 0q-28 -22 -146 -136l-75 -64q-31 -31 -33 -67q-4 -61 53 -117q14 -13 55 -48q102 -87 145 -96q21 -5 17 18q-8 42 -47 88q-29 34 -40 50q-8 12 -42 46q-29 28 -30 56q-1 36 34 75q35 38 44 52q12 18 34 39q6 5 10 10q20 23 52 94z" />
<glyph unicode="&#xac;" horiz-adv-x="450" d="M225 459q-18 0 -88 14q-61 11 -92 -15q-4 -3 -7 -6q-35 -36 -20 -82q6 -16 17 -29q31 -34 91 -26q-93 -12 52 9q21 3 38 3q23 0 87 -11q2 -1 0 -63q-4 -107 24 -142q26 -33 60 1q1 0 1 1q3 2 5 5q36 41 29 180q-2 43 0 46q29 38 -1 85v1q-8 12 -20 22q-33 29 -93 19 q-67 -12 -83 -12z" />
<glyph unicode="&#xad;" horiz-adv-x="450" d="M225 459q-18 0 -88 14q-61 11 -92 -15q-4 -3 -7 -6q-35 -36 -20 -82q6 -16 17 -29q31 -34 91 -26q-92 -12 52 9q21 3 38 3q19 0 94 -13q68 -11 99 16q7 6 13 14q29 38 -1 85v1l-1 1q-8 12 -19 21q-33 29 -93 19q-67 -12 -83 -12z" />
<glyph unicode="&#xae;" horiz-adv-x="707" d="M210 627q-99 -93 -116 -224q-19 -140 67 -239q8 -9 16 -17q76 -75 189 -56q95 15 162 89q92 102 90 234q-3 127 -93 216q-74 73 -178 61q-78 -9 -137 -64zM150 666q92 92 216 98q123 6 210 -77q108 -104 109 -257q0 -148 -98 -265q-7 -7 -14 -15q-90 -96 -216 -111 q-136 -16 -230 72q-4 3 -7 6q-108 106 -100 264q7 146 109 262l16 18zM326 182q-37 -36 -87 -23q-23 7 -40 23q-29 29 -16 84q-22 -96 10 39v1q6 25 6 43q1 27 -15 107q-13 70 9 106l1 1q7 10 16 19q37 35 95 0q11 -7 14 -36q2 -23 15 -28q21 -8 49 15q29 23 46 25 q53 6 77 -9q5 -3 10 -7q96 -76 61 -142q-18 -34 -59 -31q-19 2 -34 12q-13 9 -5 43v1l1 2v1q4 18 1 25l-1 2q-2 5 -9 8q-74 32 -142 -95q-7 -12 -2 -41q2 -10 2 -17q0 -12 10 -64q9 -42 -13 -64z" />
<glyph unicode="&#xaf;" horiz-adv-x="450" d="M225 566q-18 0 -88 14q-61 11 -92 -15q-4 -3 -7 -6q-35 -36 -20 -82q6 -16 17 -29q31 -34 91 -26q-92 -12 52 9q21 3 38 3q19 0 94 -13q68 -11 99 16q7 6 13 14q29 38 -1 85v1l-1 1q-8 12 -19 21q-33 29 -93 19q-67 -12 -83 -12z" />
<glyph unicode="&#xb0;" horiz-adv-x="300" d="M150 734q34 1 50 -29q4 -10 5 -21q3 -36 -28 -54q-11 -7 -25 -8q-34 -2 -51 29v1q-6 12 -6 24q-1 36 31 52q11 6 24 6zM150 788q-59 -3 -91 -51q-18 -29 -17 -62q1 -58 50 -89q28 -19 62 -18q58 4 88 55q18 31 16 67q-4 57 -53 84q-26 15 -55 14z" />
<glyph unicode="&#xb1;" horiz-adv-x="450" d="M225 256q-16 1 -91 11q-63 9 -96 -16q-35 -26 -20 -61q5 -12 17 -22q32 -26 99 -18q67 7 82 8q15 0 98 -10q73 -9 105 19l3 3q29 29 0 64q-9 9 -21 17q-34 22 -99 13q-57 -8 -77 -8zM191 628q-22 -16 -10 -52q12 -37 8 -49q-3 -9 -13 -16q-19 -14 -68 -3q-49 10 -70 -4 q-34 -27 -20 -61l1 -1v-1l1 -1q5 -11 15 -19q20 -16 71 -4q51 11 70 1h1q3 -2 5 -4q21 -16 3 -53q-18 -36 -15 -48v-1q2 -10 12 -17q39 -29 91 -16q21 5 35 18q19 17 -5 50q7 -10 -11 15q-26 34 -8 52q17 16 66 5l6 -1q49 -11 66 5q29 29 -1 64q-8 10 -20 17q-15 10 -58 1 q-36 -9 -50 4q-20 17 4 54q23 34 24 44v1q1 13 -13 22q-56 35 -106 5q-5 -3 -11 -7z" />
<glyph unicode="&#xb2;" horiz-adv-x="235" d="M43 585q49 -2 27 -4q-12 -1 3 4q22 6 12 44q-11 43 -8 55v2v1l1 1q2 7 8 12q20 17 40 5q4 -3 7 -7q33 -42 2 -106l-43 -86q-4 -8 -6 -15q-8 -22 -42 -65q-32 -42 -28 -79q2 -16 21 -24q99 -45 149 -8q6 4 12 9q23 24 21 35v1q-2 10 -20 20q-15 8 -73 -2q-22 -4 -27 -1 q-4 4 1 12l40 70q5 9 9 20q3 8 41 83q33 68 19 117l-4 14q-22 57 -88 57q-58 1 -72 -45l-23 -68q-11 -51 21 -52z" />
<glyph unicode="&#xb3;" horiz-adv-x="235" d="M79 511q-21 23 -8 52q6 11 28 19q14 5 21 12l29 26q10 12 11 28q2 43 -31 54q-2 1 -4 1q-13 4 -30 -15q-13 -14 -24 -17q-25 -6 -31 -3q-3 2 -5 5q-21 34 24 72q5 5 11 9q61 42 108 6l3 -3q35 -29 26 -93q4 27 -8 -49q-2 -12 -19 -38q-10 -14 -11 -28q-1 -18 15 -49 q10 -19 12 -34l9 -78q0 -41 -27 -64q-46 -40 -112 3q-45 31 -40 66q1 8 6 15q6 10 31 3q3 -1 5 -1q10 -2 28 -22q13 -14 26 -10q29 7 34 55q4 37 -22 62q-7 7 -32 7q-16 0 -23 9z" />
<glyph unicode="&#xb4;" horiz-adv-x="250" d="M231 747q1 33 -47 31q-43 -2 -73 -25q-42 -32 -74 -139q-27 -89 -12 -110q10 -13 38 21q21 26 86 84q60 53 75 96q6 20 7 42z" />
<glyph unicode="&#xb5;" horiz-adv-x="454" d="M46 462q-36 -34 -23 -97l18 -83q2 -15 2 -29q0 -22 -14 -91q-9 -44 -1 -72l-18 -142q-7 -97 16 -122q35 -37 68 -19q6 3 7 4q24 9 20 158q-1 48 1 48q29 -11 57 -10h8q20 1 52 25q28 21 50 17q8 -1 16 -16q5 -8 11 -11q45 -19 66 0q48 42 44 121q1 -20 -8 80q-3 40 -1 69 q2 16 20 77q17 55 -6 84l-4 4q-32 36 -80 24q-19 -5 -34 -18q-29 -25 -22 -79q-12 91 5 -34q4 -34 -1 -58l-13 -98q-9 -36 -38 -55q-37 -24 -71 0q-4 3 -10 9q-27 31 -14 87q16 64 17 75q1 9 0 18q0 8 6 63q6 43 -18 65q-36 35 -80 22q-16 -5 -28 -16z" />
<glyph unicode="&#xb6;" horiz-adv-x="684" d="M410 786q104 -4 109 -5q84 -10 117 -70q21 -37 -5 -90q75 154 -18 -37q-15 -29 -19 -53q-21 -124 -11 -220l2 -20q5 -40 47 -106q37 -58 37 -90q0 -22 -12 -44q-12 -21 -36 -25v0q-16 -2 -21 10q-59 135 -76 224q-2 6 -3 13q-22 120 -15 198q2 21 6 45q19 122 35 159 q-5 -23 -34 -98q-14 -37 -20 -70q-19 -109 -9 -199q2 -9 3 -20q5 -40 38 -110q29 -62 28 -109q0 -42 -53 -54q-51 -11 -96 12q-51 26 -57 101q2 -27 -3 74q-4 79 -42 116q-34 33 -109 33q-71 1 -91 6q-33 10 -52 39q-58 91 -23 187q19 49 59 86q95 87 182 108q56 13 142 9z M380 621q-51 56 -131 41q-46 -9 -82 -41q-46 -40 -39 -97q3 -28 21 -50q48 -58 125 -52q51 3 91 37q47 40 42 100q0 4 -1 9v1q-6 30 -26 52z" />
<glyph unicode="&#xb7;" horiz-adv-x="250" d="M87 370q-26 48 6 78q30 26 65 13q16 -5 25 -19q24 -35 1 -74q-10 -18 -26 -27l-8 -4q-33 -14 -60 27q-1 3 -3 6z" />
<glyph unicode="&#xb8;" horiz-adv-x="250" d="M93 -12q-5 -7 7 -20q8 -9 8 -16q0 -24 -38 -64q-29 -31 -26 -45q2 -8 10 -14q39 -30 91 48q4 6 26 42q23 37 17 54q-2 5 -5 9q-21 28 -57 24q-21 -2 -33 -18z" />
<glyph unicode="&#xb9;" horiz-adv-x="235" d="M35 678q7 -15 46 -2q33 11 38 2v-1v-1l1 -1v-1v-2q2 -32 -2 -128v-7l4 -98q-1 -24 -11 -48q-7 -15 -42 -35q-29 -15 -28 -30q0 -4 2 -8q7 -19 41 -13q28 5 36 5l53 -7q15 1 24 13q11 14 -4 41l-1 1q-11 20 -13 32q-5 41 -4 141l1 1v21l7 181q-1 13 -2 25q-4 41 -99 -18 q-41 -26 -48 -42q-4 -10 1 -21z" />
<glyph unicode="&#xba;" horiz-adv-x="348" d="M174 435q-8 0 -60 10q-39 7 -60 -14q-25 -26 -10 -58v-1l1 -1q3 -6 8 -11q20 -23 65 -16q39 7 50 7q8 0 65 -9q47 -7 67 20q21 27 -3 59l-10 10q-22 19 -66 10q-33 -6 -47 -6zM174 678q40 1 59 -34v0v-1q6 -12 7 -25q3 -42 -32 -65q-14 -9 -31 -10q-40 -2 -60 33l-1 1 q-8 15 -8 31q-1 41 35 61q14 8 31 9zM174 742q-68 -3 -107 -58q-24 -35 -23 -77q2 -66 56 -105q36 -25 79 -23q67 3 104 62q23 39 20 84q-4 65 -59 98q-32 20 -70 19z" />
<glyph unicode="&#xbb;" horiz-adv-x="540" d="M32 648q-18 39 31 0q28 -22 146 -136l75 -64q31 -31 33 -67q4 -61 -53 -117q-14 -13 -55 -48q-102 -87 -145 -96q-21 -5 -17 18q8 42 47 88q29 34 40 50q8 12 42 46q29 28 30 56q1 36 -34 75q-35 38 -44 52q-12 18 -34 39q-6 5 -10 10q-20 23 -52 94zM232 648 q-18 39 31 0q28 -22 146 -136l75 -64q31 -31 33 -67q4 -61 -53 -117q-14 -13 -55 -48q-102 -87 -145 -96q-21 -5 -17 18q8 42 47 88q29 34 40 50q8 12 42 46q29 28 30 56q1 36 -34 75q-35 38 -44 52q-12 18 -34 39q-6 5 -10 10q-20 23 -52 94z" />
<glyph unicode="&#xbc;" horiz-adv-x="600" d="M444 274q-27 32 5 76q7 11 17 19q16 14 27 2q28 -30 2 -73q-7 -12 -17 -22q-17 -15 -31 -5l-1 1zM479 29q20 -17 43 -1q3 2 6 5q20 21 6 68t-10 64q2 10 9 19q5 6 24 4h1q12 -1 17 5q20 27 2 52l-4 4q-5 5 -26 -2q-12 -4 -14 4q-4 25 2 111q5 67 -7 105q-7 21 -44 -1 l-1 -1q-3 -2 -5 -4q-49 -35 -69 -107l-21 -87l-13 -39q-2 -12 5 -22q11 -15 46 -10h2q34 6 46 -8q19 -23 3 -73q-15 -48 -11 -65q3 -12 13 -21zM24 695q7 -15 46 -2q33 11 38 2q1 -3 1 -6q2 -32 -2 -128v-1v-1v-5l4 -98q-1 -24 -11 -48q-7 -15 -42 -35q-29 -15 -28 -30 q0 -4 2 -8q7 -19 41 -13q28 5 36 5l53 -7q15 1 24 13q11 14 -4 41q-12 21 -14 33q-5 41 -4 141q1 12 1 22l7 181l-1 1q0 13 -1 24q-4 41 -99 -18q-41 -26 -48 -42q-4 -10 1 -21zM373 759q14 25 57 28q40 2 45 -20v-1v-7q-23 -178 -96 -391q-1 -3 -2 -5q-54 -158 -59 -169 q-33 -83 -86 -155q-19 -26 -64 -20q-42 6 -47 31q-1 5 0 10q12 76 67 212q30 72 44 112l88 257q25 67 53 118z" />
<glyph unicode="&#xbd;" horiz-adv-x="600" d="M418 300q49 -2 27 -4q-12 -1 3 4q22 6 12 44q-11 43 -8 55v2v1l1 1q2 7 8 12q20 17 40 5q4 -3 7 -7q33 -42 2 -106l-43 -86q-4 -8 -6 -15q-8 -22 -42 -65q-32 -42 -28 -79q2 -16 21 -24q99 -45 149 -8q6 4 12 9q23 24 21 35v1q-2 10 -20 20q-15 8 -73 -2q-22 -4 -27 -1 q-4 4 1 12l40 70q5 9 9 20q3 8 41 83q33 68 19 117l-4 14q-22 57 -88 57q-58 1 -72 -45l-23 -68q-11 -51 21 -52zM25 696q7 -15 46 -2q33 11 38 2v-1v-1l1 -1v-1v-2q2 -32 -2 -128v-7l4 -98q-1 -24 -11 -48q-7 -15 -42 -35q-29 -15 -28 -30q0 -4 2 -8q7 -19 41 -13 q28 5 36 5l53 -7q15 1 24 13q11 14 -4 41l-1 1q-11 20 -13 32q-5 41 -4 141l1 1v21l7 181q-1 13 -2 25q-4 41 -99 -18q-41 -26 -48 -42q-4 -10 1 -21zM373 759q14 25 57 28q9 0 17 -1q17 -3 24 -12h1v-1q4 -6 3 -14q-23 -178 -96 -391q-1 -3 -2 -5q-54 -158 -59 -169 q-33 -83 -86 -155q-19 -26 -64 -20q-42 6 -47 31q-1 5 0 10q12 76 67 212q30 72 44 112l88 257q25 67 53 118z" />
<glyph unicode="&#xbe;" horiz-adv-x="600" d="M444 274q-27 32 5 76q7 11 17 19q16 14 27 2q28 -30 2 -73q-7 -12 -17 -22q-17 -15 -31 -5l-1 1zM479 29q20 -17 43 -1q3 2 6 5q20 21 6 68t-10 64q2 10 9 19q5 6 24 4h1q12 -1 17 5q20 27 2 52l-4 4q-5 5 -26 -2q-12 -4 -14 4q-4 25 2 111q5 67 -7 105q-7 21 -44 -1 l-1 -1q-3 -2 -5 -4q-49 -35 -69 -107l-21 -87l-13 -39q-2 -12 5 -22q11 -15 46 -10h2q34 6 46 -8q19 -23 3 -73q-15 -48 -11 -65q3 -12 13 -21zM79 511q-21 23 -8 52q6 11 28 19q14 5 21 12l29 26q10 12 11 28q2 43 -31 54q-2 1 -4 1q-13 4 -30 -15q-13 -14 -24 -17 q-25 -6 -31 -3q-2 1 -5 5q-21 34 24 72q5 5 11 9q61 42 108 6q2 -1 3 -3q35 -29 26 -93q4 27 -8 -49q-2 -12 -19 -38q-10 -14 -11 -28q-1 -18 15 -49q10 -19 12 -34l9 -78q0 -41 -27 -64q-46 -40 -112 3q-45 31 -40 66q1 8 6 15q6 10 31 3q3 -1 5 -1q10 -2 28 -22 q13 -14 26 -10q29 7 34 55q4 37 -22 62q-7 7 -32 7q-16 0 -23 9zM373 759q14 25 57 28q40 2 45 -20v-1v-7q-23 -178 -96 -391q-1 -3 -2 -5q-54 -158 -59 -169q-33 -83 -86 -155q-19 -26 -64 -20q-42 6 -47 31q-1 5 0 10q12 76 67 212q30 72 44 112l88 257q25 67 53 118z" />
<glyph unicode="&#xbf;" d="M223 741q26 -48 -6 -78q-30 -26 -65 -13q-16 5 -25 19q-24 35 -1 74q12 22 34 31q33 14 60 -27q1 -3 3 -6zM332 237q-19 26 -53 25q-25 -1 -34 -19q-8 -14 -11 -65q-3 -48 -28 -64q-42 -26 -82 -1q-10 6 -17 16q-44 53 -22 137q-1 -5 30 92q4 12 7 23q12 43 55 104 q41 56 53 100q5 21 -24 24q-38 3 -72 -18q-43 -28 -54 -92l-13 -86q-1 -6 -2 -11l-46 -154q-17 -71 -7 -140q8 -66 82 -90q34 -11 73 -9q55 3 98 60v1l1 1q8 11 23 33q6 10 7 10q34 52 38 60q16 36 -2 63z" />
<glyph unicode="&#xc0;" horiz-adv-x="793" d="M93 1070q-1 33 47 31q43 -2 73 -25q42 -32 74 -139q27 -89 12 -110q-10 -13 -38 21q-21 26 -86 84q-60 53 -75 96q-6 20 -7 42zM411 579q56 13 89 -57q15 -32 19 -69q7 -67 -37 -97q-9 -5 -19 -9q-48 -15 -83 25q-8 10 -14 22q-30 65 -13 125q14 49 58 60zM426 243 q59 0 100 -64l55 -96q24 -35 52 -52q15 -9 33 -13q66 -15 90 8q9 9 9 22q0 151 -73 308q-24 50 -70 134q-2 5 -5 10q-2 4 -5 9l-3 6l-6 10q-59 108 -78 133q-44 62 -113 104q-72 44 -143 33q-57 -9 -79 -57q-12 -27 22 -54q41 -31 42 -32q17 -16 20 -34q32 -147 -17 -286 q-16 -45 -44 -103l-20 -40q-15 -31 -77 -64q-52 -28 -63 -44q-15 -19 -4 -45q22 -50 115 -17q11 4 44 17q48 19 87 86t44 73q35 48 87 48z" />
<glyph unicode="&#xc1;" horiz-adv-x="793" d="M442 1061q1 33 -47 31q-43 -2 -73 -25q-42 -32 -74 -139q-27 -89 -12 -110q10 -13 38 21q21 26 86 84q60 53 75 96q6 20 7 42zM411 579q56 13 89 -57q15 -32 19 -69q7 -67 -37 -97q-9 -5 -19 -9q-48 -15 -83 25q-8 10 -14 22q-30 65 -13 125q14 49 58 60zM426 243 q59 0 100 -64l55 -96q24 -35 52 -52q15 -9 33 -13q66 -15 90 8q9 9 9 22q0 151 -73 308q-24 50 -70 134q-2 5 -5 10q-2 4 -5 9l-3 6l-6 10q-59 108 -78 133q-44 62 -113 104q-72 44 -143 33q-57 -9 -79 -57q-12 -27 22 -54q41 -31 42 -32q17 -16 20 -34q32 -147 -17 -286 q-16 -45 -44 -103l-20 -40q-15 -31 -77 -64q-52 -28 -63 -44q-15 -19 -4 -45q22 -50 115 -17q11 4 44 17q48 19 87 86t44 73q35 48 87 48z" />
<glyph unicode="&#xc2;" horiz-adv-x="793" d="M127 829q-2 -36 74 -3q7 3 13 6q19 9 34 49q14 35 30 40h1q5 1 10 1q23 -1 33 -34q12 -42 16 -49q6 -10 17 -16q56 -30 78 0t-12 84q12 -19 -21 33q-35 55 -48 68q-26 25 -60 25q-36 0 -65 -41q41 57 -19 -28l-1 -1l-1 -1q-5 -7 -10 -13q-45 -55 -52 -67q-15 -26 -17 -53 zM411 579q56 13 89 -57q15 -32 19 -69q7 -67 -37 -97q-9 -5 -19 -9q-48 -15 -83 25q-8 10 -14 22q-30 65 -13 125q14 49 58 60zM426 243q59 0 100 -64l55 -96q24 -35 52 -52q15 -9 33 -13q66 -15 90 8q9 9 9 22q0 151 -73 308q-24 50 -70 134q-2 5 -5 10q-2 4 -5 9l-3 6 l-6 10q-59 108 -78 133q-44 62 -113 104q-72 44 -143 33q-57 -9 -79 -57q-12 -27 22 -54q41 -31 42 -32q17 -16 20 -34q32 -147 -17 -286q-16 -45 -44 -103l-20 -40q-15 -31 -77 -64q-52 -28 -63 -44q-15 -19 -4 -45q22 -50 115 -17q11 4 44 17q48 19 87 86t44 73 q35 48 87 48z" />
<glyph unicode="&#xc3;" horiz-adv-x="793" d="M136 953q-32 -64 -1 -89q3 -2 7 -4q25 -13 52 21q30 38 33 41q18 17 38 16q24 -1 47 -35q22 -32 36 -39q7 -3 16 -4q58 -4 90 54q41 74 14 109q-6 9 -17 14q-19 9 -38 -20q-22 -33 -30 -39q-9 -7 -19 -7q-23 -1 -47 30q-24 29 -39 34h-1q-6 2 -12 2q-87 0 -129 -84z M411 579q56 13 89 -57q15 -32 19 -69q7 -67 -37 -97q-9 -5 -19 -9q-48 -15 -83 25q-8 10 -14 22q-30 65 -13 125q14 49 58 60zM426 243q59 0 100 -64l55 -96q24 -35 52 -52q15 -9 33 -13q66 -15 90 8q9 9 9 22q0 151 -73 308q-24 50 -70 134q-2 5 -5 10q-2 4 -5 9l-3 6 l-6 10q-59 108 -78 133q-44 62 -113 104q-72 44 -143 33q-57 -9 -79 -57q-12 -27 22 -54q41 -31 42 -32q17 -16 20 -34q32 -147 -17 -286q-16 -45 -44 -103l-20 -40q-15 -31 -77 -64q-52 -28 -63 -44q-15 -19 -4 -45q22 -50 115 -17q11 4 44 17q48 19 87 86t44 73 q35 48 87 48z" />
<glyph unicode="&#xc4;" horiz-adv-x="793" d="M192 868q-47 -26 -78 6q-25 30 -13 65l1 1v1q6 14 18 23q35 24 75 1q21 -12 30 -34q14 -33 -27 -60q-3 -1 -6 -3zM442 868q-47 -26 -78 6q-25 30 -13 65l1 1v1q6 14 18 23q35 24 75 1q21 -12 30 -34q14 -33 -27 -60h-1q-2 -2 -5 -3zM411 579q56 13 89 -57q15 -32 19 -69 q7 -67 -37 -97q-9 -5 -19 -9q-48 -15 -83 25q-8 10 -14 22q-30 65 -13 125q14 49 58 60zM426 243q59 0 100 -64l55 -96q24 -35 52 -52q15 -9 33 -13q66 -15 90 8q9 9 9 22q0 151 -73 308q-24 50 -70 134q-2 5 -5 10q-2 4 -5 9l-3 6l-6 10q-59 108 -78 133q-44 62 -113 104 q-72 44 -143 33q-57 -9 -79 -57q-12 -27 22 -54q41 -31 42 -32q17 -16 20 -34q32 -147 -17 -286q-16 -45 -44 -103l-20 -40q-15 -31 -77 -64q-52 -28 -63 -44q-15 -19 -4 -45q22 -50 115 -17q11 4 44 17q48 19 87 86t44 73q35 48 87 48z" />
<glyph unicode="&#xc5;" horiz-adv-x="793" d="M292 979q34 1 50 -29q4 -10 5 -21q3 -36 -28 -54q-11 -7 -25 -8q-34 -2 -51 29v1q-6 12 -6 24q-1 36 31 52q11 6 24 6zM292 1033q-59 -3 -91 -51q-18 -29 -17 -62q1 -58 50 -89q28 -19 62 -18q58 4 88 55q18 31 16 67q-4 57 -53 84q-26 15 -55 14zM411 579q56 13 89 -57 q15 -32 19 -69q7 -67 -37 -97q-9 -5 -19 -9q-48 -15 -83 25q-8 10 -14 22q-30 65 -13 125q14 49 58 60zM426 243q59 0 100 -64l55 -96q24 -35 52 -52q15 -9 33 -13q66 -15 90 8q9 9 9 22q0 151 -73 308q-24 50 -70 134q-2 5 -5 10q-2 4 -5 9l-3 6l-6 10q-59 108 -78 133 q-44 62 -113 104q-72 44 -143 33q-57 -9 -79 -57q-12 -27 22 -54q41 -31 42 -32q17 -16 20 -34q32 -147 -17 -286q-16 -45 -44 -103l-20 -40q-15 -31 -77 -64q-52 -28 -63 -44q-15 -19 -4 -45q22 -50 115 -17q11 4 44 17q48 19 87 86t44 73q35 48 87 48z" />
<glyph unicode="&#xc6;" horiz-adv-x="936" d="M379 723q-29 2 -104 30q-67 24 -94 9q-14 -7 -23 -24q-14 -26 19 -52q-61 48 29 -21q31 -24 36 -47q32 -147 -17 -286q-16 -45 -44 -103l-20 -40q-16 -31 -77 -64q-53 -29 -64 -45q-14 -19 -3 -44q22 -50 114 -17h1q9 3 20 7q1 1 24 10q47 19 87 87q38 66 43 73 q36 48 88 47q53 -2 86 -66l45 -97q23 -42 54 -55l1 -1q12 -5 25 -6q12 -1 29 16q8 10 16 14l35 19q10 3 22 3q27 0 67 -33l1 -1q35 -30 59 -29q7 1 14 3q45 15 55 60q4 18 0 36q-17 75 -66 90q-16 5 -37 5h-1q-12 0 -26 -2q-12 -2 -73 -19q-54 -16 -86 10q-44 37 -41 93 q3 33 25 57q23 25 74 6q53 -21 64 -22q25 -4 44 10q42 33 43 79q0 25 -16 44q-25 29 -79 7q112 46 -40 -18l-1 -1h-1q-53 -22 -82 0q-52 39 -57 97q-4 37 18 65l1 1q1 2 2 3q35 42 110 14l98 -40v0h1q64 -21 101 13q42 40 45 101q3 40 -18 65q-10 11 -24 18q-12 5 -47 -8 q-69 -28 -149 -31q-31 -1 -139 -15q-76 -10 -167 -5zM379 579q55 13 89 -57q15 -32 19 -69q7 -67 -37 -97q-9 -5 -20 -9q-47 -15 -82 25q-8 10 -14 22q-31 65 -13 125q14 49 58 60z" />
<glyph unicode="&#xc7;" horiz-adv-x="768" d="M422 -13q-5 -7 7 -20q8 -9 8 -16q0 -24 -38 -64q-29 -31 -26 -45q2 -8 10 -14q39 -30 91 48q4 6 26 42q23 37 17 54q-2 5 -5 9q-21 28 -57 24q-21 -2 -33 -18zM195 465q-2 82 76 146q80 65 182 61q42 -2 72 -62l35 -74q15 -25 33 -33h1h1q14 -6 31 -1q53 14 67 77 q11 54 -15 102q-78 140 -322 90q-178 -36 -259 -170l-1 -1q-17 -29 -31 -63q-85 -205 20 -386q13 -21 28 -43q69 -99 192 -107q13 -1 27 -1h143q116 6 202 69q53 39 63 122q11 83 -31 127q-1 1 -3 2v1q-18 16 -41 21q-37 8 -47 -39l-13 -97q-10 -45 -38 -59 q-135 -70 -264 29q-7 6 -15 13q-31 26 -72 174q-20 74 -21 102z" />
<glyph unicode="&#xc8;" horiz-adv-x="755" d="M221 1062q-1 33 47 31q43 -2 73 -25q42 -32 74 -139q27 -89 12 -110q-10 -13 -38 21q-21 26 -86 84q-60 53 -75 96q-6 20 -7 42zM47 730q-39 -28 -3 -78q6 -9 16 -20q50 -60 56 -70q19 -28 24 -52q29 -141 19 -235q-5 -41 -16 -89q-6 -26 -47 -66q-35 -35 -36 -54 q0 -12 8 -24q37 -55 114 -33q10 3 98 38q78 32 128 28q41 -3 109 -39q62 -32 98 -30q19 1 38 9q47 20 57 60q4 18 -2 36q-34 97 -179 97q-27 0 -55 -4q-11 -2 -72 -19q-55 -16 -87 10q-44 37 -40 93q2 33 24 57q29 32 91 10l69 -26q45 -12 74 10q42 33 43 79q0 17 -8 32 q-3 6 -8 12q-30 36 -94 12q39 14 -56 -24q-69 -28 -105 0q-52 40 -57 98q-3 39 21 68q45 54 136 24l137 -54q91 -30 141 17q42 40 46 101q0 8 -1 17v1q-4 48 -42 65q-14 6 -112 -13q-117 -23 -188 -26q-35 -1 -129 16q-97 18 -155 -4q-28 -11 -55 -30z" />
<glyph unicode="&#xc9;" horiz-adv-x="755" d="M539 1047q1 33 -47 31q-43 -2 -73 -25q-42 -32 -74 -139q-27 -89 -12 -110q10 -13 38 21q21 26 86 84q60 53 75 96q6 20 7 42zM47 730q-39 -28 -3 -78q6 -9 16 -20q50 -60 56 -70q19 -28 24 -52q29 -141 19 -235q-5 -41 -16 -89q-6 -26 -47 -66q-35 -35 -36 -54 q0 -12 8 -24q37 -55 114 -33q10 3 98 38q78 32 128 28q41 -3 109 -39q62 -32 98 -30q19 1 38 9q47 20 57 60q4 18 -2 36q-34 97 -179 97q-27 0 -55 -4q-11 -2 -72 -19q-55 -16 -87 10q-44 37 -40 93q2 33 24 57q29 32 91 10l69 -26q45 -12 74 10q42 33 43 79q0 17 -8 32 q-3 6 -8 12q-30 36 -94 12q39 14 -56 -24q-69 -28 -105 0q-52 40 -57 98q-3 39 21 68q45 54 136 24l137 -54q91 -30 141 17q42 40 46 101q0 8 -1 17v1q-4 48 -42 65q-14 6 -112 -13q-117 -23 -188 -26q-35 -1 -129 16q-97 18 -155 -4q-28 -11 -55 -30z" />
<glyph unicode="&#xca;" horiz-adv-x="755" d="M227 825q-2 -36 74 -3q7 3 13 6q19 9 34 49q14 35 30 40h1q5 1 10 1q23 -1 33 -34q12 -42 16 -49q6 -10 17 -16q56 -30 78 0t-12 84q12 -19 -21 33q-35 55 -48 68q-26 25 -60 25q-36 0 -65 -41q41 57 -19 -28l-1 -1l-1 -1q-5 -7 -10 -13q-45 -55 -52 -67q-15 -26 -17 -53 zM47 730q-39 -28 -3 -78q6 -9 16 -20q50 -60 56 -70q19 -28 24 -52q29 -141 19 -235q-5 -41 -16 -89q-6 -26 -47 -66q-35 -35 -36 -54q0 -12 8 -24q37 -55 114 -33q10 3 98 38q78 32 128 28q41 -3 109 -39q62 -32 98 -30q19 1 38 9q47 20 57 60q4 18 -2 36q-34 97 -179 97 q-27 0 -55 -4q-11 -2 -72 -19q-55 -16 -87 10q-44 37 -40 93q2 33 24 57q29 32 91 10l69 -26q45 -12 74 10q42 33 43 79q0 17 -8 32q-3 6 -8 12q-30 36 -94 12q39 14 -56 -24q-69 -28 -105 0q-52 40 -57 98q-3 39 21 68q45 54 136 24l137 -54q91 -30 141 17q42 40 46 101 q0 8 -1 17v1q-4 48 -42 65q-14 6 -112 -13q-117 -23 -188 -26q-35 -1 -129 16q-97 18 -155 -4q-28 -11 -55 -30z" />
<glyph unicode="&#xcb;" horiz-adv-x="755" d="M296 821q-47 -26 -78 6q-25 30 -13 65l1 1v1q6 14 18 23q35 24 75 1q21 -12 30 -34q14 -33 -27 -60q-3 -1 -6 -3zM546 821q-47 -26 -78 6q-25 30 -13 65l1 1v1q6 14 18 23q35 24 75 1q21 -12 30 -34q14 -33 -27 -60h-1q-2 -2 -5 -3zM47 730q-39 -28 -3 -78q6 -9 16 -20 q50 -60 56 -70q19 -28 24 -52q29 -141 19 -235q-5 -41 -16 -89q-6 -26 -47 -66q-35 -35 -36 -54q0 -12 8 -24q37 -55 114 -33q10 3 98 38q78 32 128 28q41 -3 109 -39q62 -32 98 -30q19 1 38 9q47 20 57 60q4 18 -2 36q-34 97 -179 97q-27 0 -55 -4q-11 -2 -72 -19 q-55 -16 -87 10q-44 37 -40 93q2 33 24 57q29 32 91 10l69 -26q45 -12 74 10q42 33 43 79q0 17 -8 32q-3 6 -8 12q-30 36 -94 12q39 14 -56 -24q-69 -28 -105 0q-52 40 -57 98q-3 39 21 68q45 54 136 24l137 -54q91 -30 141 17q42 40 46 101q0 8 -1 17v1q-4 48 -42 65 q-14 6 -112 -13q-117 -23 -188 -26q-35 -1 -129 16q-97 18 -155 -4q-28 -11 -55 -30z" />
<glyph unicode="&#xcc;" horiz-adv-x="591" d="M157 1035q-1 33 47 31q43 -2 73 -25q42 -32 74 -139q27 -89 12 -110q-10 -13 -38 21q-21 26 -86 84q-60 53 -75 96q-6 20 -7 42zM236 759l-108 -1q-80 -6 -90 -62q-7 -39 42 -58l84 -28q41 -18 51 -49q39 -123 22 -229q-1 -9 -3 -19q-4 -24 -34 -142q-7 -28 -61 -23 q-56 4 -67 1q-18 -4 -19 -23q-3 -70 90 -90q32 -6 149 -12h7q108 -6 129 -4q92 7 102 73q5 31 -38 43q31 -9 -48 11h-2v0q-49 13 -56 42q-29 121 -29 226q0 47 5 149q2 37 63 51l79 16q38 12 39 37q0 5 -1 10q-12 80 -118 88q-30 2 -151 -5h-2q-1 0 -2 -1q-18 -1 -33 -1z " />
<glyph unicode="&#xcd;" horiz-adv-x="591" d="M449 1035q1 33 -47 31q-43 -2 -73 -25q-42 -32 -74 -139q-27 -89 -12 -110q10 -13 38 21q21 26 86 84q60 53 75 96q6 20 7 42zM236 759l-108 -1q-80 -6 -90 -62q-7 -39 42 -58l84 -28q41 -18 51 -49q39 -123 22 -229q-1 -9 -3 -19q-4 -24 -34 -142q-7 -28 -61 -23 q-56 4 -67 1q-18 -4 -19 -23q-3 -70 90 -90q32 -6 149 -12h7q108 -6 129 -4q92 7 102 73q5 31 -38 43q31 -9 -48 11h-2v0q-49 13 -56 42q-29 121 -29 226q0 47 5 149q2 37 63 51l79 16q38 12 39 37q0 5 -1 10q-12 80 -118 88q-30 2 -151 -5h-2q-1 0 -2 -1q-18 -1 -33 -1z " />
<glyph unicode="&#xce;" horiz-adv-x="591" d="M131 818q-2 -36 74 -3q7 3 13 6q19 9 34 49q14 35 30 40h1q5 1 10 1q23 -1 33 -34q12 -42 16 -49q6 -10 17 -16q56 -30 78 0t-12 84q12 -19 -21 33q-35 55 -48 68q-26 25 -60 25q-36 0 -65 -41q41 57 -19 -28l-1 -1l-1 -1q-5 -7 -10 -13q-45 -55 -52 -67q-15 -26 -17 -53 zM236 759l-108 -1q-80 -6 -90 -62q-7 -39 42 -58l84 -28q41 -18 51 -49q39 -123 22 -229q-1 -9 -3 -19q-4 -24 -34 -142q-7 -28 -61 -23q-56 4 -67 1q-18 -4 -19 -23q-3 -70 90 -90q32 -6 149 -12h7q108 -6 129 -4q92 7 102 73q5 31 -38 43q31 -9 -48 11h-2v0q-49 13 -56 42 q-29 121 -29 226q0 47 5 149q2 37 63 51l79 16q38 12 39 37q0 5 -1 10q-12 80 -118 88q-30 2 -151 -5h-2q-1 0 -2 -1q-18 -1 -33 -1z" />
<glyph unicode="&#xcf;" horiz-adv-x="591" d="M199 812q-47 -26 -78 6q-25 30 -13 65l1 1v1q6 14 18 23q35 24 75 1q21 -12 30 -34q14 -33 -27 -60q-3 -1 -6 -3zM449 812q-47 -26 -78 6q-25 30 -13 65l1 1v1q6 14 18 23q35 24 75 1q21 -12 30 -34q14 -33 -27 -60h-1q-2 -2 -5 -3zM236 759l-108 -1q-80 -6 -90 -62 q-7 -39 42 -58l84 -28q41 -18 51 -49q39 -123 22 -229q-1 -9 -3 -19q-4 -24 -34 -142q-7 -28 -61 -23q-56 4 -67 1q-18 -4 -19 -23q-3 -70 90 -90q32 -6 149 -12h7q108 -6 129 -4q92 7 102 73q5 31 -38 43q31 -9 -48 11h-2v0q-49 13 -56 42q-29 121 -29 226q0 47 5 149 q2 37 63 51l79 16q38 12 39 37q0 5 -1 10q-12 80 -118 88q-30 2 -151 -5h-2q-1 0 -2 -1q-18 -1 -33 -1z" />
<glyph unicode="&#xd0;" horiz-adv-x="922" d="M398 192q-44 37 -68 142q-1 4 14 5q-10 -1 83 0v0q62 0 76 12q22 18 21 52q-1 20 -13 29q-18 14 -123 11q-46 -2 -46 4l35 92q17 38 34 55q63 64 153 45q43 -8 80 -36q95 -71 116 -175q19 -90 -29 -167q-50 -81 -144 -106q-103 -28 -180 30q-5 3 -9 7zM50 756 q-21 -35 19 -73q-12 11 41 -36q37 -33 46 -62q5 -16 30 -135q1 -4 -17 -5l-95 -5q-20 -3 -29 -8q-26 -16 -21 -44q4 -19 24 -31q3 -1 88 -5h2h1q50 -2 50 -9l-12 -79q-11 -43 -74 -96q-53 -44 -64 -59q-28 -36 -4 -73q33 -51 103 -27q8 2 89 39q66 30 109 30q65 0 169 -41 q93 -37 136 -40q54 -3 102 27q180 110 150 388q-1 13 -3 26q-29 216 -179 308q-26 15 -55 28q-57 25 -133 -2q158 55 -58 -21q-50 -18 -90 -19q-49 -2 -146 36q-83 33 -117 30q-39 -4 -62 -42z" />
<glyph unicode="&#xd1;" horiz-adv-x="788" d="M228 895q-32 -64 -1 -89q3 -2 7 -4q25 -13 52 21q30 38 33 41q18 17 38 16q24 -1 47 -35q22 -32 36 -39q7 -3 16 -4q58 -4 90 54q41 74 14 109q-6 9 -17 14q-19 9 -38 -20q-22 -33 -30 -39q-9 -7 -19 -7q-23 -1 -47 30q-24 29 -39 34h-1q-6 2 -12 2q-87 0 -129 -84z M49 744q-23 -33 12 -76l45 -55q16 -22 21 -43q35 -147 31 -232q-2 -53 -16 -113q-7 -32 -54 -78q-39 -38 -45 -57q-6 -20 6 -40q34 -56 111 -46q57 7 99 46q58 53 38 201l-16 107q-1 28 8 35q83 62 172 -48q69 -85 103 -211q1 -7 3 -13q3 -14 -18 -41q-18 -23 -8 -36 q33 -41 103 -43q67 -1 94 37q9 13 10 30q24 335 -15 673q-4 33 -52 42q-49 9 -80 -15q-12 -10 -15 -24q-9 -47 9 -169q14 -100 1 -125q-6 -11 -16 -15q-29 -11 -91 56l-110 123q-88 92 -162 121q-75 29 -83 31q-59 16 -85 -22z" />
<glyph unicode="&#xd2;" horiz-adv-x="814" d="M237 1077q-1 33 47 31q43 -2 73 -25q42 -32 74 -139q27 -89 12 -110q-10 -13 -38 21q-21 26 -86 84q-60 53 -75 96q-6 20 -7 42zM435 637q117 -6 188 -95v-1q51 -65 56 -151q7 -111 -61 -190q-11 -13 -24 -24q-52 -45 -119 -50q-117 -10 -210 68q-90 77 -100 189 q-1 15 0 30q2 104 91 171q78 58 179 53zM429 789q-150 6 -267 -87q-115 -91 -133 -231q-3 -20 -3 -42q-2 -157 107 -277q103 -113 253 -135q42 -6 85 -3q145 9 238 125q90 111 86 262v5q-6 159 -111 269q-104 108 -255 114z" />
<glyph unicode="&#xd3;" horiz-adv-x="814" d="M644 1095q1 33 -47 31q-43 -2 -73 -25q-42 -32 -74 -139q-27 -89 -12 -110q10 -13 38 21q21 26 86 84q60 53 75 96q6 20 7 42zM435 637q117 -6 188 -95v-1q51 -65 56 -151q7 -111 -61 -190q-11 -13 -24 -24q-52 -45 -119 -50q-117 -10 -210 68q-90 77 -100 189 q-1 15 0 30q2 104 91 171q78 58 179 53zM429 789q-150 6 -267 -87q-115 -91 -133 -231q-3 -20 -3 -42q-2 -157 107 -277q103 -113 253 -135q42 -6 85 -3q145 9 238 125q90 111 86 262v5q-6 159 -111 269q-104 108 -255 114z" />
<glyph unicode="&#xd4;" horiz-adv-x="814" d="M260 841q-2 -36 74 -3q7 3 13 6q19 9 34 49q14 35 30 40h1q5 1 10 1q23 -1 33 -34q12 -42 16 -49q6 -10 17 -16q56 -30 78 0t-12 84q12 -19 -21 33q-35 55 -48 68q-26 25 -60 25q-36 0 -65 -41q41 57 -19 -28l-1 -1l-1 -1q-5 -7 -10 -13q-45 -55 -52 -67q-15 -26 -17 -53 zM435 637q117 -6 188 -95v-1q51 -65 56 -151q7 -111 -61 -190q-11 -13 -24 -24q-52 -45 -119 -50q-117 -10 -210 68q-90 77 -100 189q-1 15 0 30q2 104 91 171q78 58 179 53zM429 789q-150 6 -267 -87q-115 -91 -133 -231q-3 -20 -3 -42q-2 -157 107 -277q103 -113 253 -135 q42 -6 85 -3q145 9 238 125q90 111 86 262v5q-6 159 -111 269q-104 108 -255 114z" />
<glyph unicode="&#xd5;" horiz-adv-x="814" d="M255 946q-32 -64 -1 -89q3 -2 7 -4q25 -13 52 21q30 38 33 41q18 17 38 16q24 -1 47 -35q22 -32 36 -39q7 -3 16 -4q58 -4 90 54q41 74 14 109q-6 9 -17 14q-19 9 -38 -20q-22 -33 -30 -39q-9 -7 -19 -7q-23 -1 -47 30q-24 29 -39 34h-1q-6 2 -12 2q-87 0 -129 -84z M435 637q117 -6 188 -95v-1q51 -65 56 -151q7 -111 -61 -190q-11 -13 -24 -24q-52 -45 -119 -50q-117 -10 -210 68q-90 77 -100 189q-1 15 0 30q2 104 91 171q78 58 179 53zM429 789q-150 6 -267 -87q-115 -91 -133 -231q-3 -20 -3 -42q-2 -157 107 -277q103 -113 253 -135 q42 -6 85 -3q145 9 238 125q90 111 86 262v5q-6 159 -111 269q-104 108 -255 114z" />
<glyph unicode="&#xd6;" horiz-adv-x="814" d="M338 860q-47 -26 -78 6q-25 30 -13 65l1 1v1q6 14 18 23q35 24 75 1q21 -12 30 -34q14 -33 -27 -60q-3 -1 -6 -3zM588 860q-47 -26 -78 6q-25 30 -13 65l1 1v1q6 14 18 23q35 24 75 1q21 -12 30 -34q14 -33 -27 -60h-1q-2 -2 -5 -3zM435 637q117 -6 188 -95v-1 q51 -65 56 -151q7 -111 -61 -190q-11 -13 -24 -24q-52 -45 -119 -50q-117 -10 -210 68q-90 77 -100 189q-1 15 0 30q2 104 91 171q78 58 179 53zM429 789q-150 6 -267 -87q-115 -91 -133 -231q-3 -20 -3 -42q-2 -157 107 -277q103 -113 253 -135q42 -6 85 -3q145 9 238 125 q90 111 86 262v5q-6 159 -111 269q-104 108 -255 114z" />
<glyph unicode="&#xd7;" horiz-adv-x="379" d="M49 355q10 34 53 35q14 1 28 -4q21 -7 29 -48q7 -39 18 -48q6 -4 14 -5q26 -3 45 35q21 41 27 48l2 2l1 1q11 10 26 9q29 -1 38 -32q2 -7 2 -14q0 -22 -31 -41q-32 -19 -38 -31q-3 -6 -3 -13q-3 -26 33 -60q32 -29 36 -43q3 -12 -3 -25q-14 -28 -57 -13l-6 2 q-20 9 -30 51v1q-9 38 -24 45h-1h-1q-4 2 -9 2q-28 3 -45 -35q-20 -44 -24 -50q-12 -16 -28 -21q-38 -12 -48 11q-12 27 21 58q36 32 40 37q15 18 14 38q-1 25 -39 50q-34 23 -39 36q-5 10 -1 22z" />
<glyph unicode="&#xd8;" horiz-adv-x="814" d="M686 774q-74 -45 -208 -187q-129 -137 -152 -160q-217 -219 -280 -293q-10 -12 -19 -23q-19 -23 13 -53q32 -29 64 -23q5 1 9 2q86 38 188 148q-46 -50 97 105q23 25 43 46q173 177 333 387q16 21 -17 42q-34 22 -64 12h-1q-3 -1 -6 -3zM435 637q117 -6 188 -95 q51 -66 56 -152q7 -111 -61 -190q-57 -67 -143 -74q-117 -10 -210 68q-90 77 -100 189q-1 15 0 30q2 104 91 171q78 58 179 53zM429 789q-150 6 -267 -87q-115 -91 -133 -231q-3 -20 -3 -42q-2 -157 107 -277q103 -113 253 -135q42 -6 85 -3q145 9 238 125q90 111 86 262v5 q-6 159 -111 269h-1q-68 71 -161 99q-45 13 -93 15z" />
<glyph unicode="&#xd9;" horiz-adv-x="845" d="M272 983q-1 33 47 31q43 -2 73 -25q42 -32 74 -139q27 -89 12 -110q-10 -13 -38 21q-21 26 -86 84q-60 53 -75 96q-6 20 -7 42zM68 753q-75 -89 -37 -215q12 -40 41 -100q64 -137 67 -145q11 -26 19 -50l32 -111q20 -52 64 -78q175 -104 333 -21q26 14 51 33q36 27 41 87 q8 71 10 81q14 62 74 193q55 119 60 179q5 80 -53 141q-49 51 -128 22q-39 -15 -70 -46q-68 -68 -64 -181q1 -17 3 -38q-9 98 10 -94q9 -81 0 -137q-8 -52 -69 -64l-12 -2q-69 -8 -95 34q-4 8 -7 17q-20 68 -8 197q12 118 5 166q-12 80 -72 132q-56 48 -123 39 q-44 -6 -72 -39z" />
<glyph unicode="&#xda;" horiz-adv-x="845" d="M587 989q1 33 -47 31q-43 -2 -73 -25q-42 -32 -74 -139q-27 -89 -12 -110q10 -13 38 21q21 26 86 84q60 53 75 96q6 20 7 42zM68 753q-75 -89 -37 -215q12 -40 41 -100q64 -137 67 -145q11 -26 19 -50l32 -111q20 -52 64 -78q175 -104 333 -21q26 14 51 33q36 27 41 87 q8 71 10 81q14 62 74 193q55 119 60 179q5 80 -53 141q-49 51 -128 22q-39 -15 -70 -46q-68 -68 -64 -181q1 -17 3 -38q-9 98 10 -94q9 -81 0 -137q-8 -52 -69 -64l-12 -2q-69 -8 -95 34q-4 8 -7 17q-20 68 -8 197q12 118 5 166q-12 80 -72 132q-56 48 -123 39 q-44 -6 -72 -39z" />
<glyph unicode="&#xdb;" horiz-adv-x="845" d="M263 799q-2 -36 74 -3q7 3 13 6q19 9 34 49q14 35 30 40h1q5 1 10 1q23 -1 33 -34q12 -42 16 -49q6 -10 17 -16q56 -30 78 0t-12 84q12 -19 -21 33q-35 55 -48 68q-26 25 -60 25q-36 0 -65 -41q41 57 -19 -28l-1 -1l-1 -1q-5 -7 -10 -13q-45 -55 -52 -67q-15 -26 -17 -53 zM68 753q-75 -89 -37 -215q12 -40 41 -100q64 -137 67 -145q11 -26 19 -50l32 -111q20 -52 64 -78q175 -104 333 -21q26 14 51 33q36 27 41 87q8 71 10 81q14 62 74 193q55 119 60 179q5 80 -53 141q-49 51 -128 22q-39 -15 -70 -46q-68 -68 -64 -181q1 -17 3 -38 q-9 98 10 -94q9 -81 0 -137q-8 -52 -69 -64l-12 -2q-69 -8 -95 34q-4 8 -7 17q-20 68 -8 197q12 118 5 166q-12 80 -72 132q-56 48 -123 39q-44 -6 -72 -39z" />
<glyph unicode="&#xdc;" horiz-adv-x="845" d="M338 783q-47 -26 -78 6q-25 30 -13 65l1 1v1q6 14 18 23q35 24 75 1q21 -12 30 -34q14 -33 -27 -60q-3 -1 -6 -3zM588 783q-47 -26 -78 6q-25 30 -13 65l1 1v1q6 14 18 23q35 24 75 1q21 -12 30 -34q14 -33 -27 -60h-1q-2 -2 -5 -3zM68 753q-75 -89 -37 -215 q12 -40 41 -100q64 -137 67 -145q11 -26 19 -50l32 -111q20 -52 64 -78q175 -104 333 -21q26 14 51 33q36 27 41 87q8 71 10 81q14 62 74 193q55 119 60 179q5 80 -53 141q-49 51 -128 22q-39 -15 -70 -46q-68 -68 -64 -181q1 -17 3 -38q-9 98 10 -94q9 -81 0 -137 q-8 -52 -69 -64l-12 -2q-69 -8 -95 34q-4 8 -7 17q-20 68 -8 197q12 118 5 166q-12 80 -72 132q-56 48 -123 39q-44 -6 -72 -39z" />
<glyph unicode="&#xdd;" horiz-adv-x="757" d="M541 1020q1 33 -47 31q-43 -2 -73 -25q-42 -32 -74 -139q-27 -89 -12 -110q10 -13 38 21q21 26 86 84q60 53 75 96q6 20 7 42zM18 738q-24 -58 34 -105q16 -13 62 -42q77 -49 103 -87q8 -13 14 -27q28 -72 13 -189q-15 -104 -14 -134q3 -58 31 -100q31 -46 97 -49 q65 -3 97 41q4 5 7 11q36 70 23 173q-15 108 -14 98q-6 77 21 137q23 51 108 95q81 42 84 44q64 39 53 96q0 1 -1 2q0 3 -1 6q-18 64 -104 64q-42 0 -85 -16q-48 -18 -71 -97q17 60 -17 -63q-19 -69 -53 -82h-1h-1q-13 -5 -28 -4q-49 2 -66 61v1l-22 113l-1 1v1 q-15 53 -52 72q-88 46 -154 30q-45 -10 -62 -51z" />
<glyph unicode="&#xde;" horiz-adv-x="522" d="M245 405q4 -51 45 -76q23 -14 49 -11q43 6 60 50q8 24 4 49q-7 47 -49 65q-20 9 -42 7q-42 -5 -60 -45q-8 -19 -7 -39zM192 45q-31 -34 -88 -41q-59 -8 -69 28q-2 5 -2 10q-1 47 3 93q1 24 2 71q1 17 -12 201q-20 282 28 361l1 1l1 1v1q6 9 12 15q32 32 77 12 q10 -5 19 -12q30 -24 20 -87q-9 -60 -7 -74q4 -27 27 -40q25 -14 62 15q-18 -15 15 12q37 29 63 21q114 -36 151 -140q14 -40 14 -85q1 -130 -93 -199q-33 -25 -75 -38q-26 -8 -62 20q23 -19 -9 7l-1 1q-36 28 -62 20q-17 -5 -25 -32q-7 -24 12 -72q17 -42 4 -63 q-2 -3 -6 -7z" />
<glyph unicode="&#xdf;" horiz-adv-x="493" d="M169 18q-27 -34 -77 -11q-22 9 -37 26q-46 51 -35 134q-2 -16 16 89q5 30 7 53q2 29 0 165q-2 121 32 189q17 33 43 63q64 73 172 57q139 -21 177 -126q22 -61 -16 -134q2 4 -38 -67q-10 -18 -47 -39q-32 -19 -36 -41q-1 -3 -1 -7q-1 -34 39 -62q-33 23 23 -15 q36 -25 46 -52q31 -87 17 -135q-6 -22 -20 -42q-58 -83 -151 -66q-7 1 -14 3q-59 16 -70 72q-2 7 -2 15q-2 40 21 57q9 7 21 6q16 -2 15 -35q-1 -35 10 -41q2 -1 5 -2q43 -9 71 37q14 25 16 53q1 27 -30 52q-28 23 -36 32q-14 17 -62 47q-41 27 -48 54v1q-2 8 -1 18 q2 40 49 64l65 31q19 12 31 27l1 1q4 4 7 9q40 63 45 77q19 45 -3 82q-29 47 -95 29q-8 -2 -16 -5q-50 -20 -76 -81q-6 -14 -18 -51q-18 -53 -10 -134q-1 11 1 -9q4 -50 3 -82q-1 -21 -15 -126q-8 -67 0 -123q1 -8 18 -31q11 -16 3 -26z" />
<glyph unicode="&#xe0;" horiz-adv-x="483" d="M100 764q-1 33 47 31q43 -2 73 -25q42 -32 74 -139q27 -89 12 -110q-10 -13 -38 21q-21 26 -86 84q-60 53 -75 96q-6 20 -7 42zM130 201q33 37 78 30q21 -4 36 -18q30 -28 16 -70q-6 -17 -19 -29q-35 -32 -81 -14q-17 7 -30 20q-28 29 -10 66q4 8 10 15zM49 456 q-27 -33 -7 -66l1 -1l6 -8q24 -26 79 -12q55 15 71 14q21 -2 36 -17q22 -23 3 -51t-71 -29q-53 -1 -70 -9q-12 -6 -21 -16q-69 -79 -58 -156q3 -28 19 -51q44 -67 118 -49q6 1 75 26q50 18 80 11l81 -28q24 -5 48 4q39 15 33 42q-5 23 -41 30q-41 7 -52 17q-6 4 -9 10 q-31 53 -4 142l27 89q17 72 -23 117q-34 38 -101 31l-85 -10l-81 -1q-34 -4 -54 -29z" />
<glyph unicode="&#xe1;" horiz-adv-x="483" d="M370 761q1 33 -47 31q-43 -2 -73 -25q-42 -32 -74 -139q-27 -89 -12 -110q10 -13 38 21q21 26 86 84q60 53 75 96q6 20 7 42zM130 201q33 37 78 30q21 -4 36 -18q30 -28 16 -70q-6 -17 -19 -29q-35 -32 -81 -14q-17 7 -30 20q-28 29 -10 66q4 8 10 15zM49 456 q-27 -33 -7 -66l1 -1l6 -8q24 -26 79 -12q55 15 71 14q21 -2 36 -17q22 -23 3 -51t-71 -29q-53 -1 -70 -9q-12 -6 -21 -16q-69 -79 -58 -156q3 -28 19 -51q44 -67 118 -49q6 1 75 26q50 18 80 11l81 -28q24 -5 48 4q39 15 33 42q-5 23 -41 30q-41 7 -52 17q-6 4 -9 10 q-31 53 -4 142l27 89q17 72 -23 117q-34 38 -101 31l-85 -10l-81 -1q-34 -4 -54 -29z" />
<glyph unicode="&#xe2;" horiz-adv-x="483" d="M82 540q-2 -36 74 -3q7 3 13 6q19 9 34 49q14 35 30 40h1q5 1 10 1q23 -1 33 -34q12 -42 16 -49q6 -10 17 -16q56 -30 78 0t-12 84q12 -19 -21 33q-35 55 -48 68q-26 25 -60 25q-36 0 -65 -41q41 57 -19 -28l-1 -1l-1 -1q-5 -7 -10 -13q-45 -55 -52 -67q-15 -26 -17 -53z M130 201q33 37 78 30q21 -4 36 -18q30 -28 16 -70q-6 -17 -19 -29q-35 -32 -81 -14q-17 7 -30 20q-28 29 -10 66q4 8 10 15zM49 456q-27 -33 -7 -66l1 -1l6 -8q24 -26 79 -12q55 15 71 14q21 -2 36 -17q22 -23 3 -51t-71 -29q-53 -1 -70 -9q-12 -6 -21 -16q-69 -79 -58 -156 q3 -28 19 -51q44 -67 118 -49q6 1 75 26q50 18 80 11l81 -28q24 -5 48 4q39 15 33 42q-5 23 -41 30q-41 7 -52 17q-6 4 -9 10q-31 53 -4 142l27 89q17 72 -23 117q-34 38 -101 31l-85 -10l-81 -1q-34 -4 -54 -29z" />
<glyph unicode="&#xe3;" horiz-adv-x="483" d="M68 627q-32 -64 -1 -89q3 -2 7 -4q25 -13 52 21q30 38 33 41q18 17 38 16q24 -1 47 -35q22 -32 36 -39q7 -3 16 -4q58 -4 90 54q41 74 14 109q-6 9 -17 14q-19 9 -38 -20q-22 -33 -30 -39q-9 -7 -19 -7q-23 -1 -47 30q-24 29 -39 34h-1q-6 2 -12 2q-87 0 -129 -84z M130 201q33 37 78 30q21 -4 36 -18q30 -28 16 -70q-6 -17 -19 -29q-35 -32 -81 -14q-17 7 -30 20q-28 29 -10 66q4 8 10 15zM49 456q-27 -33 -7 -66l1 -1l6 -8q24 -26 79 -12q55 15 71 14q21 -2 36 -17q22 -23 3 -51t-71 -29q-53 -1 -70 -9q-12 -6 -21 -16q-69 -79 -58 -156 q3 -28 19 -51q44 -67 118 -49q6 1 75 26q50 18 80 11l81 -28q24 -5 48 4q39 15 33 42q-5 23 -41 30q-41 7 -52 17q-6 4 -9 10q-31 53 -4 142l27 89q17 72 -23 117q-34 38 -101 31l-85 -10l-81 -1q-34 -4 -54 -29z" />
<glyph unicode="&#xe4;" horiz-adv-x="483" d="M106 547q-47 -26 -78 6q-25 30 -13 65l1 1v1q6 14 18 23q35 24 75 1q21 -12 30 -34q14 -33 -27 -60q-3 -1 -6 -3zM356 547q-47 -26 -78 6q-25 30 -13 65l1 1v1q6 14 18 23q35 24 75 1q21 -12 30 -34q14 -33 -27 -60h-1q-2 -2 -5 -3zM130 201q33 37 78 30q21 -4 36 -18 q30 -28 16 -70q-6 -17 -19 -29q-35 -32 -81 -14q-17 7 -30 20q-28 29 -10 66q4 8 10 15zM49 456q-27 -33 -7 -66l1 -1l6 -8q24 -26 79 -12q55 15 71 14q21 -2 36 -17q22 -23 3 -51t-71 -29q-53 -1 -70 -9q-12 -6 -21 -16q-69 -79 -58 -156q3 -28 19 -51q44 -67 118 -49 q6 1 75 26q50 18 80 11l81 -28q24 -5 48 4q39 15 33 42q-5 23 -41 30q-41 7 -52 17q-6 4 -9 10q-31 53 -4 142l27 89q17 72 -23 117q-34 38 -101 31l-85 -10l-81 -1q-34 -4 -54 -29z" />
<glyph unicode="&#xe5;" horiz-adv-x="483" d="M209 697q34 1 50 -29q4 -10 5 -21q3 -36 -28 -54q-11 -7 -25 -8q-34 -2 -51 29v1q-6 12 -6 24q-1 36 31 52q11 6 24 6zM209 751q-59 -3 -91 -51q-18 -29 -17 -62q1 -58 50 -89q28 -19 62 -18q58 4 88 55q18 31 16 67q-4 57 -53 84q-26 15 -55 14zM130 201q33 37 78 30 q21 -4 36 -18q30 -28 16 -70q-6 -17 -19 -29q-35 -32 -81 -14q-17 7 -30 20q-28 29 -10 66q4 8 10 15zM49 456q-27 -33 -7 -66l1 -1l6 -8q24 -26 79 -12q55 15 71 14q21 -2 36 -17q22 -23 3 -51t-71 -29q-53 -1 -70 -9q-12 -6 -21 -16q-69 -79 -58 -156q3 -28 19 -51 q44 -67 118 -49q6 1 75 26q50 18 80 11l81 -28q24 -5 48 4q39 15 33 42q-5 23 -41 30q-41 7 -52 17q-6 4 -9 10q-31 53 -4 142l27 89q17 72 -23 117q-34 38 -101 31l-85 -10l-81 -1q-34 -4 -54 -29z" />
<glyph unicode="&#xe6;" horiz-adv-x="628" d="M520 369q-28 32 -74 21q-27 -7 -44 -28q-12 -16 8 -34q42 -38 87 -18v1q7 3 13 8q22 16 16 39v1q-2 6 -6 10zM465 15q-18 -1 -52 15q-16 7 -29 9q-8 1 -51 0q-16 0 -30 3q-32 8 -99 -18q-69 -27 -101 -22q-42 5 -73 52q-46 69 7 162q13 24 32 45q21 24 76 25q52 1 70 13 q9 6 16 16q19 28 -3 51q-25 25 -80 11q-55 -15 -71 -13q-21 2 -35 17q-27 29 -6 65q2 5 6 10q29 36 92 33q-1 0 43 -3q39 -3 102 -35q17 -9 27 -13q23 -10 34 -2q82 58 161 42q38 -9 67 -36l8 -8q53 -61 22 -144q-15 -39 -46 -71q-1 -1 -46 12q-92 26 -121 -9 q-24 -30 12 -71q2 -2 5 -4q31 -31 132 -31q19 0 21 -2q32 -32 19 -58q-17 -36 -75 -40h-10q8 0 -24 -1zM123 201q-27 -30 -11 -65q4 -9 11 -16q33 -35 79 -24q18 5 32 18q31 28 21 69q-5 18 -18 30q-34 32 -82 11q-18 -8 -32 -23z" />
<glyph unicode="&#xe7;" horiz-adv-x="365" d="M153 6q20 27 58 15q10 -2 18 -8q8 -5 14 -13q15 -19 -8 -57q-1 -1 -4 -6q-41 -67 -61 -84q-30 -27 -56 -6q-21 17 6 48q35 40 32 36q16 21 16 39q0 6 -12 21q-7 8 -3 15zM320 434q31 -32 16 -74q-5 -16 -16 -27q-20 -20 -65 -5q-46 16 -62 13q-11 -2 -20 -10 q-43 -39 -35 -92q3 -24 18 -43q19 -23 66 -11q49 12 64 9l1 -1q12 -3 21 -11q38 -38 28 -84q-4 -18 -16 -31q-57 -65 -147 -50q-52 9 -96 42q-52 41 -52 125q0 2 4 89q4 80 11 103h1q11 37 43 60q84 60 166 38q40 -10 70 -40z" />
<glyph unicode="&#xe8;" horiz-adv-x="365" d="M93 734q-1 33 47 31q43 -2 73 -25q42 -32 74 -139q27 -89 12 -110q-10 -13 -38 21q-21 26 -86 84q-60 53 -75 96q-6 20 -7 42zM264 369q-28 32 -74 21q-27 -7 -44 -28q-12 -16 8 -34q42 -38 87 -18q7 4 13 9q22 16 16 39v1q-2 6 -6 10zM300 125q36 -35 20 -58 q-46 -65 -136 -53q-58 8 -107 45q-52 41 -52 125q0 2 4 89q4 80 11 103l1 1q12 37 43 59q82 58 161 42q44 -10 75 -44q53 -61 22 -144q-15 -39 -46 -71q-1 -1 -46 12q-92 26 -121 -9q-23 -29 8 -66q4 -5 9 -9q32 -30 133 -22q20 1 21 0z" />
<glyph unicode="&#xe9;" horiz-adv-x="365" d="M315 737q1 33 -47 31q-43 -2 -73 -25q-42 -32 -74 -139q-27 -89 -12 -110q10 -13 38 21q21 26 86 84q60 53 75 96q6 20 7 42zM264 369q-28 32 -74 21q-27 -7 -44 -28q-12 -16 8 -34q42 -38 87 -18q7 4 13 9q22 16 16 39v1q-2 6 -6 10zM300 125q36 -35 20 -58 q-46 -65 -136 -53q-58 8 -107 45q-52 41 -52 125q0 2 4 89q4 80 11 103l1 1q12 37 43 59q82 58 161 42q44 -10 75 -44q53 -61 22 -144q-15 -39 -46 -71q-1 -1 -46 12q-92 26 -121 -9q-23 -29 8 -66q4 -5 9 -9q32 -30 133 -22q20 1 21 0z" />
<glyph unicode="&#xea;" horiz-adv-x="365" d="M39 508q-2 -36 74 -3q7 3 13 6q19 9 34 49q14 35 30 40h1q5 1 10 1q23 -1 33 -34q12 -42 16 -49q6 -10 17 -16q56 -30 78 0t-12 84q12 -19 -21 33q-35 55 -48 68q-26 25 -60 25q-36 0 -65 -41q41 57 -19 -28l-1 -1l-1 -1q-5 -7 -10 -13q-45 -55 -52 -67q-15 -26 -17 -53z M264 369q-28 32 -74 21q-27 -7 -44 -28q-12 -16 8 -34q42 -38 87 -18q7 4 13 9q22 16 16 39v1q-2 6 -6 10zM300 125q36 -35 20 -58q-46 -65 -136 -53q-58 8 -107 45q-52 41 -52 125q0 2 4 89q4 80 11 103l1 1q12 37 43 59q82 58 161 42q44 -10 75 -44q53 -61 22 -144 q-15 -39 -46 -71q-1 -1 -46 12q-92 26 -121 -9q-23 -29 8 -66q4 -5 9 -9q32 -30 133 -22q20 1 21 0z" />
<glyph unicode="&#xeb;" horiz-adv-x="365" d="M264 369q-28 32 -74 21q-27 -7 -44 -28q-12 -16 8 -34q42 -38 87 -18q7 4 13 9q22 16 16 39v1q-2 6 -6 10zM300 125q36 -35 20 -58q-46 -65 -136 -53q-58 8 -107 45q-52 41 -52 125q0 2 4 89q4 80 11 103l1 1q12 37 43 59q82 58 161 42q44 -10 75 -44q53 -61 22 -144 q-15 -39 -46 -71q-1 -1 -46 12q-92 26 -121 -9q-23 -29 8 -66q4 -5 9 -9q32 -30 133 -22q20 1 21 0zM87 500q-47 -26 -78 6q-25 30 -13 65l1 1v1q6 14 18 23q35 24 75 1q21 -12 30 -34q14 -33 -27 -60q-3 -1 -6 -3zM337 500q-47 -26 -78 6q-25 30 -13 65l1 1v1q6 14 18 23 q35 24 75 1q21 -12 30 -34q14 -33 -27 -60h-1q-2 -2 -5 -3z" />
<glyph unicode="&#xec;" horiz-adv-x="207" d="M46 33q33 -31 76 -15q13 5 23 15q29 26 21 80q-9 61 -9 76q1 12 14 71q12 50 -14 76q-34 36 -81 25q-20 -4 -36 -19q-27 -26 -15 -77q14 -59 15 -71v-5q1 -15 -11 -76q-10 -53 17 -80zM-6 603q-1 33 47 31q43 -2 73 -25q42 -32 74 -139q24 -78 14 -106q-8 -22 -40 17 q-21 26 -86 84q-60 53 -75 96q-6 20 -7 42z" />
<glyph unicode="&#xed;" horiz-adv-x="207" d="M46 33q33 -31 76 -15q13 5 23 15q29 26 21 80q-9 61 -9 76q1 12 14 71q12 50 -14 76q-34 36 -81 25q-20 -4 -36 -19q-27 -26 -15 -77q14 -59 15 -71v-5q1 -15 -11 -76q-10 -53 17 -80zM222 606q1 33 -47 31q-42 -2 -73 -25q-42 -32 -74 -139q-23 -78 -14 -106 q9 -22 40 17q21 26 86 84q61 53 75 96q7 20 7 42z" />
<glyph unicode="&#xee;" horiz-adv-x="207" d="M-20 377q-1 -28 60 0q3 1 6 3q14 6 26 38v0v0q10 27 25 29h5q18 -1 26 -29q-4 13 2 -11l1 -1v-1q7 -25 21 -32q42 -23 58 0q17 23 -12 68q46 -72 -13 19q-29 46 -41 56q-17 14 -40 14q-27 0 -50 -32q14 20 -11 -17q-6 -8 -11 -14q-36 -44 -42 -56q-8 -17 -10 -34zM46 33 q33 -31 76 -15q13 5 23 15q29 26 21 80q-9 61 -9 76q1 12 14 71q12 50 -14 76q-34 36 -81 25q-20 -4 -36 -19q-27 -26 -15 -77q14 -59 15 -71v-5q1 -15 -11 -76q-10 -53 17 -80z" />
<glyph unicode="&#xef;" horiz-adv-x="207" d="M62 392q-33 -18 -52 4q-20 23 -8 48q4 8 12 13q25 18 53 -1q8 -6 13 -13l1 -1v-1q2 -2 3 -6q10 -24 -22 -43zM186 396q-33 -18 -52 4q-20 23 -8 48q4 8 12 13q25 18 53 -1q12 -8 18 -21q10 -24 -23 -43zM46 33q33 -31 76 -15q13 5 23 15q29 26 21 80q-9 61 -9 76 q1 12 14 71q12 50 -14 76q-34 36 -81 25q-20 -4 -36 -19q-27 -26 -15 -77q14 -59 15 -71v-5q1 -15 -11 -76q-10 -53 17 -80z" />
<glyph unicode="&#xf0;" horiz-adv-x="539" d="M318 184q-46 -46 -104 -37q-33 4 -57 27q-47 47 -37 115q7 43 37 73l7 7q48 40 109 17q32 -12 55 -39q42 -52 20 -115q-9 -27 -30 -48zM343 448q-2 -23 -33 -5l-45 28v0q-13 6 -22 7l-87 16q-38 4 -63 -20q-145 -135 -36 -382q27 -62 106 -80q35 -8 87 18q51 25 82 23 q3 -1 7 -1q16 -2 40 -24q20 -18 38 -18q28 0 42 22q30 50 18 124q-15 86 -15 92q-1 11 -1 22l5 213q-2 104 -27 154v1l-1 1q-4 8 -9 15q-19 26 -85 54q-4 2 -8 3q-5 2 14 52q4 9 4 11q3 21 -17 24q-17 3 -37 -14q-1 -1 -14 -43l-1 -2q-5 -16 -9 -16q-66 24 -90 42 q-25 19 -52 -17t-20 -73q10 -43 97 -56q3 0 8 -1q4 -1 -18 -43q-13 -25 -9 -28q29 -26 57 -10q13 8 28 49q4 11 8 11l46 -24q7 -5 10 -9q17 -28 8 -76q-5 -29 -6 -40z" />
<glyph unicode="&#xf1;" horiz-adv-x="373" d="M32 613q-32 -64 -1 -89q3 -2 7 -4q25 -13 52 21q30 38 33 41q18 17 38 16q24 -1 47 -35q22 -32 36 -39q7 -3 16 -4q58 -4 90 54q41 74 14 109q-6 9 -17 14q-19 9 -38 -20q-22 -33 -30 -39q-9 -7 -19 -7q-23 -1 -47 30q-24 29 -39 34h-1q-6 2 -12 2q-87 0 -129 -84z M342 321q0 -2 -3 -71v-5q-1 -27 13 -110q13 -74 -10 -105q-4 -5 -9 -10q-23 -22 -56 -3q-18 10 -25 27q-15 34 2 95q17 64 15 96q-3 50 -9 64q-3 8 -9 17q-16 24 -35 25q-43 3 -75 -39q-14 -18 -16 -59q-1 -15 -2 -25q-4 -26 5 -93q9 -60 -15 -90q-4 -5 -8 -9 q-23 -23 -49 -20q-15 2 -20 14q-22 47 -12 118q9 60 9 83q0 28 -13 116q-12 78 13 128q5 10 12 20q15 23 47 10q9 -4 16 -10q10 -9 2 -40q-7 -27 7 -33q17 -7 35 19q-7 -10 5 8q15 23 29 28q62 23 95 13q11 -4 22 -10q15 -9 23 -39q3 -8 4 -12q9 -30 12 -93v-5z" />
<glyph unicode="&#xf2;" horiz-adv-x="522" d="M137 742q-1 33 47 31q43 -2 73 -25q42 -32 74 -139q27 -89 12 -110q-10 -13 -38 21q-21 26 -86 84q-60 53 -75 96q-6 20 -7 42zM261 374q63 2 99 -48l1 -1q19 -27 21 -61q5 -65 -44 -108q-32 -26 -72 -29q-63 -3 -102 49q-24 32 -25 71q-1 65 52 104q31 22 70 23z M261 492q-108 -4 -178 -84q-62 -71 -60 -164q3 -104 81 -174q72 -65 167 -60q106 6 173 91q61 77 54 176q-6 103 -87 166q-66 52 -150 49z" />
<glyph unicode="&#xf3;" horiz-adv-x="522" d="M380 727q1 33 -47 31q-43 -2 -73 -25q-42 -32 -74 -139q-27 -89 -12 -110q10 -13 38 21q21 26 86 84q60 53 75 96q6 20 7 42zM261 374q63 2 99 -48l1 -1q19 -27 21 -61q5 -65 -44 -108q-32 -26 -72 -29q-63 -3 -102 49q-24 32 -25 71q-1 65 52 104q31 22 70 23zM261 492 q-108 -4 -178 -84q-62 -71 -60 -164q3 -104 81 -174q72 -65 167 -60q106 6 173 91q61 77 54 176q-6 103 -87 166q-66 52 -150 49z" />
<glyph unicode="&#xf4;" horiz-adv-x="522" d="M95 508q-2 -36 74 -3q7 3 13 6q19 9 34 49q14 35 30 40h1q5 1 10 1q23 -1 33 -34q12 -42 16 -49q6 -10 17 -16q56 -30 78 0t-12 84q12 -19 -21 33q-35 55 -48 68q-26 25 -60 25q-36 0 -65 -41q41 57 -19 -28l-1 -1l-1 -1q-5 -7 -10 -13q-45 -55 -52 -67q-15 -26 -17 -53z M261 374q63 2 99 -48l1 -1q19 -27 21 -61q5 -65 -44 -108q-32 -26 -72 -29q-63 -3 -102 49q-24 32 -25 71q-1 65 52 104q31 22 70 23zM261 492q-108 -4 -178 -84q-62 -71 -60 -164q3 -104 81 -174q72 -65 167 -60q106 6 173 91q61 77 54 176q-6 103 -87 166q-66 52 -150 49z " />
<glyph unicode="&#xf5;" horiz-adv-x="522" d="M90 601q-32 -64 -1 -89q3 -2 7 -4q25 -13 52 21q30 38 33 41q18 17 38 16q24 -1 47 -35q22 -32 36 -39q7 -3 16 -4q58 -4 90 54q41 74 14 109q-6 9 -17 14q-19 9 -38 -20q-22 -33 -30 -39q-9 -7 -19 -7q-23 -1 -47 30q-24 29 -39 34h-1q-6 2 -12 2q-87 0 -129 -84z M261 374q63 2 99 -48l1 -1q19 -27 21 -61q5 -65 -44 -108q-32 -26 -72 -29q-63 -3 -102 49q-24 32 -25 71q-1 65 52 104q31 22 70 23zM261 492q-108 -4 -178 -84q-62 -71 -60 -164q3 -104 81 -174q72 -65 167 -60q106 6 173 91q61 77 54 176q-6 103 -87 166q-66 52 -150 49z " />
<glyph unicode="&#xf6;" horiz-adv-x="522" d="M261 374q63 2 99 -48l1 -1q19 -27 21 -61q5 -65 -44 -108q-32 -26 -72 -29q-63 -3 -102 49q-24 32 -25 71q-1 65 52 104q31 22 70 23zM261 492q-108 -4 -178 -84q-62 -71 -60 -164q3 -104 81 -174q72 -65 167 -60q106 6 173 91q61 77 54 176q-6 103 -87 166 q-66 52 -150 49zM147 545q-47 -26 -78 6q-25 30 -13 65l1 1v1q6 14 18 23q35 24 75 1q21 -12 30 -34q14 -33 -27 -60q-3 -1 -6 -3zM397 545q-47 -26 -78 6q-25 30 -13 65l1 1v1q6 14 18 23q35 24 75 1q21 -12 30 -34q14 -33 -27 -60h-1q-2 -2 -5 -3z" />
<glyph unicode="&#xf7;" horiz-adv-x="450" d="M177 539q-26 48 6 78q30 26 65 13q16 -5 25 -19q24 -35 1 -74q-10 -18 -26 -27l-8 -4q-33 -14 -60 27q-1 3 -3 6zM225 459q-18 0 -88 14q-61 11 -92 -15q-4 -3 -7 -6q-35 -36 -20 -82q6 -16 17 -29q31 -34 91 -26q-92 -12 52 9q21 3 38 3q19 0 94 -13q68 -11 99 16 q7 6 13 14q29 38 -1 85v1l-1 1q-8 12 -19 21q-33 29 -93 19q-67 -12 -83 -12zM177 189q-26 48 6 78q30 26 65 13q16 -5 25 -19q24 -35 1 -74q-10 -18 -26 -27l-8 -4q-33 -14 -60 27q-1 3 -3 6z" />
<glyph unicode="&#xf8;" horiz-adv-x="522" d="M346 508q-45 -48 -123 -166l-3 -4q-29 -45 -49 -74l-104 -142q-24 -37 -40 -71q-9 -21 21 -36q34 -17 56 -1q64 52 121 136q-118 -175 43 65l4 6q96 142 148 267q7 19 -23 28q-32 10 -51 -8zM261 374q63 2 99 -48q20 -28 22 -62q5 -65 -44 -108q-32 -26 -72 -29 q-63 -3 -102 49q-24 32 -25 71q-1 65 52 104q31 22 70 23zM261 492q-108 -4 -178 -84q-62 -71 -60 -164q3 -104 81 -174q72 -65 167 -60q106 6 173 91q61 77 54 176q-6 103 -87 166q-66 52 -150 49z" />
<glyph unicode="&#xf9;" horiz-adv-x="462" d="M120 742q-1 33 47 31q43 -2 73 -25q42 -32 74 -139q27 -89 12 -110q-10 -13 -38 21q-21 26 -86 84q-60 53 -75 96q-6 20 -7 42zM41 462q-36 -34 -23 -97l18 -83q2 -15 2 -29q0 -22 -14 -91q-13 -62 11 -100q2 -2 3 -4q34 -48 112 -51h4h22h6q20 1 51 25q29 21 51 17 q8 -1 16 -16q5 -8 11 -11q45 -19 66 0q48 42 44 121q1 -20 -8 80q-4 40 -1 69q2 16 20 77q17 55 -7 84q-1 2 -3 4q-32 36 -80 24q-19 -5 -34 -18q-29 -25 -22 -79q-12 92 5 -34q4 -34 -1 -58l-13 -98q-9 -36 -38 -55q-38 -24 -71 0q-5 3 -10 9q-28 31 -14 87q16 64 17 75v18 q0 8 6 63q5 43 -18 65q-36 35 -80 22q-16 -5 -28 -16z" />
<glyph unicode="&#xfa;" horiz-adv-x="462" d="M372 756q1 33 -47 31q-43 -2 -73 -25q-42 -32 -74 -139q-27 -89 -12 -110q10 -13 38 21q21 26 86 84q60 53 75 96q6 20 7 42zM41 462q-36 -34 -23 -97l18 -83q2 -15 2 -29q0 -22 -14 -91q-13 -62 11 -100q2 -2 3 -4q34 -48 112 -51h4h22h6q20 1 51 25q29 21 51 17 q8 -1 16 -16q5 -8 11 -11q45 -19 66 0q48 42 44 121q1 -20 -8 80q-4 40 -1 69q2 16 20 77q17 55 -7 84q-1 2 -3 4q-32 36 -80 24q-19 -5 -34 -18q-29 -25 -22 -79q-12 92 5 -34q4 -34 -1 -58l-13 -98q-9 -36 -38 -55q-38 -24 -71 0q-5 3 -10 9q-28 31 -14 87q16 64 17 75v18 q0 8 6 63q5 43 -18 65q-36 35 -80 22q-16 -5 -28 -16z" />
<glyph unicode="&#xfb;" horiz-adv-x="462" d="M75 529q-2 -36 74 -3q7 3 13 6q19 9 34 49q14 35 30 40h1q5 1 10 1q23 -1 33 -34q12 -42 16 -49q6 -10 17 -16q56 -30 78 0t-12 84q12 -19 -21 33q-35 55 -48 68q-26 25 -60 25q-36 0 -65 -41q41 57 -19 -28l-1 -1l-1 -1q-5 -7 -10 -13q-45 -55 -52 -67q-15 -26 -17 -53z M41 462q-36 -34 -23 -97l18 -83q2 -15 2 -29q0 -22 -14 -91q-13 -62 11 -100q2 -2 3 -4q34 -48 112 -51h4h22h6q20 1 51 25q29 21 51 17q8 -1 16 -16q5 -8 11 -11q45 -19 66 0q48 42 44 121q1 -20 -8 80q-4 40 -1 69q2 16 20 77q17 55 -7 84q-1 2 -3 4q-32 36 -80 24 q-19 -5 -34 -18q-29 -25 -22 -79q-12 92 5 -34q4 -34 -1 -58l-13 -98q-9 -36 -38 -55q-38 -24 -71 0q-5 3 -10 9q-28 31 -14 87q16 64 17 75v18q0 8 6 63q5 43 -18 65q-36 35 -80 22q-16 -5 -28 -16z" />
<glyph unicode="&#xfc;" horiz-adv-x="462" d="M127 536q-47 -26 -78 6q-25 30 -13 65l1 1v1q6 14 18 23q35 24 75 1q21 -12 30 -34q14 -33 -27 -60q-3 -1 -6 -3zM377 536q-47 -26 -78 6q-25 30 -13 65l1 1v1q6 14 18 23q35 24 75 1q21 -12 30 -34q14 -33 -27 -60h-1q-2 -2 -5 -3zM41 462q-36 -34 -23 -97l18 -83 q2 -15 2 -29q0 -22 -14 -91q-13 -62 11 -100q2 -2 3 -4q34 -48 112 -51h4h22h6q20 1 51 25q29 21 51 17q8 -1 16 -16q5 -8 11 -11q45 -19 66 0q48 42 44 121q1 -20 -8 80q-4 40 -1 69q2 16 20 77q17 55 -7 84q-1 2 -3 4q-32 36 -80 24q-19 -5 -34 -18q-29 -25 -22 -79 q-12 92 5 -34q4 -34 -1 -58l-13 -98q-9 -36 -38 -55q-38 -24 -71 0q-5 3 -10 9q-28 31 -14 87q16 64 17 75v18q0 8 6 63q5 43 -18 65q-36 35 -80 22q-16 -5 -28 -16z" />
<glyph unicode="&#xfd;" horiz-adv-x="475" d="M392 748q1 33 -47 31q-43 -2 -73 -25q-42 -32 -74 -139q-27 -89 -12 -110q10 -13 38 21q21 26 86 84q60 53 75 96q6 20 7 42zM48 445q-56 -81 -6 -197q14 -33 63 -119q17 -30 74 -54q49 -21 62 -35q15 -16 14 -40q-1 -55 -81 -82h-1q-14 -5 -35 -10q-22 -5 -62 17 q-37 20 -54 9q-4 -2 -7 -5q-25 -24 -7 -60q6 -12 16 -21q118 -99 312 18q50 30 74 97q5 14 16 52q44 150 27 349q-6 63 -15 93q-11 34 -61 17q-30 -11 -50 -32q-34 -36 -9 -125q23 -80 24 -85q9 -56 -36 -64q-63 -12 -87 59v1q-7 20 -24 123q-13 77 -33 115q-18 33 -65 15 q-32 -11 -49 -36z" />
<glyph unicode="&#xfe;" horiz-adv-x="537" d="M253 255q3 -51 44 -76q23 -14 49 -11q43 6 60 50q9 24 5 49q-8 47 -50 65q-19 9 -41 7q-43 -5 -61 -45q-8 -19 -6 -39zM200 -155q-34 -39 -89 -40q-51 -1 -70 37q-30 57 -15 156l17 118q2 21 3 40q0 19 -13 187q-19 242 25 319q8 14 18 24q31 31 72 15q12 -4 24 -15 q28 -27 11 -88q27 95 -11 -34v-1v0q-17 -60 12 -88q25 -22 73 -5q-122 -45 22 9q46 17 73 4q164 -78 165 -225q1 -146 -162 -234l-6 -3q-25 -13 -71 2q-46 14 -64 6q-5 -1 -8 -4q-4 -2 -7 -5q-17 -15 -12 -53q3 -21 3 -30q0 -12 13 -48q11 -28 -3 -44z" />
<glyph unicode="&#xff;" horiz-adv-x="475" d="M48 445q-56 -81 -6 -197q14 -33 63 -119q17 -30 74 -54q49 -21 62 -35q15 -16 14 -40q-1 -55 -81 -82h-1q-14 -5 -35 -10q-22 -5 -62 17q-37 20 -54 9q-4 -2 -7 -5q-25 -24 -7 -60q6 -12 16 -21q118 -99 312 18q50 30 74 97q5 14 16 52q44 150 27 349q-6 63 -15 93 q-11 34 -61 17q-30 -11 -50 -32q-34 -36 -9 -125q23 -80 24 -85q9 -56 -36 -64q-63 -12 -87 59v1q-7 20 -24 123q-13 77 -33 115q-18 33 -65 15q-32 -11 -49 -36zM141 557q-47 -26 -78 6q-25 30 -13 65l1 1v1q6 14 18 23q35 24 75 1q21 -12 30 -34q14 -33 -27 -60 q-3 -1 -6 -3zM391 557q-47 -26 -78 6q-25 30 -13 65l1 1v1q6 14 18 23q35 24 75 1q21 -12 30 -34q14 -33 -27 -60h-1q-2 -2 -5 -3z" />
<glyph unicode="&#x2011;" horiz-adv-x="450" d="M225 459q-18 0 -88 14q-61 11 -92 -15q-4 -3 -7 -6q-35 -36 -20 -82q6 -16 17 -29q31 -34 91 -26q-92 -12 52 9q21 3 38 3q19 0 94 -13q68 -11 99 16q7 6 13 14q29 38 -1 85v1l-1 1q-8 12 -19 21q-33 29 -93 19q-67 -12 -83 -12z" />
<glyph unicode="&#x2012;" d="M173 459q-14 0 -67 13q-46 12 -70 -13q-3 -2 -7 -7q-29 -38 -13 -87q4 -13 11 -24q24 -34 71 -26l59 12h9q15 0 73 -13q52 -11 75 15q6 7 11 15q24 41 -3 90l-1 1q-5 9 -12 17q-26 29 -71 19q-52 -12 -65 -12z" />
<glyph unicode="&#x2013;" horiz-adv-x="373" d="M186 459q-15 0 -71 13q-50 12 -75 -13q-4 -3 -7 -7q-30 -37 -15 -85q4 -14 13 -26q25 -34 75 -26l63 12h10q16 0 77 -13q36 -7 56 -1l1 1q21 7 35 30q25 40 -2 88q0 1 -1 1q-6 11 -14 19q-27 29 -75 19q-56 -12 -65 -12h-5z" />
<glyph unicode="&#x2014;" horiz-adv-x="562" d="M279 459q-23 0 -108 13q-77 12 -116 -14l-8 -6q-40 -33 -26 -77q6 -19 23 -34q38 -34 113 -26l95 12h16q23 0 117 -13q83 -11 121 15l1 1l1 1q8 5 16 13q34 36 1 81q-1 2 -3 4q-7 9 -16 16v1l-8 6q-42 29 -115 19q-85 -12 -104 -12z" />
<glyph unicode="&#x2015;" horiz-adv-x="562" d="M279 459q-23 0 -108 13q-77 12 -116 -14l-8 -6q-40 -33 -26 -77q6 -19 23 -34q38 -34 113 -26l95 12h16q23 0 117 -13q83 -11 121 15l1 1l1 1q8 5 16 13q34 36 1 81q-1 2 -3 4q-7 9 -16 16v1l-8 6q-42 29 -115 19q-85 -12 -104 -12z" />
<glyph unicode="&#x2018;" horiz-adv-x="240" d="M21 750q23 35 69 29q24 -4 42 -20q19 -17 8 -54q8 27 -4 -13v-1q-8 -28 -4 -46q5 -24 49 -73q34 -38 28 -51q-3 -7 -14 -11q-23 -9 -82 50q-28 27 -47 55l-41 59q-26 43 -4 76z" />
<glyph unicode="&#x2019;" horiz-adv-x="240" d="M200 750q-23 35 -69 29q-24 -4 -42 -20q-19 -17 -8 -54q-8 27 4 -13v-1q8 -28 4 -46q-5 -24 -49 -73q-34 -38 -28 -51q3 -7 14 -11q23 -9 82 50q28 27 47 55l41 59q26 43 4 76z" />
<glyph unicode="&#x201c;" horiz-adv-x="390" d="M171 750q23 35 69 29q24 -4 42 -20q19 -17 8 -54q8 27 -4 -13v-1q-8 -28 -4 -46q5 -24 49 -73q34 -38 28 -51q-3 -7 -14 -11q-23 -9 -82 50q-28 27 -47 55l-41 59q-26 43 -4 76zM21 750q23 35 69 29q24 -4 42 -20q19 -17 8 -54q8 27 -4 -13v-1q-8 -28 -4 -46 q5 -24 49 -73q34 -38 28 -51q-3 -7 -14 -11q-23 -9 -82 50q-28 27 -47 55l-41 59q-26 43 -4 76z" />
<glyph unicode="&#x201d;" horiz-adv-x="390" d="M200 750q-23 35 -69 29q-24 -4 -42 -20q-19 -17 -8 -54q-8 27 4 -13v-1q8 -28 4 -46q-5 -24 -49 -73q-34 -38 -28 -51q3 -7 14 -11q23 -9 82 50q28 27 47 55l41 59q26 43 4 76zM350 750q-23 35 -69 29q-24 -4 -42 -20q-19 -17 -8 -54q-8 27 4 -13v-1q8 -28 4 -46 q-5 -24 -49 -73q-34 -38 -28 -51q3 -7 14 -11q23 -9 82 50q28 27 47 55l41 59q26 43 4 76z" />
<glyph unicode="&#x201e;" horiz-adv-x="390" d="M200 250q-23 35 -69 29q-24 -4 -42 -20q-19 -17 -8 -54q-8 27 4 -13v-1q8 -28 4 -46q-5 -24 -49 -73q-34 -38 -28 -51q3 -7 14 -11q23 -9 82 50q28 27 47 55l41 59q26 43 4 76zM350 250q-23 35 -69 29q-24 -4 -42 -20q-19 -17 -8 -54q-8 27 4 -13v-1q8 -28 4 -46 q-5 -24 -49 -73q-34 -38 -28 -51q3 -7 14 -11q23 -9 82 50q28 27 47 55l41 59q26 43 4 76z" />
<glyph unicode="&#x201f;" horiz-adv-x="390" d="M171 750q23 35 69 29q24 -4 42 -20q19 -17 8 -54q8 27 -4 -13v-1q-8 -28 -4 -46q5 -24 49 -73q34 -38 28 -51q-3 -7 -14 -11q-23 -9 -82 50q-28 27 -47 55l-41 59q-26 43 -4 76zM21 750q23 35 69 29q24 -4 42 -20q19 -17 8 -54q8 27 -4 -13v-1q-8 -28 -4 -46 q5 -24 49 -73q34 -38 28 -51q-3 -7 -14 -11q-23 -9 -82 50q-28 27 -47 55l-41 59q-26 43 -4 76z" />
<glyph unicode="&#x2026;" horiz-adv-x="750" d="M387 45q-26 48 6 78q30 26 65 13q16 -5 25 -19q24 -35 1 -74q-10 -18 -26 -27l-8 -4q-33 -14 -60 27q-1 3 -3 6zM237 45q-26 48 6 78q30 26 65 13q16 -5 25 -19q24 -35 1 -74q-10 -18 -26 -27l-8 -4q-33 -14 -60 27q-1 3 -3 6zM87 45q-26 48 6 78q30 26 65 13 q16 -5 25 -19q24 -35 1 -74q-10 -18 -26 -27l-8 -4q-33 -14 -60 27q-1 3 -3 6z" />
<glyph unicode="&#x2047;" horiz-adv-x="700" d="M477 45q-26 48 6 78q30 26 65 13q16 -5 25 -19q24 -35 1 -74q-12 -22 -34 -31q-33 -14 -60 27q-1 3 -3 6zM368 549q19 -26 53 -25q25 1 34 19q8 14 11 65q3 48 28 64q42 26 82 1q10 -6 17 -16q44 -53 22 -137q1 5 -30 -92q-4 -12 -7 -23q-12 -43 -55 -104 q-41 -56 -53 -100q-5 -21 24 -24q38 -3 72 18q43 28 54 92l13 86q1 6 2 11l46 154q17 71 7 140q-8 66 -82 90q-34 11 -73 9q-55 -3 -98 -60v-1l-1 -1q-8 -11 -23 -33q-6 -10 -7 -10q-34 -52 -38 -60q-16 -36 2 -63zM127 45q-26 48 6 78q30 26 65 13q16 -5 25 -19 q24 -35 1 -74q-12 -22 -34 -31q-33 -14 -60 27q-1 3 -3 6zM18 549q19 -26 53 -25q25 1 34 19q8 14 11 65q3 48 28 64q42 26 82 1q10 -6 17 -16q44 -53 22 -137q1 5 -30 -92q-4 -12 -7 -23q-12 -43 -55 -104q-41 -56 -53 -100q-5 -21 24 -24q38 -3 72 18q43 28 54 92l13 86 q1 6 2 11l46 154q17 71 7 140q-8 66 -82 90q-34 11 -73 9q-55 -3 -98 -60v-1l-1 -1q-8 -11 -23 -33q-6 -10 -7 -10q-34 -52 -38 -60q-16 -36 2 -63z" />
<glyph unicode="&#x2048;" horiz-adv-x="600" d="M446 760q-58 -48 -59 -139q0 -9 1 -19l5 -125v-11l-13 -164q-2 -89 46 -136q28 -27 67 -8q8 5 15 11q58 50 59 142l-6 150v7l9 153q0 82 -38 134l-1 1q-1 2 -3 4q-22 28 -62 12q-11 -4 -20 -12zM424 122q32 32 77 11q6 -3 13 -8q36 -26 33 -62q-2 -12 -9 -22 q-24 -36 -70 -32q-28 2 -47 20q-29 27 -13 68q6 14 16 25zM127 45q-26 48 6 78q30 26 65 13q16 -5 25 -19q24 -35 1 -74q-12 -22 -34 -31q-33 -14 -60 27q-1 3 -3 6zM18 549q19 -26 53 -25q25 1 34 19q8 14 11 65q3 48 28 64q42 26 82 1q10 -6 17 -16q44 -53 22 -137 q1 5 -30 -92q-4 -12 -7 -23q-12 -43 -55 -104q-41 -56 -53 -100q-5 -21 24 -24q38 -3 72 18q43 28 54 92l13 86q1 6 2 11l46 154q17 71 7 140q-8 66 -82 90q-34 11 -73 9q-55 -3 -98 -60v-1l-1 -1q-8 -11 -23 -33q-6 -10 -7 -10q-34 -52 -38 -60q-16 -36 2 -63z" />
<glyph unicode="&#x2049;" horiz-adv-x="600" d="M377 45q-26 48 6 78q30 26 65 13q16 -5 25 -19q24 -35 1 -74q-12 -22 -34 -31q-33 -14 -60 27q-1 3 -3 6zM268 549q19 -26 53 -25q25 1 34 19q8 14 11 65q3 48 28 64q42 26 82 1q10 -6 17 -16q44 -53 22 -137q1 5 -30 -92q-4 -12 -7 -23q-12 -43 -55 -104 q-41 -56 -53 -100q-5 -21 24 -24q38 -3 72 18q43 28 54 92l13 86q1 6 2 11l46 154q17 71 7 140q-8 66 -82 90q-34 11 -73 9q-55 -3 -98 -60v-1l-1 -1q-8 -11 -23 -33q-6 -10 -7 -10q-34 -52 -38 -60q-16 -36 2 -63zM96 760q-58 -48 -59 -139q0 -9 1 -19l5 -125v-11l-13 -164 q-2 -89 46 -136q28 -27 67 -8q8 5 15 11q58 50 59 142l-6 150v7l9 153q0 82 -38 134l-1 1q-1 2 -3 4q-22 28 -62 12q-11 -4 -20 -12zM74 122q32 32 77 11q6 -3 13 -8q36 -26 33 -62q-2 -12 -9 -22q-24 -36 -70 -32q-28 2 -47 20q-29 27 -13 68q6 14 16 25z" />
<glyph unicode="&#x20ac;" horiz-adv-x="896" d="M280 367q-23 0 -108 13q-77 12 -116 -14l-8 -6q-40 -33 -26 -77q6 -19 23 -34q38 -34 113 -26l95 12h16q23 0 117 -13q83 -11 121 15l1 1l1 1q8 5 16 13q34 36 1 81q-1 2 -3 4q-7 9 -16 16v1l-8 6q-42 29 -115 19q-85 -12 -104 -12zM280 567q-23 0 -108 13 q-77 12 -116 -14l-8 -6q-40 -33 -26 -77q6 -19 23 -34q38 -34 113 -26l95 12h16q23 0 117 -13q83 -11 121 15l1 1l1 1q8 5 16 13q34 36 1 81q-1 2 -3 4q-7 9 -16 16v1l-8 6q-42 29 -115 19q-85 -12 -104 -12zM328 465q-2 82 76 146q80 65 182 61q42 -2 72 -62l35 -74 q15 -25 33 -33h1h1q14 -6 31 -1q53 14 67 77q11 54 -15 102q-78 140 -322 90q-178 -36 -259 -170l-1 -1q-17 -29 -31 -63q-85 -205 20 -386q13 -21 28 -43q69 -99 192 -107q13 -1 27 -1h143q116 6 202 69q53 39 63 122q11 83 -31 127q-1 1 -3 2v1q-18 16 -41 21 q-37 8 -47 -39l-13 -97q-10 -45 -38 -59q-135 -70 -264 29q-7 6 -15 13q-31 26 -72 174q-20 74 -21 102z" />
<glyph unicode="&#x25fc;" horiz-adv-x="490" d="M0 490h490v-490h-490v490z" />
</font>
</defs>
</svg>
